<?xml version="1.0" encoding="UTF-8"?>
<svg id="_圖層_1" data-name="圖層 1" xmlns="http://www.w3.org/2000/svg" xmlns:xlink="http://www.w3.org/1999/xlink" viewBox="0 0 1170 2182.68">
  <defs>
    <clipPath id="clippath">
      <rect y="-174.66" width="1170" height="2532" style="fill: none;"/>
    </clipPath>
    <clipPath id="clippath-1">
      <rect y="-174.66" width="1170" height="2532" style="fill: none;"/>
    </clipPath>
  </defs>
  <g style="clip-path: url(#clippath);">
    <text transform="translate(565 2142.34)" style="fill: #221714; font-family: MusticaPro-Medium, &apos;Mustica Pro&apos;; font-size: 40px; font-weight: 500;"><tspan x="0" y="0">01</tspan></text>
    <g style="clip-path: url(#clippath-1);">
      <path d="M545.85,617.94c0,23.34-18.92,42.27-42.27,42.27s-42.27-18.92-42.27-42.27,18.92-42.27,42.27-42.27,42.27,18.92,42.27,42.27" style="fill: #717071;"/>
      <path d="M545.85,791.85v63.84c-51.92-3.96-97.78-66.04-97.78-66.04v-97.51c0-11.78,9.55-21.34,21.34-21.34h46.67c8.93,0,17.24,4.56,22.03,12.09l45.58,71.53,44.71-27.39c9.82-6.02,22.66-2.89,28.62,6.96,5.98,9.89,2.74,22.76-7.21,28.64l-63.61,37.55c-9.02,5.32-20.58,3.19-27.11-4.99l-42.33-53.07-3.08,3.94,32.18,40.95v4.84Z" style="fill: #717071;"/>
      <polygon points="550.77 692.35 570.58 723.17 602.4 713.67 577.86 683.5 550.77 692.35" style="fill: #717071;"/>
      <polygon points="583.24 653.16 607.45 708.64 670.86 666.37 648.4 613.97 583.24 653.16" style="fill: #717071;"/>
      <polygon points="638.28 613.97 631.67 606.93 557.97 651.4 601.29 704.48 576.19 650.96 638.28 613.97" style="fill: #717071;"/>
      <path d="M610.54,714.8l21.57,7.48s22.03-7.08,30.95,16.03c8.36,2.97,17,5.69,17,5.69l57.29-46.38-63.4-25.06-63.4,42.23Z" style="fill: #717071;"/>
      <path d="M585,519.31c101,0,183.16,82.17,183.16,183.17s-82.17,183.17-183.16,183.17-183.17-82.17-183.17-183.17,82.17-183.17,183.17-183.17M585,508.74c-107,0-193.73,86.73-193.73,193.73s86.74,193.73,193.73,193.73,193.73-86.74,193.73-193.73-86.74-193.73-193.73-193.73" style="fill: #717071;"/>
    </g>
  </g>
</svg>