<?xml version="1.0" encoding="UTF-8"?>
<svg id="_圖層_1" data-name="圖層 1" xmlns="http://www.w3.org/2000/svg" xmlns:xlink="http://www.w3.org/1999/xlink" viewBox="0 0 1170 2182.68">
  <defs>
    <clipPath id="clippath">
      <rect y="-174.66" width="1170" height="2532" style="fill: none;"/>
    </clipPath>
    <clipPath id="clippath-1">
      <rect y="-174.66" width="1170" height="2532" style="fill: none;"/>
    </clipPath>
    <clipPath id="clippath-2">
      <rect y="-174.66" width="1170" height="2532" style="fill: none;"/>
    </clipPath>
  </defs>
  <g style="clip-path: url(#clippath);">
    <g>
      <path d="M142.18,1113.47l2.41-2.35c3.47,3.58,8.06,5.43,13.44,5.43,6.83,0,11.65-3.3,11.65-7.9,0-3.98-2.97-6.22-11.54-8.74-7.73-2.3-14.28-4.65-14.28-11.26,0-6.22,5.26-10.19,13.89-10.19,5.6,0,10.92,2.35,14.34,6.44l-2.41,2.35c-2.86-3.42-7.22-5.43-11.93-5.43-6.72,0-10.53,2.69-10.53,6.83,0,3.3,2.74,5.26,10.92,7.73,8.01,2.41,14.9,4.98,14.9,12.26,0,6.55-6.22,11.26-15.01,11.26-6.33,0-11.87-2.3-15.85-6.44Z" style="fill: #040000;"/>
      <path d="M183.51,1119.35h-3.36v-42h3.36v42Z" style="fill: #040000;"/>
      <path d="M204.73,1090.79c7.95,0,13.38,6.1,13.44,14.56,0,.62-.11,1.34-.11,1.96h-24.02c.84,5.38,5.32,9.18,11.2,9.18,3.42,0,6.66-1.29,8.85-3.7l2.41,2.41c-2.91,3.08-6.94,4.7-11.14,4.7-8.57,0-14.9-6.27-14.9-14.56s6.1-14.56,14.28-14.56ZM193.92,1103.95h20.78c-.5-5.82-4.54-9.8-10.02-9.8s-10.14,4.2-10.75,9.8Z" style="fill: #040000;"/>
      <path d="M237.55,1090.79c7.95,0,13.38,6.1,13.44,14.56,0,.62-.11,1.34-.11,1.96h-24.02c.84,5.38,5.32,9.18,11.2,9.18,3.42,0,6.66-1.29,8.85-3.7l2.41,2.41c-2.91,3.08-6.94,4.7-11.14,4.7-8.57,0-14.9-6.27-14.9-14.56s6.1-14.56,14.28-14.56ZM226.74,1103.95h20.78c-.5-5.82-4.54-9.8-10.02-9.8s-10.14,4.2-10.75,9.8Z" style="fill: #040000;"/>
      <path d="M257.88,1091.35l10.64,23.86,10.64-23.86h3.7l-12.43,28h-3.75l-12.43-28h3.64Z" style="fill: #040000;"/>
      <path d="M300.43,1090.79c7.95,0,13.38,6.1,13.44,14.56,0,.62-.11,1.34-.11,1.96h-24.02c.84,5.38,5.32,9.18,11.2,9.18,3.42,0,6.66-1.29,8.85-3.7l2.41,2.41c-2.91,3.08-6.94,4.7-11.14,4.7-8.57,0-14.9-6.27-14.9-14.56s6.1-14.56,14.28-14.56ZM289.63,1103.95h20.78c-.5-5.82-4.54-9.8-10.02-9.8s-10.14,4.2-10.75,9.8Z" style="fill: #040000;"/>
      <path d="M333.53,1090.79c4.93,0,9.35,3.08,11.2,6.78v-18.54h3.36v40.32h-3.36v-6.22c-1.85,3.7-6.27,6.78-11.2,6.78-8.06,0-14.56-6.55-14.56-14.56s6.5-14.56,14.56-14.56ZM322.33,1105.35c0,6.16,4.98,11.2,11.2,11.2s11.2-5.04,11.2-11.2-5.04-11.2-11.2-11.2-11.2,5.04-11.2,11.2Z" style="fill: #040000;"/>
      <path d="M369.54,1094.71v-3.36h5.54v-1.51c0-8.06,4.37-11.37,11.26-11.37h1.85v3.36h-1.85c-5.04,0-7.9,2.02-7.9,8.01v1.51h9.74v3.36h-9.74v24.64h-3.36v-24.64h-5.54Z" style="fill: #040000;"/>
      <path d="M406.72,1090.79c4.93,0,9.35,3.08,11.2,6.78v-6.22h3.36v28h-3.36v-6.22c-1.85,3.7-6.27,6.78-11.2,6.78-8.06,0-14.56-6.55-14.56-14.56s6.5-14.56,14.56-14.56ZM395.52,1105.35c0,6.16,4.98,11.2,11.2,11.2s11.2-5.04,11.2-11.2-5.04-11.2-11.2-11.2-11.2,5.04-11.2,11.2Z" style="fill: #040000;"/>
      <path d="M430.07,1119.35v-28h3.36v5.21c1.79-3.53,5.54-5.77,9.74-5.77,6.38,0,11.03,4.26,11.03,11.65v16.91h-3.36v-16.74c0-6.22-3.58-8.9-8.06-8.9-4.98,0-9.35,3.58-9.35,9.97v15.68h-3.36Z" style="fill: #040000;"/>
      <path d="M491.11,1090.79c7.95,0,13.38,6.1,13.44,14.56,0,.62-.11,1.34-.11,1.96h-24.02c.84,5.38,5.32,9.18,11.2,9.18,3.42,0,6.66-1.29,8.85-3.7l2.41,2.41c-2.91,3.08-6.94,4.7-11.14,4.7-8.57,0-14.9-6.27-14.9-14.56s6.1-14.56,14.28-14.56ZM480.3,1103.95h20.78c-.5-5.82-4.54-9.8-10.02-9.8s-10.14,4.2-10.75,9.8Z" style="fill: #040000;"/>
      <path d="M519.78,1104.85l-10.86-13.5h4.31l8.68,10.75,8.74-10.75h4.26l-10.86,13.5,11.7,14.5h-4.31l-9.52-11.82-9.52,11.82h-4.26l11.65-14.5Z" style="fill: #040000;"/>
      <path d="M538.21,1091.35h4.82c.84,0,1.4-.56,1.4-1.34v-6.16h3.36v7.5h9.02v3.36h-9.02v15.29c0,5.1,1.12,6.55,4.98,6.55,1.51,0,2.63-.17,4.03-.45v3.25c-1.23.34-2.69.56-4.37.56-5.82,0-8.01-2.69-8.01-9.8v-15.4h-6.22v-3.36Z" style="fill: #040000;"/>
      <path d="M576.23,1090.79c7.95,0,13.38,6.1,13.44,14.56,0,.62-.11,1.34-.11,1.96h-24.02c.84,5.38,5.32,9.18,11.2,9.18,3.42,0,6.66-1.29,8.85-3.7l2.41,2.41c-2.91,3.08-6.94,4.7-11.14,4.7-8.57,0-14.9-6.27-14.9-14.56s6.1-14.56,14.28-14.56ZM565.42,1103.95h20.78c-.5-5.82-4.54-9.8-10.02-9.8s-10.14,4.2-10.75,9.8Z" style="fill: #040000;"/>
      <path d="M596.62,1119.35v-28h3.36v5.21c1.79-3.53,5.54-5.77,9.74-5.77,6.38,0,11.03,4.26,11.03,11.65v16.91h-3.36v-16.74c0-6.22-3.58-8.9-8.06-8.9-4.98,0-9.35,3.58-9.35,9.97v15.68h-3.36Z" style="fill: #040000;"/>
      <path d="M629.6,1112.97c2.13,2.24,5.32,3.58,8.96,3.58,4.37,0,7.67-1.96,7.67-4.59,0-3.7-4.82-4.87-8.06-5.77-4.59-1.23-10.3-2.52-10.3-7.9,0-4.54,4.14-7.5,9.91-7.5,4.37,0,8.46,1.74,11.14,4.54l-2.35,2.41c-2.52-2.46-5.38-3.53-8.79-3.53-4.03,0-6.5,1.74-6.5,3.98,0,2.91,4.03,3.75,8.06,4.82,4.82,1.29,10.25,3.08,10.25,8.9,0,4.7-4.65,8.01-11.14,8.01-4.37,0-8.29-1.57-11.26-4.54l2.41-2.41Z" style="fill: #040000;"/>
      <path d="M657.71,1078.47c1.18,0,2.18,1.01,2.18,2.24s-1.01,2.18-2.18,2.18-2.24-.95-2.24-2.18,1.01-2.24,2.24-2.24ZM656.03,1119.35v-28h3.36v28h-3.36Z" style="fill: #040000;"/>
      <path d="M695.45,1105.35c0,8.01-6.55,14.56-14.56,14.56s-14.56-6.55-14.56-14.56,6.5-14.56,14.56-14.56,14.56,6.5,14.56,14.56ZM680.89,1116.5c6.16,0,11.14-4.98,11.14-11.14s-4.98-11.2-11.14-11.2-11.2,5.04-11.2,11.2,5.04,11.14,11.2,11.14Z" style="fill: #040000;"/>
      <path d="M702.4,1119.35v-28h3.36v5.21c1.79-3.53,5.54-5.77,9.74-5.77,6.38,0,11.03,4.26,11.03,11.65v16.91h-3.36v-16.74c0-6.22-3.58-8.9-8.06-8.9-4.98,0-9.35,3.58-9.35,9.97v15.68h-3.36Z" style="fill: #040000;"/>
      <path d="M749.16,1105.35c0-8.06,6.5-14.56,14.56-14.56,4.14,0,7.9,1.74,10.53,4.54l-2.41,2.41c-2.02-2.18-4.93-3.58-8.12-3.58-6.16,0-11.2,5.04-11.2,11.2s5.04,11.14,11.2,11.14c3.19,0,6.1-1.34,8.12-3.53l2.41,2.41c-2.63,2.8-6.38,4.54-10.53,4.54-8.06,0-14.56-6.55-14.56-14.56Z" style="fill: #040000;"/>
      <path d="M793.4,1090.79c4.93,0,9.35,3.08,11.2,6.78v-6.22h3.36v28h-3.36v-6.22c-1.85,3.7-6.27,6.78-11.2,6.78-8.06,0-14.56-6.55-14.56-14.56s6.5-14.56,14.56-14.56ZM782.2,1105.35c0,6.16,4.98,11.2,11.2,11.2s11.2-5.04,11.2-11.2-5.04-11.2-11.2-11.2-11.2,5.04-11.2,11.2Z" style="fill: #040000;"/>
      <path d="M816.75,1079.03h3.36v18.54c1.85-3.7,6.27-6.78,11.2-6.78,8.01,0,14.56,6.55,14.56,14.56s-6.55,14.56-14.56,14.56c-4.93,0-9.35-3.08-11.2-6.78v6.22h-3.36v-40.32ZM820.11,1105.35c0,6.16,4.98,11.2,11.2,11.2s11.2-5.04,11.2-11.2-5.04-11.2-11.2-11.2-11.2,5.04-11.2,11.2Z" style="fill: #040000;"/>
      <path d="M856.17,1119.35h-3.36v-42h3.36v42Z" style="fill: #040000;"/>
      <path d="M877.4,1090.79c7.95,0,13.38,6.1,13.44,14.56,0,.62-.11,1.34-.11,1.96h-24.02c.84,5.38,5.32,9.18,11.2,9.18,3.42,0,6.66-1.29,8.85-3.7l2.41,2.41c-2.91,3.08-6.94,4.7-11.14,4.7-8.57,0-14.9-6.27-14.9-14.56s6.1-14.56,14.28-14.56ZM866.59,1103.95h20.78c-.5-5.82-4.54-9.8-10.02-9.8s-10.14,4.2-10.75,9.8Z" style="fill: #040000;"/>
    </g>
    <g>
      <path d="M145.54,1223.85v-24.81h3.36v24.81c0,7.78,4.59,12.71,11.87,12.71s11.87-4.93,11.87-12.71v-24.81h3.36v24.81c0,9.69-6.05,16.07-15.23,16.07s-15.23-6.38-15.23-16.07Z" style="fill: #040000;"/>
      <path d="M185.97,1211.36h3.36v5.21c1.79-3.53,5.54-5.77,9.74-5.77,4.98,0,8.74,2.63,10.14,6.94,1.9-4.26,6.1-6.94,10.7-6.94,6.33,0,10.98,4.26,10.98,11.65v16.91h-3.36v-16.74c0-6.22-3.53-8.9-8.06-8.9-4.93,0-9.35,3.53-9.35,9.86v15.79h-3.36v-16.74c0-6.22-3.58-8.9-8.06-8.9-4.98,0-9.35,3.58-9.35,9.97v15.68h-3.36v-28Z" style="fill: #040000;"/>
      <path d="M239.73,1211.36h3.36v5.21c1.79-3.53,5.54-5.77,9.74-5.77,4.98,0,8.74,2.63,10.14,6.94,1.9-4.26,6.1-6.94,10.7-6.94,6.33,0,10.98,4.26,10.98,11.65v16.91h-3.36v-16.74c0-6.22-3.53-8.9-8.06-8.9-4.93,0-9.35,3.53-9.35,9.86v15.79h-3.36v-16.74c0-6.22-3.58-8.9-8.06-8.9-4.98,0-9.35,3.58-9.35,9.97v15.68h-3.36v-28Z" style="fill: #040000;"/>
      <path d="M306.2,1210.8c4.93,0,9.35,3.08,11.2,6.78v-6.22h3.36v28h-3.36v-6.22c-1.85,3.7-6.27,6.78-11.2,6.78-8.06,0-14.56-6.55-14.56-14.56s6.5-14.56,14.56-14.56ZM295,1225.36c0,6.16,4.98,11.2,11.2,11.2s11.2-5.04,11.2-11.2-5.04-11.2-11.2-11.2-11.2,5.04-11.2,11.2Z" style="fill: #040000;"/>
      <path d="M329.55,1239.36v-28h3.36v5.21c1.79-3.53,5.54-5.77,9.74-5.77,6.38,0,11.03,4.26,11.03,11.65v16.91h-3.36v-16.74c0-6.22-3.58-8.9-8.06-8.9-4.98,0-9.35,3.58-9.35,9.97v15.68h-3.36Z" style="fill: #040000;"/>
      <path d="M359.57,1211.36h4.82c.84,0,1.4-.56,1.4-1.34v-6.16h3.36v7.5h9.02v3.36h-9.02v15.29c0,5.1,1.12,6.55,4.98,6.55,1.51,0,2.63-.17,4.03-.45v3.25c-1.23.34-2.69.56-4.37.56-5.82,0-8.01-2.69-8.01-9.8v-15.4h-6.22v-3.36Z" style="fill: #040000;"/>
      <path d="M397.59,1210.8c7.95,0,13.38,6.1,13.44,14.56,0,.62-.11,1.34-.11,1.96h-24.02c.84,5.38,5.32,9.18,11.2,9.18,3.42,0,6.66-1.29,8.85-3.7l2.41,2.41c-2.91,3.08-6.94,4.7-11.14,4.7-8.57,0-14.9-6.27-14.9-14.56s6.1-14.56,14.28-14.56ZM386.79,1223.96h20.78c-.5-5.82-4.54-9.8-10.02-9.8s-10.14,4.2-10.75,9.8Z" style="fill: #040000;"/>
      <path d="M421.34,1239.36h-3.36v-42h3.36v42Z" style="fill: #040000;"/>
      <path d="M427.16,1211.36h4.82c.84,0,1.4-.56,1.4-1.34v-6.16h3.36v7.5h9.02v3.36h-9.02v15.29c0,5.1,1.12,6.55,4.98,6.55,1.51,0,2.63-.17,4.03-.45v3.25c-1.23.34-2.69.56-4.37.56-5.82,0-8.01-2.69-8.01-9.8v-15.4h-6.22v-3.36Z" style="fill: #040000;"/>
      <path d="M465.18,1210.8c7.95,0,13.38,6.1,13.44,14.56,0,.62-.11,1.34-.11,1.96h-24.02c.84,5.38,5.32,9.18,11.2,9.18,3.42,0,6.66-1.29,8.85-3.7l2.41,2.41c-2.91,3.08-6.94,4.7-11.14,4.7-8.57,0-14.9-6.27-14.9-14.56s6.1-14.56,14.28-14.56ZM454.38,1223.96h20.78c-.5-5.82-4.54-9.8-10.02-9.8s-10.14,4.2-10.75,9.8Z" style="fill: #040000;"/>
      <path d="M485.57,1232.98c2.13,2.24,5.32,3.58,8.96,3.58,4.37,0,7.67-1.96,7.67-4.59,0-3.7-4.82-4.87-8.06-5.77-4.59-1.23-10.3-2.52-10.3-7.9,0-4.54,4.14-7.5,9.91-7.5,4.37,0,8.46,1.74,11.14,4.54l-2.35,2.41c-2.52-2.46-5.38-3.53-8.79-3.53-4.03,0-6.5,1.74-6.5,3.98,0,2.91,4.03,3.75,8.06,4.82,4.82,1.29,10.25,3.08,10.25,8.9,0,4.7-4.65,8.01-11.14,8.01-4.37,0-8.29-1.57-11.26-4.54l2.41-2.41Z" style="fill: #040000;"/>
      <path d="M532.1,1199.04v36.96h22.06v3.36h-25.42v-40.32h3.36Z" style="fill: #040000;"/>
      <path d="M560.66,1211.36h3.36v16.74c0,6.22,3.53,8.9,8.06,8.9,4.98,0,9.35-3.58,9.35-9.97v-15.68h3.36v28h-3.36v-5.26c-1.79,3.58-5.54,5.82-9.8,5.82-6.33,0-10.98-4.26-10.98-11.65v-16.91ZM565.54,1200.72c0-1.23,1.01-2.24,2.24-2.24s2.18,1.01,2.18,2.24-.95,2.18-2.18,2.18-2.24-.95-2.24-2.18ZM575.95,1200.72c0-1.23,1.01-2.24,2.18-2.24s2.24,1.01,2.24,2.24-1.01,2.18-2.24,2.18-2.18-.95-2.18-2.18Z" style="fill: #040000;"/>
      <path d="M590.68,1214.72v-3.36h5.54v-1.51c0-8.06,4.37-11.37,11.26-11.37h1.85v3.36h-1.85c-5.04,0-7.9,2.02-7.9,8.01v1.51h15.4c.78,0,1.34-.56,1.34-1.34v-6.16h3.36v7.5h9.07v3.36h-9.07v15.29c0,5.1,1.12,6.55,4.98,6.55,1.57,0,2.69-.17,4.03-.45v3.25c-1.23.34-2.69.56-4.37.56-5.77,0-8.01-2.69-8.01-9.8v-15.4h-16.74v24.64h-3.36v-24.64h-5.54Z" style="fill: #040000;"/>
      <path d="M648.13,1210.8c7.95,0,13.38,6.1,13.44,14.56,0,.62-.11,1.34-.11,1.96h-24.02c.84,5.38,5.32,9.18,11.2,9.18,3.42,0,6.66-1.29,8.85-3.7l2.41,2.41c-2.91,3.08-6.94,4.7-11.14,4.7-8.57,0-14.9-6.27-14.9-14.56s6.1-14.56,14.28-14.56ZM637.33,1223.96h20.78c-.5-5.82-4.54-9.8-10.02-9.8s-10.14,4.2-10.75,9.8Z" style="fill: #040000;"/>
      <path d="M668.52,1239.36v-28h3.36v5.43c1.74-4.03,5.66-5.99,9.91-5.99v2.91c-5.88,0-9.91,4.09-9.91,9.97v15.68h-3.36Z" style="fill: #040000;"/>
      <path d="M687.67,1224.02h15.62v3.36h-15.62v-3.36Z" style="fill: #040000;"/>
      <path d="M708.33,1199.04h3.64l13.61,35.17,13.66-35.17h3.58l-15.62,40.32h-3.25l-15.62-40.32Z" style="fill: #040000;"/>
      <path d="M760.36,1210.8c7.95,0,13.38,6.1,13.44,14.56,0,.62-.11,1.34-.11,1.96h-24.02c.84,5.38,5.32,9.18,11.2,9.18,3.42,0,6.66-1.29,8.85-3.7l2.41,2.41c-2.91,3.08-6.94,4.7-11.14,4.7-8.57,0-14.9-6.27-14.9-14.56s6.1-14.56,14.28-14.56ZM749.55,1223.96h20.78c-.5-5.82-4.54-9.8-10.02-9.8s-10.14,4.2-10.75,9.8Z" style="fill: #040000;"/>
      <path d="M780.74,1239.36v-28h3.36v5.43c1.74-4.03,5.66-5.99,9.91-5.99v2.91c-5.88,0-9.91,4.09-9.91,9.97v15.68h-3.36Z" style="fill: #040000;"/>
      <path d="M799.89,1224.02h15.62v3.36h-15.62v-3.36Z" style="fill: #040000;"/>
    </g>
    <g>
      <path d="M147.78,1299.34h-3.36v-42h3.36v42Z" style="fill: #040000;"/>
      <path d="M169.28,1270.78c4.93,0,9.35,3.08,11.2,6.78v-6.22h3.36v28h-3.36v-6.22c-1.85,3.7-6.27,6.78-11.2,6.78-8.06,0-14.56-6.55-14.56-14.56s6.5-14.56,14.56-14.56ZM169.28,1296.54c6.16,0,11.2-5.04,11.2-11.2s-5.04-11.2-11.2-11.2-11.2,5.04-11.2,11.2,4.98,11.2,11.2,11.2ZM164.19,1258.46c1.23,0,2.24,1.01,2.24,2.24s-1.01,2.18-2.24,2.18-2.18-.95-2.18-2.18.95-2.24,2.18-2.24ZM172.36,1260.7c0-1.23,1.01-2.24,2.24-2.24s2.24,1.01,2.24,2.24-1.01,2.18-2.24,2.18-2.24-.95-2.24-2.18Z" style="fill: #040000;"/>
      <path d="M192.64,1299.34v-28h3.36v5.21c1.79-3.53,5.54-5.77,9.74-5.77,6.38,0,11.03,4.26,11.03,11.65v16.91h-3.36v-16.74c0-6.22-3.58-8.9-8.06-8.9-4.98,0-9.35,3.58-9.35,9.97v15.68h-3.36Z" style="fill: #040000;"/>
      <path d="M238.33,1270.78c4.93,0,9.35,3.08,11.2,6.78v-6.22h3.36v27.44c0,8.34-5.66,13.44-15.01,13.44-4.37,0-9.02-1.51-12.38-4.54l2.41-2.35c2.63,2.24,6.5,3.53,10.19,3.53,7.06,0,11.42-3.75,11.42-9.8v-5.94c-1.85,3.7-6.27,6.78-11.2,6.78-8.06,0-14.56-6.55-14.56-14.56s6.5-14.56,14.56-14.56ZM227.13,1285.34c0,6.16,4.98,11.2,11.2,11.2s11.2-5.04,11.2-11.2-5.04-11.2-11.2-11.2-11.2,5.04-11.2,11.2Z" style="fill: #040000;"/>
      <path d="M274.12,1270.78c7.95,0,13.38,6.1,13.44,14.56,0,.62-.11,1.34-.11,1.96h-24.02c.84,5.38,5.32,9.18,11.2,9.18,3.42,0,6.66-1.29,8.85-3.7l2.41,2.41c-2.91,3.08-6.94,4.7-11.14,4.7-8.57,0-14.9-6.27-14.9-14.56s6.1-14.56,14.28-14.56ZM263.31,1283.94h20.78c-.5-5.82-4.54-9.8-10.02-9.8s-10.14,4.2-10.75,9.8Z" style="fill: #040000;"/>
      <path d="M294.5,1299.34v-28h3.36v5.43c1.74-4.03,5.66-5.99,9.91-5.99v2.91c-5.88,0-9.91,4.09-9.91,9.97v15.68h-3.36Z" style="fill: #040000;"/>
      <path d="M313.65,1288.25v-16.91h3.36v16.74c0,6.22,3.53,8.9,8.06,8.9,4.98,0,9.35-3.58,9.35-9.97v-15.68h3.36v28h-3.36v-5.26c-1.79,3.58-5.54,5.82-9.8,5.82-6.33,0-10.98-4.26-10.98-11.65Z" style="fill: #040000;"/>
      <path d="M346.63,1299.34v-28h3.36v5.21c1.79-3.53,5.54-5.77,9.74-5.77,6.38,0,11.03,4.26,11.03,11.65v16.91h-3.36v-16.74c0-6.22-3.58-8.9-8.06-8.9-4.98,0-9.35,3.58-9.35,9.97v15.68h-3.36Z" style="fill: #040000;"/>
      <path d="M392.33,1270.78c4.93,0,9.35,3.08,11.2,6.78v-6.22h3.36v27.44c0,8.34-5.66,13.44-15.01,13.44-4.37,0-9.02-1.51-12.38-4.54l2.41-2.35c2.63,2.24,6.5,3.53,10.19,3.53,7.06,0,11.42-3.75,11.42-9.8v-5.94c-1.85,3.7-6.27,6.78-11.2,6.78-8.06,0-14.56-6.55-14.56-14.56s6.5-14.56,14.56-14.56ZM381.13,1285.34c0,6.16,4.98,11.2,11.2,11.2s11.2-5.04,11.2-11.2-5.04-11.2-11.2-11.2-11.2,5.04-11.2,11.2Z" style="fill: #040000;"/>
      <path d="M415.68,1292.95c2.13,2.24,5.32,3.58,8.96,3.58,4.37,0,7.67-1.96,7.67-4.59,0-3.7-4.82-4.87-8.06-5.77-4.59-1.23-10.3-2.52-10.3-7.9,0-4.54,4.14-7.5,9.91-7.5,4.37,0,8.46,1.74,11.14,4.54l-2.35,2.41c-2.52-2.46-5.38-3.53-8.79-3.53-4.03,0-6.5,1.74-6.5,3.98,0,2.91,4.03,3.75,8.06,4.82,4.82,1.29,10.25,3.08,10.25,8.9,0,4.7-4.65,8.01-11.14,8.01-4.37,0-8.29-1.57-11.26-4.54l2.41-2.41Z" style="fill: #040000;"/>
      <path d="M442.11,1299.34v-40.32h3.36v24.58l13.44-12.26h4.82l-14.73,13.5,15.51,14.5h-4.76l-14.28-13.27v13.27h-3.36Z" style="fill: #040000;"/>
      <path d="M482.66,1270.78c4.93,0,9.35,3.08,11.2,6.78v-6.22h3.36v28h-3.36v-6.22c-1.85,3.7-6.27,6.78-11.2,6.78-8.06,0-14.56-6.55-14.56-14.56s6.5-14.56,14.56-14.56ZM471.46,1285.34c0,6.16,4.98,11.2,11.2,11.2s11.2-5.04,11.2-11.2-5.04-11.2-11.2-11.2-11.2,5.04-11.2,11.2Z" style="fill: #040000;"/>
      <path d="M506.01,1259.02h3.36v18.54c1.85-3.7,6.27-6.78,11.2-6.78,8.01,0,14.56,6.55,14.56,14.56s-6.55,14.56-14.56,14.56c-4.93,0-9.35-3.08-11.2-6.78v6.22h-3.36v-40.32ZM509.37,1285.34c0,6.16,4.98,11.2,11.2,11.2s11.2-5.04,11.2-11.2-5.04-11.2-11.2-11.2-11.2,5.04-11.2,11.2Z" style="fill: #040000;"/>
      <path d="M554.5,1270.78c7.95,0,13.38,6.1,13.44,14.56,0,.62-.11,1.34-.11,1.96h-24.02c.84,5.38,5.32,9.18,11.2,9.18,3.42,0,6.66-1.29,8.85-3.7l2.41,2.41c-2.91,3.08-6.94,4.7-11.14,4.7-8.57,0-14.9-6.27-14.9-14.56s6.1-14.56,14.28-14.56ZM543.7,1283.94h20.78c-.5-5.82-4.54-9.8-10.02-9.8s-10.14,4.2-10.75,9.8Z" style="fill: #040000;"/>
      <path d="M578.25,1299.34h-3.36v-42h3.36v42Z" style="fill: #040000;"/>
    </g>
    <g>
      <path d="M163.46,1378.47c5.99,0,11.37,2.52,15.18,6.61l-2.41,2.41c-3.19-3.47-7.73-5.66-12.77-5.66-9.58,0-17.36,7.78-17.36,17.36s7.78,17.36,17.36,17.36c5.04,0,9.58-2.18,12.77-5.66l2.41,2.41c-3.81,4.03-9.18,6.61-15.18,6.61-11.48,0-20.72-9.3-20.72-20.72s9.24-20.72,20.72-20.72Z" style="fill: #040000;"/>
      <path d="M197.84,1390.79c4.93,0,9.35,3.08,11.2,6.78v-6.22h3.36v28h-3.36v-6.22c-1.85,3.7-6.27,6.78-11.2,6.78-8.06,0-14.56-6.55-14.56-14.56s6.5-14.56,14.56-14.56ZM197.84,1416.55c6.16,0,11.2-5.04,11.2-11.2s-5.04-11.2-11.2-11.2-11.2,5.04-11.2,11.2,4.98,11.2,11.2,11.2ZM195.55,1378.97h4.03l6.89,7.62h-3.53l-5.38-5.49-5.38,5.49h-3.58l6.94-7.62Z" style="fill: #040000;"/>
      <path d="M221.2,1379.03h3.36v18.54c1.85-3.7,6.27-6.78,11.2-6.78,8.01,0,14.56,6.55,14.56,14.56s-6.55,14.56-14.56,14.56c-4.93,0-9.35-3.08-11.2-6.78v6.22h-3.36v-40.32ZM224.56,1405.35c0,6.16,4.98,11.2,11.2,11.2s11.2-5.04,11.2-11.2-5.04-11.2-11.2-11.2-11.2,5.04-11.2,11.2Z" style="fill: #040000;"/>
      <path d="M260.62,1419.35h-3.36v-42h3.36v42Z" style="fill: #040000;"/>
      <path d="M281.84,1390.79c7.95,0,13.38,6.1,13.44,14.56,0,.62-.11,1.34-.11,1.96h-24.02c.84,5.38,5.32,9.18,11.2,9.18,3.42,0,6.66-1.29,8.85-3.7l2.41,2.41c-2.91,3.08-6.94,4.7-11.14,4.7-8.57,0-14.9-6.27-14.9-14.56s6.1-14.56,14.28-14.56ZM271.04,1403.95h20.78c-.5-5.82-4.54-9.8-10.02-9.8s-10.14,4.2-10.75,9.8Z" style="fill: #040000;"/>
      <path d="M317.85,1419.35v-28h3.36v5.43c1.74-4.03,5.66-5.99,9.91-5.99v2.91c-5.88,0-9.91,4.09-9.91,9.97v15.68h-3.36Z" style="fill: #040000;"/>
      <path d="M349.71,1390.79c4.93,0,9.35,3.08,11.2,6.78v-6.22h3.36v28h-3.36v-6.22c-1.85,3.7-6.27,6.78-11.2,6.78-8.06,0-14.56-6.55-14.56-14.56s6.5-14.56,14.56-14.56ZM338.51,1405.35c0,6.16,4.98,11.2,11.2,11.2s11.2-5.04,11.2-11.2-5.04-11.2-11.2-11.2-11.2,5.04-11.2,11.2Z" style="fill: #040000;"/>
      <path d="M376.43,1419.35h-3.36v-42h3.36v42Z" style="fill: #040000;"/>
      <path d="M388.58,1419.35h-3.36v-42h3.36v42Z" style="fill: #040000;"/>
      <path d="M424.64,1405.35c0,8.01-6.55,14.56-14.56,14.56s-14.56-6.55-14.56-14.56,6.5-14.56,14.56-14.56,14.56,6.5,14.56,14.56ZM410.08,1416.49c6.16,0,11.14-4.98,11.14-11.14s-4.98-11.2-11.14-11.2-11.2,5.04-11.2,11.2,5.04,11.14,11.2,11.14Z" style="fill: #040000;"/>
      <path d="M431.59,1419.35v-28h3.36v5.21c1.79-3.53,5.54-5.77,9.74-5.77,6.38,0,11.03,4.26,11.03,11.65v16.91h-3.36v-16.74c0-6.22-3.58-8.9-8.06-8.9-4.98,0-9.35,3.58-9.35,9.97v15.68h-3.36Z" style="fill: #040000;"/>
      <path d="M477.28,1390.79c4.93,0,9.35,3.08,11.2,6.78v-6.22h3.36v27.44c0,8.34-5.66,13.44-15.01,13.44-4.37,0-9.02-1.51-12.38-4.54l2.41-2.35c2.63,2.24,6.5,3.53,10.19,3.53,7.06,0,11.42-3.75,11.42-9.8v-5.94c-1.85,3.7-6.27,6.78-11.2,6.78-8.06,0-14.56-6.55-14.56-14.56s6.5-14.56,14.56-14.56ZM466.08,1405.35c0,6.16,4.98,11.2,11.2,11.2s11.2-5.04,11.2-11.2-5.04-11.2-11.2-11.2-11.2,5.04-11.2,11.2Z" style="fill: #040000;"/>
      <path d="M513.06,1390.79c7.95,0,13.38,6.1,13.44,14.56,0,.62-.11,1.34-.11,1.96h-24.02c.84,5.38,5.32,9.18,11.2,9.18,3.42,0,6.66-1.29,8.85-3.7l2.41,2.41c-2.91,3.08-6.94,4.7-11.14,4.7-8.57,0-14.9-6.27-14.9-14.56s6.1-14.56,14.28-14.56ZM502.26,1403.95h20.78c-.5-5.82-4.54-9.8-10.02-9.8s-10.14,4.2-10.75,9.8Z" style="fill: #040000;"/>
      <path d="M549.07,1391.35h3.36v6.22c1.85-3.7,6.27-6.78,11.2-6.78,8.01,0,14.56,6.55,14.56,14.56s-6.55,14.56-14.56,14.56c-4.93,0-9.35-3.08-11.2-6.78v19.71h-3.36v-41.5ZM552.43,1405.35c0,6.16,4.98,11.2,11.2,11.2s11.2-5.04,11.2-11.2-5.04-11.2-11.2-11.2-11.2,5.04-11.2,11.2Z" style="fill: #040000;"/>
      <path d="M612.41,1405.35c0,8.01-6.55,14.56-14.56,14.56s-14.56-6.55-14.56-14.56,6.5-14.56,14.56-14.56,14.56,6.5,14.56,14.56ZM597.85,1416.49c6.16,0,11.14-4.98,11.14-11.14s-4.98-11.2-11.14-11.2-11.2,5.04-11.2,11.2,5.04,11.14,11.2,11.14Z" style="fill: #040000;"/>
      <path d="M619.35,1408.26v-16.91h3.36v16.74c0,6.22,3.53,8.9,8.06,8.9,4.98,0,9.35-3.58,9.35-9.97v-15.68h3.36v28h-3.36v-5.26c-1.79,3.58-5.54,5.82-9.8,5.82-6.33,0-10.98-4.26-10.98-11.65Z" style="fill: #040000;"/>
      <path d="M652.33,1419.35v-28h3.36v5.43c1.74-4.03,5.66-5.99,9.91-5.99v2.91c-5.88,0-9.91,4.09-9.91,9.97v15.68h-3.36Z" style="fill: #040000;"/>
      <path d="M687.05,1391.35l10.64,23.86,10.64-23.86h3.7l-12.43,28h-3.75l-12.43-28h3.64Z" style="fill: #040000;"/>
      <path d="M729.61,1390.79c7.95,0,13.38,6.1,13.44,14.56,0,.62-.11,1.34-.11,1.96h-24.02c.84,5.38,5.32,9.18,11.2,9.18,3.42,0,6.66-1.29,8.85-3.7l2.41,2.41c-2.91,3.08-6.94,4.7-11.14,4.7-8.57,0-14.9-6.27-14.9-14.56s6.1-14.56,14.28-14.56ZM718.81,1403.95h20.78c-.5-5.82-4.54-9.8-10.02-9.8s-10.14,4.2-10.75,9.8Z" style="fill: #040000;"/>
      <path d="M750,1419.35v-28h3.36v5.21c1.79-3.53,5.54-5.77,9.74-5.77,6.38,0,11.03,4.26,11.03,11.65v16.91h-3.36v-16.74c0-6.22-3.58-8.9-8.06-8.9-4.98,0-9.35,3.58-9.35,9.97v15.68h-3.36Z" style="fill: #040000;"/>
      <path d="M780.01,1391.35h4.82c.84,0,1.4-.56,1.4-1.34v-6.16h3.36v7.5h9.02v3.36h-9.02v15.29c0,5.1,1.12,6.55,4.98,6.55,1.51,0,2.63-.17,4.03-.45v3.25c-1.23.34-2.69.56-4.37.56-5.82,0-8.01-2.69-8.01-9.8v-15.4h-6.22v-3.36Z" style="fill: #040000;"/>
      <path d="M807.28,1378.47c1.18,0,2.18,1.01,2.18,2.24s-1.01,2.18-2.18,2.18-2.24-.95-2.24-2.18,1.01-2.24,2.24-2.24ZM805.6,1419.35v-28h3.36v28h-3.36Z" style="fill: #040000;"/>
      <path d="M821.12,1419.35h-3.36v-42h3.36v42Z" style="fill: #040000;"/>
      <path d="M842.62,1390.79c4.93,0,9.35,3.08,11.2,6.78v-6.22h3.36v28h-3.36v-6.22c-1.85,3.7-6.27,6.78-11.2,6.78-8.06,0-14.56-6.55-14.56-14.56s6.5-14.56,14.56-14.56ZM831.42,1405.35c0,6.16,4.98,11.2,11.2,11.2s11.2-5.04,11.2-11.2-5.04-11.2-11.2-11.2-11.2,5.04-11.2,11.2Z" style="fill: #040000;"/>
      <path d="M863,1391.35h4.82c.84,0,1.4-.56,1.4-1.34v-6.16h3.36v7.5h9.02v3.36h-9.02v15.29c0,5.1,1.12,6.55,4.98,6.55,1.51,0,2.63-.17,4.03-.45v3.25c-1.23.34-2.69.56-4.37.56-5.82,0-8.01-2.69-8.01-9.8v-15.4h-6.22v-3.36Z" style="fill: #040000;"/>
      <path d="M901.03,1390.79c7.95,0,13.38,6.1,13.44,14.56,0,.62-.11,1.34-.11,1.96h-24.02c.84,5.38,5.32,9.18,11.2,9.18,3.42,0,6.66-1.29,8.85-3.7l2.41,2.41c-2.91,3.08-6.94,4.7-11.14,4.7-8.57,0-14.9-6.27-14.9-14.56s6.1-14.56,14.28-14.56ZM890.22,1403.95h20.78c-.5-5.82-4.54-9.8-10.02-9.8s-10.14,4.2-10.75,9.8Z" style="fill: #040000;"/>
      <path d="M921.41,1408.26v-16.91h3.36v16.74c0,6.22,3.53,8.9,8.06,8.9,4.98,0,9.35-3.58,9.35-9.97v-15.68h3.36v28h-3.36v-5.26c-1.79,3.58-5.54,5.82-9.8,5.82-6.33,0-10.98-4.26-10.98-11.65Z" style="fill: #040000;"/>
      <path d="M954.39,1419.35v-28h3.36v5.43c1.74-4.03,5.66-5.99,9.91-5.99v2.91c-5.88,0-9.91,4.09-9.91,9.97v15.68h-3.36Z" style="fill: #040000;"/>
    </g>
    <g>
      <path d="M157.13,1450.76c4.93,0,9.35,3.08,11.2,6.78v-6.22h3.36v27.44c0,8.34-5.66,13.44-15.01,13.44-4.37,0-9.02-1.51-12.38-4.54l2.41-2.35c2.63,2.24,6.5,3.53,10.19,3.53,7.06,0,11.42-3.75,11.42-9.8v-5.94c-1.85,3.7-6.27,6.78-11.2,6.78-8.06,0-14.56-6.55-14.56-14.56s6.5-14.56,14.56-14.56ZM145.93,1465.32c0,6.16,4.98,11.2,11.2,11.2s11.2-5.04,11.2-11.2-5.04-11.2-11.2-11.2-11.2,5.04-11.2,11.2Z" style="fill: #040000;"/>
      <path d="M193.2,1450.76c4.93,0,9.35,3.08,11.2,6.78v-6.22h3.36v28h-3.36v-6.22c-1.85,3.7-6.27,6.78-11.2,6.78-8.06,0-14.56-6.55-14.56-14.56s6.5-14.56,14.56-14.56ZM182,1465.32c0,6.16,4.98,11.2,11.2,11.2s11.2-5.04,11.2-11.2-5.04-11.2-11.2-11.2-11.2,5.04-11.2,11.2Z" style="fill: #040000;"/>
      <path d="M218.23,1438.44c1.18,0,2.18,1.01,2.18,2.24s-1.01,2.18-2.18,2.18-2.24-.95-2.24-2.18,1.01-2.24,2.24-2.24ZM216.55,1479.32v-28h3.36v28h-3.36Z" style="fill: #040000;"/>
      <path d="M228.7,1479.32v-28h3.36v5.21c1.79-3.53,5.54-5.77,9.74-5.77,6.38,0,11.03,4.26,11.03,11.65v16.91h-3.36v-16.74c0-6.22-3.58-8.9-8.06-8.9-4.98,0-9.35,3.58-9.35,9.97v15.68h-3.36Z" style="fill: #040000;"/>
      <path d="M274.12,1450.76c7.95,0,13.38,6.1,13.44,14.56,0,.62-.11,1.34-.11,1.96h-24.02c.84,5.38,5.32,9.18,11.2,9.18,3.42,0,6.66-1.29,8.85-3.7l2.41,2.41c-2.91,3.08-6.94,4.7-11.14,4.7-8.57,0-14.9-6.27-14.9-14.56s6.1-14.56,14.28-14.56ZM284.08,1463.92c-.5-5.71-4.42-9.8-10.02-9.8s-10.14,4.2-10.75,9.8h20.78ZM270.98,1446.56l4.37-7.62h3.42l-4.65,7.62h-3.14Z" style="fill: #040000;"/>
    </g>
    <g>
      <path d="M163.46,1558.45c5.99,0,11.37,2.52,15.18,6.61l-2.41,2.41c-3.19-3.47-7.73-5.66-12.77-5.66-9.58,0-17.36,7.78-17.36,17.36s7.78,17.36,17.36,17.36c5.04,0,9.58-2.18,12.77-5.66l2.41,2.41c-3.81,4.03-9.18,6.61-15.18,6.61-11.48,0-20.72-9.3-20.72-20.72s9.24-20.72,20.72-20.72Z" style="fill: #040000;"/>
      <path d="M197.84,1570.77c4.93,0,9.35,3.08,11.2,6.78v-6.22h3.36v28h-3.36v-6.22c-1.85,3.7-6.27,6.78-11.2,6.78-8.06,0-14.56-6.55-14.56-14.56s6.5-14.56,14.56-14.56ZM186.64,1585.33c0,6.16,4.98,11.2,11.2,11.2s11.2-5.04,11.2-11.2-5.04-11.2-11.2-11.2-11.2,5.04-11.2,11.2Z" style="fill: #040000;"/>
      <path d="M221.14,1571.33l10.64,23.86,10.64-23.86h3.7l-12.43,28h-3.75l-12.43-28h3.64Z" style="fill: #040000;"/>
      <path d="M278.54,1585.33c0,8.01-6.55,14.56-14.56,14.56s-14.56-6.55-14.56-14.56,6.5-14.56,14.56-14.56,14.56,6.5,14.56,14.56ZM263.98,1596.47c6.16,0,11.14-4.98,11.14-11.14s-4.98-11.2-11.14-11.2-11.2,5.04-11.2,11.2,5.04,11.14,11.2,11.14Z" style="fill: #040000;"/>
      <path d="M313.82,1570.77c4.93,0,9.35,3.08,11.2,6.78v-18.54h3.36v40.32h-3.36v-6.22c-1.85,3.7-6.27,6.78-11.2,6.78-8.06,0-14.56-6.55-14.56-14.56s6.5-14.56,14.56-14.56ZM302.62,1585.33c0,6.16,4.98,11.2,11.2,11.2s11.2-5.04,11.2-11.2-5.04-11.2-11.2-11.2-11.2,5.04-11.2,11.2Z" style="fill: #040000;"/>
      <path d="M338.85,1558.45c1.18,0,2.18,1.01,2.18,2.24s-1.01,2.18-2.18,2.18-2.24-.95-2.24-2.18,1.01-2.24,2.24-2.24ZM337.17,1599.33v-28h3.36v28h-3.36Z" style="fill: #040000;"/>
      <path d="M364.95,1571.33h3.36v6.22c1.85-3.7,6.27-6.78,11.2-6.78,8.01,0,14.56,6.55,14.56,14.56s-6.55,14.56-14.56,14.56c-4.93,0-9.35-3.08-11.2-6.78v19.71h-3.36v-41.5ZM368.31,1585.33c0,6.16,4.98,11.2,11.2,11.2s11.2-5.04,11.2-11.2-5.04-11.2-11.2-11.2-11.2,5.04-11.2,11.2Z" style="fill: #040000;"/>
      <path d="M401.01,1599.33v-28h3.36v5.43c1.74-4.03,5.66-5.99,9.91-5.99v2.91c-5.88,0-9.91,4.09-9.91,9.97v15.68h-3.36Z" style="fill: #040000;"/>
      <path d="M447.43,1585.33c0,8.01-6.55,14.56-14.56,14.56s-14.56-6.55-14.56-14.56,6.5-14.56,14.56-14.56,14.56,6.5,14.56,14.56ZM432.87,1596.47c6.16,0,11.14-4.98,11.14-11.14s-4.98-11.2-11.14-11.2-11.2,5.04-11.2,11.2,5.04,11.14,11.2,11.14Z" style="fill: #040000;"/>
      <path d="M457.74,1599.33h-3.36v-42h3.36v42Z" style="fill: #040000;"/>
      <path d="M466.53,1588.24v-16.91h3.36v16.74c0,6.22,3.53,8.9,8.06,8.9,4.98,0,9.35-3.58,9.35-9.97v-15.68h3.36v28h-3.36v-5.26c-1.79,3.58-5.54,5.82-9.8,5.82-6.33,0-10.98-4.26-10.98-11.65Z" style="fill: #040000;"/>
      <path d="M499.51,1599.33v-28h3.36v5.21c1.79-3.53,5.54-5.77,9.74-5.77,6.38,0,11.03,4.26,11.03,11.65v16.91h-3.36v-16.74c0-6.22-3.58-8.9-8.06-8.9-4.98,0-9.35,3.58-9.35,9.97v15.68h-3.36Z" style="fill: #040000;"/>
      <path d="M545.21,1570.77c4.93,0,9.35,3.08,11.2,6.78v-6.22h3.36v27.44c0,8.34-5.66,13.44-15.01,13.44-4.37,0-9.02-1.51-12.38-4.54l2.41-2.35c2.63,2.24,6.5,3.53,10.19,3.53,7.06,0,11.42-3.75,11.42-9.8v-5.94c-1.85,3.7-6.27,6.78-11.2,6.78-8.06,0-14.56-6.55-14.56-14.56s6.5-14.56,14.56-14.56ZM534.01,1585.33c0,6.16,4.98,11.2,11.2,11.2s11.2-5.04,11.2-11.2-5.04-11.2-11.2-11.2-11.2,5.04-11.2,11.2Z" style="fill: #040000;"/>
      <path d="M581.27,1570.77c4.93,0,9.35,3.08,11.2,6.78v-6.22h3.36v28h-3.36v-6.22c-1.85,3.7-6.27,6.78-11.2,6.78-8.06,0-14.56-6.55-14.56-14.56s6.5-14.56,14.56-14.56ZM570.07,1585.33c0,6.16,4.98,11.2,11.2,11.2s11.2-5.04,11.2-11.2-5.04-11.2-11.2-11.2-11.2,5.04-11.2,11.2Z" style="fill: #040000;"/>
      <path d="M620.25,1571.33h3.36v6.22c1.85-3.7,6.27-6.78,11.2-6.78,8.01,0,14.56,6.55,14.56,14.56s-6.55,14.56-14.56,14.56c-4.93,0-9.35-3.08-11.2-6.78v19.71h-3.36v-41.5ZM623.61,1585.33c0,6.16,4.98,11.2,11.2,11.2s11.2-5.04,11.2-11.2-5.04-11.2-11.2-11.2-11.2,5.04-11.2,11.2Z" style="fill: #040000;"/>
      <path d="M668.74,1570.77c7.95,0,13.38,6.1,13.44,14.56,0,.62-.11,1.34-.11,1.96h-24.02c.84,5.38,5.32,9.18,11.2,9.18,3.42,0,6.66-1.29,8.85-3.7l2.41,2.41c-2.91,3.08-6.94,4.7-11.14,4.7-8.57,0-14.9-6.27-14.9-14.56s6.1-14.56,14.28-14.56ZM657.93,1583.93h20.78c-.5-5.82-4.54-9.8-10.02-9.8s-10.14,4.2-10.75,9.8Z" style="fill: #040000;"/>
      <path d="M689.13,1599.33v-28h3.36v5.43c1.74-4.03,5.66-5.99,9.91-5.99v2.91c-5.88,0-9.91,4.09-9.91,9.97v15.68h-3.36Z" style="fill: #040000;"/>
      <path d="M723.85,1571.33l10.64,23.86,10.64-23.86h3.7l-12.43,28h-3.75l-12.43-28h3.64Z" style="fill: #040000;"/>
      <path d="M766.4,1570.77c7.95,0,13.38,6.1,13.44,14.56,0,.62-.11,1.34-.11,1.96h-24.02c.84,5.38,5.32,9.18,11.2,9.18,3.42,0,6.66-1.29,8.85-3.7l2.41,2.41c-2.91,3.08-6.94,4.7-11.14,4.7-8.57,0-14.9-6.27-14.9-14.56s6.1-14.56,14.28-14.56ZM755.6,1583.93h20.78c-.5-5.82-4.54-9.8-10.02-9.8s-10.14,4.2-10.75,9.8Z" style="fill: #040000;"/>
      <path d="M786.79,1599.33v-28h3.36v5.21c1.79-3.53,5.54-5.77,9.74-5.77,6.38,0,11.03,4.26,11.03,11.65v16.91h-3.36v-16.74c0-6.22-3.58-8.9-8.06-8.9-4.98,0-9.35,3.58-9.35,9.97v15.68h-3.36Z" style="fill: #040000;"/>
      <path d="M816.8,1571.33h4.82c.84,0,1.4-.56,1.4-1.34v-6.16h3.36v7.5h9.02v3.36h-9.02v15.29c0,5.1,1.12,6.55,4.98,6.55,1.51,0,2.63-.17,4.03-.45v3.25c-1.23.34-2.69.56-4.37.56-5.82,0-8.01-2.69-8.01-9.8v-15.4h-6.22v-3.36Z" style="fill: #040000;"/>
      <path d="M869.67,1585.33c0,8.01-6.55,14.56-14.56,14.56s-14.56-6.55-14.56-14.56,6.5-14.56,14.56-14.56,14.56,6.5,14.56,14.56ZM855.11,1596.47c6.16,0,11.14-4.98,11.14-11.14s-4.98-11.2-11.14-11.2-11.2,5.04-11.2,11.2,5.04,11.14,11.2,11.14Z" style="fill: #040000;"/>
      <path d="M879.97,1599.33h-3.36v-42h3.36v42Z" style="fill: #040000;"/>
      <path d="M901.47,1570.77c4.93,0,9.35,3.08,11.2,6.78v-6.22h3.36v28h-3.36v-6.22c-1.85,3.7-6.27,6.78-11.2,6.78-8.06,0-14.56-6.55-14.56-14.56s6.5-14.56,14.56-14.56ZM890.27,1585.33c0,6.16,4.98,11.2,11.2,11.2s11.2-5.04,11.2-11.2-5.04-11.2-11.2-11.2-11.2,5.04-11.2,11.2Z" style="fill: #040000;"/>
    </g>
    <g>
      <path d="M142.57,1645.31c0-8.06,6.5-14.56,14.56-14.56,4.14,0,7.9,1.74,10.53,4.54l-2.41,2.41c-2.02-2.18-4.93-3.58-8.12-3.58-6.16,0-11.2,5.04-11.2,11.2s5.04,11.14,11.2,11.14c3.19,0,6.1-1.34,8.12-3.53l2.41,2.41c-2.63,2.8-6.38,4.54-10.53,4.54-8.06,0-14.56-6.55-14.56-14.56Z" style="fill: #040000;"/>
      <path d="M201.37,1645.31c0,8.01-6.55,14.56-14.56,14.56s-14.56-6.55-14.56-14.56,6.5-14.56,14.56-14.56,14.56,6.5,14.56,14.56ZM186.81,1656.45c6.16,0,11.14-4.98,11.14-11.14s-4.98-11.2-11.14-11.2-11.2,5.04-11.2,11.2,5.04,11.14,11.2,11.14Z" style="fill: #040000;"/>
      <path d="M208.32,1659.31v-28h3.36v5.21c1.79-3.53,5.54-5.77,9.74-5.77,6.38,0,11.03,4.26,11.03,11.65v16.91h-3.36v-16.74c0-6.22-3.58-8.9-8.06-8.9-4.98,0-9.35,3.58-9.35,9.97v15.68h-3.36Z" style="fill: #040000;"/>
      <path d="M269.64,1630.75c4.93,0,9.35,3.08,11.2,6.78v-6.22h3.36v27.44c0,8.34-5.66,13.44-15.01,13.44-4.37,0-9.02-1.51-12.38-4.54l2.41-2.35c2.63,2.24,6.5,3.53,10.19,3.53,7.06,0,11.42-3.75,11.42-9.8v-5.94c-1.85,3.7-6.27,6.78-11.2,6.78-8.06,0-14.56-6.55-14.56-14.56s6.5-14.56,14.56-14.56ZM258.44,1645.31c0,6.16,4.98,11.2,11.2,11.2s11.2-5.04,11.2-11.2-5.04-11.2-11.2-11.2-11.2,5.04-11.2,11.2Z" style="fill: #040000;"/>
      <path d="M292.99,1648.22v-16.91h3.36v16.74c0,6.22,3.53,8.9,8.06,8.9,4.98,0,9.35-3.58,9.35-9.97v-15.68h3.36v28h-3.36v-5.26c-1.79,3.58-5.54,5.82-9.8,5.82-6.33,0-10.98-4.26-10.98-11.65Z" style="fill: #040000;"/>
      <path d="M338.68,1630.75c4.93,0,9.35,3.08,11.2,6.78v-6.22h3.36v28h-3.36v-6.22c-1.85,3.7-6.27,6.78-11.2,6.78-8.06,0-14.56-6.55-14.56-14.56s6.5-14.56,14.56-14.56ZM327.48,1645.31c0,6.16,4.98,11.2,11.2,11.2s11.2-5.04,11.2-11.2-5.04-11.2-11.2-11.2-11.2,5.04-11.2,11.2Z" style="fill: #040000;"/>
      <path d="M363.71,1618.43c1.18,0,2.18,1.01,2.18,2.24s-1.01,2.18-2.18,2.18-2.24-.95-2.24-2.18,1.01-2.24,2.24-2.24ZM362.03,1659.31v-28h3.36v28h-3.36Z" style="fill: #040000;"/>
      <path d="M374.19,1659.31v-28h3.36v5.21c1.79-3.53,5.54-5.77,9.74-5.77,6.38,0,11.03,4.26,11.03,11.65v16.91h-3.36v-16.74c0-6.22-3.58-8.9-8.06-8.9-4.98,0-9.35,3.58-9.35,9.97v15.68h-3.36Z" style="fill: #040000;"/>
      <path d="M419.88,1630.75c4.93,0,9.35,3.08,11.2,6.78v-6.22h3.36v28h-3.36v-6.22c-1.85,3.7-6.27,6.78-11.2,6.78-8.06,0-14.56-6.55-14.56-14.56s6.5-14.56,14.56-14.56ZM408.68,1645.31c0,6.16,4.98,11.2,11.2,11.2s11.2-5.04,11.2-11.2-5.04-11.2-11.2-11.2-11.2,5.04-11.2,11.2Z" style="fill: #040000;"/>
    </g>
    <g>
      <path d="M140.67,1738.99h3.64l13.61,35.17,13.66-35.17h3.58l-15.62,40.32h-3.25l-15.62-40.32Z" style="fill: #040000;"/>
      <path d="M192.69,1750.75c7.95,0,13.38,6.1,13.44,14.56,0,.62-.11,1.34-.11,1.96h-24.02c.84,5.38,5.32,9.18,11.2,9.18,3.42,0,6.66-1.29,8.85-3.7l2.41,2.41c-2.91,3.08-6.94,4.7-11.14,4.7-8.57,0-14.9-6.27-14.9-14.56s6.1-14.56,14.28-14.56ZM181.88,1763.91h20.78c-.5-5.82-4.54-9.8-10.02-9.8s-10.14,4.2-10.75,9.8Z" style="fill: #040000;"/>
      <path d="M213.08,1779.31v-28h3.36v5.21c1.79-3.53,5.54-5.77,9.74-5.77,6.38,0,11.03,4.26,11.03,11.65v16.91h-3.36v-16.74c0-6.22-3.58-8.9-8.06-8.9-4.98,0-9.35,3.58-9.35,9.97v15.68h-3.36Z" style="fill: #040000;"/>
      <path d="M243.09,1751.31h4.82c.84,0,1.4-.56,1.4-1.34v-6.16h3.36v7.5h9.02v3.36h-9.02v15.29c0,5.1,1.12,6.55,4.98,6.55,1.51,0,2.63-.17,4.03-.45v3.25c-1.23.34-2.69.56-4.37.56-5.82,0-8.01-2.69-8.01-9.8v-15.4h-6.22v-3.36Z" style="fill: #040000;"/>
      <path d="M270.36,1738.43c1.18,0,2.18,1.01,2.18,2.24s-1.01,2.18-2.18,2.18-2.24-.95-2.24-2.18,1.01-2.24,2.24-2.24ZM268.68,1779.31v-28h3.36v28h-3.36Z" style="fill: #040000;"/>
      <path d="M284.2,1779.31h-3.36v-42h3.36v42Z" style="fill: #040000;"/>
      <path d="M305.7,1750.75c4.93,0,9.35,3.08,11.2,6.78v-6.22h3.36v28h-3.36v-6.22c-1.85,3.7-6.27,6.78-11.2,6.78-8.06,0-14.56-6.55-14.56-14.56s6.5-14.56,14.56-14.56ZM294.5,1765.31c0,6.16,4.98,11.2,11.2,11.2s11.2-5.04,11.2-11.2-5.04-11.2-11.2-11.2-11.2,5.04-11.2,11.2Z" style="fill: #040000;"/>
      <path d="M326.08,1751.31h4.82c.84,0,1.4-.56,1.4-1.34v-6.16h3.36v7.5h9.02v3.36h-9.02v15.29c0,5.1,1.12,6.55,4.98,6.55,1.51,0,2.63-.17,4.03-.45v3.25c-1.23.34-2.69.56-4.37.56-5.82,0-8.01-2.69-8.01-9.8v-15.4h-6.22v-3.36Z" style="fill: #040000;"/>
      <path d="M378.95,1765.31c0,8.01-6.55,14.56-14.56,14.56s-14.56-6.55-14.56-14.56,6.5-14.56,14.56-14.56,14.56,6.5,14.56,14.56ZM364.39,1776.46c6.16,0,11.14-4.98,11.14-11.14s-4.98-11.2-11.14-11.2-11.2,5.04-11.2,11.2,5.04,11.14,11.2,11.14Z" style="fill: #040000;"/>
      <path d="M385.89,1779.31v-28h3.36v5.43c1.74-4.03,5.66-5.99,9.91-5.99v2.91c-5.88,0-9.91,4.09-9.91,9.97v15.68h-3.36Z" style="fill: #040000;"/>
      <path d="M420.61,1751.31l10.64,23.86,10.64-23.86h3.7l-12.43,28h-3.75l-12.43-28h3.64Z" style="fill: #040000;"/>
      <path d="M463.17,1750.75c7.95,0,13.38,6.1,13.44,14.56,0,.62-.11,1.34-.11,1.96h-24.02c.84,5.38,5.32,9.18,11.2,9.18,3.42,0,6.66-1.29,8.85-3.7l2.41,2.41c-2.91,3.08-6.94,4.7-11.14,4.7-8.57,0-14.9-6.27-14.9-14.56s6.1-14.56,14.28-14.56ZM452.36,1763.91h20.78c-.5-5.82-4.54-9.8-10.02-9.8s-10.14,4.2-10.75,9.8Z" style="fill: #040000;"/>
      <path d="M483.55,1779.31v-28h3.36v5.43c1.74-4.03,5.66-5.99,9.91-5.99v2.91c-5.88,0-9.91,4.09-9.91,9.97v15.68h-3.36Z" style="fill: #040000;"/>
      <path d="M506.06,1779.31h-3.36v-42h3.36v42Z" style="fill: #040000;"/>
      <path d="M527.29,1750.75c7.95,0,13.38,6.1,13.44,14.56,0,.62-.11,1.34-.11,1.96h-24.02c.84,5.38,5.32,9.18,11.2,9.18,3.42,0,6.66-1.29,8.85-3.7l2.41,2.41c-2.91,3.08-6.94,4.7-11.14,4.7-8.57,0-14.9-6.27-14.9-14.56s6.1-14.56,14.28-14.56ZM516.48,1763.91h20.78c-.5-5.82-4.54-9.8-10.02-9.8s-10.14,4.2-10.75,9.8Z" style="fill: #040000;"/>
      <path d="M547.67,1779.31v-28h3.36v5.21c1.79-3.53,5.54-5.77,9.74-5.77,6.38,0,11.03,4.26,11.03,11.65v16.91h-3.36v-16.74c0-6.22-3.58-8.9-8.06-8.9-4.98,0-9.35,3.58-9.35,9.97v15.68h-3.36Z" style="fill: #040000;"/>
      <path d="M593.37,1750.75c4.93,0,9.35,3.08,11.2,6.78v-6.22h3.36v27.44c0,8.34-5.66,13.44-15.01,13.44-4.37,0-9.02-1.51-12.38-4.54l2.41-2.35c2.63,2.24,6.5,3.53,10.19,3.53,7.06,0,11.42-3.75,11.42-9.8v-5.94c-1.85,3.7-6.27,6.78-11.2,6.78-8.06,0-14.56-6.55-14.56-14.56s6.5-14.56,14.56-14.56ZM582.17,1765.31c0,6.16,4.98,11.2,11.2,11.2s11.2-5.04,11.2-11.2-5.04-11.2-11.2-11.2-11.2,5.04-11.2,11.2Z" style="fill: #040000;"/>
      <path d="M616.72,1779.31v-40.32h3.36v24.58l13.44-12.26h4.82l-14.73,13.5,15.51,14.5h-4.76l-14.28-13.27v13.27h-3.36Z" style="fill: #040000;"/>
      <path d="M657.26,1750.75c4.93,0,9.35,3.08,11.2,6.78v-6.22h3.36v28h-3.36v-6.22c-1.85,3.7-6.27,6.78-11.2,6.78-8.06,0-14.56-6.55-14.56-14.56s6.5-14.56,14.56-14.56ZM646.06,1765.31c0,6.16,4.98,11.2,11.2,11.2s11.2-5.04,11.2-11.2-5.04-11.2-11.2-11.2-11.2,5.04-11.2,11.2Z" style="fill: #040000;"/>
      <path d="M680.62,1738.99h3.36v18.54c1.85-3.7,6.27-6.78,11.2-6.78,8.01,0,14.56,6.55,14.56,14.56s-6.55,14.56-14.56,14.56c-4.93,0-9.35-3.08-11.2-6.78v6.22h-3.36v-40.32ZM683.98,1765.31c0,6.16,4.98,11.2,11.2,11.2s11.2-5.04,11.2-11.2-5.04-11.2-11.2-11.2-11.2,5.04-11.2,11.2Z" style="fill: #040000;"/>
      <path d="M729.11,1750.75c7.95,0,13.38,6.1,13.44,14.56,0,.62-.11,1.34-.11,1.96h-24.02c.84,5.38,5.32,9.18,11.2,9.18,3.42,0,6.66-1.29,8.85-3.7l2.41,2.41c-2.91,3.08-6.94,4.7-11.14,4.7-8.57,0-14.9-6.27-14.9-14.56s6.1-14.56,14.28-14.56ZM718.3,1763.91h20.78c-.5-5.82-4.54-9.8-10.02-9.8s-10.14,4.2-10.75,9.8Z" style="fill: #040000;"/>
      <path d="M752.85,1779.31h-3.36v-42h3.36v42Z" style="fill: #040000;"/>
      <path d="M777.27,1751.31h3.36v5.21c1.79-3.53,5.54-5.77,9.74-5.77,4.98,0,8.74,2.63,10.14,6.94,1.9-4.26,6.1-6.94,10.7-6.94,6.33,0,10.98,4.26,10.98,11.65v16.91h-3.36v-16.74c0-6.22-3.53-8.9-8.06-8.9-4.93,0-9.35,3.53-9.35,9.86v15.79h-3.36v-16.74c0-6.22-3.58-8.9-8.06-8.9-4.98,0-9.35,3.58-9.35,9.97v15.68h-3.36v-28Z" style="fill: #040000;"/>
      <path d="M843.46,1750.75c7.95,0,13.38,6.1,13.44,14.56,0,.62-.11,1.34-.11,1.96h-24.02c.84,5.38,5.32,9.18,11.2,9.18,3.42,0,6.66-1.29,8.85-3.7l2.41,2.41c-2.91,3.08-6.94,4.7-11.14,4.7-8.57,0-14.9-6.27-14.9-14.56s6.1-14.56,14.28-14.56ZM832.65,1763.91h20.78c-.5-5.82-4.54-9.8-10.02-9.8s-10.14,4.2-10.75,9.8Z" style="fill: #040000;"/>
      <path d="M860.88,1751.31h4.82c.84,0,1.4-.56,1.4-1.34v-6.16h3.36v7.5h9.02v3.36h-9.02v15.29c0,5.1,1.12,6.55,4.98,6.55,1.51,0,2.63-.17,4.03-.45v3.25c-1.23.34-2.69.56-4.37.56-5.82,0-8.01-2.69-8.01-9.8v-15.4h-6.22v-3.36Z" style="fill: #040000;"/>
    </g>
    <g>
      <path d="M144.42,1832.91c2.13,2.24,5.32,3.58,8.96,3.58,4.37,0,7.67-1.96,7.67-4.59,0-3.7-4.82-4.87-8.06-5.77-4.59-1.23-10.3-2.52-10.3-7.9,0-4.54,4.14-7.5,9.91-7.5,4.37,0,8.46,1.74,11.14,4.54l-2.35,2.41c-2.52-2.46-5.38-3.53-8.79-3.53-4.03,0-6.5,1.74-6.5,3.98,0,2.91,4.03,3.75,8.06,4.82,4.82,1.29,10.25,3.08,10.25,8.9,0,4.7-4.65,8.01-11.14,8.01-4.37,0-8.29-1.57-11.26-4.54l2.41-2.41Z" style="fill: #040000;"/>
      <path d="M174.21,1839.29h-3.36v-42h3.36v42Z" style="fill: #040000;"/>
      <path d="M195.44,1810.73c7.95,0,13.38,6.1,13.44,14.56,0,.62-.11,1.34-.11,1.96h-24.02c.84,5.38,5.32,9.18,11.2,9.18,3.42,0,6.66-1.29,8.85-3.7l2.41,2.41c-2.91,3.08-6.94,4.7-11.14,4.7-8.57,0-14.9-6.27-14.9-14.56s6.1-14.56,14.28-14.56ZM184.63,1823.89h20.78c-.5-5.82-4.54-9.8-10.02-9.8s-10.14,4.2-10.75,9.8Z" style="fill: #040000;"/>
      <path d="M228.25,1810.73c7.95,0,13.38,6.1,13.44,14.56,0,.62-.11,1.34-.11,1.96h-24.02c.84,5.38,5.32,9.18,11.2,9.18,3.42,0,6.66-1.29,8.85-3.7l2.41,2.41c-2.91,3.08-6.94,4.7-11.14,4.7-8.57,0-14.9-6.27-14.9-14.56s6.1-14.56,14.28-14.56ZM217.44,1823.89h20.78c-.5-5.82-4.54-9.8-10.02-9.8s-10.14,4.2-10.75,9.8Z" style="fill: #040000;"/>
      <path d="M248.58,1811.29l10.64,23.86,10.64-23.86h3.7l-12.43,28h-3.75l-12.43-28h3.64Z" style="fill: #040000;"/>
      <path d="M291.14,1810.73c7.95,0,13.38,6.1,13.44,14.56,0,.62-.11,1.34-.11,1.96h-24.02c.84,5.38,5.32,9.18,11.2,9.18,3.42,0,6.66-1.29,8.85-3.7l2.41,2.41c-2.91,3.08-6.94,4.7-11.14,4.7-8.57,0-14.9-6.27-14.9-14.56s6.1-14.56,14.28-14.56ZM280.33,1823.89h20.78c-.5-5.82-4.54-9.8-10.02-9.8s-10.14,4.2-10.75,9.8Z" style="fill: #040000;"/>
    </g>
    <g>
      <path d="M402,193.37l16.08-43.2h9.06l16.08,43.2h-8.88l-3-8.22h-17.46l-3,8.22h-8.88ZM428.46,176.93l-5.82-15.84-5.88,15.84h11.7Z" style="fill: #040000;"/>
      <path d="M443.88,178.37c0-8.64,7.02-15.6,15.6-15.6,4.44,0,8.46,1.86,11.28,4.86l-5.82,5.82c-1.32-1.5-3.3-2.46-5.46-2.46-4.08,0-7.38,3.3-7.38,7.38s3.3,7.38,7.38,7.38c2.16,0,4.14-.96,5.46-2.46l5.82,5.82c-2.82,3-6.84,4.86-11.28,4.86-8.58,0-15.6-7.02-15.6-15.6Z" style="fill: #040000;"/>
      <path d="M472.32,178.37c0-8.64,7.02-15.6,15.6-15.6,4.44,0,8.46,1.86,11.28,4.86l-5.82,5.82c-1.32-1.5-3.3-2.46-5.46-2.46-4.08,0-7.38,3.3-7.38,7.38s3.3,7.38,7.38,7.38c2.16,0,4.14-.96,5.46-2.46l5.82,5.82c-2.82,3-6.84,4.86-11.28,4.86-8.58,0-15.6-7.02-15.6-15.6Z" style="fill: #040000;"/>
      <path d="M516.06,162.78c8.58,0,14.34,6.18,14.34,15,0,1.26-.12,2.58-.3,3.9h-21.36c1.14,3.24,4.2,5.1,8.04,5.1,2.7,0,5.28-.96,6.84-2.76l5.04,5.04c-2.76,3.06-6.84,4.92-12.06,4.92-8.94,0-15.84-6.84-15.84-15.6s6.66-15.6,15.3-15.6ZM508.56,175.79h14.34c-.48-3.66-3.54-5.88-7.02-5.88s-6.72,2.28-7.32,5.88Z" style="fill: #040000;"/>
      <path d="M537.48,183.17c2.4,2.04,5.94,3.6,9.24,3.6,2.52,0,4.38-1.02,4.38-2.34,0-2.04-3-2.58-5.04-3.12-5.16-1.38-12-2.88-12-9.54,0-5.16,5.16-9,12.24-9,4.68,0,8.88,1.62,12,4.14l-4.14,5.52c-2.04-1.56-5.22-2.52-7.8-2.52-2.82,0-4.08.9-4.08,1.92,0,1.38,2.52,1.86,5.64,2.58,6.42,1.26,11.46,3.54,11.46,9.96,0,5.58-5.46,9.54-12.9,9.54-5.16,0-9.78-1.74-13.62-5.16l4.62-5.58Z" style="fill: #040000;"/>
      <path d="M566.16,183.17c2.4,2.04,5.94,3.6,9.24,3.6,2.52,0,4.38-1.02,4.38-2.34,0-2.04-3-2.58-5.04-3.12-5.16-1.38-12-2.88-12-9.54,0-5.16,5.16-9,12.24-9,4.68,0,8.88,1.62,12,4.14l-4.14,5.52c-2.04-1.56-5.22-2.52-7.8-2.52-2.82,0-4.08.9-4.08,1.92,0,1.38,2.52,1.86,5.64,2.58,6.42,1.26,11.46,3.54,11.46,9.96,0,5.58-5.46,9.54-12.9,9.54-5.16,0-9.78-1.74-13.62-5.16l4.62-5.58Z" style="fill: #040000;"/>
      <path d="M622.02,178.37c0,8.58-6.96,15.6-15.6,15.6s-15.6-7.02-15.6-15.6,7.02-15.6,15.6-15.6,15.6,6.96,15.6,15.6ZM606.42,185.75c4.08,0,7.38-3.3,7.38-7.38s-3.3-7.38-7.38-7.38-7.38,3.3-7.38,7.38,3.3,7.38,7.38,7.38Z" style="fill: #040000;"/>
      <path d="M626.52,193.37v-30h8.22v2.94c2.1-2.28,5.16-3.54,8.64-3.54v7.98c-.36-.06-.78-.12-1.14-.12-4.08,0-7.5,2.88-7.5,6.9v15.84h-8.22Z" style="fill: #040000;"/>
      <path d="M644.82,163.37h8.94l7.86,19.86,7.38-19.86h8.94l-13.68,34.98c-2.34,6.06-6.78,8.82-12.84,8.82-1.02,0-2.1-.06-3.18-.06v-7.92c.6.06,1.2.12,1.8.12,2.7,0,4.92-1.02,6.12-3.9l.84-2.04-12.18-30Z" style="fill: #040000;"/>
      <path d="M697.44,193.37v-43.2h8.22v16.56l14.34-16.56h9.96l-17.52,20.52,18.18,22.68h-9.96l-15-18.6v18.6h-8.22Z" style="fill: #040000;"/>
      <path d="M737.94,149.58c2.64,0,4.8,2.16,4.8,4.8s-2.16,4.8-4.8,4.8-4.86-2.16-4.86-4.8,2.16-4.8,4.86-4.8ZM733.8,193.37v-30h8.22v30h-8.22Z" style="fill: #040000;"/>
      <path d="M748.44,163.37c1.8,0,3-1.2,3-2.94v-5.1h8.22v8.04h7.2v8.22h-7.2v8.58c0,4.68.66,5.88,3.36,5.94,1.14,0,2.34-.24,3.84-.54v7.8c-1.38.36-3.6.6-5.1.6-7.2,0-10.32-3.24-10.32-10.8v-11.58h-5.28v-8.22h2.28Z" style="fill: #040000;"/>
    </g>
    <g>
      <path d="M564.48,2119.82c1.36-4.08,4.96-6.68,9.28-6.68,5.28,0,9.28,3.76,9.28,8.72,0,3.44-1.56,6.4-5.52,10.28l-6.32,6.24h12.28v3.96h-18.48v-3.4l9.68-9.56c2.16-2.12,4.4-4.44,4.4-7.44,0-2.8-2.28-4.84-5.36-4.84-2.64,0-4.76,1.6-5.52,4.2l-3.72-1.48Z" style="fill: #221714;"/>
      <path d="M586.04,2119.82c1.36-4.08,4.96-6.68,9.28-6.68,5.28,0,9.28,3.76,9.28,8.72,0,3.44-1.56,6.4-5.52,10.28l-6.32,6.24h12.28v3.96h-18.48v-3.4l9.68-9.56c2.16-2.12,4.4-4.44,4.4-7.44,0-2.8-2.28-4.84-5.36-4.84-2.64,0-4.76,1.6-5.52,4.2l-3.72-1.48Z" style="fill: #221714;"/>
    </g>
    <g>
      <path d="M225.96,717.42l-2.74,2.74c-2.4-2.83-5.95-4.42-9.79-4.42-5.47,0-8.4,2.06-8.4,5.18,0,2.54,2.06,3.94,8.69,5.86,6.05,1.78,13.06,3.75,13.06,10.75,0,5.67-5.62,9.89-13.15,9.89-5.67,0-10.51-1.92-14.07-5.52l2.69-2.74c2.93,2.93,6.77,4.42,11.38,4.42,5.33,0,9.31-2.64,9.31-6.05,0-3.07-2.35-4.8-9.22-6.77-5.95-1.68-12.53-3.5-12.53-9.84,0-5.47,4.61-9.02,12.24-9.02,4.9,0,9.5,2.02,12.53,5.52Z" style="fill: #040000;"/>
      <path d="M236.14,746.94h-3.84v-36h3.84v36Z" style="fill: #040000;"/>
      <path d="M253.61,722.46c6.82,0,11.47,5.09,11.47,12.48,0,.72-.1,1.54-.14,2.26h-19.39c.96,3.84,4.22,6.34,8.74,6.34,2.59,0,5.14-.86,6.82-2.74l2.74,2.74c-2.5,2.69-5.95,3.89-9.46,3.89-7.54,0-12.96-5.28-12.96-12.48s5.18-12.48,12.19-12.48ZM261.1,733.35c-.53-4.27-3.41-7.06-7.49-7.06s-7.54,2.93-8.21,7.06h15.7Z" style="fill: #040000;"/>
      <path d="M281.11,722.46c6.82,0,11.47,5.09,11.47,12.48,0,.72-.1,1.54-.14,2.26h-19.39c.96,3.84,4.22,6.34,8.74,6.34,2.59,0,5.14-.86,6.82-2.74l2.74,2.74c-2.5,2.69-5.95,3.89-9.46,3.89-7.54,0-12.96-5.28-12.96-12.48s5.18-12.48,12.19-12.48ZM288.6,733.35c-.53-4.27-3.41-7.06-7.49-7.06s-7.54,2.93-8.21,7.06h15.7Z" style="fill: #040000;"/>
      <path d="M299.16,722.94l8.26,19.25,8.26-19.25h4.18l-10.27,24h-4.27l-10.32-24h4.18Z" style="fill: #040000;"/>
      <path d="M334.44,722.46c6.82,0,11.47,5.09,11.47,12.48,0,.72-.1,1.54-.14,2.26h-19.39c.96,3.84,4.22,6.34,8.74,6.34,2.59,0,5.14-.86,6.82-2.74l2.74,2.74c-2.5,2.69-5.95,3.89-9.46,3.89-7.54,0-12.96-5.28-12.96-12.48s5.18-12.48,12.19-12.48ZM341.93,733.35c-.53-4.27-3.41-7.06-7.49-7.06s-7.54,2.93-8.21,7.06h15.7Z" style="fill: #040000;"/>
      <path d="M370.88,726.97v-14.59h3.84v34.56h-3.84v-4.03c-1.63,2.35-4.99,4.51-8.64,4.51-6.86,0-12.48-5.62-12.48-12.48s5.62-12.48,12.48-12.48c3.65,0,7.01,2.16,8.64,4.51ZM353.59,734.94c0,4.75,3.89,8.64,8.64,8.64s8.64-3.89,8.64-8.64-3.89-8.64-8.64-8.64-8.64,3.89-8.64,8.64Z" style="fill: #040000;"/>
      <path d="M391.99,722.94h4.8v-1.3c0-6.91,3.7-9.75,9.6-9.75h1.58v3.84h-1.58c-3.6,0-5.76,1.15-5.76,5.91v1.3h7.34v3.84h-7.34v20.16h-3.84v-20.16h-4.8v-3.84Z" style="fill: #040000;"/>
      <path d="M431.98,726.97v-4.03h3.84v24h-3.84v-4.03c-1.63,2.35-4.99,4.51-8.64,4.51-6.86,0-12.48-5.62-12.48-12.48s5.62-12.48,12.48-12.48c3.65,0,7.01,2.16,8.64,4.51ZM414.7,734.94c0,4.75,3.89,8.64,8.64,8.64s8.64-3.89,8.64-8.64-3.89-8.64-8.64-8.64-8.64,3.89-8.64,8.64Z" style="fill: #040000;"/>
      <path d="M446.38,722.94v3.26c1.78-2.06,4.46-3.75,7.78-3.75,5.71,0,9.5,3.84,9.5,10.23v14.26h-3.84v-14.07c0-5.09-2.54-7.1-6.19-7.1-3.98,0-7.25,2.88-7.25,7.54v13.63h-3.84v-24h3.84Z" style="fill: #040000;"/>
    </g>
    <g>
      <path d="M212.09,777.46c6.82,0,11.47,5.09,11.47,12.48,0,.72-.1,1.54-.14,2.26h-19.39c.96,3.84,4.22,6.34,8.74,6.34,2.59,0,5.14-.86,6.82-2.74l2.74,2.74c-2.5,2.69-5.95,3.89-9.46,3.89-7.54,0-12.96-5.28-12.96-12.48s5.18-12.48,12.19-12.48ZM219.58,788.36c-.53-4.27-3.41-7.06-7.49-7.06s-7.54,2.93-8.21,7.06h15.7Z" style="fill: #040000;"/>
      <path d="M226.73,777.95h4.9l6.62,8.4,6.58-8.4h4.9l-9.02,11.52,9.79,12.48h-4.85l-7.39-9.41-7.39,9.41h-4.9l9.84-12.48-9.07-11.52Z" style="fill: #040000;"/>
      <path d="M260.57,771.51v6.43h6.77v3.84h-6.77v12.15c0,3.7.67,4.66,3.26,4.66,1.34,0,2.3-.14,3.5-.34v3.7c-1.06.29-2.3.48-3.74.48-4.99,0-6.86-2.3-6.86-8.35v-12.29h-4.8v-3.84h3.26c.91,0,1.54-.62,1.54-1.49v-4.94h3.84Z" style="fill: #040000;"/>
      <path d="M283.37,777.46c6.82,0,11.47,5.09,11.47,12.48,0,.72-.1,1.54-.14,2.26h-19.39c.96,3.84,4.22,6.34,8.74,6.34,2.59,0,5.14-.86,6.82-2.74l2.74,2.74c-2.5,2.69-5.95,3.89-9.46,3.89-7.54,0-12.96-5.28-12.96-12.48s5.18-12.48,12.19-12.48ZM290.86,788.36c-.53-4.27-3.41-7.06-7.49-7.06s-7.54,2.93-8.21,7.06h15.7Z" style="fill: #040000;"/>
      <path d="M303.96,777.95v3.26c1.78-2.06,4.46-3.75,7.78-3.75,5.71,0,9.5,3.84,9.5,10.23v14.26h-3.84v-14.07c0-5.09-2.54-7.1-6.19-7.1-3.98,0-7.25,2.88-7.25,7.54v13.63h-3.84v-24h3.84Z" style="fill: #040000;"/>
      <path d="M344.71,781.35l-2.74,2.74c-1.97-1.97-4.13-2.74-6.82-2.74-2.93,0-4.66,1.25-4.66,2.69,0,1.82,3.12,2.59,6,3.41,3.94,1.1,8.74,2.64,8.74,7.87,0,4.08-4.08,7.11-9.6,7.11-3.7,0-7.06-1.34-9.6-3.89l2.74-2.74c1.68,1.73,4.13,2.78,6.96,2.78,3.12,0,5.67-1.44,5.67-3.26,0-2.74-4.18-3.6-6.19-4.22-3.7-1.1-8.59-2.26-8.59-6.96,0-4.03,3.65-6.67,8.59-6.67,3.74,0,7.3,1.54,9.5,3.89Z" style="fill: #040000;"/>
      <path d="M354.41,769.35c0,1.34-1.1,2.4-2.45,2.4s-2.45-1.06-2.45-2.4,1.1-2.45,2.45-2.45,2.45,1.1,2.45,2.45ZM353.88,777.95v24h-3.84v-24h3.84Z" style="fill: #040000;"/>
      <path d="M371.64,777.46c6.86,0,12.48,5.62,12.48,12.48s-5.62,12.48-12.48,12.48-12.48-5.57-12.48-12.48,5.62-12.48,12.48-12.48ZM371.64,798.59c4.75,0,8.64-3.89,8.64-8.64s-3.89-8.59-8.64-8.59-8.64,3.84-8.59,8.59c0,4.75,3.84,8.64,8.59,8.64Z" style="fill: #040000;"/>
      <path d="M393.24,777.95v3.26c1.78-2.06,4.46-3.75,7.78-3.75,5.71,0,9.5,3.84,9.5,10.23v14.26h-3.84v-14.07c0-5.09-2.54-7.1-6.19-7.1-3.98,0-7.25,2.88-7.25,7.54v13.63h-3.84v-24h3.84Z" style="fill: #040000;"/>
      <path d="M441.24,777.46c3.55,0,6.77,1.49,9.02,3.89l-2.74,2.74c-1.54-1.68-3.79-2.74-6.29-2.74-4.75,0-8.64,3.84-8.59,8.59,0,4.75,3.84,8.64,8.59,8.64,2.5,0,4.75-1.1,6.29-2.78l2.74,2.74c-2.26,2.4-5.47,3.89-9.02,3.89-6.86,0-12.48-5.57-12.48-12.48s5.62-12.48,12.48-12.48Z" style="fill: #040000;"/>
      <path d="M474.74,781.98v-4.03h3.84v24h-3.84v-4.03c-1.63,2.35-4.99,4.51-8.64,4.51-6.86,0-12.48-5.62-12.48-12.48s5.62-12.48,12.48-12.48c3.65,0,7.01,2.16,8.64,4.51ZM457.46,789.95c0,4.75,3.89,8.64,8.64,8.64s8.64-3.89,8.64-8.64-3.89-8.64-8.64-8.64-8.64,3.89-8.64,8.64Z" style="fill: #040000;"/>
      <path d="M510.26,789.95c0,6.86-5.62,12.48-12.48,12.48-3.65,0-7.01-2.16-8.64-4.51v4.03h-3.84v-34.56h3.84v14.59c1.63-2.35,4.99-4.51,8.64-4.51,6.86,0,12.48,5.62,12.48,12.48ZM489.14,789.95c0,4.75,3.89,8.64,8.64,8.64s8.64-3.89,8.64-8.64-3.89-8.64-8.64-8.64-8.64,3.89-8.64,8.64Z" style="fill: #040000;"/>
      <path d="M519.38,801.95h-3.84v-36h3.84v36Z" style="fill: #040000;"/>
      <path d="M536.85,777.46c6.82,0,11.47,5.09,11.47,12.48,0,.72-.1,1.54-.14,2.26h-19.39c.96,3.84,4.22,6.34,8.74,6.34,2.59,0,5.14-.86,6.82-2.74l2.74,2.74c-2.5,2.69-5.95,3.89-9.46,3.89-7.54,0-12.96-5.28-12.96-12.48s5.18-12.48,12.19-12.48ZM544.34,788.36c-.53-4.27-3.41-7.06-7.49-7.06s-7.54,2.93-8.21,7.06h15.7Z" style="fill: #040000;"/>
    </g>
    <g>
      <path d="M913,743.03l9.36,9.28,9.28-9.28,4.48,4.56-9.28,9.28,9.28,9.28-4.48,4.56-9.28-9.28-9.36,9.28-4.48-4.56,9.28-9.28-9.28-9.28,4.48-4.56Z" style="fill: #040000;"/>
      <path d="M960.76,728.07h5.76v57.6h-6.4v-49.68l-12.56,7.52-3.28-5.44,16.48-10Z" style="fill: #040000;"/>
    </g>
    <g style="clip-path: url(#clippath-1);">
      <rect x="140" y="607.17" width="891.32" height="298" rx="41.51" ry="41.51" style="fill: none; stroke: #040000; stroke-miterlimit: 10;"/>
      <polygon points="871.36 812.22 870.49 812.22 870.93 811.46 853.07 801.15 852.63 801.91 852.19 801.15 846.16 804.64 826.29 793.16 825.85 793.92 825.41 793.16 818.17 797.34 812.48 795.3 806.21 792.67 794.34 786.89 773.92 775.62 773.49 776.38 773.66 775.52 772.77 775.35 772.41 775.47 668.12 715.27 668.05 714.9 667.47 714.22 658.9 709.14 647.18 701.91 639.73 696.88 634.08 692.55 631.8 690.57 629.58 688.44 627.33 686.1 627.3 686.13 627.14 685.95 627.05 678.03 626.17 678.03 626.61 677.27 598.04 660.78 597.6 661.54 597.17 660.78 573.28 674.57 573.72 675.33 572.84 675.33 572.84 688.21 573.72 688.21 573.28 688.98 573.51 689.11 573.51 690.41 574.39 690.41 573.95 691.17 591.81 701.48 592.25 700.71 592.69 701.48 593.81 700.82 601.85 705.47 602.29 704.71 602.73 705.47 608.02 702.41 610.83 703.32 616.87 705.47 623.14 708.1 635.01 713.88 655.29 725.08 656.57 725.42 656.93 725.3 761.22 785.5 761.29 785.88 761.88 786.56 762.55 785.97 762.11 786.74 770.45 791.63 782.16 798.86 789.61 803.89 795.26 808.22 797.54 810.2 799.76 812.33 800.1 812.69 800.1 821.16 800.98 821.16 800.54 821.93 820.43 833.41 820.43 840.14 821.31 840.14 820.55 840.58 820.76 840.93 821.52 840.49 821.08 841.26 838.93 851.56 839.37 850.8 839.81 851.56 870.93 833.6 870.49 832.84 871.36 832.84 871.36 812.22" style="fill: #e4e4e4;"/>
      <path d="M773.49,775.62l-.65-.13-.77.27M772.07,775.76l-8.1,4.68M763.96,780.44l-.77.62-.65.88-.44,1-.15.98.15.8.44.5h0M667.34,715.07l-.1-.54-.44-.5-.65-.12-.77.27M657.28,718.85l-.77.62-.65.88-.44,1-.15.98.15.8.44.5.65.13.52-.18M665.38,714.17l-8.1,4.68M625.06,685.91l-16.74,9.66M608.32,695.57l-.77.62-.65.88-.44,1-.15.98.15.8.44.5.21.04M626.67,685.98l-.19-.22-.65-.13-.77.27M852.19,808.11l-1.12.64M862.09,823l-3.35-1.93M860.31,826.1l-5.13-2.97M860.31,824.03l-3.35-1.93M862.09,825.06v-2.06M862.09,823l-1.79,1.03M860.31,824.03v2.06M860.31,826.1l1.79-1.03M856.42,828.34v-2.06M854.64,829.37l1.78-1.03M854.64,829.37l-5.8-3.35M854.64,827.31v2.06M854.64,827.31l-5.8-3.35M856.42,826.28l-1.78,1.03M856.42,826.28l-3.35-1.93M846.16,804.88l-20.31-11.72M825.85,793.16l-24.86,14.35M821.29,819.24h.02M821.29,832.13l-20.31-11.73M821.29,832.13l.02.03M821.29,819.24l-20.31-11.73M800.98,807.51v12.89M866.69,816.48l-14.51-8.38M852.19,808.11v-2.84M837.9,816.35l-1.11.64M840.13,817.64l-1.12.64M848.97,832.64l-5.13-2.96M848.97,830.58l-3.35-1.93M850.76,829.55l-3.35-1.93M850.76,831.61v-2.06M850.76,829.55l-1.79,1.03M848.97,830.58v2.06M848.97,832.64l1.79-1.03M855.08,823.18l12.95,7.47M843.3,835.91l1.79-1.03M845.09,834.88v-2.06M845.09,832.82l-1.79,1.03M845.09,832.82l-3.26-1.88M843.3,833.85v2.06M843.3,833.85l-1.47-.85M843.3,835.91l-1.47-.85M852.41,824.73l-14.51-8.38M837.9,816.35v-2.83M863.12,818.54l-10.71,6.18M863.12,818.54v-2.84M852.41,824.73v-2.83M863.12,815.71l-10.71,6.18M848.61,807.33l14.51,8.38M852.19,805.27l-3.57,2.06M866.69,813.65l-14.51-8.38M870.49,811.46l-17.86-10.31M852.63,801.15l-31.11,17.96M834.33,815.58l14.51,8.38M837.9,813.52l-3.57,2.06M852.41,821.89l-14.51-8.38M870.49,811.46l-3.79,2.19M866.69,816.48v-2.84M868.03,815.71l-1.34.77M868.03,830.66v-14.95M841.83,845.78l26.2-15.13M841.83,830.84v14.95M848.84,826.79l-7.01,4.05M848.84,826.79v-2.84M848.84,823.95l-9.46,5.47M839.37,850.04l31.11-17.96M870.49,832.07v-20.62M821.31,819.23v20.15M821.31,839.38l.21.35M839.37,850.04l-17.86-10.31M839.37,829.42v20.62M839.37,829.42l-17.86-10.31M821.52,819.11l-.21.12M609.88,694.51h-.05s-.29-.34-.29-.34l-.1-.53M609.43,693.64l.1-.65.29-.67.43-.59.51-.41.51-.18.39.08M604.38,697.75l-.14-.03-.29-.33-.1-.53M603.85,696.86l.1-.65.29-.67.43-.59.51-.41.51-.18.32.06M620.86,687.91l-.16-.19-.1-.53M620.59,687.19l.1-.65.29-.67.43-.59.51-.41.51-.18.43.08.12.14M615.37,691.24l-.25-.29-.1-.53M615.01,690.42l.1-.65.29-.67.43-.59.51-.41.51-.18.43.08.04.04M599.84,666.19l4.24,2.45M599.84,666.19v-1.55M594.26,669.41l4.24,2.45M594.26,669.41v-1.55M588.68,672.63l4.24,2.45M588.68,672.63v-1.55M614.95,673v.52M615.54,673.29v.51M613.52,673.28v.51M614.95,673.52l-.17-.07-.21-.03-.21.02-.19.05-.65.31M613.52,673.8l-.46.32M614.78,674.01v.52M612.75,674.27v.52M612.75,674.27l.23.1.27.06h.29s.29-.04.29-.04l.95-.4M614.78,674.01l.53-.37.24-.35M615.54,673.29l-.09-.28-.23-.18M615.23,672.84l-.23-.11-.27-.06h-.29s-.29.04-.29.04l-.95.4M613.2,673.1l-.68.55-.08.16v.17s.12.16.12.16l.18.13M613.52,673.28l-.54.38-.09.11-.03.12.05.12.12.1M614.95,673l-.17-.07-.21-.03h-.21s-.19.06-.19.06l-.65.31M614.46,673.83l.54-.38.09-.11.02-.12-.04-.12-.12-.1M613.53,674.2l.56-.18.38-.2M613.03,674.11l.12.05.14.03h.24M617.09,673.95v.52M614.32,675.18v.52M616.1,675.17v.52M615.81,675.34v.52M614.52,675.3v.52M617.09,673.95l-.32-.18M616.77,673.77l-2.45,1.42M614.32,675.18l.2.12M614.52,675.3l.73-.04.56.07M615.81,675.34l.29-.17M616.1,675.17l-.51-.09-.42-.03M615.18,675.05l1.91-1.1M618.75,675.2v.52M617.68,675.24v.52M619.1,675.87v.52M618.76,675.71v.52M617.27,675.94v.39M601.06,668.45v-1.55M619.8,675.87v.52M609.52,676.32v.52M615.89,676.05v.52M621.71,676.62v.52M583.1,675.85l4.24,2.45M583.1,675.85v-1.55M618.57,676.15v.51M617.06,676.73v.52M619.1,675.87l.22-.23.04-.26-.11-.19-.22-.16M619.03,675.03l-.48-.17-.44-.02M618.11,674.85l-.46.09-.3.14M617.35,675.07l-.27.22-.09.27.08.21.21.18M617.27,675.94l.31.12.29.04M617.88,676.1l-.76.3M617.11,676.4l-.91-.52M616.21,675.87l-.31.18M615.89,676.05l1.16.67M617.06,676.73l1.51-.58M618.57,676.15l-.28-.2M618.29,675.95h-.2s-.19-.01-.19-.01l-.25-.1M617.64,675.83l-.19-.15-.03-.18.09-.14.16-.12M617.68,675.24l.27-.11.33-.05.26.03.21.09M618.75,675.2l.15.13.03.16-.18.23M618.76,675.71l.35.16M609.72,676.97v.52M609.44,677.13v.52M608.43,676.55v.51M621.46,676.73v.52M574.39,689.64v-1.8M592.25,699.95l-17.86-10.31M592.25,699.95v-1.8M593.81,699.05l-1.56.9M620.2,676.8v.52M618.68,676.92v.52M610.48,676.57v.51M608.36,677v.52M622.6,680.11l.67.39M619.92,677.62v.52M618.44,677.56v.52M620.11,675.69l-.31.18M619.8,675.87l1.2.69M621,676.57h-.32s-.21,0-.21,0h-.21s-.21-.02-.21-.02M620.05,676.55h-.99s-.38.06-.38.06l-.32.13M618.36,676.74l-.24.22-.03.26.12.19.22.16M618.44,677.56l.37.16.45.06.35-.05.31-.11M619.92,677.62l-.28-.2M619.64,677.42l-.24.09-.28.02-.21-.04-.18-.08M618.73,677.4l-.15-.12-.05-.15.04-.12.12-.1M618.68,676.92l.39-.11.44-.02.69.02M620.2,676.8h.72s.54-.08.54-.08M621.46,676.73l.15-.05.1-.05M621.71,676.62l-1.6-.93M610.74,677.83v.52M608.24,677.86v.52M609.44,677.13l.28-.16M609.72,676.97l-.66-.38M609.06,676.58l.46-.27M609.52,676.32l.57.1.38.16M610.48,676.57l.32.28.05.33-.18.24-.29.21M610.38,677.64l-.31.15-.27.08M609.8,677.87l-.38.05-.38-.03-.51-.19M608.53,677.7l-.22-.17-.11-.2.04-.17.12-.15M608.36,677l-.4-.14M607.96,676.86l-.2.28.03.3.45.41M608.24,677.86l.65.26.77.05.58-.12.49-.21M610.74,677.83l.44-.38.11-.44-.19-.34-.37-.29M610.73,676.39l-.73-.27-.67-.09M609.34,676.02l-.91.53M608.43,676.55l1.01.58M612.51,677.45v.52M609.69,678.66v.52M595.48,671.67v-1.55M610.16,678.93v.52M614.09,678.36v.52M611.64,679.78v.52M611.29,679.58v.52M611.64,679.78l2.45-1.42M614.09,678.36l-.35-.2M613.75,678.17l-.85.49M612.9,678.66h-.72M612.18,678.66l.33-1.21M612.51,677.45l-.43-.25M612.08,677.2l-.34,1.45M611.74,678.66h-2.05M609.69,678.66l.47.27M610.16,678.93h2.26M612.42,678.93l-1.13.65M611.29,679.58l.35.2M615.61,679.24v.52M617.02,683.33l.67.39M614.22,680.94v.52M613.94,681.11v.52M612.02,680v.52M613.43,680.49l2.17-1.25M615.61,679.24l-.35-.2M615.26,679.04l-2.17,1.25M613.09,680.29l-.79-.45M612.3,679.84l-.28.16M612.02,680l1.92,1.11M613.94,681.11l.28-.16M614.22,680.94l-.79-.45M589.9,674.89v-1.55M611.44,686.55l.67.39M595.93,684.29v.52M596.04,684.36v.52M584.32,678.11v-1.55M596.71,683.46v.52M603.41,686.81v.52M602.96,687.06v.52M605.86,689.77l.67.39M596.27,683.2l-.34,1.09M595.93,684.29l.11.06M596.04,684.36l.67-.9M596.71,683.46l6.25,3.61M602.96,687.06l.45-.26M603.41,686.81l-6.7-3.87M596.71,682.94l-.45.26M623.27,680.49v-.77M625.17,679.4l-1.9,1.1M625.17,685.87v-6.47M620.04,682.36v6.44M621.93,681.27l-1.9,1.1M621.93,680.49v.77M623.27,679.72l-1.34.77M603.3,701.82l3.25-1.88M603.3,692.03v9.8M605.19,690.93l-1.9,1.09M605.19,690.16v.77M606.53,689.38l-1.34.77M606.53,690.16v-.77M608.43,689.06l-1.9,1.09M608.43,695.17v-6.11M608.88,688.8v6.51M610.77,687.71l-1.9,1.09M610.77,686.94v.77M612.11,686.16l-1.34.77M612.11,686.94v-.77M614.01,685.84l-1.9,1.1M614.01,692.32v-6.48M617.69,683.71v-.77M619.59,682.62l-1.9,1.1M619.59,689.06v-6.44M614.46,685.58v6.44M616.35,684.49l-1.9,1.1M616.35,683.71v.77M617.69,682.94l-1.34.77M602.29,703.95l5.62-3.25M626.17,677.27v8.43M619.1,676.39l.22-.23.02-.18M618.76,676.23l.35.16M617.68,675.76l.27-.12.33-.05.26.03.21.09M617.06,677.24l1.3-.5M615.89,676.57l1.16.67M616.99,676.06v.02s.07.21.07.21l.09.08M609.44,677.64l.28-.16M608.43,677.06l1.01.58M610.74,678.35l.44-.37.09-.35M608.24,678.37l.65.26.77.05.58-.12.49-.21M607.78,677.78l.02.19.45.41M610.48,677.08l.27.24M609.52,676.83l.57.09.38.16M609.5,676.84h.02M613.88,680.75l1.73-1M613.94,681.62l.28-.16M612.02,680.52l1.92,1.11M602.29,691.06l23.88-13.79M626.17,677.27l-28.57-16.49M597.6,660.78l-23.88,13.79M586,672.63l5.58,3.22M588.68,671.09l-2.68,1.55M594.26,674.31l-5.58-3.22M591.58,675.85l2.68-1.55M594.26,667.87l-2.68,1.55M599.84,671.09l-5.58-3.22M597.16,672.63l2.68-1.55M591.58,669.41l5.58,3.22M599.84,664.64l-2.68,1.55M605.42,667.87l-5.58-3.22M602.74,669.41l2.68-1.55M597.16,666.19l5.58,3.22M580.42,675.85l5.58,3.22M583.1,674.31l-2.68,1.55M588.68,677.53l-5.58-3.22M586,679.08l2.68-1.55M602.96,687.58l.45-.26M596.71,683.97l6.25,3.61M596.04,684.87l.67-.9M595.93,684.81l.11.06M612.37,679.88l1.73-1M611.64,680.3l.38-.22M611.29,680.1l.35.2M610.16,679.44h1.37M609.69,679.17l.47.27M612.32,678.66l.19-.69M621.46,677.24l.15-.05.1-.05M620.2,677.32h.72s.54-.08.54-.08M618.68,677.43l.39-.11.44-.02.69.02M618.44,678.08l.37.16.45.06.35-.05.31-.11M618.11,677.64v.09s.11.19.11.19l.22.16M619.8,676.39l.28.16M615.92,675.14l1.17-.68M615.81,675.85l.29-.17M614.52,675.82l.73-.04.56.07M614.32,675.7l.2.12M612.75,674.79l.23.1.27.06h.29s.29-.04.29-.04l.95-.4M612.45,674.39v.11s.12.16.12.16l.18.13M615.54,673.81l-.02-.05M614.78,674.53l.53-.37.24-.35M573.72,687.45l28.57,16.49M602.29,691.06v12.89M573.72,674.57l28.57,16.49M573.72,674.57v12.89M772.32,775.67l-105.83-61.1M656.17,723.08l105.83,61.1M818.27,797.54h-.04s-3.38-1.18-3.38-1.18l-2.69-1.01-2.32-.93-2.12-.9-1.87-.82-1.78-.81-1.89-.88-2.28-1.1-2.72-1.35-3.24-1.66-2.5-1.31-2.81-1.5-3.15-1.72-3.54-1.96-3.98-2.24-4.46-2.56M762.55,785.22l4.46,2.59,3.9,2.3,3.4,2.05,2.97,1.82,2.59,1.62,2.78,1.77,2.33,1.52,1.96,1.31,1.64,1.13,1.55,1.09,1.5,1.09,1.97,1.49,2.24,1.8,2.31,2.01,2.25,2.16.59.61M607.09,700.43l4.03,1.29,3.38,1.16,2.69,1.01,2.32.93,2.12.9,1.87.82,1.78.81,1.89.89,2.28,1.1,2.72,1.35,3.24,1.66,2.5,1.31,2.81,1.5,3.15,1.72,3.54,1.96,3.98,2.24,4.46,2.56M666.8,714.03l-4.46-2.59-3.9-2.3-3.41-2.05-2.97-1.82-2.59-1.62-2.78-1.77-2.33-1.53-1.96-1.31-1.64-1.13-1.55-1.09-1.5-1.09-1.97-1.49-2.24-1.8-2.31-2.01-2.25-2.16-2.25-2.34M608.88,693.96l1.04.6M611.7,691.21l-2.82-1.63M613.98,692.3l-2.3-1.1M603.3,697.18l1.04.6M606.08,694.41l-2.79-1.61M604.37,697.78l2.03.66M608.8,695.29l-2.78-.9M620.04,687.51l.87.5M622.97,684.83l-2.93-1.7M620.84,687.95l.24.25M624.38,686.3l-1.35-1.4M614.46,690.73l.93.54M617.39,688.05l-2.93-1.69M615.36,691.25l.19.14M619.17,689.31l-1.82-1.27M615.55,673.75v-.52M612.43,673.81v.65M619.37,676.05v-.65M616.98,675.48v.64M618.08,677.05v.64M611.31,677.69v-.65M607.75,677.2v.65" style="fill: none; stroke: #040000; stroke-miterlimit: 10;"/>
    </g>
    <g>
      <path d="M457.82,402.8v-4.95h28.6v4.95h-11.85v31.05h-4.95v-31.05h-11.8Z" style="fill: #040000;"/>
      <path d="M490.72,433.85v-25h4.95v3.25c1.65-2.15,4.25-3.75,7.8-3.75v4.5c-4.3,0-7.8,2.65-7.8,7.15v13.85h-4.95Z" style="fill: #040000;"/>
      <path d="M510.12,397.35c1.65,0,3,1.35,3,3.05s-1.35,3-3,3-3.05-1.35-3.05-3,1.35-3.05,3.05-3.05ZM507.62,433.85v-25h4.95v25h-4.95Z" style="fill: #040000;"/>
      <path d="M518.97,408.85h4.95v3.7c1.7-2.25,4.85-4.2,8.35-4.2,7.2,0,12.7,5.8,12.7,13s-5.5,13-12.7,13c-3.45,0-6.65-1.95-8.35-4.15v15.85h-4.95v-37.2ZM523.92,421.35c0,4.45,3.6,8.05,8.05,8.05s8.05-3.6,8.05-8.05-3.6-8.05-8.05-8.05-8.05,3.6-8.05,8.05Z" style="fill: #040000;"/>
      <path d="M554.92,433.85h-4.95v-37.5h4.95v37.5Z" style="fill: #040000;"/>
      <path d="M572.67,408.35c7.1,0,11.95,5.25,11.9,12.85,0,.85-.1,1.75-.15,2.65h-19.4c1,3.55,4.1,5.8,8.3,5.8,2.55,0,5-.9,6.65-2.65l3.3,3.3c-2.55,2.7-6.05,4.05-9.95,4.05-7.7,0-13.4-5.6-13.4-13s5.45-13,12.75-13ZM564.87,419.55h14.9c-.55-4-3.4-6.55-7.2-6.55s-7.1,2.65-7.7,6.55Z" style="fill: #040000;"/>
      <path d="M603.67,397.85h14.6c6.6,0,11.4,5.1,11.4,12.05s-4.8,12.05-11.4,12.05h-9.65v11.9h-4.95v-36ZM608.62,402.8v14.2h9.25c4.1,0,6.85-2.9,6.85-7.1s-2.75-7.1-6.8-7.1h-9.3Z" style="fill: #040000;"/>
      <path d="M645.87,408.35c3.45,0,6.65,1.95,8.35,4.15v-3.65h4.95v25h-4.95v-3.7c-1.65,2.25-4.85,4.2-8.35,4.2-7.15,0-12.7-5.85-12.7-13s5.55-13,12.7-13ZM638.12,421.35c0,4.45,3.6,8.05,8.05,8.05s8.05-3.6,8.05-8.05-3.6-8.05-8.05-8.05-8.05,3.6-8.05,8.05Z" style="fill: #040000;"/>
      <path d="M664.17,421.35c0-7.2,5.85-13,13-13,3.7,0,7.05,1.55,9.4,4.05l-3.5,3.5c-1.45-1.6-3.55-2.6-5.9-2.6-4.45,0-8.05,3.6-8.05,8.05s3.6,8.05,8.05,8.05c2.35,0,4.45-1,5.9-2.6l3.5,3.5c-2.35,2.5-5.7,4.05-9.4,4.05-7.15,0-13-5.85-13-13Z" style="fill: #040000;"/>
      <path d="M691.07,433.85v-36h4.95v21.4l9.55-10.4h6.55l-11,12,11.7,13h-6.55l-10.25-11.35v11.35h-4.95Z" style="fill: #040000;"/>
    </g>
    <g style="clip-path: url(#clippath-2);">
      <rect x="503.87" y="482.02" width="44.35" height="44.35" style="fill: #cf391a;"/>
      <rect x="562.82" y="482.02" width="44.35" height="44.35" style="fill: #cf391a;"/>
      <rect x="621.78" y="482.02" width="44.35" height="44.35" style="fill: #cf391a;"/>
    </g>
  </g>
</svg>