<?xml version="1.0" encoding="UTF-8"?>
<svg id="_圖層_1" data-name="圖層 1" xmlns="http://www.w3.org/2000/svg" xmlns:xlink="http://www.w3.org/1999/xlink" viewBox="0 0 1170 2182.68">
  <defs>
    <clipPath id="clippath">
      <rect y="-174.66" width="1170" height="2532" style="fill: none;"/>
    </clipPath>
  </defs>
  <g style="clip-path: url(#clippath);">
    <rect y="-174.66" width="1170" height="2532" style="fill: #cf391a;"/>
    <polygon points="452.34 1083.9 406.54 1083.9 406.54 1051.18 391.67 1051.18 391.67 1131.5 406.54 1131.5 406.54 1098.77 452.34 1098.77 452.34 1131.5 467.21 1131.5 467.21 1051.18 452.34 1051.18 452.34 1083.9" style="fill: #fff;"/>
    <polygon points="492.73 1131.5 509.9 1131.5 526.52 1102.71 539.1 1080.93 568.29 1131.5 585.47 1131.5 539.1 1051.18 492.73 1131.5" style="fill: #fff;"/>
    <polygon points="643.48 1079.97 630.9 1101.75 601.71 1051.18 584.53 1051.18 630.9 1131.5 677.27 1051.18 660.1 1051.18 643.48 1079.97" style="fill: #fff;"/>
    <polygon points="763.46 1051.18 763.46 1090.46 763.46 1100.31 702.78 1051.18 702.78 1067.89 702.78 1070.32 702.78 1094.81 702.78 1131.5 717.66 1131.5 717.66 1094.81 717.66 1082.36 778.33 1131.5 778.33 1117.38 778.33 1112.36 778.33 1090.46 778.33 1051.18 763.46 1051.18" style="fill: #fff;"/>
    <text transform="translate(140 1929.5)" style="fill: #fff; font-family: MusticaPro-Regular, &apos;Mustica Pro&apos;; font-size: 25px;"><tspan x="0" y="0">©</tspan><tspan x="20.5" y="0" style="letter-spacing: 0em;">H</tspan><tspan x="38.65" y="0" style="letter-spacing: -.06em;">A</tspan><tspan x="54.1" y="0" style="letter-spacing: 0em;">V</tspan><tspan x="70" y="0">N</tspan><tspan x="88.4" y="0" style="letter-spacing: .03em;"> </tspan><tspan x="95.82" y="0" style="letter-spacing: 0em;">Design,</tspan><tspan x="181.12" y="0" style="letter-spacing: .03em;"> </tspan><tspan x="188.55" y="0">all</tspan><tspan x="215.3" y="0" style="letter-spacing: .03em;"> </tspan><tspan x="222.72" y="0">rights</tspan><tspan x="287.79" y="0" style="letter-spacing: .03em;"> </tspan><tspan x="295.22" y="0" style="letter-spacing: -.03em;">r</tspan><tspan x="302.77" y="0" style="letter-spacing: 0em;">eser</tspan><tspan x="351.22" y="0" style="letter-spacing: 0em;">v</tspan><tspan x="364.42" y="0" style="letter-spacing: 0em;">ed.</tspan><tspan x="400.32" y="0" style="letter-spacing: .03em;"> </tspan><tspan x="407.74" y="0" style="letter-spacing: 0em;">C</tspan><tspan x="425.42" y="0">on</tspan><tspan x="454.92" y="0" style="letter-spacing: -.01em;">t</tspan><tspan x="464.19" y="0">ents</tspan><tspan x="514.04" y="0" style="letter-spacing: .03em;"> </tspan><tspan x="521.46" y="0">and</tspan><tspan x="567.46" y="0" style="letter-spacing: .03em;"> </tspan><tspan x="574.89" y="0">speciﬁcations</tspan><tspan x="734.21" y="0" style="letter-spacing: .03em;"> </tspan><tspan x="741.64" y="0" style="letter-spacing: 0em;">as</tspan><tspan x="768.88" y="0" style="letter-spacing: .03em;"> </tspan><tspan x="776.31" y="0">described </tspan></text>
    <text transform="translate(140 1960.5)" style="fill: #fff; font-family: MusticaPro-Regular, &apos;Mustica Pro&apos;; font-size: 25px;"><tspan x="0" y="0">or illust</tspan><tspan x="82.07" y="0" style="letter-spacing: -.03em;">r</tspan><tspan x="89.65" y="0" style="letter-spacing: 0em;">a</tspan><tspan x="105.4" y="0" style="letter-spacing: 0em;">t</tspan><tspan x="114.67" y="0">ed a</tspan><tspan x="167.25" y="0" style="letter-spacing: -.03em;">r</tspan><tspan x="174.82" y="0">e subject </tspan><tspan x="286.69" y="0" style="letter-spacing: 0em;">t</tspan><tspan x="295.97" y="0" style="letter-spacing: 0em;">o change without n</tspan><tspan x="519.64" y="0" style="letter-spacing: 0em;">o</tspan><tspan x="534.41" y="0" style="letter-spacing: 0em;">tic</tspan><tspan x="562.39" y="0" style="letter-spacing: -.02em;">e</tspan><tspan x="576.21" y="0">.</tspan></text>
  </g>
</svg>