<?xml version="1.0" encoding="UTF-8"?>
<svg id="_圖層_1" data-name="圖層 1" xmlns="http://www.w3.org/2000/svg" xmlns:xlink="http://www.w3.org/1999/xlink" viewBox="0 0 1170 2182.68">
  <defs>
    <clipPath id="clippath">
      <rect y="-174.66" width="1170" height="2532" style="fill: none;"/>
    </clipPath>
    <clipPath id="clippath-1">
      <rect y="-174.66" width="1170" height="2532" style="fill: none;"/>
    </clipPath>
  </defs>
  <g style="clip-path: url(#clippath);">
    <text transform="translate(140 1119.35)" style="fill: #040000; font-family: MusticaPro-Light, &apos;Mustica Pro&apos;; font-size: 56px; font-weight: 300;"><tspan x="0" y="0">Short fan screw</tspan></text>
    <text transform="translate(140 1239.36)" style="fill: #040000; font-family: MusticaPro-Light, &apos;Mustica Pro&apos;; font-size: 56px; font-weight: 300;"><tspan x="0" y="0">Kurze Lüerschraube</tspan></text>
    <text transform="translate(140 1359.37)" style="fill: #040000; font-family: MusticaPro-Light, &apos;Mustica Pro&apos;; font-size: 56px; font-weight: 300;"><tspan x="0" y="0">Vis courte pour ventilateur</tspan></text>
    <text transform="translate(140 1479.38)" style="fill: #040000; font-family: MusticaPro-Light, &apos;Mustica Pro&apos;; font-size: 56px; font-weight: 300;"><tspan x="0" y="0">Vite corta per ventola</tspan></text>
    <text transform="translate(140 1599.39)" style="fill: #040000; font-family: MusticaPro-Light, &apos;Mustica Pro&apos;; font-size: 56px; font-weight: 300;"><tspan x="0" y="0">Korte ventilatorschroef</tspan></text>
    <text transform="translate(140 1719.39)" style="fill: #040000; font-family: MusticaPro-Light, &apos;Mustica Pro&apos;; font-size: 56px; font-weight: 300;"><tspan x="0" y="0">Tornillo corto para ventilador</tspan></text>
    <text transform="translate(140 1839.4)" style="fill: #040000; font-family: MusticaPro-Light, &apos;Mustica Pro&apos;; font-size: 56px; font-weight: 300;"><tspan x="0" y="0">Parafuso curto para ventoinha</tspan></text>
    <text transform="translate(140 1959.41)" style="fill: #040000; font-family: MusticaPro-Light, &apos;Mustica Pro&apos;; font-size: 56px; font-weight: 300;"><tspan x="0" y="0">Lyhyt tuulettimen ruuvi</tspan></text>
    <text transform="translate(401.4 193.37)" style="fill: #040000; font-family: MusticaPro-Bold, &apos;Mustica Pro&apos;; font-size: 60px; font-weight: 700;"><tspan x="0" y="0" style="letter-spacing: -.03em;">A</tspan><tspan x="40.8" y="0" style="letter-spacing: -.02em;">cc</tspan><tspan x="97.68" y="0" style="letter-spacing: 0em;">e</tspan><tspan x="130.38" y="0">ss</tspan><tspan x="187.74" y="0" style="letter-spacing: 0em;">o</tspan><tspan x="222" y="0">ry Kit</tspan></text>
    <text transform="translate(467.32 433.85)" style="fill: #040000; font-family: MusticaPro-Medium, &apos;Mustica Pro&apos;; font-size: 50px; font-weight: 500;"><tspan x="0" y="0">Dual Pack</tspan></text>
    <rect x="503.87" y="482.02" width="44.35" height="44.35" style="fill: #cf391a;"/>
    <rect x="562.82" y="482.02" width="44.35" height="44.35" style="fill: #cf391a;"/>
    <path d="M665.13,525.37h-42.35v-42.35h42.35v42.35ZM666.13,482.02h-44.35v44.36h44.35v-44.36Z" style="fill: #cf391a;"/>
    <text transform="translate(197.98 746.94)" style="fill: #040000; font-family: MusticaPro-Regular, &apos;Mustica Pro&apos;; font-size: 48px;"><tspan x="0" y="0">Short fan screw</tspan></text>
    <text transform="translate(197.98 801.95)" style="fill: #040000; font-family: MusticaPro-Regular, &apos;Mustica Pro&apos;; font-size: 48px;"><tspan x="0" y="0">M5×10mm</tspan></text>
    <text transform="translate(892.72 785.67)" style="fill: #040000; font-family: MusticaPro-Regular, &apos;Mustica Pro&apos;; font-size: 80px;"><tspan x="0" y="0">×8</tspan></text>
    <polygon points="815.61 760.42 815.6 760.4 816.06 759.95 818.86 756.4 820.02 754.43 821.86 750.12 823.04 745.39 823.56 740.28 823.42 734.87 822.63 729.21 821.2 723.36 819.16 717.38 816.52 711.32 813.33 705.27 809.62 699.29 805.42 693.43 800.79 687.76 795.78 682.35 793.14 679.75 787.65 674.83 781.93 670.3 776.03 666.22 770.01 662.64 763.95 659.59 757.91 657.1 752.01 655.23 746.12 653.96 740.5 653.33 735.16 653.37 730.12 654.07 725.49 655.43 721.3 657.46 719.39 658.72 717.62 660.14 709.02 668.65 710.19 669.82 709.01 668.67 705.77 672.67 704.61 674.64 702.77 678.95 701.6 683.68 701.08 688.79 701.22 694.2 701.7 697.99 700.4 699.24 700.41 699.25 700.27 699.36 698.1 702.2 696.63 705.25 695.72 708.64 695.65 709.38 691.21 710.45 688.06 712.06 685.59 714.09 684.34 715.3 684.34 715.31 684.21 715.42 682.04 718.26 680.57 721.32 679.66 724.7 679.59 725.44 675.14 726.52 671.99 728.12 669.53 730.15 668.28 731.36 668.28 731.37 668.15 731.48 665.98 734.32 664.51 737.38 663.6 740.76 663.53 741.5 659.08 742.58 655.93 744.18 653.47 746.22 652.22 747.43 652.22 747.43 652.08 747.54 649.92 750.38 648.45 753.43 647.54 756.82 647.47 757.56 643.02 758.64 639.87 760.25 637.41 762.28 636.15 763.49 636.16 763.49 636.02 763.6 633.86 766.44 632.39 769.5 631.48 772.88 631.37 773.94 629.63 774.12 626.27 775 626.69 776.6 625.9 775.14 623.81 776.31 621.35 778.34 621.33 778.32 620.83 778.92 620.78 778.87 619.43 780.39 617.87 782.64 616.61 785.11 615.71 787.59 616.64 787.93 616.63 788.02 615.65 787.81 615.05 792.7 615.27 796.78 616.07 801.14 617.44 805.69 617.51 808.01 617.87 812.41 618.71 816.32 618.7 816.32 620.05 821.38 620.38 821.3 620.38 821.31 620.06 821.4 621.87 826.57 624.03 830.94 626.74 835.26 629.92 839.43 633.51 843.34 635.43 845.18 639.48 848.58 643.74 851.54 648.11 853.98 652.5 855.86 655.44 856.79 655.58 856.32 655.59 856.33 655.47 856.8 661.93 858.53 661.94 858.48 664.84 859.21 669.01 859.8 673.04 859.94 676.87 859.56 680.46 858.71 683.76 857.36 685.26 856.43 690.2 856.03 694.65 855.01 698.78 853.38 702.45 851.17 705.23 848.79 706.56 847.5 706.54 847.49 706.74 847.31 709.35 844.14 711.38 840.62 712.25 838.35 714.84 837.32 718.51 835.11 721.29 832.73 722.62 831.44 722.6 831.42 722.8 831.25 725.41 828.09 727.43 824.56 728.31 822.29 730.9 821.26 734.57 819.05 737.35 816.67 738.68 815.38 738.66 815.36 738.86 815.19 741.47 812.02 743.5 808.5 744.37 806.23 746.96 805.2 750.63 802.99 753.41 800.61 754.74 799.32 754.72 799.3 754.92 799.13 757.53 795.96 759.56 792.44 760.43 790.16 763.02 789.14 766.69 786.93 769.47 784.55 770.8 783.26 770.78 783.24 770.98 783.07 773.59 779.9 775.62 776.38 776.27 774.68 778.51 775.11 784.12 775.73 789.48 775.7 794.5 775 799.15 773.63 803.34 771.61 805.25 770.34 808.16 767.87 807.03 766.66 808.2 767.83 815.61 760.42" style="fill: #e4e4e4;"/>
    <path d="M752.29,713.8l17.63-13.29M763.05,724.56l13.29-17.63M743.52,711.45l8.35-11.08M765.4,733.33l11.08-8.35M621.65,820.96l.21.75.68,2.07.83,2.1.97,2.11,1.11,2.11,1.25,2.11,1.37,2.08,1.49,2.04,1.6,2,1.7,1.94,1.79,1.87,1.87,1.79,1.94,1.7,2,1.6,2.05,1.49,2.08,1.38,2.1,1.25,2.11,1.12,2.11.98,2.1.83,2.08.69.8.22M752.52,685.28l10.5-10.5M791.57,724.33l10.5-10.5M619.25,805.88v.1s-.08,1.97-.08,1.97l.09,2.05.24,2.12.41,2.18.56,2.23.72,2.27.87,2.29,1.02,2.31,1.16,2.32,1.3,2.31,1.43,2.29,1.55,2.27,1.67,2.23,1.78,2.18,1.88,2.12,1.97,2.04,2.05,1.96,2.12,1.87M768.78,727.02l-5.47-1.46M751.29,713.54l-1.46-5.47M617.27,788.15l.9-2.48,1.17-2.27,1.45-2.06,1.22-1.35M704.16,847.54l-2.78,2.38-3.45,2.05-3.87,1.51-4.22.94-4.48.38-4.65-.18-4.72-.7-4.85-1.19-5.06-1.7-5.18-2.2-5.2-2.69-5.12-3.12-4.95-3.5-4.67-3.81-4.32-4.03-3.91-4.17-3.5-4.27-3.2-4.45-2.83-4.57-2.38-4.6-1.87-4.55-1.32-4.4-.75-4.17-.19-3.87.36-3.5.2-.96M720.22,831.48l-2.78,2.38-3.45,2.04-3.87,1.51-4.22.94-4.48.38-4.65-.18-4.72-.7-4.85-1.19-5.06-1.7-5.18-2.2-5.2-2.69-5.12-3.12-4.95-3.5-4.67-3.81-4.32-4.03-3.91-4.17-3.5-4.27-3.2-4.45-2.82-4.57-2.38-4.6-1.87-4.55-1.32-4.4-.75-4.17-.19-3.87.36-3.5.86-3.11,1.36-2.77,1.86-2.39.12-.1M736.28,815.42l-2.78,2.38-3.45,2.04-3.87,1.51-4.22.94-4.48.38-4.65-.18-4.72-.7-4.85-1.19-5.06-1.7-5.18-2.2-5.2-2.68-5.12-3.12-4.95-3.5-4.67-3.81-4.32-4.04-3.91-4.17-3.5-4.27-3.2-4.45-2.82-4.57-2.38-4.6-1.87-4.55-1.32-4.4-.75-4.17-.19-3.87.36-3.5.86-3.11,1.36-2.77,1.86-2.39.12-.1M752.34,799.35l-2.78,2.38-3.45,2.04-3.87,1.51-4.22.94-4.48.38-4.65-.18-4.71-.7-4.85-1.19-5.06-1.7-5.18-2.2-5.2-2.69-5.12-3.12-4.95-3.51-4.67-3.81-4.32-4.04-3.91-4.17-3.5-4.27-3.2-4.45-2.82-4.57-2.38-4.6-1.87-4.55-1.32-4.4-.76-4.17-.19-3.87.36-3.5.86-3.11,1.36-2.77,1.86-2.39.12-.1M768.4,783.29l-2.78,2.38-3.45,2.04-3.87,1.51-4.22.95-4.48.37-4.65-.18-4.71-.7-4.85-1.19-5.06-1.7-5.18-2.2-5.2-2.69-5.12-3.12-4.95-3.5-4.67-3.81-4.32-4.04-3.91-4.17-3.5-4.27-3.2-4.45-2.82-4.57-2.38-4.6-1.87-4.55-1.32-4.4-.75-4.17-.19-3.87.36-3.5.86-3.11,1.36-2.77,1.86-2.39.12-.1M775.32,772.79l-.95.37-4.22.94-4.48.37-4.65-.18-4.71-.7-4.85-1.19-5.06-1.7-5.18-2.2-5.2-2.68-5.12-3.12-4.95-3.51-4.67-3.81-4.32-4.03-3.91-4.17-3.5-4.27-3.2-4.45-2.82-4.57-2.38-4.6-1.87-4.55-1.32-4.4-.75-4.17-.19-3.87.36-3.5.86-3.11,1.36-2.77,1.86-2.39.12-.1M684.8,854.77l-1.91,1.19-3.04,1.22-3.35.78-3.6.33-3.82-.13-4-.59-4.1-1.03-4.17-1.47-4.22-1.89-4.17-2.27-4.3-2.79-4.13-3.14M626.69,776.6l3.35-.89,2.83-.27M710.96,837.08l-1.13,2.95-1.91,3.29-2.45,2.94-2.98,2.52-3.46,2.03-3.89,1.49-4.23.92-4.49.35-4.65-.2-4.72-.72-4.85-1.21-5.06-1.72-5.18-2.22-5.2-2.7-5.12-3.14-4.94-3.52-4.66-3.82-4.31-4.04-3.9-4.18-3.49-4.27-3.18-4.45-2.81-4.57-2.36-4.6-1.85-4.54-1.3-4.4-.73-4.16-.17-3.86.38-3.49.88-3.1,1.38-2.76,1.88-2.37,2.38-1.92,1.85-1M727.02,821.02l-1.13,2.95-1.91,3.29-2.45,2.94-2.98,2.52-3.46,2.03-3.89,1.49-4.23.92-4.49.35-4.65-.2-4.72-.72-4.85-1.21-5.06-1.71-5.18-2.22-5.2-2.7-5.12-3.14-4.94-3.52-4.66-3.82-4.31-4.05-3.9-4.18-3.48-4.27-3.18-4.46-2.81-4.57-2.36-4.6-1.85-4.54-1.3-4.4-.73-4.16-.17-3.86.38-3.49.88-3.1,1.38-2.76,1.88-2.37,2.38-1.92,2.85-1.42,3.27-.87,1.94-.17M743.09,804.96l-1.13,2.94-1.91,3.29-2.45,2.94-2.98,2.52-3.46,2.03-3.89,1.49-4.23.92-4.49.35-4.66-.2-4.72-.72-4.85-1.21-5.06-1.72-5.18-2.22-5.2-2.7-5.12-3.14-4.94-3.52-4.66-3.82-4.31-4.04-3.9-4.18-3.49-4.27-3.18-4.46-2.81-4.57-2.36-4.6-1.85-4.54-1.3-4.39-.73-4.16-.17-3.86.38-3.49.88-3.1,1.38-2.76,1.89-2.37,2.38-1.92,2.85-1.42,3.27-.87,1.94-.17M759.15,788.9l-1.14,2.95-1.91,3.28-2.45,2.94-2.98,2.52-3.46,2.03-3.89,1.49-4.23.92-4.49.35-4.65-.2-4.72-.72-4.85-1.21-5.06-1.71-5.18-2.22-5.2-2.7-5.12-3.14-4.94-3.52-4.66-3.82-4.31-4.05-3.89-4.18-3.48-4.27-3.18-4.46-2.81-4.57-2.36-4.6-1.85-4.54-1.3-4.4-.73-4.16-.16-3.86.38-3.49.88-3.1,1.38-2.76,1.88-2.37,2.38-1.92,2.85-1.42,3.27-.88,1.94-.17M775.21,772.84l-1.14,2.95-1.91,3.29-2.45,2.94-2.98,2.51-3.46,2.03-3.89,1.49-4.23.92-4.5.35-4.65-.2-4.72-.72-4.85-1.21-5.06-1.71-5.18-2.22-5.2-2.7-5.12-3.14-4.94-3.52-4.66-3.82-4.31-4.04-3.9-4.18-3.48-4.27-3.18-4.46-2.81-4.57-2.36-4.6-1.85-4.54-1.3-4.39-.73-4.16-.17-3.85.38-3.49.88-3.1,1.38-2.76,1.89-2.37,2.38-1.92,2.85-1.41,3.27-.88,1.94-.17M773.72,772.35l-2.51.55-4.49.35-4.66-.2-4.72-.72-4.85-1.21-5.06-1.71-5.18-2.22-5.2-2.7-5.12-3.14-4.94-3.52-4.66-3.82-4.31-4.04-3.9-4.18-3.48-4.27-3.18-4.46-2.81-4.57-2.36-4.6-1.85-4.54-1.3-4.4-.73-4.16-.16-3.86.38-3.49.88-3.1,1.38-2.76,1.88-2.37.72-.58M698.28,721.42l-.11.13-1.13,2.41-.61,2.8-.06,3.2.52,3.55,1.12,3.81,1.7,3.98,2.22,4.03,2.67,3.99,3.02,3.84,3.41,3.72,3.86,3.59,2.64,2.16,2.77,2.05,4.33,2.8,4.46,2.42,4.48,1.98,4.39,1.52,4.21,1.06,4.32.62,4.25.07,4.06-.53,2.74-.82M682.21,737.48l-.1.13-1.13,2.41-.61,2.79-.06,3.2.52,3.55,1.12,3.81,1.7,3.98,2.22,4.03,2.67,3.99,3.02,3.84,3.41,3.72,3.86,3.59,2.64,2.16,2.77,2.05,4.34,2.8,4.46,2.42,4.48,1.98,4.39,1.52,4.21,1.05,4.32.62,4.25.07,4.07-.52,2.74-.82M666.15,753.55l-.1.12-1.13,2.41-.62,2.8-.06,3.2.52,3.55,1.12,3.81,1.7,3.98,2.22,4.03,2.67,3.99,3.02,3.84,3.4,3.72,3.86,3.59,2.64,2.16,2.77,2.05,4.34,2.8,4.46,2.42,4.48,1.98,4.39,1.52,4.21,1.05,4.32.61,4.25.07,4.06-.52,2.74-.82M650.09,769.61l-.1.12-1.13,2.41-.61,2.8-.06,3.2.52,3.55,1.12,3.81,1.7,3.98,2.22,4.04,2.67,3.99,3.02,3.84,3.4,3.72,3.86,3.59,2.64,2.16,2.77,2.05,4.34,2.8,4.46,2.42,4.48,1.98,4.39,1.52,4.21,1.05,4.32.62,4.25.07,4.06-.52,2.74-.82M634.03,785.67l-.1.12-1.13,2.41-.62,2.8-.06,3.2.53,3.55,1.12,3.81,1.7,3.98,2.22,4.03,2.67,3.99,3.02,3.84,3.4,3.72,3.86,3.59,2.64,2.16,2.77,2.05,4.33,2.8,4.46,2.42,4.48,1.98,4.39,1.52,4.21,1.05,4.32.62,4.26.07,4.06-.52,2.74-.82M639.98,844.98l4.34,2.8,4.46,2.42,4.48,1.98,4.39,1.52,4.21,1.05,4.32.62,4.25.06,4.06-.52,2.74-.82M710.19,669.82l-.37.38-1.38,1.59-1.24,1.72-1.1,1.85-.95,1.97-.8,2.09-.64,2.19-.49,2.3-.33,2.4-.17,2.49v2.57s.13,2.65.13,2.65l.3,2.72.46,2.78.62,2.83.77,2.87.92,2.91,1.07,2.94,1.22,2.96,1.36,2.97,1.5,2.98,1.64,2.97,1.76,2.96,1.89,2.94,2.01,2.9,2.12,2.87,2.23,2.82,2.33,2.77,2.43,2.71,2.52,2.63,2.6,2.56,2.67,2.48,2.74,2.38,2.8,2.28,2.85,2.18,2.89,2.07,2.92,1.95,2.95,1.83,2.97,1.7,2.97,1.57,2.98,1.43,2.97,1.29,2.95,1.14,2.93,1,2.9.85,2.85.69,2.8.54,2.75.38,2.68.22,2.61.07,2.53-.09,2.44-.25,2.35-.41,2.25-.56,2.14-.72,2.03-.87,1.91-1.02,1.78-1.17,1.66-1.31,1.16-1.08M769.03,746.88l14.34,3.84M762.13,721.14l6.9,25.73M755.71,714.72l.9.31.91.46.9.59.86.7.79.79.7.86.59.9.46.91.31.9M729.98,707.82l25.74,6.9M726.13,693.48l3.85,14.35M751.87,700.37l-25.74-6.9M755.57,696.67l.16.86v.79l-.16.7-.31.59-.46.46-.59.31-.7.16h-.79l-.86-.16M748.68,670.93l6.9,25.74M763.02,674.78l-14.35-3.85M769.92,700.52l-6.9-25.74M776.34,706.93l-.9-.31-.91-.46-.9-.59-.86-.7-.79-.79-.7-.86-.59-.9-.46-.91-.31-.9M802.07,713.83l-25.73-6.9M805.92,728.18l-3.84-14.34M780.18,721.28l25.74,6.9M776.48,724.98l-.16-.86v-.79s.16-.7.16-.7l.31-.59.46-.46.59-.31.7-.16h.79s.86.16.86.16M783.37,750.72l-6.9-25.74M751.55,656.83l-2.85-.69-2.8-.54-2.75-.38-2.68-.22-2.61-.07-2.53.09-2.45.25-2.35.41-2.25.57-2.14.72-2.03.87-1.91,1.02-1.78,1.17-1.66,1.31-1.52,1.45-1.39,1.59-1.24,1.72-1.1,1.85-.95,1.97-.8,2.08-.64,2.2-.49,2.3-.33,2.4-.17,2.49-.02,2.57.15,2.65.31,2.72.46,2.78.62,2.83.77,2.87.92,2.91,1.07,2.94,1.22,2.96,1.36,2.97,1.5,2.98,1.63,2.97,1.76,2.96,1.89,2.94,2.01,2.91,2.12,2.87,2.23,2.82,2.33,2.77,2.43,2.71,2.52,2.63,2.6,2.56,2.67,2.47,2.74,2.38,2.8,2.28,2.85,2.18,2.89,2.07,2.92,1.95,2.95,1.83,2.97,1.7,2.97,1.57,2.98,1.43,2.97,1.29,2.95,1.14,2.93,1,2.9.85,2.85.69,2.8.54,2.75.38,2.68.22,2.61.07,2.53-.09,2.44-.25,2.35-.41,2.25-.56,2.14-.72,2.03-.87,1.91-1.02,1.79-1.17,1.66-1.31,1.52-1.45,1.38-1.59,1.24-1.72,1.1-1.85.95-1.97.8-2.08.64-2.2.49-2.3.33-2.4.17-2.49v-2.57s-.13-2.65-.13-2.65l-.3-2.71-.46-2.78-.62-2.83-.77-2.87-.92-2.91-1.07-2.94-1.22-2.96-1.36-2.97-1.5-2.98-1.63-2.97-1.77-2.96-1.89-2.94-2.01-2.91-2.12-2.87-2.23-2.82-2.33-2.77-2.43-2.7-2.52-2.64-2.6-2.56-2.67-2.47-2.74-2.38-2.8-2.28-2.84-2.18-2.89-2.07-2.92-1.95-2.95-1.83-2.97-1.7-2.98-1.57-2.98-1.43-2.97-1.29-2.95-1.14-2.93-1-2.9-.85M655.89,855.2l6.46,1.73M620.29,815.9l1.36,5.06M747.05,712.4l8.3-12.91M777.36,721.51l-12.91,8.29M702.8,699.18l-.61.62-.62.62M704.16,847.56l.62-.61.62-.62M720.22,831.5l.62-.61.61-.62M736.28,815.44l.62-.61.62-.62M752.34,799.38l.62-.61.61-.62M768.4,783.32l.62-.61.62-.62M622.5,779.48l-.5.5M638.56,763.42l-.62.62-.62.62M654.62,747.36l-.62.62-.61.62M670.68,731.3l-.61.62-.62.62M686.74,715.24l-.62.62-.61.62M807.03,766.66l7.41-7.41M717.61,662.41l-7.41,7.41" style="fill: none; stroke: #040000; stroke-miterlimit: 10;"/>
    <g style="clip-path: url(#clippath-1);">
      <rect x="140" y="607.17" width="891.32" height="298" rx="41.51" ry="41.51" style="fill: none; stroke: #040000; stroke-miterlimit: 10;"/>
    </g>
    <text transform="translate(567.4 2142.34)" style="fill: #221714; font-family: MusticaPro-Medium, &apos;Mustica Pro&apos;; font-size: 40px; font-weight: 500;"><tspan x="0" y="0">13</tspan></text>
  </g>
</svg>