<?xml version="1.0" encoding="UTF-8"?>
<svg id="_圖層_1" data-name="圖層 1" xmlns="http://www.w3.org/2000/svg" xmlns:xlink="http://www.w3.org/1999/xlink" viewBox="0 0 1170 2182.68">
  <defs>
    <clipPath id="clippath">
      <rect y="-174.66" width="1170" height="2532" style="fill: none;"/>
    </clipPath>
  </defs>
  <g style="clip-path: url(#clippath);">
    <rect y="-174.66" width="1170" height="2532" style="fill: #cf391a;"/>
    <polygon points="452.34 1083.9 406.54 1083.9 406.54 1051.18 391.67 1051.18 391.67 1131.5 406.54 1131.5 406.54 1098.77 452.34 1098.77 452.34 1131.5 467.21 1131.5 467.21 1051.18 452.34 1051.18 452.34 1083.9" style="fill: #fff;"/>
    <polygon points="492.73 1131.5 509.9 1131.5 526.52 1102.71 539.1 1080.93 568.29 1131.5 585.47 1131.5 539.1 1051.18 492.73 1131.5" style="fill: #fff;"/>
    <polygon points="643.48 1079.97 630.9 1101.75 601.71 1051.18 584.53 1051.18 630.9 1131.5 677.27 1051.18 660.1 1051.18 643.48 1079.97" style="fill: #fff;"/>
    <polygon points="763.46 1051.18 763.46 1090.46 763.46 1100.31 702.78 1051.18 702.78 1067.89 702.78 1070.32 702.78 1094.81 702.78 1131.5 717.66 1131.5 717.66 1094.81 717.66 1082.36 778.33 1131.5 778.33 1117.38 778.33 1112.36 778.33 1090.46 778.33 1051.18 763.46 1051.18" style="fill: #fff;"/>
    <g>
      <path d="M159.5,1920.51c0,5.1-4.15,9.25-9.25,9.25s-9.25-4.15-9.25-9.25,4.15-9.25,9.25-9.25,9.25,4.15,9.25,9.25ZM142.55,1920.51c0,4.25,3.45,7.7,7.7,7.7s7.7-3.45,7.7-7.7-3.45-7.7-7.7-7.7-7.7,3.45-7.7,7.7ZM154.22,1916.81l-1.2,1.17c-.7-.75-1.67-1.22-2.77-1.22-2.07,0-3.75,1.67-3.75,3.75s1.67,3.75,3.75,3.75c1.1,0,2.08-.47,2.77-1.22l1.2,1.17c-.97,1.08-2.4,1.72-3.97,1.72-3,0-5.42-2.42-5.42-5.42s2.42-5.42,5.42-5.42c1.58,0,3,.65,3.97,1.72Z" style="fill: #fff;"/>
      <path d="M164.75,1911.51v7.5h9.9v-7.5h2v18h-2v-8.5h-9.9v8.5h-2v-18h2Z" style="fill: #fff;"/>
      <path d="M186.05,1911.51h2.12l7.15,18h-2.15l-1.72-4.37h-8.65l-1.75,4.37h-2.15l7.15-18ZM187.12,1914.23l-3.55,8.9h7.07l-3.52-8.9Z" style="fill: #fff;"/>
      <path d="M196.38,1911.51l5.8,14.92,5.77-14.92h2.15l-6.97,18h-1.92l-6.97-18h2.15Z" style="fill: #fff;"/>
      <path d="M214.17,1911.51l9.97,14.37v-14.37h2v18h-1.92l-9.97-14.37v14.37h-2v-18h1.92Z" style="fill: #fff;"/>
      <path d="M238.07,1911.51h6.62c5.17,0,8.85,3.75,8.85,9s-3.67,9-8.85,9h-6.62v-18ZM240.07,1913.51v14h4.62c4.05,0,6.85-2.85,6.85-7s-2.8-7-6.85-7h-4.62Z" style="fill: #fff;"/>
      <path d="M261.9,1916.76c3.55,0,5.97,2.65,5.97,6.5,0,.37-.05.8-.07,1.17h-10.1c.5,2,2.2,3.3,4.55,3.3,1.35,0,2.67-.45,3.55-1.42l1.42,1.42c-1.3,1.4-3.1,2.02-4.92,2.02-3.92,0-6.75-2.75-6.75-6.5s2.7-6.5,6.35-6.5ZM265.8,1922.43c-.27-2.22-1.77-3.67-3.9-3.67s-3.92,1.52-4.27,3.67h8.17Z" style="fill: #fff;"/>
      <path d="M279.35,1918.78l-1.42,1.42c-1.02-1.02-2.15-1.42-3.55-1.42-1.53,0-2.42.65-2.42,1.4,0,.95,1.62,1.35,3.12,1.77,2.05.57,4.55,1.37,4.55,4.1,0,2.12-2.12,3.7-5,3.7-1.92,0-3.67-.7-5-2.02l1.42-1.42c.87.9,2.15,1.45,3.62,1.45,1.62,0,2.95-.75,2.95-1.7,0-1.42-2.17-1.87-3.22-2.2-1.92-.58-4.47-1.17-4.47-3.62,0-2.1,1.9-3.47,4.47-3.47,1.95,0,3.8.8,4.95,2.02Z" style="fill: #fff;"/>
      <path d="M284.4,1912.53c0,.7-.58,1.25-1.28,1.25s-1.27-.55-1.27-1.25.58-1.27,1.27-1.27,1.28.57,1.28,1.27ZM284.12,1917.01v12.5h-2v-12.5h2Z" style="fill: #fff;"/>
      <path d="M297.87,1919.11v-2.1h2v12.25c0,3.72-2.52,6-6.67,6-1.97,0-4.05-.67-5.52-2.03l1.42-1.42c1.05.92,2.7,1.45,4.2,1.45,2.85,0,4.57-1.45,4.57-3.85v-2c-.85,1.22-2.6,2.35-4.5,2.35-3.57,0-6.5-2.92-6.5-6.5s2.92-6.5,6.5-6.5c1.9,0,3.65,1.12,4.5,2.35ZM288.87,1923.26c0,2.47,2.02,4.5,4.5,4.5s4.5-2.02,4.5-4.5-2.02-4.5-4.5-4.5-4.5,2.02-4.5,4.5Z" style="fill: #fff;"/>
      <path d="M305.37,1917.01v1.7c.92-1.08,2.32-1.95,4.05-1.95,2.97,0,4.95,2,4.95,5.32v7.42h-2v-7.32c0-2.65-1.32-3.7-3.22-3.7-2.08,0-3.77,1.5-3.77,3.92v7.1h-2v-12.5h2Z" style="fill: #fff;"/>
      <path d="M317.62,1927.4h2.25l-1.12,6.2h-1.62l.5-6.2Z" style="fill: #fff;"/>
      <path d="M340.54,1919.11v-2.1h2v12.5h-2v-2.1c-.85,1.22-2.6,2.35-4.5,2.35-3.57,0-6.5-2.92-6.5-6.5s2.92-6.5,6.5-6.5c1.9,0,3.65,1.12,4.5,2.35ZM331.55,1923.26c0,2.47,2.02,4.5,4.5,4.5s4.5-2.02,4.5-4.5-2.02-4.5-4.5-4.5-4.5,2.02-4.5,4.5Z" style="fill: #fff;"/>
      <path d="M348.05,1929.5h-2v-18.75h2v18.75Z" style="fill: #fff;"/>
      <path d="M353.55,1929.5h-2v-18.75h2v18.75Z" style="fill: #fff;"/>
      <path d="M366.47,1917.01v1.82c.8-1.12,2.12-2.07,4.05-2.07v1.72c-2.25,0-4.05,1.58-4.05,3.92v7.1h-2v-12.5h2Z" style="fill: #fff;"/>
      <path d="M375.05,1912.53c0,.7-.58,1.25-1.28,1.25s-1.27-.55-1.27-1.25.58-1.27,1.27-1.27,1.28.57,1.28,1.27ZM374.77,1917.01v12.5h-2v-12.5h2Z" style="fill: #fff;"/>
      <path d="M388.52,1919.11v-2.1h2v12.25c0,3.72-2.52,6-6.67,6-1.97,0-4.05-.67-5.52-2.03l1.42-1.42c1.05.92,2.7,1.45,4.2,1.45,2.85,0,4.57-1.45,4.57-3.85v-2c-.85,1.22-2.6,2.35-4.5,2.35-3.57,0-6.5-2.92-6.5-6.5s2.92-6.5,6.5-6.5c1.9,0,3.65,1.12,4.5,2.35ZM379.52,1923.26c0,2.47,2.02,4.5,4.5,4.5s4.5-2.02,4.5-4.5-2.02-4.5-4.5-4.5-4.5,2.02-4.5,4.5Z" style="fill: #fff;"/>
      <path d="M396.02,1911.51v7.2c.92-1.08,2.32-1.95,4.05-1.95,2.97,0,4.95,2,4.95,5.32v7.42h-2v-7.32c0-2.65-1.32-3.7-3.22-3.7-2.08,0-3.77,1.5-3.77,3.92v7.1h-2v-18h2Z" style="fill: #fff;"/>
      <path d="M411.77,1913.66v3.35h3.52v2h-3.52v6.32c0,1.92.35,2.42,1.7,2.42.7,0,1.2-.07,1.82-.17v1.92c-.55.15-1.2.25-1.95.25-2.6,0-3.57-1.2-3.57-4.35v-6.4h-2.5v-2h1.7c.48,0,.8-.33.8-.77v-2.57h2Z" style="fill: #fff;"/>
      <path d="M426.77,1918.78l-1.42,1.42c-1.02-1.02-2.15-1.42-3.55-1.42-1.53,0-2.42.65-2.42,1.4,0,.95,1.62,1.35,3.12,1.77,2.05.57,4.55,1.37,4.55,4.1,0,2.12-2.12,3.7-5,3.7-1.92,0-3.67-.7-5-2.02l1.42-1.42c.87.9,2.15,1.45,3.62,1.45,1.62,0,2.95-.75,2.95-1.7,0-1.42-2.17-1.87-3.22-2.2-1.92-.58-4.47-1.17-4.47-3.62,0-2.1,1.9-3.47,4.47-3.47,1.95,0,3.8.8,4.95,2.02Z" style="fill: #fff;"/>
      <path d="M438.97,1917.01v1.82c.8-1.12,2.12-2.07,4.05-2.07v1.72c-2.25,0-4.05,1.58-4.05,3.92v7.1h-2v-12.5h2Z" style="fill: #fff;"/>
      <path d="M450.12,1916.76c3.55,0,5.97,2.65,5.97,6.5,0,.37-.05.8-.07,1.17h-10.1c.5,2,2.2,3.3,4.55,3.3,1.35,0,2.67-.45,3.55-1.42l1.42,1.42c-1.3,1.4-3.1,2.02-4.92,2.02-3.92,0-6.75-2.75-6.75-6.5s2.7-6.5,6.35-6.5ZM454.02,1922.43c-.27-2.22-1.77-3.67-3.9-3.67s-3.92,1.52-4.27,3.67h8.17Z" style="fill: #fff;"/>
      <path d="M467.57,1918.78l-1.42,1.42c-1.02-1.02-2.15-1.42-3.55-1.42-1.53,0-2.42.65-2.42,1.4,0,.95,1.62,1.35,3.12,1.77,2.05.57,4.55,1.37,4.55,4.1,0,2.12-2.12,3.7-5,3.7-1.92,0-3.67-.7-5-2.02l1.42-1.42c.87.9,2.15,1.45,3.62,1.45,1.62,0,2.95-.75,2.95-1.7,0-1.42-2.17-1.87-3.22-2.2-1.92-.58-4.47-1.17-4.47-3.62,0-2.1,1.9-3.47,4.47-3.47,1.95,0,3.8.8,4.95,2.02Z" style="fill: #fff;"/>
      <path d="M475.94,1916.76c3.55,0,5.97,2.65,5.97,6.5,0,.37-.05.8-.07,1.17h-10.1c.5,2,2.2,3.3,4.55,3.3,1.35,0,2.67-.45,3.55-1.42l1.42,1.42c-1.3,1.4-3.1,2.02-4.92,2.02-3.92,0-6.75-2.75-6.75-6.5s2.7-6.5,6.35-6.5ZM479.84,1922.43c-.27-2.22-1.77-3.67-3.9-3.67s-3.92,1.52-4.27,3.67h8.17Z" style="fill: #fff;"/>
      <path d="M486.67,1917.01v1.82c.8-1.12,2.12-2.07,4.05-2.07v1.72c-2.25,0-4.05,1.58-4.05,3.92v7.1h-2v-12.5h2Z" style="fill: #fff;"/>
      <path d="M493.64,1917.01l4.3,10.02,4.3-10.02h2.17l-5.35,12.5h-2.22l-5.37-12.5h2.17Z" style="fill: #fff;"/>
      <path d="M511.77,1916.76c3.55,0,5.97,2.65,5.97,6.5,0,.37-.05.8-.07,1.17h-10.1c.5,2,2.2,3.3,4.55,3.3,1.35,0,2.67-.45,3.55-1.42l1.42,1.42c-1.3,1.4-3.1,2.02-4.92,2.02-3.92,0-6.75-2.75-6.75-6.5s2.7-6.5,6.35-6.5ZM515.67,1922.43c-.27-2.22-1.77-3.67-3.9-3.67s-3.92,1.52-4.27,3.67h8.17Z" style="fill: #fff;"/>
      <path d="M530.74,1919.11v-7.6h2v18h-2v-2.1c-.85,1.22-2.6,2.35-4.5,2.35-3.57,0-6.5-2.92-6.5-6.5s2.92-6.5,6.5-6.5c1.9,0,3.65,1.12,4.5,2.35ZM521.74,1923.26c0,2.47,2.02,4.5,4.5,4.5s4.5-2.02,4.5-4.5-2.02-4.5-4.5-4.5-4.5,2.02-4.5,4.5Z" style="fill: #fff;"/>
      <path d="M538.82,1928.36c0,.77-.62,1.4-1.42,1.4s-1.4-.62-1.4-1.4.62-1.42,1.4-1.42,1.42.62,1.42,1.42Z" style="fill: #fff;"/>
      <path d="M564.76,1914.21l-1.42,1.42c-1.32-1.45-3.22-2.37-5.35-2.37-4,0-7.25,3.25-7.25,7.25s3.25,7.25,7.25,7.25c2.12,0,4.02-.92,5.35-2.37l1.42,1.42c-1.7,1.82-4.1,2.95-6.77,2.95-5.1,0-9.25-4.15-9.25-9.25s4.15-9.25,9.25-9.25c2.67,0,5.07,1.12,6.77,2.95Z" style="fill: #fff;"/>
      <path d="M572.92,1916.76c3.57,0,6.5,2.92,6.5,6.5s-2.92,6.5-6.5,6.5-6.5-2.9-6.5-6.5,2.92-6.5,6.5-6.5ZM572.92,1927.75c2.47,0,4.5-2.02,4.5-4.5s-2.02-4.47-4.5-4.47-4.5,2-4.47,4.47c0,2.47,2,4.5,4.47,4.5Z" style="fill: #fff;"/>
      <path d="M584.17,1917.01v1.7c.92-1.08,2.32-1.95,4.05-1.95,2.97,0,4.95,2,4.95,5.32v7.42h-2v-7.32c0-2.65-1.32-3.7-3.22-3.7-2.08,0-3.77,1.5-3.77,3.92v7.1h-2v-12.5h2Z" style="fill: #fff;"/>
      <path d="M599.92,1913.66v3.35h3.52v2h-3.52v6.32c0,1.92.35,2.42,1.7,2.42.7,0,1.2-.07,1.82-.17v1.92c-.55.15-1.2.25-1.95.25-2.6,0-3.57-1.2-3.57-4.35v-6.4h-2.5v-2h1.7c.48,0,.8-.33.8-.77v-2.57h2Z" style="fill: #fff;"/>
      <path d="M611.54,1916.76c3.55,0,5.97,2.65,5.97,6.5,0,.37-.05.8-.07,1.17h-10.1c.5,2,2.2,3.3,4.55,3.3,1.35,0,2.67-.45,3.55-1.42l1.42,1.42c-1.3,1.4-3.1,2.02-4.92,2.02-3.92,0-6.75-2.75-6.75-6.5s2.7-6.5,6.35-6.5ZM615.44,1922.43c-.27-2.22-1.77-3.67-3.9-3.67s-3.92,1.52-4.27,3.67h8.17Z" style="fill: #fff;"/>
      <path d="M622.27,1917.01v1.7c.92-1.08,2.32-1.95,4.05-1.95,2.97,0,4.95,2,4.95,5.32v7.42h-2v-7.32c0-2.65-1.32-3.7-3.22-3.7-2.08,0-3.77,1.5-3.77,3.92v7.1h-2v-12.5h2Z" style="fill: #fff;"/>
      <path d="M638.02,1913.66v3.35h3.52v2h-3.52v6.32c0,1.92.35,2.42,1.7,2.42.7,0,1.2-.07,1.82-.17v1.92c-.55.15-1.2.25-1.95.25-2.6,0-3.57-1.2-3.57-4.35v-6.4h-2.5v-2h1.7c.48,0,.8-.33.8-.77v-2.57h2Z" style="fill: #fff;"/>
      <path d="M653.01,1918.78l-1.42,1.42c-1.02-1.02-2.15-1.42-3.55-1.42-1.53,0-2.42.65-2.42,1.4,0,.95,1.62,1.35,3.12,1.77,2.05.57,4.55,1.37,4.55,4.1,0,2.12-2.12,3.7-5,3.7-1.92,0-3.67-.7-5-2.02l1.42-1.42c.87.9,2.15,1.45,3.62,1.45,1.62,0,2.95-.75,2.95-1.7,0-1.42-2.17-1.87-3.22-2.2-1.92-.58-4.47-1.17-4.47-3.62,0-2.1,1.9-3.47,4.47-3.47,1.95,0,3.8.8,4.95,2.02Z" style="fill: #fff;"/>
      <path d="M673.46,1919.11v-2.1h2v12.5h-2v-2.1c-.85,1.22-2.6,2.35-4.5,2.35-3.57,0-6.5-2.92-6.5-6.5s2.92-6.5,6.5-6.5c1.9,0,3.65,1.12,4.5,2.35ZM664.46,1923.26c0,2.47,2.02,4.5,4.5,4.5s4.5-2.02,4.5-4.5-2.02-4.5-4.5-4.5-4.5,2.02-4.5,4.5Z" style="fill: #fff;"/>
      <path d="M680.96,1917.01v1.7c.92-1.08,2.32-1.95,4.05-1.95,2.97,0,4.95,2,4.95,5.32v7.42h-2v-7.32c0-2.65-1.32-3.7-3.22-3.7-2.08,0-3.77,1.5-3.77,3.92v7.1h-2v-12.5h2Z" style="fill: #fff;"/>
      <path d="M703.71,1919.11v-7.6h2v18h-2v-2.1c-.85,1.22-2.6,2.35-4.5,2.35-3.57,0-6.5-2.92-6.5-6.5s2.92-6.5,6.5-6.5c1.9,0,3.65,1.12,4.5,2.35ZM694.71,1923.26c0,2.47,2.02,4.5,4.5,4.5s4.5-2.02,4.5-4.5-2.02-4.5-4.5-4.5-4.5,2.02-4.5,4.5Z" style="fill: #fff;"/>
      <path d="M725.36,1918.78l-1.42,1.42c-1.02-1.02-2.15-1.42-3.55-1.42-1.53,0-2.42.65-2.42,1.4,0,.95,1.62,1.35,3.12,1.77,2.05.57,4.55,1.37,4.55,4.1,0,2.12-2.12,3.7-5,3.7-1.92,0-3.67-.7-5-2.02l1.42-1.42c.87.9,2.15,1.45,3.62,1.45,1.62,0,2.95-.75,2.95-1.7,0-1.42-2.17-1.87-3.22-2.2-1.92-.58-4.47-1.17-4.47-3.62,0-2.1,1.9-3.47,4.47-3.47,1.95,0,3.8.8,4.95,2.02Z" style="fill: #fff;"/>
      <path d="M741.14,1923.26c0,3.57-2.92,6.5-6.5,6.5-1.9,0-3.65-1.12-4.5-2.35v8.35h-2v-18.75h2v2.1c.85-1.22,2.6-2.35,4.5-2.35,3.57,0,6.5,2.92,6.5,6.5ZM730.14,1923.26c0,2.47,2.02,4.5,4.5,4.5s4.5-2.02,4.5-4.5-2.02-4.5-4.5-4.5-4.5,2.02-4.5,4.5Z" style="fill: #fff;"/>
      <path d="M749.49,1916.76c3.55,0,5.97,2.65,5.97,6.5,0,.37-.05.8-.07,1.17h-10.1c.5,2,2.2,3.3,4.55,3.3,1.35,0,2.67-.45,3.55-1.42l1.42,1.42c-1.3,1.4-3.1,2.02-4.92,2.02-3.92,0-6.75-2.75-6.75-6.5s2.7-6.5,6.35-6.5ZM753.39,1922.43c-.27-2.22-1.77-3.67-3.9-3.67s-3.92,1.52-4.27,3.67h8.17Z" style="fill: #fff;"/>
      <path d="M763.96,1916.76c1.85,0,3.52.78,4.7,2.02l-1.42,1.42c-.8-.88-1.97-1.42-3.27-1.42-2.47,0-4.5,2-4.47,4.47,0,2.47,2,4.5,4.47,4.5,1.3,0,2.47-.57,3.27-1.45l1.42,1.42c-1.17,1.25-2.85,2.02-4.7,2.02-3.57,0-6.5-2.9-6.5-6.5s2.92-6.5,6.5-6.5Z" style="fill: #fff;"/>
      <path d="M773.44,1912.53c0,.7-.58,1.25-1.28,1.25s-1.27-.55-1.27-1.25.58-1.27,1.27-1.27,1.28.57,1.28,1.27ZM773.16,1917.01v12.5h-2v-12.5h2Z" style="fill: #fff;"/>
      <path d="M787.74,1917.01v12.5h-2v-10.5h-5.82v10.5h-2v-10.5h-2.5v-2h2.5v-.67c0-3.6,1.92-5.07,5-5.07h.83v2h-.83c-1.88,0-3,.6-3,3.07v.67h7.82ZM788.01,1912.53c-.02.7-.58,1.25-1.27,1.25-.7.02-1.27-.55-1.27-1.25.02-.7.57-1.27,1.27-1.27s1.27.57,1.27,1.27Z" style="fill: #fff;"/>
      <path d="M796.99,1916.76c1.85,0,3.52.78,4.7,2.02l-1.42,1.42c-.8-.88-1.97-1.42-3.27-1.42-2.47,0-4.5,2-4.47,4.47,0,2.47,2,4.5,4.47,4.5,1.3,0,2.47-.57,3.27-1.45l1.42,1.42c-1.17,1.25-2.85,2.02-4.7,2.02-3.57,0-6.5-2.9-6.5-6.5s2.92-6.5,6.5-6.5Z" style="fill: #fff;"/>
      <path d="M814.44,1919.11v-2.1h2v12.5h-2v-2.1c-.85,1.22-2.6,2.35-4.5,2.35-3.57,0-6.5-2.92-6.5-6.5s2.92-6.5,6.5-6.5c1.9,0,3.65,1.12,4.5,2.35ZM805.44,1923.26c0,2.47,2.02,4.5,4.5,4.5s4.5-2.02,4.5-4.5-2.02-4.5-4.5-4.5-4.5,2.02-4.5,4.5Z" style="fill: #fff;"/>
      <path d="M823.19,1913.66v3.35h3.52v2h-3.52v6.32c0,1.92.35,2.42,1.7,2.42.7,0,1.2-.07,1.82-.17v1.92c-.55.15-1.2.25-1.95.25-2.6,0-3.57-1.2-3.57-4.35v-6.4h-2.5v-2h1.7c.48,0,.8-.33.8-.77v-2.57h2Z" style="fill: #fff;"/>
      <path d="M831.74,1912.53c0,.7-.58,1.25-1.28,1.25s-1.27-.55-1.27-1.25.58-1.27,1.27-1.27,1.28.57,1.28,1.27ZM831.46,1917.01v12.5h-2v-12.5h2Z" style="fill: #fff;"/>
      <path d="M840.71,1916.76c3.57,0,6.5,2.92,6.5,6.5s-2.92,6.5-6.5,6.5-6.5-2.9-6.5-6.5,2.92-6.5,6.5-6.5ZM840.71,1927.75c2.47,0,4.5-2.02,4.5-4.5s-2.02-4.47-4.5-4.47-4.5,2-4.47,4.47c0,2.47,2,4.5,4.47,4.5Z" style="fill: #fff;"/>
      <path d="M851.96,1917.01v1.7c.92-1.08,2.32-1.95,4.05-1.95,2.97,0,4.95,2,4.95,5.32v7.42h-2v-7.32c0-2.65-1.32-3.7-3.22-3.7-2.08,0-3.77,1.5-3.77,3.92v7.1h-2v-12.5h2Z" style="fill: #fff;"/>
      <path d="M873.18,1918.78l-1.42,1.42c-1.02-1.02-2.15-1.42-3.55-1.42-1.53,0-2.42.65-2.42,1.4,0,.95,1.62,1.35,3.12,1.77,2.05.57,4.55,1.37,4.55,4.1,0,2.12-2.12,3.7-5,3.7-1.92,0-3.67-.7-5-2.02l1.42-1.42c.87.9,2.15,1.45,3.62,1.45,1.62,0,2.95-.75,2.95-1.7,0-1.42-2.17-1.87-3.22-2.2-1.92-.58-4.47-1.17-4.47-3.62,0-2.1,1.9-3.47,4.47-3.47,1.95,0,3.8.8,4.95,2.02Z" style="fill: #fff;"/>
      <path d="M893.63,1919.11v-2.1h2v12.5h-2v-2.1c-.85,1.22-2.6,2.35-4.5,2.35-3.57,0-6.5-2.92-6.5-6.5s2.92-6.5,6.5-6.5c1.9,0,3.65,1.12,4.5,2.35ZM884.64,1923.26c0,2.47,2.02,4.5,4.5,4.5s4.5-2.02,4.5-4.5-2.02-4.5-4.5-4.5-4.5,2.02-4.5,4.5Z" style="fill: #fff;"/>
      <path d="M907.86,1918.78l-1.42,1.42c-1.02-1.02-2.15-1.42-3.55-1.42-1.53,0-2.42.65-2.42,1.4,0,.95,1.62,1.35,3.12,1.77,2.05.57,4.55,1.37,4.55,4.1,0,2.12-2.12,3.7-5,3.7-1.92,0-3.67-.7-5-2.02l1.42-1.42c.87.9,2.15,1.45,3.62,1.45,1.62,0,2.95-.75,2.95-1.7,0-1.42-2.17-1.87-3.22-2.2-1.92-.58-4.47-1.17-4.47-3.62,0-2.1,1.9-3.47,4.47-3.47,1.95,0,3.8.8,4.95,2.02Z" style="fill: #fff;"/>
      <path d="M928.31,1919.11v-7.6h2v18h-2v-2.1c-.85,1.22-2.6,2.35-4.5,2.35-3.57,0-6.5-2.92-6.5-6.5s2.92-6.5,6.5-6.5c1.9,0,3.65,1.12,4.5,2.35ZM919.31,1923.26c0,2.47,2.02,4.5,4.5,4.5s4.5-2.02,4.5-4.5-2.02-4.5-4.5-4.5-4.5,2.02-4.5,4.5Z" style="fill: #fff;"/>
      <path d="M939.41,1916.76c3.55,0,5.97,2.65,5.97,6.5,0,.37-.05.8-.07,1.17h-10.1c.5,2,2.2,3.3,4.55,3.3,1.35,0,2.67-.45,3.55-1.42l1.42,1.42c-1.3,1.4-3.1,2.02-4.92,2.02-3.92,0-6.75-2.75-6.75-6.5s2.7-6.5,6.35-6.5ZM943.31,1922.43c-.27-2.22-1.77-3.67-3.9-3.67s-3.92,1.52-4.27,3.67h8.17Z" style="fill: #fff;"/>
      <path d="M956.86,1918.78l-1.42,1.42c-1.02-1.02-2.15-1.42-3.55-1.42-1.53,0-2.42.65-2.42,1.4,0,.95,1.62,1.35,3.12,1.77,2.05.57,4.55,1.37,4.55,4.1,0,2.12-2.12,3.7-5,3.7-1.92,0-3.67-.7-5-2.02l1.42-1.42c.87.9,2.15,1.45,3.62,1.45,1.62,0,2.95-.75,2.95-1.7,0-1.42-2.17-1.87-3.22-2.2-1.92-.58-4.47-1.17-4.47-3.62,0-2.1,1.9-3.47,4.47-3.47,1.95,0,3.8.8,4.95,2.02Z" style="fill: #fff;"/>
      <path d="M965.38,1916.76c1.85,0,3.52.78,4.7,2.02l-1.42,1.42c-.8-.88-1.97-1.42-3.27-1.42-2.47,0-4.5,2-4.47,4.47,0,2.47,2,4.5,4.47,4.5,1.3,0,2.47-.57,3.27-1.45l1.42,1.42c-1.17,1.25-2.85,2.02-4.7,2.02-3.57,0-6.5-2.9-6.5-6.5s2.92-6.5,6.5-6.5Z" style="fill: #fff;"/>
      <path d="M974.58,1917.01v1.82c.8-1.12,2.12-2.07,4.05-2.07v1.72c-2.25,0-4.05,1.58-4.05,3.92v7.1h-2v-12.5h2Z" style="fill: #fff;"/>
      <path d="M983.16,1912.53c0,.7-.58,1.25-1.28,1.25s-1.27-.55-1.27-1.25.58-1.27,1.27-1.27,1.28.57,1.28,1.27ZM982.88,1917.01v12.5h-2v-12.5h2Z" style="fill: #fff;"/>
      <path d="M999.38,1923.26c0,3.57-2.92,6.5-6.5,6.5-1.9,0-3.65-1.12-4.5-2.35v2.1h-2v-18h2v7.6c.85-1.22,2.6-2.35,4.5-2.35,3.57,0,6.5,2.92,6.5,6.5ZM988.38,1923.26c0,2.47,2.02,4.5,4.5,4.5s4.5-2.02,4.5-4.5-2.02-4.5-4.5-4.5-4.5,2.02-4.5,4.5Z" style="fill: #fff;"/>
      <path d="M1007.73,1916.76c3.55,0,5.97,2.65,5.97,6.5,0,.37-.05.8-.07,1.17h-10.1c.5,2,2.2,3.3,4.55,3.3,1.35,0,2.67-.45,3.55-1.42l1.42,1.42c-1.3,1.4-3.1,2.02-4.92,2.02-3.92,0-6.75-2.75-6.75-6.5s2.7-6.5,6.35-6.5ZM1011.63,1922.43c-.27-2.22-1.77-3.67-3.9-3.67s-3.92,1.52-4.27,3.67h8.17Z" style="fill: #fff;"/>
      <path d="M1026.71,1919.11v-7.6h2v18h-2v-2.1c-.85,1.22-2.6,2.35-4.5,2.35-3.57,0-6.5-2.92-6.5-6.5s2.92-6.5,6.5-6.5c1.9,0,3.65,1.12,4.5,2.35ZM1017.71,1923.26c0,2.47,2.02,4.5,4.5,4.5s4.5-2.02,4.5-4.5-2.02-4.5-4.5-4.5-4.5,2.02-4.5,4.5Z" style="fill: #fff;"/>
    </g>
    <g>
      <path d="M147.5,1947.76c3.57,0,6.5,2.92,6.5,6.5s-2.92,6.5-6.5,6.5-6.5-2.9-6.5-6.5,2.92-6.5,6.5-6.5ZM147.5,1958.75c2.47,0,4.5-2.02,4.5-4.5s-2.02-4.47-4.5-4.47-4.5,2-4.47,4.47c0,2.47,2,4.5,4.47,4.5Z" style="fill: #fff;"/>
      <path d="M158.75,1948.01v1.82c.8-1.12,2.12-2.07,4.05-2.07v1.72c-2.25,0-4.05,1.58-4.05,3.92v7.1h-2v-12.5h2Z" style="fill: #fff;"/>
      <path d="M174.07,1943.53c0,.7-.58,1.25-1.28,1.25s-1.27-.55-1.27-1.25.58-1.27,1.27-1.27,1.28.57,1.28,1.27ZM173.8,1948.01v12.5h-2v-12.5h2Z" style="fill: #fff;"/>
      <path d="M179.3,1960.5h-2v-18.75h2v18.75Z" style="fill: #fff;"/>
      <path d="M184.8,1960.5h-2v-18.75h2v18.75Z" style="fill: #fff;"/>
      <path d="M197.3,1960.5v-1.7c-.92,1.07-2.32,1.95-4.05,1.95-2.97,0-4.95-2-4.95-5.32v-7.42h2v7.32c0,2.65,1.33,3.7,3.22,3.7,2.07,0,3.77-1.5,3.77-3.92v-7.1h2v12.5h-2Z" style="fill: #fff;"/>
      <path d="M211.52,1949.78l-1.42,1.42c-1.02-1.02-2.15-1.42-3.55-1.42-1.53,0-2.42.65-2.42,1.4,0,.95,1.62,1.35,3.12,1.77,2.05.57,4.55,1.37,4.55,4.1,0,2.12-2.12,3.7-5,3.7-1.92,0-3.67-.7-5-2.02l1.42-1.42c.87.9,2.15,1.45,3.62,1.45,1.62,0,2.95-.75,2.95-1.7,0-1.42-2.17-1.87-3.22-2.2-1.92-.58-4.47-1.17-4.47-3.62,0-2.1,1.9-3.47,4.47-3.47,1.95,0,3.8.8,4.95,2.02Z" style="fill: #fff;"/>
      <path d="M217.55,1944.66v3.35h3.52v2h-3.52v6.32c0,1.92.35,2.42,1.7,2.42.7,0,1.2-.07,1.82-.17v1.92c-.55.15-1.2.25-1.95.25-2.6,0-3.57-1.2-3.57-4.35v-6.4h-2.5v-2h1.7c.48,0,.8-.33.8-.77v-2.57h2Z" style="fill: #fff;"/>
      <path d="M225.82,1948.01v1.82c.8-1.12,2.12-2.07,4.05-2.07v1.72c-2.25,0-4.05,1.58-4.05,3.92v7.1h-2v-12.5h2Z" style="fill: #fff;"/>
      <path d="M241.65,1950.11v-2.1h2v12.5h-2v-2.1c-.85,1.22-2.6,2.35-4.5,2.35-3.57,0-6.5-2.92-6.5-6.5s2.92-6.5,6.5-6.5c1.9,0,3.65,1.12,4.5,2.35ZM232.65,1954.26c0,2.47,2.02,4.5,4.5,4.5s4.5-2.02,4.5-4.5-2.02-4.5-4.5-4.5-4.5,2.02-4.5,4.5Z" style="fill: #fff;"/>
      <path d="M250.4,1944.66v3.35h3.52v2h-3.52v6.32c0,1.92.35,2.42,1.7,2.42.7,0,1.2-.07,1.82-.17v1.92c-.55.15-1.2.25-1.95.25-2.6,0-3.57-1.2-3.57-4.35v-6.4h-2.5v-2h1.7c.48,0,.8-.33.8-.77v-2.57h2Z" style="fill: #fff;"/>
      <path d="M262.02,1947.76c3.55,0,5.97,2.65,5.97,6.5,0,.37-.05.8-.07,1.17h-10.1c.5,2,2.2,3.3,4.55,3.3,1.35,0,2.67-.45,3.55-1.42l1.42,1.42c-1.3,1.4-3.1,2.02-4.92,2.02-3.92,0-6.75-2.75-6.75-6.5s2.7-6.5,6.35-6.5ZM265.92,1953.43c-.27-2.22-1.77-3.67-3.9-3.67s-3.92,1.52-4.27,3.67h8.17Z" style="fill: #fff;"/>
      <path d="M281,1950.11v-7.6h2v18h-2v-2.1c-.85,1.22-2.6,2.35-4.5,2.35-3.57,0-6.5-2.92-6.5-6.5s2.92-6.5,6.5-6.5c1.9,0,3.65,1.12,4.5,2.35ZM272,1954.26c0,2.47,2.02,4.5,4.5,4.5s4.5-2.02,4.5-4.5-2.02-4.5-4.5-4.5-4.5,2.02-4.5,4.5Z" style="fill: #fff;"/>
      <path d="M303.49,1950.11v-2.1h2v12.5h-2v-2.1c-.85,1.22-2.6,2.35-4.5,2.35-3.57,0-6.5-2.92-6.5-6.5s2.92-6.5,6.5-6.5c1.9,0,3.65,1.12,4.5,2.35ZM294.5,1954.26c0,2.47,2.02,4.5,4.5,4.5s4.5-2.02,4.5-4.5-2.02-4.5-4.5-4.5-4.5,2.02-4.5,4.5Z" style="fill: #fff;"/>
      <path d="M311,1948.01v1.82c.8-1.12,2.12-2.07,4.05-2.07v1.72c-2.25,0-4.05,1.58-4.05,3.92v7.1h-2v-12.5h2Z" style="fill: #fff;"/>
      <path d="M322.17,1947.76c3.55,0,5.97,2.65,5.97,6.5,0,.37-.05.8-.07,1.17h-10.1c.5,2,2.2,3.3,4.55,3.3,1.35,0,2.67-.45,3.55-1.42l1.42,1.42c-1.3,1.4-3.1,2.02-4.92,2.02-3.92,0-6.75-2.75-6.75-6.5s2.7-6.5,6.35-6.5ZM326.07,1953.43c-.27-2.22-1.77-3.67-3.9-3.67s-3.92,1.52-4.27,3.67h8.17Z" style="fill: #fff;"/>
      <path d="M346.37,1949.78l-1.42,1.42c-1.02-1.02-2.15-1.42-3.55-1.42-1.53,0-2.42.65-2.42,1.4,0,.95,1.62,1.35,3.12,1.77,2.05.57,4.55,1.37,4.55,4.1,0,2.12-2.12,3.7-5,3.7-1.92,0-3.67-.7-5-2.02l1.42-1.42c.87.9,2.15,1.45,3.62,1.45,1.62,0,2.95-.75,2.95-1.7,0-1.42-2.17-1.87-3.22-2.2-1.92-.58-4.47-1.17-4.47-3.62,0-2.1,1.9-3.47,4.47-3.47,1.95,0,3.8.8,4.95,2.02Z" style="fill: #fff;"/>
      <path d="M358.14,1960.5v-1.7c-.92,1.07-2.32,1.95-4.05,1.95-2.97,0-4.95-2-4.95-5.32v-7.42h2v7.32c0,2.65,1.33,3.7,3.22,3.7,2.07,0,3.77-1.5,3.77-3.92v-7.1h2v12.5h-2Z" style="fill: #fff;"/>
      <path d="M376.64,1954.26c0,3.57-2.92,6.5-6.5,6.5-1.9,0-3.65-1.12-4.5-2.35v2.1h-2v-18h2v7.6c.85-1.22,2.6-2.35,4.5-2.35,3.57,0,6.5,2.92,6.5,6.5ZM365.64,1954.26c0,2.47,2.02,4.5,4.5,4.5s4.5-2.02,4.5-4.5-2.02-4.5-4.5-4.5-4.5,2.02-4.5,4.5Z" style="fill: #fff;"/>
      <path d="M379.4,1948.01h2v13.9c0,3.15-.97,4.35-3.57,4.35h-.38v-2h.23c1.37,0,1.72-.5,1.72-2.42v-13.82ZM379.12,1943.53c0,.7.58,1.25,1.27,1.25s1.28-.55,1.28-1.25-.58-1.27-1.28-1.27-1.27.57-1.27,1.27Z" style="fill: #fff;"/>
      <path d="M390.49,1947.76c3.55,0,5.97,2.65,5.97,6.5,0,.37-.05.8-.07,1.17h-10.1c.5,2,2.2,3.3,4.55,3.3,1.35,0,2.67-.45,3.55-1.42l1.42,1.42c-1.3,1.4-3.1,2.02-4.92,2.02-3.92,0-6.75-2.75-6.75-6.5s2.7-6.5,6.35-6.5ZM394.39,1953.43c-.27-2.22-1.77-3.67-3.9-3.67s-3.92,1.52-4.27,3.67h8.17Z" style="fill: #fff;"/>
      <path d="M404.97,1947.76c1.85,0,3.52.78,4.7,2.02l-1.42,1.42c-.8-.88-1.97-1.42-3.27-1.42-2.47,0-4.5,2-4.47,4.47,0,2.47,2,4.5,4.47,4.5,1.3,0,2.47-.57,3.27-1.45l1.42,1.42c-1.17,1.25-2.85,2.02-4.7,2.02-3.57,0-6.5-2.9-6.5-6.5s2.92-6.5,6.5-6.5Z" style="fill: #fff;"/>
      <path d="M415.42,1944.66v3.35h3.52v2h-3.52v6.32c0,1.92.35,2.42,1.7,2.42.7,0,1.2-.07,1.82-.17v1.92c-.55.15-1.2.25-1.95.25-2.6,0-3.57-1.2-3.57-4.35v-6.4h-2.5v-2h1.7c.48,0,.8-.33.8-.77v-2.57h2Z" style="fill: #fff;"/>
      <path d="M431.69,1944.66v3.35h3.52v2h-3.52v6.32c0,1.92.35,2.42,1.7,2.42.7,0,1.2-.07,1.82-.17v1.92c-.55.15-1.2.25-1.95.25-2.6,0-3.57-1.2-3.57-4.35v-6.4h-2.5v-2h1.7c.48,0,.8-.33.8-.77v-2.57h2Z" style="fill: #fff;"/>
      <path d="M443.47,1947.76c3.57,0,6.5,2.92,6.5,6.5s-2.92,6.5-6.5,6.5-6.5-2.9-6.5-6.5,2.92-6.5,6.5-6.5ZM443.47,1958.75c2.47,0,4.5-2.02,4.5-4.5s-2.02-4.47-4.5-4.47-4.5,2-4.47,4.47c0,2.47,2,4.5,4.47,4.5Z" style="fill: #fff;"/>
      <path d="M465.22,1947.76c1.85,0,3.52.78,4.7,2.02l-1.42,1.42c-.8-.88-1.97-1.42-3.27-1.42-2.47,0-4.5,2-4.47,4.47,0,2.47,2,4.5,4.47,4.5,1.3,0,2.47-.57,3.27-1.45l1.42,1.42c-1.17,1.25-2.85,2.02-4.7,2.02-3.57,0-6.5-2.9-6.5-6.5s2.92-6.5,6.5-6.5Z" style="fill: #fff;"/>
      <path d="M474.42,1942.51v7.2c.92-1.08,2.32-1.95,4.05-1.95,2.97,0,4.95,2,4.95,5.32v7.42h-2v-7.32c0-2.65-1.32-3.7-3.22-3.7-2.08,0-3.77,1.5-3.77,3.92v7.1h-2v-18h2Z" style="fill: #fff;"/>
      <path d="M497.17,1950.11v-2.1h2v12.5h-2v-2.1c-.85,1.22-2.6,2.35-4.5,2.35-3.57,0-6.5-2.92-6.5-6.5s2.92-6.5,6.5-6.5c1.9,0,3.65,1.12,4.5,2.35ZM488.17,1954.26c0,2.47,2.02,4.5,4.5,4.5s4.5-2.02,4.5-4.5-2.02-4.5-4.5-4.5-4.5,2.02-4.5,4.5Z" style="fill: #fff;"/>
      <path d="M504.67,1948.01v1.7c.92-1.08,2.32-1.95,4.05-1.95,2.97,0,4.95,2,4.95,5.32v7.42h-2v-7.32c0-2.65-1.32-3.7-3.22-3.7-2.08,0-3.77,1.5-3.77,3.92v7.1h-2v-12.5h2Z" style="fill: #fff;"/>
      <path d="M527.42,1950.11v-2.1h2v12.25c0,3.72-2.52,6-6.67,6-1.97,0-4.05-.67-5.52-2.03l1.42-1.42c1.05.92,2.7,1.45,4.2,1.45,2.85,0,4.57-1.45,4.57-3.85v-2c-.85,1.22-2.6,2.35-4.5,2.35-3.57,0-6.5-2.92-6.5-6.5s2.92-6.5,6.5-6.5c1.9,0,3.65,1.12,4.5,2.35ZM518.42,1954.26c0,2.47,2.02,4.5,4.5,4.5s4.5-2.02,4.5-4.5-2.02-4.5-4.5-4.5-4.5,2.02-4.5,4.5Z" style="fill: #fff;"/>
      <path d="M538.52,1947.76c3.55,0,5.97,2.65,5.97,6.5,0,.37-.05.8-.07,1.17h-10.1c.5,2,2.2,3.3,4.55,3.3,1.35,0,2.67-.45,3.55-1.42l1.42,1.42c-1.3,1.4-3.1,2.02-4.92,2.02-3.92,0-6.75-2.75-6.75-6.5s2.7-6.5,6.35-6.5ZM542.41,1953.43c-.27-2.22-1.77-3.67-3.9-3.67s-3.92,1.52-4.27,3.67h8.17Z" style="fill: #fff;"/>
      <path d="M554.59,1948.01l2.75,8.9,2.72-8.9h1.95l2.72,8.9,2.75-8.9h2.1l-3.85,12.5h-1.97l-2.72-8.82-2.72,8.82h-1.97l-3.85-12.5h2.1Z" style="fill: #fff;"/>
      <path d="M573.87,1943.53c0,.7-.58,1.25-1.28,1.25s-1.27-.55-1.27-1.25.58-1.27,1.27-1.27,1.28.57,1.28,1.27ZM573.59,1948.01v12.5h-2v-12.5h2Z" style="fill: #fff;"/>
      <path d="M580.34,1944.66v3.35h3.52v2h-3.52v6.32c0,1.92.35,2.42,1.7,2.42.7,0,1.2-.07,1.82-.17v1.92c-.55.15-1.2.25-1.95.25-2.6,0-3.57-1.2-3.57-4.35v-6.4h-2.5v-2h1.7c.48,0,.8-.33.8-.77v-2.57h2Z" style="fill: #fff;"/>
      <path d="M588.62,1942.51v7.2c.92-1.08,2.32-1.95,4.05-1.95,2.97,0,4.95,2,4.95,5.32v7.42h-2v-7.32c0-2.65-1.32-3.7-3.22-3.7-2.08,0-3.77,1.5-3.77,3.92v7.1h-2v-18h2Z" style="fill: #fff;"/>
      <path d="M606.86,1947.76c3.57,0,6.5,2.92,6.5,6.5s-2.92,6.5-6.5,6.5-6.5-2.9-6.5-6.5,2.92-6.5,6.5-6.5ZM606.86,1958.75c2.47,0,4.5-2.02,4.5-4.5s-2.02-4.47-4.5-4.47-4.5,2-4.47,4.47c0,2.47,2,4.5,4.47,4.5Z" style="fill: #fff;"/>
      <path d="M625.11,1960.5v-1.7c-.92,1.07-2.32,1.95-4.05,1.95-2.97,0-4.95-2-4.95-5.32v-7.42h2v7.32c0,2.65,1.33,3.7,3.22,3.7,2.07,0,3.77-1.5,3.77-3.92v-7.1h2v12.5h-2Z" style="fill: #fff;"/>
      <path d="M633.86,1944.66v3.35h3.52v2h-3.52v6.32c0,1.92.35,2.42,1.7,2.42.7,0,1.2-.07,1.82-.17v1.92c-.55.15-1.2.25-1.95.25-2.6,0-3.57-1.2-3.57-4.35v-6.4h-2.5v-2h1.7c.48,0,.8-.33.8-.77v-2.57h2Z" style="fill: #fff;"/>
      <path d="M648.89,1948.01v1.7c.92-1.08,2.32-1.95,4.05-1.95,2.97,0,4.95,2,4.95,5.32v7.42h-2v-7.32c0-2.65-1.32-3.7-3.22-3.7-2.08,0-3.77,1.5-3.77,3.92v7.1h-2v-12.5h2Z" style="fill: #fff;"/>
      <path d="M667.14,1947.76c3.57,0,6.5,2.92,6.5,6.5s-2.92,6.5-6.5,6.5-6.5-2.9-6.5-6.5,2.92-6.5,6.5-6.5ZM667.14,1958.75c2.47,0,4.5-2.02,4.5-4.5s-2.02-4.47-4.5-4.47-4.5,2-4.47,4.47c0,2.47,2,4.5,4.47,4.5Z" style="fill: #fff;"/>
      <path d="M679.41,1944.66v3.35h3.52v2h-3.52v6.32c0,1.92.35,2.42,1.7,2.42.7,0,1.2-.07,1.82-.17v1.92c-.55.15-1.2.25-1.95.25-2.6,0-3.57-1.2-3.57-4.35v-6.4h-2.5v-2h1.7c.48,0,.8-.33.8-.77v-2.57h2Z" style="fill: #fff;"/>
      <path d="M687.96,1943.53c0,.7-.58,1.25-1.28,1.25s-1.27-.55-1.27-1.25.58-1.27,1.27-1.27,1.28.57,1.28,1.27ZM687.69,1948.01v12.5h-2v-12.5h2Z" style="fill: #fff;"/>
      <path d="M696.94,1947.76c1.85,0,3.52.78,4.7,2.02l-1.42,1.42c-.8-.88-1.97-1.42-3.27-1.42-2.47,0-4.5,2-4.47,4.47,0,2.47,2,4.5,4.47,4.5,1.3,0,2.47-.57,3.27-1.45l1.42,1.42c-1.17,1.25-2.85,2.02-4.7,2.02-3.57,0-6.5-2.9-6.5-6.5s2.92-6.5,6.5-6.5Z" style="fill: #fff;"/>
      <path d="M709.74,1947.76c3.55,0,5.97,2.65,5.97,6.5,0,.37-.05.8-.07,1.17h-10.1c.5,2,2.2,3.3,4.55,3.3,1.35,0,2.67-.45,3.55-1.42l1.42,1.42c-1.3,1.4-3.1,2.02-4.92,2.02-3.92,0-6.75-2.75-6.75-6.5s2.7-6.5,6.35-6.5ZM713.64,1953.43c-.27-2.22-1.77-3.67-3.9-3.67s-3.92,1.52-4.27,3.67h8.17Z" style="fill: #fff;"/>
      <path d="M720.54,1959.36c0,.77-.62,1.4-1.42,1.4s-1.4-.62-1.4-1.4.62-1.42,1.4-1.42,1.42.62,1.42,1.42Z" style="fill: #fff;"/>
    </g>
  </g>
</svg>