<?xml version="1.0" encoding="UTF-8"?>
<svg id="_圖層_1" data-name="圖層 1" xmlns="http://www.w3.org/2000/svg" xmlns:xlink="http://www.w3.org/1999/xlink" viewBox="0 0 1170 2182.68">
  <defs>
    <clipPath id="clippath">
      <rect y="-174.66" width="1170" height="2532" style="fill: none;"/>
    </clipPath>
    <clipPath id="clippath-1">
      <rect y="-174.66" width="1170" height="2532" style="fill: none;"/>
    </clipPath>
    <clipPath id="clippath-2">
      <rect y="-174.66" width="1170" height="2532" style="fill: none;"/>
    </clipPath>
  </defs>
  <g style="clip-path: url(#clippath);">
    <g>
      <path d="M402,193.37l16.08-43.2h9.06l16.08,43.2h-8.88l-3-8.22h-17.46l-3,8.22h-8.88ZM428.46,176.93l-5.82-15.84-5.88,15.84h11.7Z" style="fill: #040000;"/>
      <path d="M443.88,178.37c0-8.64,7.02-15.6,15.6-15.6,4.44,0,8.46,1.86,11.28,4.86l-5.82,5.82c-1.32-1.5-3.3-2.46-5.46-2.46-4.08,0-7.38,3.3-7.38,7.38s3.3,7.38,7.38,7.38c2.16,0,4.14-.96,5.46-2.46l5.82,5.82c-2.82,3-6.84,4.86-11.28,4.86-8.58,0-15.6-7.02-15.6-15.6Z" style="fill: #040000;"/>
      <path d="M472.32,178.37c0-8.64,7.02-15.6,15.6-15.6,4.44,0,8.46,1.86,11.28,4.86l-5.82,5.82c-1.32-1.5-3.3-2.46-5.46-2.46-4.08,0-7.38,3.3-7.38,7.38s3.3,7.38,7.38,7.38c2.16,0,4.14-.96,5.46-2.46l5.82,5.82c-2.82,3-6.84,4.86-11.28,4.86-8.58,0-15.6-7.02-15.6-15.6Z" style="fill: #040000;"/>
      <path d="M516.06,162.78c8.58,0,14.34,6.18,14.34,15,0,1.26-.12,2.58-.3,3.9h-21.36c1.14,3.24,4.2,5.1,8.04,5.1,2.7,0,5.28-.96,6.84-2.76l5.04,5.04c-2.76,3.06-6.84,4.92-12.06,4.92-8.94,0-15.84-6.84-15.84-15.6s6.66-15.6,15.3-15.6ZM508.56,175.79h14.34c-.48-3.66-3.54-5.88-7.02-5.88s-6.72,2.28-7.32,5.88Z" style="fill: #040000;"/>
      <path d="M537.48,183.17c2.4,2.04,5.94,3.6,9.24,3.6,2.52,0,4.38-1.02,4.38-2.34,0-2.04-3-2.58-5.04-3.12-5.16-1.38-12-2.88-12-9.54,0-5.16,5.16-9,12.24-9,4.68,0,8.88,1.62,12,4.14l-4.14,5.52c-2.04-1.56-5.22-2.52-7.8-2.52-2.82,0-4.08.9-4.08,1.92,0,1.38,2.52,1.86,5.64,2.58,6.42,1.26,11.46,3.54,11.46,9.96,0,5.58-5.46,9.54-12.9,9.54-5.16,0-9.78-1.74-13.62-5.16l4.62-5.58Z" style="fill: #040000;"/>
      <path d="M566.16,183.17c2.4,2.04,5.94,3.6,9.24,3.6,2.52,0,4.38-1.02,4.38-2.34,0-2.04-3-2.58-5.04-3.12-5.16-1.38-12-2.88-12-9.54,0-5.16,5.16-9,12.24-9,4.68,0,8.88,1.62,12,4.14l-4.14,5.52c-2.04-1.56-5.22-2.52-7.8-2.52-2.82,0-4.08.9-4.08,1.92,0,1.38,2.52,1.86,5.64,2.58,6.42,1.26,11.46,3.54,11.46,9.96,0,5.58-5.46,9.54-12.9,9.54-5.16,0-9.78-1.74-13.62-5.16l4.62-5.58Z" style="fill: #040000;"/>
      <path d="M622.02,178.37c0,8.58-6.96,15.6-15.6,15.6s-15.6-7.02-15.6-15.6,7.02-15.6,15.6-15.6,15.6,6.96,15.6,15.6ZM606.42,185.75c4.08,0,7.38-3.3,7.38-7.38s-3.3-7.38-7.38-7.38-7.38,3.3-7.38,7.38,3.3,7.38,7.38,7.38Z" style="fill: #040000;"/>
      <path d="M626.52,193.37v-30h8.22v2.94c2.1-2.28,5.16-3.54,8.64-3.54v7.98c-.36-.06-.78-.12-1.14-.12-4.08,0-7.5,2.88-7.5,6.9v15.84h-8.22Z" style="fill: #040000;"/>
      <path d="M644.82,163.37h8.94l7.86,19.86,7.38-19.86h8.94l-13.68,34.98c-2.34,6.06-6.78,8.82-12.84,8.82-1.02,0-2.1-.06-3.18-.06v-7.92c.6.06,1.2.12,1.8.12,2.7,0,4.92-1.02,6.12-3.9l.84-2.04-12.18-30Z" style="fill: #040000;"/>
      <path d="M697.44,193.37v-43.2h8.22v16.56l14.34-16.56h9.96l-17.52,20.52,18.18,22.68h-9.96l-15-18.6v18.6h-8.22Z" style="fill: #040000;"/>
      <path d="M737.93,149.58c2.64,0,4.8,2.16,4.8,4.8s-2.16,4.8-4.8,4.8-4.86-2.16-4.86-4.8,2.16-4.8,4.86-4.8ZM733.79,193.37v-30h8.22v30h-8.22Z" style="fill: #040000;"/>
      <path d="M748.43,163.37c1.8,0,3-1.2,3-2.94v-5.1h8.22v8.04h7.2v8.22h-7.2v8.58c0,4.68.66,5.88,3.36,5.94,1.14,0,2.34-.24,3.84-.54v7.8c-1.38.36-3.6.6-5.1.6-7.2,0-10.32-3.24-10.32-10.8v-11.58h-5.28v-8.22h2.28Z" style="fill: #040000;"/>
    </g>
    <g>
      <path d="M206.14,712.38v30.72h18.1v3.84h-21.94v-34.56h3.84Z" style="fill: #040000;"/>
      <path d="M240.31,722.46c6.86,0,12.48,5.62,12.48,12.48s-5.62,12.48-12.48,12.48-12.48-5.57-12.48-12.48,5.62-12.48,12.48-12.48ZM240.31,743.58c4.75,0,8.64-3.89,8.64-8.64s-3.89-8.59-8.64-8.59-8.64,3.84-8.59,8.59c0,4.75,3.84,8.64,8.59,8.64Z" style="fill: #040000;"/>
      <path d="M261.91,722.94v3.26c1.78-2.06,4.46-3.75,7.78-3.75,5.71,0,9.5,3.84,9.5,10.23v14.26h-3.84v-14.07c0-5.09-2.54-7.1-6.19-7.1-3.98,0-7.25,2.88-7.25,7.54v13.63h-3.84v-24h3.84Z" style="fill: #040000;"/>
      <path d="M305.59,726.97v-4.03h3.84v23.52c0,7.15-4.85,11.52-12.82,11.52-3.79,0-7.78-1.3-10.61-3.89l2.74-2.74c2.02,1.78,5.18,2.78,8.06,2.78,5.47,0,8.79-2.78,8.79-7.39v-3.84c-1.63,2.35-4.99,4.51-8.64,4.51-6.86,0-12.48-5.62-12.48-12.48s5.62-12.48,12.48-12.48c3.65,0,7.01,2.16,8.64,4.51ZM288.31,734.94c0,4.75,3.89,8.64,8.64,8.64s8.64-3.89,8.64-8.64-3.89-8.64-8.64-8.64-8.64,3.89-8.64,8.64Z" style="fill: #040000;"/>
      <path d="M345.86,726.35l-2.74,2.74c-1.97-1.97-4.13-2.74-6.82-2.74-2.93,0-4.66,1.25-4.66,2.69,0,1.82,3.12,2.59,6,3.41,3.94,1.1,8.74,2.64,8.74,7.87,0,4.08-4.08,7.11-9.6,7.11-3.7,0-7.06-1.34-9.6-3.89l2.74-2.74c1.68,1.73,4.13,2.78,6.96,2.78,3.12,0,5.67-1.44,5.67-3.26,0-2.74-4.18-3.6-6.19-4.22-3.7-1.1-8.59-2.26-8.59-6.96,0-4.03,3.65-6.67,8.59-6.67,3.74,0,7.3,1.54,9.5,3.89Z" style="fill: #040000;"/>
      <path d="M362.23,722.46c3.55,0,6.77,1.49,9.02,3.89l-2.74,2.74c-1.54-1.68-3.79-2.74-6.29-2.74-4.75,0-8.64,3.84-8.59,8.59,0,4.75,3.84,8.64,8.59,8.64,2.5,0,4.75-1.1,6.29-2.78l2.74,2.74c-2.26,2.4-5.47,3.89-9.02,3.89-6.86,0-12.48-5.57-12.48-12.48s5.62-12.48,12.48-12.48Z" style="fill: #040000;"/>
      <path d="M379.89,722.94v3.5c1.54-2.16,4.08-3.98,7.78-3.98v3.31c-4.32,0-7.78,3.02-7.78,7.54v13.63h-3.84v-24h3.84Z" style="fill: #040000;"/>
      <path d="M402.74,722.46c6.82,0,11.47,5.09,11.47,12.48,0,.72-.1,1.54-.14,2.26h-19.39c.96,3.84,4.22,6.34,8.74,6.34,2.59,0,5.14-.86,6.82-2.74l2.74,2.74c-2.5,2.69-5.95,3.89-9.46,3.89-7.54,0-12.96-5.28-12.96-12.48s5.18-12.48,12.19-12.48ZM410.23,733.35c-.53-4.27-3.41-7.06-7.49-7.06s-7.54,2.93-8.21,7.06h15.7Z" style="fill: #040000;"/>
      <path d="M420.64,722.94l5.28,17.09,5.23-17.09h3.74l5.23,17.09,5.28-17.09h4.03l-7.39,24h-3.79l-5.23-16.95-5.23,16.95h-3.79l-7.39-24h4.03Z" style="fill: #040000;"/>
    </g>
    <g>
      <path d="M199.42,790.47c0-2.26.62-4.46,1.78-6.24l10.95-16.85h4.61l-7.39,11.33c.67-.1,1.3-.14,2.02-.14,6.58,0,11.9,5.33,11.9,11.91s-5.33,11.95-11.9,11.95-11.95-5.33-11.95-11.95ZM219.43,790.47c0-4.42-3.65-8.07-8.06-8.07s-8.07,3.65-8.07,8.07,3.6,8.06,8.07,8.06,8.06-3.6,8.06-8.06Z" style="fill: #040000;"/>
      <path d="M228.07,788.46h13.39v3.84h-13.39v-3.84Z" style="fill: #040000;"/>
      <path d="M266.81,767.38v3.41l-7.97,9.74c5.57,1.01,9.36,5.33,9.36,11.04,0,6.34-4.75,10.85-11.47,10.85-5.33,0-9.65-3.12-11.42-8.26l3.6-1.44c1.1,3.55,4.18,5.86,7.83,5.86,4.56,0,7.63-2.83,7.63-7.01s-3.31-7.39-8.07-7.39c-.53,0-1.06.05-1.58.19l-1.87-2.78,8.54-10.37h-14.02v-3.84h19.44Z" style="fill: #040000;"/>
      <path d="M292.73,777.23c0,4.13-1.97,7.63-7.01,12.58l-8.45,8.3h15.94v3.84h-21.84v-3.41l11.62-11.42c2.74-2.69,5.9-5.76,5.9-9.89,0-3.7-3.07-6.48-7.2-6.48-3.5,0-6.29,2.06-7.3,5.47l-3.65-1.44c1.68-4.85,5.86-7.87,10.95-7.87,6.29,0,11.04,4.46,11.04,10.32Z" style="fill: #040000;"/>
      <path d="M301.75,776.36l5.62,5.57,5.57-5.57,2.69,2.74-5.57,5.57,5.57,5.57-2.69,2.74-5.57-5.57-5.62,5.57-2.69-2.74,5.57-5.57-5.57-5.57,2.69-2.74Z" style="fill: #040000;"/>
      <path d="M341.54,767.38v3.41l-7.97,9.74c5.57,1.01,9.36,5.33,9.36,11.04,0,6.34-4.75,10.85-11.47,10.85-5.33,0-9.65-3.12-11.42-8.26l3.6-1.44c1.1,3.55,4.18,5.86,7.83,5.86,4.56,0,7.63-2.83,7.63-7.01s-3.31-7.39-8.07-7.39c-.53,0-1.06.05-1.58.19l-1.87-2.78,8.54-10.37h-14.02v-3.84h19.44Z" style="fill: #040000;"/>
      <path d="M345.57,790.47c0-2.26.62-4.46,1.78-6.24l10.95-16.85h4.61l-7.39,11.33c.67-.1,1.3-.14,2.02-.14,6.58,0,11.9,5.33,11.9,11.91s-5.33,11.95-11.9,11.95-11.95-5.33-11.95-11.95ZM365.59,790.47c0-4.42-3.65-8.07-8.06-8.07s-8.07,3.65-8.07,8.07,3.6,8.06,8.07,8.06,8.06-3.6,8.06-8.06Z" style="fill: #040000;"/>
      <path d="M378.07,777.95v3.26c1.78-2.06,4.46-3.75,7.78-3.75,3.94,0,6.96,1.82,8.45,4.99,1.92-2.88,5.09-4.99,8.83-4.99,5.71,0,9.5,3.84,9.5,10.23v14.26h-3.84v-14.07c0-5.09-2.54-7.1-6.19-7.1-3.98,0-7.25,2.83-7.25,7.44v13.73h-3.84v-14.07c0-5.09-2.54-7.1-6.19-7.1-3.98,0-7.25,2.88-7.25,7.54v13.63h-3.84v-24h3.84Z" style="fill: #040000;"/>
      <path d="M423.19,777.95v3.26c1.78-2.06,4.46-3.75,7.78-3.75,3.94,0,6.96,1.82,8.45,4.99,1.92-2.88,5.09-4.99,8.83-4.99,5.71,0,9.5,3.84,9.5,10.23v14.26h-3.84v-14.07c0-5.09-2.54-7.1-6.19-7.1-3.98,0-7.25,2.83-7.25,7.44v13.73h-3.84v-14.07c0-5.09-2.54-7.1-6.19-7.1-3.98,0-7.25,2.88-7.25,7.54v13.63h-3.84v-24h3.84Z" style="fill: #040000;"/>
    </g>
    <g>
      <path d="M891.56,743.03l9.36,9.28,9.28-9.28,4.48,4.56-9.28,9.28,9.28,9.28-4.48,4.56-9.28-9.28-9.36,9.28-4.48-4.56,9.28-9.28-9.28-9.28,4.48-4.56Z" style="fill: #040000;"/>
      <path d="M939.32,728.07h5.76v57.6h-6.4v-49.68l-12.56,7.52-3.28-5.44,16.48-10Z" style="fill: #040000;"/>
      <path d="M988.76,744.47c0,6.88-3.28,12.72-11.68,20.96l-14.08,13.84h26.56v6.4h-36.4v-5.68l19.36-19.04c4.56-4.48,9.84-9.6,9.84-16.48,0-6.16-5.12-10.8-12-10.8-5.84,0-10.48,3.44-12.16,9.12l-6.08-2.4c2.8-8.08,9.76-13.12,18.24-13.12,10.48,0,18.4,7.44,18.4,17.2Z" style="fill: #040000;"/>
    </g>
    <g style="clip-path: url(#clippath-1);">
      <path d="M181.51,607.17h808.3c22.91,0,41.51,18.6,41.51,41.51v214.99c0,22.91-18.6,41.51-41.51,41.51H181.51c-22.91,0-41.51-18.6-41.51-41.51v-214.99c0-22.91,18.6-41.51,41.51-41.51Z" style="fill: none; stroke: #040000; stroke-miterlimit: 10;"/>
      <polygon points="787.08 690.4 786.8 690.13 785.58 691.18 784.23 692.03 782.74 692.7 781.1 693.18 779.33 693.47 777.45 693.57 775.47 693.47 773.4 693.18 771.26 692.7 769.08 692.02 766.85 691.16 764.61 690.13 762.37 688.92 760.14 687.56 757.95 686.04 755.81 684.38 753.73 682.6 751.74 680.71 749.85 678.71 748.06 676.64 746.41 674.5 744.89 672.3 743.52 670.08 742.32 667.84 741.28 665.6 740.42 663.37 739.75 661.19 739.26 659.05 738.97 656.99 738.87 655.01 738.97 653.13 739.26 651.37 739.74 649.73 740.4 648.23 741.24 646.88 742.28 645.67 742.39 645.56 742.12 645.28 742 645.4 742.14 645.54 742 645.4 733.76 653.64 733.78 653.66 733.75 653.65 733.55 653.89 733.29 654.14 732.3 655.42 731.47 656.83 730.82 658.37 730.34 660.04 730.04 661.81 729.92 663.69 729.98 665.65 730.23 667.68 730.66 669.78 731.27 671.91 732.05 674.06 733 676.23 734.1 678.4 734.61 679.27 588.96 824.92 589.1 825.06 588.96 824.92 588.78 825.11 588.52 825.1 588.23 825.15 588.23 825.1 587.77 825.11 586.41 825.47 585.41 826.03 584.69 826.67 583.79 828.26 583.61 828.97 584 829.06 584.15 828.43 584.21 828.32 583.99 829.36 583.78 829.35 583.78 829.34 583.6 829.34 583.6 829.36 583.44 829.37 583.46 829.57 583.39 829.38 583.35 829.39 583.34 829.33 583.11 829.36 582.17 829.66 581.31 830.14 580.56 830.81 579.94 831.69 579.48 832.95 579.42 833.48 578.4 833.68 577.26 834.23 576.48 834.87 575.51 836.46 575.24 837.49 575.22 837.63 574.93 837.66 574.02 837.92 572.38 838.97 571.72 839.84 571.22 840.98 571.09 841.81 570.31 841.93 569.19 842.4 568.28 843.08 567.65 843.84 567.21 844.71 566.94 845.66 566.91 845.95 566.76 845.96 565.82 846.2 564.19 847.17 563.52 847.97 563 848.99 562.69 850.44 562.7 851.32 563.1 851.32 563.08 850.47 563.34 849.24 563.14 850.58 563.26 852.22 563.71 853.97 564.46 855.8 565.53 857.68 566.89 859.56 568.49 861.35 570.24 862.98 572.17 864.45 574.24 865.72 576.36 866.73 578.46 867.43 580.46 867.83 582.08 867.89 581.25 867.97 578.96 867.71 576.54 866.99 574.04 865.85 571.61 864.34 569.39 862.55 567.4 860.53 565.7 858.35 564.39 856.12 563.54 854 563.12 852.01 563.14 851.51 562.74 851.5 562.73 852.04 562.94 853.02 562.69 853.29 562.21 854.33 562 855.66 562.11 857.1 562.33 857.94 562.3 857.95 563.06 860.77 563.25 860.72 563.06 860.78 563.24 861.37 563.74 862.56 564.42 863.75 565.25 864.9 566.21 865.99 567.28 866.97 568.42 867.84 569.6 868.55 570.79 869.1 571.66 869.38 571.72 869.19 571.67 869.38 575.39 870.38 575.4 870.35 576.01 870.53 577.85 870.78 579.58 870.73 581.19 870.32 582.52 869.61 583.62 868.55 583.9 868.09 584.78 867.85 586.06 867.22 587.15 866.37 588.03 865.32 588.7 864.07 588.82 863.7 589.91 863.24 591.32 862.2 591.34 862.18 592.47 860.71 592.98 859.54 593.32 859.44 594.58 858.76 595.63 857.89 596.48 856.81 597.12 855.52 597.15 855.39 598.54 854.73 599.97 853.54 599.99 853.52 600.98 852.04 601.31 851.21 601.87 851.01 603.1 850.31 604.11 849.4 604.93 848.28 605.49 847.05 605.75 846.97 606.75 846.48 607.74 845.76 608.6 844.85 609.2 843.93 609.58 843.12 609.8 842.46 610.01 841.61 610.09 840.91 753.17 697.83 753.76 698.18 755.92 699.31 758.09 700.27 760.26 701.08 762.4 701.71 764.51 702.17 766.57 702.44 768.57 702.52 770.49 702.42 772.32 702.12 774.03 701.64 775.62 700.97 777.06 700.12 778.34 699.11 778.57 698.88 778.79 698.69 778.77 698.67 778.8 698.68 787.08 690.4" style="fill: #e5e5e5;"/>
      <polygon points="742.94 645.06 744.22 644.12 745.64 643.33 747.21 642.71 748.9 642.27 750.7 642.02 752.6 641.95 754.58 642.07 756.62 642.37 758.7 642.86 760.83 643.51 762.97 644.34 765.11 645.33 766.16 645.88 764.71 645.15 762.52 644.21 760.35 643.45 758.22 642.88 756.15 642.51 754.15 642.33 752.24 642.34 750.44 642.56 748.75 642.97 747.21 643.58 745.8 644.39 744.56 645.37 743.49 646.53 742.6 647.85 741.9 649.33 741.39 650.95 741.08 652.69 740.96 654.55 741.05 656.5 741.33 658.54 741.8 660.64 742.47 662.79 743.32 664.97 744.35 667.17 745.54 669.36 746.9 671.54 748.41 673.67 750.05 675.76 751.82 677.77 753.7 679.7 755.67 681.52 757.72 683.23 759.83 684.81 762 686.24 764.18 687.52 766.38 688.63 768.58 689.57 770.75 690.33 772.88 690.9 774.95 691.28 776.94 691.46 778.85 691.44 780.66 691.22 782.34 690.81 783.89 690.2 785.29 689.4 786.53 688.41 787.6 687.25 788.49 685.93 789.2 684.45 789.7 682.83 790.02 681.09 790.13 679.24 790.04 677.28 789.76 675.25 789.29 673.16 788.62 671 787.77 668.82 786.84 666.82 787.64 668.43 788.54 670.57 789.28 672.7 789.6 673.83 790.11 676.07 790.39 678.08 790.49 680.03 790.41 681.88 790.15 683.63 789.72 685.27 789.11 686.79 788.34 688.19 787.41 689.46 786.78 690.1 787.06 690.38 787.71 689.71 788.68 688.4 789.47 686.96 790.09 685.39 790.53 683.71 790.8 681.92 790.88 680.03 790.78 678.04 790.5 676 790.06 674.01 789.98 673.72 789.79 673.77 789.98 673.72 789.66 672.58 788.91 670.43 788 668.26 786.92 666.1 785.7 663.94 784.33 661.82 782.83 659.74 781.22 657.71 779.49 655.76 777.66 653.88 775.74 652.1 773.75 650.42 771.69 648.86 769.59 647.43 767.45 646.13 765.29 644.98 763.12 643.98 760.95 643.14 758.81 642.48 756.69 641.99 754.62 641.68 752.61 641.56 750.67 641.63 748.82 641.89 747.09 642.34 745.48 642.97 744.01 643.78 742.69 644.76 742.15 645.29 742.42 645.57 742.94 645.06" style="fill: #e5e5e5;"/>
      <path d="M588.45,825.31l-1.31.21-1.17.55-.89.84-.61,1.12-.29,1.37.04,1.57.36,1.7.67,1.78.99,1.86,1.29,1.87,1.53,1.8,1.71,1.66,1.87,1.5,2.02,1.31,2.1,1.06,2.08.77,2,.46,1.92.15,1.8-.18,1.6-.52,1.34-.82,1.05-1.1.78-1.39.47-1.64.03-.36M583.45,829.57l-1.26.44-.99.74-.71,1.02-.41,1.29-.08,1.51.25,1.66.56,1.75.88,1.84,1.19,1.88,1.45,1.83,1.65,1.72,1.8,1.55,1.98,1.39,2.08,1.16,2.1.88,2.03.57,1.95.26,1.85-.06,1.68-.4,1.44-.72,1.15-1,.88-1.28.24-.64M579.59,833.7l-1.14.28-1.09.64-.81.92-.52,1.19-.2,1.44.13,1.62.45,1.73.76,1.81,1.08,1.87,1.37,1.86,1.59,1.76,1.75,1.61,1.92,1.45,2.06,1.24,2.1.98,2.07.68,1.97.37,1.9.05,1.75-.28,1.53-.61,1.26-.9.97-1.18.54-1.14M575.4,837.89l-.67.1-1.19.53-.91.82-.63,1.1-.32,1.36.02,1.56.34,1.7.65,1.78.97,1.86,1.27,1.87,1.52,1.81,1.7,1.67,1.86,1.51,2.02,1.32,2.1,1.08,2.09.79,2,.48,1.93.17,1.81-.16,1.62-.5,1.36-.81,1.07-1.08.8-1.37.06-.2M571.25,842.03l-.21.02-1.28.42-1.01.72-.73,1-.43,1.27-.1,1.49.23,1.66.54,1.75.86,1.84,1.17,1.88,1.44,1.84,1.64,1.72,1.79,1.56,1.97,1.4,2.08,1.17,2.1.9,2.04.59,1.95.28,1.86-.04,1.7-.38,1.46-.7,1.17-.98.9-1.26.28-.73M567.3,846.15l-1.27.29-1.11.62-.83.9-.54,1.18-.22,1.42.12,1.61.43,1.72.74,1.8,1.06,1.87,1.35,1.86,1.58,1.77,1.74,1.62,1.91,1.46,2.05,1.26,2.1,1,2.07.7,1.97.39,1.9.07,1.76-.26,1.55-.59,1.27-.89.99-1.16.58-1.19M753.43,669.23l2.86-3.88M767.09,676.14l-3.88,2.86M778.66,698.54l-1.21,1.04-1.37.86-1.52.68-1.66.49-1.79.29-1.9.1-2-.1-2.08-.29-2.15-.49-2.2-.68-2.24-.86-2.25-1.04-2.25-1.21-2.24-1.37-2.2-1.52-2.15-1.66-2.08-1.79-2-1.9-1.9-2-1.79-2.08-1.66-2.15-1.52-2.2-1.37-2.24-1.21-2.25-1.04-2.25-.86-2.23-.68-2.2-.49-2.15-.29-2.08-.1-2,.1-1.9.29-1.79.49-1.66.68-1.52.86-1.37,1.04-1.21M786.94,690.26l-.04.04-1.21,1.04-1.37.86-1.52.68-1.66.49-1.79.29-1.9.1-2-.1-2.08-.3-2.15-.49-2.2-.68-2.23-.86-2.25-1.04-2.25-1.21-2.24-1.37-2.2-1.52-2.15-1.66-2.08-1.79-2-1.9-1.9-2-1.79-2.08-1.66-2.15-1.52-2.2-1.37-2.24-1.21-2.25-1.04-2.25-.86-2.23-.68-2.2-.49-2.15-.29-2.08-.1-2,.1-1.9.29-1.79.49-1.66.68-1.52.86-1.37,1.04-1.21M571.72,869.19l-.86-.28-1.17-.54-1.16-.7-1.12-.85-1.05-.97-.95-1.07-.82-1.14-.66-1.17-.49-1.17-.17-.57M583.8,829.35l-.05,1.83.42,2.04.86,2.16,1.32,2.25,1.72,2.21,2.01,2.04,2.23,1.8,2.45,1.53,2.52,1.15,2.45.72,2.32.27.46-.04M579.59,834.98v.37s.41,2.04.41,2.04l.86,2.16,1.32,2.25,1.72,2.21,2,2.04,2.23,1.8,2.45,1.53,2.52,1.15,2.45.72,2.32.27,2.17-.2M575.43,839.06v.45s.41,2.04.41,2.04l.86,2.16,1.32,2.25,1.72,2.21,2.01,2.04,2.23,1.8,2.45,1.53,2.52,1.15,2.45.72,2.32.27,2.17-.2M571.27,843.21v.46s.4,2.04.4,2.04l.86,2.16,1.32,2.25,1.72,2.21,2.01,2.03,2.23,1.8,2.45,1.53,2.52,1.15,2.45.72,2.32.27,2.17-.2M567.1,847.31l-.02.53.42,2.04.86,2.16,1.32,2.25,1.72,2.21,2.01,2.04,2.23,1.8,2.45,1.53,2.52,1.15,2.45.72,2.32.27,2.17-.2M562.94,851.5l-.02.5.42,2.04.86,2.16,1.32,2.25,1.72,2.21,2.01,2.03,2.23,1.8,2.45,1.53,2.52,1.15,2.45.72,2.32.27,2.17-.21M583.77,867.92l-.29.49-1.05,1.02-1.33.71-1.56.39-1.69.05-1.82-.26-1.9-.56-1.93-.85-1.84-1.08-1.76-1.3-1.62-1.46-1.45-1.59-1.2-1.64-.96-1.66-.68-1.6-.4-1.54-.1-1.4.18-1.23.45-.99.31-.35M588.99,825.32l-.44-.03-.1.02M583.79,829.54l-.34.03M584.12,833.03l-.2.47-.06,1.5.39,1.7.81,1.82,1.24,1.89,1.59,1.81,1.82,1.62,2.06,1.39,2.18,1.07,2.15.67,2.04.25,1.5-.16M579.96,837.19l-.2.47-.06,1.5.39,1.7.81,1.82,1.24,1.89,1.59,1.81,1.83,1.62,2.06,1.39,2.18,1.07,2.15.67,2.04.25,1.5-.17M575.8,841.35l-.2.47-.06,1.5.38,1.7.81,1.82,1.24,1.89,1.59,1.81,1.82,1.62,2.06,1.39,2.18,1.07,2.14.67,2.04.25,1.5-.16M571.63,845.52l-.2.47-.06,1.5.39,1.7.81,1.82,1.24,1.89,1.59,1.81,1.82,1.62,2.06,1.39,2.18,1.07,2.14.67,2.04.25,1.5-.17M567.47,849.68l-.2.47-.06,1.5.39,1.7.81,1.82,1.24,1.89,1.59,1.81,1.83,1.62,2.06,1.39,2.18,1.07,2.14.67,2.04.25,1.5-.16M563.3,853.85l-.2.47-.06,1.5.39,1.7.81,1.82,1.24,1.89,1.59,1.81,1.83,1.62,2.06,1.39,2.18,1.07,2.14.67,2.04.25,1.5-.16M773.9,674.72l3.67-3.67M757.72,658.54l3.67-3.67M768.31,668.57l-5.6,5.6M758.27,669.73l5.6-5.6M607.24,843.48l-.86.61-1.01.42-1.15.22h-1.27s-1.36-.18-1.36-.18l-1.42-.39-1.46-.59-1.47-.77-1.45-.93-1.4-1.08-1.33-1.21-1.23-1.31-1.1-1.39-.96-1.44-.79-1.47-.61-1.46-.42-1.43-.22-1.37-.02-1.28.19-1.17.39-1.03.58-.88.24-.26M607.24,843.48l.14-.18M762.71,674.17l3.23.86M758.69,670.78l-.17-.35-.25-.7M762.71,674.17l-.7-.25-.35-.17M757.41,666.5l.87,3.22M769.57,685.4l-2.48-9.25M769.57,685.4l-5.01-1.34M764.56,684.06l-2.48-9.25M757.64,670.36l.7.25.71.38.69.49.65.58.58.65.49.69.38.71.25.7M757.64,670.36l-9.25-2.48M748.38,667.88l-1.34-5.01M756.29,665.35l-9.25-2.48M758.86,662.79l.12.67-.02.61-.16.52-.29.41-.41.29-.52.16-.61.02-.67-.12M758.86,662.79l-2.48-9.25M761.39,654.88l-5.01-1.34M763.87,664.13l-2.48-9.25M768.31,668.57l-.7-.25-.71-.37-.69-.49-.65-.58-.58-.65-.49-.69-.38-.71-.25-.7M777.56,671.05l-9.25-2.48M778.91,676.06l-1.34-5.01M778.91,676.06l-9.25-2.48M767.09,676.14l-.12-.67.02-.6.16-.52.29-.42.42-.29.52-.16.6-.02.67.11M784.31,688.23l.25-.39.71-1.4.52-1.54.33-1.68.13-1.79-.07-1.9-.26-1.98-.46-2.05-.65-2.1-.84-2.14-1.02-2.15-1.19-2.15-1.35-2.13-1.5-2.09-1.63-2.03-1.76-1.95-1.86-1.86-1.95-1.76-2.03-1.64-2.09-1.5-2.13-1.35-2.15-1.19-2.15-1.02-2.13-.84-2.1-.65-2.05-.46-1.98-.26-1.9-.07-1.79.13-1.67.33-1.54.52-1.4.72-.39.25M743.05,660.86l.65,2.1.84,2.14,1.02,2.15,1.19,2.15,1.35,2.13,1.5,2.09,1.63,2.03,1.76,1.95,1.86,1.86,1.95,1.76,2.03,1.64,2.09,1.5,2.13,1.35,2.15,1.19,2.15,1.02,2.14.84,2.1.65,2.05.46,1.98.27,1.89.07,1.79-.13,1.68-.33,1.54-.53,1.4-.71,1.24-.9,1.08-1.07.9-1.24.71-1.4.52-1.55.33-1.68.13-1.79-.07-1.9-.26-1.98-.46-2.05-.65-2.1-.84-2.14-1.02-2.15-1.19-2.15-1.35-2.13-1.5-2.08-1.63-2.03-1.76-1.95-1.86-1.86-1.95-1.76-2.03-1.64-2.08-1.5-2.13-1.35-2.15-1.19-2.15-1.02-2.14-.84-2.1-.65-2.05-.46-1.98-.27-1.9-.07-1.79.13-1.68.33-1.55.53-1.4.71-1.24.9-1.07,1.07-.9,1.24-.71,1.4-.53,1.55-.33,1.68-.13,1.79.07,1.9.26,1.98.46,2.05M789.1,673.2l.47,2.09.28,2.02.08,1.93-.11,1.83-.31,1.72-.5,1.59-.69,1.45-.88,1.3-1.05,1.14-1.22.97-1.38.78-1.52.6-1.66.41-1.78.21-1.89.02-1.98-.18-2.05-.38-2.11-.57-2.15-.75-2.18-.93-2.19-1.11-2.18-1.27-2.15-1.43-2.1-1.57-2.04-1.7-1.96-1.82-1.87-1.92-1.76-2.01-1.64-2.08-1.5-2.13-1.35-2.17-1.19-2.19-1.02-2.19-.85-2.17-.66-2.14-.47-2.09-.28-2.02-.08-1.93.11-1.83.31-1.72.5-1.59.69-1.45.88-1.3,1.05-1.14,1.22-.96,1.38-.78,1.52-.6,1.66-.41,1.78-.21,1.89-.02,1.98.18,2.06.38,2.11.57,2.16.75,2.18.94,2.19,1.11,2.18,1.27,2.15,1.43,2.1,1.57,2.04,1.7,1.96,1.82,1.87,1.92,1.76,2.01,1.64,2.08,1.5,2.13,1.35,2.17,1.19,2.19,1.02,2.19.84,2.17.66,2.14M742.14,645.54l.12-.12M571.72,869.19l3.72,1M562.49,857.9l.75,2.82M567.07,846.13l-.26.02-.95.24-1.55.93-.62.73-.51,1.02-.3,1.36.02.89M583.73,867.93l.96-.26,1.25-.61,1.06-.82.86-1.01.66-1.22.14-.46M571.26,841.99l-.88.13-1.12.47-.83.62-.61.73-.43.83-.27.91-.12,1.13.02.32M587.9,863.77l.51-.11,1.38-.58,1.41-1.04,1.09-1.41.55-1.25M575.41,837.81l-.42.04-.92.26-1.55,1.01-.62.8-.48,1.1-.23,1.43.04.59M591.76,859.69h.08s1.4-.43,1.4-.43l1.22-.65,1.02-.85.83-1.05.62-1.25.06-.22M579.6,833.64l-1.16.23-1.05.5-.76.63-.96,1.56-.24.94-.09,1.19.02.19M596.22,855.44l.8-.2,1.43-.68,1.38-1.17.96-1.42.36-.92M583.37,829.53l-.2.02-.9.28-.83.45-.73.64-.61.88-.43,1.17-.16,1.48.03.35M600.14,851.34l.26-.04,1.37-.46,1.19-.68.99-.88.8-1.08.59-1.28v-.03M588.23,825.3h-.42s-1.31.34-1.31.34l-.97.53-.69.63-.89,1.56-.15.65M602.66,847.37h.23s1.4-.17,1.4-.17l1.38-.41.98-.48.96-.69.84-.89.58-.89.37-.79.22-.65.2-.83.09-.76M755.07,669.67l3.58-4.85M767.62,673.79l-4.85,3.57M734.86,679.3l-145.76,145.76M607.38,843.34l145.75-145.75M734.05,653.67l-.6.59-.98,1.26-.81,1.39-.65,1.52-.47,1.64-.3,1.75-.12,1.86.06,1.94.25,2.02.43,2.08.6,2.12.78,2.15.94,2.16,1.1,2.16,1.25,2.14,1.38,2.11,1.52,2.06,1.63,2.01,1.74,1.94,1.84,1.85,1.93,1.76,2,1.65,2.06,1.53,2.1,1.4,2.13,1.27,2.15,1.12,2.16.96,2.15.8,2.13.63,2.09.45,2.04.27,1.98.09,1.9-.1,1.8-.29,1.69-.48,1.56-.66,1.42-.83,1.27-.99.48-.49M742.14,645.54l-8.24,8.24M778.66,698.54l8.24-8.24M789.79,673.77l-.32-1.12-.74-2.14-.91-2.16-1.07-2.16-1.22-2.14-1.36-2.11-1.49-2.07-1.61-2.02-1.72-1.95-1.82-1.87-1.91-1.78-1.99-1.67-2.04-1.56-2.09-1.43-2.13-1.29-2.15-1.15-2.16-.99-2.15-.83-2.13-.66-2.1-.49-2.05-.31-1.99-.12-1.92.07-1.82.26-1.71.44-1.59.62-1.45.8-1.3.96-.54.53M786.92,690.24l.63-.65.95-1.29.78-1.42.62-1.54.44-1.66.26-1.77.08-1.87-.1-1.96-.28-2.03-.44-1.98-.08-.29" style="fill: none; stroke: #040000; stroke-miterlimit: 10;"/>
    </g>
    <g>
      <path d="M562.54,2119.82c1.36-4.08,4.96-6.68,9.28-6.68,5.28,0,9.28,3.76,9.28,8.72,0,3.44-1.56,6.4-5.52,10.28l-6.32,6.24h12.28v3.96h-18.48v-3.4l9.68-9.56c2.16-2.12,4.4-4.44,4.4-7.44,0-2.8-2.28-4.84-5.36-4.84-2.64,0-4.76,1.6-5.52,4.2l-3.72-1.48Z" style="fill: #221714;"/>
      <path d="M584.5,2127.94c0-9.24,4.24-14.8,11.28-14.8s11.28,5.56,11.28,14.8-4.24,14.8-11.28,14.8-11.28-5.56-11.28-14.8ZM595.78,2138.78c4.76,0,7.32-3.8,7.32-10.84s-2.56-10.84-7.32-10.84-7.32,3.76-7.32,10.84,2.56,10.84,7.32,10.84Z" style="fill: #221714;"/>
    </g>
    <g>
      <path d="M457.82,402.8v-4.95h28.6v4.95h-11.85v31.05h-4.95v-31.05h-11.8Z" style="fill: #040000;"/>
      <path d="M490.72,433.85v-25h4.95v3.25c1.65-2.15,4.25-3.75,7.8-3.75v4.5c-4.3,0-7.8,2.65-7.8,7.15v13.85h-4.95Z" style="fill: #040000;"/>
      <path d="M510.12,397.35c1.65,0,3,1.35,3,3.05s-1.35,3-3,3-3.05-1.35-3.05-3,1.35-3.05,3.05-3.05ZM507.62,433.85v-25h4.95v25h-4.95Z" style="fill: #040000;"/>
      <path d="M518.97,408.85h4.95v3.7c1.7-2.25,4.85-4.2,8.35-4.2,7.2,0,12.7,5.8,12.7,13s-5.5,13-12.7,13c-3.45,0-6.65-1.95-8.35-4.15v15.85h-4.95v-37.2ZM523.92,421.35c0,4.45,3.6,8.05,8.05,8.05s8.05-3.6,8.05-8.05-3.6-8.05-8.05-8.05-8.05,3.6-8.05,8.05Z" style="fill: #040000;"/>
      <path d="M554.92,433.85h-4.95v-37.5h4.95v37.5Z" style="fill: #040000;"/>
      <path d="M572.67,408.35c7.1,0,11.95,5.25,11.9,12.85,0,.85-.1,1.75-.15,2.65h-19.4c1,3.55,4.1,5.8,8.3,5.8,2.55,0,5-.9,6.65-2.65l3.3,3.3c-2.55,2.7-6.05,4.05-9.95,4.05-7.7,0-13.4-5.6-13.4-13s5.45-13,12.75-13ZM564.87,419.55h14.9c-.55-4-3.4-6.55-7.2-6.55s-7.1,2.65-7.7,6.55Z" style="fill: #040000;"/>
      <path d="M603.67,397.85h14.6c6.6,0,11.4,5.1,11.4,12.05s-4.8,12.05-11.4,12.05h-9.65v11.9h-4.95v-36ZM608.62,402.8v14.2h9.25c4.1,0,6.85-2.9,6.85-7.1s-2.75-7.1-6.8-7.1h-9.3Z" style="fill: #040000;"/>
      <path d="M645.87,408.35c3.45,0,6.65,1.95,8.35,4.15v-3.65h4.95v25h-4.95v-3.7c-1.65,2.25-4.85,4.2-8.35,4.2-7.15,0-12.7-5.85-12.7-13s5.55-13,12.7-13ZM638.12,421.35c0,4.45,3.6,8.05,8.05,8.05s8.05-3.6,8.05-8.05-3.6-8.05-8.05-8.05-8.05,3.6-8.05,8.05Z" style="fill: #040000;"/>
      <path d="M664.17,421.35c0-7.2,5.85-13,13-13,3.7,0,7.05,1.55,9.4,4.05l-3.5,3.5c-1.45-1.6-3.55-2.6-5.9-2.6-4.45,0-8.05,3.6-8.05,8.05s3.6,8.05,8.05,8.05c2.35,0,4.45-1,5.9-2.6l3.5,3.5c-2.35,2.5-5.7,4.05-9.4,4.05-7.15,0-13-5.85-13-13Z" style="fill: #040000;"/>
      <path d="M691.07,433.85v-36h4.95v21.4l9.55-10.4h6.55l-11,12,11.7,13h-6.55l-10.25-11.35v11.35h-4.95Z" style="fill: #040000;"/>
    </g>
    <g style="clip-path: url(#clippath-2);">
      <rect x="503.87" y="482.02" width="44.35" height="44.35" style="fill: #cf391a;"/>
      <rect x="562.82" y="482.02" width="44.35" height="44.35" style="fill: #cf391a;"/>
      <rect x="621.78" y="482.02" width="44.35" height="44.35" style="fill: #cf391a;"/>
    </g>
    <g>
      <path d="M148.9,1079.03v36.96h22.06v3.36h-25.42v-40.32h3.36Z" style="fill: #040000;"/>
      <path d="M204.74,1105.35c0,8.01-6.55,14.56-14.56,14.56s-14.56-6.55-14.56-14.56,6.5-14.56,14.56-14.56,14.56,6.5,14.56,14.56ZM190.18,1116.5c6.16,0,11.14-4.98,11.14-11.14s-4.98-11.2-11.14-11.2-11.2,5.04-11.2,11.2,5.04,11.14,11.2,11.14Z" style="fill: #040000;"/>
      <path d="M211.68,1119.35v-28h3.36v5.21c1.79-3.53,5.54-5.77,9.74-5.77,6.38,0,11.03,4.26,11.03,11.65v16.91h-3.36v-16.74c0-6.22-3.58-8.9-8.06-8.9-4.98,0-9.35,3.58-9.35,9.97v15.68h-3.36Z" style="fill: #040000;"/>
      <path d="M257.37,1090.79c4.93,0,9.35,3.08,11.2,6.78v-6.22h3.36v27.44c0,8.34-5.66,13.44-15.01,13.44-4.37,0-9.02-1.51-12.38-4.54l2.41-2.35c2.63,2.24,6.5,3.53,10.19,3.53,7.06,0,11.42-3.75,11.42-9.8v-5.94c-1.85,3.7-6.27,6.78-11.2,6.78-8.06,0-14.56-6.55-14.56-14.56s6.5-14.56,14.56-14.56ZM246.17,1105.35c0,6.16,4.98,11.2,11.2,11.2s11.2-5.04,11.2-11.2-5.04-11.2-11.2-11.2-11.2,5.04-11.2,11.2Z" style="fill: #040000;"/>
      <path d="M296.35,1112.97c2.13,2.24,5.32,3.58,8.96,3.58,4.37,0,7.67-1.96,7.67-4.59,0-3.7-4.82-4.87-8.06-5.77-4.59-1.23-10.3-2.52-10.3-7.9,0-4.54,4.14-7.5,9.91-7.5,4.37,0,8.46,1.74,11.14,4.54l-2.35,2.41c-2.52-2.46-5.38-3.53-8.79-3.53-4.03,0-6.5,1.74-6.5,3.98,0,2.91,4.03,3.75,8.06,4.82,4.82,1.29,10.25,3.08,10.25,8.9,0,4.7-4.65,8.01-11.14,8.01-4.37,0-8.29-1.57-11.26-4.54l2.41-2.41Z" style="fill: #040000;"/>
      <path d="M320.93,1105.35c0-8.06,6.5-14.56,14.56-14.56,4.14,0,7.9,1.74,10.53,4.54l-2.41,2.41c-2.02-2.18-4.93-3.58-8.12-3.58-6.16,0-11.2,5.04-11.2,11.2s5.04,11.14,11.2,11.14c3.19,0,6.1-1.34,8.12-3.53l2.41,2.41c-2.63,2.8-6.38,4.54-10.53,4.54-8.06,0-14.56-6.55-14.56-14.56Z" style="fill: #040000;"/>
      <path d="M352.46,1119.35v-28h3.36v5.43c1.74-4.03,5.66-5.99,9.91-5.99v2.91c-5.88,0-9.91,4.09-9.91,9.97v15.68h-3.36Z" style="fill: #040000;"/>
      <path d="M384.04,1090.79c7.95,0,13.38,6.1,13.44,14.56,0,.62-.11,1.34-.11,1.96h-24.02c.84,5.38,5.32,9.18,11.2,9.18,3.42,0,6.66-1.29,8.85-3.7l2.41,2.41c-2.91,3.08-6.94,4.7-11.14,4.7-8.57,0-14.9-6.27-14.9-14.56s6.1-14.56,14.28-14.56ZM373.24,1103.95h20.78c-.5-5.82-4.54-9.8-10.02-9.8s-10.14,4.2-10.75,9.8Z" style="fill: #040000;"/>
      <path d="M404.26,1091.35l7,22.01,7.06-22.01h3.25l7.06,22.01,7-22.01h3.53l-8.85,28h-3.36l-7-21.84-7,21.84h-3.3l-8.9-28h3.53Z" style="fill: #040000;"/>
    </g>
    <g>
      <path d="M148.9,1199.04v36.96h22.06v3.36h-25.42v-40.32h3.36Z" style="fill: #040000;"/>
      <path d="M190.18,1210.8c4.93,0,9.35,3.08,11.2,6.78v-6.22h3.36v28h-3.36v-6.22c-1.85,3.7-6.27,6.78-11.2,6.78-8.06,0-14.56-6.55-14.56-14.56s6.5-14.56,14.56-14.56ZM178.98,1225.36c0,6.16,4.98,11.2,11.2,11.2s11.2-5.04,11.2-11.2-5.04-11.2-11.2-11.2-11.2,5.04-11.2,11.2Z" style="fill: #040000;"/>
      <path d="M213.53,1239.36v-28h3.36v5.21c1.79-3.53,5.54-5.77,9.74-5.77,6.38,0,11.03,4.26,11.03,11.65v16.91h-3.36v-16.74c0-6.22-3.58-8.9-8.06-8.9-4.98,0-9.35,3.58-9.35,9.97v15.68h-3.36Z" style="fill: #040000;"/>
      <path d="M259.22,1210.8c4.93,0,9.35,3.08,11.2,6.78v-6.22h3.36v27.44c0,8.34-5.66,13.44-15.01,13.44-4.37,0-9.02-1.51-12.38-4.54l2.41-2.35c2.63,2.24,6.5,3.53,10.19,3.53,7.06,0,11.42-3.75,11.42-9.8v-5.94c-1.85,3.7-6.27,6.78-11.2,6.78-8.06,0-14.56-6.55-14.56-14.56s6.5-14.56,14.56-14.56ZM248.02,1225.36c0,6.16,4.98,11.2,11.2,11.2s11.2-5.04,11.2-11.2-5.04-11.2-11.2-11.2-11.2,5.04-11.2,11.2Z" style="fill: #040000;"/>
      <path d="M295.01,1210.8c7.95,0,13.38,6.1,13.44,14.56,0,.62-.11,1.34-.11,1.96h-24.02c.84,5.38,5.32,9.18,11.2,9.18,3.42,0,6.66-1.29,8.85-3.7l2.41,2.41c-2.91,3.08-6.94,4.7-11.14,4.7-8.57,0-14.9-6.27-14.9-14.56s6.1-14.56,14.28-14.56ZM284.2,1223.96h20.78c-.5-5.82-4.54-9.8-10.02-9.8s-10.14,4.2-10.75,9.8Z" style="fill: #040000;"/>
      <path d="M328.77,1233.48l2.41-2.35c3.47,3.58,8.06,5.43,13.44,5.43,6.83,0,11.65-3.3,11.65-7.9,0-3.98-2.97-6.22-11.54-8.74-7.73-2.3-14.28-4.65-14.28-11.26,0-6.22,5.26-10.19,13.89-10.19,5.6,0,10.92,2.35,14.34,6.44l-2.41,2.35c-2.86-3.42-7.22-5.43-11.93-5.43-6.72,0-10.53,2.69-10.53,6.83,0,3.3,2.74,5.26,10.92,7.73,8.01,2.41,14.9,4.98,14.9,12.26,0,6.55-6.22,11.26-15.01,11.26-6.33,0-11.87-2.3-15.85-6.44Z" style="fill: #040000;"/>
      <path d="M364.89,1225.36c0-8.06,6.5-14.56,14.56-14.56,4.14,0,7.9,1.74,10.53,4.54l-2.41,2.41c-2.02-2.18-4.93-3.58-8.12-3.58-6.16,0-11.2,5.04-11.2,11.2s5.04,11.14,11.2,11.14c3.19,0,6.1-1.34,8.12-3.53l2.41,2.41c-2.63,2.8-6.38,4.54-10.53,4.54-8.06,0-14.56-6.55-14.56-14.56Z" style="fill: #040000;"/>
      <path d="M396.42,1239.36v-40.32h3.36v17.53c1.79-3.53,5.54-5.77,9.74-5.77,6.38,0,11.03,4.26,11.03,11.65v16.91h-3.36v-16.74c0-6.22-3.58-8.9-8.06-8.9-4.98,0-9.35,3.58-9.35,9.97v15.68h-3.36Z" style="fill: #040000;"/>
      <path d="M429.4,1239.36v-28h3.36v5.43c1.74-4.03,5.66-5.99,9.91-5.99v2.91c-5.88,0-9.91,4.09-9.91,9.97v15.68h-3.36Z" style="fill: #040000;"/>
      <path d="M461.27,1210.8c4.93,0,9.35,3.08,11.2,6.78v-6.22h3.36v28h-3.36v-6.22c-1.85,3.7-6.27,6.78-11.2,6.78-8.06,0-14.56-6.55-14.56-14.56s6.5-14.56,14.56-14.56ZM450.07,1225.36c0,6.16,4.98,11.2,11.2,11.2s11.2-5.04,11.2-11.2-5.04-11.2-11.2-11.2-11.2,5.04-11.2,11.2Z" style="fill: #040000;"/>
      <path d="M484.62,1228.27v-16.91h3.36v16.74c0,6.22,3.53,8.9,8.06,8.9,4.98,0,9.35-3.58,9.35-9.97v-15.68h3.36v28h-3.36v-5.26c-1.79,3.58-5.54,5.82-9.8,5.82-6.33,0-10.98-4.26-10.98-11.65Z" style="fill: #040000;"/>
      <path d="M517.6,1199.04h3.36v18.54c1.85-3.7,6.27-6.78,11.2-6.78,8.01,0,14.56,6.55,14.56,14.56s-6.55,14.56-14.56,14.56c-4.93,0-9.35-3.08-11.2-6.78v6.22h-3.36v-40.32ZM520.96,1225.36c0,6.16,4.98,11.2,11.2,11.2s11.2-5.04,11.2-11.2-5.04-11.2-11.2-11.2-11.2,5.04-11.2,11.2Z" style="fill: #040000;"/>
      <path d="M566.1,1210.8c7.95,0,13.38,6.1,13.44,14.56,0,.62-.11,1.34-.11,1.96h-24.02c.84,5.38,5.32,9.18,11.2,9.18,3.42,0,6.66-1.29,8.85-3.7l2.41,2.41c-2.91,3.08-6.94,4.7-11.14,4.7-8.57,0-14.9-6.27-14.9-14.56s6.1-14.56,14.28-14.56ZM555.29,1223.96h20.78c-.5-5.82-4.54-9.8-10.02-9.8s-10.14,4.2-10.75,9.8Z" style="fill: #040000;"/>
    </g>
    <g>
      <path d="M140.67,1319.05h3.64l13.61,35.17,13.66-35.17h3.58l-15.62,40.32h-3.25l-15.62-40.32Z" style="fill: #040000;"/>
      <path d="M181.94,1318.49c1.18,0,2.18,1.01,2.18,2.24s-1.01,2.18-2.18,2.18-2.24-.95-2.24-2.18,1.01-2.24,2.24-2.24ZM180.26,1359.37v-28h3.36v28h-3.36Z" style="fill: #040000;"/>
      <path d="M192.42,1352.99c2.13,2.24,5.32,3.58,8.96,3.58,4.37,0,7.67-1.96,7.67-4.59,0-3.7-4.82-4.87-8.06-5.77-4.59-1.23-10.3-2.52-10.3-7.9,0-4.54,4.14-7.5,9.91-7.5,4.37,0,8.46,1.74,11.14,4.54l-2.35,2.41c-2.52-2.46-5.38-3.53-8.79-3.53-4.03,0-6.5,1.74-6.5,3.98,0,2.91,4.03,3.75,8.06,4.82,4.82,1.29,10.25,3.08,10.25,8.9,0,4.7-4.65,8.01-11.14,8.01-4.37,0-8.29-1.57-11.26-4.54l2.41-2.41Z" style="fill: #040000;"/>
      <path d="M237.83,1359.37h-3.36v-42h3.36v42Z" style="fill: #040000;"/>
      <path d="M273.89,1345.37c0,8.01-6.55,14.56-14.56,14.56s-14.56-6.55-14.56-14.56,6.5-14.56,14.56-14.56,14.56,6.5,14.56,14.56ZM259.33,1356.51c6.16,0,11.14-4.98,11.14-11.14s-4.98-11.2-11.14-11.2-11.2,5.04-11.2,11.2,5.04,11.14,11.2,11.14Z" style="fill: #040000;"/>
      <path d="M280.84,1359.37v-28h3.36v5.21c1.79-3.53,5.54-5.77,9.74-5.77,6.38,0,11.03,4.26,11.03,11.65v16.91h-3.36v-16.74c0-6.22-3.58-8.9-8.06-8.9-4.98,0-9.35,3.58-9.35,9.97v15.68h-3.36Z" style="fill: #040000;"/>
      <path d="M326.53,1330.81c4.93,0,9.35,3.08,11.2,6.78v-6.22h3.36v27.44c0,8.34-5.66,13.44-15.01,13.44-4.37,0-9.02-1.51-12.38-4.54l2.41-2.35c2.63,2.24,6.5,3.53,10.19,3.53,7.06,0,11.42-3.75,11.42-9.8v-5.94c-1.85,3.7-6.27,6.78-11.2,6.78-8.06,0-14.56-6.55-14.56-14.56s6.5-14.56,14.56-14.56ZM315.33,1345.37c0,6.16,4.98,11.2,11.2,11.2s11.2-5.04,11.2-11.2-5.04-11.2-11.2-11.2-11.2,5.04-11.2,11.2Z" style="fill: #040000;"/>
      <path d="M349.88,1348.28v-16.91h3.36v16.74c0,6.22,3.53,8.9,8.06,8.9,4.98,0,9.35-3.58,9.35-9.97v-15.68h3.36v28h-3.36v-5.26c-1.79,3.58-5.54,5.82-9.8,5.82-6.33,0-10.98-4.26-10.98-11.65Z" style="fill: #040000;"/>
      <path d="M395.3,1330.81c7.95,0,13.38,6.1,13.44,14.56,0,.62-.11,1.34-.11,1.96h-24.02c.84,5.38,5.32,9.18,11.2,9.18,3.42,0,6.66-1.29,8.85-3.7l2.41,2.41c-2.91,3.08-6.94,4.7-11.14,4.7-8.57,0-14.9-6.27-14.9-14.56s6.1-14.56,14.28-14.56ZM384.49,1343.97h20.78c-.5-5.82-4.54-9.8-10.02-9.8s-10.14,4.2-10.75,9.8Z" style="fill: #040000;"/>
    </g>
    <g>
      <path d="M140.67,1439.06h3.64l13.61,35.17,13.66-35.17h3.58l-15.62,40.32h-3.25l-15.62-40.32Z" style="fill: #040000;"/>
      <path d="M181.94,1438.5c1.18,0,2.18,1.01,2.18,2.24s-1.01,2.18-2.18,2.18-2.24-.95-2.24-2.18,1.01-2.24,2.24-2.24ZM180.26,1479.38v-28h3.36v28h-3.36Z" style="fill: #040000;"/>
      <path d="M189.45,1451.38h4.82c.84,0,1.4-.56,1.4-1.34v-6.16h3.36v7.5h9.02v3.36h-9.02v15.29c0,5.1,1.12,6.55,4.98,6.55,1.51,0,2.63-.17,4.03-.45v3.25c-1.23.34-2.69.56-4.37.56-5.82,0-8.01-2.69-8.01-9.8v-15.4h-6.22v-3.36Z" style="fill: #040000;"/>
      <path d="M227.47,1450.82c7.95,0,13.38,6.1,13.44,14.56,0,.62-.11,1.34-.11,1.96h-24.02c.84,5.38,5.32,9.18,11.2,9.18,3.42,0,6.66-1.29,8.85-3.7l2.41,2.41c-2.91,3.08-6.94,4.7-11.14,4.7-8.57,0-14.9-6.27-14.9-14.56s6.1-14.56,14.28-14.56ZM216.66,1463.98h20.78c-.5-5.82-4.54-9.8-10.02-9.8s-10.14,4.2-10.75,9.8Z" style="fill: #040000;"/>
      <path d="M266.84,1479.38h-3.36v-42h3.36v42Z" style="fill: #040000;"/>
      <path d="M275.63,1468.29v-16.91h3.36v16.74c0,6.22,3.53,8.9,8.06,8.9,4.98,0,9.35-3.58,9.35-9.97v-15.68h3.36v28h-3.36v-5.26c-1.79,3.58-5.54,5.82-9.8,5.82-6.33,0-10.98-4.26-10.98-11.65Z" style="fill: #040000;"/>
      <path d="M308.61,1479.38v-28h3.36v5.21c1.79-3.53,5.54-5.77,9.74-5.77,6.38,0,11.03,4.26,11.03,11.65v16.91h-3.36v-16.74c0-6.22-3.58-8.9-8.06-8.9-4.98,0-9.35,3.58-9.35,9.97v15.68h-3.36Z" style="fill: #040000;"/>
      <path d="M354.31,1450.82c4.93,0,9.35,3.08,11.2,6.78v-6.22h3.36v27.44c0,8.34-5.66,13.44-15.01,13.44-4.37,0-9.02-1.51-12.38-4.54l2.41-2.35c2.63,2.24,6.5,3.53,10.19,3.53,7.06,0,11.42-3.75,11.42-9.8v-5.94c-1.85,3.7-6.27,6.78-11.2,6.78-8.06,0-14.56-6.55-14.56-14.56s6.5-14.56,14.56-14.56ZM343.11,1465.38c0,6.16,4.98,11.2,11.2,11.2s11.2-5.04,11.2-11.2-5.04-11.2-11.2-11.2-11.2,5.04-11.2,11.2Z" style="fill: #040000;"/>
      <path d="M390.37,1450.82c4.93,0,9.35,3.08,11.2,6.78v-6.22h3.36v28h-3.36v-6.22c-1.85,3.7-6.27,6.78-11.2,6.78-8.06,0-14.56-6.55-14.56-14.56s6.5-14.56,14.56-14.56ZM379.17,1465.38c0,6.16,4.98,11.2,11.2,11.2s11.2-5.04,11.2-11.2-5.04-11.2-11.2-11.2-11.2,5.04-11.2,11.2Z" style="fill: #040000;"/>
    </g>
    <g>
      <path d="M148.9,1559.07v36.96h22.06v3.36h-25.42v-40.32h3.36Z" style="fill: #040000;"/>
      <path d="M190.18,1570.83c4.93,0,9.35,3.08,11.2,6.78v-6.22h3.36v28h-3.36v-6.22c-1.85,3.7-6.27,6.78-11.2,6.78-8.06,0-14.56-6.55-14.56-14.56s6.5-14.56,14.56-14.56ZM178.98,1585.39c0,6.16,4.98,11.2,11.2,11.2s11.2-5.04,11.2-11.2-5.04-11.2-11.2-11.2-11.2,5.04-11.2,11.2Z" style="fill: #040000;"/>
      <path d="M213.53,1599.39v-28h3.36v5.21c1.79-3.53,5.54-5.77,9.74-5.77,6.38,0,11.03,4.26,11.03,11.65v16.91h-3.36v-16.74c0-6.22-3.58-8.9-8.06-8.9-4.98,0-9.35,3.58-9.35,9.97v15.68h-3.36Z" style="fill: #040000;"/>
      <path d="M259.22,1570.83c4.93,0,9.35,3.08,11.2,6.78v-6.22h3.36v27.44c0,8.34-5.66,13.44-15.01,13.44-4.37,0-9.02-1.51-12.38-4.54l2.41-2.35c2.63,2.24,6.5,3.53,10.19,3.53,7.06,0,11.42-3.75,11.42-9.8v-5.94c-1.85,3.7-6.27,6.78-11.2,6.78-8.06,0-14.56-6.55-14.56-14.56s6.5-14.56,14.56-14.56ZM248.02,1585.39c0,6.16,4.98,11.2,11.2,11.2s11.2-5.04,11.2-11.2-5.04-11.2-11.2-11.2-11.2,5.04-11.2,11.2Z" style="fill: #040000;"/>
      <path d="M295.01,1570.83c7.95,0,13.38,6.1,13.44,14.56,0,.62-.11,1.34-.11,1.96h-24.02c.84,5.38,5.32,9.18,11.2,9.18,3.42,0,6.66-1.29,8.85-3.7l2.41,2.41c-2.91,3.08-6.94,4.7-11.14,4.7-8.57,0-14.9-6.27-14.9-14.56s6.1-14.56,14.28-14.56ZM284.2,1583.99h20.78c-.5-5.82-4.54-9.8-10.02-9.8s-10.14,4.2-10.75,9.8Z" style="fill: #040000;"/>
      <path d="M331.01,1593c2.13,2.24,5.32,3.58,8.96,3.58,4.37,0,7.67-1.96,7.67-4.59,0-3.7-4.82-4.87-8.06-5.77-4.59-1.23-10.3-2.52-10.3-7.9,0-4.54,4.14-7.5,9.91-7.5,4.37,0,8.46,1.74,11.14,4.54l-2.35,2.41c-2.52-2.46-5.38-3.53-8.79-3.53-4.03,0-6.5,1.74-6.5,3.98,0,2.91,4.03,3.75,8.06,4.82,4.82,1.29,10.25,3.08,10.25,8.9,0,4.7-4.65,8.01-11.14,8.01-4.37,0-8.29-1.57-11.26-4.54l2.41-2.41Z" style="fill: #040000;"/>
      <path d="M355.6,1585.39c0-8.06,6.5-14.56,14.56-14.56,4.14,0,7.9,1.74,10.53,4.54l-2.41,2.41c-2.02-2.18-4.93-3.58-8.12-3.58-6.16,0-11.2,5.04-11.2,11.2s5.04,11.14,11.2,11.14c3.19,0,6.1-1.34,8.12-3.53l2.41,2.41c-2.63,2.8-6.38,4.54-10.53,4.54-8.06,0-14.56-6.55-14.56-14.56Z" style="fill: #040000;"/>
      <path d="M387.12,1599.39v-40.32h3.36v17.53c1.79-3.53,5.54-5.77,9.74-5.77,6.38,0,11.03,4.26,11.03,11.65v16.91h-3.36v-16.74c0-6.22-3.58-8.9-8.06-8.9-4.98,0-9.35,3.58-9.35,9.97v15.68h-3.36Z" style="fill: #040000;"/>
      <path d="M420.11,1599.39v-28h3.36v5.43c1.74-4.03,5.66-5.99,9.91-5.99v2.91c-5.88,0-9.91,4.09-9.91,9.97v15.68h-3.36Z" style="fill: #040000;"/>
      <path d="M466.53,1585.39c0,8.01-6.55,14.56-14.56,14.56s-14.56-6.55-14.56-14.56,6.5-14.56,14.56-14.56,14.56,6.5,14.56,14.56ZM451.97,1596.53c6.16,0,11.14-4.98,11.14-11.14s-4.98-11.2-11.14-11.2-11.2,5.04-11.2,11.2,5.04,11.14,11.2,11.14Z" style="fill: #040000;"/>
      <path d="M485.91,1570.83c7.95,0,13.38,6.1,13.44,14.56,0,.62-.11,1.34-.11,1.96h-24.02c.84,5.38,5.32,9.18,11.2,9.18,3.42,0,6.66-1.29,8.85-3.7l2.41,2.41c-2.91,3.08-6.94,4.7-11.14,4.7-8.57,0-14.9-6.27-14.9-14.56s6.1-14.56,14.28-14.56ZM475.1,1583.99h20.78c-.5-5.82-4.54-9.8-10.02-9.8s-10.14,4.2-10.75,9.8Z" style="fill: #040000;"/>
      <path d="M503.32,1574.75v-3.36h5.54v-1.51c0-8.06,4.37-11.37,11.26-11.37h1.85v3.36h-1.85c-5.04,0-7.9,2.02-7.9,8.01v1.51h9.74v3.36h-9.74v24.64h-3.36v-24.64h-5.54Z" style="fill: #040000;"/>
    </g>
    <g>
      <path d="M173.77,1679.07v3.36h-14.45v36.96h-3.36v-36.96h-14.5v-3.36h32.31Z" style="fill: #040000;"/>
      <path d="M206.98,1705.39c0,8.01-6.55,14.56-14.56,14.56s-14.56-6.55-14.56-14.56,6.5-14.56,14.56-14.56,14.56,6.5,14.56,14.56ZM192.42,1716.54c6.16,0,11.14-4.98,11.14-11.14s-4.98-11.2-11.14-11.2-11.2,5.04-11.2,11.2,5.04,11.14,11.2,11.14Z" style="fill: #040000;"/>
      <path d="M213.92,1719.39v-28h3.36v5.43c1.74-4.03,5.66-5.99,9.91-5.99v2.91c-5.88,0-9.91,4.09-9.91,9.97v15.68h-3.36Z" style="fill: #040000;"/>
      <path d="M233.07,1719.39v-28h3.36v5.21c1.79-3.53,5.54-5.77,9.74-5.77,6.38,0,11.03,4.26,11.03,11.65v16.91h-3.36v-16.74c0-6.22-3.58-8.9-8.06-8.9-4.98,0-9.35,3.58-9.35,9.97v15.68h-3.36Z" style="fill: #040000;"/>
      <path d="M267.73,1678.51c1.18,0,2.18,1.01,2.18,2.24s-1.01,2.18-2.18,2.18-2.24-.95-2.24-2.18,1.01-2.24,2.24-2.24ZM266.05,1719.39v-28h3.36v28h-3.36Z" style="fill: #040000;"/>
      <path d="M281.57,1719.39h-3.36v-42h3.36v42Z" style="fill: #040000;"/>
      <path d="M293.72,1719.39h-3.36v-42h3.36v42Z" style="fill: #040000;"/>
      <path d="M329.78,1705.39c0,8.01-6.55,14.56-14.56,14.56s-14.56-6.55-14.56-14.56,6.5-14.56,14.56-14.56,14.56,6.5,14.56,14.56ZM315.22,1716.54c6.16,0,11.14-4.98,11.14-11.14s-4.98-11.2-11.14-11.2-11.2,5.04-11.2,11.2,5.04,11.14,11.2,11.14Z" style="fill: #040000;"/>
      <path d="M355.71,1719.39h-3.36v-42h3.36v42Z" style="fill: #040000;"/>
      <path d="M377.21,1690.83c4.93,0,9.35,3.08,11.2,6.78v-6.22h3.36v28h-3.36v-6.22c-1.85,3.7-6.27,6.78-11.2,6.78-8.06,0-14.56-6.55-14.56-14.56s6.5-14.56,14.56-14.56ZM366.01,1705.39c0,6.16,4.98,11.2,11.2,11.2s11.2-5.04,11.2-11.2-5.04-11.2-11.2-11.2-11.2,5.04-11.2,11.2Z" style="fill: #040000;"/>
      <path d="M400.56,1719.39v-28h3.36v5.43c1.74-4.03,5.66-5.99,9.91-5.99v2.91c-5.88,0-9.91,4.09-9.91,9.97v15.68h-3.36Z" style="fill: #040000;"/>
      <path d="M432.43,1690.83c4.93,0,9.35,3.08,11.2,6.78v-6.22h3.36v27.44c0,8.34-5.66,13.44-15.01,13.44-4.37,0-9.02-1.51-12.38-4.54l2.41-2.35c2.63,2.24,6.5,3.53,10.19,3.53,7.06,0,11.42-3.75,11.42-9.8v-5.94c-1.85,3.7-6.27,6.78-11.2,6.78-8.06,0-14.56-6.55-14.56-14.56s6.5-14.56,14.56-14.56ZM421.23,1705.39c0,6.16,4.98,11.2,11.2,11.2s11.2-5.04,11.2-11.2-5.04-11.2-11.2-11.2-11.2,5.04-11.2,11.2Z" style="fill: #040000;"/>
      <path d="M483.05,1705.39c0,8.01-6.55,14.56-14.56,14.56s-14.56-6.55-14.56-14.56,6.5-14.56,14.56-14.56,14.56,6.5,14.56,14.56ZM468.49,1716.54c6.16,0,11.14-4.98,11.14-11.14s-4.98-11.2-11.14-11.2-11.2,5.04-11.2,11.2,5.04,11.14,11.2,11.14Z" style="fill: #040000;"/>
    </g>
    <g>
      <path d="M145.54,1799.08h15.18c7.17,0,12.38,5.43,12.38,12.94s-5.21,12.88-12.38,12.88h-11.82v14.5h-3.36v-40.32ZM148.9,1802.44v19.1h11.82c5.21,0,9.02-4.03,9.02-9.58s-3.81-9.52-9.02-9.52h-11.82Z" style="fill: #040000;"/>
      <path d="M192.7,1810.84c4.93,0,9.35,3.08,11.2,6.78v-6.22h3.36v28h-3.36v-6.22c-1.85,3.7-6.27,6.78-11.2,6.78-8.06,0-14.56-6.55-14.56-14.56s6.5-14.56,14.56-14.56ZM181.5,1825.4c0,6.16,4.98,11.2,11.2,11.2s11.2-5.04,11.2-11.2-5.04-11.2-11.2-11.2-11.2,5.04-11.2,11.2Z" style="fill: #040000;"/>
      <path d="M216.05,1839.4v-28h3.36v5.43c1.74-4.03,5.66-5.99,9.91-5.99v2.91c-5.88,0-9.91,4.09-9.91,9.97v15.68h-3.36Z" style="fill: #040000;"/>
      <path d="M247.91,1810.84c4.93,0,9.35,3.08,11.2,6.78v-6.22h3.36v28h-3.36v-6.22c-1.85,3.7-6.27,6.78-11.2,6.78-8.06,0-14.56-6.55-14.56-14.56s6.5-14.56,14.56-14.56ZM236.71,1825.4c0,6.16,4.98,11.2,11.2,11.2s11.2-5.04,11.2-11.2-5.04-11.2-11.2-11.2-11.2,5.04-11.2,11.2Z" style="fill: #040000;"/>
      <path d="M268.29,1814.76v-3.36h5.54v-1.51c0-8.06,4.37-11.37,11.26-11.37h1.85v3.36h-1.85c-5.04,0-7.9,2.02-7.9,8.01v1.51h9.74v3.36h-9.74v24.64h-3.36v-24.64h-5.54Z" style="fill: #040000;"/>
      <path d="M292.77,1828.31v-16.91h3.36v16.74c0,6.22,3.53,8.9,8.06,8.9,4.98,0,9.35-3.58,9.35-9.97v-15.68h3.36v28h-3.36v-5.26c-1.79,3.58-5.54,5.82-9.8,5.82-6.33,0-10.98-4.26-10.98-11.65Z" style="fill: #040000;"/>
      <path d="M325.75,1833.02c2.13,2.24,5.32,3.58,8.96,3.58,4.37,0,7.67-1.96,7.67-4.59,0-3.7-4.82-4.87-8.06-5.77-4.59-1.23-10.3-2.52-10.3-7.9,0-4.54,4.14-7.5,9.91-7.5,4.37,0,8.46,1.74,11.14,4.54l-2.35,2.41c-2.52-2.46-5.38-3.53-8.79-3.53-4.03,0-6.5,1.74-6.5,3.98,0,2.91,4.03,3.75,8.06,4.82,4.82,1.29,10.25,3.08,10.25,8.9,0,4.7-4.65,8.01-11.14,8.01-4.37,0-8.29-1.57-11.26-4.54l2.41-2.41Z" style="fill: #040000;"/>
      <path d="M379.45,1825.4c0,8.01-6.55,14.56-14.56,14.56s-14.56-6.55-14.56-14.56,6.5-14.56,14.56-14.56,14.56,6.5,14.56,14.56ZM364.89,1836.54c6.16,0,11.14-4.98,11.14-11.14s-4.98-11.2-11.14-11.2-11.2,5.04-11.2,11.2,5.04,11.14,11.2,11.14Z" style="fill: #040000;"/>
      <path d="M405.38,1839.4h-3.36v-42h3.36v42Z" style="fill: #040000;"/>
      <path d="M441.44,1825.4c0,8.01-6.55,14.56-14.56,14.56s-14.56-6.55-14.56-14.56,6.5-14.56,14.56-14.56,14.56,6.5,14.56,14.56ZM426.88,1836.54c6.16,0,11.14-4.98,11.14-11.14s-4.98-11.2-11.14-11.2-11.2,5.04-11.2,11.2,5.04,11.14,11.2,11.14Z" style="fill: #040000;"/>
      <path d="M448.39,1839.4v-28h3.36v5.21c1.79-3.53,5.54-5.77,9.74-5.77,6.38,0,11.03,4.26,11.03,11.65v16.91h-3.36v-16.74c0-6.22-3.58-8.9-8.06-8.9-4.98,0-9.35,3.58-9.35,9.97v15.68h-3.36Z" style="fill: #040000;"/>
      <path d="M494.08,1810.84c4.93,0,9.35,3.08,11.2,6.78v-6.22h3.36v27.44c0,8.34-5.66,13.44-15.01,13.44-4.37,0-9.02-1.51-12.38-4.54l2.41-2.35c2.63,2.24,6.5,3.53,10.19,3.53,7.06,0,11.42-3.75,11.42-9.8v-5.94c-1.85,3.7-6.27,6.78-11.2,6.78-8.06,0-14.56-6.55-14.56-14.56s6.5-14.56,14.56-14.56ZM482.88,1825.4c0,6.16,4.98,11.2,11.2,11.2s11.2-5.04,11.2-11.2-5.04-11.2-11.2-11.2-11.2,5.04-11.2,11.2Z" style="fill: #040000;"/>
      <path d="M544.71,1825.4c0,8.01-6.55,14.56-14.56,14.56s-14.56-6.55-14.56-14.56,6.5-14.56,14.56-14.56,14.56,6.5,14.56,14.56ZM530.15,1836.54c6.16,0,11.14-4.98,11.14-11.14s-4.98-11.2-11.14-11.2-11.2,5.04-11.2,11.2,5.04,11.14,11.2,11.14Z" style="fill: #040000;"/>
    </g>
    <g>
      <path d="M145.54,1919.09h15.18c7.17,0,12.38,5.43,12.38,12.94s-5.21,12.88-12.38,12.88h-11.82v14.5h-3.36v-40.32ZM148.9,1922.45v19.1h11.82c5.21,0,9.02-4.03,9.02-9.58s-3.81-9.52-9.02-9.52h-11.82Z" style="fill: #040000;"/>
      <path d="M181.66,1918.53c1.18,0,2.18,1.01,2.18,2.24s-1.01,2.18-2.18,2.18-2.24-.95-2.24-2.18,1.01-2.24,2.24-2.24ZM179.98,1959.41v-28h3.36v28h-3.36Z" style="fill: #040000;"/>
      <path d="M189.17,1931.41h4.82c.84,0,1.4-.56,1.4-1.34v-6.16h3.36v7.5h9.02v3.36h-9.02v15.29c0,5.1,1.12,6.55,4.98,6.55,1.51,0,2.63-.17,4.03-.45v3.25c-1.23.34-2.69.56-4.37.56-5.82,0-8.01-2.69-8.01-9.8v-15.4h-6.22v-3.36Z" style="fill: #040000;"/>
      <path d="M214.76,1959.41v-40.32h3.36v24.58l13.44-12.26h4.82l-14.73,13.5,15.51,14.5h-4.76l-14.28-13.27v13.27h-3.36Z" style="fill: #040000;"/>
      <path d="M255.3,1930.85c4.93,0,9.35,3.08,11.2,6.78v-6.22h3.36v28h-3.36v-6.22c-1.85,3.7-6.27,6.78-11.2,6.78-8.06,0-14.56-6.55-14.56-14.56s6.5-14.56,14.56-14.56ZM255.3,1956.61c6.16,0,11.2-5.04,11.2-11.2s-5.04-11.2-11.2-11.2-11.2,5.04-11.2,11.2,4.98,11.2,11.2,11.2ZM250.21,1918.53c1.23,0,2.24,1.01,2.24,2.24s-1.01,2.18-2.24,2.18-2.18-.95-2.18-2.18.95-2.24,2.18-2.24ZM258.38,1920.77c0-1.23,1.01-2.24,2.24-2.24s2.24,1.01,2.24,2.24-1.01,2.18-2.24,2.18-2.24-.95-2.24-2.18Z" style="fill: #040000;"/>
      <path d="M294.28,1959.41v-28h3.36v5.43c1.74-4.03,5.66-5.99,9.91-5.99v2.91c-5.88,0-9.91,4.09-9.91,9.97v15.68h-3.36Z" style="fill: #040000;"/>
      <path d="M313.43,1948.32v-16.91h3.36v16.74c0,6.22,3.53,8.9,8.06,8.9,4.98,0,9.35-3.58,9.35-9.97v-15.68h3.36v28h-3.36v-5.26c-1.79,3.58-5.54,5.82-9.8,5.82-6.33,0-10.98-4.26-10.98-11.65Z" style="fill: #040000;"/>
      <path d="M346.41,1948.32v-16.91h3.36v16.74c0,6.22,3.53,8.9,8.06,8.9,4.98,0,9.35-3.58,9.35-9.97v-15.68h3.36v28h-3.36v-5.26c-1.79,3.58-5.54,5.82-9.8,5.82-6.33,0-10.98-4.26-10.98-11.65Z" style="fill: #040000;"/>
      <path d="M379.34,1931.41l10.64,23.86,10.64-23.86h3.7l-12.43,28h-3.75l-12.43-28h3.64Z" style="fill: #040000;"/>
      <path d="M411.15,1918.53c1.18,0,2.18,1.01,2.18,2.24s-1.01,2.18-2.18,2.18-2.24-.95-2.24-2.18,1.01-2.24,2.24-2.24ZM409.47,1959.41v-28h3.36v28h-3.36Z" style="fill: #040000;"/>
    </g>
  </g>
</svg>