<?xml version="1.0" encoding="UTF-8"?>
<svg id="_圖層_1" data-name="圖層 1" xmlns="http://www.w3.org/2000/svg" xmlns:xlink="http://www.w3.org/1999/xlink" viewBox="0 0 1170 2182.68">
  <defs>
    <clipPath id="clippath">
      <rect y="-174.66" width="1170" height="2532" style="fill: none;"/>
    </clipPath>
    <clipPath id="clippath-1">
      <rect y="-174.66" width="1170" height="2532" style="fill: none;"/>
    </clipPath>
    <clipPath id="clippath-2">
      <rect y="-174.66" width="1170" height="2532" style="fill: none;"/>
    </clipPath>
  </defs>
  <g style="clip-path: url(#clippath);">
    <text transform="translate(401.4 193.37)" style="fill: #040000; font-family: MusticaPro-Bold, &apos;Mustica Pro&apos;; font-size: 60px; font-weight: 700;"><tspan x="0" y="0" style="letter-spacing: -.03em;">A</tspan><tspan x="40.8" y="0" style="letter-spacing: -.02em;">cc</tspan><tspan x="97.68" y="0" style="letter-spacing: 0em;">e</tspan><tspan x="130.38" y="0">ss</tspan><tspan x="187.74" y="0" style="letter-spacing: 0em;">o</tspan><tspan x="222" y="0">ry Kit</tspan></text>
    <text transform="translate(197.98 746.94)" style="fill: #040000; font-family: MusticaPro-Regular, &apos;Mustica Pro&apos;; font-size: 48px;"><tspan x="0" y="0">Long screw</tspan></text>
    <text transform="translate(197.98 801.95)" style="fill: #040000; font-family: MusticaPro-Regular, &apos;Mustica Pro&apos;; font-size: 48px;"><tspan x="0" y="0">6-32×36mm</tspan></text>
    <text transform="translate(880.52 785.67)" style="fill: #040000; font-family: MusticaPro-Regular, &apos;Mustica Pro&apos;; font-size: 80px;"><tspan x="0" y="0">×12</tspan></text>
    <g style="clip-path: url(#clippath-1);">
      <path d="M181.51,607.17h808.3c22.91,0,41.51,18.6,41.51,41.51v214.99c0,22.91-18.6,41.51-41.51,41.51H181.51c-22.91,0-41.51-18.6-41.51-41.51v-214.99c0-22.91,18.6-41.51,41.51-41.51Z" style="fill: none; stroke: #040000; stroke-miterlimit: 10;"/>
      <polygon points="787.08 690.4 786.8 690.13 785.58 691.18 784.23 692.03 782.74 692.7 781.1 693.18 779.33 693.47 777.45 693.57 775.47 693.47 773.4 693.18 771.26 692.7 769.08 692.02 766.85 691.16 764.61 690.13 762.37 688.92 760.14 687.56 757.95 686.04 755.81 684.38 753.73 682.6 751.74 680.71 749.85 678.71 748.06 676.64 746.41 674.5 744.89 672.3 743.52 670.08 742.32 667.84 741.28 665.6 740.42 663.37 739.75 661.19 739.26 659.05 738.97 656.99 738.87 655.01 738.97 653.13 739.26 651.37 739.74 649.73 740.4 648.23 741.24 646.88 742.28 645.67 742.39 645.56 742.12 645.28 742 645.4 742.14 645.54 742 645.4 733.76 653.64 733.78 653.66 733.75 653.65 733.55 653.89 733.29 654.14 732.3 655.42 731.47 656.83 730.82 658.37 730.34 660.04 730.04 661.81 729.92 663.69 729.98 665.65 730.23 667.68 730.66 669.78 731.27 671.91 732.05 674.06 733 676.23 734.1 678.4 734.61 679.27 588.96 824.92 589.1 825.06 588.96 824.92 588.78 825.11 588.52 825.1 588.23 825.15 588.23 825.1 587.77 825.11 586.41 825.47 585.41 826.03 584.69 826.67 583.79 828.26 583.61 828.97 584 829.06 584.15 828.43 584.21 828.32 583.99 829.36 583.78 829.35 583.78 829.34 583.6 829.34 583.6 829.36 583.44 829.37 583.46 829.57 583.39 829.38 583.35 829.39 583.34 829.33 583.11 829.36 582.17 829.66 581.31 830.14 580.56 830.81 579.94 831.69 579.48 832.95 579.42 833.48 578.4 833.68 577.26 834.23 576.48 834.87 575.51 836.46 575.24 837.49 575.22 837.63 574.93 837.66 574.02 837.92 572.38 838.97 571.72 839.84 571.22 840.98 571.09 841.81 570.31 841.93 569.19 842.4 568.28 843.08 567.65 843.84 567.21 844.71 566.94 845.66 566.91 845.95 566.76 845.96 565.82 846.2 564.19 847.17 563.52 847.97 563 848.99 562.69 850.44 562.7 851.32 563.1 851.32 563.08 850.47 563.34 849.24 563.14 850.58 563.26 852.22 563.71 853.97 564.46 855.8 565.53 857.68 566.89 859.56 568.49 861.35 570.24 862.98 572.17 864.45 574.24 865.72 576.36 866.73 578.46 867.43 580.46 867.83 582.08 867.89 581.25 867.97 578.96 867.71 576.54 866.99 574.04 865.85 571.61 864.34 569.39 862.55 567.4 860.53 565.7 858.35 564.39 856.12 563.54 854 563.12 852.01 563.14 851.51 562.74 851.5 562.73 852.04 562.94 853.02 562.69 853.29 562.21 854.33 562 855.66 562.11 857.1 562.33 857.94 562.3 857.95 563.06 860.77 563.25 860.72 563.06 860.78 563.24 861.37 563.74 862.56 564.42 863.75 565.25 864.9 566.21 865.99 567.28 866.97 568.42 867.84 569.6 868.55 570.79 869.1 571.66 869.38 571.72 869.19 571.67 869.38 575.39 870.38 575.4 870.35 576.01 870.53 577.85 870.78 579.58 870.73 581.19 870.32 582.52 869.61 583.62 868.55 583.9 868.09 584.78 867.85 586.06 867.22 587.15 866.37 588.03 865.32 588.7 864.07 588.82 863.7 589.91 863.24 591.32 862.2 591.34 862.18 592.47 860.71 592.98 859.54 593.32 859.44 594.58 858.76 595.63 857.89 596.48 856.81 597.12 855.52 597.15 855.39 598.54 854.73 599.97 853.54 599.99 853.52 600.98 852.04 601.31 851.21 601.87 851.01 603.1 850.31 604.11 849.4 604.93 848.28 605.49 847.05 605.75 846.97 606.75 846.48 607.74 845.76 608.6 844.85 609.2 843.93 609.58 843.12 609.8 842.46 610.01 841.61 610.09 840.91 753.17 697.83 753.76 698.18 755.92 699.31 758.09 700.27 760.26 701.08 762.4 701.71 764.51 702.17 766.57 702.44 768.57 702.52 770.49 702.42 772.32 702.12 774.03 701.64 775.62 700.97 777.06 700.12 778.34 699.11 778.57 698.88 778.79 698.69 778.77 698.67 778.8 698.68 787.08 690.4" style="fill: #e5e5e5;"/>
      <polygon points="742.94 645.06 744.22 644.12 745.64 643.33 747.21 642.71 748.9 642.27 750.7 642.02 752.6 641.95 754.58 642.07 756.62 642.37 758.7 642.86 760.83 643.51 762.97 644.34 765.11 645.33 766.16 645.88 764.71 645.15 762.52 644.21 760.35 643.45 758.22 642.88 756.15 642.51 754.15 642.33 752.24 642.34 750.44 642.56 748.75 642.97 747.21 643.58 745.8 644.39 744.56 645.37 743.49 646.53 742.6 647.85 741.9 649.33 741.39 650.95 741.08 652.69 740.96 654.55 741.05 656.5 741.33 658.54 741.8 660.64 742.47 662.79 743.32 664.97 744.35 667.17 745.54 669.36 746.9 671.54 748.41 673.67 750.05 675.76 751.82 677.77 753.7 679.7 755.67 681.52 757.72 683.23 759.83 684.81 762 686.24 764.18 687.52 766.38 688.63 768.58 689.57 770.75 690.33 772.88 690.9 774.95 691.28 776.94 691.46 778.85 691.44 780.66 691.22 782.34 690.81 783.89 690.2 785.29 689.4 786.53 688.41 787.6 687.25 788.49 685.93 789.2 684.45 789.7 682.83 790.02 681.09 790.13 679.24 790.04 677.28 789.76 675.25 789.29 673.16 788.62 671 787.77 668.82 786.84 666.82 787.64 668.43 788.54 670.57 789.28 672.7 789.6 673.83 790.11 676.07 790.39 678.08 790.49 680.03 790.41 681.88 790.15 683.63 789.72 685.27 789.11 686.79 788.34 688.19 787.41 689.46 786.78 690.1 787.06 690.38 787.71 689.71 788.68 688.4 789.47 686.96 790.09 685.39 790.53 683.71 790.8 681.92 790.88 680.03 790.78 678.04 790.5 676 790.06 674.01 789.98 673.72 789.79 673.77 789.98 673.72 789.66 672.58 788.91 670.43 788 668.26 786.92 666.1 785.7 663.94 784.33 661.82 782.83 659.74 781.22 657.71 779.49 655.76 777.66 653.88 775.74 652.1 773.75 650.42 771.69 648.86 769.59 647.43 767.45 646.13 765.29 644.98 763.12 643.98 760.95 643.14 758.81 642.48 756.69 641.99 754.62 641.68 752.61 641.56 750.67 641.63 748.82 641.89 747.09 642.34 745.48 642.97 744.01 643.78 742.69 644.76 742.15 645.29 742.42 645.57 742.94 645.06" style="fill: #e5e5e5;"/>
      <path d="M588.45,825.31l-1.31.21-1.17.55-.89.84-.61,1.12-.29,1.37.04,1.57.36,1.7.67,1.78.99,1.86,1.29,1.87,1.53,1.8,1.71,1.66,1.87,1.5,2.02,1.31,2.1,1.06,2.08.77,2,.46,1.92.15,1.8-.18,1.6-.52,1.34-.82,1.05-1.1.78-1.39.47-1.64.03-.36M583.45,829.57l-1.26.44-.99.74-.71,1.02-.41,1.29-.08,1.51.25,1.66.56,1.75.88,1.84,1.19,1.88,1.45,1.83,1.65,1.72,1.8,1.55,1.98,1.39,2.08,1.16,2.1.88,2.03.57,1.95.26,1.85-.06,1.68-.4,1.44-.72,1.15-1,.88-1.28.24-.64M579.59,833.7l-1.14.28-1.09.64-.81.92-.52,1.19-.2,1.44.13,1.62.45,1.73.76,1.81,1.08,1.87,1.37,1.86,1.59,1.76,1.75,1.61,1.92,1.45,2.06,1.24,2.1.98,2.07.68,1.97.37,1.9.05,1.75-.28,1.53-.61,1.26-.9.97-1.18.54-1.14M575.4,837.89l-.67.1-1.19.53-.91.82-.63,1.1-.32,1.36.02,1.56.34,1.7.65,1.78.97,1.86,1.27,1.87,1.52,1.81,1.7,1.67,1.86,1.51,2.02,1.32,2.1,1.08,2.09.79,2,.48,1.93.17,1.81-.16,1.62-.5,1.36-.81,1.07-1.08.8-1.37.06-.2M571.25,842.03l-.21.02-1.28.42-1.01.72-.73,1-.43,1.27-.1,1.49.23,1.66.54,1.75.86,1.84,1.17,1.88,1.44,1.84,1.64,1.72,1.79,1.56,1.97,1.4,2.08,1.17,2.1.9,2.04.59,1.95.28,1.86-.04,1.7-.38,1.46-.7,1.17-.98.9-1.26.28-.73M567.3,846.15l-1.27.29-1.11.62-.83.9-.54,1.18-.22,1.42.12,1.61.43,1.72.74,1.8,1.06,1.87,1.35,1.86,1.58,1.77,1.74,1.62,1.91,1.46,2.05,1.26,2.1,1,2.07.7,1.97.39,1.9.07,1.76-.26,1.55-.59,1.27-.89.99-1.16.58-1.19M753.43,669.23l2.86-3.88M767.09,676.14l-3.88,2.86M778.66,698.54l-1.21,1.04-1.37.86-1.52.68-1.66.49-1.79.29-1.9.1-2-.1-2.08-.29-2.15-.49-2.2-.68-2.24-.86-2.25-1.04-2.25-1.21-2.24-1.37-2.2-1.52-2.15-1.66-2.08-1.79-2-1.9-1.9-2-1.79-2.08-1.66-2.15-1.52-2.2-1.37-2.24-1.21-2.25-1.04-2.25-.86-2.23-.68-2.2-.49-2.15-.29-2.08-.1-2,.1-1.9.29-1.79.49-1.66.68-1.52.86-1.37,1.04-1.21M786.94,690.26l-.04.04-1.21,1.04-1.37.86-1.52.68-1.66.49-1.79.29-1.9.1-2-.1-2.08-.3-2.15-.49-2.2-.68-2.23-.86-2.25-1.04-2.25-1.21-2.24-1.37-2.2-1.52-2.15-1.66-2.08-1.79-2-1.9-1.9-2-1.79-2.08-1.66-2.15-1.52-2.2-1.37-2.24-1.21-2.25-1.04-2.25-.86-2.23-.68-2.2-.49-2.15-.29-2.08-.1-2,.1-1.9.29-1.79.49-1.66.68-1.52.86-1.37,1.04-1.21M571.72,869.19l-.86-.28-1.17-.54-1.16-.7-1.12-.85-1.05-.97-.95-1.07-.82-1.14-.66-1.17-.49-1.17-.17-.57M583.8,829.35l-.05,1.83.42,2.04.86,2.16,1.32,2.25,1.72,2.21,2.01,2.04,2.23,1.8,2.45,1.53,2.52,1.15,2.45.72,2.32.27.46-.04M579.59,834.98v.37s.41,2.04.41,2.04l.86,2.16,1.32,2.25,1.72,2.21,2,2.04,2.23,1.8,2.45,1.53,2.52,1.15,2.45.72,2.32.27,2.17-.2M575.43,839.06v.45s.41,2.04.41,2.04l.86,2.16,1.32,2.25,1.72,2.21,2.01,2.04,2.23,1.8,2.45,1.53,2.52,1.15,2.45.72,2.32.27,2.17-.2M571.27,843.21v.46s.4,2.04.4,2.04l.86,2.16,1.32,2.25,1.72,2.21,2.01,2.03,2.23,1.8,2.45,1.53,2.52,1.15,2.45.72,2.32.27,2.17-.2M567.1,847.31l-.02.53.42,2.04.86,2.16,1.32,2.25,1.72,2.21,2.01,2.04,2.23,1.8,2.45,1.53,2.52,1.15,2.45.72,2.32.27,2.17-.2M562.94,851.5l-.02.5.42,2.04.86,2.16,1.32,2.25,1.72,2.21,2.01,2.03,2.23,1.8,2.45,1.53,2.52,1.15,2.45.72,2.32.27,2.17-.21M583.77,867.92l-.29.49-1.05,1.02-1.33.71-1.56.39-1.69.05-1.82-.26-1.9-.56-1.93-.85-1.84-1.08-1.76-1.3-1.62-1.46-1.45-1.59-1.2-1.64-.96-1.66-.68-1.6-.4-1.54-.1-1.4.18-1.23.45-.99.31-.35M588.99,825.32l-.44-.03-.1.02M583.79,829.54l-.34.03M584.12,833.03l-.2.47-.06,1.5.39,1.7.81,1.82,1.24,1.89,1.59,1.81,1.82,1.62,2.06,1.39,2.18,1.07,2.15.67,2.04.25,1.5-.16M579.96,837.19l-.2.47-.06,1.5.39,1.7.81,1.82,1.24,1.89,1.59,1.81,1.83,1.62,2.06,1.39,2.18,1.07,2.15.67,2.04.25,1.5-.17M575.8,841.35l-.2.47-.06,1.5.38,1.7.81,1.82,1.24,1.89,1.59,1.81,1.82,1.62,2.06,1.39,2.18,1.07,2.14.67,2.04.25,1.5-.16M571.63,845.52l-.2.47-.06,1.5.39,1.7.81,1.82,1.24,1.89,1.59,1.81,1.82,1.62,2.06,1.39,2.18,1.07,2.14.67,2.04.25,1.5-.17M567.47,849.68l-.2.47-.06,1.5.39,1.7.81,1.82,1.24,1.89,1.59,1.81,1.83,1.62,2.06,1.39,2.18,1.07,2.14.67,2.04.25,1.5-.16M563.3,853.85l-.2.47-.06,1.5.39,1.7.81,1.82,1.24,1.89,1.59,1.81,1.83,1.62,2.06,1.39,2.18,1.07,2.14.67,2.04.25,1.5-.16M773.9,674.72l3.67-3.67M757.72,658.54l3.67-3.67M768.31,668.57l-5.6,5.6M758.27,669.73l5.6-5.6M607.24,843.48l-.86.61-1.01.42-1.15.22h-1.27s-1.36-.18-1.36-.18l-1.42-.39-1.46-.59-1.47-.77-1.45-.93-1.4-1.08-1.33-1.21-1.23-1.31-1.1-1.39-.96-1.44-.79-1.47-.61-1.46-.42-1.43-.22-1.37-.02-1.28.19-1.17.39-1.03.58-.88.24-.26M607.24,843.48l.14-.18M762.71,674.17l3.23.86M758.69,670.78l-.17-.35-.25-.7M762.71,674.17l-.7-.25-.35-.17M757.41,666.5l.87,3.22M769.57,685.4l-2.48-9.25M769.57,685.4l-5.01-1.34M764.56,684.06l-2.48-9.25M757.64,670.36l.7.25.71.38.69.49.65.58.58.65.49.69.38.71.25.7M757.64,670.36l-9.25-2.48M748.38,667.88l-1.34-5.01M756.29,665.35l-9.25-2.48M758.86,662.79l.12.67-.02.61-.16.52-.29.41-.41.29-.52.16-.61.02-.67-.12M758.86,662.79l-2.48-9.25M761.39,654.88l-5.01-1.34M763.87,664.13l-2.48-9.25M768.31,668.57l-.7-.25-.71-.37-.69-.49-.65-.58-.58-.65-.49-.69-.38-.71-.25-.7M777.56,671.05l-9.25-2.48M778.91,676.06l-1.34-5.01M778.91,676.06l-9.25-2.48M767.09,676.14l-.12-.67.02-.6.16-.52.29-.42.42-.29.52-.16.6-.02.67.11M784.31,688.23l.25-.39.71-1.4.52-1.54.33-1.68.13-1.79-.07-1.9-.26-1.98-.46-2.05-.65-2.1-.84-2.14-1.02-2.15-1.19-2.15-1.35-2.13-1.5-2.09-1.63-2.03-1.76-1.95-1.86-1.86-1.95-1.76-2.03-1.64-2.09-1.5-2.13-1.35-2.15-1.19-2.15-1.02-2.13-.84-2.1-.65-2.05-.46-1.98-.26-1.9-.07-1.79.13-1.67.33-1.54.52-1.4.72-.39.25M743.05,660.86l.65,2.1.84,2.14,1.02,2.15,1.19,2.15,1.35,2.13,1.5,2.09,1.63,2.03,1.76,1.95,1.86,1.86,1.95,1.76,2.03,1.64,2.09,1.5,2.13,1.35,2.15,1.19,2.15,1.02,2.14.84,2.1.65,2.05.46,1.98.27,1.89.07,1.79-.13,1.68-.33,1.54-.53,1.4-.71,1.24-.9,1.08-1.07.9-1.24.71-1.4.52-1.55.33-1.68.13-1.79-.07-1.9-.26-1.98-.46-2.05-.65-2.1-.84-2.14-1.02-2.15-1.19-2.15-1.35-2.13-1.5-2.08-1.63-2.03-1.76-1.95-1.86-1.86-1.95-1.76-2.03-1.64-2.08-1.5-2.13-1.35-2.15-1.19-2.15-1.02-2.14-.84-2.1-.65-2.05-.46-1.98-.27-1.9-.07-1.79.13-1.68.33-1.55.53-1.4.71-1.24.9-1.07,1.07-.9,1.24-.71,1.4-.53,1.55-.33,1.68-.13,1.79.07,1.9.26,1.98.46,2.05M789.1,673.2l.47,2.09.28,2.02.08,1.93-.11,1.83-.31,1.72-.5,1.59-.69,1.45-.88,1.3-1.05,1.14-1.22.97-1.38.78-1.52.6-1.66.41-1.78.21-1.89.02-1.98-.18-2.05-.38-2.11-.57-2.15-.75-2.18-.93-2.19-1.11-2.18-1.27-2.15-1.43-2.1-1.57-2.04-1.7-1.96-1.82-1.87-1.92-1.76-2.01-1.64-2.08-1.5-2.13-1.35-2.17-1.19-2.19-1.02-2.19-.85-2.17-.66-2.14-.47-2.09-.28-2.02-.08-1.93.11-1.83.31-1.72.5-1.59.69-1.45.88-1.3,1.05-1.14,1.22-.96,1.38-.78,1.52-.6,1.66-.41,1.78-.21,1.89-.02,1.98.18,2.06.38,2.11.57,2.16.75,2.18.94,2.19,1.11,2.18,1.27,2.15,1.43,2.1,1.57,2.04,1.7,1.96,1.82,1.87,1.92,1.76,2.01,1.64,2.08,1.5,2.13,1.35,2.17,1.19,2.19,1.02,2.19.84,2.17.66,2.14M742.14,645.54l.12-.12M571.72,869.19l3.72,1M562.49,857.9l.75,2.82M567.07,846.13l-.26.02-.95.24-1.55.93-.62.73-.51,1.02-.3,1.36.02.89M583.73,867.93l.96-.26,1.25-.61,1.06-.82.86-1.01.66-1.22.14-.46M571.26,841.99l-.88.13-1.12.47-.83.62-.61.73-.43.83-.27.91-.12,1.13.02.32M587.9,863.77l.51-.11,1.38-.58,1.41-1.04,1.09-1.41.55-1.25M575.41,837.81l-.42.04-.92.26-1.55,1.01-.62.8-.48,1.1-.23,1.43.04.59M591.76,859.69h.08s1.4-.43,1.4-.43l1.22-.65,1.02-.85.83-1.05.62-1.25.06-.22M579.6,833.64l-1.16.23-1.05.5-.76.63-.96,1.56-.24.94-.09,1.19.02.19M596.22,855.44l.8-.2,1.43-.68,1.38-1.17.96-1.42.36-.92M583.37,829.53l-.2.02-.9.28-.83.45-.73.64-.61.88-.43,1.17-.16,1.48.03.35M600.14,851.34l.26-.04,1.37-.46,1.19-.68.99-.88.8-1.08.59-1.28v-.03M588.23,825.3h-.42s-1.31.34-1.31.34l-.97.53-.69.63-.89,1.56-.15.65M602.66,847.37h.23s1.4-.17,1.4-.17l1.38-.41.98-.48.96-.69.84-.89.58-.89.37-.79.22-.65.2-.83.09-.76M755.07,669.67l3.58-4.85M767.62,673.79l-4.85,3.57M734.86,679.3l-145.76,145.76M607.38,843.34l145.75-145.75M734.05,653.67l-.6.59-.98,1.26-.81,1.39-.65,1.52-.47,1.64-.3,1.75-.12,1.86.06,1.94.25,2.02.43,2.08.6,2.12.78,2.15.94,2.16,1.1,2.16,1.25,2.14,1.38,2.11,1.52,2.06,1.63,2.01,1.74,1.94,1.84,1.85,1.93,1.76,2,1.65,2.06,1.53,2.1,1.4,2.13,1.27,2.15,1.12,2.16.96,2.15.8,2.13.63,2.09.45,2.04.27,1.98.09,1.9-.1,1.8-.29,1.69-.48,1.56-.66,1.42-.83,1.27-.99.48-.49M742.14,645.54l-8.24,8.24M778.66,698.54l8.24-8.24M789.79,673.77l-.32-1.12-.74-2.14-.91-2.16-1.07-2.16-1.22-2.14-1.36-2.11-1.49-2.07-1.61-2.02-1.72-1.95-1.82-1.87-1.91-1.78-1.99-1.67-2.04-1.56-2.09-1.43-2.13-1.29-2.15-1.15-2.16-.99-2.15-.83-2.13-.66-2.1-.49-2.05-.31-1.99-.12-1.92.07-1.82.26-1.71.44-1.59.62-1.45.8-1.3.96-.54.53M786.92,690.24l.63-.65.95-1.29.78-1.42.62-1.54.44-1.66.26-1.77.08-1.87-.1-1.96-.28-2.03-.44-1.98-.08-.29" style="fill: none; stroke: #040000; stroke-miterlimit: 10;"/>
    </g>
    <text transform="translate(561.5 2142.34)" style="fill: #221714; font-family: MusticaPro-Medium, &apos;Mustica Pro&apos;; font-size: 40px; font-weight: 500;"><tspan x="0" y="0">20</tspan></text>
    <text transform="translate(456.72 433.85)" style="fill: #040000; font-family: MusticaPro-Medium, &apos;Mustica Pro&apos;; font-size: 50px; font-weight: 500;"><tspan x="0" y="0">Triple Pack</tspan></text>
    <g style="clip-path: url(#clippath-2);">
      <rect x="503.87" y="482.02" width="44.35" height="44.35" style="fill: #cf391a;"/>
      <rect x="562.82" y="482.02" width="44.35" height="44.35" style="fill: #cf391a;"/>
      <rect x="621.78" y="482.02" width="44.35" height="44.35" style="fill: #cf391a;"/>
    </g>
    <text transform="translate(140 1119.35)" style="fill: #040000; font-family: MusticaPro-Light, &apos;Mustica Pro&apos;; font-size: 56px; font-weight: 300;"><tspan x="0" y="0">Long screw</tspan></text>
    <text transform="translate(140 1239.36)" style="fill: #040000; font-family: MusticaPro-Light, &apos;Mustica Pro&apos;; font-size: 56px; font-weight: 300;"><tspan x="0" y="0">Lange Schraube</tspan></text>
    <text transform="translate(140 1359.37)" style="fill: #040000; font-family: MusticaPro-Light, &apos;Mustica Pro&apos;; font-size: 56px; font-weight: 300;"><tspan x="0" y="0">Vis longue</tspan></text>
    <text transform="translate(140 1479.38)" style="fill: #040000; font-family: MusticaPro-Light, &apos;Mustica Pro&apos;; font-size: 56px; font-weight: 300;"><tspan x="0" y="0">Vite lunga</tspan></text>
    <text transform="translate(140 1599.39)" style="fill: #040000; font-family: MusticaPro-Light, &apos;Mustica Pro&apos;; font-size: 56px; font-weight: 300;"><tspan x="0" y="0">Lange schroef</tspan></text>
    <text transform="translate(140 1719.39)" style="fill: #040000; font-family: MusticaPro-Light, &apos;Mustica Pro&apos;; font-size: 56px; font-weight: 300;"><tspan x="0" y="0">Tornillo largo</tspan></text>
    <text transform="translate(140 1839.4)" style="fill: #040000; font-family: MusticaPro-Light, &apos;Mustica Pro&apos;; font-size: 56px; font-weight: 300;"><tspan x="0" y="0">Parafuso longo</tspan></text>
    <text transform="translate(140 1959.41)" style="fill: #040000; font-family: MusticaPro-Light, &apos;Mustica Pro&apos;; font-size: 56px; font-weight: 300;"><tspan x="0" y="0">Pitkä ruuvi</tspan></text>
  </g>
</svg>