<?xml version="1.0" encoding="UTF-8"?>
<svg id="_圖層_1" data-name="圖層 1" xmlns="http://www.w3.org/2000/svg" xmlns:xlink="http://www.w3.org/1999/xlink" viewBox="0 0 1170 2182.68">
  <defs>
    <clipPath id="clippath">
      <rect y="-174.66" width="1170" height="2532" style="fill: none;"/>
    </clipPath>
  </defs>
  <g style="clip-path: url(#clippath);">
    <g>
      <path d="M243.87,148.5c6.42,0,12.18,2.7,16.26,7.08l-5.82,5.82c-2.58-2.88-6.3-4.68-10.44-4.68-7.74,0-13.98,6.24-13.98,13.98s6.24,13.98,13.98,13.98c4.14,0,7.86-1.8,10.44-4.68l5.82,5.82c-4.08,4.32-9.84,7.08-16.26,7.08-12.24,0-22.2-9.96-22.2-22.2s9.96-22.2,22.2-22.2Z" style="fill: #040000;"/>
      <path d="M272.13,192.29h-8.22v-45h8.22v45Z" style="fill: #040000;"/>
      <path d="M291.87,161.7c8.58,0,14.34,6.18,14.34,15,0,1.26-.12,2.58-.3,3.9h-21.36c1.14,3.24,4.2,5.1,8.04,5.1,2.7,0,5.28-.96,6.84-2.76l5.04,5.04c-2.76,3.06-6.84,4.92-12.06,4.92-8.94,0-15.84-6.84-15.84-15.6s6.66-15.6,15.3-15.6ZM284.37,174.71h14.34c-.48-3.66-3.54-5.88-7.02-5.88s-6.72,2.28-7.32,5.88Z" style="fill: #040000;"/>
      <path d="M324.09,161.7c3.42,0,6.48,1.56,8.46,3.72v-3.12h8.22v30h-8.22v-3.24c-1.98,2.22-5.04,3.84-8.46,3.84-8.58,0-14.52-6.96-14.52-15.6s5.94-15.6,14.52-15.6ZM317.79,177.29c0,4.08,3.3,7.38,7.38,7.38s7.38-3.3,7.38-7.38-3.3-7.38-7.38-7.38-7.38,3.3-7.38,7.38Z" style="fill: #040000;"/>
      <path d="M347.01,192.29v-30h8.22v2.94c2.1-2.28,5.16-3.54,8.64-3.54v7.98c-.36-.06-.78-.12-1.14-.12-4.08,0-7.5,2.88-7.5,6.9v15.84h-8.22Z" style="fill: #040000;"/>
      <path d="M379.89,161.7c3.42,0,6.48,1.56,8.46,3.72v-3.12h8.22v30h-8.22v-3.24c-1.98,2.22-5.04,3.84-8.46,3.84-8.58,0-14.52-6.96-14.52-15.6s5.94-15.6,14.52-15.6ZM373.59,177.29c0,4.08,3.3,7.38,7.38,7.38s7.38-3.3,7.38-7.38-3.3-7.38-7.38-7.38-7.38,3.3-7.38,7.38Z" style="fill: #040000;"/>
      <path d="M402.81,192.29v-30h8.22v2.82c2.22-2.22,5.34-3.42,8.64-3.42,6.9,0,11.7,4.98,11.7,12.36v18.24h-8.22v-16.02c0-4.38-2.4-6.6-5.76-6.6-3.6,0-6.36,2.7-6.36,6.78v15.84h-8.22Z" style="fill: #040000;"/>
      <path d="M435.87,177.29c0-8.64,7.02-15.6,15.6-15.6,4.44,0,8.46,1.86,11.28,4.86l-5.82,5.82c-1.32-1.5-3.3-2.46-5.46-2.46-4.08,0-7.38,3.3-7.38,7.38s3.3,7.38,7.38,7.38c2.16,0,4.14-.96,5.46-2.46l5.82,5.82c-2.82,3-6.84,4.86-11.28,4.86-8.58,0-15.6-7.02-15.6-15.6Z" style="fill: #040000;"/>
      <path d="M479.6,161.7c8.58,0,14.34,6.18,14.34,15,0,1.26-.12,2.58-.3,3.9h-21.36c1.14,3.24,4.2,5.1,8.04,5.1,2.7,0,5.28-.96,6.84-2.76l5.04,5.04c-2.76,3.06-6.84,4.92-12.06,4.92-8.94,0-15.84-6.84-15.84-15.6s6.66-15.6,15.3-15.6ZM472.1,174.71h14.34c-.48-3.66-3.54-5.88-7.02-5.88s-6.72,2.28-7.32,5.88Z" style="fill: #040000;"/>
      <path d="M520.88,169.2c-2.16-2.82-3.78-5.94-3.78-9.18,0-7.62,5.88-11.52,12.6-11.52s12.6,3.78,12.6,11.52c0,5.52-3.78,8.82-9.48,11.04.78.72,1.38,1.32,1.98,1.92l5.58,5.58c.84-1.56,1.38-3.3,1.5-5.1l7.26,1.26c-.24,3.54-1.38,6.78-3.18,9.54l4.14,4.14-5.16,5.52-4.5-4.5c-3.36,2.28-7.68,3.54-12.54,3.54-9.48,0-15.48-4.68-15.48-12.18,0-6.06,3.9-9.66,8.46-11.58ZM528.38,185.27c2.46,0,4.62-.66,6.36-1.68l-6.24-6.24c-.96-.96-2.1-2.04-3.18-3.18-2.4,1.26-4.44,2.94-4.44,5.82,0,3.36,2.94,5.28,7.5,5.28ZM525.26,160.25c0,2.1,1.32,4.2,3,6.12,3.42-1.68,5.82-3.36,5.82-6.12s-2.04-4.26-4.38-4.26-4.44,1.62-4.44,4.26Z" style="fill: #040000;"/>
      <path d="M567.08,185.93l5.58-6.06c3.84,3.24,7.68,4.86,12.78,4.86s8.1-2.1,8.1-4.86c0-3-3.9-4.5-10.68-6.42-6.78-1.92-13.44-4.86-13.44-12.54s7.02-12.42,15.54-12.42c5.76,0,12.06,2.76,15.66,6.9l-5.82,5.76c-2.76-2.88-6.54-4.44-10.56-4.44s-6.54,1.5-6.54,4.08,3.54,3.72,9.84,5.46c8.16,2.28,14.22,5.88,14.22,13.38,0,8.34-7.92,13.32-16.68,13.32-7.14,0-13.02-2.58-18-7.02Z" style="fill: #040000;"/>
      <path d="M606.32,162.29h8.22v3.24c1.98-2.22,5.04-3.84,8.46-3.84,8.64,0,14.52,6.96,14.52,15.6s-5.94,15.6-14.52,15.6c-3.42,0-6.48-1.62-8.46-3.72v17.04h-8.22v-43.92ZM614.54,177.29c0,4.08,3.3,7.38,7.38,7.38s7.38-3.3,7.38-7.38-3.3-7.38-7.38-7.38-7.38,3.3-7.38,7.38Z" style="fill: #040000;"/>
      <path d="M656.18,161.7c8.58,0,14.34,6.18,14.34,15,0,1.26-.12,2.58-.3,3.9h-21.36c1.14,3.24,4.2,5.1,8.04,5.1,2.7,0,5.28-.96,6.84-2.76l5.04,5.04c-2.76,3.06-6.84,4.92-12.06,4.92-8.94,0-15.84-6.84-15.84-15.6s6.66-15.6,15.3-15.6ZM648.68,174.71h14.34c-.48-3.66-3.54-5.88-7.02-5.88s-6.72,2.28-7.32,5.88Z" style="fill: #040000;"/>
      <path d="M673.88,177.29c0-8.64,7.02-15.6,15.6-15.6,4.44,0,8.46,1.86,11.28,4.86l-5.82,5.82c-1.32-1.5-3.3-2.46-5.46-2.46-4.08,0-7.38,3.3-7.38,7.38s3.3,7.38,7.38,7.38c2.16,0,4.14-.96,5.46-2.46l5.82,5.82c-2.82,3-6.84,4.86-11.28,4.86-8.58,0-15.6-7.02-15.6-15.6Z" style="fill: #040000;"/>
      <path d="M708.98,148.5c2.64,0,4.8,2.16,4.8,4.8s-2.16,4.8-4.8,4.8-4.86-2.16-4.86-4.8,2.16-4.8,4.86-4.8ZM704.84,192.29v-30h8.22v30h-8.22Z" style="fill: #040000;"/>
      <path d="M717.02,170.51v-8.22h4.56v-1.62c0-8.64,4.62-12.18,12-12.18h2.7v7.86h-1.86c-3,0-4.62,1.2-4.62,4.98v.96h18.72v30h-8.22v-21.78h-10.5v21.78h-8.22v-21.78h-4.56ZM744.38,148.5c2.7,0,4.8,2.16,4.86,4.8,0,2.64-2.16,4.8-4.86,4.8s-4.8-2.1-4.8-4.8,2.16-4.8,4.8-4.8Z" style="fill: #040000;"/>
      <path d="M753.02,177.29c0-8.64,7.02-15.6,15.6-15.6,4.44,0,8.46,1.86,11.28,4.86l-5.82,5.82c-1.32-1.5-3.3-2.46-5.46-2.46-4.08,0-7.38,3.3-7.38,7.38s3.3,7.38,7.38,7.38c2.16,0,4.14-.96,5.46-2.46l5.82,5.82c-2.82,3-6.84,4.86-11.28,4.86-8.58,0-15.6-7.02-15.6-15.6Z" style="fill: #040000;"/>
      <path d="M795.98,161.7c3.42,0,6.48,1.56,8.46,3.72v-3.12h8.22v30h-8.22v-3.24c-1.98,2.22-5.04,3.84-8.46,3.84-8.58,0-14.52-6.96-14.52-15.6s5.94-15.6,14.52-15.6ZM789.68,177.29c0,4.08,3.3,7.38,7.38,7.38s7.38-3.3,7.38-7.38-3.3-7.38-7.38-7.38-7.38,3.3-7.38,7.38Z" style="fill: #040000;"/>
      <path d="M818.78,162.29c1.8,0,3-1.2,3-2.94v-5.1h8.22v8.04h7.2v8.22h-7.2v8.58c0,4.68.66,5.88,3.36,5.94,1.14,0,2.34-.24,3.84-.54v7.8c-1.38.36-3.6.6-5.1.6-7.2,0-10.32-3.24-10.32-10.8v-11.58h-5.28v-8.22h2.28Z" style="fill: #040000;"/>
      <path d="M846.5,148.5c2.64,0,4.8,2.16,4.8,4.8s-2.16,4.8-4.8,4.8-4.86-2.16-4.86-4.8,2.16-4.8,4.86-4.8ZM842.36,192.29v-30h8.22v30h-8.22Z" style="fill: #040000;"/>
      <path d="M886.28,177.29c0,8.58-6.96,15.6-15.6,15.6s-15.6-7.02-15.6-15.6,7.02-15.6,15.6-15.6,15.6,6.96,15.6,15.6ZM870.68,184.67c4.08,0,7.38-3.3,7.38-7.38s-3.3-7.38-7.38-7.38-7.38,3.3-7.38,7.38,3.3,7.38,7.38,7.38Z" style="fill: #040000;"/>
      <path d="M890.78,192.29v-30h8.22v2.82c2.22-2.22,5.34-3.42,8.64-3.42,6.9,0,11.7,4.98,11.7,12.36v18.24h-8.22v-16.02c0-4.38-2.4-6.6-5.76-6.6-3.6,0-6.36,2.7-6.36,6.78v15.84h-8.22Z" style="fill: #040000;"/>
      <path d="M928.04,182.09c2.4,2.04,5.94,3.6,9.24,3.6,2.52,0,4.38-1.02,4.38-2.34,0-2.04-3-2.58-5.04-3.12-5.16-1.38-12-2.88-12-9.54,0-5.16,5.16-9,12.24-9,4.68,0,8.88,1.62,12,4.14l-4.14,5.52c-2.04-1.56-5.22-2.52-7.8-2.52-2.82,0-4.08.9-4.08,1.92,0,1.38,2.52,1.86,5.64,2.58,6.42,1.26,11.46,3.54,11.46,9.96,0,5.58-5.46,9.54-12.9,9.54-5.16,0-9.78-1.74-13.62-5.16l4.62-5.58Z" style="fill: #040000;"/>
    </g>
    <g>
      <path d="M523.6,307.26v-57.6h10.96v22.48h23.84v-22.48h10.96v57.6h-10.96v-24.16h-23.84v24.16h-10.96Z" style="fill: #cf391a;"/>
      <path d="M590.96,249.66h9.52v57.6h-10.96v-44.88l-9.92,5.2-4.56-9.76,15.92-8.16Z" style="fill: #cf391a;"/>
      <path d="M607.92,291.1c0-6.88,3.2-10.88,7.36-13.44-3.36-2.56-6-6.16-6-12.48,0-9.6,8.24-16.32,19.84-16.32s19.76,6.72,19.76,16.32c0,6.32-2.56,9.92-5.92,12.48,4.16,2.56,7.28,6.64,7.28,13.44,0,9.12-5.76,16.96-21.12,16.96s-21.2-7.84-21.2-16.96ZM629.12,297.26c6.96,0,10.16-2.72,10.16-6.96,0-4.56-4.16-7.04-10.16-7.04s-10.24,2.48-10.24,7.04c0,4.24,3.2,6.96,10.24,6.96ZM629.12,273.02c5.6,0,8.96-2.88,8.96-6.8s-3.04-6.72-8.96-6.72-8.96,2.8-8.96,6.72,3.36,6.8,8.96,6.8Z" style="fill: #cf391a;"/>
    </g>
    <g>
      <path d="M218.55,1202.44h4.32v43.2h-4.8v-37.26l-9.42,5.64-2.46-4.08,12.36-7.5Z" style="fill: #040000;"/>
      <path d="M258.63,1213.96c0,4.8-2.46,7.62-5.46,9.48,3.9,1.8,6.84,4.98,6.84,10.32,0,7.38-5.16,12.48-15.9,12.48s-15.84-5.1-15.84-12.48c0-5.34,2.94-8.52,6.78-10.32-3-1.86-5.4-4.68-5.4-9.48,0-7.44,5.82-12.12,14.46-12.12s14.52,4.68,14.52,12.12ZM233.01,1233.76c0,4.56,3.18,7.68,11.1,7.68s11.16-3.12,11.16-7.68c0-4.98-4.98-7.62-11.16-7.62s-11.1,2.64-11.1,7.62ZM234.45,1213.96c0,4.68,4.38,7.38,9.66,7.38s9.72-2.7,9.72-7.38-3.78-7.32-9.72-7.32-9.66,2.7-9.66,7.32Z" style="fill: #040000;"/>
      <path d="M281.01,1201.84c10.5,0,16.8,8.34,16.8,22.2s-6.3,22.2-16.8,22.2-16.8-8.34-16.8-22.2,6.3-22.2,16.8-22.2ZM281.01,1241.44c7.74,0,12-6.18,12-17.4s-4.26-17.4-12-17.4-12,6.18-12,17.4,4.26,17.4,12,17.4Z" style="fill: #040000;"/>
      <path d="M301.77,1215.64h6.12l8.28,10.5,8.22-10.5h6.12l-11.28,14.4,12.24,15.6h-6.06l-9.24-11.76-9.24,11.76h-6.12l12.3-15.6-11.34-14.4Z" style="fill: #040000;"/>
      <path d="M345.63,1202.44h4.32v43.2h-4.8v-37.26l-9.42,5.64-2.46-4.08,12.36-7.5Z" style="fill: #040000;"/>
      <path d="M385.7,1213.96c0,4.8-2.46,7.62-5.46,9.48,3.9,1.8,6.84,4.98,6.84,10.32,0,7.38-5.16,12.48-15.9,12.48s-15.84-5.1-15.84-12.48c0-5.34,2.94-8.52,6.78-10.32-3-1.86-5.4-4.68-5.4-9.48,0-7.44,5.82-12.12,14.46-12.12s14.52,4.68,14.52,12.12ZM360.08,1233.76c0,4.56,3.18,7.68,11.1,7.68s11.16-3.12,11.16-7.68c0-4.98-4.98-7.62-11.16-7.62s-11.1,2.64-11.1,7.62ZM361.52,1213.96c0,4.68,4.38,7.38,9.66,7.38s9.72-2.7,9.72-7.38-3.78-7.32-9.72-7.32-9.66,2.7-9.66,7.32Z" style="fill: #040000;"/>
      <path d="M408.08,1201.84c10.5,0,16.8,8.34,16.8,22.2s-6.3,22.2-16.8,22.2-16.8-8.34-16.8-22.2,6.3-22.2,16.8-22.2ZM408.08,1241.44c7.74,0,12-6.18,12-17.4s-4.26-17.4-12-17.4-12,6.18-12,17.4,4.26,17.4,12,17.4Z" style="fill: #040000;"/>
      <path d="M428.84,1215.64h6.12l8.28,10.5,8.22-10.5h6.12l-11.28,14.4,12.24,15.6h-6.06l-9.24-11.76-9.24,11.76h-6.12l12.3-15.6-11.34-14.4Z" style="fill: #040000;"/>
      <path d="M481.94,1202.44l-15.6,29.04h16.32v-11.16h4.8v11.16h5.76v4.8h-5.76v9.36h-4.8v-9.36h-22.32v-3.72l16.14-30.12h5.46Z" style="fill: #040000;"/>
      <path d="M513.62,1201.84c10.5,0,16.8,8.34,16.8,22.2s-6.3,22.2-16.8,22.2-16.8-8.34-16.8-22.2,6.3-22.2,16.8-22.2ZM513.62,1241.44c7.74,0,12-6.18,12-17.4s-4.26-17.4-12-17.4-12,6.18-12,17.4,4.26,17.4,12,17.4Z" style="fill: #040000;"/>
      <path d="M550.16,1197.64c-5.88,7.38-8.52,17.82-8.52,28.2s2.64,20.82,8.52,28.2h-5.82c-5.1-7.08-7.62-17.64-7.62-28.2s2.52-21.12,7.62-28.2h5.82Z" style="fill: #040000;"/>
      <path d="M560.36,1215.64v4.08c2.22-2.58,5.58-4.68,9.72-4.68,4.92,0,8.7,2.28,10.56,6.24,2.4-3.6,6.36-6.24,11.04-6.24,7.14,0,11.88,4.8,11.88,12.78v17.82h-4.8v-17.58c0-6.36-3.18-8.88-7.74-8.88-4.98,0-9.06,3.54-9.06,9.3v17.16h-4.8v-17.58c0-6.36-3.18-8.88-7.74-8.88-4.98,0-9.06,3.6-9.06,9.42v17.04h-4.8v-30h4.8Z" style="fill: #040000;"/>
      <path d="M616.76,1215.64v4.08c2.22-2.58,5.58-4.68,9.72-4.68,4.92,0,8.7,2.28,10.56,6.24,2.4-3.6,6.36-6.24,11.04-6.24,7.14,0,11.88,4.8,11.88,12.78v17.82h-4.8v-17.58c0-6.36-3.18-8.88-7.74-8.88-4.98,0-9.06,3.54-9.06,9.3v17.16h-4.8v-17.58c0-6.36-3.18-8.88-7.74-8.88-4.98,0-9.06,3.6-9.06,9.42v17.04h-4.8v-30h4.8Z" style="fill: #040000;"/>
      <path d="M671.18,1197.64c5.04,7.08,7.62,17.64,7.62,28.2s-2.58,21.12-7.62,28.2h-5.82c5.88-7.38,8.52-17.82,8.52-28.2s-2.64-20.82-8.52-28.2h5.82Z" style="fill: #040000;"/>
    </g>
    <g>
      <path d="M237.63,1382.44v4.8h-22.44v13.2h20.04v4.8h-20.04v20.4h-4.8v-43.2h27.24Z" style="fill: #040000;"/>
      <path d="M244.83,1382.44h15.9c12.42,0,21.24,9,21.24,21.6s-8.82,21.6-21.24,21.6h-15.9v-43.2ZM249.63,1387.24v33.6h11.1c9.72,0,16.44-6.84,16.44-16.8s-6.72-16.8-16.44-16.8h-11.1Z" style="fill: #040000;"/>
      <path d="M308.13,1382.44c6.36,0,11.46,4.5,11.46,10.8,0,3.96-2.04,7.44-5.4,9.48,4.26,2.1,6.96,6.24,6.96,10.98,0,6.9-5.64,11.94-12.6,11.94h-18.78v-43.2h18.36ZM294.57,1400.5h13.56c3.66,0,6.66-3,6.66-6.66s-3-6.6-6.66-6.6h-13.56v13.26ZM294.57,1420.84h13.98c4.32,0,7.8-3.48,7.8-7.74s-3.48-7.8-7.8-7.8h-13.98v15.54Z" style="fill: #040000;"/>
    </g>
    <g>
      <path d="M224.19,1561.84c10.5,0,16.8,8.34,16.8,22.2s-6.3,22.2-16.8,22.2-16.8-8.34-16.8-22.2,6.3-22.2,16.8-22.2ZM224.19,1601.44c7.74,0,12-6.18,12-17.4s-4.26-17.4-12-17.4-12,6.18-12,17.4,4.26,17.4,12,17.4Z" style="fill: #040000;"/>
      <path d="M260.73,1557.64c-5.88,7.38-8.52,17.82-8.52,28.2s2.64,20.82,8.52,28.2h-5.82c-5.1-7.08-7.62-17.64-7.62-28.2s2.52-21.12,7.62-28.2h5.82Z" style="fill: #040000;"/>
      <path d="M281.13,1561.84c10.5,0,16.8,8.34,16.8,22.2s-6.3,22.2-16.8,22.2-16.8-8.34-16.8-22.2,6.3-22.2,16.8-22.2ZM281.13,1601.44c7.74,0,12-6.18,12-17.4s-4.26-17.4-12-17.4-12,6.18-12,17.4,4.26,17.4,12,17.4Z" style="fill: #040000;"/>
      <path d="M304.53,1588.78h16.74v4.8h-16.74v-4.8Z" style="fill: #040000;"/>
      <path d="M354.63,1574.74c0,5.16-2.46,9.54-8.76,15.72l-10.56,10.38h19.92v4.8h-27.3v-4.26l14.52-14.28c3.42-3.36,7.38-7.2,7.38-12.36,0-4.62-3.84-8.1-9-8.1-4.38,0-7.86,2.58-9.12,6.84l-4.56-1.8c2.1-6.06,7.32-9.84,13.68-9.84,7.86,0,13.8,5.58,13.8,12.9Z" style="fill: #040000;"/>
      <path d="M376.83,1561.84c10.5,0,16.8,8.34,16.8,22.2s-6.3,22.2-16.8,22.2-16.8-8.34-16.8-22.2,6.3-22.2,16.8-22.2ZM376.83,1601.44c7.74,0,12-6.18,12-17.4s-4.26-17.4-12-17.4-12,6.18-12,17.4,4.26,17.4,12,17.4Z" style="fill: #040000;"/>
      <path d="M408.99,1561.84c5.88,0,10.62,4.74,10.62,10.56s-4.74,10.62-10.62,10.62-10.56-4.74-10.56-10.62,4.74-10.56,10.56-10.56ZM408.99,1579c3.66,0,6.6-2.94,6.6-6.6s-2.94-6.54-6.6-6.54-6.54,2.94-6.54,6.54,2.94,6.6,6.54,6.6ZM434.18,1562.44l-29.34,43.2h4.98l29.28-43.2h-4.92ZM435.02,1585.06c5.82,0,10.56,4.74,10.56,10.62s-4.74,10.56-10.56,10.56-10.62-4.74-10.62-10.56,4.74-10.62,10.62-10.62ZM435.02,1602.22c3.6,0,6.54-2.94,6.54-6.54s-2.94-6.6-6.54-6.6-6.6,2.94-6.6,6.6,2.94,6.54,6.6,6.54Z" style="fill: #040000;"/>
      <path d="M455.01,1557.64c5.04,7.08,7.62,17.64,7.62,28.2s-2.58,21.12-7.62,28.2h-5.82c5.88-7.38,8.52-17.82,8.52-28.2s-2.64-20.82-8.52-28.2h5.82Z" style="fill: #040000;"/>
      <path d="M470.73,1588.78h16.74v4.8h-16.74v-4.8Z" style="fill: #040000;"/>
      <path d="M505.23,1562.44h4.32v43.2h-4.8v-37.26l-9.42,5.64-2.46-4.08,12.36-7.5Z" style="fill: #040000;"/>
      <path d="M540.62,1562.44v4.26l-9.96,12.18c6.96,1.26,11.7,6.66,11.7,13.8,0,7.92-5.94,13.56-14.34,13.56-6.66,0-12.06-3.9-14.28-10.32l4.5-1.8c1.38,4.44,5.22,7.32,9.78,7.32,5.7,0,9.54-3.54,9.54-8.76s-4.14-9.24-10.08-9.24c-.66,0-1.32.06-1.98.24l-2.34-3.48,10.68-12.96h-17.52v-4.8h24.3Z" style="fill: #040000;"/>
      <path d="M563.06,1561.84c10.5,0,16.8,8.34,16.8,22.2s-6.3,22.2-16.8,22.2-16.8-8.34-16.8-22.2,6.3-22.2,16.8-22.2ZM563.06,1601.44c7.74,0,12-6.18,12-17.4s-4.26-17.4-12-17.4-12,6.18-12,17.4,4.26,17.4,12,17.4Z" style="fill: #040000;"/>
      <path d="M601.46,1561.84c10.5,0,16.8,8.34,16.8,22.2s-6.3,22.2-16.8,22.2-16.8-8.34-16.8-22.2,6.3-22.2,16.8-22.2ZM601.46,1601.44c7.74,0,12-6.18,12-17.4s-4.26-17.4-12-17.4-12,6.18-12,17.4,4.26,17.4,12,17.4Z" style="fill: #040000;"/>
      <path d="M638,1557.64c-5.88,7.38-8.52,17.82-8.52,28.2s2.64,20.82,8.52,28.2h-5.82c-5.1-7.08-7.62-17.64-7.62-28.2s2.52-21.12,7.62-28.2h5.82Z" style="fill: #040000;"/>
      <path d="M652.76,1562.44h4.32v43.2h-4.8v-37.26l-9.42,5.64-2.46-4.08,12.36-7.5Z" style="fill: #040000;"/>
      <path d="M679.88,1561.84c10.5,0,16.8,8.34,16.8,22.2s-6.3,22.2-16.8,22.2-16.8-8.34-16.8-22.2,6.3-22.2,16.8-22.2ZM679.88,1601.44c7.74,0,12-6.18,12-17.4s-4.26-17.4-12-17.4-12,6.18-12,17.4,4.26,17.4,12,17.4Z" style="fill: #040000;"/>
      <path d="M718.28,1561.84c10.5,0,16.8,8.34,16.8,22.2s-6.3,22.2-16.8,22.2-16.8-8.34-16.8-22.2,6.3-22.2,16.8-22.2ZM718.28,1601.44c7.74,0,12-6.18,12-17.4s-4.26-17.4-12-17.4-12,6.18-12,17.4,4.26,17.4,12,17.4Z" style="fill: #040000;"/>
      <path d="M750.44,1561.84c5.88,0,10.62,4.74,10.62,10.56s-4.74,10.62-10.62,10.62-10.56-4.74-10.56-10.62,4.74-10.56,10.56-10.56ZM750.44,1579c3.66,0,6.6-2.94,6.6-6.6s-2.94-6.54-6.6-6.54-6.54,2.94-6.54,6.54,2.94,6.6,6.54,6.6ZM775.64,1562.44l-29.34,43.2h4.98l29.28-43.2h-4.92ZM776.48,1585.06c5.82,0,10.56,4.74,10.56,10.62s-4.74,10.56-10.56,10.56-10.62-4.74-10.62-10.56,4.74-10.62,10.62-10.62ZM776.48,1602.22c3.6,0,6.54-2.94,6.54-6.54s-2.94-6.6-6.54-6.6-6.6,2.94-6.6,6.6,2.94,6.54,6.6,6.54Z" style="fill: #040000;"/>
      <path d="M796.46,1557.64c5.04,7.08,7.62,17.64,7.62,28.2s-2.58,21.12-7.62,28.2h-5.82c5.88-7.38,8.52-17.82,8.52-28.2s-2.64-20.82-8.52-28.2h5.82Z" style="fill: #040000;"/>
      <path d="M831.62,1562.44c7.86,0,13.5,5.94,13.5,14.1,0,5.76-2.82,10.38-7.2,12.66l8.04,16.44h-5.34l-7.38-15.06c-.48,0-1.02.06-1.62.06h-13.44v15h-4.8v-43.2h18.24ZM818.18,1585.84h13.44c5.04,0,8.7-3.96,8.7-9.3s-3.66-9.3-8.64-9.3h-13.5v18.6Z" style="fill: #040000;"/>
      <path d="M852.56,1562.44h17.04c7.86,0,13.5,5.94,13.5,14.1s-5.64,14.1-13.5,14.1h-12.24v15h-4.8v-43.2ZM857.36,1567.24v18.6h12.24c5.04,0,8.7-3.96,8.7-9.3s-3.66-9.3-8.64-9.3h-12.3Z" style="fill: #040000;"/>
      <path d="M894.86,1562.44l15.54,26.88,15.54-26.88h3.96v43.2h-4.8v-32.22l-12.78,22.2h-3.78l-12.84-22.2v32.22h-4.8v-43.2h3.96Z" style="fill: #040000;"/>
    </g>
    <g>
      <path d="M218.55,1742.44h4.32v43.2h-4.8v-37.26l-9.42,5.64-2.46-4.08,12.36-7.5Z" style="fill: #040000;"/>
      <path d="M228.27,1771.3c0-2.82.78-5.58,2.22-7.8l13.68-21.06h5.76l-9.24,14.16c.84-.12,1.62-.18,2.52-.18,8.22,0,14.88,6.66,14.88,14.88s-6.66,14.94-14.88,14.94-14.94-6.66-14.94-14.94ZM253.29,1771.3c0-5.52-4.56-10.08-10.08-10.08s-10.08,4.56-10.08,10.08,4.5,10.08,10.08,10.08,10.08-4.5,10.08-10.08Z" style="fill: #040000;"/>
      <path d="M282.69,1742.44l-15.6,29.04h16.32v-11.16h4.8v11.16h5.76v4.8h-5.76v9.36h-4.8v-9.36h-22.32v-3.72l16.14-30.12h5.46Z" style="fill: #040000;"/>
      <path d="M305.55,1782.88c0,1.86-1.5,3.36-3.42,3.36s-3.36-1.5-3.36-3.36,1.5-3.42,3.36-3.42,3.42,1.5,3.42,3.42Z" style="fill: #040000;"/>
      <path d="M310.95,1771.3c0-2.82.78-5.58,2.22-7.8l13.68-21.06h5.76l-9.24,14.16c.84-.12,1.62-.18,2.52-.18,8.22,0,14.88,6.66,14.88,14.88s-6.66,14.94-14.88,14.94-14.94-6.66-14.94-14.94ZM335.97,1771.3c0-5.52-4.56-10.08-10.08-10.08s-10.08,4.56-10.08,10.08,4.5,10.08,10.08,10.08,10.08-4.5,10.08-10.08Z" style="fill: #040000;"/>
      <path d="M370.04,1742.44v4.26l-9.96,12.18c6.96,1.26,11.7,6.66,11.7,13.8,0,7.92-5.94,13.56-14.34,13.56-6.66,0-12.06-3.9-14.28-10.32l4.5-1.8c1.38,4.44,5.22,7.32,9.78,7.32,5.7,0,9.54-3.54,9.54-8.76s-4.14-9.24-10.08-9.24c-.66,0-1.32.06-1.98.24l-2.34-3.48,10.68-12.96h-17.52v-4.8h24.3Z" style="fill: #040000;"/>
      <path d="M390.62,1737.64c-5.88,7.38-8.52,17.82-8.52,28.2s2.64,20.82,8.52,28.2h-5.82c-5.1-7.08-7.62-17.64-7.62-28.2s2.52-21.12,7.62-28.2h5.82Z" style="fill: #040000;"/>
      <path d="M432.68,1748.92l-3.42,3.42c-3.18-3.48-7.74-5.7-12.84-5.7-9.6,0-17.4,7.8-17.4,17.4s7.8,17.4,17.4,17.4c5.1,0,9.66-2.22,12.84-5.7l3.42,3.42c-4.08,4.38-9.84,7.08-16.26,7.08-12.24,0-22.2-9.96-22.2-22.2s9.96-22.2,22.2-22.2c6.42,0,12.18,2.7,16.26,7.08Z" style="fill: #040000;"/>
      <path d="M467.42,1742.44v4.8h-22.44v13.2h20.04v4.8h-20.04v20.4h-4.8v-43.2h27.24Z" style="fill: #040000;"/>
      <path d="M478.58,1742.44l15.54,26.88,15.54-26.88h3.96v43.2h-4.8v-32.22l-12.78,22.2h-3.78l-12.84-22.2v32.22h-4.8v-43.2h3.96Z" style="fill: #040000;"/>
      <path d="M526.04,1737.64c5.04,7.08,7.62,17.64,7.62,28.2s-2.58,21.12-7.62,28.2h-5.82c5.88-7.38,8.52-17.82,8.52-28.2s-2.64-20.82-8.52-28.2h5.82Z" style="fill: #040000;"/>
    </g>
    <g>
      <path d="M234.15,1934.74c0,5.16-2.46,9.54-8.76,15.72l-10.56,10.38h19.92v4.8h-27.3v-4.26l14.52-14.28c3.42-3.36,7.38-7.2,7.38-12.36,0-4.62-3.84-8.1-9-8.1-4.38,0-7.86,2.58-9.12,6.84l-4.56-1.8c2.1-6.06,7.32-9.84,13.68-9.84,7.86,0,13.8,5.58,13.8,12.9Z" style="fill: #040000;"/>
      <path d="M247.53,1962.88c0,1.86-1.5,3.36-3.42,3.36s-3.36-1.5-3.36-3.36,1.5-3.42,3.36-3.42,3.42,1.5,3.42,3.42Z" style="fill: #040000;"/>
      <path d="M264.69,1922.44h4.32v43.2h-4.8v-37.26l-9.42,5.64-2.46-4.08,12.36-7.5Z" style="fill: #040000;"/>
      <path d="M304.23,1936.78c0,2.82-.78,5.58-2.22,7.8l-13.68,21.06h-5.76l9.24-14.16c-.84.12-1.62.18-2.46.18-8.28,0-14.94-6.66-14.94-14.88s6.66-14.94,14.94-14.94,14.88,6.66,14.88,14.94ZM279.27,1936.78c0,5.52,4.5,10.08,10.08,10.08s10.08-4.56,10.08-10.08-4.56-10.08-10.08-10.08-10.08,4.5-10.08,10.08Z" style="fill: #040000;"/>
      <path d="M323.36,1917.64c-5.88,7.38-8.52,17.82-8.52,28.2s2.64,20.82,8.52,28.2h-5.82c-5.1-7.08-7.62-17.64-7.62-28.2s2.52-21.12,7.62-28.2h5.82Z" style="fill: #040000;"/>
      <path d="M333.57,1935.64v4.08c2.22-2.58,5.58-4.68,9.72-4.68,4.92,0,8.7,2.28,10.56,6.24,2.4-3.6,6.36-6.24,11.04-6.24,7.14,0,11.88,4.8,11.88,12.78v17.82h-4.8v-17.58c0-6.36-3.18-8.88-7.74-8.88-4.98,0-9.06,3.54-9.06,9.3v17.16h-4.8v-17.58c0-6.36-3.18-8.88-7.74-8.88-4.98,0-9.06,3.6-9.06,9.42v17.04h-4.8v-30h4.8Z" style="fill: #040000;"/>
      <path d="M389.96,1935.64v4.08c2.22-2.58,5.58-4.68,9.72-4.68,4.92,0,8.7,2.28,10.56,6.24,2.4-3.6,6.36-6.24,11.04-6.24,7.14,0,11.88,4.8,11.88,12.78v17.82h-4.8v-17.58c0-6.36-3.18-8.88-7.74-8.88-4.98,0-9.06,3.54-9.06,9.3v17.16h-4.8v-17.58c0-6.36-3.18-8.88-7.74-8.88-4.98,0-9.06,3.6-9.06,9.42v17.04h-4.8v-30h4.8Z" style="fill: #040000;"/>
      <path d="M447.56,1922.44v18h23.76v-18h4.8v43.2h-4.8v-20.4h-23.76v20.4h-4.8v-43.2h4.8Z" style="fill: #040000;"/>
      <path d="M510.68,1934.74c0,5.16-2.46,9.54-8.76,15.72l-10.56,10.38h19.92v4.8h-27.3v-4.26l14.52-14.28c3.42-3.36,7.38-7.2,7.38-12.36,0-4.62-3.84-8.1-9-8.1-4.38,0-7.86,2.58-9.12,6.84l-4.56-1.8c2.1-6.06,7.32-9.84,13.68-9.84,7.86,0,13.8,5.58,13.8,12.9Z" style="fill: #040000;"/>
      <path d="M538.28,1921.84c12.24,0,22.2,9.96,22.2,22.2s-9.96,22.2-22.2,22.2-22.2-9.96-22.2-22.2,9.96-22.2,22.2-22.2ZM538.28,1961.44c9.6,0,17.4-7.8,17.4-17.4s-7.8-17.4-17.4-17.4-17.4,7.8-17.4,17.4,7.8,17.4,17.4,17.4Z" style="fill: #040000;"/>
      <path d="M569.9,1917.64c5.04,7.08,7.62,17.64,7.62,28.2s-2.58,21.12-7.62,28.2h-5.82c5.88-7.38,8.52-17.82,8.52-28.2s-2.64-20.82-8.52-28.2h5.82Z" style="fill: #040000;"/>
    </g>
    <g>
      <path d="M562.64,2127.94c0-9.24,4.24-14.8,11.28-14.8s11.28,5.56,11.28,14.8-4.24,14.8-11.28,14.8-11.28-5.56-11.28-14.8ZM573.92,2138.78c4.76,0,7.32-3.8,7.32-10.84s-2.56-10.84-7.32-10.84-7.32,3.76-7.32,10.84,2.56,10.84,7.32,10.84Z" style="fill: #221714;"/>
      <path d="M587.68,2132.86c0-1.96.56-3.84,1.56-5.44l8.84-13.88h4.64l-5.92,9.48c.44-.08.92-.12,1.4-.12,5.36,0,9.56,4.52,9.56,9.88s-4.48,9.96-10.04,9.96-10.04-4.32-10.04-9.88ZM597.72,2138.78c3.36,0,6.04-2.68,6.04-6s-2.72-5.96-6.04-5.96-6.08,2.68-6.08,5.96,2.72,6,6.08,6Z" style="fill: #221714;"/>
    </g>
    <path d="M419.63,827.09l-9.33,5.38M421.86,852.5l9.33-5.39M494.84,774.1l.16-.09M510.59,811.58l-2.6,1.75-3.19,2.08-3.46,2.22M507.17,786.57l-6.71-5.17M502.6,780.15l2.65-1.53M458.92,525.01v-3M715.02,965.61l-2.6-1.5M451.91,821.8l-1.19.69-3.28,1.89-2.87,1.66-2.38,1.38-4.3,2.48-4.04,2.33-4.11,2.38-4.2,2.42M737.62,952.09l.02.47M479.28,510.25l-1.1,1.18-1.15,1.25-1.01,1.12-.87.99-.14.16-.76.86-1.07,1.22-1.02,1.18-.38.44-.32.37-.26.3-.21.24-.34.39-.25.29-.17.2-.48.57-.13.15-.04.04h-.01s0,.02,0,.02h0s0,0,0,0l-1.93,2.31-2.14,2.63-1.45,1.82M737.62,952.09l-6.2,2.35-6.39,1.88-6.77,1.45-5.83.8M384.05,834.95v-1.16s.01-31.24.01-31.24v-11.03s-.01-12.36-.01-12.36v-4.45s0-.56,0-.56M459.25,904.4l-.49-.28-3.85-2.22-20.25-11.7-5.78-3.34-10.72-6.18-10.68-6.16-.94-.54M690.07,872.83l-25.69-44.5M676.2,1029.64l-22.61-13.06-9.55-5.51-10.71-6.17-2.97-1.71-.89-.51-.49-.28M384.05,578.13v-.56s0-4.45,0-4.45v-23.38s0-6.68,0-6.68v-12.38s0-7.12,0-7.12M464.96,450.53l1.31-.63,2.92-.67,3.23.12,3.44.92,3.55,1.69M404.48,495.22l-3.55-1.69-3.44-.92-3.23-.12-2.92.67-1.31.63M411.3,491.29l3.9,2.69,3.76,3.45,3.48,4.1,2.64,3.95M446.04,517.58l46.7-26.96M785.94,982.88l-.31,3.92-.92,3.44-1.5,2.86-2.04,2.19-1.21.82M759.12,952.01l-46.7,26.96M717.82,1022.21l-.38-4.72-1.11-4.98-1.81-5.06-2.1-4.26M705.03,1039.37l1.21-.82,2.04-2.19,1.5-2.86.92-3.44.31-3.92M565.13,937.19l4.04-2.36M547.51,947.51l8.33-4.88M457.47,562.96l-1.04.58-2.02,1-1.54.65-2.16.73-3.28.68-2.87.2-2.39-.1-4.3-.78-4.04-1.43-4.12-2.22-4.19-3.19M678.83,946.39l-.61.36-1.77,1.14-1.62,1.18-1.67,1.43-2.32,2.52-1.53,2.18-1.37,2.55-1.56,4.48-.74,4.37-.1,1.54-.02,1.55.06,1.56.18,1.95.46,2.77M745.54,613.39l-3,2.31-2.34,3.36-1.32,3.67M767.76,672.78l3.84.69,4.08-.35,3.5-1.45M479.41,451.96l.62-.29.6-.15h.56s.5.14.5.14l.14.07M785.94,982.88l.56-.39.43-.44.28-.48.13-.5v-.15M787.35,650.53v.17s-.14.5-.14.5l-.28.48-.43.44-.56.39M767.93,616.89l-.15-.08-.5-.14h-.56s-.6.16-.6.16l-.62.29M731.8,626.81l-1.1-1.53-1.29-1.79-.21-.29-1.12-1.56-1.59-2.2-1.53-2.11-.57-.78-.48-.67-.4-.54-.31-.43-.51-.7-.38-.52-.25-.35-.74-1-.19-.26-.05-.07-.02-.02h0s0-.01,0-.01h0s0,0,0,0l-2.96-4.01-3.35-4.49-4.05-5.38-3.26-4.27-3.48-4.44M760.52,676.97l.17.33,5,10.26,4.8,10.59,4.57,10.88,4.13,10.67M671.89,708.11l6.09-3.51M666.42,684.58l-6.09,3.51M680.36,945.43l-.51.35M459.08,562.12l-.58.27M431.9,588.16l7.13-9.62,9.15-8.96,9.3-6.48M412.65,663.73l.75-17.28,2.25-16.24,3.73-15.05,1.41-3.74M416.94,707.38l2.45,12.71,5.17,19.69,6.57,19.83,7.9,19.77,9.15,19.53,2.63,4.87M412.65,663.73l.39,9.48M537.7,912.92l-13.96-12.1-14.46-14.32-13.89-15.6-13.17-16.72-12.34-17.69-5.75-9.33M569.17,934.83l-7.45-4.72M569.17,934.83l15.34,7.99,15.19,6.17,14.9,4.29,14.46,2.37,13.89.43,13.17-1.51,12.34-3.44,10.26-4.81M495.98,786.2l14.88,11.72M732.67,848.45l-.79,18.05-2.35,16.97-3.9,15.72-5.4,14.32-6.86,12.79-.95,1.28M490.44,543.21l1.81-.12,3.45-.07,3.7.05,4.4.23,2.83.24,4.84.58,6.56,1.1,4.79,1.03,6.09,1.59,7.08,2.21,4.32,1.53,10.54,4.3,8.87,4.25,9.46,5.15M764.28,830.2l-.25-10.58-.66-9.73-1.43-12.87-1.39-9.06-1.2-6.58-1.16-5.68-1.06-4.75-.95-4.03-1.07-4.29-1.28-4.85-1.11-3.97-.88-3.03-.95-3.16-1.49-4.75-1.67-5.03-1.5-4.34-1.74-4.8-2.43-6.38-2.37-5.92-1.75-4.2-1.07-2.48-2.21-4.99-3.29-7.13-1.45-2.99M701.02,644.57l-1.41-2.07-1.59-2.29-1.61-2.29-1.64-2.29-1.66-2.29-1.68-2.29-1.62-2.17-2.79-3.66-4.01-5.1-5.28-6.45-3.45-4.06-3.7-4.21-4.4-4.84-2.83-3.02-4.84-5-6.56-6.45-4.79-4.49-6.09-5.46-7.08-5.99-4.32-3.46-10.54-7.85-8.87-6-9.46-5.79M459.25,534.7l6.6,3.95,7.04,4.46,6.83,4.55,7.32,4.67,2.84,1.65M674.01,650.81l1.23-.44h.55s.5.14.5.14l.11.09M494.49,545.56l.79.44,2.92,1.72,3.41,2.04,3.94,2.39,4.38,2.68,9.46,5.83,8.27,5.12,7.44,4.58,6.63,4.01,5.81,3.42M423.45,504.55l-.02-.02-1.1-.2-1.29.45M704.2,958.96l-.18-9.68-.42-8.69-.64-10.67-.12-7.3M711.01,1007.01l1-.83.28-.48.13-.51-.02-.15M712.42,922.79l-.03-4.2-.07-3.63-.07-3.22-.03-1.34-.07-3.08-.1-3.64-.24-8.41-.26-8.66-.29-10.2-.18-8.51-.07-6.95M712.42,712.93v.02s-.37,1.05-.37,1.05l-1.04.89M629,632.69l-8.28-4.57-7.19-3.66-8.13-3.95-5.65-3.11M665.54,698.43h0s.06-.03.06-.03l.18-.1.46-.27M704.2,762.95l-.05,5.12-.25,7.6-.64,9.2-.42,7.31-.02,2.83M712.42,795.72v.18s-.02,3.94-.02,3.94l-.07,4.48-.1,5.09-.13,5.57-.32,11.88-.3,10.25-.25,9.09-.16,7.94-.06,6.81M712.42,745.82l1.01,2.68,1.79,5.02,1.8,5.31,2,6.23,1.2,3.96,1.92,6.69,2.32,8.9,1.5,6.39,1.67,8.02,1.63,9.14.84,5.48,1.54,13.05.75,10.68.27,11.09M569.19,565.29l14.22,8.92,13.29,9.65,12.31,10.1,11.28,10.29,13.44,13.64,11.65,13.14,2.47,3.05M604.89,609.29l-3.9-2.22-3.6-2-3.11-1.72-1.28-.7-2.94-1.61-3.45-1.88-7.91-4.28-8.05-4.34-9.36-5.06-7.65-4.21-6.13-3.46M744.5,619.48l-.24.17M697.39,656.44l-3.9-1.82-3.76-.88-3.47.08-2.03.69M717.82,691.84l-.38,4.29-1.11,3.7-1.81,2.97-1.56,1.36M773.12,669.65l.27-.12M672.22,694.57l.57-.33M462.62,810.07l.03,1.63-.42,2.23-.54,1.08-1.11.94M461.41,800.95l.64-.45,1.01-1.71.43-2.26M416.42,708.28l-.98.94M423.99,700.21l-.75.72M432.24,694.29l.66-.49.04-.08M463.73,786.86l.64-.48.47-.57.58-1.28.24-1.11M463.11,821.37l.09.97.08.81.07.76M488.95,739.29l-6.72,5.49-8.67,10.73-7.07,13.21-5.07,15.08-.57,2.33M646.75,940.48l-2.29-1.38-2.16-.77-1.22-.08-1.38.49M446.1,614.92l-.31-.12-.34-.34-.26-.45-.26-1.13-.08-1.23.48-5.13M513.63,802.61l-.24,8.69,1.48,19.01,3.54,20.18,5.47,20.35.94,2.94M459.55,611.4l-.94,4.99-.05,1.21.13,1.11.18.45.27.34.2.12M410.26,717.56l-.16.41-1.16,1.08M526.32,679.54l-1.98.18-2.67.39-3.27.77-3.75,1.26-4.07,1.87-4.23,2.57-1.71,1.35M557.7,840.9l6.57,13.83,10.61,18.59,12.13,17.91,13.08,16.3,1.96,2.21M635.27,932.06l.57.45.62.48,1.26.96,2.28,1.72M657.5,946.56l-.3-.17-1.78-.71-1.94-.26-1.43.49M472.24,624.81l.07.58.23.44.21.16M668.18,875.82l.74-.32,1,.03M494.06,573.66l-.04.55.16.38.04.02M507.09,585.99l-.1-.12-.03-.26.24-.75.43-.87,2.49-3.78M680.14,875.09l-1.31.38M519.4,598.63l-.06-.12.04-.24.37-.66.55-.77,2.88-3.37M535.6,607.86l-3.26,2.98-.67.69-.49.57-.11.19v.1M622.05,809.14l1.67-1.15,2.06-.97,1.67-.56,1.76-.43,4.35-.5,4.28-.02,3.59.26.15.02M689.78,872.93l-1.01.3M542.26,626.63l-.28.23-.09.11h.01M702.47,877.57l-.47.59-.03.81.66,1.79.16.36M601.32,840.78l1.14-.32,2.42-.65,1.91-.5,3.61-1.17,2.43-1.59,1.54-2.46.17-.79M656.97,874.27l.75-.31.76-.11,1.5.16.15.05M501.08,566.96l5.62-3.24M617.4,692.41l-.46-.26-.26-.33-.02-.14M620.26,676.85l-4.67-.08-1.04-.12-.87-.24-.28-.2-.15-.25h0M608.47,659.81l.08.16.24.14.8.13.98.03,4.5-.36M671.31,769.18l-.06.38.11.5.25.49.83.88,1,.78,4.59,2.48M595.5,627.29l-.4.05-.14-.06M602.36,643.52l.03.08.19.09h.72s.92-.08.92-.08l4.32-.85M675.96,745.25l-.52-.5-.27-.56.02-.24M673.96,757.13l-.04.18.09.46.23.45.82.8,1.01.69,4.69,2.15M685.9,751.34l4.2-2.42M605.73,627.38l4.27-2.46M622.05,809.14l2.18-.74,3.04-.35,2.76.12M497.65,777.82l-.59.34-.73.41-.83.46-.88.48M491.78,781.02l1.36-.72,1.48-.8M499.7,776.72l-.19.03-1.77-.19-1.56-.81-.63-.59-.72-1.06M495.98,786.2l.44-.72.52-.74.58-.73.61-.69.62-.63.61-.54.58-.44.52-.32M394.95,847.61l.3-2.01.87-1.47,1.36-.78,1.71-.02,1.45.51M407.19,855.2l-.28,1.51-.87,1.47-1.35.78-1.71.02-1.89-.75-1.9-1.44-1.71-1.99-1.36-2.35-.87-2.48-.3-2.36M406.54,862.12l-1.11.24-2.1-.21-2.25-.96M401.08,861.19l-2.25-1.64-2.1-2.21-1.8-2.64-1.38-2.88-.87-2.92-.3-2.77.3-2.43.87-1.92.76-.84M414.14,870.97l1.05-.23M390.97,829.34l-.53.59M417.91,826.16l.59.31.73.07M431.61,847.3l-.4.91-.08.87M412.5,836.29l-2.2-3.81M410.3,832.48l-.88-1.85M401.08,831.3l-3.08-1.45-2.98-.77-2.78-.06-2.5.66-2.13,1.35-1.13,1.33M413.23,844.13l-2.6-3.97-2.97-3.55-3.22-2.99-3.35-2.32M416.08,842.49l-3.43-5.94M412.65,836.55l-.15-.26M413.23,844.13l2.87,6.05,1.72,6.12.43,5.73-.89,4.89-2.14,3.68-3.23,2.19-1.28.16M423.03,854.19l-1.16-1.69M421.86,852.5l-2.2-3.81M419.66,848.69l-.15-.26M419.51,848.43l-3.43-5.94M416.03,842.52l-1.4.81-1.4.81M503.97,774.17l-4.21,2.43M499.76,776.6l-2.11,1.22M497.65,777.82l1.24,1.96,1.57,1.62M495,774.01l.03-.02M494.84,774.1l-.72.29-1.08.5-1.32.64-1.57.78-2.46,1.26-3.3,1.71-4.02,2.08M500.46,781.39l2.15-1.24M467.08,685.25l.06,2.73.06,5.52v.43M570.33,872.55l2.36,1.35,1.2.72M409.42,830.62l-.62-2.35v-2.14s.65-1.7.65-1.7l1.27-1.1,1.77-.41,2.11.29.53.17M419.63,827.09l-.87-1.19-1.13-1.09-2.5-1.42M419.63,827.09l5.9,9.94M409.42,830.62l-2.99-5.67-2.62-5.13-2.74-5.59-2.62-5.54-2.53-5.52-3.51-7.97-3.34-7.99-3.11-7.91-1.91-5.15M425.53,837.03l5.66,10.08M431.19,847.11l.87,2.33.2,2.4-.44,2.29-1.03,1.85-1.44,1.06-1.68.2-1.83-.62-1.82-1.35-1-1.07M423.03,854.19l3.53,5.61,3.05,4.69,3.45,5.14,3.49,5.05,3.5,4.93,3.03,4.16,3.31,4.44,4.06,5.3,3.55,4.49,2.46,3.04,2.78,3.35M492.03,502.89l-.81.73-.5.92-.32,1.93.37,2.7,1.05,2.82,1.48,2.54.53.68,1.29,1.14,1.09.47,1.19.12.41-.04.77-.16,1.05-.44M483.22,509.9l.03-.62-.03-.5-.24-.45-.14-.02-.09.02-.33.13-.49.26-.58.33M740.34,933.21l-1.48,1.34-.8,1.9-.03.7.52,2.09,1.12,2.15,1.54,2.13,1.75,1.74,1.85,1.17,1.78.45,1.55-.36M738.88,951.56l.03-.07-.46-.45-.74-.41M742.28,932.09l-1.03.59M740.34,933.21l-9.63,5.56M740.34,933.21l.91-.53M492.92,502.38l.69-.4.86-.48,1.16-.58.57-.23,1.75-.43h.86s.73.19.73.19M754.02,941.18l-.42,1.17-.84,1.08-1.25,1.04-1.59,1.01-.88.51M628.85,907.8l2.73,1.51,6.25,3.41,7.36,4,5.91,3.21,7.32,3.98,7.79,4.24,7.28,4.01,1.75.99M600.8,916.32l2.05-1.14M499.55,490.55l-.73-.32-.83-.23-.9-.14-.94-.04-.94.06-.9.16-.83.25-.73.34M762.59,946.15l-.09.79-.21.84-.33.85-.44.83-.52.78-.59.7-.64.6-.65.46M492.57,467.36l-1.15.7-.28.16-.07.04-.63.38-1.17.69-.77.45-.8.46-.89.5M779.19,963.79l-1.2.66-1.52.86-1.27.73-.86.5-.95.56M495.58,518.64l-5.57,3.22M490.01,521.85l-1.11.23-1.04-.54-1.12-1.32-1.27-2.14-1.13-2.44-.8-2.39-.36-2.27.03-1.09M483.22,509.9l-1.17-.7-.59-.37-.06-.03M736.28,935.54l-5.57,3.22M737.62,952.09l.08-1.46M730.71,938.76l-.75.85-.05,1.17.27.9.95,1.94,1.42,2.2,1.62,2.04,1.73,1.66,1.81,1.12M659.85,827.36l27.54,47.71M384.05,774.14l.13-7.55.42-7.89.89-7.38,1.36-7.67,1.09-7.61.8-7.95.48-6.55.26-4.17.36-7.02.38-9.12.31-9.1.2-7.84.08-4.68.03-3.46M459.25,904.4l8.29,4.57,7.32,3.59,8.92,3.49,8.06,3.05,7.43,3.25,8.37,4,8.23,4.15,7.9,4.11,9.84,5.23,8.05,4.38,5.84,3.29M427.72,557.82l-1.57.49h-1.98s-2.37-.59-2.37-.59l-2.47-1.44-1.84-2.03-1.09-2.22-.44-2.22.03-1.12M420.96,543.92l-.69.4-.84.5-1.08.72-.48.38-1.25,1.3-.42.75-.21.72M668.42,974.72l-1.21,1.11-1,1.72-.45,1.31-.31,2.67.49,2.74,1.16,2.3,1.57,1.75,1.75,1.12M670.42,989.44l1.23.22,1.35-.19,1.53-.57,1.67-.87.88-.51M762.59,946.15l-6.15-3.67M779.19,963.79l-3.5-5.35-4.08-4.9-4.45-4.17-4.57-3.22M499.55,490.55l-.51-5.57-1.38-5.94-2.2-5.99-2.88-5.7M499.67,498.96l-.12-8.41M695.94,833.29l6.85,11.86M671.9,972.72l-3.48,2.01M660.33,979.39l8.09-4.67M492.92,502.38l-.17-11.76M749.03,945.98l-36.6,21.13M759.12,952.01l-10.1-6.03M410.3,550.07l10.66-6.15M421.87,543.39l-.91.53M481.35,509.05l-25.04,14.46M481.35,509.05l10.67-6.16M492.84,502.43l-.81.47M456.31,523.51l36.6-21.13M407.19,524.83l-.28,1.51-.87,1.47-1.35.78-1.71.02-1.89-.75M401.08,527.86l-1.9-1.44-1.71-1.99-1.36-2.35-.87-2.48-.3-2.36.3-2.02.87-1.47,1.36-.78,1.71-.02,1.45.51M687.17,1023.39l-1.89-1.44-1.71-1.99-1.36-2.35-.87-2.48-.3-2.36.3-2.01.87-1.47,1.36-.78,1.71-.02,1.45.51M693.29,1020.35l-.28,1.51-.87,1.47-1.36.78-1.71.02-1.9-.75M406.54,531.75l-1.11.24-2.1-.21-2.25-.96-2.25-1.64-2.1-2.21-1.8-2.64-1.38-2.88-.87-2.92-.3-2.77M392.38,515.76l.3-2.43.87-1.92.76-.84M678.48,1011.29l.3-2.43.87-1.92.76-.84M692.63,1027.28l-1.11.24-2.1-.21-2.25-.96-2.25-1.64-2.1-2.21-1.8-2.64-1.38-2.88-.87-2.92-.3-2.77M672.19,990.34l-3.43,1.98M668.77,992.32l-.15.09M668.62,992.41l-2.2,1.27M666.42,993.68l-1.16.35M409.42,550.9l.88-.83M410.3,550.07l2.2-1.27M412.5,548.8l.15-.08M412.65,548.72l3.43-1.98M414.14,540.6l1.01-.23M391.07,498.86l-.06.06-.57.64M386.52,501.82l.27-.32,2.14-1.77,2.6-.96,2.97-.12,3.23.73,3.35,1.55M413.23,541.83l-2.49.73M700.23,1036.13l.92-.2M676.94,994.62l-.4.46M675.02,995.26l-2.14,1.77-.55.87M704.36,1026.23l-.33,3.68-.98,3.16-1.59,2.52-2.14,1.77-2.6.96-.41.07M472.6,455.89l6.81-3.93M404.48,495.22l6.81-3.93M492.74,490.62l-.62-5.91-1.44-5.45-1.88-4.7-1.99-3.85M486.8,470.72l-3.07-4.59-3.47-4.1-3.76-3.45-3.9-2.68M779.13,986.82l6.81-3.93M773.4,967.11l2.44,4.95,1.81,5.06,1.11,4.98.38,4.72M773.4,967.11l-2.34-3.65-3.13-3.98-3.99-3.97-4.81-3.5M711.01,1026.14l6.81-3.93M425.53,559.08l-5.9,3.4M419.63,562.48l-1.79.46-2.24-.32-2.32-1.1-2.06-1.8-1.52-2.3-.83-2.47-.12-1.89.19-1.11.49-1.06M384.05,578.13l1.91-2.95,3.11-4.35,3.34-4.17,3.51-3.94,2.53-2.6,2.62-2.5,2.74-2.41,2.62-2.1,2.99-2.2M390.84,676.15l-.04-4.49-.11-5.66-.2-6.83-.29-7.99-.27-6.43-.67-12.19-.99-11.78-.89-7.04-1.49-9.13-1.18-9.07-.49-8.27-.17-9.15M390.84,676.15l10.91-6.21,1.2-.68,2.21-1.26,7.5-4.27M657.13,997.28l4.12-1.52.71-.29,1.27-.54,2.02-.9M665.26,994.03l-1.71-.28-1.81-1.05-1.67-1.71-1.28-2.2-.71-2.46-.07-2.48.08-.56M660.33,979.39l-.73.58-.67.91-.84,2.4M660.33,979.39l5.9-3.41M629,1002.39l-4.46-2.64-6.71-4.2-8.28-5.93-6.54-5.37-5.92-4.66-6.05-4.42-5.57-3.84-4.26-2.84-5.37-3.48-6.93-4.41-7.55-4.72-6.56-4.03-4.12-2.48-3.16-1.86M629,1002.39l14.68-1.61,13.46-3.5M675.02,995.26l3.81-1.12,4.44.59,4.75,2.24,4.68,3.73,4.26,4.93,3.51,5.75,2.48,6.13,1.27,6.04M678.87,986.17l-.89.83M677.98,987l-2.2,1.27M675.77,988.27l-.15.09M675.63,988.36l-3.43,1.98M672.22,990.38l1.4,2.44,1.4,2.44M419.66,544.67l2.2-1.27M421.86,543.4l1.16-.35M418.27,530.7l-.28-3.71-.82-3.91-1.34-3.99-1.82-3.93-2.24-3.75-2.58-3.45-2.84-3.04-3.01-2.52M413.23,541.83l2.14-1.77,1.59-2.51.98-3.16.33-3.68M416.03,546.66l-1.4-2.41-1.4-2.41M416.08,546.74l3.43-1.98M419.51,544.75l.15-.09M716.94,935.75l4.34-2.16.16-.06,1.23-.39,3.44-.53,5.14.65,5.03,2.29M736.28,935.54l5.99-3.46M742.27,932.09l1.57-.49h1.98s2.37.59,2.37.59l2.47,1.44,1.84,2.02,1.09,2.22.44,2.22-.02,1.09M754.02,941.18l1.22.67.61.35.43.23.12.05h.04s.01,0,.01,0h0M756.44,942.48l1.47-1.54,1.33-1.4,1.19-1.27,1.05-1.14.9-1,.15-.16.79-.88,1.11-1.24,1.06-1.2.39-.45.33-.38.27-.31.21-.24.35-.4.26-.3.18-.2.5-.58.13-.15.03-.04h.01s0-.02,0-.02h0s2-2.35,2-2.35l2.21-2.67,2.63-3.26,2.07-2.65,2.11-2.89M716.4,936.06l.27-.15.27-.15M495.58,518.64l5.99-3.46M485.73,535.29l4.04-2.68.13-.11.95-.87,2.18-2.71,2.01-4.78.54-5.5M485.2,535.6l.27-.16.27-.16M499.67,498.96l6.38-2.46,6.56-1.98,6.94-1.54,7.29-1.07,7.32-.55M499.67,498.96l-.14,1.49M501.57,515.18l1.21-1.11,1-1.72.45-1.31.31-2.67-.49-2.74-1.17-2.3-1.57-1.75-1.78-1.14M423.03,543.04l1.54.2,1.23.55,1.58,1.16,1.22,1.24,1.26,1.63,1.01,1.65.79,1.66.48,1.52M431.19,555.81l.6-.5.38-.74-.02-1.91M431.19,555.81l-5.66,3.27M458.5,562.39l-1.03.57M459.25,534.7l-2.78.13-2.46.18-3.55.37-4.06.59-3.31.6-3.03.65-3.5.89-3.49,1.03-3.45,1.17-3.05,1.18-3.53,1.55M679.85,945.78l-1.01.6M666.23,975.99l5.66-3.27M671.89,972.72l1.28-.27,1.34.55,1.41,1.32,1.4,2,1.18,2.34.8,2.4.29,2.28-.29,1.94-.44.89M678.87,986.17l3.1-2.29,2.55-2.05,2.74-2.4,2.63-2.51,2.52-2.59,2.08-2.3,2.18-2.56,2.54-3.23,2.09-2.89,1.39-2.04,1.5-2.35M479.41,451.96l16.56,9.56M495.98,461.52l-1.29,1.04-1.1,1.47-.74,1.68-.27,1.64M492.57,467.36l41.59,24M534.17,491.36l4.41,2.5,5.4,2.88,5.15,2.48,5.49,2.27,6.48,2.37,4.32,1.65,3.43,1.42,3.92,1.75,4.46,2.09,4.89,2.38,10.45,5.26,9.02,4.68,7.99,4.26,6.96,3.82,5.92,3.36M703.95,589.37l41.59,24.02M779.19,671.68v48.03M779.19,915.76l.04-5.07.21-6.11.42-5.7.78-5.89,1.19-6.8.73-4.56.48-3.68.44-4.27.42-4.91.38-5.42.67-11.68.46-10.16.3-9.06.17-7.94.06-6.81M779.19,915.76v48.03M779.19,963.79l1.56.58,1.83.2,1.82-.22,1.54-.6M785.94,963.76v19.13M748.94,607.56l16.56,9.56M745.54,613.39l.28-1.64.74-1.68,1.1-1.47,1.29-1.04M745.54,613.39l.63,1.74.02,1.77-.41,1.23-.49.71-.79.64M779.19,671.68l-1.18-1.4-.28-.23-.07-.05-.65-.4-1.18-.42-.77-.08-.8.09-.87.34M785.94,671.64l-1.54.6-1.82.22-1.83-.2-1.56-.58M785.94,652.51v19.13M703.95,589.37l-4.41-2.59-5.38-3.34-5.04-3.4-5.13-3.87-5.63-4.62-3.64-2.94-2.92-2.24-3.41-2.48-3.94-2.76-4.38-2.97-9.46-6.23-8.27-5.3-7.44-4.65-6.63-4.02-5.81-3.42M622.46,534.54l-10.83,6.25-10.83,6.25M785.94,817.7l-10.83,6.25-10.83,6.25M779.19,719.71l.04,5.12.21,6.33.42,6.07.78,6.38,1.19,7.19.73,4.62.48,3.65.44,4.19.42,4.79.38,5.27.67,11.31.46,9.81.3,8.77.17,7.75.06,6.74M680.7,945.19l-.35.24M459.45,561.94l-.38.18M457.48,563.1l1.01-.71M678.72,946.31l1.12-.53M460.47,734l-2.26-6.56-4.46-15.31-1.24-4.83-.99-4.13-1.28-5.77-.86-4.2-.32-1.67-.33-1.74-.33-1.8-.03-.18M480.37,781.35l-3.05-6.17-1.98-4.14-2.87-6.25-.16-.37M446.99,615.12l-.16.81-.78,5.75M473.64,557.49l-2.13,2.28-1.63,1.94M606.71,919.59l-.4-.21-5.51-3.06M691.64,935.12l-1.61.41-3.01.62-3.66.6-3.76.44-4.06.3-10.71-.05-10.78-1.19M548.31,875.52l7.63,7.31,8.62,7.65,9.38,7.65,8.66,6.46,8.01,5.46,10.18,6.26M501.33,817.63l3.55,5.33,4.33,6.27,3.1,4.29M498.47,813.19l2.86,4.44M510.57,805.51l-12.1,7.69M491.78,781.02l1.88,2.83,2.32,2.36M491.78,781.02h0s-.04.02-.04.02l-.11.06-.44.23-1.72.9-6.81,3.56M482.65,785.78l-2.28-4.43M716.4,936.05l6.41-4.13,5.79-4.59,1.21-1.08,1.2-1.11,1.19-1.15,1.18-1.18,1.17-1.22,1.15-1.25,1.14-1.29,1.07-1.26,1.78-2.2,2.41-3.24,2.95-4.4,1.79-2.95,1.8-3.23,1.99-3.93,1.2-2.57,1.91-4.48,2.3-6.22,1.49-4.66,1.69-6.08,1.65-7.25.84-4.51,1.53-11.27.76-9.81.28-10.78M600.8,547.04l-9.04-4.93-8.1-3.92-10.42-4.36-7.15-2.52-5.12-1.56-4.35-1.17-3.59-.86-3.01-.64-3.17-.6-3.55-.57-2.88-.38-2.18-.24-2.25-.2-3.36-.21-3.52-.11h-3s-3.29.11-3.29.11l-4.31.31-3.94.46-2.76.43-1.62.3-3.23.69-7.45,2.1-7.27,2.83-7.03,3.59M693.29,689.98l-.28,1.51-.87,1.47-1.36.79-1.71.02-1.9-.75-1.89-1.44-1.71-1.99-1.36-2.35-.87-2.48-.3-2.36M681.04,682.4l.3-2.01.87-1.47,1.36-.79,1.71-.02,1.45.51M687.17,695.98l-2.25-1.64-2.1-2.21-1.8-2.64-1.38-2.88-.87-2.92-.3-2.77.3-2.43.87-1.92.76-.84M692.63,696.91l-1.11.24-2.1-.21-2.25-.96M401.08,500.93l2.25,1.48M403.33,502.41l.15.09,1.12.64,3,1.74,27.06,15.63,9.55,5.51,10.71,6.17,2.97,1.71.89.51.49.28M489.9,553.98l1.14.66M690.58,660.37l-16.57-9.56M421.05,504.78l-16.56-9.56M404.48,495.22l-.65.44-.62.57-.58.67-.51.76-.42.81-.32.83-.21.83-.09.79M702.83,922.62l-.02-1.04M704.2,958.96v.56s0,4.45,0,4.45v23.38s0,6.68,0,6.68v12.38s0,12.33,0,12.33v3.34s0,.97,0,.97v.49M704.21,1023.54l.15,2.69M704.36,1026.23l.73.32.82.23.88.14.91.04.91-.06.87-.16.8-.25.71-.34M711.01,1026.14v-14.78s0-2.32,0-2.32v-1.25s0-.41,0-.41v-.19h0v-.02h0v-.02h0v-.02h0v-.02h0v-.02h0v-.02h0v-.08M711.01,714.9v-19.12h0M666.23,698.03l-5.9-9.94M660.33,688.09l-1.29-2.39-.85-2.21-.21-1.84.53-1.31,1.23-.6,1.73.23,1.57.82,1.05.85,1.16,1.24M599.75,617.4l-.42-.23M678.87,706.45l.59,2.09.14,1.5-.19,1.56-.5,1.1-.74.69-.93.22-.93-.23-1.21-.82M671.89,708.11l.74,1.27.83,1.26,1.65,1.91M671.89,708.11l-5.66-10.08M702.83,795.02v1.58M712.41,794.55v1.17M711.01,860.95l10.83-6.25,10.83-6.25M547.53,577.8l10.83-6.25,10.83-6.25M700.23,705.76l.97-.21M677.02,664.17l-.48.55M704.36,695.86l-.15,2.52M684.92,664.96l2.26,1.13M779.13,656.45l6.81-3.93M765.51,617.12l3.55,2.41,3.44,3.05,3.23,3.6,2.92,4.04,2.52,4.36,2.04,4.55,1.5,4.6.92,4.5.31,4.28M765.51,617.12l-6.81,3.93M744.5,619.48l3.06-1.05,3.48-.08,3.76.88,3.9,1.82M697.39,656.44l-6.81,3.93M711.01,695.77l6.81-3.93M773.4,669.53l2.44-2.13,1.81-2.97,1.11-3.7.38-4.29M711.01,695.77l-.31-4.28-.92-4.51-1.5-4.6-2.04-4.55-2.52-4.36-2.92-4.05-3.23-3.6-3.44-3.05-3.55-2.41M687.18,666.09l.09-.79.21-.83.32-.83.42-.81.51-.75.58-.68.62-.57.64-.44M687.18,666.09l3.35,2.32,3.23,2.99,2.97,3.55,2.6,3.97,2.14,4.24,1.59,4.35.98,4.29.33,4.06M711.01,695.77l-.71.34-.8.25-.87.16-.91.06-.91-.04-.88-.14-.82-.23-.73-.32M672.44,667.51l.59-1.02,3.23-2.19,4.07-.52,4.59,1.18M629,632.69l.49.28,3.85,2.22,20.25,11.7,5.78,3.33,10.72,6.18,10.68,6.16,2.89,1.67.84.48.43.25M665.26,682.88l-3.52-5.62-3.04-4.7-3.44-5.15-3.48-5.05-3.5-4.93-3.04-4.16-3.32-4.44-4.09-5.29-3.57-4.48-2.47-3.03-2.79-3.35M665.26,682.88l1.16,1.69M666.42,684.58l2.2,3.81M668.62,688.39l.15.26M668.77,688.65l3.43,5.94M696.44,707.95l2.06-.55,2.13-1.35,1.7-2,1.21-2.59.68-3.09M675.62,700.53l-3.43-5.94M675.77,700.79l-.15-.26M677.98,704.6l-2.2-3.81M677.98,704.6l.89,1.85M685.78,719.82l-3.39-6.72-.61-1.17-1.12-2.11-1.79-3.37M704.2,762.95l-8.66-21.95-9.76-21.18M704.2,698.37v4.93s-.01,31.24-.01,31.24v11.03s0,12.37,0,12.37v4.45s0,.56,0,.56M460.81,852.29l.73-.5.72-.79,1.05-1.79.19-.82v-.3M460.11,848.33l.73.09.86-.03.9-.17.87-.25M463.47,847.98l-.54-2.32-.67-2.35-.64-2.36-.46-2.33-.11-1.04.09-2.44.15-1.53-.02-1.91M463.35,823.91l.04,3.91-.44,1.98-.55.99-1.12.91M461.28,831.69l-1.31.22h-.66s-.62-.05-.62-.05l-1.02-.31-.84-.43-2.35-2.1M461.28,831.69l-.35-2.3-.5-2.39-.47-2.4-.27-2.31v-.99s.38-2.2.38-2.2l.35-1.36.18-1.78M404.31,720.52l1.01.25,1.07-.13,1.8-.84.56-.48.15-.19M460.59,815.95l-1.31.1-.65-.06-.6-.14-1-.46-.81-.56-2.31-2.6M460.59,815.95l-.16-2.26-.32-2.4-.29-2.41-.08-2.27.1-.93.66-1.94.53-1.17.38-1.63M454.94,796.24l2.2,3.06.77.69.96.6.59.22.64.14.66.05.65-.04M461.41,800.95l.04-2.19-.13-2.38-.1-2.38.12-2.19.2-.86.93-1.65.7-.96.57-1.47M405.69,717.93l.7.58.82.4.88.16.85-.02M408.94,719.05l.62-1.78.43-2.12.47-2.12.7-1.75.47-.54,1.61-.54,1.13-.21,1.07-.77M415.44,709.21l-1.23-.17-.6-.25-.56-.36-.9-.97-.71-1.08-1.87-4.59M415.44,709.21l.81-1.61.63-2,.66-2,.89-1.58.55-.44,1.79-.17,1.24.04,1.22-.53M559.29,943.15l.19-1.06.19-1.17.19-2.12-.17-.83-.14-.28M544.96,903.67l-.96.88-.88.65-.72.47-1.18.7M549.85,922.34l-1.26-1.98-1.22-1.76-1.19-1.78-1.2-2.03-.56-1.08-1.37-3.11-.83-2.05-.98-2.18M554.15,920.57l-1.29.32-1.02.4-.78.38-1.21.67M541.23,906.37l-1.16.62-.55.29-.49.25-.75.36-.57.26-1.39.52M541.23,906.37l-1.14-2.1-1.14-1.93-1.11-1.95-1.08-2.15-.48-1.11-1.09-3.07-.64-2.01-.8-2.19M533.75,889.86l.66-.39,1.18-.91.8-.94.73-1.51M556.9,939.63l.48-.46.63-.53.73-.55.75-.52M559.49,937.57l-1.36-1.83-1.29-1.57-1.26-1.6-1.3-1.88-.64-1.04-1.64-3.1-1.01-2.06-1.15-2.14M549.85,922.34l-1.12.71-.53.35-.48.32-.72.51-.53.4-1.18,1.05M528.54,891.06h1.54s.58-.11.58-.11l.79-.21.51-.17.57-.21.6-.24.61-.26M533.75,889.86l-1-2.2-1.04-2.07-1.01-2.09-.94-2.24-.39-1.12-.8-3-.44-1.94-.62-2.18M423.24,700.93l-1.19-.27-.57-.31-.51-.42-.8-1.05-.62-1.15-1.57-4.82M430.14,694.42l.75.16,1.35-.29M423.24,700.93l1-1.42.83-1.85.86-1.85,1.07-1.39.63-.32,1.95.19M427.7,685.79l1.22,5.02.51,1.21.7,1.12.46.46.52.35.56.23.57.1M432.24,694.29l1.18-1.22,1.01-1.68,1.05-1.67,1.25-1.19.69-.2,2.07.56,1.4.54,1.46-.05M524.82,873.78l.56-.08.67-.16.73-.24.73-.28M460.85,786.13l.62.38.73.25.77.12.76-.02M421.41,611.13h-.08M416.21,609.5l.89.84,1.09.5,2.09.29h.78s.25.01.25.01M491.14,747.01l-1.38.85-.2.25M509.29,796.1l-.59-1.21-.09-2.35M495.75,744.22l-.39.26M495.75,744.22l1.73-.74,1.77-.66,2.71-.82M493.22,739.47l-.45.43-.19.72.1.91.38.96.59.86.72.63.74.31.64-.07M501.96,742l.06-.02M501.96,742l-.4.26M512.67,798.85l.28,2.67.88,1.41.68.45M550.04,837.26l-.35-.18-2.25-2.12-1.65-2.81M615.41,919.43l-1.47-1.25-1.27-.91-1.25-.93-1.43-1.31-.8-.85-2.33-2.84-1.5-1.95-1.54-1.85M419.1,609.46l.39.75.55.56.67.28.7.07M421.41,611.13l1.58-.46,1.5-1,1.53-1,1.65-.42h.03M466.4,844.2l.21,1.75.08,1.75-.17,1.11-.6.42-1.24-.59-.5-.29-.56-.26h-.08s-.04,0-.04,0h-.02M466.41,844.24l-1.21-8.33M465.2,835.9l-1.33-10.92-.82-10.91-.28-11.1.09-3.77M488.58,742.4l-.98.75-6.52,6.75-5.62,7.74-6.86,13.49-4.78,15.37-.08.35M463.35,823.91l.07.65.06.52.09.69.11.65.14.64.14.69.09.52.11.66M464.15,828.93l.12.76.12.81.22,1.58.37,2.91.39,2.91.23,1.58.13.81.14.77M465.87,841.06l-.15,3.39-.32,1.31-.78,1.35-1.15.88M463.47,847.98l.02.11M455.07,841.75l2.46,7.71M457.52,849.46l.59,1.26.81,1.1.93.57.92-.08h.03M460.11,848.33l.7,3.96M460.11,848.33l-2.05-.85-1.39-1.12M456.67,846.37l-.33-1.47-.43-1.47-.87-2.75-.74-2.77-.31-1.49-.13-.76-.11-.72M453.76,834.93l-.07-.64-.04-.54v-.79s.3-.92.3-.92l.42-.99.14-.85v-1.19M454.49,829.02l-.21-1.46-.33-1.5-.74-2.88-.62-2.89-.22-1.52-.08-.75-.04-.7M452.26,817.3v-.61s.02-.51.02-.51l.14-.7.5-.68.62-.73.25-.73.12-1.11M453.91,812.24l-.08-1.44-.22-1.53-.56-2.99-.45-2.99-.11-1.54v-.75s.01-.68.01-.68M452.49,800.33l.06-.57.09-.46.26-.58.68-.41.78-.45.35-.6.23-1.01M454.94,796.24l.05-1.4-.1-1.54-.35-3.07-.24-3.07v-1.54s.06-.73.06-.73l.09-.65M454.44,784.23l.12-.53.15-.4.35-.44.8-.11.9-.15.44-.46.34-.9M457.55,781.24l1.29,2.54.86,1.23,1.14,1.12M481.63,686.49l-1.58,2.64M452.77,829.65l2.3,12.1M615.41,919.43l.69-.34,1.71-.2,1.8.43,3.02,1.62M627.42,929.87l-1.49-1.02-1.24-.66-1.22-.69-1.45-1.09-.83-.76-2.5-2.67-1.63-1.84-1.64-1.71M614.05,925.89l-.45-2.69.06-.82.26-.93.26-.51.35-.52.42-.5.47-.47M440.09,687.8l.42.64.55.5.63.31.65.13M488.44,741.39l.45-.24,1.36-.7M433.76,612.21l-.94-.27-.4-.32-.33-.44-.4-1.14-.21-1.26.04-5.25M435.6,611.93l1.5-.71,1.67-.77,1.58-.16M635.27,932.06l-3.41-2.04-1.96-.63-1.14-.03-1.34.5M639.69,938.74l-1.48-.78-1.2-.41-1.17-.44-1.45-.86-.86-.66-2.66-2.46-1.74-1.72-1.72-1.54M627.42,929.87l-.8,1.05-.31.57-.22.56-.19,1.03v.92s.73,3.06.73,3.06M602.05,909.74l.27-.52.41-.57.51-.57.57-.54M496.59,703.98l-2.17-1.49-.77-1.25-.05-.88.25-.64M646.95,940.6l-.2-.12M448.71,615.07l1.49-.45,1.79-.53,1.35.05M652.06,945.92l-1.45-.53-1.13-.16-1.11-.19-1.42-.61-.88-.56-2.78-2.21-1.83-1.56-1.77-1.34M639.69,938.74l-.77,1.07-.29.59-.2.6-.12,1.12.07,1.02,1.1,3.4M553.41,939.86l3.71,4.23M557.11,944.08l.69.51.66.09.5-.5.32-1v-.04M556.9,939.63l2.4,3.52M556.9,939.63l-1.07,1.33-.46.95M555.36,941.91l-.84-1.16-.76-.92-1.21-1.39-1.08-1.44-.65-.98-.37-.58-.4-.63M550.05,934.8l-.4-.64-.39-.63-.69-1.16-1.06-2.01-.94-2.11-.58-1.24-.7-1.32M545.29,925.68l-.78-1.26-.74-1.05-1.23-1.66-1.11-1.7-.63-1.09-.35-.63-.36-.67M540.11,917.62l-.35-.66-.33-.65-.56-1.15-.8-1.93-.7-2.01-.46-1.22-.59-1.34M536.31,908.66l-.7-1.34-.69-1.16-1.19-1.92-1.08-1.96-.58-1.2-.31-.68-.31-.7M531.44,899.69l-.29-.68-.27-.65-.44-1.13-.57-1.79-.48-1.86-.35-1.17-.49-1.35M528.54,891.06l-.62-1.41-.63-1.27-1.12-2.18-1-2.21-.52-1.3-.27-.71-.26-.73M524.13,881.25l-.24-.69-.21-.64-.33-1.07-.37-1.61-.29-1.66-.25-1.11-.38-1.34M522.07,873.13l1.03.49.72.15h1M552.53,938.4l.87,1.45M565.97,938.88l.33.87-.16.52-.74-.07-1.6-.73-2.44-1.23-.81-.33-.83-.24h-.1s-.05,0-.05,0h-.02M565.99,938.9l-2.44-4.89M563.54,934.01l-3.12-6.67-2.76-7-2.4-7.44-2-7.84-1.52-7.99-1.08-8.35M550.66,888.71l-.56-4.41-.85-4.72-1.15-5.02-1.34-4.95-1.63-5.3-1.91-5.66-1.86-5.16-2.03-5.46-2.15-5.74-2.91-8.01-2.8-8.25M527.5,811.58l3.95,14.44M516.73,804.68l-.14,1.8.19,12.65,1.23,12.99,3.66,20.14,5.69,20.32.15.44M527.5,873.02l.65-.41.49-.38.66-.69.78-1.23.62-2.16M530.71,868.14l.23.71.23.63.42,1,.68,1.37.68,1.39.43,1.02.25.64.26.72M533.89,875.62l.27.77.25.76.42,1.38.66,2.35.65,2.35.43,1.37.26.75.29.77M537.11,886.12l.3.71.29.64.54,1.05.9,1.54.91,1.54.56,1.06.31.65.33.71M541.26,894.02l.32.74.29.71.49,1.27.73,2.11.72,2.11.49,1.26.31.7.35.73M544.96,903.67l.36.7.36.65.67,1.09,1.15,1.66,1.16,1.66.7,1.08.39.64.39.69M550.14,911.83l.38.7.34.67.53,1.16.75,1.86.75,1.85.54,1.14.34.66.39.69M554.15,920.57l.42.68.43.64.8,1.1,1.43,1.74,1.45,1.71.85,1.07.46.62.46.66M560.44,928.8l.42.66.37.62.55,1.04.7,1.61.71,1.6.56,1.02.37.6.44.65M564.56,936.6l-1.75-.16-.86.1-1.22.39-1.25.65M559.49,937.57l.07.1M654.07,954.58l2.32-1.34,3.4-1.96,3.18-1.84M551.1,835.25l2.04,3.11,2,1.64,1.46.67,1.42.28.93-.06M653.66,950.59l-.36-1.17-.26-1.11-.39-1.68-.33-.52-.19-.14M650.76,949.12l.06-.83.25-.86.44-.8.54-.7M512.66,798.85l5.48,2.63,5.15,3.15,4.75,3.69,4.32,4.16,7.37,9.42,6.06,10.24M596.21,843.42l.52-.22.52-.23.52-.24.51-.25.51-.26.5-.27.5-.28.49-.29M596.21,843.42l-1.3.52-1.56.24-1.57-.04-1.72-.31-3.1-1.23-2.6-1.86M491.14,747.01l3.79,4.1,3.35,4.67,2.85,5.24,2.34,5.74,3.27,12.55,1.89,13.23M530.42,677.05l1.77-1.08M551.1,835.26l5.41-.53,5.11-.17,4.72.23,4.32.61,7.45,2.21,6.25,3.12M526.32,679.54l4.1-2.49M532.98,750.87l.25-.77,1.27-2.55,1.77-1.94.79-.56M560.94,786.41l-1.01.46-2.58.53-2.86-.21-.63-.14M409.56,718.79l-.11.3-.18.02-.27-.02h-.05s-.04.02-.04.02h-.02M469.18,685.14l-13.15.7-13.41,3.44-.28.1M408.94,719.05l-.04.07M504.64,687.93l-1.19.95M496.75,694.94l-.4.53-.25.84.09.91,1.08,1.63,2,1.37M402.74,706.89l-.84,8.1M401.9,714.99l.07,1.5.42,1.69.8,1.44,1.07.88.04.02M405.69,717.93l-1.38,2.58M405.69,717.93l-1.9-2.72-1.26-2.9M402.53,712.31l.41-1.13.24-1.41.25-3.04.37-3.04.34-1.41.23-.61.26-.49M404.63,701.18l.28-.33.29-.18.57.02,1.13.81,1.28.77h.7s.67-.49.67-.49M409.56,701.79l.53-1.02.36-1.34.47-2.97.58-2.96.46-1.33.29-.56.32-.43M412.57,691.18l.34-.26.34-.11.65.16,1.23,1.09,1.35,1.05.76.15.76-.34M417.99,692.91l.65-.91.49-1.26.72-2.87.81-2.87.58-1.25.35-.5.38-.36M421.96,682.89l.39-.19.38-.04.71.31,1.26,1.37,1.37,1.34.8.3.83-.19M427.7,685.79l.77-.78.62-1.17.98-2.75,1.07-2.75.71-1.16.41-.44.43-.3M432.67,676.44l.43-.12.41.04.74.46,1.24,1.65,1.34,1.63.82.46.89-.03M438.55,680.52l.44,3.7.42,1.83.68,1.75M501.03,691.26l-15.64-4.97-15.11-2.37-14.73.27-13.59,2.97-1.86.65M528.8,672.02l-2.8,1.53-9.21,5.57-8.66,5.97-.85.65M453.22,614.12l-2.65,2.58-5.26,5.78-5.26,6.3-5.12,6.67M434.93,635.45l-11.03,16.56-9.33,17.52-5.09,12.21-4.02,12.52-2.72,12.63M496.58,703.98l1.13,3.18.55,3.68-.08,4.18-.69,4.61-2.94,10.13-4.31,10.69M531.43,679.97l-.65-.09-.65-.08-.64-.07-.64-.06-.64-.05-.64-.04-.63-.03-.63-.02M526.47,689.9l-1.72-3.27-.52-2.44.08-1.53.41-1.3.69-1.04.92-.76M651.75,955.29l2.32-.71M654.07,954.58l.31-.39.03-.86-.28-1.26-.45-1.43-.02-.05M650.76,949.12l2.91,1.47M650.76,949.12l.58,2.79,1.1,2.33M652.44,954.23l-.9-.35-.6-.02-.6.4-.5.31-.51-.1-.38-.17-.48-.26M648.46,954.05l-.55-.34-.59-.4-1.21-.9-2.26-1.96-2.17-2.06-1.12-1-1.08-.83M639.48,946.55l-.92-.5-.66-.18-.77.12-.66.04-.57-.25-.4-.25-.48-.33M635.02,945.19l-.54-.41-.57-.46-1.13-1-2.08-2.07-2-2.16-1.05-1.08-1.04-.94M626.62,937.06l-.93-.65-.7-.34-.88-.19-.78-.25-.6-.41-.4-.32-.47-.41M621.86,934.5l-.51-.47-.54-.52-1.05-1.08-1.89-2.14-1.83-2.21-.98-1.14-1-1.05M614.05,925.89l-.92-.8-.71-.49-.96-.5-.86-.56-.62-.56-.4-.4-.46-.48M609.13,922.1l-.49-.53-.51-.56-.98-1.13-1.73-2.15-1.66-2.22-.91-1.18-.95-1.14M601.91,913.19l-.23-1.49.06-.89.31-1.07M648.25,954.71l.85.54,2.65.05M588.45,839.18l3.06,1.97,2.63.85,1.79.24,1.66-.05,1.46-.3,1.22-.52M600.26,841.37l4.5-4.43,4.14-4.11,3.57-3.84,2.85-3.62,2-3.47,1.08-3.43.11-3.49-.72-3.5M600.26,841.37l4.34-2.45M604.61,838.91l31.07-17.53M662.96,949.45l-.11-.18-.95-.59-1.65-.82-2.69-1.06-3.33-.82-.97-.09-.94.02-.11.02-.06.02h-.02M657.58,946.59l-1.13-2.06-.88-2.53-.63-3.06M654.95,938.94l-.49-1.8-1-2.1-1.52-2.4-1.9-2.52-2.41-2.84-2.94-3.19-2.96-3.06-3.35-3.39-3.72-3.76-5.4-5.61-5.72-6.25M586.66,843.15l7.06,15.22,8.82,15.5,10.01,14.64,10.99,13.5M561.55,840.87l3.18,7.56,6.45,12.83,7.2,12.33,12.04,17.62,13.11,16,.3.33M603.82,907.54l.69-.34.61-.2,1.02-.12,1.69.2,2.72,1.14M610.55,908.21l.51.57.54.57,1.08,1.08,2.01,1.91,2.01,1.92,1.09,1.09.56.57.53.55M618.88,916.47l.47.5.38.43.51.61.51.73.5.73.51.59.38.4.48.48M622.62,920.94l.54.51.58.53,1.17,1.03,2.21,1.89,2.21,1.89,1.19,1.02.6.52.56.49M631.68,928.83l.49.43.39.34.5.46.43.43.42.42.49.43.39.32.49.4M658.25,946.99l-.75-.43M652.06,945.92l.08.04M622.05,809.14l-4.26,2.35M588.45,839.18l3.62-3.91,3.24-3.74,2.79-3.51,2.34-3.25,3.48-5.7,2.37-4.8M617.79,811.49l.11-.73.1-.74.09-.74.09-.75.08-.75.07-.76.06-.76.06-.77M617.79,811.49l-1.3.65-1.54.62-1.53.51-1.66.45-2.98.51-2.49.05M668.18,875.82l-1.15.23-.72.58-.71.55-1.14.16-.83-.19-2.92-1.27-1.97-.97-1.77-.65M656.42,877.2l-.1-.75.07-.77.23-.74.35-.67M526.46,689.9l-1.25.31-1.94.64-2.68.98-3.35,1.29-8.33,3.31-9.64,3.81M534.23,678.34l-2.8,1.63M574.31,697.29l1.88-1.18M535.33,679.07l-.4-.1-.21-.12M570.19,699.88l4.12-2.58M570.19,699.87l-3.03-4.13-3.68-4.02-4.31-3.7-4.87-3.18-5.32-2.5-5.66-1.68-5.88-.75-6,.05M531.44,679.97l-1.04.85-.74,1.17-.37,1.29-.07,1.52.69,3.03,1.55,2.89M502.94,562.22l-1.86.64-.24.18M490.96,571.17l.43.99.73.75M502.91,562.22l.98-.13M493.92,567.38l2.29-1.34,3.41-1.97,3.25-1.85M575.51,704.81l-.66-.64-.66-.64-.66-.63-.67-.62-.67-.61-.67-.61-.67-.6-.67-.59M566.79,711.36l-.24-3.65.41-2.74.58-1.7.76-1.44.9-1.14.99-.81M678.83,875.47l-1.04.49-.58.81-.57.78-1.03.41-.8-.06-2.91-.92-1.98-.75-1.74-.4M671.47,884.42l-2.84-3.78-.57-1.1-.38-1.23-.04-.66.07-.65.19-.62.29-.56M612.91,754.93l-3.29,1.82M618.45,805.5l4.28-2.55M622.73,802.94l45.91-27.41M668.64,775.54l.05-1.52.04-1.52M609.62,756.75l-.36-.9-.36-.89-.37-.89-.38-.89-.38-.89-.39-.89-.4-.89-.4-.89M607.25,808.8l2.88-.23,2.46-.59,1.7-.55,1.58-.62,1.4-.65,1.19-.65M618.46,805.5l1.2-7.13.76-6.96.15-6.7-.56-6.37-1.35-5.98-2.2-5.59-3.07-5.2-3.76-4.81M609.62,756.75l-1.23.78-1.31,1.01-1.2,1.07-1.22,1.22-1.95,2.3-1.38,2.03M688.77,873.22l-.91.73-.43,1.03-.42,1-.91.65-.76.07-2.87-.56-1.96-.51-1.69-.15M678.83,875.47l-.41,1.18-.05.65.07.66.43,1.23.61,1.13,3.11,3.83M607.25,808.8l.94-5.93.42-5.89-.15-5.78-.69-5.62-2.69-10.62-3.76-9.81M578.34,703.21l-2.83,1.6M606.58,749.62l4.19-2.6M610.76,747.01l5.64-3.5M598.7,758.31l1.57-2.45,1.59-2.01,1.22-1.31,1.23-1.17,1.18-.98,1.09-.77M606.58,749.62l-1.77-7.02-2.33-6.92-2.96-6.65-3.61-6.19-4.25-5.6-4.86-4.9-5.43-4.12-5.85-3.41M575.51,704.81l-1.13.86-1,1.23-.74,1.38-.59,1.65-.51,3.29.22,3.15M563.5,783.91l1.27-2.55.73-3.08.16-3.5-.42-3.81-.98-3.98-1.5-4.02-1.98-3.92-2.39-3.69-2.71-3.33-2.95-2.86-3.08-2.29-3.11-1.65-3.04-.95-2.86-.21-2.58.53-2.21,1.25-1.77,1.93-1.27,2.55-.73,3.08-.16,3.5.42,3.8.98,3.98,1.5,4.02,1.98,3.92,2.39,3.69,2.71,3.33,2.95,2.86,3.08,2.29,3.11,1.65,3.04.95,2.86.21,2.58-.53,2.21-1.25,1.77-1.93M501.57,742.27l.51-.34.26-.67-.03-.88-.32-.97-.55-.9-.7-.7-.75-.4-.68-.03M495.36,744.48l6.21-2.22M492.79,739.68l-.45.43-.19.73.1.92.38.97.6.87.73.64.75.31.65-.07M499.3,737.38l-6.5,2.3M490.25,740.44l9.41-3.55,10.19-1.49,11.06.68,11.72,2.96M490.25,740.44l.09.81.09.81.1.82.11.82.12.82.12.82.13.83.14.83M522.08,741.66l-5.65-.58-5.56.04-5.47.67-7.35,1.99-6.91,3.23M526.68,751.69l.65-.96.24-1.36-.17-1.61-.6-1.71-.93-1.62-1.19-1.36-1.31-.96-1.3-.46M508.62,792.53l2.21-12.59,3.71-11.07,5.29-9.52,6.86-7.66M508.61,792.54l.49.8.49.8.5.79.5.79.51.79.51.79.52.78.52.77M523.45,764.33l-2.83,4.61-2.44,5.21-2.06,5.8-2.16,8.98-1.28,9.92M531.08,770.96l-.24-1.64-.65-1.7-.98-1.59-1.22-1.31-1.32-.9-1.28-.37-1.12.16-.83.71M545.78,832.14l-6.02-15.74-4.52-15.48-2.95-15.27-1.22-14.7M545.78,832.15l.67.42.66.41.67.4.67.39.67.38.66.38.67.37.66.36M536.68,787.71l1.31,7.64,1.81,7.93,2.31,8.22,4.04,11.78,4.95,11.97M543.76,787.85l-1.02-1.56-1.23-1.25-1.32-.83-1.27-.29-1.08.25-.78.79-.4,1.21.03,1.55M584.36,840.73l-11.44-11.52-10.63-12.64-9.81-13.87-8.72-14.85M584.36,840.73l.53-.16.52-.17.52-.18.52-.19.51-.2.5-.21.5-.22.49-.23M555.58,800.87l4.83,7.1,5.22,6.94,5.61,6.79,8.35,9.06,8.86,8.42M558.8,794.44l-1.32-.75-1.24-.21-1.05.33-.73.86-.34,1.27.09,1.58.5,1.7.87,1.66M606.29,814.28l-11.5-1.92-11.76-3.89-12.08-5.98-12.15-8.06M606.29,814.28l.15-.66.14-.67.13-.68.12-.68.12-.69.11-.69.1-.7.09-.71M571.3,797.64l6.1,3.23,6.19,2.71,6.27,2.19,8.76,2.1,8.63.93M569.16,787.65l-1.01.41-.67.92-.28,1.33.16,1.61.55,1.7.92,1.63,1.16,1.38,1.31.99M601.32,765.17l-6.18,8.59-7.4,6.68-8.7,4.71-9.89,2.51M601.33,765.17l-.31-.86-.31-.86-.32-.86-.32-.86-.33-.86-.34-.86-.34-.85-.35-.85M571.78,716.37l-.61-.65-.62-.64-.62-.64-.62-.63-.62-.62-.63-.62-.63-.61-.63-.6M531.48,690.73l-.64-.14-.63-.13-.63-.12-.63-.11-.63-.1-.62-.09-.62-.08-.62-.07M551.63,735.58l-3.27-7.84-3.74-7.92-4.22-7.99-6.59-11.08-7.35-10.85M546.15,738.93l1.25,1.23,1.32.77,1.26.27,1.06-.3.76-.81.36-1.26-.05-1.55-.48-1.7M499.28,700.23l12.21,7.15,11.91,8.8,11.65,10.56,11.1,12.19M499.28,700.23l-.36.44-.35.45-.35.46-.34.47-.33.47-.33.48-.32.49-.31.5M533.21,730.3l-5.82-5.5-6.07-5.14-6.32-4.78-9.1-5.94-9.31-4.98M532.63,739.04l1.24.18,1.02-.38.71-.88.3-1.31-.11-1.58-.54-1.71-.88-1.64-1.16-1.41M576.5,779.53l4.51-2.14,4.26-2.79,4.01-3.45,5.06-5.84,4.36-6.99M598.69,758.32l-1.37-5.64-2.03-5.61-2.72-5.52-3.35-5.38-8.18-10.24-9.28-9.58M571.78,716.38l2.03,15.07.43,14.13-1.25,13.19-3,11.9M569.99,770.67l-.22,1.38.22,1.62.61,1.71.97,1.6,1.2,1.34,1.32.92,1.29.42,1.14-.14M532.23,676.01l-1.81,1.04M530.42,677.05l1.13.04M531.55,677.09l1.75.17M576.2,696.16l-1.9,1.13M575.51,698.36l-1.21-1.07M577.41,700.13l-1.89-1.77M616.38,743.59l-5.62,3.41M610.76,747.01l.72,1.59M611.48,748.6l1.99,4.73M622.62,804.31l.1-1.38M622.05,809.11l.57-4.79M604.61,838.91l-.88.51M568.73,755.02l.81-6.52.34-6.99-.14-7.46-1-11.05-1.96-11.64M566.79,711.36l-2.23-3.17-2.96-3.03-3.72-2.84-4.4-2.65-10.4-4.74-11.6-4.2M531.48,690.73l9.29,14.5,8.06,14.96,6.79,15.5,5.29,15.73M560.9,751.42l.67,1.71,1,1.57,1.22,1.29,1.32.85,1.28.35,1.1-.22.81-.73.43-1.2M697.87,869.11l-.77.96-.27,1.23-.26,1.2-.77.88-.71.19-2.79-.18-1.92-.26-1.61.11M688.77,873.22l-.41,1.14-.05.64.08.65.48,1.24.68,1.13,3.42,3.83M579.42,705.47l-.39-.45-.22-.4M699.77,871.12l-.67-.77-.42-.62-.39-.67-.23-.03-.13.05M697.78,872.35l-.33-.85-.1-.88.17-.81.35-.71M420.91,598.36l-4.64,5.22M416.28,603.58l-.63,1.13-.34,1.59.18,1.71.69,1.44.04.05M419.1,609.46l-2.89.04M419.1,609.46l-.7-3.42-.11-3.57M418.28,602.47l1.02-.3.92-.76,1.64-2.13,1.73-2.13,1.01-.76.54-.21.54-.04M425.67,596.13l.5.14.45.29.73.91,1.09,2.37,1.23,2.35.85.89,1.02.45M431.53,603.53l1.09-.15,1.02-.62,1.84-1.88,1.91-1.89,1.09-.62.58-.13.56.03M439.61,598.27l.52.21.46.36.73,1.02,1.03,2.54,1.14,2.52.82,1.01,1.03.59M445.34,606.52h1.15s1.11-.47,1.11-.47l2.04-1.63,2.11-1.64,1.17-.48.61-.06.59.11M454.12,602.34l.53.28.46.42.71,1.13.91,2.7,1.01,2.69.78,1.12,1.02.73M459.55,611.4l1.2.16,1.19-.34,2.25-1.38,2.31-1.39,1.26-.34.64.02.61.18M469.01,608.3l.53.35.45.48.66,1.23.75,2.84.83,2.82.72,1.22,1.01.86M473.95,618.1l-1.13,3.42-.41,1.69-.18,1.6M535.33,679.07l-13.96-15.86-14.81-14.17-15.85-12.59-16.11-10.32-2.34-1.3M568.74,675.81l-2.39.26-10.74,1.18-10.58,1.22-2.59.27-2.66.25-2.72.16-1.73-.08M478.23,556.88l-13.27,7.68-16.16,10.52-10.12,7.46-9.39,7.8-8.38,8.03M619.5,812.36l.12-.47.19-.46.27-.46.34-.45.75-.75.89-.63M702.79,875.34l-.11-.33-.78-1.32-1.06-1.36-1.04-1.18-.03-.04M697.78,872.35l1.99-1.23M697.78,872.35l2.12,2.84,2.57,2.38M702.94,883.68l-.45.12-.56.04-1.3-.15-2.77-.78-2.7-.88-1.22-.24-.97.07M692.98,881.86l-.56.45-.14.7.43,1.62.5,1.53-.08.61-.21.22-.34.14M692.58,887.12l-.47.04-.57-.05-1.3-.3-2.72-1.05-2.66-1.13-1.23-.39-1.02-.09M682.6,884.15l-.64.29-.24.57.22,1.42.3,1.33-.17.48-.25.15-.38.06M681.44,888.45l-.5-.04-.58-.13-1.3-.45-2.68-1.29-2.62-1.36-1.24-.52-1.06-.25M671.47,884.42l-.71.14-.32.43.04,1.18.12,1.09-.25.34-.28.07-.41-.02M669.66,887.66l-.51-.12-.6-.2-1.3-.58-2.63-1.48-2.58-1.55-1.25-.65-1.09-.4M659.71,882.69l-1.9-2.48-.81-1.41-.59-1.6M596.74,842.84l14.33,11.91,14.43,9.66,14.69,7.47,14.21,4.83,2.01.48M702.79,867.85l-2.95.39-.91.33-.84.41-.1.05-.05.03h-.02M624.15,827.88l.29.52,9.9,14.69,10.93,13.58,11.71,12.19,7.93,6.83M600.43,841.03l9.06,8.36,9.34,7.22,9.48,6.09,14.36,7.09,14,4.41.3.07M697.87,869.11l.06-.04M612.66,758.11l-.18-.6-.07-.57.04-.55.13-.43M667.38,779.44l-.18,1.54.35,1.69.36,1.66-.19,1.49-.47.56-2.31.99-1.64.53-1.2.88M662.48,791.36l-.39-.64-.2-.68v-.66s.19-.6.19-.6M672.43,775.59l-.36.62-2.11,1.35-1.52.77-1.06,1.11M673.92,786.07l-4.51-2.75-1.01-.82-.82-.95-.26-.53-.12-.55.02-.53.15-.5M601.73,618.71l-.99.46M593.57,623.47l-.15.63.17.43M675.7,764.32l-.1.26-1.9,1.7-1.27.93M598.5,623.31l2.29-1.35,3.11-1.79M501.08,566.96l-7.16.41M493.92,567.38l-1.19.31-1.11.84-.65,1.25-.03,1.34v.05M494.06,573.66l-3.11-2.49M494.06,573.66l1-2.62,1.5-2.81M496.56,568.23l1.22.64,1.31.16,2.63-.44,2.7-.47,1.37.14.65.26.58.4M507.02,568.93l.47.54.36.65.41,1.45.18,3.03.3,3.01.5,1.42.87,1.19M510.11,580.21l1.2.76,1.33.31,2.72-.13,2.77-.17,1.38.28.65.32.57.46M520.74,582.04l.45.58.33.67.34,1.47v3.01s.11,2.99.11,2.99l.41,1.45.8,1.26M523.18,593.48l1.18.88,1.35.44,2.8.15,2.84.11,1.4.42.64.38.55.51M533.94,596.36l.42.62.3.7.25,1.49-.21,2.97-.13,2.95.31,1.46.72,1.32M535.6,607.86l1.15.99,1.36.57,2.87.41,2.91.37,1.4.53.63.43.53.55M546.44,611.71l.39.65.25.72.14,1.49-.46,2.9-.39,2.89.19,1.47.63,1.36M547.19,623.19l-2.69,1.84-1.22.86-1.02.75M579.42,705.47l-6.07-19.15-7.92-19.14-9.92-19.35-11.46-18.58-1.78-2.61M619.03,716.39l-.83-.1-9.37-1.65-9.96-2.2-10.02-2.68-2.49-.83-2.58-.98-2.66-1.26-1.7-1.22M511.23,566.33l-10.15.63M677.67,751.75l-1.58,1.93-.88.89M676.03,741.93l-.58-.06-.22.06.03.08M681.08,745.21l2.3-1.36,3.41-1.96.29-.16M685.9,751.34l-4.82-6.13M681.09,745.21l-1-1.09-1.4-1.06-1.46-.76-1.16-.37h-.03M675.96,745.25l.08-3.32M675.96,745.25l2.84,1.47,3.25,1.08M682.04,747.8l.24,1.22.69,1.19,2,2.12,2.05,2.02.74,1.11.2.58.03.58M688,756.61l-.15.54-.3.48-.92.75-2.34.97-2.26.9-.85.68-.43.94M680.76,761.87l.13,1.15.58,1.17,1.8,2.15,1.85,2.06.62,1.09.14.55-.02.53M685.85,770.58l-.2.47-.34.41-.99.61-2.44.66-2.38.6-.93.54-.53.81M678.04,774.69v1.07s.48,1.13.48,1.13l1.61,2.14,1.66,2.05.52,1.04.08.51-.08.48M682.31,783.11l-.25.41-.39.34-1.06.46-2.55.37-2.5.31-1.01.39-.64.68M673.92,786.07l-.1.97.37,1.07,1.43,2.08,1.48,1.99.42.98.03.47-.13.42M677.41,794.04l-.3.35-.43.27-1.14.31-2.66.09-2.61.03-1.1.25-.73.54M668.44,795.88l-3.19-2.01-1.49-1.16-1.29-1.35M619.5,812.37l12.4-1.02,11.16-3.59,10.02-6.26,8.33-8.69,1.06-1.45M626.03,818.68l-.92-.19-3.56-1.86-.77-.73-.71-.95-.54-1.3-.04-1.28M694.59,760.6l-.71-.66-7.97-8.6M685.47,738.47h-2.48s-3.28.92-3.28.92l-.74.52M630.03,808.16l3.09.67M622.06,809.13l7.87-.22,7.5-1.57,7.02-2.83,9.53-6.5,7.95-9.01.16-.22M605.73,627.38l-7.23-4.07M598.5,623.31l-1.33-.57-1.52-.21-1.3.27-.76.63-.02.03M595.5,627.29l-1.93-3.82M595.5,627.29l2.4-.69,2.82-.97M600.72,625.63l.91,1.24,1.22.94,2.78,1.24,2.83,1.17,1.27.88.52.57.39.65M610.62,632.31l.22.7.06.72-.24,1.38-1.17,2.47-1.08,2.44-.17,1.34.3,1.38M608.54,642.75l.82,1.27,1.16,1.02,2.7,1.46,2.75,1.39,1.2.96.48.59.34.66M617.98,650.1l.17.69.02.7-.34,1.31-1.36,2.27-1.29,2.23-.28,1.26.19,1.35M615.08,659.89l.73,1.3,1.1,1.08,2.63,1.64,2.67,1.57,1.13,1.02.43.61.29.66M624.05,667.75l.12.67-.04.67-.45,1.22-1.57,2.04-1.52,2.01-.4,1.18.07,1.3M620.26,676.85l.64,1.31,1.03,1.12,2.54,1.77,2.58,1.7,1.07,1.05.39.61.24.65M628.75,685.06l.06.65-.1.63-.57,1.13-1.8,1.82-1.75,1.78-.53,1.08-.06,1.24M624,693.4l-3.5-.3-1.65-.27-1.46-.42M612.66,758.11l4.34-13.29,2.33-14.96.3-16.85-1.81-17.93-.43-2.67M662.55,774.01l-1.06.19-3.62.44-3.46.19-6.93-.31-7.06-1.25-6.87-2.07-7.24-2.98-7.25-3.89-1.77-1.23-1.81-1.45-1.8-1.84-1.03-1.69M618.92,633.82l-1.39-.62-11.8-5.82M554.29,772.93l.61-.36.99-1.92.19-2.75-.71-3.29-1.59-3.44-2.34-3.15-2.85-2.43-3.01-1.34h-2.79s-1.15.72-1.15.72M549.98,766.18l.1-.05.13-.17.09-.36-.03-.55-.22-.71-.44-.82-.8-.93-1.01-.69-1.08-.25-.58.2M551.58,769.65l-.48-.02-.53-.28-.5-.5-.39-.64-.22-.69-.02-.62.19-.47.1-.11M538.38,752.54l-.21.44v.61s.19.68.19.68l.37.65.49.52.53.31.49.06.11-.03M538.38,752.54l-.2.12M544.23,758.53l-.99.58-.95,1.87-.17,2.68.7,3.2,1.56,3.35,2.29,3.06,2.79,2.36,2.93,1.29,2.75-.02,1.05-.7M551.58,769.65l-.21.12M539.5,751.76l-.84.4-.49.49M543,759.31l-.09.06-.83,1.74-.19,2.41.54,2.89,1.27,3.08,1.93,2.94,2.43,2.46,2.7,1.68,2.68.64,2.38-.55,1.77-1.77.94-2.88-.06-3.73-1.12-4.24-2.12-4.31-2.96-3.9-3.51-3.03-3.7-1.78-3.51-.25-1.65.79M551.37,769.77l.81-.5.49-.92.16-1.33-.25-1.66-.68-1.83-1.1-1.83-1.46-1.62-1.69-1.21-1.76-.6-1.64.14-.61.44M551.37,769.77l-.48-.02-.53-.28-.5-.5-.39-.64-.22-.69-.02-.63.18-.47.36-.24M549.78,766.3l.16-.11.13-.27.04-.47-.09-.54-.25-.66-.42-.73-.6-.72-.76-.6-.86-.38-.87-.05-.78.36-.58.81-.27,1.24.12,1.61.57,1.85,1.01,1.91,1.4,1.76,1.69,1.4,1.81.82,1.76.1,1.48-.73,1.03-1.56.4-2.3-.33-2.85-1.09-3.14-1.8-3.1-2.36-2.71-2.71-1.99-2.79-.99-2.55.2-1.87,1.25M540.42,755.73l-.38.21-.49-.06-.53-.31-.49-.52-.37-.65-.2-.68v-.61s.21-.44.21-.44M532.19,756.26l.28,3.69.84,3.89,1.37,3.96,1.85,3.89,2.26,3.69,2.61,3.37,2.86,2.93,3.01,2.39,3.07,1.77,3.01,1.09,2.86.37,2.61-.36,2.27-1.08,1.85-1.76,1.37-2.38.84-2.92.28-3.36-.28-3.69-.84-3.89-1.37-3.96-1.85-3.89-2.27-3.69-2.61-3.37-2.86-2.93-3.01-2.39-3.07-1.77-3.01-1.09-2.86-.37-2.61.36-2.26,1.08-1.85,1.76-1.37,2.38-.84,2.92-.28,3.36M544.14,744.42l-2.34-.25-2.61.36-1.73.74M560.95,785.96l.53-.34,1.85-1.76,1.37-2.38.4-1.11M389.34,515.52l.63-2.17,1.16-1.61,1.61-.94,1.97-.22,2.2.52,2.29,1.23,2.23,1.86,2.04,2.37,1.72,2.73,1.29,2.93.78,2.93.22,2.76-.35,2.41-.9,1.91-1.4,1.29-1.8.58-2.1-.16-2.26-.88-2.28-1.56-2.15-2.13-1.9-2.57-1.52-2.85-1.04-2.95-.5-2.87.07-2.6M381.8,509.81l.76-3.03,1.29-2.5,1.79-1.88,2.22-1.2,2.58-.48,2.85.25,3.02.98,3.09,1.68,3.06,2.31,2.92,2.87,2.68,3.33,2.35,3.68,1.94,3.9,1.46,3.99.94,3.94.38,3.76-.19,3.45-.76,3.03-1.29,2.5-1.79,1.88-2.22,1.2-2.58.48-2.85-.25-3.02-.98-3.09-1.68-3.05-2.31-2.92-2.87-2.68-3.33-2.35-3.68-1.94-3.9-1.46-3.99-.94-3.94-.38-3.76.19-3.45M491.58,457.45l-2.98-2.69-3.08-2.1-3.08-1.44-2.97-.73h-.1M787.51,982.92l.25-.79.56-3.19v-3.57s-.57-3.84-.57-3.84l-.4-1.63M395.77,870.35l-3-2.6-2.81-3.12-2.52-3.52-2.15-3.81-1.71-3.96-1.2-3.98-.66-3.87-.09-3.62.48-3.25,1.03-2.77,1.55-2.2,2.01-1.55,2.41-.85,2.73-.11,2.95.62,3.07,1.34,3.08,2,3,2.6,2.81,3.12,2.52,3.52,2.15,3.81,1.71,3.96,1.2,3.98.66,3.87.09,3.62-.48,3.25-1.03,2.77-1.55,2.2-2.01,1.55-2.41.85-2.73.11-2.95-.62-3.07-1.34-3.09-2M396.95,862.33l-2.2-2-1.97-2.48-1.62-2.8-1.17-2.95-.64-2.91-.08-2.69.49-2.3,1.03-1.76,1.51-1.12,1.89-.4,2.15.34,2.28,1.06,2.26,1.71,2.1,2.26,1.81,2.66,1.41,2.9.91,2.95.36,2.82-.21,2.51-.77,2.04-1.28,1.45-1.71.76-2.04.03-2.23-.71-2.29-1.4M693.47,1024.71l-.63,2.17-1.16,1.61-1.62.94-1.97.22-2.19-.52-2.29-1.23-2.23-1.86-2.04-2.37-1.72-2.74-1.29-2.93-.78-2.94-.22-2.76.35-2.41.9-1.91,1.4-1.28,1.8-.58,2.1.15,2.26.89,2.28,1.56,2.15,2.13,1.9,2.57,1.52,2.85,1.04,2.95.5,2.87-.06,2.6M701,1030.42l-.76,3.02-1.29,2.5-1.79,1.88-2.22,1.2-2.58.48-2.85-.26-3.02-.98-3.09-1.68-3.06-2.31-2.91-2.87-2.68-3.33-2.35-3.68-1.94-3.9-1.46-3.99-.94-3.94-.38-3.76.19-3.45.76-3.02,1.3-2.5,1.79-1.88,2.22-1.2,2.58-.48,2.85.25,3.02.98,3.09,1.68,3.06,2.31,2.92,2.87,2.68,3.33,2.35,3.68,1.94,3.9,1.46,3.99.94,3.94.38,3.76-.19,3.45M701.75,704.89l.8-.53M687.03,669.88l3,2.6,2.81,3.12,2.52,3.52,2.15,3.81,1.71,3.96,1.2,3.98.66,3.87.09,3.62-.48,3.25-1.03,2.77-1.55,2.2-2.01,1.55-2.41.85-2.72.11-2.95-.62-3.07-1.34-3.09-2-3-2.6-2.81-3.12-2.52-3.52-2.15-3.81-1.71-3.96-1.2-3.98-.66-3.87-.09-3.62.48-3.25,1.03-2.77,1.55-2.2,2.02-1.55,2.41-.85,2.73-.11,2.95.62,3.07,1.33,3.09,2M685.85,677.91l2.2,2,1.97,2.48,1.62,2.8,1.17,2.94.64,2.91.08,2.68-.49,2.29-1.03,1.76-1.51,1.11-1.89.4-2.15-.34-2.28-1.06-2.26-1.71-2.1-2.26-1.81-2.66-1.41-2.9-.91-2.95-.36-2.82.21-2.51.77-2.04,1.28-1.45,1.71-.76,2.04-.03,2.23.71,2.29,1.4M787.27,653.17l.84-2.95.28-3.39-.29-3.72-.85-3.93-1.38-3.99-1.87-3.93-2.29-3.72-2.63-3.39-2.88-2.95-3.04-2.41-3.09-1.78-3.04-1.09-1.21-.24M499.76,776.64l-.96.08-1.79-.59-.84-.6-.74-.85-.32-.72M469.22,710.07l-.43-1.64-1.08-5.85-.33-2.94-.17-2.99v-2.72M495.05,773.98l-1.04-2.01-3.62-7.35-2.84-6.01-2.62-5.8-1.63-3.74-.39-.92M570.35,872.51l-2.4-1.38-2.5-1.64-2.39-1.75-4.53-3.86-4.71-4.67-5.54-6.17-4.74-5.62-4.94-6.08-3.31-4.21M467.2,693.63v-8.58M457.57,522.79v1.44M573.85,874.55l-3.09-1.79M675.34,933.14l-49.4-28.52M712.42,965.67l1.25.72M678.88,946.31l.04.03M481.82,451.77l-1.21-.71-2.75-1.19-2.82-.78-2.84-.32-2.81.19-2.72.75-1.7.91M779.95,996.03l.86-.46,2.33-2.04,1.74-2.39,1.3-2.82.82-3.15.34-3.37-.03-.89M475.92,558.09l.82-1.08M693.59,932.67l-2.77.35-4.11.26-2.35.06h-2.04s-2.25-.02-2.25-.02l-2.52-.07-2.39-.13-.81-.05-.24.03M716.28,936.13l-.07.03M382.64,520v316.94M404.17,874.23l274.47,158.45M702.79,841.35l-4.52-7.82M390.29,493.74l-1.11.59-2.33,2.04-1.74,2.39-1.3,2.82-.82,3.15-.25,2.5M690.39,1039.28l1.75.76,2.82.78,2.84.32,2.81-.19,2.72-.75,1.45-.77M423.18,504.48l-.45-.17-.08.08M464.96,450.53l-74.93,43.26M705.03,1039.37l74.93-43.26M457.44,563.03l.04-.05M678.82,946.38h-.06M459.42,561.88l2.91-1.37,2.32-.79,1.93-.59,1.88-.52,1.93-.47,2.72-.57,3.42-.54,4.06-.39,3.62-.18,3.73-.05,3.7.1,2.37.1.34-.03M702.79,917.67l-.12.19-1.31,2.49-1.51,2.72-1.58,2.68-1.67,2.63-2.65,3.82-2.87,3.6-2.74,2.98-1.45,1.44-1.57,1.49-1.95,1.7-2.64,1.82M497.29,546.97l-.03-.06-1.16-.5-1.6-.9M712.47,922.79l-.02-1.24.09-1.01-.12-.02M767.92,616.88l-286.09-165.16M787.35,980.92v-330.37M781.72,631.36l-2.45-3.8-1.09-1.46-1.91-2.28-2.08-2.16-2.33-2.05-2.51-1.83-1.44-.84M787.31,650.53l-.08-2.57-.49-3.44-.78-3.23-.95-2.89-.93-2.31-1.25-2.66-1.12-2.07M712.42,938.35l3.99-2.3M485.23,535.58l-4,2.31M684.09,654.43v-.04s-.06-.08-.06-.08l-.2-.09-.39-.12-.57-.18-.75-.26-.91-.36-2.23-1.14-2.78-1.71M712.42,713.2l-.09-3.27.13-2.5.14-.97.15-.78.13-.59.09-.4.02-.22-.08-.08M676.42,650.57l-71.69-41.38M495.15,545.93l-71.69-41.39M491.02,554.67l108.3,62.52M702.79,796.6v124.97M712.42,1005.05v-82.78M712.42,795.71v-82.78M599.73,617.43l.6.35,5.06,3.38,4.52,3.67,3.76,3.51,3.3,3.35,4.22,4.6,5.37,6.26,5.12,6.27,5.31,6.81,4.49,6.06,3.71,5.18,2.97,4.23,2.26,3.28,2.17,3.22,2.17,3.3,3.07,4.79,4.14,6.7,3.54,6.06M665.5,698.45l4.11,7.25,3.99,7.49,2.56,5,1.95,3.94,1.97,4.09,2.58,5.54,3.18,7.06,3.69,8.66,3.76,9.59,2.95,8.09,2.11,6.4,1.39,4.74,1.1,4.29.66,3.06.56,3.22.45,3.73.26,4.14v.29M744.24,619.62l-60.2,34.75M712.94,704.43l60.2-34.75M461.02,852.18l5.24-3.02M463.15,821.75l-.19-2.31-.15-1.75-.12-1.46-.07-.91-.04-.71-.02-.44v-.21s0,.03,0,.03l.03-.22.09-.91.04-.93v-.75s.02-1.06.02-1.06M407.78,720.06l1.7-.98M462.72,810.13v-1.27s-.01-2.76-.01-2.76l-.04-2.16-.03-1.62-.02-.97v-.64s0-.55,0-.55v-.44s.06-.31.06-.31l.12-.11.3-.55.2-.71.11-.62.12-.9M465.49,784.19l.07-.17.2-.73M463.51,796.53l.12-1.32.17-4.12.08-2.61.1-1.21.11-.67M416.1,708.58l.36-.27M416.46,708.31l.44-.78.87-3.14.59-1.96.4-.66.48-.29M423.51,700.67l.55-.39M558.59,944.63l7.57-4.37M424.05,700.28l.93-1.4.7-1.83.71-1.75.44-.68.5-.4M432.96,693.74l.98-.98.79-1.4.75-1.45.87-1.12M509.21,796.16l.47.75,3.76,5.53M488.43,741.39l.04.38,1.07,6.32M420.91,611.13h.47M489.53,748.12l4.79,5.79,3.54,5.62,2.53,5.07,1.76,4.24,2.2,6.42,2.33,8.65,1.98,10.72M550.03,837.29l.12.07,5.59,2.97M514.5,803.41l8.36,4.74,6.11,4.52,4.19,3.72,2.85,2.88,1.86,2.06,1.56,1.84,1.79,2.26,2.58,3.59,3.05,5.12M427.68,608.25l.79.37M428.47,608.62l.61.28,1.26,1.24,1.31,1.24,1.55.73M420.85,611.09l1.08-.1,1.1-.34M465.77,783.44l.54-2.39,1.09-3.9,1.12-3.49,1.13-3.09,1.11-2.75,1.54-3.4,2.33-4.49,3.3-5.36,4.51-5.92,5.97-6.09.18-.14M479.87,689.03l-5.44,9.67-4.28,9.17-3.01,7.13-2.68,6.96-2.54,7.33-2.59,8.43-1.79,6.64-1.61,6.78-1.62,8.06-1.56,9.84-1.13,10.04-.59,8.36-.26,7.28-.04,5.94.2,8.04.66,10.26,1.2,10.7M460.52,685.3l6.87-.26,1.35.09M468.75,685.13l7.67.51,7.24,1.18,8.26,2.06,8.33,2.84M493.74,701.49l.96,3.89.17,4-.3,3.83-.51,3.42-.75,3.89-1.18,5.41-1.58,7.01-2.12,8.46M440.12,610.23l.82.2,2.11,1.97,1.37,1.54,1.67,1.04M433.2,612.11l1.19.05,1.22-.22M647.02,940.56l-.89-.57-.64-.42-.44-.29-.52-.32-.28-.17-.29-.19-.47-.33-.63-.46-.66-.49-1.22-.91-1.11-.83M496.58,695.16l-2.31,3.71-.67,1.27M452.97,613.99l.92.19.85.54,1.43,1.7,1.4,1.85,1.77,1.37M446.08,614.97l1.29.21,1.35-.1M541.48,920.07l3.66,6.62,3.01,4.88M510.82,798.59l-.21,4.57-.07,4.61.07,5.25.29,6.37.57,7.02.81,6.93.84,5.72,1.16,6.54,1.71,8.1,2.41,9.56,2.72,9.22,2.73,8.17,2.62,7.11,2.41,6.05,2.46,5.76,3.4,7.43,4.54,9.09.53.97M551.62,937.19l.3.49M558.81,840.94l7.19-.2,5.38.25,4.11.41,3.99.57,3.73.66,2.93.51,1.37.03.29-.14M599.48,841.82l4.42-2.49M459.33,619.64l1.99.2,1.94-.4,1.95-.27.99.13.93.42,1.53,1.51,1.24,1.8,1.29,1.72,1.56,1.28M477.98,556.9l-4.14,2.39M507.35,685.83l-.6.5M409.68,718.85l.68-1.25M503.62,688.64l-6.92,6.31M556.46,840.62l.47,1.14,4.56,9.85,3.9,7.77,3.05,5.72,2.29,4.12,2.46,4.27,5.85,9.56,6.54,9.83,5.81,8.05,4.57,5.95,5.51,6.74,5.54,6.33,4.14,4.46,1.62,1.68,2.29,2.32,3.21,3.14,4.15,3.88,7.05,6.1,8.81,6.78,9.88,6.48M660.67,948.01l-1.93-.86-.46-.23M472.7,626.07l7.51,4.25,7.55,4.87,5.69,4.03,3.06,2.3,2.23,1.74,2.26,1.81,2.4,1.97,4.09,3.51,4.87,4.41,6.29,6.09,7.59,8,8.74,10.18M668.5,877.1h-.02s-.64-.24-.64-.24l-.98-.38-2.92-1.17-1.87-.7-1.93-.57M669.93,875.39l-.56.05-.05.07M492.12,572.92l.16.12,1.92,1.57M500.82,563l-8.34,4.82M676.75,877.39h-.02s-3.06-1.01-3.06-1.01l-2-.65-1.74-.33M680.13,875.04l-.53.2h0M494.21,574.61l2.1,1.06,2.17.46,2.17.56,1.03.51.92.76,1.29,2.05.91,2.17.97,2.05,1.31,1.77M507.07,586l2.09,1.3,2.2.71,2.18.79,1.02.62.88.85,1.17,2.16.76,2.24.82,2.12,1.2,1.86M689.75,872.84l-.81.37M686.71,876.32l-.41.2-.69-.03-1.82-.54-1.96-.66-.93-.21-.78-.03M519.39,598.64l2.05,1.52,2.21.94,2.18,1.02,1,.72.84.92,1.04,2.24.6,2.28.67,2.16,1.08,1.96M531.06,612.39l2.01,1.71,2.18,1.14,2.12,1.2.96.81.77,1,.88,2.27.44,2.25.51,2.18.97,2.02M604.14,839.2l.56-.33M696,873.25l-.51.18h0M695.47,873.43l-2.44-.31-1.78-.34-1.5.06M541.85,627.01l5.55,8.26,5.19,8.44,3.75,6.56,3.07,5.7,2.92,5.74,2.76,5.77,2.9,6.49,3.44,8.4,3.73,10.32,3.71,12.22M596.05,843.48l4.63,4.43,5.67,5.06,3.96,3.37,3.36,2.75,3.15,2.5,4.24,3.24,5.87,4.29,5.23,3.64,4.19,2.8,3.49,2.26,4.21,2.62,5.09,3.03,5.26,2.94,6.41,3.32,5.6,2.65,5.11,2.2,5.28,2.05,7.15,2.4,6.8,1.86,5.72,1.23,4.64.76,1.67.19M660.74,874.16l-2.66-.59-3.77-1.11-2.02-.71-1.54-.59-.6-.16.02.02M616.58,691.71l1.22,7.79.84,8.11.36,6.48.08,4.95-.06,3.83-.24,4.76-.56,5.91-1.08,6.89-1.82,7.64-2.84,8.1M613.23,675.96l1.14,2.35,1.57,2.03,1.47,2,.53,1.06.26,1.08-.25,1.99-.67,1.72-.58,1.68-.06,1.81M671.26,769.16v1.65s.58,1.69.58,1.69l.59,1.64.12.78-.12.7M608.46,659.81l1.3,2.32,1.72,1.98,1.63,1.97.62,1.06.37,1.11-.06,2.13-.51,1.89-.4,1.81.1,1.89M593.56,624.55l.31.59,1.07,2.16M600.71,619.12l-6.53,3.77M602.35,643.52l1.47,2.28,1.85,1.88,1.76,1.88.71,1.04.46,1.12.12,2.22-.32,2-.21,1.92.27,1.95M672.42,767.19l-.72.94-.45,1.04M673.92,757.12l.24,1.92.83,1.88.77,1.82.13.87-.19.77M594.94,627.29l1.64,2.2,1.96,1.75,1.88,1.76.78,1.01.55,1.12.31,2.28-.12,2.1-.03,2.01.44,2.01M675.22,742l-.06,1.93M675.19,754.54l-.82,1.24-.45,1.35M675.26,744.37l.4,1.73,1.11,2.02.98,1.97.14.95-.24.82M678.9,739.8l-3.62,2.09M626.01,818.75l4.4,1.21,7.3,1.97,5.25,1.38,4,1.02,4.11,1.01,4.22,1,4.29.97,4.32.93,17.33,3.19,4.83.71,6.65.83,5.48.55,4.58.32M647.03,803.04l-1.69,1.02-.74.36M662.55,774.02l7.28-1.37,1.89-.46M560.54,786.19l.41-.23M537.46,745.27l-.41.24M410.2,542.88l5.45-3.15M391.94,498.69l-5.44,3.14M410.2,873.25l5.45-3.15M391.96,829.05l-5.45,3.15M696.3,1038.4l5.44-3.14M678.05,994.21l-5.45,3.15M696.3,708.04l5.45-3.15M678.05,663.84l-5.45,3.15" style="fill: none; stroke: #040000; stroke-miterlimit: 10;"/>
    <g>
      <path d="M208.95,1140.87h10c8.8,0,14.48,6.36,14.48,14.4s-5.68,14.4-14.48,14.4h-10v-28.79ZM211.35,1167.27h7.6c7.48,0,12.08-5.28,12.08-12s-4.6-12-12.08-12h-7.6v24Z" style="fill: #040000;"/>
      <path d="M239.75,1140.47c.84,0,1.56.72,1.56,1.6s-.72,1.56-1.56,1.56-1.6-.68-1.6-1.56.72-1.6,1.6-1.6ZM238.55,1169.66v-20h2.4v20h-2.4Z" style="fill: #040000;"/>
      <path d="M247.23,1149.67h2.4v3.72c1.28-2.52,3.96-4.12,6.96-4.12,3.56,0,6.24,1.88,7.24,4.96,1.36-3.04,4.36-4.96,7.64-4.96,4.52,0,7.84,3.04,7.84,8.32v12.08h-2.4v-11.96c0-4.44-2.52-6.36-5.76-6.36-3.52,0-6.68,2.52-6.68,7.04v11.28h-2.4v-11.96c0-4.44-2.56-6.36-5.76-6.36-3.56,0-6.68,2.56-6.68,7.12v11.2h-2.4v-20Z" style="fill: #040000;"/>
      <path d="M294.51,1149.27c5.68,0,9.56,4.36,9.6,10.4,0,.44-.08.96-.08,1.4h-17.16c.6,3.84,3.8,6.56,8,6.56,2.44,0,4.76-.92,6.32-2.64l1.72,1.72c-2.08,2.2-4.96,3.36-7.96,3.36-6.12,0-10.64-4.48-10.64-10.4s4.36-10.4,10.2-10.4ZM286.79,1158.67h14.84c-.36-4.16-3.24-7-7.16-7s-7.24,3-7.68,7Z" style="fill: #040000;"/>
      <path d="M309.07,1169.66v-20h2.4v3.72c1.28-2.52,3.96-4.12,6.96-4.12,4.56,0,7.88,3.04,7.88,8.32v12.08h-2.4v-11.96c0-4.44-2.56-6.36-5.76-6.36-3.56,0-6.68,2.56-6.68,7.12v11.2h-2.4Z" style="fill: #040000;"/>
      <path d="M332.63,1165.11c1.52,1.6,3.8,2.56,6.4,2.56,3.12,0,5.48-1.4,5.48-3.28,0-2.64-3.44-3.48-5.76-4.12-3.28-.88-7.36-1.8-7.36-5.64,0-3.24,2.96-5.36,7.08-5.36,3.12,0,6.04,1.24,7.96,3.24l-1.68,1.72c-1.8-1.76-3.84-2.52-6.28-2.52-2.88,0-4.64,1.24-4.64,2.84,0,2.08,2.88,2.68,5.76,3.44,3.44.92,7.32,2.2,7.32,6.36,0,3.36-3.32,5.72-7.96,5.72-3.12,0-5.92-1.12-8.04-3.24l1.72-1.72Z" style="fill: #040000;"/>
      <path d="M352.71,1140.47c.84,0,1.56.72,1.56,1.6s-.72,1.56-1.56,1.56-1.6-.68-1.6-1.56.72-1.6,1.6-1.6ZM351.51,1169.66v-20h2.4v20h-2.4Z" style="fill: #040000;"/>
      <path d="M379.66,1159.67c0,5.72-4.68,10.4-10.4,10.4s-10.4-4.68-10.4-10.4,4.64-10.4,10.4-10.4,10.4,4.64,10.4,10.4ZM369.27,1167.62c4.4,0,7.96-3.56,7.96-7.96s-3.56-8-7.96-8-8,3.6-8,8,3.6,7.96,8,7.96Z" style="fill: #040000;"/>
      <path d="M384.63,1169.66v-20h2.4v3.72c1.28-2.52,3.96-4.12,6.96-4.12,4.56,0,7.88,3.04,7.88,8.32v12.08h-2.4v-11.96c0-4.44-2.56-6.36-5.76-6.36-3.56,0-6.68,2.56-6.68,7.12v11.2h-2.4Z" style="fill: #040000;"/>
      <path d="M408.19,1165.11c1.52,1.6,3.8,2.56,6.4,2.56,3.12,0,5.48-1.4,5.48-3.28,0-2.64-3.44-3.48-5.76-4.12-3.28-.88-7.36-1.8-7.36-5.64,0-3.24,2.96-5.36,7.08-5.36,3.12,0,6.04,1.24,7.96,3.24l-1.68,1.72c-1.8-1.76-3.84-2.52-6.28-2.52-2.88,0-4.64,1.24-4.64,2.84,0,2.08,2.88,2.68,5.76,3.44,3.44.92,7.32,2.2,7.32,6.36,0,3.36-3.32,5.72-7.96,5.72-3.12,0-5.92-1.12-8.04-3.24l1.72-1.72Z" style="fill: #040000;"/>
    </g>
    <g>
      <path d="M208.95,1349.66v-28.79h11.96c4.12,0,7.44,3.04,7.44,7.16,0,2.76-1.56,5.2-4,6.4,3.04,1.2,5.08,4.04,5.08,7.36,0,4.52-3.64,7.88-8.12,7.88h-12.36ZM211.35,1333.35h9.6c2.76,0,5-2.28,5-5.04s-2.24-5.04-5.04-5.04h-9.56v10.08ZM211.35,1335.75v11.52h9.92c3.2,0,5.76-2.6,5.76-5.76s-2.56-5.76-5.72-5.76h-9.96Z" style="fill: #040000;"/>
      <path d="M243.51,1329.27c5.68,0,9.56,4.36,9.6,10.4,0,.44-.08.96-.08,1.4h-17.16c.6,3.84,3.8,6.56,8,6.56,2.44,0,4.76-.92,6.32-2.64l1.72,1.72c-2.08,2.2-4.96,3.36-7.96,3.36-6.12,0-10.64-4.48-10.64-10.4s4.36-10.4,10.2-10.4ZM235.79,1338.67h14.84c-.36-4.16-3.24-7-7.16-7s-7.24,3-7.68,7Z" style="fill: #040000;"/>
      <path d="M267.15,1329.27c3.52,0,6.68,2.2,8,4.84v-4.44h2.4v20h-2.4v-4.44c-1.32,2.64-4.48,4.84-8,4.84-5.76,0-10.4-4.68-10.4-10.4s4.64-10.4,10.4-10.4ZM259.15,1339.67c0,4.4,3.56,8,8,8s8-3.6,8-8-3.6-8-8-8-8,3.6-8,8Z" style="fill: #040000;"/>
      <path d="M283.83,1349.66v-20h2.4v3.88c1.24-2.88,4.04-4.28,7.08-4.28v2.08c-4.2,0-7.08,2.92-7.08,7.12v11.2h-2.4Z" style="fill: #040000;"/>
      <path d="M298.71,1320.47c.84,0,1.56.72,1.56,1.6s-.72,1.56-1.56,1.56-1.6-.68-1.6-1.56.72-1.6,1.6-1.6ZM297.51,1349.66v-20h2.4v20h-2.4Z" style="fill: #040000;"/>
      <path d="M306.19,1349.66v-20h2.4v3.72c1.28-2.52,3.96-4.12,6.96-4.12,4.56,0,7.88,3.04,7.88,8.32v12.08h-2.4v-11.96c0-4.44-2.56-6.36-5.76-6.36-3.56,0-6.68,2.56-6.68,7.12v11.2h-2.4Z" style="fill: #040000;"/>
      <path d="M338.83,1329.27c3.52,0,6.68,2.2,8,4.84v-4.44h2.4v19.6c0,5.96-4.04,9.6-10.72,9.6-3.12,0-6.44-1.08-8.84-3.24l1.72-1.68c1.88,1.6,4.64,2.52,7.28,2.52,5.04,0,8.16-2.68,8.16-7v-4.24c-1.32,2.64-4.48,4.84-8,4.84-5.76,0-10.4-4.68-10.4-10.4s4.64-10.4,10.4-10.4ZM330.83,1339.67c0,4.4,3.56,8,8,8s8-3.6,8-8-3.6-8-8-8-8,3.6-8,8Z" style="fill: #040000;"/>
    </g>
    <g>
      <path d="M206.55,1525.47l1.72-1.68c2.48,2.56,5.76,3.88,9.6,3.88,4.88,0,8.32-2.36,8.32-5.64,0-2.84-2.12-4.44-8.24-6.24-5.52-1.64-10.2-3.32-10.2-8.04,0-4.44,3.76-7.28,9.92-7.28,4,0,7.8,1.68,10.24,4.6l-1.72,1.68c-2.04-2.44-5.16-3.88-8.52-3.88-4.8,0-7.52,1.92-7.52,4.88,0,2.36,1.96,3.76,7.8,5.52,5.72,1.72,10.64,3.56,10.64,8.76,0,4.68-4.44,8.04-10.72,8.04-4.52,0-8.48-1.64-11.32-4.6Z" style="fill: #040000;"/>
      <path d="M233.67,1509.67h2.4v4.44c1.32-2.64,4.48-4.84,8-4.84,5.72,0,10.4,4.68,10.4,10.4s-4.68,10.4-10.4,10.4c-3.52,0-6.68-2.2-8-4.84v14.08h-2.4v-29.64ZM236.07,1519.67c0,4.4,3.56,8,8,8s8-3.6,8-8-3.6-8-8-8-8,3.6-8,8Z" style="fill: #040000;"/>
      <path d="M268.31,1509.27c5.68,0,9.56,4.36,9.6,10.4,0,.44-.08.96-.08,1.4h-17.16c.6,3.84,3.8,6.56,8,6.56,2.44,0,4.76-.92,6.32-2.64l1.72,1.72c-2.08,2.2-4.96,3.36-7.96,3.36-6.12,0-10.64-4.48-10.64-10.4s4.36-10.4,10.2-10.4ZM260.59,1518.67h14.84c-.36-4.16-3.24-7-7.16-7s-7.24,3-7.68,7Z" style="fill: #040000;"/>
      <path d="M291.75,1509.27c5.68,0,9.56,4.36,9.6,10.4,0,.44-.08.96-.08,1.4h-17.16c.6,3.84,3.8,6.56,8,6.56,2.44,0,4.76-.92,6.32-2.64l1.72,1.72c-2.08,2.2-4.96,3.36-7.96,3.36-6.12,0-10.64-4.48-10.64-10.4s4.36-10.4,10.2-10.4ZM284.03,1518.67h14.84c-.36-4.16-3.24-7-7.16-7s-7.24,3-7.68,7Z" style="fill: #040000;"/>
      <path d="M315.39,1509.27c3.52,0,6.68,2.2,8,4.84v-13.24h2.4v28.79h-2.4v-4.44c-1.32,2.64-4.48,4.84-8,4.84-5.76,0-10.4-4.68-10.4-10.4s4.64-10.4,10.4-10.4ZM307.39,1519.67c0,4.4,3.56,8,8,8s8-3.6,8-8-3.6-8-8-8-8,3.6-8,8Z" style="fill: #040000;"/>
    </g>
    <g>
      <path d="M217.19,1680.87h2.52l11.56,28.79h-2.56l-2.96-7.36h-14.6l-2.96,7.36h-2.56l11.56-28.79ZM224.79,1699.91l-6.36-15.76-6.32,15.76h12.68Z" style="fill: #040000;"/>
      <path d="M236.27,1680.47c.84,0,1.56.72,1.56,1.6s-.72,1.56-1.56,1.56-1.6-.68-1.6-1.56.72-1.6,1.6-1.6ZM235.07,1709.66v-20h2.4v20h-2.4Z" style="fill: #040000;"/>
      <path d="M243.75,1709.66v-20h2.4v3.88c1.24-2.88,4.04-4.28,7.08-4.28v2.08c-4.2,0-7.08,2.92-7.08,7.12v11.2h-2.4Z" style="fill: #040000;"/>
      <path d="M259.27,1689.67v-1.08c0-5.76,3.12-8.12,8.04-8.12h5.48v-.8h2.4v30h-2.4v-26.8h-5.48c-3.6,0-5.64,1.44-5.64,5.72v1.08h6.96v2.4h-6.96v17.6h-2.4v-17.6h-3.96v-2.4h3.96Z" style="fill: #040000;"/>
      <path d="M300.98,1699.67c0,5.72-4.68,10.4-10.4,10.4s-10.4-4.68-10.4-10.4,4.64-10.4,10.4-10.4,10.4,4.64,10.4,10.4ZM290.59,1707.62c4.4,0,7.96-3.56,7.96-7.96s-3.56-8-7.96-8-8,3.6-8,8,3.6,7.96,8,7.96Z" style="fill: #040000;"/>
      <path d="M305.83,1689.67l5,15.72,5.04-15.72h2.32l5.04,15.72,5-15.72h2.52l-6.32,20h-2.4l-5-15.6-5,15.6h-2.36l-6.36-20h2.52Z" style="fill: #040000;"/>
    </g>
    <g>
      <path d="M206.55,1885.47l1.72-1.68c2.48,2.56,5.76,3.88,9.6,3.88,4.88,0,8.32-2.36,8.32-5.64,0-2.84-2.12-4.44-8.24-6.24-5.52-1.64-10.2-3.32-10.2-8.04,0-4.44,3.76-7.28,9.92-7.28,4,0,7.8,1.68,10.24,4.6l-1.72,1.68c-2.04-2.44-5.16-3.88-8.52-3.88-4.8,0-7.52,1.92-7.52,4.88,0,2.36,1.96,3.76,7.8,5.52,5.72,1.72,10.64,3.56,10.64,8.76,0,4.68-4.44,8.04-10.72,8.04-4.52,0-8.48-1.64-11.32-4.6Z" style="fill: #040000;"/>
      <path d="M231.55,1869.67h3.44c.6,0,1-.4,1-.96v-4.4h2.4v5.36h6.44v2.4h-6.44v10.92c0,3.64.8,4.68,3.56,4.68,1.08,0,1.88-.12,2.88-.32v2.32c-.88.24-1.92.4-3.12.4-4.16,0-5.72-1.92-5.72-7v-11h-4.44v-2.4Z" style="fill: #040000;"/>
      <path d="M258.91,1869.27c3.52,0,6.68,2.2,8,4.84v-4.44h2.4v20h-2.4v-4.44c-1.32,2.64-4.48,4.84-8,4.84-5.76,0-10.4-4.68-10.4-10.4s4.64-10.4,10.4-10.4ZM250.91,1879.67c0,4.4,3.56,8,8,8s8-3.6,8-8-3.6-8-8-8-8,3.6-8,8Z" style="fill: #040000;"/>
      <path d="M273.47,1869.67h3.44c.6,0,1-.4,1-.96v-4.4h2.4v5.36h6.44v2.4h-6.44v10.92c0,3.64.8,4.68,3.56,4.68,1.08,0,1.88-.12,2.88-.32v2.32c-.88.24-1.92.4-3.12.4-4.16,0-5.72-1.92-5.72-7v-11h-4.44v-2.4Z" style="fill: #040000;"/>
      <path d="M292.95,1860.47c.84,0,1.56.72,1.56,1.6s-.72,1.56-1.56,1.56-1.6-.68-1.6-1.56.72-1.6,1.6-1.6ZM291.75,1889.66v-20h2.4v20h-2.4Z" style="fill: #040000;"/>
      <path d="M299.11,1879.67c0-5.76,4.64-10.4,10.4-10.4,2.96,0,5.64,1.24,7.52,3.24l-1.72,1.72c-1.44-1.56-3.52-2.56-5.8-2.56-4.4,0-8,3.6-8,8s3.6,7.96,8,7.96c2.28,0,4.36-.96,5.8-2.52l1.72,1.72c-1.88,2-4.56,3.24-7.52,3.24-5.76,0-10.4-4.68-10.4-10.4Z" style="fill: #040000;"/>
      <path d="M333.59,1860.87h10.84c5.12,0,8.84,3.88,8.84,9.24s-3.72,9.2-8.84,9.2h-8.44v10.36h-2.4v-28.79ZM335.99,1863.27v13.64h8.44c3.72,0,6.44-2.88,6.44-6.84s-2.72-6.8-6.44-6.8h-8.44Z" style="fill: #040000;"/>
      <path d="M358.19,1889.66v-20h2.4v3.88c1.24-2.88,4.04-4.28,7.08-4.28v2.08c-4.2,0-7.08,2.92-7.08,7.12v11.2h-2.4Z" style="fill: #040000;"/>
      <path d="M380.75,1869.27c5.68,0,9.56,4.36,9.6,10.4,0,.44-.08.96-.08,1.4h-17.16c.6,3.84,3.8,6.56,8,6.56,2.44,0,4.76-.92,6.32-2.64l1.72,1.72c-2.08,2.2-4.96,3.36-7.96,3.36-6.12,0-10.64-4.48-10.64-10.4s4.36-10.4,10.2-10.4ZM373.03,1878.67h14.84c-.36-4.16-3.24-7-7.16-7s-7.24,3-7.68,7Z" style="fill: #040000;"/>
      <path d="M395.31,1885.11c1.52,1.6,3.8,2.56,6.4,2.56,3.12,0,5.48-1.4,5.48-3.28,0-2.64-3.44-3.48-5.76-4.12-3.28-.88-7.36-1.8-7.36-5.64,0-3.24,2.96-5.36,7.08-5.36,3.12,0,6.04,1.24,7.96,3.24l-1.68,1.72c-1.8-1.76-3.84-2.52-6.28-2.52-2.88,0-4.64,1.24-4.64,2.84,0,2.08,2.88,2.68,5.76,3.44,3.44.92,7.32,2.2,7.32,6.36,0,3.36-3.32,5.72-7.96,5.72-3.12,0-5.92-1.12-8.04-3.24l1.72-1.72Z" style="fill: #040000;"/>
      <path d="M414.19,1885.11c1.52,1.6,3.8,2.56,6.4,2.56,3.12,0,5.48-1.4,5.48-3.28,0-2.64-3.44-3.48-5.76-4.12-3.28-.88-7.36-1.8-7.36-5.64,0-3.24,2.96-5.36,7.08-5.36,3.12,0,6.04,1.24,7.96,3.24l-1.68,1.72c-1.8-1.76-3.84-2.52-6.28-2.52-2.88,0-4.64,1.24-4.64,2.84,0,2.08,2.88,2.68,5.76,3.44,3.44.92,7.32,2.2,7.32,6.36,0,3.36-3.32,5.72-7.96,5.72-3.12,0-5.92-1.12-8.04-3.24l1.72-1.72Z" style="fill: #040000;"/>
      <path d="M433.06,1881.75v-12.08h2.4v11.96c0,4.44,2.52,6.36,5.76,6.36,3.56,0,6.68-2.56,6.68-7.12v-11.2h2.4v20h-2.4v-3.76c-1.28,2.56-3.96,4.16-7,4.16-4.52,0-7.84-3.04-7.84-8.32Z" style="fill: #040000;"/>
      <path d="M456.62,1889.66v-20h2.4v3.88c1.24-2.88,4.04-4.28,7.08-4.28v2.08c-4.2,0-7.08,2.92-7.08,7.12v11.2h-2.4Z" style="fill: #040000;"/>
      <path d="M479.18,1869.27c5.68,0,9.56,4.36,9.6,10.4,0,.44-.08.96-.08,1.4h-17.16c.6,3.84,3.8,6.56,8,6.56,2.44,0,4.76-.92,6.32-2.64l1.72,1.72c-2.08,2.2-4.96,3.36-7.96,3.36-6.12,0-10.64-4.48-10.64-10.4s4.36-10.4,10.2-10.4ZM471.46,1878.67h14.84c-.36-4.16-3.24-7-7.16-7s-7.24,3-7.68,7Z" style="fill: #040000;"/>
    </g>
  </g>
</svg>