<?xml version="1.0" encoding="UTF-8"?>
<svg id="_圖層_1" data-name="圖層 1" xmlns="http://www.w3.org/2000/svg" xmlns:xlink="http://www.w3.org/1999/xlink" viewBox="0 0 1170 2182.68">
  <defs>
    <clipPath id="clippath">
      <rect y="-174.66" width="1170" height="2532" style="fill: none;"/>
    </clipPath>
    <clipPath id="clippath-1">
      <rect y="-174.66" width="1170" height="2532" style="fill: none;"/>
    </clipPath>
    <clipPath id="clippath-2">
      <rect y="-174.66" width="1170" height="2532" style="fill: none;"/>
    </clipPath>
  </defs>
  <g style="clip-path: url(#clippath);">
    <text transform="translate(140 1119.35)" style="fill: #040000; font-family: MusticaPro-Light, &apos;Mustica Pro&apos;; font-size: 56px; font-weight: 300;"><tspan x="0" y="0">Sleeved fan extension cable</tspan></text>
    <text transform="translate(140 1239.36)" style="fill: #040000; font-family: MusticaPro-Light, &apos;Mustica Pro&apos;; font-size: 56px; font-weight: 300;"><tspan x="0" y="0">Ummanteltes Lüer-Ver-</tspan></text>
    <text transform="translate(140 1299.34)" style="fill: #040000; font-family: MusticaPro-Light, &apos;Mustica Pro&apos;; font-size: 56px; font-weight: 300;"><tspan x="0" y="0">längerungskabel</tspan></text>
    <text transform="translate(140 1419.35)" style="fill: #040000; font-family: MusticaPro-Light, &apos;Mustica Pro&apos;; font-size: 56px; font-weight: 300;"><tspan x="0" y="0">Câble rallonge pour ventilateur </tspan></text>
    <text transform="translate(140 1479.32)" style="fill: #040000; font-family: MusticaPro-Light, &apos;Mustica Pro&apos;; font-size: 56px; font-weight: 300;"><tspan x="0" y="0">gainé</tspan></text>
    <text transform="translate(140 1599.33)" style="fill: #040000; font-family: MusticaPro-Light, &apos;Mustica Pro&apos;; font-size: 56px; font-weight: 300;"><tspan x="0" y="0">Cavo di prolunga per ventola </tspan></text>
    <text transform="translate(140 1659.31)" style="fill: #040000; font-family: MusticaPro-Light, &apos;Mustica Pro&apos;; font-size: 56px; font-weight: 300;"><tspan x="0" y="0">con guaina</tspan></text>
    <text transform="translate(140 1779.31)" style="fill: #040000; font-family: MusticaPro-Light, &apos;Mustica Pro&apos;; font-size: 56px; font-weight: 300;"><tspan x="0" y="0">Ventilator verlengkabel met </tspan></text>
    <text transform="translate(140 1839.29)" style="fill: #040000; font-family: MusticaPro-Light, &apos;Mustica Pro&apos;; font-size: 56px; font-weight: 300;"><tspan x="0" y="0">sleeve</tspan></text>
    <text transform="translate(401.4 193.37)" style="fill: #040000; font-family: MusticaPro-Bold, &apos;Mustica Pro&apos;; font-size: 60px; font-weight: 700;"><tspan x="0" y="0" style="letter-spacing: -.03em;">A</tspan><tspan x="40.8" y="0" style="letter-spacing: -.02em;">cc</tspan><tspan x="97.68" y="0" style="letter-spacing: 0em;">e</tspan><tspan x="130.38" y="0">ss</tspan><tspan x="187.74" y="0" style="letter-spacing: 0em;">o</tspan><tspan x="222" y="0">ry Kit</tspan></text>
    <text transform="translate(567.26 2142.34)" style="fill: #221714; font-family: MusticaPro-Medium, &apos;Mustica Pro&apos;; font-size: 40px; font-weight: 500;"><tspan x="0" y="0">15</tspan></text>
    <text transform="translate(197.98 746.94)" style="fill: #040000; font-family: MusticaPro-Regular, &apos;Mustica Pro&apos;; font-size: 48px;"><tspan x="0" y="0">Sleeved fan</tspan></text>
    <text transform="translate(197.98 801.95)" style="fill: #040000; font-family: MusticaPro-Regular, &apos;Mustica Pro&apos;; font-size: 48px;"><tspan x="0" y="0">extension cable</tspan></text>
    <text transform="translate(901.96 785.67)" style="fill: #040000; font-family: MusticaPro-Regular, &apos;Mustica Pro&apos;; font-size: 80px;"><tspan x="0" y="0">×1</tspan></text>
    <g style="clip-path: url(#clippath-1);">
      <rect x="140" y="607.17" width="891.32" height="298" rx="41.51" ry="41.51" style="fill: none; stroke: #040000; stroke-miterlimit: 10;"/>
      <polygon points="871.36 812.22 870.49 812.22 870.93 811.46 853.07 801.15 852.63 801.91 852.19 801.15 846.16 804.64 826.29 793.16 825.85 793.92 825.41 793.16 818.17 797.34 812.48 795.3 806.21 792.67 794.34 786.89 773.92 775.62 773.49 776.38 773.66 775.52 772.77 775.35 772.41 775.47 668.12 715.27 668.05 714.9 667.47 714.22 658.9 709.14 647.18 701.91 639.73 696.88 634.08 692.55 631.8 690.57 629.58 688.44 627.33 686.1 627.3 686.13 627.14 685.95 627.05 678.03 626.17 678.03 626.61 677.27 598.04 660.78 597.6 661.54 597.17 660.78 573.28 674.57 573.72 675.33 572.84 675.33 572.84 688.21 573.72 688.21 573.28 688.98 573.51 689.11 573.51 690.41 574.39 690.41 573.95 691.17 591.81 701.48 592.25 700.71 592.69 701.48 593.81 700.82 601.85 705.47 602.29 704.71 602.73 705.47 608.02 702.41 610.83 703.32 616.87 705.47 623.14 708.1 635.01 713.88 655.29 725.08 656.57 725.42 656.93 725.3 761.22 785.5 761.29 785.88 761.88 786.56 762.55 785.97 762.11 786.74 770.45 791.63 782.16 798.86 789.61 803.89 795.26 808.22 797.54 810.2 799.76 812.33 800.1 812.69 800.1 821.16 800.98 821.16 800.54 821.93 820.43 833.41 820.43 840.14 821.31 840.14 820.55 840.58 820.76 840.93 821.52 840.49 821.08 841.26 838.93 851.56 839.37 850.8 839.81 851.56 870.93 833.6 870.49 832.84 871.36 832.84 871.36 812.22" style="fill: #e4e4e4;"/>
      <path d="M773.49,775.62l-.65-.13-.77.27M772.07,775.76l-8.1,4.68M763.96,780.44l-.77.62-.65.88-.44,1-.15.98.15.8.44.5h0M667.34,715.07l-.1-.54-.43-.5-.65-.12-.77.27M657.28,718.85l-.77.62-.65.88-.44,1-.15.98.15.8.44.5.65.13.52-.18M665.38,714.17l-8.1,4.68M625.06,685.91l-16.74,9.66M608.32,695.57l-.77.62-.65.88-.43,1-.15.98.15.8.43.5.21.04M626.67,685.98l-.19-.22-.65-.13-.77.27M852.18,808.11l-1.12.65M862.09,823l-3.35-1.93M860.31,826.1l-5.13-2.97M860.31,824.03l-3.35-1.93M862.09,825.06v-2.06M862.09,823l-1.79,1.03M860.31,824.03v2.06M860.31,826.1l1.79-1.03M856.42,828.34v-2.06M854.64,829.37l1.78-1.03M854.64,829.37l-5.8-3.35M854.64,827.31v2.06M854.64,827.31l-5.8-3.35M856.42,826.28l-1.78,1.03M856.42,826.28l-3.35-1.93M846.16,804.88l-20.31-11.72M825.85,793.16l-24.86,14.35M821.29,819.24h.02M821.29,832.13l-20.31-11.73M821.29,832.13l.02.03M821.29,819.24l-20.31-11.73M800.98,807.51v12.89M866.69,816.48l-14.51-8.38M852.18,808.11v-2.83M837.9,816.35l-1.11.64M840.13,817.64l-1.12.64M848.97,832.64l-5.13-2.96M848.97,830.58l-3.35-1.93M850.76,829.55l-3.35-1.93M850.76,831.61v-2.06M850.76,829.55l-1.78,1.03M848.97,830.58v2.06M848.97,832.64l1.78-1.03M855.08,823.18l12.95,7.47M843.3,835.91l1.79-1.03M845.09,834.88v-2.06M845.09,832.82l-1.79,1.03M845.09,832.82l-3.26-1.88M843.3,833.85v2.06M843.3,833.85l-1.47-.85M843.3,835.91l-1.47-.85M852.41,824.73l-14.51-8.38M837.9,816.35v-2.83M863.12,818.54l-10.71,6.18M863.12,818.54v-2.83M852.41,824.73v-2.83M863.12,815.71l-10.71,6.18M848.61,807.33l14.51,8.38M852.18,805.27l-3.57,2.06M866.69,813.65l-14.51-8.38M870.49,811.46l-17.86-10.31M852.63,801.15l-31.11,17.96M834.33,815.58l14.51,8.38M837.9,813.52l-3.57,2.06M852.41,821.89l-14.51-8.38M870.49,811.46l-3.79,2.19M866.69,816.48v-2.84M868.03,815.71l-1.34.77M868.03,830.66v-14.95M841.83,845.78l26.2-15.13M841.83,830.84v14.95M848.84,826.79l-7.01,4.04M848.84,826.79v-2.84M848.84,823.95l-9.46,5.47M839.37,850.04l31.11-17.96M870.49,832.07v-20.62M821.31,819.23v20.15M821.31,839.38l.21.35M839.37,850.04l-17.86-10.31M839.37,829.42v20.62M839.37,829.42l-17.86-10.31M821.52,819.11l-.21.12M609.87,694.51h-.05s-.29-.34-.29-.34l-.1-.53M609.43,693.64l.1-.65.29-.67.43-.59.51-.41.51-.18.39.08M604.38,697.75l-.14-.03-.29-.33-.1-.53M603.85,696.86l.1-.65.29-.67.43-.59.51-.41.51-.18.32.06M620.86,687.91l-.16-.19-.1-.53M620.59,687.19l.1-.65.29-.67.43-.59.51-.41.51-.18.43.08.12.14M615.37,691.24l-.25-.29-.1-.53M615.01,690.42l.1-.65.29-.67.43-.58.51-.41.51-.18.43.08.04.04M599.84,666.19l4.24,2.45M599.84,666.19v-1.55M594.26,669.41l4.24,2.45M594.26,669.41v-1.55M588.68,672.63l4.24,2.45M588.68,672.63v-1.55M614.95,673v.52M615.54,673.29v.51M613.52,673.28v.51M614.95,673.52l-.17-.07-.21-.03-.21.02-.19.05-.65.31M613.52,673.8l-.46.32M614.78,674.01v.52M612.74,674.27v.52M612.74,674.27l.23.1.27.06h.29s.29-.04.29-.04l.95-.4M614.78,674.01l.53-.37.24-.35M615.54,673.29l-.09-.27-.23-.18M615.23,672.84l-.23-.11-.27-.06h-.29s-.28.04-.28.04l-.95.4M613.2,673.1l-.68.55-.08.16v.17s.12.16.12.16l.18.13M613.52,673.28l-.54.38-.09.11-.03.12.05.12.12.1M614.95,673l-.17-.07-.21-.02h-.21s-.19.06-.19.06l-.65.31M614.46,673.83l.54-.38.09-.11.02-.12-.04-.12-.12-.1M613.53,674.2l.56-.18.38-.2M613.03,674.11l.12.05.14.03h.24M617.09,673.95v.52M614.32,675.18v.52M616.1,675.17v.52M615.81,675.34v.52M614.52,675.3v.52M617.09,673.95l-.32-.18M616.77,673.77l-2.45,1.42M614.32,675.18l.2.12M614.52,675.3l.73-.04.56.07M615.81,675.34l.29-.17M616.1,675.17l-.51-.09-.42-.03M615.18,675.05l1.91-1.1M618.75,675.2v.52M617.68,675.24v.52M619.1,675.87v.52M618.76,675.71v.52M617.27,675.94v.39M601.06,668.45v-1.55M619.8,675.87v.52M609.52,676.32v.52M615.89,676.05v.52M621.71,676.62v.51M583.1,675.85l4.24,2.45M583.1,675.85v-1.55M618.57,676.15v.52M617.06,676.73v.52M619.1,675.87l.22-.23.04-.26-.11-.19-.22-.16M619.03,675.03l-.48-.17-.44-.02M618.11,674.85l-.46.09-.3.14M617.35,675.07l-.27.22-.09.27.08.21.21.18M617.27,675.94l.31.12.29.04M617.88,676.1l-.76.29M617.11,676.4l-.91-.52M616.21,675.87l-.32.18M615.89,676.05l1.16.67M617.06,676.73l1.51-.58M618.57,676.15l-.28-.2M618.28,675.95h-.19s-.19-.01-.19-.01l-.25-.1M617.64,675.83l-.19-.15-.03-.18.09-.14.16-.12M617.68,675.24l.27-.11.33-.05.26.03.21.09M618.75,675.2l.16.13.03.16-.18.23M618.76,675.71l.35.16M609.72,676.97v.52M609.44,677.13v.52M608.43,676.55v.52M621.46,676.73v.52M574.39,689.64v-1.81M592.25,699.95l-17.86-10.31M592.25,699.95v-1.8M593.81,699.05l-1.56.9M620.2,676.8v.52M618.68,676.92v.52M610.48,676.57v.52M608.36,677v.51M622.6,680.11l.67.39M619.92,677.62v.51M618.44,677.56v.52M620.11,675.69l-.32.18M619.8,675.87l1.2.69M621,676.57h-.32s-.21,0-.21,0h-.21s-.21-.02-.21-.02M620.05,676.55h-.99s-.38.06-.38.06l-.32.13M618.36,676.74l-.24.22-.03.26.12.19.22.16M618.44,677.56l.37.16.45.06.35-.05.31-.11M619.92,677.62l-.28-.2M619.64,677.42l-.24.09-.28.02-.21-.04-.18-.08M618.73,677.4l-.15-.12-.05-.15.04-.12.12-.1M618.68,676.92l.39-.11.44-.02.69.02M620.2,676.8h.72s.55-.08.55-.08M621.46,676.73l.15-.05.1-.05M621.71,676.62l-1.6-.93M610.74,677.83v.51M608.24,677.86v.52M609.44,677.13l.28-.16M609.72,676.97l-.66-.38M609.06,676.58l.46-.27M609.52,676.32l.57.1.38.16M610.48,676.57l.32.28.05.33-.18.24-.29.21M610.38,677.64l-.31.15-.28.08M609.8,677.87l-.38.05-.38-.03-.51-.19M608.53,677.7l-.22-.17-.11-.21.04-.17.12-.15M608.36,677l-.4-.14M607.96,676.86l-.2.28.03.31.45.41M608.24,677.86l.65.26.77.05.58-.12.49-.21M610.74,677.83l.44-.38.11-.45-.19-.34-.37-.29M610.73,676.39l-.73-.27-.67-.09M609.34,676.02l-.91.52M608.43,676.55l1.01.58M612.51,677.45v.52M609.69,678.66v.52M595.48,671.67v-1.55M610.16,678.93v.52M614.09,678.36v.52M611.64,679.78v.52M611.29,679.58v.52M611.64,679.78l2.46-1.42M614.09,678.36l-.35-.2M613.75,678.17l-.85.49M612.9,678.66h-.72M612.18,678.66l.33-1.21M612.51,677.45l-.43-.25M612.08,677.2l-.34,1.45M611.74,678.66h-2.05M609.69,678.66l.47.27M610.16,678.93h2.26M612.42,678.93l-1.13.65M611.29,679.58l.35.2M615.61,679.24v.52M617.02,683.33l.67.39M614.22,680.94v.52M613.94,681.11v.52M612.02,680v.51M613.43,680.49l2.17-1.25M615.61,679.24l-.35-.2M615.26,679.04l-2.17,1.25M613.09,680.29l-.79-.45M612.3,679.84l-.28.16M612.02,680l1.92,1.11M613.94,681.11l.28-.16M614.22,680.94l-.79-.45M589.9,674.89v-1.54M611.44,686.55l.67.39M595.93,684.29v.52M596.04,684.36v.52M584.32,678.11v-1.55M596.71,683.46v.52M603.41,686.81v.52M602.96,687.06v.52M605.86,689.77l.67.39M596.26,683.2l-.34,1.09M595.93,684.29l.11.06M596.04,684.36l.67-.9M596.71,683.46l6.25,3.61M602.96,687.06l.45-.26M603.41,686.81l-6.7-3.87M596.71,682.94l-.45.26M623.27,680.49v-.77M625.17,679.4l-1.9,1.1M625.17,685.87v-6.47M620.04,682.36v6.44M621.93,681.27l-1.9,1.1M621.93,680.49v.77M623.27,679.72l-1.34.77M603.3,701.82l3.25-1.88M603.3,692.03v9.79M605.19,690.93l-1.9,1.1M605.19,690.16v.77M606.53,689.38l-1.34.77M606.53,690.16v-.77M608.43,689.06l-1.9,1.09M608.43,695.17v-6.11M608.88,688.8v6.51M610.77,687.71l-1.9,1.09M610.77,686.94v.77M612.11,686.16l-1.34.77M612.11,686.94v-.77M614.01,685.84l-1.9,1.1M614.01,692.32v-6.48M617.69,683.71v-.77M619.59,682.62l-1.9,1.09M619.59,689.06v-6.44M614.46,685.58v6.44M616.35,684.49l-1.9,1.1M616.35,683.71v.77M617.69,682.94l-1.34.77M602.29,703.95l5.62-3.25M626.17,677.27v8.43M619.1,676.39l.22-.23.03-.18M618.76,676.23l.35.16M617.68,675.76l.27-.12.33-.05.26.03.21.09M617.06,677.24l1.3-.5M615.89,676.57l1.16.67M616.99,676.06v.02s.07.21.07.21l.09.08M609.44,677.64l.28-.16M608.43,677.06l1.01.58M610.74,678.35l.44-.37.09-.35M608.24,678.37l.65.25.77.05.58-.12.49-.22M607.78,677.78l.02.19.45.41M610.48,677.08l.27.24M609.52,676.83l.57.09.38.16M609.5,676.84h.02M613.88,680.75l1.73-1M613.94,681.62l.28-.16M612.02,680.52l1.92,1.11M602.29,691.06l23.88-13.79M626.17,677.27l-28.57-16.49M597.6,660.78l-23.88,13.79M586,672.63l5.58,3.22M588.68,671.09l-2.68,1.55M594.26,674.31l-5.58-3.22M591.58,675.85l2.68-1.55M594.26,667.87l-2.68,1.55M599.84,671.09l-5.58-3.22M597.16,672.63l2.68-1.55M591.58,669.41l5.58,3.22M599.84,664.64l-2.68,1.55M605.42,667.87l-5.58-3.22M602.74,669.41l2.68-1.55M597.16,666.19l5.58,3.22M580.42,675.85l5.58,3.22M583.1,674.31l-2.68,1.55M588.68,677.53l-5.58-3.22M586,679.08l2.68-1.55M602.96,687.58l.45-.26M596.71,683.97l6.25,3.61M596.04,684.87l.67-.9M595.93,684.81l.11.06M612.37,679.88l1.73-1M611.64,680.3l.38-.22M611.29,680.1l.35.2M610.16,679.44h1.37M609.69,679.17l.47.27M612.32,678.66l.19-.69M621.46,677.24l.15-.05.1-.05M620.2,677.32h.72s.55-.08.55-.08M618.68,677.43l.39-.11.44-.02.69.02M618.44,678.08l.37.16.45.06.35-.05.31-.11M618.11,677.64v.09s.11.19.11.19l.22.16M619.8,676.39l.28.16M615.92,675.14l1.17-.67M615.81,675.85l.29-.17M614.52,675.82l.73-.04.56.07M614.32,675.7l.2.12M612.74,674.79l.23.1.27.06h.29s.29-.04.29-.04l.95-.4M612.45,674.39v.11s.12.16.12.16l.18.13M615.54,673.81l-.02-.05M614.78,674.53l.53-.37.24-.35M573.72,687.45l28.57,16.49M602.29,691.06v12.89M573.72,674.57l28.57,16.49M573.72,674.57v12.89M772.32,775.67l-105.83-61.1M656.17,723.08l105.84,61.1M818.27,797.54h-.04s-3.38-1.18-3.38-1.18l-2.69-1.01-2.32-.93-2.12-.9-1.87-.82-1.78-.81-1.89-.88-2.28-1.1-2.72-1.35-3.24-1.66-2.5-1.31-2.81-1.5-3.15-1.72-3.54-1.96-3.98-2.24-4.46-2.56M762.55,785.22l4.46,2.59,3.9,2.3,3.4,2.05,2.97,1.82,2.59,1.62,2.78,1.77,2.33,1.52,1.96,1.31,1.64,1.13,1.55,1.09,1.5,1.09,1.97,1.49,2.24,1.8,2.31,2.01,2.25,2.16.59.61M607.09,700.43l4.03,1.29,3.38,1.16,2.69,1.01,2.32.93,2.12.9,1.87.82,1.78.81,1.89.89,2.28,1.1,2.72,1.35,3.24,1.66,2.5,1.31,2.81,1.5,3.15,1.72,3.54,1.96,3.98,2.24,4.46,2.56M666.8,714.03l-4.46-2.59-3.9-2.3-3.41-2.05-2.97-1.82-2.59-1.62-2.78-1.77-2.33-1.53-1.96-1.31-1.64-1.13-1.55-1.09-1.5-1.09-1.97-1.49-2.24-1.8-2.31-2.01-2.25-2.16-2.25-2.34M608.88,693.96l1.04.6M611.7,691.21l-2.82-1.63M613.98,692.3l-2.3-1.1M603.3,697.18l1.04.6M606.08,694.41l-2.78-1.61M604.37,697.78l2.04.66M608.8,695.29l-2.78-.9M620.04,687.51l.87.5M622.97,684.83l-2.93-1.7M620.84,687.95l.24.25M624.38,686.3l-1.36-1.4M614.46,690.73l.93.54M617.39,688.05l-2.93-1.69M615.36,691.25l.19.14M619.17,689.31l-1.82-1.27M615.55,673.75v-.52M612.43,673.81v.65M619.37,676.05v-.65M616.98,675.48v.64M618.08,677.05v.65M611.31,677.69v-.65M607.75,677.2v.65" style="fill: none; stroke: #040000; stroke-miterlimit: 10;"/>
    </g>
    <text transform="translate(467.33 433.85)" style="fill: #040000; font-family: MusticaPro-Medium, &apos;Mustica Pro&apos;; font-size: 50px; font-weight: 500;"><tspan x="0" y="0">Dual Pack</tspan></text>
    <g style="clip-path: url(#clippath-2);">
      <rect x="503.87" y="482.02" width="44.36" height="44.35" style="fill: #cf391a;"/>
      <rect x="562.82" y="482.02" width="44.35" height="44.35" style="fill: #cf391a;"/>
      <path d="M665.13,525.37h-42.35v-42.35h42.35v42.35ZM666.13,482.02h-44.35v44.36h44.35v-44.36Z" style="fill: #cf391a;"/>
    </g>
  </g>
</svg>