<?xml version="1.0" encoding="UTF-8"?>
<svg id="_圖層_1" data-name="圖層 1" xmlns="http://www.w3.org/2000/svg" xmlns:xlink="http://www.w3.org/1999/xlink" viewBox="0 0 1170 2182.68">
  <defs>
    <clipPath id="clippath">
      <rect y="-174.66" width="1170" height="2532" style="fill: none;"/>
    </clipPath>
  </defs>
  <g style="clip-path: url(#clippath);">
    <text transform="translate(561.5 2142.34)" style="fill: #221714; font-family: MusticaPro-Medium, &apos;Mustica Pro&apos;; font-size: 40px; font-weight: 500;"><tspan x="0" y="0">02</tspan></text>
    <text transform="translate(204.98 1169.66)" style="fill: #040000; font-family: MusticaPro-Light, &apos;Mustica Pro&apos;; font-size: 40px; font-weight: 300;"><tspan x="0" y="0">Dimensions</tspan></text>
    <text transform="translate(204.98 1349.66)" style="fill: #040000; font-family: MusticaPro-Light, &apos;Mustica Pro&apos;; font-size: 40px; font-weight: 300;"><tspan x="0" y="0">Bearing</tspan></text>
    <text transform="translate(204.98 1529.66)" style="fill: #040000; font-family: MusticaPro-Light, &apos;Mustica Pro&apos;; font-size: 40px; font-weight: 300;"><tspan x="0" y="0">Speed</tspan></text>
    <text transform="translate(204.98 1709.66)" style="fill: #040000; font-family: MusticaPro-Light, &apos;Mustica Pro&apos;; font-size: 40px; font-weight: 300;"><tspan x="0" y="0">Airﬂow</tspan></text>
    <text transform="translate(204.98 1889.66)" style="fill: #040000; font-family: MusticaPro-Light, &apos;Mustica Pro&apos;; font-size: 40px; font-weight: 300;"><tspan x="0" y="0">Static Pressure</tspan></text>
    <text transform="translate(204.99 1245.64)" style="fill: #040000; font-family: MusticaPro-Regular, &apos;Mustica Pro&apos;; font-size: 60px;"><tspan x="0" y="0">120x120x30(mm)</tspan></text>
    <text transform="translate(204.99 1425.64)" style="fill: #040000; font-family: MusticaPro-Regular, &apos;Mustica Pro&apos;; font-size: 60px;"><tspan x="0" y="0">FDB</tspan></text>
    <text transform="translate(204.99 1605.64)" style="fill: #040000; font-family: MusticaPro-Regular, &apos;Mustica Pro&apos;; font-size: 60px;"><tspan x="0" y="0">0(0-20%)-2100(100%)RPM</tspan></text>
    <text transform="translate(204.99 1785.64)" style="fill: #040000; font-family: MusticaPro-Regular, &apos;Mustica Pro&apos;; font-size: 60px;"><tspan x="0" y="0">72.44(CFM)</tspan></text>
    <text transform="translate(204.99 1965.64)" style="fill: #040000; font-family: MusticaPro-Regular, &apos;Mustica Pro&apos;; font-size: 60px;"><tspan x="0" y="0">3.01(mmH2O) </tspan></text>
    <text transform="translate(219.63 192.28)" style="fill: #040000; font-family: MusticaPro-Bold, &apos;Mustica Pro&apos;; font-size: 60px; font-weight: 700;"><tspan x="0" y="0" style="letter-spacing: 0em;">C</tspan><tspan x="41.16" y="0" style="letter-spacing: 0em;">l</tspan><tspan x="55.32" y="0">ea</tspan><tspan x="124.32" y="0" style="letter-spacing: -.02em;">r</tspan><tspan x="144.12" y="0" style="letter-spacing: 0em;">a</tspan><tspan x="180.12" y="0" style="letter-spacing: 0em;">n</tspan><tspan x="214.62" y="0" style="letter-spacing: -.02em;">c</tspan><tspan x="243.06" y="0">e &amp; Spe</tspan><tspan x="452.63" y="0" style="letter-spacing: 0em;">c</tspan><tspan x="482.15" y="0">i</tspan><tspan x="496.61" y="0" style="letter-spacing: 0em;">ﬁ</tspan><tspan x="531.77" y="0" style="letter-spacing: -.02em;">c</tspan><tspan x="560.21" y="0" style="letter-spacing: 0em;">a</tspan><tspan x="595.91" y="0">t</tspan><tspan x="619.67" y="0" style="letter-spacing: 0em;">io</tspan><tspan x="668.09" y="0" style="letter-spacing: 0em;">n</tspan><tspan x="702.77" y="0">s</tspan></text>
    <text transform="translate(519.32 307.26)" style="fill: #cf391a; font-family: MusticaPro-Bold, &apos;Mustica Pro&apos;; font-size: 80px; font-weight: 700;"><tspan x="0" y="0" style="letter-spacing: 0em;">H</tspan><tspan x="55.84" y="0" style="letter-spacing: .02em;">1</tspan><tspan x="87.76" y="0">2</tspan></text>
    <path d="M474.76,799.71l-6.22,3.59M476.25,816.64l6.22-3.59M524.9,764.38l.11-.06M535.4,789.37l-1.74,1.17-2.13,1.39-2.31,1.48M533.11,772.69l-4.47-3.45M530.07,768.42l1.77-1.02M500.95,598.34v-2M671.68,892.05l-1.73-1M496.28,796.18l-.8.46-2.19,1.26-1.91,1.1-1.59.92-2.87,1.65-2.69,1.56-2.74,1.59-2.8,1.61M686.74,883.03l.02.31M514.53,588.5l-.73.79-.76.83-.67.74-.58.66-.09.11-.51.57-.72.81-.68.78-.25.29-.22.25-.18.2-.14.16-.22.26-.17.2-.11.13-.32.38-.08.1-.02.03h0s0,.01,0,.01h0s0,0,0,0l-1.28,1.54-1.42,1.75-.96,1.22M686.74,883.03l-4.13,1.57-4.26,1.26-4.51.97-3.89.53M451.04,804.95v-.78s0-20.82,0-20.82v-7.35s0-8.24,0-8.24v-2.96s0-.38,0-.38M501.18,851.24l-.33-.19-2.57-1.48-13.5-7.8-3.86-2.22-7.14-4.12-7.12-4.1-.63-.36M655.04,830.19l-17.13-29.66M645.8,934.73l-15.08-8.71-6.36-3.67-7.14-4.12-1.98-1.14-.59-.34-.33-.19M451.05,633.75v-.38s0-2.96,0-2.96v-15.59s0-4.45,0-4.45v-8.25s0-4.75,0-4.75M504.98,548.69l.88-.42,1.95-.45,2.15.08,2.29.61,2.36,1.13M464.67,578.47l-2.37-1.13-2.29-.61-2.15-.08-1.95.45-.88.42M469.21,575.85l2.6,1.79,2.5,2.3,2.32,2.73,1.76,2.63M492.37,593.38l31.13-17.97M718.95,903.56l-.21,2.61-.61,2.29-1,1.9-1.36,1.46-.8.55M701.07,882.98l-31.13,17.97M673.54,929.77l-.25-3.15-.74-3.32-1.21-3.37-1.4-2.84M665.01,941.22l.8-.55,1.36-1.46,1-1.9.61-2.29.21-2.61M571.76,873.1l2.69-1.57M560.01,879.98l5.56-3.25M499.98,623.63l-.69.38-1.35.67-1.03.43-1.44.48-2.18.45-1.91.13-1.59-.07-2.87-.52-2.69-.96-2.75-1.48-2.79-2.12M647.55,879.23l-.41.24-1.18.76-1.08.79-1.11.95-1.54,1.68-1.02,1.45-.91,1.7-1.04,2.99-.49,2.91-.07,1.03v1.04s.02,1.04.02,1.04l.12,1.3.31,1.85M692.02,657.25l-2,1.54-1.56,2.24-.88,2.45M706.83,696.84l2.56.46,2.72-.23,2.33-.96M514.61,549.64l.41-.19.4-.1h.37s.33.09.33.09l.09.05M718.95,903.56l.38-.26.29-.29.19-.32.09-.34v-.1M719.89,682.01v.11s-.09.33-.09.33l-.19.32-.29.3-.38.26M706.94,659.58l-.1-.05-.33-.09h-.37s-.4.1-.4.1l-.41.19M682.86,666.2l-.73-1.02-.86-1.19-.14-.19-.75-1.04-1.06-1.47-1.02-1.41-.38-.52-.32-.44-.26-.36-.21-.28-.34-.46-.26-.35-.17-.23-.49-.67-.13-.18-.04-.05h0s0-.02,0-.02h0s0,0,0,0l-1.97-2.68-2.23-2.99-2.7-3.59-2.17-2.85-2.32-2.96M702,699.63l.11.22,3.33,6.84,3.2,7.06,3.05,7.25,2.76,7.11M642.92,720.39l4.06-2.34M639.27,704.7l-4.06,2.34M648.57,878.59l-.34.24M501.06,623.07l-.39.18M482.94,640.43l4.75-6.41,6.1-5.98,6.2-4.32M470.11,690.81l.5-11.52,1.5-10.83,2.49-10.03.94-2.49M472.97,719.91l1.63,8.47,3.45,13.12,4.38,13.22,5.26,13.18,6.1,13.02,1.75,3.25M470.11,690.81l.26,6.32M553.47,856.92l-9.31-8.07-9.64-9.55-9.26-10.4-8.78-11.15-8.22-11.79-3.83-6.22M574.45,871.53l-4.97-3.15M574.45,871.53l10.23,5.32,10.13,4.11,9.93,2.86,9.64,1.58,9.26.29,8.78-1.01,8.23-2.3,6.84-3.21M525.65,772.45l9.92,7.81M683.44,813.95l-.52,12.03-1.57,11.31-2.6,10.48-3.6,9.55-4.57,8.52-.63.85M521.97,610.47l1.21-.08,2.3-.05,2.46.03,2.93.15,1.89.16,3.23.39,4.37.74,3.19.69,4.06,1.06,4.72,1.47,2.88,1.02,7.03,2.87,5.91,2.83,6.31,3.44M704.51,801.78l-.17-7.05-.44-6.48-.95-8.58-.93-6.04-.8-4.39-.77-3.79-.7-3.17-.63-2.68-.71-2.86-.86-3.23-.74-2.65-.59-2.02-.64-2.1-1-3.16-1.11-3.35-1-2.89-1.16-3.2-1.62-4.25-1.58-3.94-1.17-2.8-.71-1.65-1.47-3.32-2.2-4.75-.97-1.99M662.34,678.04l-.94-1.38-1.06-1.53-1.07-1.53-1.09-1.53-1.1-1.53-1.12-1.52-1.08-1.44-1.86-2.44-2.67-3.4-3.52-4.3-2.3-2.7-2.46-2.81-2.93-3.23-1.89-2.01-3.23-3.33-4.38-4.3-3.19-2.99-4.06-3.64-4.72-3.99-2.88-2.31-7.03-5.24-5.91-4-6.31-3.86M501.18,604.8l4.4,2.64,4.69,2.97,4.56,3.03,4.88,3.11,1.9,1.1M644.34,682.2l.82-.29h.36s.34.09.34.09l.08.06M524.66,612.03l.53.29,1.95,1.15,2.27,1.36,2.63,1.6,2.92,1.79,6.3,3.89,5.51,3.41,4.96,3.05,4.42,2.67,3.87,2.28M477.31,584.7h-.01s-.73-.15-.73-.15l-.86.3M664.46,887.61l-.12-6.45-.28-5.79-.43-7.11-.08-4.86M669,919.64l.66-.56.19-.32.09-.34v-.1M669.94,863.5l-.02-2.8-.04-2.42-.05-2.14-.02-.89-.05-2.06-.06-2.43-.16-5.61-.17-5.77-.2-6.8-.12-5.67-.05-4.63M669.94,723.61v.02s-.24.7-.24.7l-.69.59M614.33,670.12l-5.52-3.05-4.79-2.44-5.42-2.63-3.77-2.07M638.69,713.94h0s.04-.02.04-.02l.12-.07.3-.18M664.46,756.95l-.03,3.41-.17,5.07-.42,6.13-.28,4.88v1.89M669.94,778.79v.12s-.02,2.63-.02,2.63l-.04,2.99-.07,3.39-.09,3.71-.21,7.92-.2,6.83-.16,6.06-.11,5.3-.04,4.54M669.94,745.53l.67,1.79,1.19,3.34,1.2,3.54,1.33,4.15.8,2.64,1.28,4.46,1.55,5.93,1,4.26,1.11,5.34,1.08,6.09.56,3.65,1.03,8.7.5,7.12.18,7.39M574.46,625.19l9.48,5.95,8.86,6.43,8.2,6.73,7.52,6.86,8.96,9.09,7.76,8.76,1.64,2.03M598.26,654.52l-2.6-1.48-2.4-1.33-2.07-1.14-.85-.47-1.96-1.07-2.3-1.25-5.27-2.86-5.37-2.9-6.24-3.38-5.1-2.81-4.08-2.3M691.32,661.31l-.16.12M659.92,685.95l-2.6-1.21-2.5-.59-2.32.06-1.35.46M673.54,709.55l-.25,2.86-.74,2.46-1.21,1.98-1.04.91M710.41,694.76l.18-.08M643.14,711.37l.38-.22M503.42,788.36l.02,1.09-.28,1.48-.36.72-.74.63M502.61,782.28l.43-.3.67-1.14.29-1.51M472.62,720.51l-.66.62M477.67,715.13l-.5.48M483.17,711.18l.44-.33.03-.05M504.16,772.89l.43-.32.31-.38.39-.86.16-.74M503.75,795.89l.06.65.05.54.05.51M520.97,741.18l-4.48,3.66-5.78,7.16-4.71,8.81-3.38,10.05-.38,1.55M626.16,875.29l-1.53-.92-1.44-.51-.81-.05-.92.33M492.41,658.27l-.2-.08-.23-.23-.17-.3-.17-.75-.05-.82.32-3.42M537.42,783.39l-.16,5.79.99,12.67,2.36,13.45,3.64,13.56.63,1.96M501.37,655.92l-.62,3.33-.03.81.08.74.12.3.18.23.13.08M468.52,726.69l-.11.27-.77.72M545.88,701.35l-1.32.12-1.78.26-2.18.51-2.5.84-2.72,1.24-2.82,1.71-1.14.9M566.8,808.91l4.38,9.22,7.07,12.39,8.09,11.94,8.72,10.86,1.31,1.48M618.51,869.68l.38.3.41.32.84.64,1.52,1.15M633.33,879.35l-.2-.11-1.19-.47-1.3-.17-.95.33M509.83,664.87l.05.39.15.29.14.1M640.45,832.19l.49-.22.66.02M524.38,630.76l-.03.37.1.25h.03M533.06,638.98l-.07-.08-.02-.18.16-.5.29-.58,1.66-2.52M648.42,831.7l-.87.25M541.27,647.41l-.04-.08.03-.16.25-.44.37-.51,1.92-2.24M552.07,653.57l-2.18,1.99-.44.46-.33.38-.07.13v.06M609.7,787.74l1.11-.77,1.37-.65,1.11-.38,1.17-.29,2.9-.33h2.86s2.39.16,2.39.16l.1.02M654.85,830.26l-.67.2M556.51,666.08l-.18.15-.06.08h0M663.31,833.36l-.31.4-.02.54.44,1.19.11.24M595.88,808.83l.76-.21,1.61-.43,1.28-.33,2.41-.78,1.62-1.06,1.02-1.64.11-.52M632.98,831.15l.5-.21.51-.07,1,.11.1.03M529.06,626.3l3.75-2.16M606.6,709.92l-.31-.17-.17-.22v-.09M608.5,699.55l-3.12-.05-.7-.08-.58-.16-.19-.13-.1-.17h0M600.64,688.19l.06.1.16.09.53.09.65.02,3-.24M642.54,761.1l-.04.26.08.33.17.33.55.59.67.52,3.06,1.66M592,666.51l-.27.04-.1-.04M596.58,677.33l.02.05.12.06h.48s.61-.06.61-.06l2.88-.57M645.63,745.15l-.34-.33-.18-.37v-.16M644.3,753.07l-.03.12.06.31.15.3.54.53.68.46,3.13,1.43M652.26,749.21l2.8-1.61M598.82,666.58l2.84-1.64M609.7,787.74l1.45-.49,2.03-.23,1.84.08M526.77,766.86l-.39.22-.48.27-.55.31-.59.32M522.86,768.99l.91-.48.99-.53M528.14,766.13l-.12.02-1.18-.13-1.04-.54-.42-.39-.48-.7M525.65,772.45l.3-.48.35-.49.38-.49.41-.46.42-.42.41-.36.39-.29.35-.21M458.31,813.39l.2-1.34.58-.98.9-.52h1.14s.97.33.97.33M466.47,818.44l-.19,1-.58.98-.9.52h-1.14s-1.26-.49-1.26-.49l-1.26-.96-1.14-1.33-.9-1.57-.58-1.65-.2-1.57M466.03,823.06l-.74.16-1.4-.14-1.5-.64M462.4,822.44l-1.5-1.09-1.4-1.48-1.2-1.76-.92-1.92-.58-1.95-.2-1.85.2-1.62.58-1.28.51-.56M471.1,828.96l.7-.16M455.66,801.2l-.35.39M473.61,799.08l.39.21.49.05M482.75,813.18l-.27.6-.05.58M470.01,805.84l-1.47-2.54M468.55,803.3l-.59-1.24M462.4,802.51l-2.05-.97-1.98-.51-1.85-.04-1.66.44-1.42.9-.75.89M470.5,811.07l-1.74-2.65-1.98-2.37-2.15-1.99-2.24-1.54M472.4,809.97l-2.28-3.96M470.11,806.01l-.1-.17M470.5,811.07l1.91,4.03,1.14,4.08.29,3.82-.59,3.26-1.43,2.45-2.15,1.46-.85.11M477.03,817.77l-.78-1.13M476.25,816.64l-1.47-2.54M474.78,814.1l-.1-.17M474.68,813.93l-2.29-3.96M472.36,809.99l-.94.54-.93.54M530.99,764.43l-2.81,1.62M528.18,766.05l-1.41.81M526.77,766.86l.83,1.3,1.04,1.08M525.01,764.32h.02M524.9,764.38l-.48.19-.72.33-.88.43-1.05.52-1.64.84-2.2,1.14-2.68,1.39M528.64,769.24l1.43-.83M506.39,705.15l.04,1.82.04,3.68v.29M575.22,830.01l1.58.9.8.48M467.96,802.06l-.41-1.57v-1.42s.44-1.13.44-1.13l.84-.73,1.18-.27,1.41.19.35.12M474.76,799.71l-.58-.79-.75-.72-1.66-.95M474.76,799.71l3.93,6.63M467.96,802.06l-1.99-3.78-1.74-3.42-1.83-3.73-1.75-3.69-1.69-3.68-2.34-5.32-2.22-5.33-2.08-5.27-1.28-3.43M478.7,806.33l3.77,6.72M482.47,813.05l.58,1.56.13,1.6-.29,1.52-.69,1.23-.96.71-1.12.13-1.22-.41-1.21-.9-.66-.72M477.03,817.77l2.36,3.74,2.04,3.13,2.3,3.42,2.33,3.37,2.33,3.29,2.02,2.77,2.21,2.96,2.71,3.53,2.37,3,1.64,2.03,1.86,2.23M523.02,583.59l-.54.48-.33.62-.21,1.29.25,1.8.7,1.88.99,1.69.35.45.86.76.73.31.8.08.27-.02.52-.11.7-.29M517.15,588.26l.02-.42-.02-.33-.16-.3h-.09s-.06,0-.06,0l-.22.09-.33.18-.39.22M688.55,870.44l-.99.89-.53,1.27-.02.47.35,1.39.75,1.43,1.03,1.42,1.17,1.16,1.23.78,1.18.3,1.03-.24M687.58,882.68l.02-.05-.31-.3-.49-.27M689.84,869.7l-.69.4M688.55,870.44l-6.42,3.7M688.55,870.44l.61-.35M523.61,583.25l.46-.27.57-.32.78-.38.38-.16,1.16-.29h.57s.49.12.49.12M697.67,875.76l-.28.78-.56.72-.84.69-1.06.67-.59.34M614.23,853.51l1.82,1.01,4.17,2.27,4.91,2.66,3.94,2.14,4.88,2.65,5.19,2.83,4.85,2.67,1.17.66M595.53,859.18l1.36-.76M528.04,575.36l-.49-.21-.55-.16-.6-.09-.63-.03-.63.04-.6.11-.56.17-.49.22M703.38,879.07l-.06.53-.14.56-.22.57-.29.56-.35.52-.39.47-.42.4-.43.31M523.39,559.9l-.77.46-.19.1-.05.03-.42.25-.78.46-.52.3-.54.3-.59.33M714.45,890.83l-.8.44-1.01.57-.84.48-.57.34-.63.38M525.39,594.09l-3.71,2.15M521.68,596.23l-.74.15-.69-.36-.74-.88-.85-1.42-.75-1.62-.53-1.59-.24-1.51.02-.73M517.15,588.26l-.78-.46-.39-.24-.04-.02M685.85,872l-3.72,2.15M686.74,883.03l.06-.97M682.13,874.15l-.5.56-.03.78.18.6.63,1.29.94,1.47,1.08,1.36,1.15,1.1,1.21.75M634.89,799.89l18.36,31.8M451.05,764.41l.08-5.04.28-5.26.6-4.92.91-5.11.73-5.07.53-5.3.32-4.36.17-2.78.24-4.68.25-6.08.2-6.07.13-5.23.05-3.12.02-2.31M501.18,851.24l5.53,3.04,4.88,2.39,5.95,2.33,5.37,2.04,4.95,2.16,5.58,2.67,5.49,2.77,5.26,2.74,6.56,3.49,5.37,2.92,3.9,2.19M480.15,620.2l-1.04.33h-1.32s-1.58-.4-1.58-.4l-1.65-.96-1.23-1.35-.73-1.48-.29-1.48.02-.75M475.65,610.94l-.46.27-.56.34-.72.48-.32.25-.83.86-.28.5-.14.48M640.61,898.12l-.81.74-.66,1.15-.3.88-.21,1.78.33,1.83.78,1.54,1.05,1.16,1.16.75M641.94,907.93l.82.15.9-.13,1.02-.38,1.11-.58.59-.34M703.38,879.07l-4.1-2.45M714.45,890.83l-2.33-3.57-2.72-3.27-2.97-2.78-3.04-2.15M528.04,575.36l-.34-3.71-.92-3.96-1.47-3.99-1.92-3.8M528.12,580.97l-.08-5.6M658.96,803.84l4.56,7.9M642.93,896.78l-2.32,1.34M635.22,901.23l5.39-3.11M523.61,583.25l-.12-7.84M694.34,878.96l-24.4,14.09M701.07,882.98l-6.73-4.02M468.55,615.04l7.1-4.1M476.26,610.59l-.61.35M515.91,587.7l-16.69,9.63M515.91,587.7l7.11-4.11M523.56,583.28l-.54.31M499.22,597.33l24.4-14.09M466.47,598.21l-.19,1-.58.98-.9.52h-1.14s-1.26-.49-1.26-.49M462.4,600.24l-1.26-.96-1.14-1.33-.9-1.56-.58-1.65-.2-1.57.2-1.34.58-.98.9-.52h1.14s.97.33.97.33M653.11,930.56l-1.26-.96-1.14-1.33-.9-1.57-.58-1.65-.2-1.57.2-1.34.58-.98.9-.52h1.14s.97.33.97.33M657.18,928.54l-.19,1.01-.58.98-.9.52h-1.14s-1.26-.48-1.26-.48M466.03,602.83l-.74.16-1.4-.14-1.5-.64-1.5-1.09-1.4-1.48-1.2-1.76-.92-1.92-.58-1.95-.2-1.85M456.6,592.17l.2-1.62.58-1.28.51-.56M647.31,922.5l.2-1.62.58-1.28.51-.56M656.75,933.15l-.74.16-1.4-.14-1.5-.64-1.5-1.09-1.4-1.48-1.2-1.76-.92-1.92-.58-1.95-.2-1.85M643.12,908.53l-2.29,1.32M640.84,909.85l-.1.06M640.74,909.91l-1.47.85M639.27,910.75l-.77.23M467.96,615.59l.59-.55M468.55,615.04l1.47-.85M470.01,614.2l.1-.06M470.11,614.14l2.28-1.32M471.1,608.73l.67-.15M455.72,580.91l-.04.04-.38.42M452.69,582.88l.18-.21,1.42-1.18,1.74-.64,1.98-.08,2.15.49,2.23,1.04M470.5,609.55l-1.66.49M661.82,939.06l.61-.13M646.29,911.38l-.27.31M645.01,911.81l-1.42,1.18-.37.58M664.57,932.46l-.22,2.45-.65,2.11-1.06,1.68-1.42,1.18-1.74.64-.28.05M510.07,552.26l4.54-2.62M464.67,578.47l4.54-2.62M523.5,575.41l-.42-3.94-.96-3.63-1.25-3.14-1.33-2.56M519.54,562.14l-2.04-3.06-2.32-2.73-2.51-2.3-2.6-1.79M714.41,906.18l4.54-2.62M710.59,893.04l1.62,3.3,1.21,3.37.74,3.32.25,3.15M710.59,893.04l-1.56-2.43-2.09-2.65-2.66-2.65-3.2-2.33M669,932.4l4.54-2.62M478.69,621.05l-3.93,2.27M474.76,623.32l-1.19.31-1.49-.21-1.55-.73-1.37-1.2-1.02-1.54-.55-1.65-.08-1.26.13-.74.32-.71M451.04,633.75l1.28-1.97,2.08-2.9,2.22-2.78,2.34-2.63,1.69-1.73,1.75-1.67,1.83-1.61,1.74-1.4,1.99-1.47M455.57,699.09l-.02-2.99-.08-3.77-.13-4.55-.19-5.32-.18-4.28-.45-8.13-.66-7.85-.59-4.7-1-6.09-.79-6.04-.32-5.51-.11-6.1M455.57,699.09l7.27-4.14.8-.45,1.48-.84,5-2.85M633.09,913.16l2.75-1.01.47-.2.85-.36,1.35-.6M638.5,910.99l-1.14-.18-1.2-.7-1.11-1.14-.86-1.47-.47-1.64-.04-1.65.05-.38M635.22,901.23l-.49.39-.45.61-.56,1.6M635.22,901.23l3.93-2.27M614.33,916.56l-2.97-1.76-4.47-2.8-5.52-3.95-4.36-3.58-3.95-3.1-4.03-2.95-3.71-2.56-2.84-1.89-3.58-2.32-4.62-2.94-5.03-3.15-4.38-2.69-2.75-1.65-2.11-1.24M614.33,916.56l9.78-1.07,8.98-2.33M645.01,911.81l2.54-.75,2.96.39,3.16,1.5,3.12,2.49,2.84,3.29,2.34,3.83,1.66,4.09.85,4.02M647.57,905.75l-.59.56M646.98,906.3l-1.47.85M645.51,907.15l-.1.06M645.41,907.21l-2.29,1.32M643.14,908.56l.93,1.63.93,1.62M474.78,611.44l1.47-.85M476.25,610.59l.78-.23M473.85,602.13l-.19-2.48-.55-2.61-.9-2.66-1.21-2.62-1.49-2.5-1.72-2.3-1.89-2.02-2.01-1.68M470.5,609.55l1.43-1.18,1.06-1.68.65-2.11.22-2.45M472.36,612.76l-.94-1.61-.93-1.61M472.4,612.82l2.29-1.32M474.68,611.5l.1-.06M672.95,872.14l2.9-1.44.11-.04.82-.26,2.29-.36,3.43.44,3.36,1.52M685.85,872l3.99-2.3M689.84,869.7l1.05-.33h1.32s1.58.4,1.58.4l1.65.96,1.23,1.35.73,1.48.29,1.48-.02.73M697.67,875.76l.81.45.4.24.29.15.08.03h.02s0,0,0,0h0M699.29,876.63l.98-1.02.89-.94.79-.85.7-.76.6-.67.1-.11.52-.58.74-.83.71-.8.26-.3.22-.25.18-.21.14-.16.23-.26.17-.2.12-.13.33-.39.09-.1.02-.03h0s0-.01,0-.01h0s1.33-1.57,1.33-1.57l1.47-1.78,1.76-2.17,1.38-1.77,1.4-1.92M672.59,872.34l.18-.1.18-.1M525.39,594.09l3.99-2.3M518.83,605.19l2.69-1.79.09-.07.64-.58,1.46-1.81,1.34-3.19.36-3.67M518.47,605.4l.18-.1.18-.1M528.12,580.97l4.25-1.64,4.38-1.32,4.62-1.03,4.86-.71,4.88-.37M528.12,580.97l-.09.99M529.39,591.78l.8-.74.66-1.14.3-.88.21-1.78-.33-1.83-.78-1.53-1.05-1.17-1.19-.76M477.03,610.36l1.03.13.82.37,1.06.77.82.83.84,1.08.68,1.1.53,1.1.32,1.02M482.47,618.87l.4-.34.25-.5v-1.27M482.47,618.87l-3.77,2.18M500.67,623.25l-.69.38M501.18,604.8l-1.86.09-1.64.12-2.37.25-2.71.39-2.21.4-2.02.44-2.33.59-2.33.69-2.3.78-2.04.79-2.36,1.03M648.23,878.83l-.68.4M639.15,898.96l3.77-2.18M642.92,896.78l.85-.18.89.37.94.88.93,1.33.79,1.56.53,1.6.2,1.52-.19,1.29-.29.59M647.57,905.75l2.07-1.52,1.7-1.37,1.83-1.6,1.76-1.67,1.68-1.73,1.39-1.53,1.45-1.71,1.69-2.15,1.4-1.93.93-1.36,1-1.56M514.61,549.64l11.04,6.37M525.66,556.01l-.86.69-.73.98-.49,1.12-.18,1.1M523.39,559.9l27.72,16M551.11,575.9l2.94,1.67,3.6,1.92,3.43,1.66,3.66,1.51,4.32,1.58,2.88,1.1,2.28.95,2.61,1.17,2.97,1.4,3.26,1.59,6.97,3.51,6.02,3.12,5.33,2.84,4.64,2.54,3.95,2.24M664.29,641.24l27.72,16.01M714.45,696.1v32.02M714.45,858.82l.02-3.38.14-4.07.28-3.8.52-3.93.79-4.53.49-3.04.32-2.45.29-2.85.28-3.27.25-3.62.45-7.79.3-6.77.2-6.04.11-5.29.04-4.54M714.45,858.82v32.01M714.45,890.83l1.04.39,1.22.13,1.21-.14,1.03-.4M718.95,890.81v12.75M694.29,653.36l11.04,6.37M692.02,657.25l.18-1.1.49-1.12.73-.98.86-.69M692.02,657.25l.42,1.16.02,1.18-.27.82-.33.47-.53.43M714.45,696.1l-.79-.93-.18-.15-.05-.04-.43-.27-.79-.28-.52-.05-.53.06-.58.23M718.95,696.08l-1.03.4-1.21.14-1.22-.13-1.04-.39M718.95,683.33v12.75M664.29,641.24l-2.94-1.73-3.58-2.23-3.36-2.27-3.42-2.58-3.75-3.08-2.42-1.96-1.95-1.49-2.27-1.65-2.63-1.84-2.92-1.98-6.31-4.16-5.51-3.53-4.96-3.1-4.42-2.68-3.88-2.28M609.97,604.69l-7.22,4.17-7.22,4.17M718.95,793.45l-7.22,4.17-7.22,4.17M714.45,728.12l.02,3.41.14,4.22.28,4.05.52,4.25.79,4.79.49,3.08.32,2.43.29,2.79.28,3.19.25,3.52.45,7.54.3,6.54.2,5.85.11,5.17.04,4.5M648.8,878.43l-.23.16M501.31,622.95l-.25.12M499.99,623.72l.68-.47M647.48,879.18l.75-.35M501.99,737.65l-1.51-4.38-2.97-10.21-.82-3.22-.66-2.75-.85-3.84-.57-2.8-.22-1.11-.22-1.16-.22-1.2-.02-.12M515.25,769.22l-2.04-4.11-1.32-2.76-1.91-4.17-.11-.25M493,658.4l-.11.54-.52,3.84M510.77,619.99l-1.42,1.52-1.09,1.29M599.47,861.37l-.27-.14-3.67-2.04M656.08,871.72l-1.08.27-2.01.41-2.44.4-2.51.3-2.71.2-7.14-.03-7.19-.8M560.54,831.99l5.09,4.87,5.75,5.1,6.25,5.1,5.77,4.3,5.34,3.64,6.79,4.18M529.23,793.4l2.37,3.55,2.89,4.18,2.06,2.86M527.32,790.44l1.91,2.96M535.38,785.32l-8.07,5.12M522.86,768.99l1.25,1.88,1.55,1.57M522.86,768.99h0s-.03.02-.03.02l-.08.04-.29.15-1.15.6-4.54,2.37M516.77,772.17l-1.52-2.95M672.59,872.34l4.27-2.75,3.86-3.06.81-.72.8-.74.79-.77.79-.79.78-.81.77-.84.76-.86.71-.84,1.18-1.47,1.61-2.16,1.97-2.94,1.19-1.97,1.2-2.15,1.33-2.62.8-1.71,1.27-2.99,1.54-4.15,1-3.11,1.12-4.05,1.1-4.83.56-3.01,1.02-7.52.51-6.54.19-7.18M595.53,613.02l-6.03-3.28-5.4-2.61-6.94-2.91-4.77-1.68-3.41-1.04-2.9-.78-2.4-.57-2.01-.43-2.11-.4-2.37-.38-1.92-.25-1.45-.16-1.5-.13-2.24-.14-2.34-.07h-2s-2.19.08-2.19.08l-2.88.21-2.63.31-1.84.29-1.08.2-2.15.46-4.96,1.4-4.85,1.89-4.69,2.4M657.18,708.31l-.19,1.01-.58.98-.9.52h-1.14s-1.26-.49-1.26-.49l-1.26-.96-1.14-1.33-.9-1.57-.58-1.65-.2-1.57M649.02,703.25l.2-1.34.58-.98.9-.52h1.14s.97.33.97.33M653.11,712.31l-1.5-1.09-1.4-1.48-1.2-1.76-.92-1.92-.58-1.95-.2-1.85.2-1.62.58-1.28.51-.56M656.75,712.92l-.74.16-1.4-.14-1.5-.64M462.4,582.28l1.5.98M463.9,583.27l.1.06.74.43,2,1.16,18.04,10.42,6.36,3.67,7.14,4.11,1.98,1.14.59.34.33.19M521.61,617.65l.76.44M655.38,688.57l-11.04-6.38M475.71,584.85l-11.04-6.38M464.67,578.47l-.43.3-.41.38-.38.45-.34.5-.28.54-.22.56-.14.55-.06.53M663.55,863.38v-.69M664.46,887.61v.38s0,2.97,0,2.97v15.59s0,4.45,0,4.45v8.25s0,8.22,0,8.22v2.23s0,.64,0,.64v.33M664.47,930.66l.1,1.79M664.57,932.46l.49.21.55.15.59.09.61.03.61-.04.58-.11.54-.17.47-.22M669,932.4v-9.86s0-1.55,0-1.55v-.83s0-.27,0-.27v-.12h0v-.02h0v-.02h0v-.02h0v-.02h0v-.05M669,724.92v-12.74h0M639.15,713.67l-3.93-6.63M635.22,707.05l-.86-1.59-.56-1.48-.14-1.23.35-.87.82-.4,1.15.16,1.05.55.7.56.77.83M594.83,659.92l-.28-.15M647.57,719.28l.39,1.4.09,1-.13,1.04-.33.74-.49.46-.62.15-.62-.16-.8-.55M642.92,720.39l.49.84.55.84,1.1,1.28M642.92,720.39l-3.77-6.72M663.54,778.33v1.06M669.93,778.01v.78M669,822.28l7.22-4.17,7.22-4.17M560.02,633.52l7.22-4.17,7.22-4.17M661.82,718.83l.65-.14M646.34,691.1l-.32.36M664.57,712.23l-.1,1.68M651.61,691.63l1.5.75M714.41,685.95l4.54-2.62M705.33,659.74l2.36,1.6,2.29,2.03,2.15,2.4,1.94,2.7,1.68,2.91,1.36,3.03,1,3.06.61,3,.21,2.85M705.33,659.74l-4.54,2.62M691.32,661.31l2.04-.7,2.32-.06,2.5.59,2.6,1.21M659.92,685.95l-4.54,2.62M669,712.17l4.54-2.62M710.59,694.67l1.62-1.42,1.21-1.98.74-2.46.25-2.86M669,712.17l-.21-2.85-.61-3-1-3.06-1.36-3.03-1.68-2.91-1.95-2.7-2.15-2.4-2.29-2.03-2.36-1.6M653.11,692.38l.06-.53.14-.55.22-.56.28-.54.34-.5.38-.45.41-.38.43-.3M653.11,692.38l2.24,1.54,2.15,1.99,1.98,2.37,1.74,2.65,1.42,2.83,1.06,2.9.65,2.86.22,2.71M669,712.17l-.47.23-.54.17-.58.11-.61.04-.61-.02-.59-.09-.55-.15-.49-.21M643.29,693.33l.4-.68,2.15-1.46,2.71-.35,3.06.79M614.33,670.12l.33.19,2.57,1.48,13.5,7.8,3.86,2.22,7.14,4.12,7.12,4.1,1.93,1.11.56.32.29.16M638.5,703.57l-2.35-3.75-2.03-3.13-2.29-3.43-2.32-3.37-2.34-3.29-2.02-2.77-2.22-2.96-2.72-3.52-2.38-2.99-1.65-2.02-1.86-2.23M638.5,703.57l.77,1.13M639.27,704.7l1.47,2.54M640.74,707.25l.1.17M640.84,707.42l2.29,3.96M659.29,720.29l1.37-.36,1.42-.9,1.13-1.33.8-1.72.45-2.06M645.41,715.34l-2.29-3.96M645.51,715.51l-.1-.17M646.98,718.05l-1.47-2.54M646.98,718.05l.59,1.23M652.18,728.2l-2.26-4.48-.41-.78-.74-1.41-1.2-2.25M664.46,756.95l-5.77-14.63-6.51-14.12M664.46,713.9v3.29s0,20.82,0,20.82v7.35s0,8.24,0,8.24v2.96s0,.38,0,.38M502.22,816.51l.49-.33.48-.52.7-1.19.12-.54v-.2M501.75,813.86l.49.06.57-.02.6-.11.58-.17M503.99,813.63l-.36-1.55-.45-1.56-.42-1.57-.31-1.56-.07-.69.06-1.63.1-1.02-.02-1.27M503.91,797.58l.03,2.6-.29,1.32-.37.66-.74.6M502.53,802.78l-.87.14h-.44s-.41-.03-.41-.03l-.68-.21-.56-.29-1.57-1.4M502.53,802.78l-.24-1.54-.33-1.59-.31-1.6-.18-1.54v-.66s.25-1.47.25-1.47l.23-.91.12-1.19M464.55,728.66l.67.17.72-.08,1.2-.56.37-.32.1-.13M502.07,792.28l-.88.07-.43-.04-.4-.09-.66-.31-.54-.38-1.54-1.73M502.07,792.28l-.11-1.51-.21-1.6-.19-1.6-.05-1.51.06-.62.44-1.29.35-.78.25-1.09M498.3,779.14l1.46,2.04.51.46.64.4.39.15.42.09.44.03.43-.02M502.61,782.28l.03-1.46-.09-1.58-.07-1.59.08-1.46.13-.57.62-1.1.47-.64.38-.98M465.47,726.94l.46.38.55.27.58.11h.57M467.64,727.69l.41-1.19.29-1.42.31-1.41.47-1.17.31-.36,1.07-.36.75-.14.71-.51M471.97,721.13l-.82-.11-.4-.17-.37-.24-.6-.64-.47-.72-1.25-3.06M471.97,721.13l.54-1.07.42-1.33.44-1.33.59-1.05.37-.29,1.19-.12.83.03.81-.35M567.86,877.07l.13-.71.13-.78.12-1.41-.11-.55-.09-.19M558.31,850.75l-.64.59-.59.44-.48.31-.79.47M561.57,863.2l-.84-1.32-.81-1.17-.8-1.19-.8-1.35-.38-.72-.92-2.07-.55-1.37-.65-1.45M564.43,862.02l-.86.21-.68.27-.52.25-.81.45M555.82,852.56l-.77.41-.36.19-.33.17-.5.24-.38.17-.93.35M555.82,852.56l-.76-1.4-.76-1.29-.74-1.3-.72-1.43-.32-.74-.73-2.05-.43-1.34-.54-1.46M550.83,841.55l.44-.26.79-.61.53-.62.49-1.01M566.26,874.72l.32-.31.42-.35.49-.37.5-.35M567.99,873.35l-.9-1.22-.86-1.05-.84-1.06-.87-1.26-.42-.7-1.09-2.07-.68-1.38-.77-1.43M561.57,863.2l-.75.47-.35.23-.32.21-.48.34-.35.27-.78.7M547.36,842.35h1.02s.39-.07.39-.07l.53-.14.34-.11.38-.14.4-.16.41-.17M550.83,841.55l-.67-1.47-.69-1.38-.67-1.39-.62-1.49-.26-.75-.54-2-.3-1.29-.41-1.45M477.17,715.61l-.79-.18-.38-.2-.34-.28-.53-.7-.41-.77-1.04-3.22M481.77,711.26l.5.11.9-.19M477.17,715.61l.67-.95.55-1.23.57-1.23.72-.93.42-.21,1.3.13M480.14,705.52l.82,3.35.34.81.47.75.31.31.35.24.37.15.38.07M483.17,711.18l.78-.81.68-1.12.7-1.12.83-.79.46-.13,1.38.37.93.36.97-.03M544.88,830.83l.37-.05.45-.11.48-.16.49-.19M502.24,772.4l.41.26.48.17.51.08h.51M475.95,655.74h-.05M472.48,654.65l.59.56.73.33,1.39.19h.52s.16,0,.16,0M522.43,746.32l-.92.57-.13.16M534.53,779.05l-.39-.8-.06-1.57M525.51,744.46l-.26.17M525.51,744.46l1.15-.49,1.18-.44,1.81-.55M523.82,741.3l-.3.28-.12.48.07.61.25.64.4.57.48.42.49.2.43-.04M529.65,742.99h.04M529.65,742.99l-.26.18M536.78,780.88l.19,1.78.59.94.45.3M561.7,806.49l-.23-.12-1.5-1.41-1.1-1.87M605.27,861.26l-.98-.83-.85-.6-.83-.62-.96-.88-.53-.57-1.55-1.9-1-1.3-1.03-1.24M474.41,654.63l.26.5.36.37.44.19.47.04M475.95,655.74l1.06-.31,1-.67,1.02-.66,1.1-.28h.02M505.94,811.11l.14,1.16.06,1.16-.11.74-.4.28-.83-.4-.33-.2-.38-.17h-.05s-.03,0-.03,0h-.01M505.95,811.14l-.81-5.56M505.14,805.58l-.89-7.28-.55-7.27-.19-7.4.06-2.51M520.72,743.25l-.65.5-4.35,4.5-3.75,5.16-4.58,9-3.18,10.24-.05.24M503.91,797.58l.04.43.04.35.06.46.07.43.1.43.09.46.06.35.07.44M504.44,800.93l.08.51.08.54.14,1.05.25,1.94.26,1.94.16,1.05.09.54.09.51M505.58,809.02l-.1,2.26-.21.87-.52.9-.76.59M503.99,813.63v.07M498.39,809.48l1.64,5.14M500.02,814.62l.39.84.54.74.62.38.62-.06h.02M501.75,813.86l.47,2.64M501.75,813.86l-1.36-.56-.93-.75M499.45,812.55l-.22-.98-.29-.98-.58-1.83-.49-1.85-.21-1-.09-.5-.07-.48M497.51,804.93l-.05-.42-.03-.36v-.53s.2-.61.2-.61l.28-.66.09-.56v-.79M498,800.99l-.14-.98-.22-1-.49-1.92-.41-1.93-.15-1.01-.05-.5-.03-.47M496.51,793.18v-.41s.02-.34.02-.34l.09-.46.34-.45.41-.49.17-.49.08-.74M497.61,789.81l-.06-.96-.15-1.02-.37-1.99-.3-2-.08-1.02v-.5s0-.46,0-.46M496.67,781.86l.04-.38.06-.31.17-.39.45-.27.52-.3.23-.4.16-.68M498.3,779.14l.03-.94-.07-1.02-.23-2.05-.16-2.05v-1.03s.04-.49.04-.49l.06-.44M497.97,771.14l.08-.35.1-.27.23-.3.54-.07.6-.1.29-.31.23-.6M500.04,769.14l.86,1.69.58.82.76.75M516.09,705.98l-1.06,1.76M496.85,801.41l1.53,8.07M605.27,861.26l.46-.23,1.14-.14,1.2.29,2.01,1.08M613.28,868.22l-.99-.68-.83-.44-.81-.46-.97-.73-.56-.51-1.67-1.78-1.09-1.23-1.09-1.14M604.37,865.57l-.3-1.79.04-.55.17-.62.17-.34.23-.35.28-.34.31-.31M488.4,706.86l.28.43.37.33.42.21.44.09M520.63,742.57l.3-.16.9-.47M484.18,656.47l-.62-.18-.27-.21-.22-.29-.27-.76-.14-.84.03-3.5M485.41,656.28l1-.47,1.11-.51,1.05-.1M618.51,869.68l-2.27-1.36-1.31-.42-.76-.02-.9.34M621.46,874.13l-.99-.52-.8-.27-.78-.3-.97-.57-.57-.44-1.77-1.64-1.16-1.14-1.14-1.02M613.28,868.22l-.53.7-.21.38-.15.38-.13.69v.62s.49,2.04.49,2.04M596.37,854.8l.18-.35.27-.38.34-.38.38-.36M526.06,717.64l-1.45-1-.51-.84-.03-.58.17-.43M626.3,875.37l-.14-.08M494.15,658.37l.99-.3,1.19-.36.9.03M629.7,878.92l-.96-.35-.75-.11-.74-.13-.95-.41-.58-.37-1.85-1.47-1.22-1.04-1.18-.9M621.46,874.13l-.51.71-.19.4-.13.4-.08.75.05.68.73,2.26M563.94,874.88l2.47,2.82M566.41,877.7l.46.34.44.06.33-.33.22-.66v-.03M566.26,874.72l1.6,2.35M566.26,874.72l-.71.89-.31.63M565.24,876.25l-.56-.78-.51-.62-.81-.93-.72-.96-.43-.65-.25-.39-.27-.42M561.7,871.5l-.27-.43-.26-.42-.46-.77-.7-1.34-.63-1.41-.38-.83-.47-.88M558.53,865.43l-.52-.84-.49-.7-.82-1.11-.74-1.13-.42-.73-.23-.42-.24-.44M555.08,860.05l-.23-.44-.22-.43-.37-.77-.54-1.28-.47-1.34-.31-.81-.4-.9M552.54,854.08l-.47-.89-.46-.78-.8-1.28-.72-1.31-.39-.8-.21-.45-.21-.47M549.3,848.1l-.2-.46-.18-.43-.29-.75-.38-1.19-.32-1.24-.23-.78-.33-.9M547.36,842.35l-.41-.94-.42-.85-.74-1.45-.67-1.47-.34-.87-.18-.48-.17-.48M544.42,835.81l-.16-.46-.14-.43-.22-.72-.25-1.07-.19-1.11-.16-.74-.25-.89M543.05,830.4l.68.32.48.1h.67M563.36,873.91l.58.97M572.32,874.22l.22.58-.1.35-.49-.05-1.07-.49-1.63-.82-.54-.22-.55-.16h-.07s-.04,0-.04,0h-.01M572.32,874.24l-1.63-3.26M570.7,870.98l-2.08-4.45-1.84-4.67-1.6-4.96-1.34-5.23-1.02-5.32-.72-5.57M562.11,840.78l-.38-2.94-.57-3.14-.76-3.35-.89-3.3-1.09-3.54-1.28-3.77-1.24-3.44-1.35-3.64-1.43-3.83-1.94-5.34-1.86-5.5M546.67,789.37l2.64,9.62M539.49,784.76l-.09,1.2.12,8.43.82,8.66,2.44,13.43,3.8,13.55.1.3M546.67,830.32l.43-.27.33-.26.44-.46.52-.82.42-1.44M548.81,827.07l.16.48.15.42.28.66.46.92.45.92.29.68.17.43.17.48M550.93,832.06l.18.51.16.5.28.92.44,1.57.43,1.57.29.91.18.5.19.51M553.08,839.05l.2.47.2.43.36.7.6,1.03.6,1.03.37.71.21.43.22.47M555.84,844.32l.21.49.2.48.33.85.48,1.41.48,1.4.33.84.2.47.23.49M558.31,850.75l.24.47.24.43.45.72.77,1.11.78,1.1.47.72.26.43.26.46M561.76,856.2l.25.47.22.45.35.77.5,1.24.5,1.24.36.76.23.44.26.46M564.43,862.02l.28.45.29.43.54.73.95,1.16.97,1.14.56.72.31.42.31.44M568.63,867.5l.28.44.24.41.37.69.47,1.07.47,1.07.37.68.25.4.29.43M571.38,872.71l-1.16-.11-.58.07-.81.26-.83.43M567.99,873.35l.04.07M631.04,884.69l1.55-.89,2.27-1.31,2.12-1.22M562.4,805.15l1.36,2.07,1.33,1.1.97.45.95.19.62-.04M630.77,882.03l-.24-.78-.17-.74-.26-1.12-.22-.35-.12-.1M628.83,881.05l.04-.56.17-.57.29-.53.36-.47M536.78,780.88l3.65,1.75,3.43,2.1,3.16,2.46,2.88,2.77,4.91,6.28,4.04,6.83M592.47,810.59l.35-.15.35-.16.34-.16.34-.17.34-.17.33-.18.33-.19.33-.19M592.47,810.59l-.87.35-1.04.16-1.04-.03-1.15-.21-2.06-.82-1.73-1.24M522.43,746.32l2.52,2.73,2.23,3.12,1.9,3.49,1.56,3.83,2.18,8.37,1.26,8.82M548.62,699.69l1.18-.72M562.4,805.15l3.61-.35,3.4-.11,3.15.15,2.88.41,4.97,1.48,4.17,2.08M545.88,701.35l2.74-1.66M550.32,748.9l.16-.51.85-1.7,1.18-1.29.53-.37M568.96,772.58l-.67.3-1.72.35-1.9-.14-.42-.09M468.05,727.51l-.07.2h-.12s-.18,0-.18,0h-.03s-.02.01-.02.01h-.01M507.79,705.08l-8.77.47-8.94,2.3-.19.07M467.64,727.69l-.03.05M531.43,706.94l-.79.63M526.17,711.61l-.27.36-.17.56.06.61.72,1.09,1.33.92M463.5,719.58l-.56,5.4M462.95,724.98l.05,1,.28,1.13.53.96.71.59h.03M465.47,726.94l-.92,1.72M465.47,726.94l-1.27-1.81-.84-1.93M463.36,723.19l.27-.75.16-.94.17-2.03.25-2.03.23-.94.15-.41.18-.33M464.77,715.77l.19-.22.19-.12.38.02.76.54.85.52h.47s.45-.33.45-.33M468.05,716.18l.35-.68.24-.89.32-1.98.38-1.98.3-.89.19-.37.21-.29M470.05,709.11l.22-.18.23-.07.44.11.82.73.9.7.51.1.5-.23M473.67,710.26l.43-.6.32-.84.48-1.91.54-1.91.39-.83.23-.33.25-.24M476.31,703.58l.26-.13.26-.02.47.21.84.91.91.89.53.2.55-.13M480.14,705.52l.51-.52.41-.78.65-1.84.71-1.83.47-.77.27-.3.29-.2M483.46,699.28l.29-.08.28.03.49.31.83,1.1.89,1.08.54.31.6-.02M487.38,702l.29,2.46.28,1.22.45,1.17M529.02,709.16l-10.43-3.31-10.07-1.58-9.82.18-9.06,1.98-1.24.43M547.54,696.34l-1.87,1.02-6.14,3.71-5.77,3.98-.57.44M497.15,657.74l-1.76,1.72-3.51,3.85-3.51,4.2-3.41,4.44M484.96,671.95l-7.35,11.04-6.22,11.68-3.39,8.14-2.68,8.35-1.82,8.42M526.06,717.64l.75,2.12.37,2.45-.05,2.78-.46,3.07-1.96,6.75-2.88,7.12M549.29,701.63l-.43-.06-.43-.05-.43-.04-.43-.04-.43-.03-.42-.03-.42-.02h-.42M545.98,708.25l-1.15-2.18-.35-1.63.05-1.02.27-.87.46-.69.61-.51M629.5,885.17l1.55-.47M631.04,884.69l.21-.26.02-.57-.19-.84-.3-.95v-.04M628.83,881.05l1.94.98M628.83,881.05l.39,1.86.73,1.55M629.96,884.46l-.6-.23h-.4s-.4.25-.4.25l-.33.21-.34-.07-.26-.11-.32-.17M627.3,884.34l-.37-.23-.4-.27-.81-.6-1.51-1.31-1.45-1.38-.74-.67-.72-.55M621.32,879.34l-.61-.34-.44-.12-.51.08-.44.03-.38-.17-.27-.16-.32-.22M618.35,878.44l-.36-.27-.38-.31-.75-.67-1.38-1.38-1.33-1.44-.7-.72-.7-.63M612.75,873.01l-.62-.44-.46-.22-.59-.12-.52-.17-.4-.27-.27-.21-.31-.27M609.57,871.3l-.34-.31-.36-.34-.7-.72-1.26-1.42-1.22-1.48-.65-.76-.67-.7M604.37,865.57l-.61-.54-.48-.33-.64-.33-.57-.38-.41-.37-.27-.26-.3-.32M601.08,863.04l-.33-.35-.34-.37-.65-.75-1.15-1.43-1.11-1.48-.61-.79-.63-.76M596.27,857.1l-.15-1,.04-.59.21-.71M627.16,884.78l.57.36,1.77.03M587.3,807.77l2.04,1.31,1.75.57,1.19.16,1.1-.03.97-.2.81-.35M595.18,809.22l3-2.95,2.76-2.74,2.38-2.56,1.9-2.41,1.34-2.31.72-2.28.07-2.33-.48-2.33M595.17,809.22l2.9-1.63M598.07,807.59l20.71-11.69M636.97,881.27l-.07-.12-.63-.4-1.1-.55-1.79-.71-2.22-.54-.65-.06-.62.02h-.07s-.04.02-.04.02h-.01M633.38,879.37l-.75-1.38-.58-1.69-.42-2.04M631.63,874.27l-.33-1.2-.67-1.4-1.01-1.6-1.27-1.68-1.61-1.89-1.96-2.13-1.97-2.04-2.23-2.26-2.48-2.51-3.6-3.74-3.81-4.16M586.1,810.41l4.71,10.15,5.88,10.33,6.68,9.76,7.33,9M569.37,808.89l2.12,5.04,4.3,8.55,4.8,8.22,8.03,11.74,8.74,10.66.2.22M597.54,853.33l.46-.23.41-.13.68-.08,1.12.13,1.81.76M602.03,853.78l.34.38.36.38.72.72,1.34,1.27,1.34,1.28.73.72.37.38.35.37M607.59,859.29l.31.33.25.28.34.41.34.49.33.48.34.39.26.27.32.32M610.08,862.27l.36.34.39.35.78.69,1.47,1.26,1.47,1.26.79.68.4.35.37.33M616.12,867.53l.32.29.26.23.33.3.29.29.28.28.33.29.26.21.33.27M633.83,879.63l-.5-.28M629.7,878.92l.06.03M609.7,787.74l-2.84,1.57M587.3,807.77l2.42-2.61,2.16-2.49,1.86-2.34,1.56-2.17,2.32-3.8,1.58-3.2M606.86,789.31l.07-.49.07-.49.06-.5.06-.5.05-.5.05-.5.04-.51.04-.51M606.86,789.31l-.87.43-1.02.42-1.02.34-1.11.3-1.98.34-1.66.03M640.45,832.19l-.77.16-.48.39-.47.37-.76.11-.55-.13-1.95-.85-1.32-.65-1.18-.43M632.61,833.11l-.07-.5.05-.52.15-.5.24-.44M545.98,708.26l-.83.21-1.3.42-1.78.65-2.23.86-5.55,2.2-6.43,2.54M551.16,700.55l-1.86,1.08M577.87,713.18l1.25-.78M551.89,701.03l-.26-.07-.14-.08M575.13,714.9l2.75-1.72M575.13,714.9l-2.02-2.75-2.45-2.68-2.88-2.46-3.24-2.12-3.55-1.67-3.77-1.12-3.92-.5-4,.03M549.29,701.63l-.69.57-.49.78-.25.86-.05,1.02.46,2.02,1.03,1.93M530.3,623.14l-1.24.43-.16.12M522.31,629.1l.29.66.49.5M530.27,623.14l.65-.09M524.28,626.58l1.53-.89,2.27-1.31,2.17-1.23M578.68,718.19l-.44-.43-.44-.42-.44-.42-.44-.41-.45-.41-.45-.4-.45-.4-.45-.39M572.86,722.56l-.16-2.43.27-1.83.39-1.13.51-.96.6-.76.66-.54M647.55,831.95l-.69.32-.39.54-.38.52-.69.27-.53-.04-1.94-.62-1.32-.5-1.16-.27M642.64,837.93l-1.89-2.52-.38-.73-.25-.82-.03-.44.05-.44.13-.41.19-.38M603.6,751.6l-2.19,1.21M607.3,785.31l2.85-1.7M610.15,783.61l30.6-18.27M640.76,765.34l.04-1.01.02-1.01M601.41,752.82l-.24-.6-.24-.6-.25-.6-.25-.6-.26-.59-.26-.59-.27-.59-.27-.59M599.83,787.51l1.92-.15,1.64-.4,1.13-.37,1.05-.41.93-.44.79-.43M607.3,785.31l.8-4.76.51-4.64.1-4.47-.38-4.25-.9-3.98-1.47-3.73-2.04-3.47-2.51-3.21M601.41,752.82l-.82.52-.88.67-.8.71-.81.81-1.3,1.53-.92,1.35M654.18,830.46l-.61.48-.29.68-.28.66-.61.43-.51.04-1.91-.37-1.31-.34-1.12-.1M647.55,831.95l-.27.79-.03.43.05.44.29.82.41.75,2.07,2.56M599.83,787.51l.63-3.95.28-3.92-.1-3.85-.46-3.75-1.8-7.08-2.51-6.54M580.56,717.13l-1.89,1.06M599.38,748.06l2.79-1.74M602.17,746.32l3.76-2.34M594.13,753.86l1.05-1.63,1.06-1.34.81-.88.82-.78.79-.66.73-.51M599.38,748.06l-1.18-4.68-1.55-4.62-1.97-4.43-2.4-4.13-2.83-3.73-3.24-3.27-3.62-2.75-3.9-2.27M578.68,718.19l-.75.57-.67.82-.49.92-.39,1.1-.34,2.19.14,2.1M570.67,770.92l.85-1.7.48-2.05.11-2.34-.28-2.54-.65-2.65-1-2.68-1.32-2.61-1.59-2.46-1.81-2.22-1.97-1.91-2.06-1.53-2.08-1.1-2.02-.63-1.9-.14-1.72.35-1.48.83-1.18,1.29-.85,1.7-.49,2.05-.11,2.33.28,2.54.65,2.65,1,2.68,1.32,2.61,1.59,2.46,1.81,2.22,1.97,1.91,2.06,1.53,2.07,1.1,2.02.63,1.9.14,1.72-.35,1.47-.84,1.18-1.29M529.38,743.16l.34-.23.17-.44-.02-.59-.21-.65-.37-.6-.47-.47-.5-.26-.45-.02M525.24,744.64l4.14-1.48M523.53,741.44l-.3.29-.13.49.07.61.25.65.4.58.48.43.5.21.43-.04M527.87,739.9l-4.34,1.54M521.84,741.94l6.27-2.37,6.8-.99,7.37.45,7.82,1.97M521.84,741.94l.06.54.06.54.07.54.07.55.08.55.08.55.09.55.09.55M543.06,742.75l-3.76-.39-3.71.03-3.65.45-4.9,1.33-4.6,2.15M546.13,749.44l.43-.64.16-.9-.12-1.08-.4-1.14-.62-1.08-.79-.9-.87-.64-.87-.3M534.08,776.67l1.47-8.39,2.47-7.38,3.53-6.35,4.57-5.11M534.08,776.67l.33.53.33.53.33.53.34.53.34.52.34.52.35.52.35.52M543.97,757.87l-1.89,3.07-1.63,3.47-1.37,3.87-1.44,5.99-.85,6.61M549.05,762.29l-.16-1.1-.43-1.13-.65-1.06-.81-.87-.88-.6-.86-.25-.74.11-.55.47M558.86,803.07l-4.02-10.49-3.01-10.32-1.96-10.18-.81-9.8M558.86,803.08l.44.28.44.27.44.27.44.26.44.26.44.25.44.25.44.24M552.79,773.46l.87,5.09,1.21,5.29,1.54,5.48,2.69,7.85,3.3,7.98M557.51,773.55l-.68-1.04-.82-.83-.88-.55-.84-.19-.72.16-.52.52-.27.81.02,1.03M584.57,808.8l-7.62-7.68-7.08-8.43-6.54-9.25-5.82-9.9M584.57,808.8l.35-.11.35-.11.35-.12.34-.13.34-.13.34-.14.33-.15.33-.15M565.39,782.23l3.22,4.73,3.48,4.63,3.74,4.53,5.57,6.04,5.91,5.61M567.54,777.94l-.88-.5-.83-.14-.7.22-.48.57-.23.85.06,1.05.33,1.13.58,1.1M599.19,791.17l-7.67-1.28-7.84-2.59-8.05-3.99-8.1-5.37M599.2,791.17l.1-.44.09-.45.09-.45.08-.46.08-.46.07-.46.07-.47.06-.47M575.87,780.07l4.07,2.16,4.12,1.8,4.18,1.46,5.84,1.4,5.75.62M574.44,773.42l-.67.28-.45.62-.19.88.1,1.07.37,1.14.61,1.09.78.92.87.66M595.88,758.43l-4.12,5.72-4.93,4.46-5.8,3.14-6.59,1.67M595.88,758.43l-.2-.57-.21-.57-.21-.57-.22-.57-.22-.57-.23-.57-.23-.57-.23-.57M576.19,725.9l-.41-.43-.41-.43-.41-.42-.41-.42-.42-.42-.42-.41-.42-.41-.42-.4M549.32,708.8l-.42-.09-.42-.09-.42-.08-.42-.07-.42-.07-.41-.06-.41-.05-.41-.05M562.76,738.71l-2.18-5.23-2.49-5.28-2.81-5.33-4.4-7.39-4.9-7.23M559.1,740.94l.83.82.88.52.84.18.71-.2.51-.54.24-.84-.03-1.03-.32-1.14M527.86,715.14l8.14,4.77,7.94,5.86,7.76,7.04,7.4,8.13M527.86,715.14l-.24.29-.23.3-.23.3-.23.31-.22.32-.22.32-.21.33-.21.33M550.48,735.19l-3.88-3.66-4.05-3.43-4.21-3.19-6.07-3.96-6.2-3.32M550.09,741.01l.83.12.68-.25.47-.59.2-.88-.08-1.06-.36-1.14-.59-1.09-.77-.94M579.33,768l3.01-1.43,2.84-1.86,2.67-2.3,3.37-3.89,2.9-4.66M594.13,753.86l-.91-3.76-1.35-3.74-1.81-3.68-2.24-3.59-5.45-6.82-6.18-6.38M576.19,725.9l1.35,10.05.29,9.42-.83,8.79-2,7.93M574.99,762.09l-.15.92.14,1.08.41,1.14.64,1.07.8.89.88.61.86.28.76-.09M549.82,699l-1.21.69M548.62,699.69l.75.03M549.37,699.71l1.16.11M579.14,712.43l-1.26.75M578.68,713.89l-.8-.71M579.94,715.07l-1.26-1.18M605.92,744.05l-3.74,2.28M602.17,746.32l.48,1.06M602.65,747.38l1.32,3.15M610.08,784.52l.07-.92M609.7,787.72l.38-3.19M598.07,807.59l-.59.34M574.15,751.67l.54-4.34.23-4.66-.09-4.98-.66-7.36-1.3-7.76M572.86,722.56l-1.49-2.11-1.97-2.02-2.48-1.9-2.94-1.77-6.94-3.16-7.73-2.8M549.32,708.81l6.2,9.67,5.37,9.98,4.52,10.33,3.53,10.48M568.93,749.27l.45,1.14.67,1.04.81.86.88.57.85.23.73-.15.54-.49.29-.8M660.24,827.72l-.51.64-.18.82-.17.8-.51.58-.47.13-1.86-.12-1.28-.17-1.07.07M654.18,830.46l-.27.76-.03.43.05.44.32.83.45.75,2.28,2.55M581.28,718.63l-.26-.3-.15-.27M661.51,829.05l-.44-.52-.28-.41-.26-.45-.15-.02-.09.04M660.18,829.88l-.22-.57-.07-.58.11-.54.23-.47M475.62,647.23l-3.09,3.48M472.53,650.71l-.42.75-.23,1.06.12,1.14.46.96.02.03M474.41,654.63l-1.92.02M474.41,654.63l-.47-2.28-.08-2.38M473.87,649.97l.68-.2.62-.51,1.09-1.42,1.15-1.42.67-.51.36-.14.36-.03M478.79,645.74l.33.09.3.19.49.61.73,1.58.82,1.57.56.59.68.3M482.69,650.68l.72-.1.68-.41,1.22-1.25,1.28-1.26.73-.41.38-.09.38.02M488.08,647.17l.34.14.31.24.49.68.69,1.7.76,1.68.55.67.68.39M491.9,652.67h.77s.74-.31.74-.31l1.36-1.09,1.41-1.1.78-.32.41-.04.39.07M497.76,649.89l.35.19.31.28.47.75.61,1.8.67,1.79.52.75.68.49M501.37,655.92l.8.11.8-.23,1.5-.92,1.54-.93.84-.23h.42s.41.13.41.13M507.68,653.86l.36.23.3.32.44.82.5,1.89.55,1.88.48.82.67.57M510.97,660.39l-.75,2.28-.27,1.12-.12,1.07M551.89,701.03l-9.31-10.58-9.87-9.45-10.57-8.39-10.74-6.88-1.56-.87M574.16,698.86l-1.59.17-7.16.79-7.05.81-1.73.18-1.77.17-1.81.11-1.16-.06M513.83,619.58l-8.84,5.12-10.77,7.01-6.75,4.97-6.26,5.2-5.58,5.35M608,789.89l.08-.31.13-.31.18-.31.23-.3.5-.5.59-.42M663.52,831.87l-.08-.22-.52-.88-.7-.91-.69-.79-.02-.02M660.18,829.87l1.33-.82M660.18,829.88l1.42,1.9,1.71,1.59M663.62,837.43l-.3.08-.37.02-.86-.1-1.84-.52-1.8-.58-.82-.16-.65.04M656.98,836.21l-.38.3-.09.47.28,1.08.34,1.02-.05.41-.14.15-.23.09M656.71,839.73l-.32.03-.38-.03-.86-.2-1.82-.7-1.77-.75-.82-.26-.68-.06M650.06,837.74l-.43.2-.16.38.15.95.2.89-.11.32-.17.1-.25.04M649.29,840.61l-.33-.03-.39-.08-.87-.3-1.78-.86-1.75-.9-.83-.35-.71-.16M642.64,837.93l-.48.09-.21.29.03.79.08.73-.17.23-.19.04h-.27M641.44,840.08l-.34-.08-.4-.13-.87-.39-1.75-.99-1.72-1.03-.83-.43-.72-.26M634.81,836.77l-1.27-1.65-.54-.94-.39-1.07M592.83,810.21l9.55,7.94,9.62,6.44,9.79,4.98,9.47,3.22,1.34.32M663.52,826.87l-1.97.26-.6.22-.56.27-.07.04-.03.02h-.01M611.1,800.24l.2.35,6.6,9.79,7.29,9.05,7.8,8.13,5.29,4.56M595.28,809l6.04,5.57,6.23,4.81,6.32,4.06,9.57,4.73,9.33,2.94.2.04M660.24,827.72l.04-.02M603.44,753.73l-.12-.4-.05-.38.03-.37.09-.29M639.91,767.94l-.12,1.03.23,1.12.24,1.11-.13.99-.31.38-1.54.66-1.09.35-.8.59M636.65,775.89l-.26-.43-.13-.45v-.44s.13-.4.13-.4M643.28,765.37l-.24.41-1.41.9-1.01.51-.71.74M644.27,772.36l-3.01-1.83-.67-.55-.54-.63-.17-.36-.08-.37.02-.35.1-.33M596.15,660.8l-.66.31M590.71,663.97l-.1.42.11.29M645.46,757.86l-.07.17-1.27,1.13-.84.62M594,663.86l1.53-.9,2.07-1.19M529.06,626.3l-4.77.27M524.29,626.58l-.79.21-.74.56-.43.83-.02.9v.03M524.38,630.76l-2.07-1.66M524.38,630.76l.66-1.75,1-1.87M526.04,627.15l.81.42.88.11,1.76-.29,1.8-.31.92.09.43.17.39.27M533.02,627.61l.32.36.24.43.27.96.12,2.02.2,2,.33.95.58.79M535.08,635.13l.8.51.89.21,1.81-.09,1.85-.11.92.19.43.22.38.31M542.16,636.36l.3.39.22.45.23.98v2s.07,1.99.07,1.99l.27.97.53.84M543.79,643.98l.79.59.9.3,1.86.1,1.9.07.93.28.43.25.37.34M550.96,645.9l.28.41.2.46.17.99-.14,1.98-.09,1.97.2.98.48.88M552.07,653.57l.77.66.9.38,1.91.27,1.94.24.93.35.42.29.35.37M559.3,656.13l.26.43.17.48.09,1-.3,1.94-.26,1.93.12.98.42.91M559.8,663.78l-1.79,1.23-.82.57-.68.5M581.28,718.63l-4.05-12.77-5.28-12.76-6.61-12.9-7.64-12.38-1.18-1.74M607.69,725.91l-.55-.06-6.25-1.1-6.64-1.47-6.68-1.79-1.66-.55-1.72-.65-1.77-.84-1.13-.81M535.82,625.88l-6.77.42M646.78,749.48l-1.06,1.28-.59.59M645.68,742.93l-.39-.04-.15.04.02.05M649.05,745.12l1.54-.9,2.27-1.31.2-.11M652.26,749.21l-3.21-4.08M649.05,745.12l-.67-.73-.93-.71-.97-.51-.77-.24h-.02M645.63,745.15l.05-2.21M645.63,745.15l1.9.98,2.16.72M649.69,746.85l.16.81.46.79,1.33,1.41,1.37,1.35.49.74.13.39.02.38M653.66,752.73l-.1.36-.2.32-.61.5-1.56.65-1.51.6-.57.45-.29.62M648.83,756.23l.08.77.38.78,1.2,1.44,1.23,1.37.42.72.09.37-.02.35M652.23,762.04l-.13.32-.23.27-.66.41-1.63.44-1.59.4-.62.36-.36.54M647.02,764.78v.71s.32.75.32.75l1.07,1.43,1.11,1.37.34.69.06.34-.05.32M649.87,770.39l-.16.27-.26.23-.71.31-1.7.25-1.67.21-.68.26-.42.45M644.27,772.36l-.07.65.25.71.95,1.39.99,1.32.28.65.02.31-.09.28M646.6,777.68l-.2.23-.29.18-.76.21-1.77.06-1.74.02-.73.17-.49.36M640.62,778.9l-2.12-1.34-.99-.78-.86-.9M608,789.89l8.26-.68,7.44-2.39,6.68-4.17,5.55-5.79.71-.97M612.35,794.1l-.61-.13-2.37-1.24-.51-.49-.47-.63-.36-.87-.03-.85M658.05,755.38l-.47-.44-5.31-5.73M651.97,740.63h-1.65s-2.19.61-2.19.61l-.49.35M615.01,787.09l2.06.44M609.7,787.73l5.24-.15,5-1.05,4.68-1.88,6.35-4.33,5.3-6.01.1-.15M598.82,666.58l-4.82-2.71M594,663.86l-.89-.38-1.02-.14-.86.18-.51.42v.02M592,666.51l-1.29-2.54M592,666.51l1.6-.46,1.88-.65M595.48,665.41l.61.82.81.62,1.85.83,1.88.78.84.59.35.38.26.43M602.08,669.86l.15.47.04.48-.16.92-.78,1.65-.72,1.62-.11.89.2.92M600.69,676.82l.55.85.77.68,1.8.97,1.83.93.8.64.32.4.23.44M606.99,681.72l.11.46v.46s-.21.87-.21.87l-.91,1.51-.86,1.49-.19.84.12.9M605.05,688.25l.49.87.73.72,1.75,1.09,1.78,1.04.76.68.29.4.19.44M611.03,693.49l.08.45-.03.44-.3.81-1.05,1.36-1.01,1.34-.27.79.04.86M608.5,699.55l.42.87.69.75,1.7,1.18,1.72,1.13.71.7.26.41.16.43M614.16,705.03l.04.43-.07.42-.38.75-1.2,1.21-1.16,1.19-.35.72-.04.83M611,710.58l-2.33-.2-1.1-.18-.97-.28M603.44,753.73l2.89-8.86,1.56-9.98.2-11.23-1.2-11.95-.29-1.78M636.7,764.32l-.71.12-2.41.29-2.31.13-4.62-.21-4.71-.84-4.58-1.38-4.83-1.99-4.83-2.59-1.18-.82-1.2-.97-1.2-1.23-.69-1.13M607.61,670.87l-.93-.41-7.87-3.88M564.53,763.61l.41-.24.66-1.28.12-1.83-.47-2.19-1.06-2.29-1.56-2.1-1.9-1.62-2-.89h-1.86l-.77.48M561.66,759.1l.07-.03.09-.11.06-.24-.02-.37-.15-.48-.29-.54-.53-.62-.68-.46-.72-.17-.39.13M562.72,761.42h-.32s-.35-.2-.35-.2l-.33-.33-.26-.43-.15-.46v-.42s.11-.31.11-.31l.07-.07M553.92,750.01l-.14.3v.41s.13.46.13.46l.25.44.33.35.36.21.33.04.07-.02M553.92,750.01l-.14.08M557.82,754.01l-.66.38-.64,1.25-.11,1.79.47,2.14,1.04,2.24,1.52,2.04,1.86,1.58,1.96.86,1.83-.02.7-.46M562.72,761.42l-.14.08M554.67,749.49l-.56.27-.33.33M557,754.53l-.06.04-.55,1.16-.12,1.61.36,1.92.85,2.05,1.28,1.96,1.62,1.64,1.8,1.12,1.79.43,1.58-.37,1.18-1.18.63-1.92-.04-2.49-.75-2.83-1.42-2.87-1.97-2.6-2.34-2.02-2.47-1.19-2.34-.17-1.1.52M562.58,761.5l.54-.33.33-.61.11-.89-.17-1.1-.45-1.22-.74-1.22-.97-1.08-1.13-.8-1.17-.4-1.1.09-.41.29M562.58,761.5h-.32s-.35-.2-.35-.2l-.33-.33-.26-.43-.15-.46v-.42s.11-.31.11-.31l.24-.16M561.52,759.18l.11-.07.09-.18.02-.31-.06-.36-.16-.44-.28-.49-.4-.48-.51-.4-.57-.25-.58-.03-.52.24-.39.54-.18.83.08,1.07.38,1.23.68,1.28.94,1.17,1.13.93,1.21.55,1.17.06.99-.49.69-1.04.27-1.53-.22-1.9-.72-2.09-1.2-2.07-1.58-1.81-1.8-1.32-1.86-.66-1.7.13-1.24.83M555.29,752.13l-.25.14-.33-.04-.35-.21-.33-.35-.25-.44-.13-.46v-.41s.14-.3.14-.3M549.79,752.49l.19,2.46.56,2.59.91,2.64,1.23,2.59,1.51,2.46,1.74,2.25,1.91,1.95,2.01,1.59,2.04,1.18,2.01.73,1.9.25,1.74-.24,1.51-.72,1.23-1.17.91-1.59.56-1.95.19-2.24-.19-2.46-.56-2.59-.91-2.64-1.23-2.59-1.51-2.46-1.74-2.25-1.9-1.95-2.01-1.59-2.04-1.18-2.01-.73-1.91-.25-1.74.24-1.51.72-1.23,1.17-.91,1.59-.56,1.95-.19,2.24M557.76,744.6l-1.56-.17-1.74.24-1.16.49M568.97,772.29l.35-.22,1.23-1.17.91-1.59.27-.74M454.57,592.01l.42-1.45.77-1.07,1.08-.63,1.31-.14,1.46.35,1.53.82,1.49,1.24,1.36,1.58,1.15,1.82.86,1.95.52,1.96.15,1.84-.24,1.6-.6,1.27-.93.86-1.2.39-1.4-.1-1.51-.59-1.52-1.04-1.44-1.42-1.26-1.72-1.01-1.9-.7-1.97-.34-1.91.04-1.73M449.54,588.21l.5-2.02.86-1.66,1.19-1.25,1.48-.8,1.72-.32,1.9.17,2.01.65,2.06,1.12,2.04,1.54,1.94,1.92,1.78,2.22,1.56,2.45,1.29,2.6.97,2.66.62,2.63.25,2.51-.13,2.3-.5,2.02-.86,1.66-1.19,1.25-1.48.8-1.72.32-1.9-.17-2.01-.65-2.06-1.12-2.04-1.54-1.94-1.91-1.78-2.22-1.57-2.45-1.29-2.6-.97-2.66-.62-2.63-.25-2.51.13-2.3M522.72,553.3l-1.98-1.79-2.05-1.4-2.05-.96-1.98-.49h-.07M719.99,903.58l.17-.53.38-2.12v-2.38s-.38-2.56-.38-2.56l-.26-1.08M458.86,828.55l-2-1.74-1.87-2.08-1.68-2.35-1.43-2.54-1.14-2.64-.8-2.66-.44-2.58-.06-2.42.32-2.17.69-1.85,1.03-1.47,1.34-1.03,1.61-.56,1.82-.08,1.96.42,2.05.89,2.06,1.34,2,1.74,1.87,2.08,1.68,2.35,1.43,2.54,1.14,2.64.8,2.66.44,2.58.06,2.42-.32,2.17-.69,1.85-1.03,1.46-1.34,1.03-1.61.56-1.82.08-1.96-.41-2.05-.89-2.06-1.34M459.64,823.2l-1.47-1.33-1.32-1.65-1.08-1.87-.78-1.96-.43-1.94-.05-1.79.33-1.53.69-1.17,1.01-.74,1.26-.27,1.43.23,1.52.71,1.51,1.14,1.4,1.5,1.21,1.77.94,1.93.61,1.97.24,1.88-.14,1.67-.51,1.36-.85.97-1.14.51-1.36.02-1.49-.47-1.53-.93M657.31,931.44l-.42,1.45-.77,1.07-1.08.63-1.31.14-1.46-.35-1.53-.82-1.49-1.24-1.36-1.58-1.15-1.82-.86-1.95-.52-1.96-.15-1.84.23-1.6.6-1.27.93-.86,1.2-.39,1.4.1,1.51.59,1.52,1.04,1.44,1.42,1.26,1.72,1.01,1.9.7,1.97.34,1.91-.04,1.74M662.33,935.25l-.5,2.02-.86,1.67-1.19,1.25-1.48.8-1.72.32-1.9-.17-2.01-.65-2.06-1.12-2.04-1.54-1.94-1.92-1.78-2.22-1.56-2.45-1.29-2.6-.97-2.66-.62-2.63-.25-2.51.13-2.3.5-2.02.86-1.66,1.19-1.25,1.48-.8,1.72-.32,1.9.17,2.01.65,2.06,1.12,2.04,1.54,1.94,1.91,1.78,2.22,1.56,2.45,1.29,2.6.97,2.66.62,2.63.25,2.51-.13,2.3M662.82,718.25l.53-.35M653.01,694.91l2,1.74,1.87,2.08,1.68,2.35,1.43,2.54,1.14,2.64.8,2.66.44,2.58.06,2.42-.32,2.17-.69,1.85-1.03,1.47-1.34,1.03-1.61.56-1.82.08-1.97-.41-2.05-.89-2.06-1.34-2-1.74-1.87-2.08-1.68-2.35-1.43-2.54-1.14-2.64-.8-2.66-.44-2.58-.06-2.42.32-2.17.69-1.85,1.03-1.47,1.34-1.03,1.61-.56,1.82-.08,1.97.41,2.05.89,2.06,1.34M652.23,700.26l1.47,1.33,1.32,1.65,1.08,1.87.78,1.96.43,1.94.05,1.79-.33,1.53-.69,1.17-1.01.74-1.26.27-1.43-.23-1.52-.71-1.51-1.14-1.4-1.5-1.21-1.77-.94-1.93-.61-1.97-.24-1.88.14-1.67.51-1.36.85-.97,1.14-.51,1.36-.02,1.49.47,1.52.93M719.84,683.77l.56-1.97.19-2.26-.19-2.48-.57-2.62-.92-2.66-1.24-2.62-1.53-2.48-1.75-2.26-1.92-1.97-2.03-1.6-2.06-1.19-2.03-.73-.81-.16M528.18,766.08l-.64.05-1.2-.39-.56-.4-.49-.57-.21-.48M507.82,721.7l-.29-1.09-.72-3.9-.22-1.96-.11-1.99v-1.81M525.04,764.3l-.69-1.34-2.41-4.9-1.89-4-1.75-3.87-1.09-2.5-.26-.61M575.23,829.98l-1.6-.92-1.67-1.09-1.59-1.17-3.02-2.57-3.14-3.11-3.7-4.11-3.16-3.75-3.29-4.06-2.21-2.81M506.47,710.74v-5.72M500.05,596.85v.96M577.57,831.34l-2.06-1.19M645.22,870.4l-32.93-19.01M669.94,892.08l.84.48M647.58,879.18l.03.02M516.22,549.51l-.8-.47-1.84-.8-1.88-.52-1.89-.21-1.87.13-1.81.5-1.14.6M714.96,912.33l.57-.3,1.55-1.36,1.16-1.59.86-1.88.55-2.1.23-2.25-.02-.59M512.28,620.39l.55-.72M657.39,870.09l-1.85.24-2.74.17-1.56.04h-1.36s-1.5-.01-1.5-.01l-1.68-.05-1.59-.08-.54-.03-.16.02M672.51,872.39l-.05.02M450.1,594.99v211.28M464.45,831.13l182.96,105.62M663.52,809.21l-3.01-5.22M455.2,577.49l-.74.39-1.55,1.36-1.16,1.6-.86,1.88-.55,2.1-.17,1.67M655.26,941.15l1.16.5,1.88.52,1.89.21,1.87-.13,1.81-.5.97-.52M477.13,584.65l-.3-.11-.05.05M504.98,548.69l-49.95,28.83M665.01,941.22l49.95-28.84M499.96,623.68l.03-.03M647.54,879.22h-.04M501.29,622.91l1.94-.91,1.55-.52,1.29-.4,1.25-.35,1.29-.31,1.81-.38,2.28-.36,2.71-.26,2.41-.12,2.49-.03,2.47.07,1.58.07.23-.02M663.52,860.09l-.08.13-.88,1.66-1.01,1.81-1.05,1.79-1.11,1.75-1.76,2.55-1.91,2.4-1.82,1.98-.97.96-1.04.99-1.3,1.13-1.76,1.21M526.53,612.97l-.02-.04-.77-.33-1.06-.6M669.97,863.5v-.83s.05-.67.05-.67h-.08M706.93,659.58l-190.71-110.1M719.89,902.25v-220.23M716.14,669.23l-1.63-2.53-.73-.98-1.27-1.52-1.39-1.44-1.55-1.37-1.67-1.22-.96-.56M719.86,682.01l-.05-1.72-.33-2.29-.52-2.16-.63-1.93-.62-1.54-.84-1.77-.75-1.38M669.94,873.87l2.66-1.54M518.49,605.38l-2.67,1.54M651.05,684.61v-.03s-.04-.05-.04-.05l-.14-.06-.26-.08-.38-.12-.5-.17-.6-.24-1.49-.76-1.86-1.14M669.94,723.79l-.06-2.18.09-1.67.09-.65.1-.52.09-.39.06-.27.02-.15-.05-.06M645.94,682.04l-47.79-27.59M525.1,612.28l-47.79-27.59M522.35,618.11l72.19,41.68M663.52,779.38v83.31M669.94,918.33v-55.18M669.94,778.79v-55.18M594.82,659.94l.4.23,3.37,2.25,3.01,2.44,2.51,2.34,2.2,2.23,2.81,3.06,3.58,4.18,3.41,4.18,3.54,4.54,2.99,4.04,2.47,3.45,1.98,2.82,1.51,2.19,1.44,2.14,1.45,2.2,2.04,3.19,2.76,4.47,2.36,4.04M638.66,713.95l2.74,4.83,2.66,4.99,1.7,3.33,1.3,2.63,1.31,2.73,1.72,3.69,2.12,4.7,2.46,5.77,2.51,6.39,1.96,5.4,1.41,4.27.93,3.16.73,2.86.44,2.04.38,2.14.3,2.49.17,2.76v.19M691.15,661.41l-40.13,23.17M670.29,717.94l40.13-23.17M502.36,816.43l3.49-2.02M503.77,796.15l-.13-1.54-.1-1.17-.08-.97-.05-.6-.03-.47v-.29s-.02-.14-.02-.14v.02s.02-.15.02-.15l.06-.61.03-.62v-.5s.01-.71.01-.71M466.87,728.36l1.14-.66M503.49,788.4v-.85s-.01-1.84-.01-1.84l-.03-1.44-.02-1.08v-.65s-.01-.43-.01-.43v-.36s.01-.29.01-.29l.03-.21.08-.07.2-.36.13-.48.07-.41.08-.6M505.34,771.11l.05-.11.13-.48M504.01,779.34l.08-.88.11-2.75.06-1.74.07-.81.08-.44M472.41,720.71l.24-.18M472.65,720.53l.29-.52.58-2.09.39-1.31.27-.44.32-.19M477.35,715.43l.36-.26M567.39,878.06l5.05-2.91M477.71,715.17l.62-.93.46-1.22.47-1.17.29-.46.33-.27M483.65,710.81l.65-.66.53-.94.5-.96.58-.75M534.47,779.09l.31.5,2.51,3.69M520.62,742.58l.03.25.72,4.22M475.61,655.74h.32M521.36,747.07l3.19,3.86,2.36,3.75,1.68,3.38,1.17,2.83,1.46,4.28,1.55,5.77,1.32,7.14M561.69,806.51l.08.05,3.72,1.98M538,783.92l5.57,3.16,4.08,3.01,2.79,2.48,1.9,1.92,1.24,1.37,1.04,1.23,1.2,1.51,1.72,2.4,2.03,3.41M480.13,653.82l.53.24M480.65,654.07l.41.19.84.82.87.83,1.04.49M475.58,655.72l.72-.07.73-.23M505.52,770.61l.36-1.59.73-2.6.75-2.32.75-2.06.74-1.83,1.02-2.27,1.55-3,2.2-3.57,3-3.95,3.98-4.06.12-.09M514.92,707.68l-3.62,6.45-2.85,6.11-2.01,4.75-1.79,4.64-1.69,4.88-1.73,5.62-1.19,4.43-1.07,4.52-1.08,5.38-1.04,6.56-.75,6.7-.39,5.57-.17,4.85-.02,3.96.13,5.36.44,6.84.8,7.13M502.02,705.19l4.58-.18.9.06M507.5,705.07l5.11.34,4.83.79,5.5,1.37,5.55,1.89M524.16,715.98l.64,2.59.11,2.67-.2,2.55-.34,2.28-.5,2.59-.79,3.6-1.05,4.68-1.42,5.64M488.42,655.14l.55.13,1.41,1.31.91,1.03,1.11.69M483.81,656.4l.79.04.82-.15M626.34,875.34l-.59-.38-.43-.28-.29-.19-.35-.22-.19-.11-.19-.13-.32-.22-.42-.3-.44-.32-.81-.6-.74-.56M526.06,711.76l-1.54,2.47-.44.85M496.99,657.65l.61.12.57.36.95,1.14.93,1.23,1.18.91M492.4,658.3l.86.14.9-.07M555.99,861.69l2.44,4.42,2.01,3.25M535.55,780.71l-.14,3.05-.04,3.07.05,3.5.2,4.25.38,4.68.54,4.62.56,3.81.77,4.36,1.14,5.4,1.61,6.37,1.81,6.15,1.82,5.45,1.74,4.74,1.61,4.03,1.64,3.84,2.27,4.95,3.03,6.06.36.64M562.75,873.1l.2.33M567.54,808.94l4.79-.13,3.58.17,2.74.27,2.66.38,2.48.44,1.95.34.91.02.19-.1M594.65,809.53l2.95-1.66M501.23,661.42l1.33.14,1.29-.27,1.3-.18.66.08.62.28,1.02,1,.83,1.2.86,1.14,1.04.85M513.66,619.59l-2.76,1.59M533.24,705.54l-.4.33M468.13,727.55l.45-.83M530.75,707.41l-4.61,4.2M565.98,808.73l.32.76,3.04,6.57,2.6,5.18,2.03,3.81,1.53,2.74,1.64,2.85,3.9,6.37,4.36,6.56,3.87,5.37,3.05,3.96,3.67,4.49,3.69,4.22,2.76,2.97,1.08,1.12,1.53,1.55,2.14,2.1,2.77,2.58,4.7,4.07,5.87,4.52,6.59,4.32M635.44,880.31l-1.28-.57-.31-.15M510.14,665.7l5.01,2.83,5.03,3.25,3.79,2.69,2.04,1.53,1.49,1.16,1.51,1.21,1.6,1.31,2.73,2.34,3.24,2.94,4.19,4.06,5.06,5.33,5.83,6.79M640.66,833.04h-.02s-.42-.16-.42-.16l-.66-.25-1.95-.78-1.25-.46-1.29-.38M641.61,831.91l-.38.03-.03.04M523.08,630.27l.11.08,1.28,1.04M528.89,623.66l-5.56,3.21M646.16,833.24h-.01s-2.04-.68-2.04-.68l-1.33-.43-1.16-.22M648.41,831.67l-.35.14h0M524.48,631.4l1.4.7,1.45.3,1.44.37.69.34.61.51.86,1.37.61,1.45.64,1.37.87,1.18M533.05,638.99l1.39.87,1.47.47,1.45.53.68.41.59.56.78,1.44.51,1.49.55,1.41.8,1.24M654.83,830.2l-.54.25M652.8,832.52l-.27.13-.46-.02-1.21-.36-1.31-.44-.62-.14-.52-.02M541.26,647.42l1.37,1.01,1.47.63,1.45.68.66.48.56.61.7,1.5.4,1.52.45,1.44.72,1.3M549.05,656.59l1.34,1.14,1.45.76,1.42.8.64.54.51.66.58,1.51.29,1.5.34,1.45.65,1.35M597.76,807.78l.38-.22M658.99,830.48l-.34.12h0M658.64,830.6l-1.62-.21-1.19-.23-1,.04M556.23,666.33l3.7,5.5,3.46,5.63,2.5,4.37,2.04,3.8,1.95,3.83,1.84,3.84,1.93,4.33,2.29,5.6,2.49,6.88,2.47,8.14M592.37,810.63l3.09,2.95,3.78,3.37,2.64,2.24,2.24,1.84,2.1,1.66,2.83,2.16,3.92,2.86,3.49,2.43,2.79,1.87,2.33,1.5,2.8,1.75,3.39,2.02,3.51,1.96,4.28,2.22,3.73,1.76,3.41,1.47,3.52,1.37,4.77,1.6,4.54,1.24,3.81.82,3.09.51,1.11.13M635.49,831.08l-1.78-.39-2.51-.74-1.35-.48-1.02-.4-.4-.11v.02M606.05,709.46l.81,5.2.56,5.41.24,4.32.05,3.3-.04,2.55-.16,3.17-.38,3.94-.72,4.59-1.22,5.09-1.89,5.4M603.82,698.96l.76,1.57,1.05,1.36.98,1.33.35.71.17.72-.17,1.33-.45,1.15-.39,1.12-.04,1.21M642.5,761.09v1.1s.39,1.13.39,1.13l.39,1.09.08.52-.08.47M600.64,688.19l.87,1.55,1.14,1.32,1.09,1.31.41.71.25.74-.04,1.42-.34,1.26-.26,1.21.06,1.26M590.71,664.69l.2.4.72,1.44M595.47,661.07l-4.36,2.52M596.56,677.34l.98,1.52,1.23,1.25,1.17,1.25.47.69.31.75.08,1.48-.21,1.34-.14,1.28.18,1.3M643.28,759.77l-.48.63-.3.69M644.28,753.07l.16,1.28.55,1.26.51,1.21.09.58-.13.51M591.63,666.52l1.09,1.47,1.3,1.17,1.26,1.18.52.67.36.74.21,1.52-.08,1.4-.02,1.34.29,1.34M645.14,742.99l-.04,1.29M645.12,751.34l-.55.83-.3.9M645.17,744.56l.27,1.15.74,1.35.65,1.31.09.63-.16.55M647.59,741.52l-2.41,1.39M612.34,794.15l2.94.81,4.87,1.31,3.5.92,2.67.68,2.74.67,2.81.67,2.86.65,2.88.62,11.55,2.13,3.22.47,4.43.55,3.66.37,3.05.21M626.35,783.67l-1.13.68-.49.24M636.7,764.33l4.85-.91,1.26-.31M568.69,772.44l.27-.16M553.31,745.16l-.27.16M468.48,610.25l3.63-2.1M456.31,580.79l-3.62,2.09M468.48,830.47l3.63-2.1M456.31,801.01l-3.63,2.1M659.19,940.57l3.62-2.09M647.03,911.11l-3.63,2.1M659.19,720.34l3.63-2.1M647.03,690.88l-3.63,2.1" style="fill: none; stroke: #040000; stroke-miterlimit: 10;"/>
  </g>
</svg>