<?xml version="1.0" encoding="UTF-8"?>
<svg id="_圖層_1" data-name="圖層 1" xmlns="http://www.w3.org/2000/svg" xmlns:xlink="http://www.w3.org/1999/xlink" viewBox="0 0 1170 2182.68">
  <defs>
    <clipPath id="clippath">
      <rect y="-174.66" width="1170" height="2532" style="fill: none;"/>
    </clipPath>
  </defs>
  <g style="clip-path: url(#clippath);">
    <text transform="translate(140 188.5)" style="fill: #040000; font-family: MusticaPro-Light, &apos;Mustica Pro&apos;; font-size: 56px; font-weight: 300;"><tspan x="0" y="0">Cable de extensión para ventila-</tspan></text>
    <text transform="translate(140 248.48)" style="fill: #040000; font-family: MusticaPro-Light, &apos;Mustica Pro&apos;; font-size: 56px; font-weight: 300;"><tspan x="0" y="0">dor con funda</tspan></text>
    <text transform="translate(140 368.48)" style="fill: #040000; font-family: MusticaPro-Light, &apos;Mustica Pro&apos;; font-size: 56px; font-weight: 300;"><tspan x="0" y="0">Cabo de extensão para ven-</tspan></text>
    <text transform="translate(140 428.46)" style="fill: #040000; font-family: MusticaPro-Light, &apos;Mustica Pro&apos;; font-size: 56px; font-weight: 300;"><tspan x="0" y="0">toinha com sleeve</tspan></text>
    <text transform="translate(140 548.47)" style="fill: #040000; font-family: MusticaPro-Light, &apos;Mustica Pro&apos;; font-size: 56px; font-weight: 300;"><tspan x="0" y="0">Tuulettimen jatkokaapeli suoja-</tspan></text>
    <text transform="translate(140 608.44)" style="fill: #040000; font-family: MusticaPro-Light, &apos;Mustica Pro&apos;; font-size: 56px; font-weight: 300;"><tspan x="0" y="0">punoksella</tspan></text>
    <text transform="translate(140 728.45)" style="fill: #040000; font-family: MusticaPro-Light, &apos;Mustica Pro&apos;; font-size: 56px; font-weight: 300;"><tspan x="0" y="0">Fläktförlängningskabel med ka-</tspan></text>
    <text transform="translate(140 788.43)" style="fill: #040000; font-family: MusticaPro-Light, &apos;Mustica Pro&apos;; font-size: 56px; font-weight: 300;"><tspan x="0" y="0">belstrumpa</tspan></text>
    <text transform="translate(140 908.43)" style="fill: #040000; font-family: MusticaPro-Light, &apos;Mustica Pro&apos;; font-size: 56px; font-weight: 300;"><tspan x="0" y="0">Ventilator forlængerledning med </tspan></text>
    <text transform="translate(140 968.41)" style="fill: #040000; font-family: MusticaPro-Light, &apos;Mustica Pro&apos;; font-size: 56px; font-weight: 300;"><tspan x="0" y="0">kabelstrømpe</tspan></text>
    <text transform="translate(140 1088.42)" style="fill: #040000; font-family: MusticaPro-Light, &apos;Mustica Pro&apos;; font-size: 56px; font-weight: 300;"><tspan x="0" y="0">Подовжувальний кабель для </tspan></text>
    <text transform="translate(140 1148.39)" style="fill: #040000; font-family: MusticaPro-Light, &apos;Mustica Pro&apos;; font-size: 56px; font-weight: 300;"><tspan x="0" y="0">вентилятора з опліткою</tspan></text>
    <text transform="translate(140 1268.4)" style="fill: #040000; font-family: MusticaPro-Light, &apos;Mustica Pro&apos;; font-size: 56px; font-weight: 300;"><tspan x="0" y="0">Ventilátor hosszabbító kábel </tspan></text>
    <text transform="translate(140 1328.38)" style="fill: #040000; font-family: MusticaPro-Light, &apos;Mustica Pro&apos;; font-size: 56px; font-weight: 300;"><tspan x="0" y="0">köpenyben</tspan></text>
    <text transform="translate(140 1448.39)" style="fill: #040000; font-family: MusticaPro-Light, &apos;Mustica Pro&apos;; font-size: 56px; font-weight: 300;"><tspan x="0" y="0">Przewód przedłużający do wen-</tspan></text>
    <text transform="translate(140 1508.36)" style="fill: #040000; font-family: MusticaPro-Light, &apos;Mustica Pro&apos;; font-size: 56px; font-weight: 300;"><tspan x="0" y="0">tylatora w oplocie</tspan></text>
    <text transform="translate(140 1628.37)" style="fill: #040000; font-family: MusticaPro-Light, &apos;Mustica Pro&apos;; font-size: 56px; font-weight: 300;"><tspan x="0" y="0">Kılıﬂı fan uzatma kablosu</tspan></text>
    <text transform="translate(140 1748.38)" style="fill: #040000; font-family: MusticaPro-Light, &apos;Mustica Pro&apos;; font-size: 56px; font-weight: 300;"><tspan x="0" y="0">Cabo de extensão para ven-</tspan></text>
    <text transform="translate(140 1808.35)" style="fill: #040000; font-family: MusticaPro-Light, &apos;Mustica Pro&apos;; font-size: 56px; font-weight: 300;"><tspan x="0" y="0">toinha com sleeve</tspan></text>
    <path d="M184.84,1894.29c-.51.38-.93.73-1.27,1.04-.34.31-.63.61-.88.89-.25.28-.46.57-.64.86-.18.29-.38.62-.6.98-.58,1.02-1.1,1.94-1.56,2.75-.46.81-.94,1.64-1.45,2.47-.51.84-1.09,1.75-1.74,2.73-.65.98-1.44,2.17-2.39,3.55.89.71,1.92,1.54,3.08,2.5,1.16.96,2.44,2.09,3.86,3.4,1.41,1.31,2.95,2.82,4.62,4.53,1.67,1.7,3.47,3.67,5.4,5.89-.36.31-.7.59-1.01.85-.31.26-.61.5-.89.74-.28.24-.56.48-.82.72-.26.25-.53.51-.81.81-1.71-2.24-3.31-4.2-4.8-5.88-1.49-1.68-2.88-3.15-4.2-4.43-1.31-1.28-2.57-2.4-3.76-3.38-1.19-.97-2.37-1.89-3.51-2.75-2.3,2.37-4.45,4.44-6.45,6.22-2.01,1.78-3.94,3.35-5.8,4.72s-3.68,2.58-5.46,3.64c-1.78,1.06-3.6,2.05-5.46,2.98-.58-.47-1.16-.96-1.72-1.45-.57-.49-1.14-.97-1.72-1.42,4.05-2.22,7.8-4.49,11.25-6.79,3.45-2.31,6.56-4.73,9.31-7.27,2.75-2.54,5.12-5.24,7.1-8.08,1.98-2.84,3.5-5.91,4.58-9.19h-15.09c-1.57,0-3.14.06-4.73.19-1.59.13-3.04.21-4.38.25v-4.73c.31.02.77.04,1.39.05.62.02,1.32.05,2.11.08.78.04,1.61.07,2.47.11.87.04,1.7.07,2.49.11.79.04,1.51.06,2.15.08.64.02,1.12.03,1.45.03h9.79c.77,0,1.61-.1,2.54-.31.93-.21,1.81-.52,2.65-.94l.6.44c.31.22.79.56,1.45,1.03s1.6,1.13,2.84,1.98ZM215.5,1905.17c0,1.9.07,3.71.22,5.43.15,1.72.22,3.44.22,5.15h-4.68c.04-1.06.07-2,.1-2.82s.05-1.56.05-2.21c0-.66.02-1.26.03-1.82,0-.56.01-1.11.01-1.65v-12.71c0-.88-.01-1.92-.04-3.13-.03-1.21-.08-2.61-.15-4.2l4.79.22c-.09.27-.17.72-.23,1.34-.06.62-.12,1.27-.16,1.94-.05.67-.08,1.3-.11,1.89-.03.58-.04.96-.04,1.12v11.46ZM235.54,1900.01c0,2.7-.07,5.21-.21,7.55-.14,2.33-.38,4.53-.74,6.58s-.84,4-1.45,5.84c-.61,1.84-1.39,3.61-2.34,5.32-.95,1.7-2.09,3.38-3.42,5.02-1.33,1.64-2.89,3.29-4.68,4.95-.69-.4-1.39-.79-2.09-1.18-.7-.38-1.42-.74-2.15-1.07,2.3-1.71,4.27-3.54,5.91-5.47,1.64-1.93,2.98-4.03,4.03-6.29,1.05-2.26,1.82-4.72,2.32-7.37.5-2.65.75-5.55.75-8.71v-13.18c0-.29,0-.62-.03-.97-.02-.36-.04-.79-.07-1.3-.03-.51-.07-1.12-.12-1.82-.05-.7-.12-1.54-.19-2.5l5.22.49c-.11.36-.21.74-.31,1.13-.1.39-.18.77-.25,1.13-.06.36-.11.69-.15.98-.04.29-.05.51-.05.66v10.2ZM262.67,1907.25c1.28.27,3.12.4,5.52.38h13.1c3.48,0,7.87-.2,13.15-.6.55-.04,1.4-.15,2.57-.33,1.44-.26,2.72-.38,3.83-.38,1.24,0,2.24.16,3.01.49,1.18.42,1.77.99,1.75,1.72,0,.46-.3.83-.9,1.12-1.35.57-2.65.85-3.91.85h-1.75c-1.29,0-3.25-.1-5.88-.3-2.64-.22-4.62-.33-5.93-.33h-16.62c-3.85,0-6.98.58-9.41,1.75-.47.02-.83-.14-1.07-.46-.58-.73-1.35-2-2.3-3.8-.26-.46-.44-.79-.55-1.01-.05-.09-.13-.22-.22-.38-.33-.51-.48-.96-.46-1.34.02-.02.05-.04.11-.05.24-.13.43-.19.57-.19.27.11.66.39,1.15.85.26.22.45.37.57.46,1.02.73,2.24,1.25,3.66,1.56h0ZM336.74,1892.41c1.17,0,2.17-.01,3.02-.04s1.61-.08,2.3-.16,1.31-.19,1.87-.33c.56-.14,1.15-.3,1.75-.51l5.17,3.28c-.07.18-.21.39-.41.63-.2.24-.43.52-.68.83-.26.32-.52.69-.79,1.12-.27.43-.52.92-.74,1.46-1.57,4.03-3.44,7.67-5.62,10.91-2.18,3.24-4.61,6.19-7.29,8.83-2.68,2.64-5.58,5.03-8.7,7.16s-6.41,4.11-9.87,5.93l-3.96-3.04c7.66-3.5,14.14-7.91,19.44-13.22,5.3-5.31,9.42-11.66,12.36-19.04h-24.8c-2.21,0-5.31.05-9.32.16v-4.18c1.39.04,2.62.07,3.72.1s2.09.05,2.98.05c.89,0,1.71.02,2.46.03.75,0,1.49.01,2.21.01h14.9ZM350.63,1886.03c.98.77,1.99,1.66,3.02,2.68,1.03,1.02,1.95,2.05,2.75,3.09-.42.35-.85.69-1.3,1.04-.45.35-.87.68-1.27,1.01-.97-1.31-1.94-2.49-2.91-3.53-.98-1.04-1.85-1.82-2.61-2.35l2.32-1.94ZM355.88,1881.77c.98.77,1.99,1.66,3.02,2.68,1.03,1.02,1.95,2.05,2.75,3.09-.42.35-.85.69-1.3,1.04-.45.35-.87.68-1.27,1.01-.97-1.31-1.94-2.49-2.91-3.53-.98-1.04-1.85-1.82-2.61-2.35l2.32-1.94ZM373.41,1901.81c-2.19,3.81-4.39,7.16-6.62,10.04-.4-1.33-.83-2.54-1.29-3.64,5.58-7.42,9.93-15.95,13.04-25.59l3.25.9c-1.53,4.14-3.32,8.33-5.36,12.58v39.05h-3.04v-33.33h0ZM381.31,1895.82h25.18v-12.93h3.09v12.93h7.96v2.93h-7.96v27.95c.2,5.1-2.32,7.64-7.55,7.6-2.42.07-4.95.11-7.57.11-.18-1.26-.43-2.4-.74-3.42,2.93.15,5.44.22,7.52.22,3.66.13,5.41-1.44,5.25-4.7v-27.75h-25.18v-2.93ZM394.63,1920.41c-4.17-5.56-7.79-10.09-10.86-13.59l2.46-1.86c3.35,3.83,7.05,8.29,11.1,13.37l-2.71,2.08h0ZM458.64,1891.78c-.91.55-2.05,1.09-3.4,1.64-1.36.55-2.94,1.08-4.74,1.61.67,1.22,1.23,2.22,1.67,3.01.44.78.81,1.45,1.11,1.98.3.54.56,1,.78,1.38s.45.78.68,1.2c1.68-.42,3.26-.9,4.74-1.44,1.49-.54,2.91-1.11,4.28-1.71.29.62.56,1.16.81,1.61.25.46.51.96.78,1.5-.46.26-.99.53-1.61.82-.62.29-1.29.58-2.02.86-.73.28-1.49.57-2.3.86-.8.29-1.61.57-2.43.82.49.84,1.07,1.75,1.74,2.73.67.98,1.39,2.01,2.17,3.09.78,1.08,1.6,2.17,2.46,3.28.86,1.11,1.74,2.21,2.65,3.28-.78.47-1.54.95-2.28,1.44-.74.48-1.51.98-2.31,1.49-1.99-.98-4.08-1.73-6.29-2.23-2.21-.5-4.56-.75-7.05-.75-.73,0-1.54.02-2.42.07-.88.05-1.77.14-2.65.29-.88.15-1.75.35-2.58.62-.84.26-1.58.62-2.21,1.07-.64.45-1.15.99-1.54,1.64-.39.65-.59,1.42-.59,2.31,0,.82.26,1.6.78,2.32.52.73,1.26,1.37,2.23,1.91.97.55,2.15.97,3.55,1.29,1.4.31,2.99.46,4.76.46,1.24,0,2.35-.04,3.32-.11.97-.07,1.95-.2,2.91-.38l-.36,4.29c-.22,0-.48,0-.79.01-.31,0-.63.02-.97.03-.34,0-.66.01-.97.01h-.77c-2.55,0-4.9-.17-7.05-.52-2.15-.35-4.01-.9-5.58-1.67-1.57-.77-2.79-1.76-3.68-2.98-.88-1.22-1.33-2.71-1.33-4.46,0-1.39.26-2.58.77-3.58.51-1,1.18-1.85,2-2.56.82-.7,1.75-1.26,2.79-1.68,1.04-.42,2.08-.75,3.13-.98,1.05-.24,2.06-.4,3.02-.48.97-.08,1.79-.12,2.46-.12,1.22,0,2.38.02,3.49.07,1.1.05,2.18.11,3.24.21,1.06.09,2.11.2,3.14.33,1.04.13,2.1.28,3.17.46-.58-.82-1.18-1.64-1.78-2.45-.6-.81-1.18-1.6-1.72-2.38-.55-.77-1.06-1.52-1.54-2.23-.48-.71-.9-1.36-1.24-1.94-.82.16-1.86.33-3.12.51-1.26.17-2.66.34-4.21.49-1.55.16-3.21.29-4.98.4-1.77.11-3.56.17-5.39.19-.09-.33-.18-.62-.27-.89-.09-.26-.2-.52-.31-.77-.12-.25-.26-.51-.44-.78-.17-.27-.4-.59-.67-.96,1.53,0,3.02-.04,4.46-.11,1.44-.07,2.87-.19,4.29-.34,1.42-.15,2.86-.34,4.31-.56s2.94-.47,4.47-.77c-.26-.46-.57-1.03-.93-1.72-.36-.69-.73-1.4-1.11-2.13-.37-.73-.73-1.42-1.07-2.06-.34-.65-.62-1.15-.83-1.52-1.97.47-3.77.83-5.4,1.08-1.63.25-3.21.37-4.74.37l-1.89-3.17c2.22-.04,4.18-.22,5.88-.55s3.12-.67,4.27-1.01c-.55-1.11-1.03-2.09-1.46-2.93-.43-.84-.81-1.59-1.15-2.24-.34-.66-.65-1.23-.93-1.71-.28-.48-.54-.93-.78-1.33l5.58-1.01c.24,2.06,1.03,4.78,2.38,8.15,3.06-.98,5.66-2.04,7.79-3.17l1.86,3.17ZM510.21,1892.41c1.17,0,2.17-.01,3.02-.04s1.61-.08,2.3-.16,1.31-.19,1.87-.33c.56-.14,1.15-.3,1.75-.51l5.17,3.28c-.07.18-.21.39-.41.63-.2.24-.43.52-.68.83-.26.32-.52.69-.79,1.12-.27.43-.52.92-.74,1.46-1.57,4.03-3.44,7.67-5.62,10.91-2.18,3.24-4.61,6.19-7.29,8.83-2.68,2.64-5.58,5.03-8.7,7.16s-6.41,4.11-9.87,5.93l-3.96-3.04c7.66-3.5,14.14-7.91,19.44-13.22,5.3-5.31,9.42-11.66,12.36-19.04h-24.8c-2.21,0-5.31.05-9.32.16v-4.18c1.39.04,2.62.07,3.72.1s2.09.05,2.98.05c.89,0,1.71.02,2.46.03.75,0,1.49.01,2.21.01h14.9ZM540.72,1891.91c.27.02.71.05,1.31.08.6.04,1.23.08,1.9.12.67.05,1.29.08,1.87.11.58.03,1,.04,1.26.04h25.46l1.67-1.01,4.38,3.45c-1.26,1.46-2.57,2.86-3.92,4.2-1.36,1.34-2.67,2.59-3.94,3.75-1.27,1.16-2.46,2.21-3.57,3.14-1.11.94-2.06,1.73-2.84,2.37-.42-.31-.88-.62-1.37-.94-.49-.32-1.04-.64-1.64-.97.89-.64,1.84-1.34,2.84-2.09,1-.76,2-1.57,2.98-2.45s1.94-1.81,2.87-2.82c.93-1,1.78-2.06,2.54-3.17h-27.51c-.51,0-1.13,0-1.86.03-.73.02-1.54.05-2.43.08v-3.91ZM543.65,1923.66c8.26-4.79,12.66-12.34,13.21-22.64l4.48.57c-.16.2-.31.47-.42.82-.12.35-.22.74-.31,1.19-.09.45-.19.92-.29,1.42-.1.5-.21,1-.31,1.49-.49,2.04-1.06,3.95-1.71,5.73-.65,1.78-1.38,3.35-2.2,4.72-1.04,1.71-2.21,3.32-3.53,4.83s-2.74,2.88-4.29,4.14c-.33-.22-.69-.42-1.08-.62-.39-.19-.79-.38-1.2-.57s-.82-.38-1.23-.56c-.41-.18-.78-.36-1.11-.52ZM637.44,1902.39c-1.95,1.97-4.16,3.91-6.63,5.82-2.47,1.91-5.21,3.85-8.22,5.8-3.01,1.95-6.29,3.94-9.84,5.97-3.55,2.03-7.37,4.15-11.46,6.36-.55.26-1.02.48-1.42.68-.4.2-.75.39-1.04.57-.29.18-.54.35-.74.51-.2.16-.38.31-.55.48-.57-.82-1.08-1.63-1.54-2.43-.46-.8-.98-1.74-1.54-2.82,3.92-1.15,7.68-2.53,11.28-4.16,3.6-1.62,7.1-3.49,10.5-5.61,3.4-2.11,6.74-4.47,10.01-7.08,3.27-2.61,6.55-5.46,9.83-8.56l1.37,4.46ZM598.77,1890.52c1.46,1.15,2.94,2.39,4.44,3.73s3.08,2.81,4.72,4.42l-2.76,2.79c-1.37-1.46-2.82-2.9-4.35-4.33-1.53-1.43-3.13-2.85-4.79-4.25l2.73-2.35ZM694.61,1933.07c-8,.02-14.27-.05-18.81-.22-8.95-.31-15.63-2.46-20.04-6.45-1.88,2.59-4.57,5.49-8.07,8.7-.46-.62-1.17-1.42-2.13-2.41,3.72-3.21,6.41-6.03,8.07-8.48-2.66-3.06-4.98-7.36-6.95-12.88l2.71-1.07c1.75,4.81,3.71,8.59,5.88,11.32,2.08-3.55,3.45-8.5,4.13-14.85h-12.71v-3.01l12.77-13.89h-12.93v-2.73h16.19v3.12l-12.61,13.78h12.33v2.98c-.91,7.18-2.6,12.82-5.06,16.9,3.72,3.76,10,5.79,18.84,6.1,2.73.13,5.93.19,9.6.19s7.84-.06,12.47-.19c-.58,1.37-.92,2.4-1.01,3.09h-2.65ZM669.21,1897.96h2.95v21.11h8.91v-29.97c-4.5.31-9.08.57-13.73.79-.15-1.04-.37-1.99-.68-2.84,10.5-.47,20.12-1.11,28.85-1.91l.68,2.79c-1.95.2-5.42.47-10.42.82-.77.05-1.35.1-1.75.14v12.77h11.7v2.73h-11.7v14.68h12.66v2.73h-27.48v-23.84ZM702.13,1910.56h8.83v-25.59h37.98v2.57h-35v5.99h33.2v2.52h-33.2v5.99h33.44v2.54h-33.44v5.99h40.25v2.62h-28.66c1.95,3.72,4.3,6.78,7.05,9.19,5.12-2.3,10.29-4.8,15.5-7.52l1.86,2.49c-2.59,1.24-7.07,3.29-13.45,6.15-.69.31-1.21.55-1.56.71,4.41,3.28,10.86,5.75,19.33,7.41-.78,1.06-1.46,2.12-2.02,3.2-15.31-3.76-25.27-10.96-29.86-21.63h-9.41v17.8c2.15-.78,5.72-2.03,10.72-3.75,1.6-.56,2.83-.99,3.66-1.29,0,1.48.03,2.54.08,3.2-5.83,1.77-10.71,3.43-14.63,4.98-.71.31-1.46.74-2.24,1.29l-2.02-2.41c1.02-.82,1.51-1.79,1.48-2.9v-16.93h-7.9v-2.62ZM759.91,1911c2.37-1.97,4.49-3.95,6.37-5.95,1.88-2,3.53-4.05,4.95-6.15s2.63-4.3,3.62-6.59c.99-2.29,1.81-4.71,2.45-7.26l5.66,1.83c-.66.93-1.25,1.87-1.79,2.82-.54.95-1.05,1.9-1.53,2.86-.48.96-.95,1.92-1.39,2.9-.45.98-.92,1.96-1.41,2.94h18.02c.38,0,.91,0,1.59-.03.67-.02,1.43-.04,2.26-.07.83-.03,1.7-.06,2.62-.1.92-.04,1.82-.07,2.71-.11.88-.04,1.72-.07,2.5-.1.78-.03,1.46-.05,2.02-.07v4.51c-1.33-.04-2.51-.07-3.54-.1-1.03-.03-1.97-.05-2.83-.07-.86-.02-1.65-.03-2.38-.04-.73,0-1.46-.01-2.19-.01h-3.12c-.55,3.48-1.25,6.65-2.12,9.5-.87,2.85-1.98,5.51-3.35,7.96-1.37,2.45-3.02,4.74-4.96,6.88s-4.25,4.21-6.93,6.23c-.71-.38-1.44-.77-2.17-1.15s-1.48-.76-2.23-1.12c1.97-1.42,3.71-2.78,5.22-4.09,1.51-1.3,2.84-2.62,3.98-3.95,1.14-1.33,2.12-2.7,2.95-4.1.83-1.4,1.55-2.92,2.16-4.54.61-1.62,1.13-3.39,1.57-5.29.44-1.9.85-4.01,1.23-6.33h-15.64c-1.55,2.06-3.23,4.03-5.04,5.92-1.81,1.89-3.79,3.79-5.92,5.7-.57-.53-1.13-1.03-1.7-1.5-.57-.47-1.11-.92-1.64-1.34ZM822.67,1907.25c1.28.27,3.12.4,5.52.38h13.1c3.48,0,7.87-.2,13.15-.6.55-.04,1.4-.15,2.57-.33,1.44-.26,2.72-.38,3.83-.38,1.24,0,2.24.16,3.01.49,1.18.42,1.77.99,1.75,1.72,0,.46-.3.83-.9,1.12-1.35.57-2.65.85-3.91.85h-1.75c-1.29,0-3.25-.1-5.88-.3-2.64-.22-4.62-.33-5.93-.33h-16.62c-3.85,0-6.98.58-9.41,1.75-.47.02-.83-.14-1.07-.46-.58-.73-1.35-2-2.3-3.8-.26-.46-.44-.79-.55-1.01-.05-.09-.13-.22-.22-.38-.33-.51-.48-.96-.46-1.34.02-.02.05-.04.11-.05.24-.13.43-.19.57-.19.27.11.66.39,1.15.85.26.22.45.37.57.46,1.02.73,2.24,1.25,3.66,1.56h0ZM896.74,1892.41c1.17,0,2.17-.01,3.02-.04s1.61-.08,2.3-.16,1.31-.19,1.87-.33c.56-.14,1.15-.3,1.75-.51l5.17,3.28c-.07.18-.21.39-.41.63-.2.24-.43.52-.68.83-.26.32-.52.69-.79,1.12-.27.43-.52.92-.74,1.46-1.57,4.03-3.44,7.67-5.62,10.91-2.18,3.24-4.61,6.19-7.29,8.83-2.68,2.64-5.58,5.03-8.7,7.16s-6.41,4.11-9.87,5.93l-3.96-3.04c7.66-3.5,14.14-7.91,19.44-13.22,5.3-5.31,9.42-11.66,12.36-19.04h-24.8c-2.21,0-5.31.05-9.32.16v-4.18c1.39.04,2.62.07,3.72.1s2.09.05,2.98.05c.89,0,1.71.02,2.46.03.75,0,1.49.01,2.21.01h14.9ZM910.63,1886.03c.98.77,1.99,1.66,3.02,2.68,1.03,1.02,1.95,2.05,2.75,3.09-.42.35-.85.69-1.3,1.04-.45.35-.87.68-1.27,1.01-.97-1.31-1.94-2.49-2.91-3.53-.98-1.04-1.85-1.82-2.61-2.35l2.32-1.94ZM915.88,1881.77c.98.77,1.99,1.66,3.02,2.68,1.03,1.02,1.95,2.05,2.75,3.09-.42.35-.85.69-1.3,1.04-.45.35-.87.68-1.27,1.01-.97-1.31-1.94-2.49-2.91-3.53-.98-1.04-1.85-1.82-2.61-2.35l2.32-1.94ZM942.73,1900.44c0,2.13-.07,4.07-.21,5.82s-.38,3.39-.74,4.92-.84,2.99-1.45,4.36c-.61,1.38-1.39,2.75-2.34,4.12-.95,1.37-2.09,2.77-3.42,4.21-1.33,1.44-2.89,2.99-4.68,4.65-.35-.2-.66-.43-.93-.68-.27-.26-.54-.51-.81-.78-.26-.26-.54-.51-.82-.75-.28-.24-.61-.44-.97-.6,1.53-1.15,2.9-2.24,4.1-3.27,1.2-1.03,2.26-2.07,3.17-3.12.91-1.05,1.69-2.15,2.32-3.29.64-1.15,1.16-2.41,1.56-3.79.4-1.38.69-2.9.88-4.57.18-1.67.27-3.55.27-5.65v-4.73c0-.29,0-.62-.03-.97-.02-.36-.04-.79-.07-1.3-.03-.51-.07-1.12-.12-1.82-.05-.7-.12-1.54-.19-2.5l5.22.49c-.11.36-.21.74-.31,1.13-.1.39-.18.77-.25,1.13-.06.36-.11.69-.15.98-.04.29-.05.51-.05.66v5.33ZM975.79,1906.65c.22.38.41.71.56.98.15.27.3.53.44.77.14.24.27.47.4.71.13.24.27.51.44.82-1.15,1.19-2.34,2.37-3.58,3.54-1.24,1.18-2.57,2.34-3.98,3.49-1.41,1.15-2.93,2.29-4.54,3.42-1.61,1.13-3.38,2.24-5.29,3.34-.89.51-1.63.98-2.2,1.39-.57.42-1.06.81-1.46,1.18-.4.36-.75.72-1.05,1.07-.3.35-.62.69-.94,1.04-.33-.35-.67-.68-1.03-1.01s-.71-.65-1.05-.96c-.35-.31-.68-.62-1-.92-.32-.3-.59-.59-.81-.86.47-1.71.83-3.3,1.07-4.77.24-1.47.36-2.83.36-4.09v-21.25c0-.44,0-1.01-.03-1.71-.02-.7-.05-1.48-.11-2.34.4.02.83.04,1.29.05.46.02.91.04,1.37.05.46.02.88.04,1.29.07.4.03.75.05,1.04.07-.33.58-.55,1.23-.67,1.94-.12.71-.18,1.3-.18,1.78v26.47c1.53-.55,3.07-1.27,4.61-2.17,1.54-.9,3.12-1.96,4.73-3.19,1.61-1.22,3.28-2.58,4.99-4.07,1.71-1.49,3.5-3.11,5.36-4.84Z" style="fill: #040000;"/>
    <text transform="translate(566.64 2142.34)" style="fill: #221714; font-family: MusticaPro-Medium, &apos;Mustica Pro&apos;; font-size: 40px; font-weight: 500;"><tspan x="0" y="0">16</tspan></text>
  </g>
</svg>