<?xml version="1.0" encoding="UTF-8"?>
<svg id="_圖層_1" data-name="圖層 1" xmlns="http://www.w3.org/2000/svg" xmlns:xlink="http://www.w3.org/1999/xlink" viewBox="0 0 1170 2182.68">
  <defs>
    <clipPath id="clippath">
      <rect y="-174.66" width="1170" height="2532" style="fill: none;"/>
    </clipPath>
  </defs>
  <g style="clip-path: url(#clippath);">
    <path d="M157.75,155.9c-3.41,5.96-7.16,12.18-11.24,18.65,3.65-.33,7.07-.68,10.28-1.07-.13.75-.22,1.63-.27,2.65-5.8.44-10.11.92-12.93,1.45l-1.12-2.68c1.08-.82,2.29-2.3,3.64-4.43,1.39-2.11,2.86-4.57,4.43-7.36-3.57.15-6.33.34-8.29.57l-.96-2.87c.8-.66,1.81-2,3.04-4.02,2.37-3.83,4.78-8.44,7.22-13.84l2.73,1.01c-2.72,5.41-5.91,11.06-9.57,16.93.6-.04,1.8-.09,3.61-.16,1.68-.05,2.9-.1,3.66-.14.6-1.08,1.45-2.67,2.54-4.79.24-.49.42-.86.55-1.09l2.68,1.18h0ZM156.19,185.7c-5.16.71-9.9,1.51-14.22,2.41l-.57-2.87c4.87-.66,9.87-1.42,15.01-2.3-.05.33-.12,1.05-.19,2.16-.02.27-.03.47-.03.6h0ZM174.78,147.94c-.46-1.82-.9-3.55-1.34-5.2l2.79-.57c.6,2.17,1.08,4.09,1.45,5.77h13.78v12.55h-29.18v3.8c.02.75.03,1.57.03,2.46,0,12.25-2.32,21.59-6.97,28.03-.66-.57-1.44-1.13-2.35-1.7,2.66-4.14,4.43-8.18,5.3-12.11.93-3.88,1.39-9.46,1.37-16.73v-16.3h15.12ZM162.29,150.43v7.6h26.55v-7.6h-26.55ZM167.56,194.89h-2.6v-28.25h27.4v22.42c.16,3.55-1.29,5.34-4.38,5.36-1.17.07-2.32.11-3.47.11-.13-.91-.29-1.75-.49-2.52.47.02.9.04,1.29.05h1.39c1.26.02,2.08-.19,2.46-.63.44-.38.65-1.21.63-2.49v-8.12h-5.77v10.69h-2.52v-10.69h-5.71v11.18h-2.52v-11.18h-5.71v14.05ZM167.56,169.19v9.11h5.71v-9.11h-5.71ZM175.79,169.19v9.11h5.71v-9.11h-5.71ZM189.79,169.19h-5.77v9.11h5.77v-9.11ZM216.56,155.9c-4.25,6.44-8.79,12.88-13.62,19.33,4.72-.4,8.59-.74,11.59-1.01-.15,1.13-.22,2.06-.22,2.79-6.49.4-11.35.83-14.57,1.29l-1.18-2.95c1.02-.66,2-1.59,2.93-2.79,2.17-2.73,4.47-5.93,6.89-9.6-4.5.11-7.81.32-9.93.63l-.9-2.87c.69-.51,1.61-1.57,2.76-3.17,2.93-4.12,5.82-9.21,8.67-15.29l3.14,1.18c-3.43,6.07-6.97,11.79-10.64,17.17,3.7-.09,6.55-.18,8.56-.27,1.15-1.73,2.32-3.67,3.53-5.82l2.98,1.39h0ZM197.61,187.89c5.36-.98,11.27-2.12,17.72-3.42,0,1.26.02,2.22.05,2.9-5.69.97-11.33,2.11-16.93,3.42l-.85-2.9ZM213.8,192.7c4.47-4.52,8.58-9.65,12.33-15.39l2.68,1.56c-4.3,6.18-8.49,11.47-12.55,15.86l-2.46-2.02h0ZM219.41,146.33h27.21v26.14h-27.21v-26.14ZM222.39,149.01v20.78h21.27v-20.78h-21.27ZM247.57,193.61c-3.32-4.94-6.92-9.83-10.8-14.68l2.35-1.61c4.06,5.03,7.78,9.81,11.16,14.33l-2.71,1.97h0ZM261.74,148.63v15.67c.04,8.46-.36,14.62-1.18,18.48-.71,3.96-2.32,7.99-4.81,12.11-.55-.64-1.33-1.39-2.35-2.24,2.35-3.92,3.82-7.51,4.4-10.77.69-3.23,1.02-8.73.98-16.52v-19.52h38.96v24.96c-.07,10.45.51,16.7,1.75,18.76.51,1.2,1.11,1.78,1.8,1.72.66-.13,1.11-.85,1.37-2.16.4-2.39.76-5.45,1.07-9.19.75.31,1.7.63,2.87.96-.29,3.32-.65,6.21-1.07,8.67-.55,3.34-2.04,4.96-4.48,4.87-1.79-.16-3.17-1.24-4.16-3.23-.82-1.79-1.37-4.13-1.64-7.03-.31-2.95-.46-7.43-.46-13.43v-22.12h-33.06ZM277.32,171.13c-3.9-5.23-8.01-10.65-12.33-16.24l2.41-1.61c4.01,5.14,7.93,10.24,11.76,15.29,3.3-4.76,6.43-10.12,9.41-16.08l2.71,1.23c-3.08,6.18-6.5,11.95-10.25,17.31,2.24,2.97,5.22,6.98,8.94,12.03,1.39,1.88,2.4,3.25,3.04,4.1l-2.52,1.86c-3.77-5.21-7.55-10.35-11.32-15.42-3.97,5.49-8.64,10.81-14,15.97-.58-.57-1.39-1.28-2.41-2.13,5.91-5.67,10.76-11.1,14.57-16.3h0ZM314.89,147.83h21.22c-.4-.98-1.05-2.4-1.94-4.24-.09-.18-.16-.32-.19-.41l2.98-.93c.82,1.71,1.66,3.57,2.52,5.58h19.14v11.89h-40.82v4.46c.05,8.24-.31,14.26-1.09,18.07-.73,4.01-2.34,8.17-4.84,12.47-.8-.71-1.7-1.37-2.68-1.97,2.37-3.86,3.9-7.58,4.59-11.16.78-3.5,1.16-8.93,1.12-16.3v-17.47ZM317.79,150.54v6.48h37.93v-6.48h-37.93ZM335.1,168.12h-14.44v-2.65h17.25v21.85c.16,4.74-1.95,7.07-6.34,7-1.06.02-2.08.04-3.06.05h-3.25c-.09-.8-.28-1.86-.57-3.17,1.8.15,3.92.22,6.34.22,1.53.02,2.59-.3,3.17-.96.62-.62.92-1.74.9-3.36v-4.87c-5.09,1.6-10.45,3.37-16.08,5.3l-1.04-2.73c7.02-2.02,12.72-3.75,17.12-5.2v-11.48ZM328.89,179.14c-2.57-2.57-4.85-4.71-6.84-6.43l1.86-1.75c2.33,1.91,4.7,3.98,7.11,6.21l-2.13,1.97h0ZM356.32,168.12h-15.29v-2.65h18.1v21.79c.18,4.83-1.9,7.2-6.23,7.11-.8.02-1.7.04-2.68.05h-3.91c-.09-1.04-.26-2.1-.52-3.17,2.37.15,4.5.22,6.4.22,2.9.16,4.27-1.35,4.13-4.54v-5.61c-2.95.95-7.43,2.45-13.43,4.51-.53.18-.92.32-1.18.41l-1.01-2.73c3.9-1.13,9.11-2.77,15.61-4.92v-10.47ZM348.39,178.92c-2.24-2.3-4.5-4.4-6.78-6.32l1.89-1.75c2.57,2.15,4.9,4.2,7,6.15l-2.11,1.91h0ZM414.61,192.98c-8,.02-14.27-.05-18.81-.22-8.95-.31-15.63-2.46-20.04-6.45-1.88,2.59-4.57,5.49-8.07,8.7-.46-.62-1.17-1.42-2.13-2.41,3.72-3.21,6.41-6.03,8.07-8.48-2.66-3.06-4.98-7.36-6.95-12.88l2.71-1.07c1.75,4.81,3.71,8.59,5.88,11.32,2.08-3.55,3.45-8.5,4.13-14.85h-12.71v-3.01l12.77-13.89h-12.93v-2.73h16.19v3.12l-12.61,13.78h12.33v2.98c-.91,7.18-2.6,12.82-5.06,16.9,3.72,3.76,10,5.79,18.84,6.1,2.73.13,5.93.19,9.6.19s7.84-.06,12.47-.19c-.58,1.37-.92,2.4-1.01,3.09h-2.65ZM389.21,157.87h2.95v21.11h8.91v-29.97c-4.5.31-9.08.57-13.73.79-.15-1.04-.37-1.99-.68-2.84,10.5-.47,20.12-1.11,28.85-1.91l.68,2.79c-1.95.2-5.42.47-10.42.82-.77.05-1.35.1-1.75.14v12.77h11.7v2.73h-11.7v14.68h12.66v2.73h-27.48v-23.84ZM422.02,165.36h9.79v-22.94h3.09v22.94h38.69v2.93h-24.31c4.36,10.21,12.62,17.35,24.8,21.44-.82,1.04-1.57,2.09-2.24,3.14-12.74-5.21-21.29-13.41-25.65-24.58h-11.29v21.6c5.51-2.61,9.94-4.68,13.32-6.21,0,.86,0,1.49.03,1.89.02.47.05.97.08,1.48-3.92,1.6-7.95,3.44-12.09,5.5-1.42.67-2.69,1.4-3.8,2.19l-2.13-2.6c1.04-1.04,1.54-2.36,1.5-3.96v-19.88h-9.79v-2.93ZM468.89,147.5c-8.17,4.79-17.37,9.18-27.62,13.15-.44-.91-.96-1.84-1.56-2.79,10.3-3.61,19.37-7.88,27.21-12.82l1.97,2.46h0ZM495.88,155.24c-4.27,6.98-8.65,13.61-13.15,19.88,3.28-.35,7.22-.68,11.81-1.01-.22,1-.36,1.9-.44,2.68-6.11.46-11,.96-14.68,1.5l-1.12-2.9c.89-.55,1.86-1.49,2.9-2.84,1.84-2.35,4.06-5.57,6.67-9.65-3.72.05-6.85.21-9.41.46l-1.23-2.82c.82-.71,1.59-1.59,2.3-2.62,3.01-4.28,5.94-9.45,8.8-15.5l2.95,1.18c-4.48,7.93-7.9,13.56-10.25,16.9.55-.02,1.5-.05,2.87-.08,2.52-.07,4.37-.12,5.55-.14,1.46-2.48,2.65-4.57,3.58-6.26l2.84,1.23h0ZM477.72,187.32c4.45-.58,10.43-1.57,17.94-2.95-.13,1.46-.16,2.44-.11,2.95-4.52.78-10.2,1.81-17.04,3.09l-.79-3.09ZM496.32,169.46l11.16-1.64c-.51-3.65-.87-6.76-1.07-9.35l-8.97,1.07-.44-2.62,9.24-1.07c-.26-3.85-.43-8.3-.52-13.37h3.04c.05,4.43.2,8.78.44,13.04l19.33-2.3.33,2.62-19.47,2.3c.22,3.41.55,6.51.98,9.3l19.55-2.84.36,2.68-19.44,2.79c.6,3.45,1.37,6.49,2.3,9.13.11.35.27.83.49,1.45.07.2.13.36.16.46,3.63-2.72,7.2-5.99,10.72-9.82l2.3,1.8c-4.14,4.38-8.1,7.94-11.89,10.69,2.46,5.25,5.19,7.88,8.18,7.9,1.6.07,2.69-1.08,3.25-3.47.55-2.17,1.07-4.69,1.56-7.57.8.44,1.7.81,2.71,1.12-.44,2.95-.98,5.61-1.64,7.96-.88,3.3-2.8,4.95-5.77,4.95-4.23-.05-7.81-3.1-10.75-9.13-4.67,3.04-10.14,5.84-16.41,8.39-.66-1.15-1.27-2.04-1.83-2.68,7.31-2.81,13-5.61,17.06-8.42-.29-.69-.55-1.44-.77-2.24-.98-2.88-1.85-6.23-2.6-10.06l-11.13,1.56-.46-2.62ZM521.75,151.82c-2.61-2.3-5.2-4.43-7.77-6.4l1.78-1.89c2.68,1.88,5.35,3.93,8.01,6.15l-2.02,2.13h0Z" style="fill: #040000;"/>
    <path d="M141.34,311.54c.95-3.96,1.75-7.95,2.41-11.98l2.46.38c-.4,3.08-1.17,7.16-2.3,12.25l-2.57-.66ZM158.87,273.66c-4.69,7.35-9.11,13.75-13.26,19.22.64-.05,1.87-.15,3.69-.3,2.61-.2,4.48-.35,5.61-.44-.02-.05-.05-.14-.11-.25-.6-1.4-1.24-2.82-1.91-4.24l2.41-.93c1.42,3.04,2.84,6.25,4.27,9.62l-2.57,1.07c-.13-.31-.32-.8-.57-1.48-.22-.6-.38-1.05-.49-1.34-6.18.44-10.57.85-13.18,1.23l-.88-2.73c2.22-2.26,5.19-6.2,8.89-11.81-3.61.11-6.41.27-8.39.49l-.79-2.73c3.14-3.5,6.37-8.97,9.71-16.41l2.9,1.12c-3.04,5.49-6.09,10.58-9.13,15.29.84-.05,2.43-.13,4.79-.22,1.2-.05,2.08-.09,2.62-.11,1.35-2.21,2.58-4.32,3.69-6.34l2.73,1.29h0ZM149.46,310.63c-.07-2.55-.29-6.24-.66-11.07l2.46-.19c.46,5.41.73,9.1.82,11.05l-2.62.22ZM156.52,306.94c-.69-2.39-1.53-5.04-2.52-7.96l2.3-.68c.56,1.48,1.46,4.09,2.68,7.85l-2.46.79ZM175.68,268.31c-.53-2.28-1.02-4.15-1.48-5.61l2.65-.57c.55,1.8,1.07,3.87,1.56,6.18h13.04v12.2h-26.82v3.8c.04,9.21-.27,15.59-.93,19.14-.55,3.66-1.95,7.46-4.21,11.4-.57-.46-1.35-1.04-2.35-1.75,2.17-3.63,3.51-7.15,4.02-10.58.62-3.37.92-9.44.9-18.21v-16h13.62ZM164.64,270.82v7.16h24.31v-7.16h-24.31ZM169.45,314.95h-2.46v-28.57h25.32v22.39c.18,3.59-1.19,5.4-4.1,5.44-1.06.07-2.16.11-3.31.11-.04-.78-.18-1.66-.44-2.62.49.02.89.04,1.2.05h1.2c1.18.02,1.97-.21,2.35-.68.44-.46.65-1.35.63-2.68v-7.55h-5.28v10.06h-2.46v-10.06h-5.09v10.91h-2.46v-10.91h-5.11v14.11ZM169.45,288.84v9.54h5.11v-9.54h-5.11ZM177.02,288.84v9.54h5.09v-9.54h-5.09ZM189.85,288.84h-5.28v9.54h5.28v-9.54ZM211.67,292.89c-1.02-2.44-1.9-4.42-2.62-5.93l2.3-.96c1.57,3.25,3.15,6.74,4.76,10.47l-2.46,1.07c-.11-.25-.27-.66-.49-1.2-.18-.44-.32-.77-.41-.98-5.76.37-10.25.78-13.48,1.23l-1.07-2.68c.98-.56,1.86-1.38,2.62-2.46,1.51-2.02,3.51-5.03,5.99-9.02-3.68.04-6.52.2-8.5.49l-1.07-2.84c.89-.64,1.77-1.69,2.62-3.14,3.72-6.12,6.35-10.86,7.9-14.22l2.62,1.23c-3.03,5.56-6.22,10.92-9.57,16.08.2,0,.5,0,.9-.03,2.95-.05,5.18-.12,6.67-.19,1.42-2.35,2.83-4.82,4.24-7.41l2.57,1.34c-3.86,6.38-8.06,12.99-12.58,19.82,3.03-.2,6.04-.42,9.05-.66h0ZM200.1,312.82c-.88-.26-1.76-.46-2.65-.63,1.13-4.17,1.99-8.22,2.57-12.14l2.54.33c-.57,3.63-1.39,7.78-2.46,12.44h0ZM206.15,311.59c-.31-4.1-.65-7.82-1.01-11.16l2.35-.27c.53,3.94.94,7.66,1.23,11.16l-2.57.27ZM213.36,309.84c-1-3.26-2.09-6.56-3.25-9.9l2.24-.74c1.11,2.9,2.27,6.17,3.47,9.82l-2.46.82ZM238.33,304.43c-1.13,1.17-2.52,2.47-4.18,3.91-.04-.04-.1-.1-.19-.19-.62-.77-1.12-1.34-1.5-1.72,1.97-1.55,3.75-3.23,5.33-5.03-.66-4.34-1.08-10.2-1.29-17.58h-21.96v-2.52h11.48c1.44-3.24,2.6-5.99,3.47-8.23l2.35.9c-.24.49-.6,1.28-1.09,2.35-.97,2.12-1.74,3.77-2.32,4.98h8.01c-.04-2.44-.06-5.07-.08-7.88-.02-1.37-.03-2.88-.03-4.54v-6.4h2.68c0,5.25,0,9.03.03,11.35.02,2.77.05,5.26.08,7.46h11.07v2.52h-11.02c.22,6.62.54,11.53.96,14.74,2.52-3.32,4.55-6.89,6.1-10.72l2.46,1.07c-2.22,4.96-4.91,9.3-8.07,13.02.11.71.32,1.7.63,2.95,1.04,4.14,2.45,6.36,4.24,6.67.86-.04,1.42-.89,1.7-2.57.31-1.84.61-4.27.9-7.3.66.33,1.48.63,2.46.9-.26,2.72-.61,5.22-1.07,7.52-.64,2.92-1.89,4.4-3.75,4.46-3.19-.04-5.54-2.98-7.05-8.83-.13-.42-.25-.85-.36-1.29h0ZM216.51,268.63h8.45c-.84-1.62-1.76-3.3-2.76-5.03l2.24-1.07c1.06,1.73,2.03,3.46,2.93,5.2l-1.86.9h8.12v2.46h-17.12v-2.46ZM217.55,288.35h14.63v23.41h-14.63v-23.41ZM220.91,279.95c-.93-2.08-1.88-3.98-2.84-5.71l2.13-1.01c.69,1.13,1.66,3.02,2.9,5.66l-2.19,1.07h0ZM220.2,290.81v8.07h9.35v-8.07h-9.35ZM220.2,309.29h9.35v-8.01h-9.35v8.01ZM246.45,276.59c-1.55-3.13-3.04-5.93-4.48-8.39l2.24-1.07c1.59,2.62,3.1,5.37,4.54,8.23l-2.3,1.23h0ZM261.24,268.47v17.69c.02,7.6-.36,13.28-1.12,17.04-.69,3.79-2.19,7.71-4.48,11.76-.53-.55-1.33-1.22-2.41-2.02,2.08-3.34,3.45-6.84,4.13-10.53.75-3.68,1.11-9.13,1.09-16.35v-20.21h39.57v25.02c-.02,9.7.53,15.9,1.64,18.59.51,1.46,1.14,2.21,1.89,2.24.78.07,1.31-.9,1.59-2.93.36-2.33.65-5.19.85-8.56.88.33,1.77.61,2.68.85-.27,3.63-.61,6.52-1.01,8.67-.6,3.46-1.97,5.19-4.1,5.17-2.01-.09-3.51-1.46-4.51-4.1-1.28-2.9-1.88-9.56-1.8-19.99v-22.34h-33.99ZM266.63,283.32h10.28v-6.56c-2.28.13-5.51.26-9.71.38-.77.02-1.33.04-1.7.05-.18-1.13-.36-2-.52-2.62,7.98-.15,16.41-.54,25.27-1.18l.55,2.62c-3.81.26-7.54.46-11.18.63v6.67h10.28v14.22h-10.28v7.96c.84-.07,2.07-.18,3.69-.33,1.73-.16,3-.28,3.8-.36-.15-.44-.39-1.09-.74-1.97-.36-.98-.64-1.73-.82-2.24l2.62-.77c1.6,4.05,3.06,7.98,4.38,11.81l-2.82.96c-.31-1-.77-2.42-1.37-4.27-.16-.44-.28-.77-.36-1.01-.47.04-1.19.1-2.13.19-11.74,1.08-18.9,1.8-21.49,2.16l-.57-2.9c1.4-.09,4.01-.29,7.82-.6,2.31-.18,4.07-.32,5.28-.41v-8.23h-10.28v-14.22ZM269.25,285.83v9.19h7.66v-9.19h-7.66ZM287.27,285.83h-7.66v9.19h7.66v-9.19ZM314.89,267.84h21.22c-.4-.98-1.05-2.4-1.94-4.24-.09-.18-.16-.32-.19-.41l2.98-.93c.82,1.71,1.66,3.57,2.52,5.58h19.14v11.89h-40.82v4.46c.05,8.24-.31,14.26-1.09,18.07-.73,4.01-2.34,8.17-4.84,12.47-.8-.71-1.7-1.37-2.68-1.97,2.37-3.86,3.9-7.58,4.59-11.16.78-3.5,1.16-8.93,1.12-16.3v-17.47ZM317.79,270.55v6.48h37.93v-6.48h-37.93ZM335.1,288.13h-14.44v-2.65h17.25v21.85c.16,4.74-1.95,7.07-6.34,7-1.06.02-2.08.04-3.06.05h-3.25c-.09-.8-.28-1.86-.57-3.17,1.8.15,3.92.22,6.34.22,1.53.02,2.59-.3,3.17-.96.62-.62.92-1.74.9-3.36v-4.87c-5.09,1.6-10.45,3.37-16.08,5.3l-1.04-2.73c7.02-2.02,12.72-3.75,17.12-5.2v-11.48ZM328.89,299.15c-2.57-2.57-4.85-4.71-6.84-6.43l1.86-1.75c2.33,1.91,4.7,3.98,7.11,6.21l-2.13,1.97h0ZM356.32,288.13h-15.29v-2.65h18.1v21.79c.18,4.83-1.9,7.2-6.23,7.11-.8.02-1.7.04-2.68.05h-3.91c-.09-1.04-.26-2.1-.52-3.17,2.37.15,4.5.22,6.4.22,2.9.16,4.27-1.35,4.13-4.54v-5.61c-2.95.95-7.43,2.45-13.43,4.51-.53.18-.92.32-1.18.41l-1.01-2.73c3.9-1.13,9.11-2.77,15.61-4.92v-10.47ZM348.39,298.93c-2.24-2.3-4.5-4.4-6.78-6.32l1.89-1.75c2.57,2.15,4.9,4.2,7,6.15l-2.11,1.91h0ZM414.61,312.99c-8,.02-14.27-.05-18.81-.22-8.95-.31-15.63-2.46-20.04-6.45-1.88,2.59-4.57,5.49-8.07,8.7-.46-.62-1.17-1.42-2.13-2.41,3.72-3.21,6.41-6.03,8.07-8.48-2.66-3.06-4.98-7.36-6.95-12.88l2.71-1.07c1.75,4.81,3.71,8.59,5.88,11.32,2.08-3.55,3.45-8.5,4.13-14.85h-12.71v-3.01l12.77-13.89h-12.93v-2.73h16.19v3.12l-12.61,13.78h12.33v2.98c-.91,7.18-2.6,12.82-5.06,16.9,3.72,3.76,10,5.79,18.84,6.1,2.73.13,5.93.19,9.6.19s7.84-.06,12.47-.19c-.58,1.37-.92,2.4-1.01,3.09h-2.65ZM389.21,277.88h2.95v21.11h8.91v-29.97c-4.5.31-9.08.57-13.73.79-.15-1.04-.37-1.99-.68-2.84,10.5-.47,20.12-1.11,28.85-1.91l.68,2.79c-1.95.2-5.42.47-10.42.82-.77.05-1.35.1-1.75.14v12.77h11.7v2.73h-11.7v14.68h12.66v2.73h-27.48v-23.84ZM422.13,290.48h8.83v-25.59h37.98v2.57h-35v5.99h33.2v2.52h-33.2v5.99h33.44v2.54h-33.44v5.99h40.25v2.62h-28.66c1.95,3.72,4.3,6.78,7.05,9.19,5.12-2.3,10.29-4.8,15.5-7.52l1.86,2.49c-2.59,1.24-7.07,3.29-13.45,6.15-.69.31-1.21.55-1.56.71,4.41,3.28,10.86,5.75,19.33,7.41-.78,1.06-1.46,2.12-2.02,3.2-15.31-3.76-25.27-10.96-29.86-21.63h-9.41v17.8c2.15-.78,5.72-2.03,10.72-3.75,1.6-.56,2.83-.99,3.66-1.29,0,1.48.03,2.54.08,3.2-5.83,1.77-10.71,3.43-14.63,4.98-.71.31-1.46.74-2.24,1.29l-2.02-2.41c1.02-.82,1.51-1.79,1.48-2.9v-16.93h-7.9v-2.62ZM490.9,288.87c-.55-1.2-.94-2.07-1.18-2.6l2.35-1.01c1.7,3.5,3.32,7.01,4.87,10.53l-2.52,1.07c-.27-.6-.57-1.29-.9-2.08-6.49.4-11.23.81-14.22,1.23l-1.12-2.73c1.04-.58,1.95-1.4,2.73-2.46,1.62-2.02,3.74-5.03,6.34-9.02-4.16.04-7.13.21-8.91.52l-1.07-2.87c.97-.73,1.86-1.79,2.68-3.17,2.68-4.25,5.28-8.82,7.79-13.73l2.68,1.23c-3.1,5.58-6.23,10.78-9.41,15.61.26,0,.64,0,1.15-.03,3.01-.05,5.26-.12,6.75-.19,1.51-2.39,3.01-4.88,4.48-7.49l2.62,1.39c-4.16,6.65-8.61,13.28-13.37,19.88,3.65-.24,6.89-.46,9.73-.68-.33-.75-.83-1.88-1.5-3.39h0ZM480.21,312.49c-.84-.26-1.76-.46-2.76-.63,1.09-3.35,2-7.38,2.71-12.09l2.52.38c-.73,4.69-1.55,8.8-2.46,12.33h0ZM487.1,309.9c-.29-3.34-.63-6.6-1.01-9.79l2.46-.27c.35,2.48.74,5.74,1.18,9.79l-2.62.27ZM494.76,306.48c-.91-2.33-1.92-4.68-3.04-7.05l2.24-.88c1.2,2.46,2.25,4.76,3.14,6.89l-2.35,1.04ZM498.29,295.73v-2.41h10.25v2.41c-1.62,6.49-5.3,11.62-11.05,15.39-.67-.88-1.32-1.63-1.94-2.27,5.32-3.26,8.76-7.64,10.31-13.12h-7.57ZM499.68,267.73h8.59c.04-.09.08-.24.14-.44.75-2.22,1.26-3.95,1.53-5.17l2.93.63c-.09.29-.23.72-.41,1.29-.53,1.6-.96,2.83-1.29,3.69h15.18v19.99h-11.59v1.37c1.18,3.66,2.52,6.63,3.99,8.89,3.37-2.72,6.12-5.12,8.23-7.22l2.19,1.97c-2.68,2.41-5.67,4.87-8.97,7.38,2.21,2.99,5.61,5.82,10.2,8.5-.73.8-1.4,1.6-2.02,2.41-7.15-4.56-11.69-9.93-13.62-16.11v13.21c.07,3.88-1.73,5.9-5.41,6.04-.49.04-1.17.06-2.02.08-.42.02-.89.03-1.42.03h-2c-.05-.91-.23-1.9-.52-2.95,1.59.11,3.2.16,4.84.16,1.44.02,2.42-.26,2.93-.85.56-.55.84-1.56.82-3.04v-19.88h-12.28v-19.99ZM502.5,270.19v6.23h21.05v-6.23h-21.05ZM502.5,278.83v6.43h21.05v-6.43h-21.05Z" style="fill: #040000;"/>
    <path d="M143.67,406.11v-2.65h48.67v2.65h-48.67ZM188.02,397.88c-1.19-.09-2.42-.29-3.72-.6-1.29-.31-2.6-.72-3.91-1.22s-2.6-1.08-3.87-1.72c-1.27-.65-2.45-1.37-3.54-2.16s-2.07-1.64-2.94-2.53c-.87-.89-1.55-1.82-2.06-2.79-.49.97-1.15,1.89-1.98,2.78-.83.88-1.78,1.71-2.84,2.49s-2.22,1.49-3.47,2.15c-1.25.66-2.52,1.23-3.81,1.72-1.29.49-2.59.9-3.88,1.23-1.29.33-2.53.55-3.72.66l-1.78-2.49c1.35-.07,2.77-.27,4.25-.59,1.49-.32,2.95-.75,4.4-1.3s2.83-1.2,4.16-1.96c1.32-.76,2.49-1.6,3.51-2.53,1.02-.93,1.85-1.95,2.5-3.05.65-1.1,1.03-2.28,1.13-3.54v-.93h3.12v.93c.11,1.24.5,2.42,1.16,3.53.67,1.11,1.52,2.14,2.56,3.09s2.22,1.8,3.55,2.56c1.33.76,2.72,1.41,4.17,1.97s2.91.99,4.38,1.31c1.47.32,2.87.51,4.2.56l-1.56,2.43ZM151.62,431.9v-11.27h29.53v-5.85h-29.53v-2.65h32.7v11.1h-29.53v6.02h30.95v2.65h-34.12ZM203.63,401.68h20.56v-13.64h-20.56v-2.71h23.73v19h-20.56v14.11c3.17,0,6.12-.02,8.85-.07,2.73-.05,5.18-.11,7.37-.21s4.1-.21,5.73-.34c1.63-.14,2.96-.31,3.98-.51l.36,2.68c-1.37.24-2.97.43-4.8.59s-3.95.27-6.36.36-5.12.14-8.15.16c-3.03.03-6.41.04-10.14.04v-19.47ZM239.45,433.21v-52.75h3.17v52.75h-3.17ZM255.67,424.13v-2.76h48.67v2.76h-48.67ZM263.79,409.37v-24.2h3.12v8.78h26.2v-8.78h3.12v24.2h-32.43ZM293.1,396.63h-26.2v10.06h26.2v-10.06ZM356.06,408.55c-1,.2-2.18.36-3.53.49-1.35.13-2.85.19-4.51.19h-20.45v-2.76h6.26l-.3-15.78h3.12l.27,15.78h8.86l.36-15.78h3.06l-.36,15.78c1.57,0,2.93-.05,4.09-.15,1.16-.1,2.08-.23,2.78-.4l.36,2.62ZM328.96,386.86v-2.76h24.55v2.76h-24.55ZM339.1,431.16v-15.83h3.17v13.07h31.28v2.76h-34.45ZM368.77,417.82v-16.98h-7.33v15.83h-3.14v-35.11h3.14v16.54h7.3v-17.64h3.17v37.35h-3.14ZM416.15,409.18c-1.91,0-3.7-.33-5.36-.98-1.66-.66-3.09-1.57-4.31-2.73-1.21-1.17-2.16-2.55-2.86-4.16-.69-1.6-1.04-3.35-1.04-5.25s.34-3.76,1.03-5.36,1.63-2.98,2.83-4.12,2.63-2.02,4.29-2.64c1.66-.62,3.46-.93,5.41-.93,2.39,0,4.53.46,6.44,1.38,1.9.92,3.46,2.21,4.66,3.87h12.11v-7.79h3.17v38.36h-3.17v-14.03h-12.96c-1.22,1.37-2.71,2.44-4.46,3.21s-3.68,1.16-5.8,1.16ZM416.15,385.63c-1.55,0-2.97.26-4.25.77s-2.39,1.23-3.32,2.15-1.65,2.02-2.17,3.29-.78,2.68-.78,4.21.26,2.99.77,4.28c.51,1.29,1.23,2.38,2.16,3.29s2.04,1.62,3.34,2.12c1.29.5,2.72.75,4.27.75s2.97-.25,4.27-.75c1.29-.5,2.41-1.21,3.34-2.12s1.65-2.01,2.16-3.29c.51-1.29.77-2.71.77-4.28s-.26-2.94-.78-4.21-1.24-2.37-2.17-3.29-2.04-1.64-3.32-2.15-2.7-.77-4.25-.77ZM409.8,431.41v-16.68h3.17v13.92h30.87v2.76h-34.04ZM428.72,390.91c.31.77.54,1.58.7,2.45.15.87.23,1.76.23,2.69,0,1.13-.12,2.21-.37,3.23s-.6,1.98-1.05,2.87h11.13v-11.24h-10.64ZM482.81,407.34c-1.24-.6-2.49-1.36-3.75-2.28s-2.45-1.94-3.57-3.06-2.12-2.31-3.01-3.57c-.88-1.26-1.57-2.51-2.06-3.75-.47,1.35-1.16,2.72-2.05,4.1-.89,1.39-1.91,2.71-3.06,3.96s-2.37,2.42-3.66,3.47c-1.29,1.06-2.57,1.94-3.83,2.65l-2.46-2.24c1.8-.89,3.52-2.01,5.15-3.35,1.63-1.34,3.06-2.83,4.29-4.48s2.21-3.43,2.94-5.35c.73-1.91,1.09-3.91,1.09-5.99v-1.86h-11.92v-2.76h26.91v2.76h-11.92v1.8c0,2.01.37,3.91,1.11,5.7s1.71,3.45,2.93,4.95c1.21,1.5,2.61,2.84,4.2,4.01s3.23,2.11,4.92,2.84l-2.24,2.43ZM480.13,432.53c-2.88,0-5.4-.26-7.56-.77s-3.96-1.21-5.4-2.11c-1.44-.89-2.52-1.95-3.23-3.17s-1.07-2.53-1.07-3.94.36-2.72,1.07-3.94,1.79-2.28,3.23-3.17c1.44-.89,3.24-1.6,5.4-2.11s4.68-.77,7.56-.77,5.4.26,7.56.77,3.96,1.21,5.39,2.11c1.43.89,2.51,1.95,3.23,3.17.72,1.22,1.08,2.53,1.08,3.94s-.36,2.72-1.08,3.94c-.72,1.22-1.8,2.28-3.23,3.17-1.43.89-3.23,1.6-5.39,2.11s-4.68.77-7.56.77ZM480.13,415.22c-2.44,0-4.55.2-6.32.59-1.77.39-3.23.92-4.38,1.59s-2,1.44-2.56,2.32c-.56.88-.83,1.83-.83,2.83s.28,1.95.83,2.83c.56.88,1.41,1.66,2.56,2.32s2.61,1.19,4.38,1.59c1.77.39,3.87.59,6.32.59s4.53-.2,6.3-.59,3.24-.92,4.39-1.59,2-1.44,2.56-2.32c.56-.88.83-1.83.83-2.83s-.28-1.95-.83-2.83c-.56-.88-1.41-1.66-2.56-2.32s-2.61-1.19-4.39-1.59-3.88-.59-6.3-.59ZM496.24,397.83v14.19h-3.17v-31.55h3.17v14.55h7.9v2.82h-7.9ZM549.9,385.2c-.15,3.66-.68,7.16-1.61,10.5s-2.23,6.48-3.9,9.43-3.7,5.72-6.08,8.3c-2.39,2.58-5.1,4.95-8.12,7.12l-2.65-2.16c1.77-1.09,3.45-2.32,5.06-3.69,1.6-1.37,3.09-2.84,4.47-4.43,1.38-1.59,2.63-3.27,3.76-5.06,1.13-1.79,2.11-3.65,2.93-5.61l-14.08,1.5-1.12-2.82,16.19-1.2c1-2.95,1.63-6.02,1.89-9.21h-16.13v-2.68h19.41ZM558.37,431.43v-28h-9.95v-2.73h9.95v-19.14h3.14v49.88h-3.14ZM568.19,433.21v-52.75h3.17v52.75h-3.17ZM599.23,419.68c-2.22,0-4.16-.46-5.81-1.37-1.65-.91-3.02-2.16-4.12-3.76s-1.91-3.48-2.46-5.66-.82-4.54-.82-7.1.27-4.92.82-7.11,1.37-4.08,2.46-5.67,2.47-2.84,4.12-3.75c1.65-.9,3.59-1.35,5.81-1.35s4.11.45,5.77,1.35c1.66.9,3.04,2.16,4.14,3.76,1.1,1.6,1.93,3.5,2.49,5.67.56,2.18.83,4.54.83,7.1s-.28,4.92-.83,7.1c-.56,2.18-1.39,4.07-2.49,5.67-1.1,1.6-2.48,2.86-4.14,3.76-1.66.9-3.58,1.35-5.77,1.35ZM599.23,386.59c-1.75,0-3.26.41-4.54,1.22-1.28.81-2.32,1.91-3.14,3.31s-1.43,3.01-1.82,4.85c-.39,1.84-.59,3.78-.59,5.82s.2,3.95.59,5.78c.39,1.83,1,3.45,1.82,4.84s1.87,2.51,3.14,3.34c1.28.83,2.79,1.24,4.54,1.24s3.29-.41,4.55-1.24c1.27-.83,2.31-1.95,3.13-3.35s1.43-3.02,1.82-4.85c.39-1.83.59-3.75.59-5.76,0-2.13-.19-4.12-.57-5.97s-.98-3.46-1.8-4.83-1.87-2.44-3.14-3.23c-1.28-.78-2.8-1.18-4.57-1.18ZM623.45,433.21v-52.75h3.17v52.75h-3.17ZM687.55,404.17v2.65h-48.67v-2.65h48.67ZM646.78,432.69v-11.46h29.59v-5.77h-29.59v-2.65h32.76v11.02h-29.59v6.21h31.01v2.65h-34.18ZM647.16,398.35v-17.12h3.12v5.99h25.87v-5.99h3.12v17.12h-32.1ZM676.14,389.84h-25.87v5.88h25.87v-5.88Z" style="fill: #040000;"/>
    <path d="M154.52,542.8l-1.34,2.71c-3.14.36-6.56,1.12-9.84,3.06l-.27-.27,1.23-2c.46-.44.96-.88,1.56-1.09v-.14c-1.72-.6-3.01-1.64-3.01-3.28s.98-2.95,1.83-3.75c1.34-1.26,3.25-2.05,4.7-2.05s2.65.88,2.65,2.13c0,.82-.33,1.67-1.26,2.54h-.16c-.19-.55-.52-1.18-.79-1.53-.36-.44-.79-.66-1.45-.66-.82,0-1.83.41-2.35.77-.44.27-.77.63-.77.96,0,.63.36,1.26,1.04,1.72.88.6,2.21,1.09,3.53,1.09,1.56,0,3.36-.22,4.59-.44l.11.22ZM166.14,548.3h-.3c-2.16,0-3.55-.44-4.68-1.56-1.67-1.7-1.7-3.64-1.7-7.66,0-5.2-.3-10.64-.71-16.43.93-1.01,1.78-1.91,2.57-2.54l.19.11c.44,5.99.44,13.07.44,19.8v1.56c0,1.75.98,2.54,2.05,2.93.68.25,1.39.3,1.75.3h.38v3.5ZM168.07,544.8l2.08-2.49c.36-1.39.41-2.62.41-5.44,0-3.58-.38-9.43-.68-12.55-.08-.85-.16-1.83-.16-2.68,0-1.23.77-2.11,2.13-3.14l.19.19c0,1.59.79,3.55,2.32,6.02l-1.78,1.37c.14,2.95.25,5.91.25,8.86,0,2.41-.36,4.02-.96,5.47h.11c2.02-2.16,3.94-3.88,5.8-5,1.5-.93,3.39-1.5,5.09-1.5,3.42,0,6.54,2.9,6.54,6.73,0,1.39-.66,2.73-1.42,4.05.68.11,1.78.14,2.82.14h1.07v3.5h-.66c-3.14,0-6.07-.3-8.86-.88-3.75.68-8.59.88-14.25.88h-1.94c-1.5,0-1.91-1.09-1.91-1.83,0-.66.44-1.67,1.91-1.67h1.91ZM172.96,544.8c7.16,0,12.93-.52,14.14-2.54,0-2.3-2.57-4.65-5.69-4.65-3.53,0-6.67,2.54-10.99,7.19h2.54ZM193.01,544.8c2.35,0,4.27-.08,7.16-1.37v-.11c-1.26-.85-2.54-2.35-3.83-3.53-.68-.63-1.42-1.15-1.89-1.15h-.85l-.08-.05,1.07-3.14.85-.11c2.13-.46,4.65-.9,7.33-.9,3.17,0,5.91.52,7.93,1.37l-.96,2.98-4.76,4.4v.11c1.83.98,3.91,1.5,6.23,1.5h1.09v3.5h-.82c-3.06,0-6.45-1.15-9.11-3.2h-.11c-3.36,2.43-6.29,3.2-9.57,3.2h-.85c-1.5,0-1.91-1.09-1.91-1.83,0-.66.44-1.67,1.91-1.67h1.15ZM202.93,542.12c1.61-1.15,3.28-2.41,5.03-4.07v-.11c-1.5-.36-3.17-.68-5.09-.68-1.78,0-3.45.19-5.06.49v.11c.49.44,1.04,1.01,1.61,1.56.9.85,2.11,1.8,3.39,2.71h.11ZM201.32,524.21c1.12.82,2.21,1.8,3.28,2.93-.6.98-1.34,1.89-2.27,2.68-1.07-1.01-2.13-1.89-3.23-2.82.74-.98,1.48-1.94,2.21-2.79ZM212.76,544.8c2.32,0,4.18-.08,5.39-.52.96-.36,1.56-.74,1.56-1.2,0-1.29-1.31-3.96-2.73-6.75.66-1.18,1.34-2.21,2.05-3.09h.14c1.26,2.21,2.73,5.63,2.73,8.34,0,2.05-.82,3.64-1.91,5.09-1.23,1.23-3.17,1.64-7.36,1.64h-.33c-1.5,0-1.91-1.09-1.91-1.83,0-.66.44-1.67,1.91-1.67h.46ZM217.93,553.47c1.12.82,2.21,1.8,3.28,2.93-.6.98-1.34,1.89-2.27,2.68-1.07-1.01-2.13-1.89-3.23-2.82.74-.98,1.48-1.94,2.21-2.79ZM242.47,545.7c-2.87,0-4.98-1.01-4.98-3.2,0-.79.27-1.8.9-3.2,1.15-2.43,4.02-4.92,8.72-7.52l-.16-2.05c.68-.79,1.42-1.59,2.16-2.24h.3c.11,4.24.11,8.5.16,12.74.03,1.91.22,3.14,1.04,3.86.63.55,1.67.71,2.87.71h.66v3.5h-.6c-2.68,0-4.62-.71-5.66-3.8-1.56.68-3.28,1.2-5.41,1.2ZM247.31,534.82c-4.87,2.52-7.41,4.54-7.41,5.99,0,1.07,1.64,1.53,3.5,1.53,1.18,0,2.43-.25,4.05-.77l-.14-6.75ZM244.08,525.14c-1.12-1.07-2.11-1.94-3.2-2.84.71-.98,1.48-1.89,2.16-2.6,1.12.88,2.05,1.78,3.12,2.93-.77,1.09-1.31,1.8-2.08,2.52ZM249.36,524.78c-1.12-1.07-2.11-1.94-3.2-2.84.71-.98,1.48-1.89,2.16-2.6,1.12.88,2.05,1.78,3.12,2.93-.77,1.09-1.31,1.8-2.08,2.52ZM255.8,544.8c4.43,0,8.97-1.56,14.6-4.95l.03-.11c-3.17-1.18-6.07-1.91-8.59-1.91-1.56,0-2.71.49-3.47,1.37l.33,1.37-.82,2.46h-.27l-1.34-3.61c.22-3.04,2.65-4.92,5.93-4.92,1.83,0,4.7.66,8.97,2.38,1.31.52,2.95.85,4.68.88l2.21-.03.08.05-1.45,2.87c-2.3-.05-3.83.44-4.73,1.01l-4.57,2.98c-3.66,2.38-7.57,3.66-11.84,3.66h-1.42c-1.5,0-1.91-1.09-1.91-1.83,0-.66.44-1.67,1.91-1.67h1.67ZM291.18,545.43c-3.2,0-5.96-1.5-5.96-5.14,0-1.8.68-3.34,1.75-4.7,1.26-1.37,2.62-2.27,3.91-2.27,1.59,0,3.06,1.12,4.13,3.09,1.04,1.89,1.75,4.48,1.75,7.52,0,2.54-.63,4.95-2.08,7.19-2.43,3.69-4.76,5.2-7.03,5.2-2.52,0-5.11-.82-7.85-2.68l.41-.88c1.34.68,2.65.93,3.99.93,2.76,0,5.52-1.39,8.04-4.18,1.23-1.34,2.38-2.95,2.57-4.57-1.18.33-2.41.49-3.64.49ZM289.98,536.76c-1.29,0-3.06,1.42-3.06,2.43,0,1.7,2.41,2.9,4.65,2.9,1.04,0,2.11-.11,3.09-.36-.74-2.76-2.32-4.98-4.68-4.98ZM310.17,538.89c1.56,3.75,2.98,5.91,6.15,5.91h.49v3.5h-.57c-1.2,0-2.08-.25-2.76-.88h-.11c.03.33.05.66.05.96,0,1.29-.36,2.93-1.09,4.24-2.16,3.8-4.51,5.44-6.54,5.44s-4.57-.93-6.84-2.13l.41-.93c.74.36,1.75.6,3.14.6,3.66,0,8.48-4.16,9.08-8.2-.14-.33-.38-.77-.74-1.23-1.07-1.5-1.75-2.76-2.38-4.07.55-1.26,1.04-2.27,1.5-3.17l.19-.03ZM317.4,544.8c2.02,0,3.61-1.39,4.59-4.84.3-1.09,1.01-2.21,2.02-3.31,1.01-.93,2.13-1.59,3.45-1.59,3.34,0,5.3,4.59,5.74,9.38-.57,2.49-1.59,3.53-2.9,3.53-2.71,0-5.41-1.23-8.12-3.23h-.19c-.71,2.41-2.27,3.55-4.73,3.55h-.46c-1.5,0-1.91-1.09-1.91-1.83,0-.66.44-1.67,1.91-1.67h.6ZM326.97,543.7c1.04.44,2.16.79,3.25.79.41,0,.77-.05.88-.3-.79-4.13-2.6-5.96-4.32-5.96-1.56,0-2.87.88-3.66,2.68.82,1.23,2.21,2.11,3.86,2.79ZM367.19,548.3h-.52c-2.46,0-4.51-1.04-5.58-4.46h-.14c-.22,1.04-.79,1.91-1.97,2.62-1.8,1.09-3.66,1.83-5.5,1.83-3.06,0-4.76-1.86-4.76-5.06,0-.68.03-1.34.08-2.02l1.07-.08c.11,2.27,1.23,3.66,3.86,3.66,1.45,0,3.17-.63,4.46-1.37,1.01-.57,1.78-1.39,1.78-2.05,0-1.86-.98-5.5-2.27-10.17.63-.96,1.23-1.94,1.94-2.82l.16.11c1.01,3.94,1.86,8.15,2.6,12.17.49,2.71,2.27,4.13,4.32,4.13h.46v3.5ZM367.66,544.8c2.32,0,4.18-.08,5.39-.52.96-.36,1.56-.74,1.56-1.2,0-1.29-1.31-3.96-2.73-6.75.66-1.18,1.34-2.21,2.05-3.09h.14c1.26,2.21,2.73,5.63,2.73,8.34,0,2.05-.82,3.64-1.91,5.09-1.23,1.23-3.17,1.64-7.36,1.64h-.33c-1.5,0-1.91-1.09-1.91-1.83,0-.66.44-1.67,1.91-1.67h.46ZM370.34,559.21c-1.12-1.07-2.11-1.94-3.2-2.84.71-.98,1.48-1.89,2.16-2.6,1.12.88,2.05,1.78,3.12,2.93-.77,1.09-1.31,1.8-2.08,2.52ZM375.62,558.85c-1.12-1.07-2.11-1.94-3.2-2.84.71-.98,1.48-1.89,2.16-2.6,1.12.88,2.05,1.78,3.12,2.93-.77,1.09-1.31,1.8-2.08,2.52ZM400.29,548.3h-.52c-2.46,0-4.51-1.04-5.58-4.46h-.14c-.22,1.04-.79,1.91-1.97,2.62-1.8,1.09-3.66,1.83-5.5,1.83-3.06,0-4.76-1.86-4.76-5.06,0-.68.03-1.34.08-2.02l1.07-.08c.11,2.27,1.23,3.66,3.86,3.66,1.45,0,3.17-.63,4.46-1.37,1.01-.57,1.78-1.39,1.78-2.05,0-1.86-.98-5.5-2.27-10.17.63-.96,1.23-1.94,1.94-2.82l.16.11c1.01,3.94,1.86,8.15,2.6,12.17.49,2.71,2.27,4.13,4.32,4.13h.46v3.5ZM400.54,544.8c2.49,0,4.4-.46,6.67-2.41.41-2.76,1.56-5.33,3.64-7.25,1.89-1.7,3.75-2.6,5.8-2.6s3.64,1.09,3.64,2.73c0,.9-.19,1.83-.55,2.76l-.19.03c-.71-1.37-1.86-2.05-3.39-2.05-1.37,0-2.43.36-3.66,1.07-1.67,1.12-2.82,2.46-3.23,4.1l.08.08c.9-.41,1.83-.66,2.76-.66,1.53,0,2.76.57,3.55,1.45.93.98,1.31,2.3,1.31,3.31s-.11,1.97-.66,3.06c-1.01,1.91-2.38,2.68-3.75,2.68-1.48,0-2.82-.66-3.88-1.91-.82-.9-1.45-2.13-1.48-3.5h-.14c-1.91,1.97-4.1,2.6-6.51,2.6h-.27c-1.5,0-1.91-1.09-1.91-1.83,0-.66.44-1.67,1.91-1.67h.25ZM413.5,547.97c.96,0,1.53-.27,1.75-.77,0-1.91-1.75-3.47-3.99-3.47-.77,0-1.45.16-2.08.52.46,2.08,2.38,3.72,4.32,3.72ZM413.2,530.06c-1.12-1.07-2.11-1.94-3.2-2.84.71-.98,1.48-1.89,2.16-2.6,1.12.88,2.05,1.78,3.12,2.93-.77,1.09-1.31,1.8-2.08,2.52ZM418.47,529.7c-1.12-1.07-2.11-1.94-3.2-2.84.71-.98,1.48-1.89,2.16-2.6,1.12.88,2.05,1.78,3.12,2.93-.77,1.09-1.31,1.8-2.08,2.52ZM453.68,521.31c.22,6.75.38,12.69.38,19.22,0,1.29.57,2.87,1.37,3.5.6.46,1.48.74,2.68.77h.3v3.5h-.52c-1.97,0-3.42-.63-4.29-2.05h-.11c-.19,1.39-.46,2.82-.96,4.07-.85,1.37-1.94,2.32-3.14,3.09-1.75,1.15-3.75,1.7-5.69,1.7-2.38,0-4.35-.82-5.69-2.35-1.26-1.45-1.94-3.53-1.94-6.18,0-2.3.74-4.59,1.83-6.89l.98.38c-.68,1.56-1.15,3.17-1.15,4.76s.44,3.01,1.39,4.24c1.18,1.53,2.79,2.21,4.73,2.21,1.83,0,3.36-.52,4.73-1.29,1.34-.74,2.43-1.59,2.98-2.6.05-.3.19-.57.19-1.8,0-4.27-.22-11.35-.82-22.01.82-.9,1.64-1.72,2.52-2.41l.22.14ZM458.88,544.8c2.32,0,4.18-.08,5.39-.52.96-.36,1.56-.74,1.56-1.2,0-1.29-1.31-3.96-2.73-6.75.66-1.18,1.34-2.21,2.05-3.09h.14c1.26,2.21,2.73,5.63,2.73,8.34,0,2.05-.82,3.64-1.91,5.09-1.23,1.23-3.17,1.64-7.36,1.64h-.33c-1.5,0-1.91-1.09-1.91-1.83,0-.66.44-1.67,1.91-1.67h.46ZM464.05,553.47c1.12.82,2.21,1.8,3.28,2.93-.6.98-1.34,1.89-2.27,2.68-1.07-1.01-2.13-1.89-3.23-2.82.74-.98,1.48-1.94,2.21-2.79ZM480.02,548.3h-.3c-2.16,0-3.55-.44-4.68-1.56-1.67-1.7-1.7-3.64-1.7-7.66,0-5.2-.3-10.64-.71-16.43.93-1.01,1.78-1.91,2.57-2.54l.19.11c.44,5.99.44,13.07.44,19.8v1.56c0,1.75.98,2.54,2.05,2.93.68.25,1.39.3,1.75.3h.38v3.5ZM497.04,518.88c-.6,1.12-1.31,2.24-2.05,3.36-1.39.36-2.93.82-4.4,1.34-2.9,1.01-5.88,2.21-9,3.58v.08l4.46,1.72-.66,1.37c4.21,3.42,7.03,6.89,7.03,9.76,0,2.54-.68,4.57-1.75,5.66-1.72,1.53-4.46,2.54-9.54,2.54h-1.09c-1.5,0-1.91-1.09-1.91-1.83,0-.66.44-1.67,1.91-1.67h1.72c2.82,0,5.44-.27,7.3-1.42.98-.6,1.5-1.15,1.5-1.48,0-1.23-.85-2.68-1.89-4.1-1.2-1.64-3.75-4.27-8.23-7.74-.79-.6-.98-1.59-.98-2.52,0-.55.27-1.15.63-1.75.3-.49.82-1.04,2.05-1.67,3.2-1.61,8.42-3.42,14.71-5.47l.19.22Z" style="fill: #040000;"/>
    <text transform="translate(566.94 2142.34)" style="fill: #221714; font-family: MusticaPro-Medium, &apos;Mustica Pro&apos;; font-size: 40px; font-weight: 500;"><tspan x="0" y="0">12</tspan></text>
  </g>
</svg>