<?xml version="1.0" encoding="UTF-8"?>
<svg id="_圖層_1" data-name="圖層 1" xmlns="http://www.w3.org/2000/svg" xmlns:xlink="http://www.w3.org/1999/xlink" viewBox="0 0 1170 2182.68">
  <defs>
    <clipPath id="clippath">
      <rect y="-174.66" width="1170" height="2532" style="fill: none;"/>
    </clipPath>
  </defs>
  <g style="clip-path: url(#clippath);">
    <text transform="translate(140 189.51)" style="fill: #040000; font-family: MusticaPro-Light, &apos;Mustica Pro&apos;; font-size: 56px; font-weight: 300;"><tspan x="0" y="0">Kort ﬂäktskruv</tspan></text>
    <text transform="translate(140 309.52)" style="fill: #040000; font-family: MusticaPro-Light, &apos;Mustica Pro&apos;; font-size: 56px; font-weight: 300;"><tspan x="0" y="0">Kort ventilatorskrue</tspan></text>
    <text transform="translate(140 429.53)" style="fill: #040000; font-family: MusticaPro-Light, &apos;Mustica Pro&apos;; font-size: 56px; font-weight: 300;"><tspan x="0" y="0">Короткий гвинт для вентилятора</tspan></text>
    <text transform="translate(140 549.53)" style="fill: #040000; font-family: MusticaPro-Light, &apos;Mustica Pro&apos;; font-size: 56px; font-weight: 300;"><tspan x="0" y="0">Rövid ventilátorcsavar</tspan></text>
    <text transform="translate(140 669.54)" style="fill: #040000; font-family: MusticaPro-Light, &apos;Mustica Pro&apos;; font-size: 56px; font-weight: 300;"><tspan x="0" y="0">Krótka śruba wentylatora</tspan></text>
    <text transform="translate(140 789.55)" style="fill: #040000; font-family: MusticaPro-Light, &apos;Mustica Pro&apos;; font-size: 56px; font-weight: 300;"><tspan x="0" y="0">Kısa fan vidası</tspan></text>
    <text transform="translate(140 909.56)" style="fill: #040000; font-family: MusticaPro-Light, &apos;Mustica Pro&apos;; font-size: 56px; font-weight: 300;"><tspan x="0" y="0">Parafuso curto para ventoinha</tspan></text>
    <path d="M149.24,989.75v17.69c.02,7.6-.36,13.28-1.12,17.04-.69,3.79-2.19,7.71-4.48,11.76-.53-.55-1.33-1.22-2.41-2.02,2.08-3.34,3.45-6.84,4.13-10.53.75-3.68,1.11-9.13,1.09-16.35v-20.21h39.57v25.02c-.02,9.7.53,15.9,1.64,18.59.51,1.46,1.14,2.21,1.89,2.24.78.07,1.31-.9,1.59-2.93.36-2.33.65-5.19.85-8.56.88.33,1.77.61,2.68.85-.27,3.63-.61,6.52-1.01,8.67-.6,3.46-1.97,5.19-4.1,5.17-2.01-.09-3.51-1.46-4.51-4.1-1.28-2.9-1.88-9.56-1.8-19.99v-22.34h-33.99ZM154.63,1004.6h10.28v-6.56c-2.28.13-5.51.26-9.71.38-.77.02-1.33.04-1.7.05-.18-1.13-.36-2.01-.52-2.62,7.98-.15,16.41-.54,25.27-1.18l.55,2.62c-3.81.26-7.54.46-11.18.63v6.67h10.28v14.22h-10.28v7.96c.84-.07,2.07-.18,3.69-.33,1.73-.16,3-.28,3.8-.36-.15-.44-.39-1.09-.74-1.97-.36-.98-.64-1.73-.82-2.24l2.62-.77c1.6,4.05,3.06,7.98,4.38,11.81l-2.82.96c-.31-1-.77-2.42-1.37-4.27-.16-.44-.28-.77-.36-1.01-.47.04-1.19.1-2.13.19-11.74,1.08-18.9,1.8-21.49,2.16l-.57-2.9c1.4-.09,4.01-.29,7.82-.6,2.31-.18,4.07-.32,5.28-.41v-8.23h-10.28v-14.22ZM157.25,1007.12v9.19h7.66v-9.19h-7.66ZM175.27,1007.12h-7.66v9.19h7.66v-9.19ZM202.89,989.12h21.22c-.4-.98-1.05-2.4-1.94-4.24-.09-.18-.16-.32-.19-.41l2.98-.93c.82,1.71,1.66,3.57,2.52,5.58h19.14v11.89h-40.82v4.46c.05,8.24-.31,14.26-1.09,18.07-.73,4.01-2.34,8.17-4.84,12.47-.8-.71-1.7-1.37-2.68-1.97,2.37-3.86,3.9-7.58,4.59-11.16.78-3.5,1.16-8.93,1.12-16.3v-17.47ZM205.79,991.83v6.48h37.93v-6.48h-37.93ZM223.1,1009.41h-14.44v-2.65h17.25v21.85c.16,4.74-1.95,7.07-6.34,7-1.06.02-2.08.04-3.06.05h-3.25c-.09-.8-.28-1.86-.57-3.17,1.8.15,3.92.22,6.34.22,1.53.02,2.59-.3,3.17-.96.62-.62.92-1.74.9-3.36v-4.87c-5.09,1.6-10.45,3.37-16.08,5.3l-1.04-2.73c7.02-2.02,12.72-3.76,17.12-5.2v-11.48ZM216.89,1020.43c-2.57-2.57-4.85-4.71-6.84-6.43l1.86-1.75c2.33,1.91,4.7,3.98,7.11,6.21l-2.13,1.97h0ZM244.32,1009.41h-15.29v-2.65h18.1v21.79c.18,4.83-1.9,7.2-6.23,7.11-.8.02-1.7.04-2.68.05h-3.91c-.09-1.04-.26-2.1-.52-3.17,2.37.15,4.5.22,6.4.22,2.9.16,4.27-1.35,4.13-4.54v-5.61c-2.95.95-7.43,2.45-13.43,4.51-.53.18-.92.32-1.18.41l-1.01-2.73c3.9-1.13,9.11-2.77,15.61-4.92v-10.47ZM236.39,1020.21c-2.24-2.3-4.5-4.4-6.78-6.32l1.89-1.75c2.57,2.15,4.9,4.2,7,6.15l-2.11,1.91h0ZM282.73,1035.61h-3.01v-17.47h-17.25c-.42,6.58-2.54,12.69-6.37,18.32-.84-.69-1.78-1.37-2.82-2.02,2.79-4.05,4.57-7.85,5.33-11.4.89-3.52,1.32-9.09,1.29-16.71v-19.44h43.34v42c.16,4.5-2.13,6.78-6.89,6.84-1.06.04-2.07.06-3.04.08-.47.02-.98.03-1.5.03h-1.97c-.11-1.06-.29-2.13-.55-3.23,2,.11,4.17.16,6.51.16,3.06.11,4.53-1.22,4.4-3.99v-10.64h-17.47v17.47ZM262.91,1006.43c0,2.64-.07,5.65-.22,9.02h17.04v-11.54h-16.82v2.52ZM262.91,989.7v11.54h16.82v-11.54h-16.82ZM300.21,989.7h-17.47v11.54h17.47v-11.54ZM282.73,1003.92v11.54h17.47v-11.54h-17.47ZM315.11,994.51c-1.08,3.15-2.18,5.93-3.31,8.34l-2.52-1.34c2.68-5.56,4.73-11.51,6.15-17.86l2.82.44c-.73,2.81-1.5,5.42-2.3,7.85h12.25v2.57h-6.21c-.02,4.19-.13,8.58-.33,13.15h7.82v2.57h-8.04c-.15,1.84-.39,4.05-.74,6.62l1.72-1.23c1.77,2.28,4.19,5.72,7.27,10.34.18.29.32.5.41.63l-2.62,1.64c-1.64-2.81-3.94-6.33-6.89-10.58-.97,6.62-3.96,12.78-8.97,18.48-.49-.62-1.28-1.35-2.35-2.19,5.92-5.94,9.06-13.84,9.41-23.71h-9.35v-2.57h9.52c.18-2.73.32-7.12.41-13.15h-4.16ZM327.93,1031.53h18.7c2.7-4.87,5.1-9.62,7.22-14.25l2.93,1.12c-2.15,4.25-4.48,8.62-7,13.12h12.41v2.68h-34.26v-2.68ZM329.96,986.72h31.64v2.71h-31.64v-2.71ZM332.42,996.86h26.09v17.8h-26.09v-17.8ZM339.47,1029.18c-.98-2.26-2.8-5.81-5.44-10.64l2.6-1.31c2.33,4.28,4.21,7.79,5.63,10.53l-2.79,1.42h0ZM335.26,999.54v12.44h20.4v-12.44h-20.4ZM396.81,996.92h2.13c.88,0,1.65-.03,2.32-.1.67-.06,1.27-.15,1.79-.26s.98-.24,1.37-.4c.39-.15.74-.33,1.05-.53l4.35,3.58c-.78.53-1.54,1.12-2.28,1.78s-1.49,1.39-2.26,2.21c-.62.67-1.29,1.34-2,2s-1.44,1.29-2.17,1.9c-.74.61-1.48,1.2-2.21,1.76-.74.57-1.44,1.09-2.09,1.59v15.18c0,1.19.01,2.23.04,3.13s.07,1.71.12,2.42.12,1.35.19,1.91c.07.56.15,1.1.25,1.61h-4.98c.02-.58.05-1.32.1-2.2.05-.88.1-1.78.15-2.68s.1-1.75.14-2.53c.04-.78.05-1.36.05-1.72v-12.11c-3.15,2.22-6.47,4.28-9.94,6.15-3.47,1.88-7.21,3.51-11.2,4.89-.49-.69-.94-1.3-1.35-1.82s-.89-1.03-1.44-1.52c3.08-.95,6.17-2.11,9.28-3.47,3.11-1.37,6.12-2.91,9.02-4.63,2.91-1.72,5.66-3.61,8.26-5.67,2.6-2.06,4.94-4.27,7.01-6.64h-10.47c-.98,0-2.05,0-3.2.01-1.15,0-2.39.02-3.73.03-1.34,0-2.79.03-4.35.05s-3.26.06-5.1.1v-4.02h17.2v-4.48c0-.64-.04-1.4-.11-2.3-.07-.89-.18-1.92-.33-3.09l4.92.46c-.07.15-.14.38-.19.71s-.1.7-.14,1.11c-.04.41-.07.84-.1,1.29-.03.45-.05.87-.07,1.27-.02.4-.03.75-.04,1.05,0,.3-.01.51-.01.62v3.36ZM412.56,1020.19c-1.66-1.31-3.3-2.55-4.92-3.72-1.62-1.17-3.24-2.28-4.84-3.34l2.35-2.76c1.18.58,2.27,1.19,3.27,1.8.99.62,1.9,1.22,2.73,1.8.83.58,1.59,1.15,2.27,1.7s1.32,1.05,1.9,1.5l-2.76,3.01ZM435.2,1011.03c-3.48-2.52-6.71-4.47-9.68-5.88.42-.6.82-1.18,1.2-1.72s.78-1.11,1.2-1.7c2.28,1.26,4.21,2.36,5.8,3.31,1.59.95,2.93,1.83,4.02,2.65-.18.2-.4.45-.64.74-.25.29-.49.59-.74.9-.25.31-.47.62-.68.92-.21.3-.37.56-.48.78ZM469.6,1000.88c.27.69.64,1.35,1.09,1.98.46.63.84,1.24,1.15,1.82-2.3,2.15-4.55,4.18-6.75,6.08-2.21,1.91-4.29,3.61-6.26,5.13-3.66,2.83-7.07,5.28-10.21,7.36s-5.99,3.76-8.54,5.03c-1.04.53-1.98.99-2.82,1.39-.84.4-1.58.77-2.21,1.12-.64.35-1.18.67-1.63.98-.45.31-.81.64-1.08.98l-4.73-5.41c2.33-.56,4.77-1.37,7.3-2.41,2.53-1.04,5.09-2.25,7.67-3.64,2.58-1.39,5.14-2.9,7.67-4.55,2.53-1.65,4.96-3.36,7.29-5.13,2.32-1.77,4.52-3.57,6.58-5.4,2.06-1.83,3.89-3.61,5.5-5.35ZM435.56,988.47c1.37.64,2.86,1.48,4.48,2.52,1.62,1.04,3.3,2.26,5.03,3.66-.47.75-.91,1.42-1.3,2.02-.39.6-.75,1.14-1.08,1.61-1.91-1.57-3.66-2.93-5.24-4.07-1.58-1.15-3-2.09-4.28-2.82.58-.73,1.07-1.31,1.45-1.75s.69-.83.93-1.18ZM457.87,993.28c.98.77,1.99,1.66,3.02,2.68,1.03,1.02,1.95,2.05,2.75,3.09-.42.35-.85.69-1.3,1.04-.45.35-.87.68-1.27,1.01-.97-1.31-1.94-2.49-2.91-3.53-.98-1.04-1.85-1.82-2.61-2.35l2.32-1.94ZM463.12,989.01c.98.77,1.99,1.66,3.02,2.68,1.03,1.02,1.95,2.05,2.75,3.09-.42.35-.85.69-1.3,1.04-.45.35-.87.68-1.27,1.01-.97-1.31-1.94-2.49-2.91-3.53-.98-1.04-1.85-1.82-2.61-2.35l2.32-1.94Z" style="fill: #040000;"/>
    <path d="M149.73,1109.93v15.67c.04,8.46-.36,14.62-1.18,18.48-.71,3.96-2.32,7.99-4.81,12.11-.55-.64-1.33-1.39-2.35-2.24,2.35-3.92,3.82-7.51,4.4-10.77.69-3.23,1.02-8.73.98-16.52v-19.52h38.96v24.96c-.07,10.45.51,16.7,1.75,18.76.51,1.2,1.11,1.78,1.8,1.72.66-.13,1.11-.85,1.37-2.16.4-2.39.76-5.45,1.07-9.19.75.31,1.7.63,2.87.96-.29,3.32-.65,6.21-1.07,8.67-.55,3.34-2.04,4.96-4.48,4.87-1.79-.16-3.17-1.24-4.16-3.23-.82-1.79-1.37-4.13-1.64-7.03-.31-2.95-.46-7.43-.46-13.43v-22.12h-33.06ZM165.32,1132.43c-3.9-5.23-8.01-10.65-12.33-16.24l2.41-1.61c4.01,5.14,7.93,10.24,11.76,15.29,3.3-4.76,6.43-10.12,9.41-16.08l2.71,1.23c-3.08,6.18-6.5,11.95-10.25,17.31,2.24,2.97,5.22,6.98,8.94,12.03,1.39,1.88,2.4,3.24,3.04,4.1l-2.52,1.86c-3.77-5.21-7.55-10.35-11.32-15.42-3.97,5.49-8.64,10.81-14,15.97-.58-.57-1.39-1.28-2.41-2.13,5.91-5.67,10.76-11.1,14.57-16.3h0ZM202.89,1109.13h21.22c-.4-.98-1.05-2.4-1.94-4.24-.09-.18-.16-.32-.19-.41l2.98-.93c.82,1.71,1.66,3.57,2.52,5.58h19.14v11.89h-40.82v4.46c.05,8.24-.31,14.26-1.09,18.07-.73,4.01-2.34,8.17-4.84,12.47-.8-.71-1.7-1.37-2.68-1.97,2.37-3.86,3.9-7.58,4.59-11.16.78-3.5,1.16-8.93,1.12-16.3v-17.47ZM205.79,1111.84v6.48h37.93v-6.48h-37.93ZM223.1,1129.42h-14.44v-2.65h17.25v21.85c.16,4.74-1.95,7.07-6.34,7-1.06.02-2.08.04-3.06.05h-3.25c-.09-.8-.28-1.86-.57-3.17,1.8.15,3.92.22,6.34.22,1.53.02,2.59-.3,3.17-.96.62-.62.92-1.74.9-3.36v-4.87c-5.09,1.6-10.45,3.37-16.08,5.3l-1.04-2.73c7.02-2.02,12.72-3.76,17.12-5.2v-11.48ZM216.89,1140.44c-2.57-2.57-4.85-4.71-6.84-6.43l1.86-1.75c2.33,1.91,4.7,3.98,7.11,6.21l-2.13,1.97h0ZM244.32,1129.42h-15.29v-2.65h18.1v21.79c.18,4.83-1.9,7.2-6.23,7.11-.8.02-1.7.04-2.68.05h-3.91c-.09-1.04-.26-2.1-.52-3.17,2.37.15,4.5.22,6.4.22,2.9.16,4.27-1.35,4.13-4.54v-5.61c-2.95.95-7.43,2.45-13.43,4.51-.53.18-.92.32-1.18.41l-1.01-2.73c3.9-1.13,9.11-2.77,15.61-4.92v-10.47ZM236.39,1140.22c-2.24-2.3-4.5-4.4-6.78-6.32l1.89-1.75c2.57,2.15,4.9,4.2,7,6.15l-2.11,1.91h0ZM259.11,1114.52c-1.08,3.15-2.18,5.93-3.31,8.34l-2.52-1.34c2.68-5.56,4.73-11.51,6.15-17.86l2.82.44c-.73,2.81-1.5,5.42-2.3,7.85h12.25v2.57h-6.21c-.02,4.19-.13,8.58-.33,13.15h7.82v2.57h-8.04c-.15,1.84-.39,4.05-.74,6.62l1.72-1.23c1.77,2.28,4.19,5.72,7.27,10.34.18.29.32.5.41.63l-2.62,1.64c-1.64-2.81-3.94-6.33-6.89-10.58-.97,6.62-3.96,12.78-8.97,18.48-.49-.62-1.28-1.35-2.35-2.19,5.92-5.94,9.06-13.84,9.41-23.71h-9.35v-2.57h9.52c.18-2.73.32-7.12.41-13.15h-4.16ZM271.93,1151.54h18.7c2.7-4.87,5.1-9.62,7.22-14.25l2.93,1.12c-2.15,4.25-4.48,8.62-7,13.12h12.41v2.68h-34.26v-2.68ZM273.96,1106.73h31.64v2.71h-31.64v-2.71ZM276.42,1116.87h26.09v17.8h-26.09v-17.8ZM283.47,1149.19c-.98-2.26-2.8-5.81-5.44-10.64l2.6-1.31c2.33,4.28,4.21,7.79,5.63,10.53l-2.79,1.42h0ZM279.26,1119.55v12.44h20.4v-12.44h-20.4ZM311.53,1113.51h6.78v-9.9h2.57v9.9h6.78v19.82h-6.78v12.44c1.13-.13,2.69-.34,4.68-.63.13-.02.23-.04.3-.05-.33-1.17-.85-2.84-1.56-5.03-.15-.42-.26-.74-.33-.96l2.3-.68c1.18,3.39,2.32,6.95,3.42,10.66l-2.35.71-.68-2.13c-5.83.71-11.43,1.44-16.79,2.19l-.41-2.79c2.61-.26,5.56-.59,8.86-1.01v-12.71h-4.27v2.98h-2.52v-22.8ZM314.04,1115.97v14.9h4.27v-14.9h-4.27ZM325.14,1115.97h-4.27v14.9h4.27v-14.9ZM340.48,1146.89c-3.26,2.61-6.74,5.1-10.42,7.49-.47-.69-1.08-1.44-1.8-2.24,3.63-1.97,7.03-4.38,10.2-7.22l2.02,1.97h0ZM360.31,1144.43c-.95-.95-1.91-1.87-2.87-2.76-2.44.04-5.69.13-9.73.27v7.96c.09,3.72-1.69,5.64-5.33,5.77-.73.04-1.47.06-2.21.08-.36.02-.77.03-1.2.03h-1.72c-.11-.89-.29-1.82-.55-2.79,1.49.11,3.12.16,4.87.16,2.41.09,3.56-1.03,3.47-3.36v-7.71c-1.4.07-3.37.16-5.91.25-1.42.05-2.44.1-3.06.14-.62.02-1.67.11-3.14.27-.47.05-.81.09-1.01.11l-1.09-2.73c1.49-.36,3.04-.93,4.65-1.7,3.06-1.42,6.51-3.17,10.34-5.25-5.52.15-9.61.33-12.25.55l-1.01-2.79c1.31-.4,2.56-.88,3.75-1.45,2.08-1.02,4.82-2.69,8.23-5h-12.36v-18.13h28.11v18.13h-14.96l2.08,1.37c-4.43,2.57-7.83,4.39-10.2,5.47,5.63-.26,9.83-.4,12.61-.44,2.37-1.37,4.27-2.52,5.71-3.47l2.19,1.91c-6.45,3.7-13.33,7.32-20.62,10.86,2.1-.07,5.24-.19,9.43-.36,3.94-.16,6.8-.27,8.59-.33-.44-.42-1.12-1.04-2.05-1.86-.66-.56-1.15-1-1.48-1.31l2.02-1.7c2.81,2.39,5.74,5.04,8.8,7.96l-2.08,1.86ZM334.77,1108.64v5.66h10.14v-5.66h-10.14ZM334.77,1116.54v5.66h10.14v-5.66h-10.14ZM357.63,1108.64h-10.14v5.66h10.14v-5.66ZM347.48,1116.54v5.66h10.14v-5.66h-10.14ZM360.96,1153.89c-3.01-2.42-6.31-4.83-9.9-7.22l1.72-2.02c3.35,2.19,6.7,4.52,10.04,7l-1.86,2.24h0ZM365.91,1150.59h52.12v2.79h-52.12v-2.79ZM373.46,1138.61c3.75-.22,8.55-.41,14.38-.57-.11,1-.16,1.9-.16,2.68-4.48.05-9.35.26-14.6.63-.69.05-1.62.18-2.79.38-.16.02-.28.04-.36.05l-1.39-3.17c1.64-.93,3.12-2.17,4.43-3.72,2.35-2.68,5.13-6.19,8.34-10.53-4.38.05-7.36.16-8.97.3-2.3.16-3.58.31-3.86.44l-1.34-2.9c1.4-.97,2.62-2.11,3.64-3.42,3.7-4.68,6.95-9.49,9.73-14.41l3.09,1.29c-3.94,5.82-7.98,11.27-12.11,16.35.46-.02,1.14-.04,2.05-.05,4.36-.11,7.56-.18,9.6-.22.18-.26.46-.65.82-1.18,1.8-2.57,3.14-4.53,4.02-5.88l2.95,1.39c-6.23,8.62-12.06,16.13-17.47,22.53h0ZM415.52,1137.76c-.11.89-.16,1.82-.16,2.79-5.54,0-11.14.17-16.79.52-2.52.15-4.17.29-4.95.44l-1.39-3.2c1.77-1.13,3.41-2.54,4.92-4.24,2.99-3.28,5.85-6.55,8.59-9.82-2.73.05-6.12.17-10.14.36-1.71.07-2.85.18-3.42.33l-1.29-2.93c1.35-.78,2.63-1.86,3.86-3.23,3.72-4.45,7.14-9.2,10.25-14.25l3.04,1.48c-4.17,5.82-8.32,11.13-12.44,15.94.49,0,1.28,0,2.35-.03,4.3-.07,7.59-.14,9.87-.19,1.73-2.19,3.34-4.31,4.81-6.37l2.9,1.61c-6.09,7.44-12.27,14.57-18.54,21.38,1.28-.04,3.26-.1,5.96-.19,6.58-.22,10.77-.36,12.58-.41h0Z" style="fill: #040000;"/>
    <path d="M149.24,1229.77v17.69c.02,7.6-.36,13.28-1.12,17.04-.69,3.79-2.19,7.71-4.48,11.76-.53-.55-1.33-1.22-2.41-2.02,2.08-3.34,3.45-6.84,4.13-10.53.75-3.68,1.11-9.13,1.09-16.35v-20.21h39.57v25.02c-.02,9.7.53,15.9,1.64,18.59.51,1.46,1.14,2.21,1.89,2.24.78.07,1.31-.9,1.59-2.93.36-2.33.65-5.19.85-8.56.88.33,1.77.61,2.68.85-.27,3.63-.61,6.52-1.01,8.67-.6,3.46-1.97,5.19-4.1,5.17-2.01-.09-3.51-1.46-4.51-4.1-1.28-2.9-1.88-9.56-1.8-19.99v-22.34h-33.99ZM154.63,1244.62h10.28v-6.56c-2.28.13-5.51.26-9.71.38-.77.02-1.33.04-1.7.05-.18-1.13-.36-2.01-.52-2.62,7.98-.15,16.41-.54,25.27-1.18l.55,2.62c-3.81.26-7.54.46-11.18.63v6.67h10.28v14.22h-10.28v7.96c.84-.07,2.07-.18,3.69-.33,1.73-.16,3-.28,3.8-.36-.15-.44-.39-1.09-.74-1.97-.36-.98-.64-1.73-.82-2.24l2.62-.77c1.6,4.05,3.06,7.98,4.38,11.81l-2.82.96c-.31-1-.77-2.42-1.37-4.27-.16-.44-.28-.77-.36-1.01-.47.04-1.19.1-2.13.19-11.74,1.08-18.9,1.8-21.49,2.16l-.57-2.9c1.4-.09,4.01-.29,7.82-.6,2.31-.18,4.07-.32,5.28-.41v-8.23h-10.28v-14.22ZM157.25,1247.13v9.19h7.66v-9.19h-7.66ZM175.27,1247.13h-7.66v9.19h7.66v-9.19ZM202.89,1229.14h21.22c-.4-.98-1.05-2.4-1.94-4.24-.09-.18-.16-.32-.19-.41l2.98-.93c.82,1.71,1.66,3.57,2.52,5.58h19.14v11.89h-40.82v4.46c.05,8.24-.31,14.26-1.09,18.07-.73,4.01-2.34,8.17-4.84,12.47-.8-.71-1.7-1.37-2.68-1.97,2.37-3.86,3.9-7.58,4.59-11.16.78-3.5,1.16-8.93,1.12-16.3v-17.47ZM205.79,1231.85v6.48h37.93v-6.48h-37.93ZM223.1,1249.43h-14.44v-2.65h17.25v21.85c.16,4.74-1.95,7.07-6.34,7-1.06.02-2.08.04-3.06.05h-3.25c-.09-.8-.28-1.86-.57-3.17,1.8.15,3.92.22,6.34.22,1.53.02,2.59-.3,3.17-.96.62-.62.92-1.74.9-3.36v-4.87c-5.09,1.6-10.45,3.37-16.08,5.3l-1.04-2.73c7.02-2.02,12.72-3.76,17.12-5.2v-11.48ZM216.89,1260.45c-2.57-2.57-4.85-4.71-6.84-6.43l1.86-1.75c2.33,1.91,4.7,3.98,7.11,6.21l-2.13,1.97h0ZM244.32,1249.43h-15.29v-2.65h18.1v21.79c.18,4.83-1.9,7.2-6.23,7.11-.8.02-1.7.04-2.68.05h-3.91c-.09-1.04-.26-2.1-.52-3.17,2.37.15,4.5.22,6.4.22,2.9.16,4.27-1.35,4.13-4.54v-5.61c-2.95.95-7.43,2.45-13.43,4.51-.53.18-.92.32-1.18.41l-1.01-2.73c3.9-1.13,9.11-2.77,15.61-4.92v-10.47ZM236.39,1260.23c-2.24-2.3-4.5-4.4-6.78-6.32l1.89-1.75c2.57,2.15,4.9,4.2,7,6.15l-2.11,1.91h0ZM259.11,1234.53c-1.08,3.15-2.18,5.93-3.31,8.34l-2.52-1.34c2.68-5.56,4.73-11.51,6.15-17.86l2.82.44c-.73,2.81-1.5,5.42-2.3,7.85h12.25v2.57h-6.21c-.02,4.19-.13,8.58-.33,13.15h7.82v2.57h-8.04c-.15,1.84-.39,4.05-.74,6.62l1.72-1.23c1.77,2.28,4.19,5.72,7.27,10.34.18.29.32.5.41.63l-2.62,1.64c-1.64-2.81-3.94-6.33-6.89-10.58-.97,6.62-3.96,12.78-8.97,18.48-.49-.62-1.28-1.35-2.35-2.19,5.92-5.94,9.06-13.84,9.41-23.71h-9.35v-2.57h9.52c.18-2.73.32-7.12.41-13.15h-4.16ZM271.93,1271.55h18.7c2.7-4.87,5.1-9.62,7.22-14.25l2.93,1.12c-2.15,4.25-4.48,8.62-7,13.12h12.41v2.68h-34.26v-2.68ZM273.96,1226.73h31.64v2.71h-31.64v-2.71ZM276.42,1236.88h26.09v17.8h-26.09v-17.8ZM283.47,1269.2c-.98-2.26-2.8-5.81-5.44-10.64l2.6-1.31c2.33,4.28,4.21,7.79,5.63,10.53l-2.79,1.42h0ZM279.26,1239.56v12.44h20.4v-12.44h-20.4ZM311.53,1233.52h6.78v-9.9h2.57v9.9h6.78v19.82h-6.78v12.44c1.13-.13,2.69-.34,4.68-.63.13-.02.23-.04.3-.05-.33-1.17-.85-2.84-1.56-5.03-.15-.42-.26-.74-.33-.96l2.3-.68c1.18,3.39,2.32,6.95,3.42,10.66l-2.35.71-.68-2.13c-5.83.71-11.43,1.44-16.79,2.19l-.41-2.79c2.61-.26,5.56-.59,8.86-1.01v-12.71h-4.27v2.98h-2.52v-22.8ZM314.04,1235.98v14.9h4.27v-14.9h-4.27ZM325.14,1235.98h-4.27v14.9h4.27v-14.9ZM340.48,1266.9c-3.26,2.61-6.74,5.1-10.42,7.49-.47-.69-1.08-1.44-1.8-2.24,3.63-1.97,7.03-4.38,10.2-7.22l2.02,1.97h0ZM360.31,1264.44c-.95-.95-1.91-1.87-2.87-2.76-2.44.04-5.69.13-9.73.27v7.96c.09,3.72-1.69,5.64-5.33,5.77-.73.04-1.47.06-2.21.08-.36.02-.77.03-1.2.03h-1.72c-.11-.89-.29-1.82-.55-2.79,1.49.11,3.12.16,4.87.16,2.41.09,3.56-1.03,3.47-3.36v-7.71c-1.4.07-3.37.16-5.91.25-1.42.05-2.44.1-3.06.14-.62.02-1.67.11-3.14.27-.47.05-.81.09-1.01.11l-1.09-2.73c1.49-.36,3.04-.93,4.65-1.7,3.06-1.42,6.51-3.17,10.34-5.25-5.52.15-9.61.33-12.25.55l-1.01-2.79c1.31-.4,2.56-.88,3.75-1.45,2.08-1.02,4.82-2.69,8.23-5h-12.36v-18.13h28.11v18.13h-14.96l2.08,1.37c-4.43,2.57-7.83,4.39-10.2,5.47,5.63-.26,9.83-.4,12.61-.44,2.37-1.37,4.27-2.52,5.71-3.47l2.19,1.91c-6.45,3.7-13.33,7.32-20.62,10.86,2.1-.07,5.24-.19,9.43-.36,3.94-.16,6.8-.27,8.59-.33-.44-.42-1.12-1.04-2.05-1.86-.66-.56-1.15-1-1.48-1.31l2.02-1.7c2.81,2.39,5.74,5.04,8.8,7.96l-2.08,1.86ZM334.77,1228.65v5.66h10.14v-5.66h-10.14ZM334.77,1236.55v5.66h10.14v-5.66h-10.14ZM357.63,1228.65h-10.14v5.66h10.14v-5.66ZM347.48,1236.55v5.66h10.14v-5.66h-10.14ZM360.96,1273.9c-3.01-2.42-6.31-4.83-9.9-7.22l1.72-2.02c3.35,2.19,6.7,4.52,10.04,7l-1.86,2.24h0ZM365.39,1273.9c1.33-4.7,2.38-9.13,3.14-13.29l2.9.46c-.69,3.48-1.7,7.99-3.01,13.54l-3.04-.71ZM384.84,1258.48c-.4-.71-.92-1.73-1.56-3.06-6.12.36-11.38.79-15.75,1.29l-1.23-2.98c2.17-1.33,5.66-5.06,10.47-11.18-4.96.29-8.29.55-9.98.77l-1.18-2.9c3.12-3.03,7.08-8.48,11.89-16.35l3.01,1.5c-3.54,4.94-7.23,9.85-11.07,14.74,1.7-.04,4.83-.21,9.41-.52.77-1,1.95-2.62,3.55-4.87.58-.82,1.02-1.43,1.31-1.83l2.84,1.61c-5.85,7.51-11.02,13.8-15.5,18.87,3.57-.18,7.17-.42,10.8-.71-.95-1.79-1.84-3.42-2.68-4.89l2.41-1.29c1.77,2.95,3.75,6.44,5.93,10.47l-2.68,1.34ZM376.33,1272.21c-.38-4.56-.76-8.32-1.12-11.29l2.62-.3c.4,2.88.85,6.6,1.34,11.16l-2.84.44ZM385.11,1268.19c-1.02-2.75-2.14-5.44-3.36-8.07l2.41-.96c1.7,3.5,2.89,6.1,3.58,7.79l-2.62,1.23ZM386.8,1270.32c2.75-3.17,5.2-6.64,7.33-10.42l2.46,1.34c-2.28,3.79-4.78,7.39-7.49,10.8-.73-.62-1.5-1.19-2.3-1.72h0ZM411,1250.71c-1.59-2.04-2.86-3.65-3.83-4.81l2.24-1.59c3.08,3.61,6.07,7.29,8.97,11.05l-2.41,1.78c-.27-.36-.67-.88-1.18-1.56-.47-.62-.83-1.08-1.07-1.39-2.21.07-5.2.15-9,.22h-.55v14.9c.09,3.83-1.77,5.81-5.58,5.93-.64.04-1.39.06-2.24.08-.42.02-.88.03-1.37.03h-1.72c-.13-.98-.33-2-.6-3.04,2.19.13,3.81.19,4.87.19,2.61.07,3.86-1.01,3.75-3.25v-14.74c-.89.04-2.23.08-4.02.14-1.57.05-2.77.1-3.61.14-1.37.04-2.69.17-3.96.41l-1.45-2.98c1.68-.69,3.09-1.51,4.24-2.46,2.59-1.93,6.18-4.96,10.77-9.08-3.26.05-6.64.15-10.14.27-1.33.07-2.52.19-3.58.36l-1.23-2.62c1.17-.64,2.19-1.35,3.06-2.13,3.63-3.3,7.59-7.59,11.89-12.88l2.73,1.61c-3.81,4.19-7.94,8.5-12.39,12.93,3.85-.02,8.05-.11,12.61-.27,3.03-2.86,5.18-4.95,6.45-6.26l2.62,1.78c-5.98,5.83-13,12.03-21.05,18.59,2.15-.04,7.46-.16,15.91-.38.71-.02,1.23-.04,1.56-.05-.16-.2-.4-.5-.71-.9h0ZM415.98,1271.25c-2.68-3.61-5.37-7-8.07-10.17l2.11-1.64c2.52,2.86,5.29,6.19,8.31,9.98l-2.35,1.83h0Z" style="fill: #040000;"/>
    <path d="M160.75,1361.64c-.55-.35-1.15-.82-1.82-1.41-.67-.59-1.32-1.26-1.97-2-.65-.74-1.24-1.52-1.76-2.34-.53-.82-.91-1.63-1.15-2.43-.2.88-.56,1.84-1.07,2.9-.51,1.06-1.11,2.1-1.79,3.13-.68,1.03-1.42,2-2.21,2.9s-1.56,1.65-2.31,2.26l-2.41-1.94c1.18-.84,2.28-1.84,3.28-3.01,1-1.17,1.87-2.45,2.61-3.84s1.31-2.88,1.72-4.47.62-3.23.62-4.92h-7.52v-2.65h31.5v2.65h-7.57c0,2.11.24,4.03.71,5.76.47,1.72,1.13,3.27,1.96,4.65.83,1.38,1.81,2.58,2.94,3.62,1.13,1.04,2.35,1.92,3.66,2.65l-2.05,2.24c-.86-.53-1.73-1.18-2.61-1.97-.88-.78-1.72-1.63-2.5-2.54-.78-.91-1.48-1.87-2.09-2.88-.61-1.01-1.06-2.02-1.35-3.02-.26,1.04-.67,2.15-1.26,3.32-.58,1.18-1.26,2.34-2.04,3.5-.77,1.16-1.61,2.25-2.52,3.28-.9,1.03-1.8,1.91-2.69,2.64l-2.49-1.94c.35-.24.71-.52,1.08-.85.37-.33.74-.67,1.11-1.03.36-.36.72-.72,1.05-1.11.34-.38.65-.77.94-1.15ZM165.59,1392.82c-1.48.13-3.58.21-6.3.26-2.73.05-6.18.07-10.35.07v-11.84h12.36v-6.4h-12.22v-2.62h15.29v11.51h-12.33v6.75h4.07c2.11,0,3.96-.02,5.55-.07,1.59-.05,2.84-.11,3.77-.21l.16,2.54ZM155.34,1346.47c.02,1.57.24,3.03.67,4.38.43,1.35.98,2.56,1.67,3.64.68,1.08,1.44,2.01,2.28,2.82.84.8,1.67,1.45,2.49,1.94.58-.88,1.1-1.75,1.54-2.61.45-.87.82-1.8,1.11-2.79.29-.99.51-2.09.66-3.28.15-1.19.22-2.56.22-4.09h-10.64ZM168.36,1393.2v-20.92h3.01v7.68h10.66v-7.68h2.98v20.92h-16.65ZM182.03,1382.53h-10.66v8.12h10.66v-8.12ZM181.86,1369.55v-27.78h3.17v13.7h7.9v2.62h-7.9v11.46h-3.17ZM199.66,1372.36v-2.76h48.67v2.76h-48.67ZM224,1363.59c-2.42,0-4.64-.23-6.66-.7-2.01-.46-3.75-1.14-5.2-2.02-1.45-.88-2.58-1.96-3.38-3.24-.8-1.28-1.2-2.73-1.2-4.35s.41-3.04,1.22-4.32c.81-1.28,1.94-2.36,3.39-3.25,1.45-.89,3.18-1.57,5.2-2.04,2.01-.46,4.22-.7,6.63-.7s4.62.24,6.63.71c2.01.47,3.75,1.15,5.2,2.04,1.45.88,2.58,1.96,3.39,3.24.81,1.28,1.22,2.72,1.22,4.32s-.4,3.07-1.2,4.35c-.8,1.28-1.93,2.36-3.38,3.24-1.45.88-3.18,1.56-5.2,2.02-2.01.46-4.23.7-6.66.7ZM207.79,1392.71v-14.16h3.17v11.4h30.52v2.76h-33.69ZM224,1345.57c-2.13,0-4.03.2-5.69.59-1.66.39-3.05.93-4.17,1.61s-1.97,1.5-2.56,2.45c-.58.95-.88,1.97-.88,3.06s.29,2.11.88,3.06c.58.95,1.44,1.76,2.56,2.45s2.51,1.22,4.17,1.61c1.66.39,3.55.59,5.69.59s4.03-.2,5.69-.59c1.66-.39,3.05-.93,4.17-1.61s1.97-1.5,2.56-2.45c.58-.95.88-1.97.88-3.06s-.29-2.11-.88-3.06c-.58-.95-1.44-1.76-2.56-2.45s-2.51-1.22-4.17-1.61c-1.66-.39-3.55-.59-5.69-.59ZM300.06,1369.85c-1,.2-2.18.36-3.53.49-1.35.13-2.85.19-4.51.19h-20.45v-2.76h6.26l-.3-15.78h3.12l.27,15.78h8.86l.36-15.78h3.06l-.36,15.78c1.57,0,2.93-.05,4.09-.15,1.16-.1,2.08-.23,2.78-.4l.36,2.62ZM272.96,1348.16v-2.76h24.55v2.76h-24.55ZM283.1,1392.46v-15.83h3.17v13.07h31.28v2.76h-34.45ZM312.77,1379.12v-16.98h-7.33v15.83h-3.14v-35.11h3.14v16.54h7.3v-17.64h3.17v37.35h-3.14ZM376.2,1377.09c-.47.13-1.09.25-1.85.36-.76.11-1.56.21-2.41.3-.85.09-1.7.17-2.57.23-.87.06-1.64.1-2.31.12-.75.04-1.69.07-2.82.1-1.13.03-2.5.05-4.12.05-1.61,0-3.5.02-5.67.03-2.17,0-4.67.01-7.49.01v-32.05h3.17v29.29h11.29c3.5,0,6.43-.1,8.8-.3,2.37-.2,4.2-.46,5.5-.77l.46,2.62ZM383.91,1366.27v28.25h-3.17v-52.75h3.17v21.77h9.08v2.73h-9.08ZM428.23,1380.7c-1.42-1-2.84-2.2-4.25-3.58-1.41-1.39-2.73-2.88-3.94-4.47-1.21-1.59-2.28-3.25-3.21-4.96-.93-1.71-1.63-3.39-2.11-5.03-.42,1.68-1.07,3.4-1.96,5.15-.88,1.76-1.91,3.47-3.09,5.13-1.18,1.66-2.46,3.22-3.86,4.69-1.39,1.47-2.81,2.74-4.25,3.81l-2.65-2.13c1.86-1.26,3.65-2.79,5.36-4.59,1.71-1.8,3.23-3.8,4.54-5.99s2.36-4.53,3.14-7.01c.78-2.49,1.18-5.05,1.18-7.7v-8.53h3.23v8.34c0,2.61.39,5.12,1.16,7.55.77,2.42,1.81,4.69,3.12,6.81,1.3,2.11,2.82,4.04,4.54,5.77,1.72,1.73,3.53,3.19,5.43,4.38l-2.38,2.38ZM439.96,1366.27v28.25h-3.17v-52.75h3.17v21.77h9.08v2.73h-9.08Z" style="fill: #040000;"/>
    <path d="M147.44,1507c-2.87,0-4.98-1.01-4.98-3.2,0-.79.27-1.8.9-3.2,1.15-2.43,4.02-4.92,8.72-7.52l-.16-2.05c.68-.79,1.42-1.59,2.16-2.24h.3c.11,4.24.11,8.5.16,12.74.03,1.91.22,3.14,1.04,3.86.63.55,1.67.71,2.87.71h.66v3.5h-.6c-2.68,0-4.62-.71-5.66-3.8-1.56.68-3.28,1.2-5.41,1.2ZM152.28,1496.12c-4.87,2.52-7.41,4.54-7.41,5.99,0,1.07,1.64,1.53,3.5,1.53,1.18,0,2.43-.25,4.05-.77l-.14-6.75ZM149.05,1486.44c-1.12-1.07-2.11-1.94-3.2-2.84.71-.98,1.48-1.89,2.16-2.6,1.12.88,2.05,1.78,3.12,2.93-.77,1.09-1.31,1.8-2.08,2.52ZM154.33,1486.08c-1.12-1.07-2.11-1.94-3.2-2.84.71-.98,1.48-1.89,2.16-2.6,1.12.88,2.05,1.78,3.12,2.93-.77,1.09-1.31,1.8-2.08,2.52ZM160.76,1506.1c4.43,0,8.97-1.56,14.6-4.95l.03-.11c-3.17-1.18-6.07-1.91-8.59-1.91-1.56,0-2.71.49-3.47,1.37l.33,1.37-.82,2.46h-.27l-1.34-3.61c.22-3.04,2.65-4.92,5.93-4.92,1.83,0,4.7.66,8.97,2.38,1.31.52,2.95.85,4.68.88l2.21-.03.08.05-1.45,2.87c-2.3-.05-3.83.44-4.73,1.01l-4.57,2.98c-3.66,2.38-7.57,3.66-11.84,3.66h-1.42c-1.5,0-1.91-1.09-1.91-1.83,0-.66.44-1.67,1.91-1.67h1.67ZM196.15,1506.73c-3.2,0-5.96-1.5-5.96-5.14,0-1.8.68-3.34,1.75-4.7,1.26-1.37,2.62-2.27,3.91-2.27,1.59,0,3.06,1.12,4.13,3.09,1.04,1.89,1.75,4.48,1.75,7.52,0,2.54-.63,4.95-2.08,7.19-2.43,3.69-4.76,5.2-7.03,5.2-2.52,0-5.11-.82-7.85-2.68l.41-.88c1.34.68,2.65.93,3.99.93,2.76,0,5.52-1.39,8.04-4.18,1.23-1.34,2.38-2.95,2.57-4.57-1.18.33-2.41.49-3.64.49ZM194.94,1498.06c-1.29,0-3.06,1.42-3.06,2.43,0,1.7,2.41,2.9,4.65,2.9,1.04,0,2.11-.11,3.09-.36-.74-2.76-2.32-4.98-4.68-4.98ZM215.13,1500.19c1.56,3.75,2.98,5.91,6.15,5.91h.49v3.5h-.57c-1.2,0-2.08-.25-2.76-.88h-.11c.03.33.05.66.05.96,0,1.29-.36,2.93-1.09,4.24-2.16,3.8-4.51,5.44-6.54,5.44s-4.57-.93-6.84-2.13l.41-.93c.74.36,1.75.6,3.14.6,3.66,0,8.48-4.16,9.08-8.2-.14-.33-.38-.77-.74-1.23-1.07-1.5-1.75-2.76-2.38-4.07.55-1.26,1.04-2.27,1.5-3.17l.19-.03ZM222.55,1506.1c2.87,0,3.8-1.42,4.62-4.02,1.07-3.42,3.23-5.2,5.06-5.2,1.34,0,2.35.49,3.28,1.83.68.98,1.26,2.02,2.73,5.14.6,1.29,2.05,2.24,4.27,2.24h.46v3.5h-.52c-1.59,0-3.06-.55-4.21-2.38h-.11c-.16.88-.44,1.59-.88,2.08-.57.6-1.18.9-1.8.9-2.11.03-5.55-1.48-7.74-3.83h-.11c-.77,1.75-2.49,3.23-5.44,3.23h-.41c-1.5,0-1.91-1.09-1.91-1.83,0-.66.44-1.67,1.91-1.67h.79ZM231.77,1505.63c1.23.71,2.82,1.2,3.77,1.2.52,0,1.01-.05,1.01-.68,0-1.07-.66-2.54-1.37-3.64-1.07-1.61-2.32-2.46-3.5-2.46-1.5,0-2.65,1.04-3.14,2.46.27,1.01,2.02,2.43,3.23,3.12ZM243.53,1506.1c1.12,0,2.32-.38,3.17-.85.82-.46,1.31-1.34,1.31-3.28,0-5.5-.3-10.42-.71-16.71l-.08-1.37,2.43-2.46.14.05c.52,6.43.55,13.12.55,21.49,0,1.26.88,3.12,4.05,3.12h.36v3.5h-.57c-2.54,0-4.46-.88-5.33-2.9h-.11c-.85,1.56-2.62,2.9-5.28,2.9h-.46c-1.5,0-1.91-1.09-1.91-1.83,0-.66.44-1.67,1.91-1.67h.55ZM255.35,1506.1c.88,0,1.89-.11,3.06-.74.96-.55,1.45-1.53,1.45-2.95-.05-4.38-.36-9.16-.79-14.19-.11-1.26-.27-2.41-.27-3.42,0-.6.27-1.23.82-1.83.38-.46.9-.98,1.5-1.5l.19.14c-.05,1.78.79,3.91,2.21,6.26-.49.46-1.07.93-1.72,1.39.11,3.14.36,6.45.36,9.49s-.3,5.22-1.09,6.86c-.57,1.39-1.23,2.54-2.49,3.17-1.07.55-2.35.82-3.42.82h-.41c-1.5,0-1.91-1.09-1.91-1.83,0-.66.44-1.67,1.91-1.67h.6Z" style="fill: #040000;"/>
    <text transform="translate(265.22 1509.6)" style="fill: #040000; font-family: MusticaPro-Light, &apos;Mustica Pro&apos;; font-size: 56px; font-weight: 300;"><tspan x="0" y="0"> </tspan></text>
    <path d="M300.09,1496.5c.11.6.33,1.91.74,4.27.38,2.08,1.09,3.96,2.32,4.73.71.38,1.45.6,2.21.6h.36v3.5h-.49c-3.25,0-4.62-1.48-5.71-5.91l-.68-2.79h-.14c-.82,1.67-2.24,3.04-4.05,2.93.33,1.39.38,2.54.38,3.77,0,.33,0,.66-.05,1.42-.05.55-.49,2.08-1.56,3.66-1.83,2.71-3.96,4.16-5.39,4.16-2.38,0-4.51-.85-7.14-2.16l.38-.88c.71.33,1.64.68,2.57.68,2.82,0,5.36-1.37,7.49-3.88,1.26-1.48,2.21-2.82,2.21-3.86-.63-1.72-2-3.14-3.42-4.65l.9-3.5h.25c.71.66,1.42,1.29,2,1.72.63.44,1.39.6,2.3.6.63,0,1.37-.27,1.94-.74.88-.66,1.39-2.24,2.3-3.69h.27ZM296.84,1521.33c-1.12-1.07-2.11-1.94-3.2-2.84.71-.98,1.48-1.89,2.16-2.6,1.12.88,2.05,1.78,3.12,2.93-.77,1.09-1.31,1.8-2.08,2.52ZM302.11,1520.97c-1.12-1.07-2.11-1.94-3.2-2.84.71-.98,1.48-1.89,2.16-2.6,1.12.88,2.05,1.78,3.12,2.93-.77,1.09-1.31,1.8-2.08,2.52ZM306.31,1506.1c2.32,0,4.18-.77,4.51-2.41.22-1.07.44-2.11.71-3.12.6-.57,1.2-1.01,1.8-1.42l.16.16c-.25.88-.44,1.75-.44,2.57,0,1.42.36,2.27,1.5,3.04,1.56-2.38,3.25-4.79,5.66-6.89,1.75-1.53,3.69-2.82,6.12-2.82,3.88,0,6.18,2.84,6.18,6.04,0,1.56-.6,3.25-1.39,4.84h3.64v3.5h-.71c-2.73,0-5.28-.27-8.18-.96-1.67.52-3.55.96-6.37.96-3.55,0-6.23-.85-7.74-2.87h-.08c-1.48,2.3-3.83,2.87-5.66,2.87h-.33c-1.5,0-1.91-1.09-1.91-1.83,0-.66.44-1.67,1.91-1.67h.6ZM321.1,1506.1c2.76,0,5.63-.63,7.11-1.23,1.34-.55,2.24-1.26,2.24-2.05-.36-2.35-2.68-4.07-5.11-4.07-3.23,0-6.23,2.65-9.24,6.78.98.33,2.57.57,5,.57ZM337.06,1506.1c2.35,0,4.4-.08,5.96-.55,1.75-.52,3.23-1.56,3.23-2.27,0-.19,0-.41-.05-.6-.98.11-2.11.11-3.09.11-3.17,0-5.61-.85-6.56-2.95-.25-.57-.41-1.23-.41-1.97,0-2.02.74-4.02,2.05-5.39,1.09-1.12,2.3-1.83,3.53-1.83,2.21,0,3.99,2.11,5.22,5.41.68,1.8,1.15,3.88,1.15,6.51,0,1.75-.41,3.23-1.34,4.32-1.72,1.97-4.89,2.71-9.76,2.71h-2.21c-1.5,0-1.91-1.09-1.91-1.83,0-.66.44-1.67,1.91-1.67h2.3ZM337.97,1488.08c-1.12-1.07-2.11-1.94-3.2-2.84.71-.98,1.48-1.89,2.16-2.6,1.12.88,2.05,1.78,3.12,2.93-.77,1.09-1.31,1.8-2.08,2.52ZM341.11,1494.23c-1.8,0-3.28,1.39-3.28,2.43,0,2.21,3.61,2.9,7.93,2.87-.55-2.6-2.43-5.3-4.65-5.3ZM343.24,1487.72c-1.12-1.07-2.11-1.94-3.2-2.84.71-.98,1.48-1.89,2.16-2.6,1.12.88,2.05,1.78,3.12,2.93-.77,1.09-1.31,1.8-2.08,2.52Z" style="fill: #040000;"/>
    <text transform="translate(350.5 1509.6)" style="fill: #040000; font-family: MusticaPro-Light, &apos;Mustica Pro&apos;; font-size: 56px; font-weight: 300;"><tspan x="0" y="0"> </tspan></text>
    <path d="M377.83,1495.49l1.94,3.69c.71,1.37,1.37,2.84,1.37,5.2v3.01c0,2.43-1.31,5.03-3.45,7.6-1.67,1.75-3.14,2.49-4.51,2.49-2.02,0-4.35-.74-7.03-2.11l.3-.93c.85.27,1.83.49,3.04.49,3.86-.03,7.79-3.34,9.6-7.38.22-.46.3-.9.3-1.2,0-.46-.22-.98-.38-1.45-.98-2.19-2.08-4.18-3.28-6.02.63-1.18,1.26-2.3,1.94-3.42l.16.03ZM395.22,1505.47c1.53-.85,2.16-2.41,3.14-4.35.68-1.37,1.29-2.54,2.49-4.18h.27c1.64,2.16,3.25,4.16,5.2,6.21,2,2.11,3.86,2.95,5.69,2.95h.33v3.5h-.33c-2.32,0-3.91-.9-5.55-2.84l-.08.03v.44c0,3.77-1.86,5.66-3.42,5.66-2.65,0-5.17-2.65-5.77-5.88h-.14c-1.01,1.53-2.49,2.6-4.65,2.6-1.59,0-2.98-.46-4.1-1.59-1.67-1.7-1.8-3.61-1.8-7.63,0-5.2-.3-10.64-.71-16.43.93-1.01,1.78-1.91,2.57-2.54l.19.11c.44,5.99.44,13.07.44,19.8v1.56c0,1.75.98,2.54,2.05,2.93.68.25,1.39.3,1.75.3.66,0,1.7-.22,2.43-.63ZM400.27,1500.66c-.85,1.59-1.34,2.6-1.34,3.72,0,2.13,1.78,4.87,4.27,4.87.68,0,1.48-.82,1.48-2,0-.77-.16-1.34-.93-2.38-1.01-1.42-2.19-2.73-3.34-4.21h-.14ZM440.33,1509.6h-.68c-3.39,0-4.95-1.04-5.63-2.57h-.16c-1.53,1.8-3.09,2.57-4.68,2.57-1.18,0-2.54-.36-2.98-2.27h-.11c-1.23,1.34-2.71,2.27-4.73,2.27-1.5,0-2.46-.71-2.62-2.32h-.11c-1.67,1.94-3.96,2.32-5.82,2.32h-.46c-1.5,0-1.91-1.09-1.91-1.83,0-.66.44-1.67,1.91-1.67h.93c2.49-.03,4.4-.68,5.77-2.54l1.37-2.13,2.11-.74.11.14c-1.04,1.8-1.78,3.09-1.78,3.91s.63,1.37,1.48,1.37c.79,0,1.67-.27,2.38-.82.68-.49,1.37-1.45,1.78-2.41l.66-1.61,2.08-.96.11.11c-.82,2.08-1.12,3.09-1.12,4.1,0,.74.46,1.59,1.53,1.59.9,0,1.48-.33,1.89-.6.82-.55,1.26-1.45,1.59-2.62.11-.44.27-.96.55-2.16l2.08-1.39.11.08c-.36,1.2-.68,2.73-.68,3.75,0,2.16,1.89,2.95,4.48,2.95h.6v3.5ZM440.93,1506.1c2.02,0,3.61-1.39,4.59-4.84.3-1.09,1.01-2.21,2.02-3.31,1.01-.93,2.13-1.59,3.45-1.59,3.34,0,5.3,4.59,5.74,9.38-.57,2.49-1.59,3.53-2.9,3.53-2.71,0-5.41-1.23-8.12-3.23h-.19c-.71,2.41-2.27,3.55-4.73,3.55h-.46c-1.5,0-1.91-1.09-1.91-1.83,0-.66.44-1.67,1.91-1.67h.6ZM450.5,1505c1.04.44,2.16.79,3.25.79.41,0,.77-.05.88-.3-.79-4.13-2.6-5.96-4.32-5.96-1.56,0-2.87.88-3.66,2.68.82,1.23,2.21,2.11,3.86,2.79Z" style="fill: #040000;"/>
    <text transform="translate(561.2 2142.34)" style="fill: #221714; font-family: MusticaPro-Medium, &apos;Mustica Pro&apos;; font-size: 40px; font-weight: 500;"><tspan x="0" y="0">09</tspan></text>
  </g>
</svg>