<?xml version="1.0" encoding="UTF-8"?>
<svg id="_圖層_1" data-name="圖層 1" xmlns="http://www.w3.org/2000/svg" xmlns:xlink="http://www.w3.org/1999/xlink" viewBox="0 0 1170 2182.68">
  <defs>
    <clipPath id="clippath">
      <rect y="-174.66" width="1170" height="2532" style="fill: none;"/>
    </clipPath>
  </defs>
  <g style="clip-path: url(#clippath);">
    <g>
      <path d="M563.4,2127.94c0-9.24,4.24-14.8,11.28-14.8s11.28,5.56,11.28,14.8-4.24,14.8-11.28,14.8-11.28-5.56-11.28-14.8ZM574.68,2138.78c4.76,0,7.32-3.8,7.32-10.84s-2.56-10.84-7.32-10.84-7.32,3.76-7.32,10.84,2.56,10.84,7.32,10.84Z" style="fill: #221714;"/>
      <path d="M587.76,2135.86l3.64-1.52c.92,2.76,3.2,4.52,6.04,4.52,3.4,0,5.72-2.16,5.72-5.24,0-3.24-2.44-5.48-6-5.48-.56,0-1.08.08-1.56.2l-1.88-2.84,6.52-8h-10.76v-3.96h16.36v3.4l-6.28,7.68c4.48.72,7.56,4.28,7.56,9,0,5.36-4,9.12-9.76,9.12-4.44,0-8.12-2.64-9.6-6.88Z" style="fill: #221714;"/>
    </g>
    <g>
      <path d="M208.96,143.66h2.32l16.92,24.48v-24.48h2.4v28.79h-2.32l-16.92-24.48v24.48h-2.4v-28.79Z" style="fill: #040000;"/>
      <path d="M257.16,162.46c0,5.72-4.68,10.4-10.4,10.4s-10.4-4.68-10.4-10.4,4.64-10.4,10.4-10.4,10.4,4.64,10.4,10.4ZM246.76,170.42c4.4,0,7.96-3.56,7.96-7.96s-3.56-8-7.96-8-8,3.6-8,8,3.6,7.96,8,7.96Z" style="fill: #040000;"/>
      <path d="M263.32,143.26c.84,0,1.56.72,1.56,1.6s-.72,1.56-1.56,1.56-1.6-.68-1.6-1.56.72-1.6,1.6-1.6ZM262.12,172.46v-20h2.4v20h-2.4Z" style="fill: #040000;"/>
      <path d="M270.8,167.9c1.52,1.6,3.8,2.56,6.4,2.56,3.12,0,5.48-1.4,5.48-3.28,0-2.64-3.44-3.48-5.76-4.12-3.28-.88-7.36-1.8-7.36-5.64,0-3.24,2.96-5.36,7.08-5.36,3.12,0,6.04,1.24,7.96,3.24l-1.68,1.72c-1.8-1.76-3.84-2.52-6.28-2.52-2.88,0-4.64,1.24-4.64,2.84,0,2.08,2.88,2.68,5.76,3.44,3.44.92,7.32,2.2,7.32,6.36,0,3.36-3.32,5.72-7.96,5.72-3.12,0-5.92-1.12-8.04-3.24l1.72-1.72Z" style="fill: #040000;"/>
      <path d="M298.56,152.06c5.68,0,9.56,4.36,9.6,10.4,0,.44-.08.96-.08,1.4h-17.16c.6,3.84,3.8,6.56,8,6.56,2.44,0,4.76-.92,6.32-2.64l1.72,1.72c-2.08,2.2-4.96,3.36-7.96,3.36-6.12,0-10.64-4.48-10.64-10.4s4.36-10.4,10.2-10.4ZM290.84,161.46h14.84c-.36-4.16-3.24-7-7.16-7s-7.24,3-7.68,7Z" style="fill: #040000;"/>
      <path d="M327.48,143.66v26.4h15.76v2.4h-18.16v-28.79h2.4Z" style="fill: #040000;"/>
      <path d="M356.76,152.06c5.68,0,9.56,4.36,9.6,10.4,0,.44-.08.96-.08,1.4h-17.16c.6,3.84,3.8,6.56,8,6.56,2.44,0,4.76-.92,6.32-2.64l1.72,1.72c-2.08,2.2-4.96,3.36-7.96,3.36-6.12,0-10.64-4.48-10.64-10.4s4.36-10.4,10.2-10.4ZM349.04,161.46h14.84c-.36-4.16-3.24-7-7.16-7s-7.24,3-7.68,7Z" style="fill: #040000;"/>
      <path d="M371.28,152.46l7.6,17.04,7.6-17.04h2.64l-8.88,20h-2.68l-8.88-20h2.6Z" style="fill: #040000;"/>
      <path d="M401.68,152.06c5.68,0,9.56,4.36,9.6,10.4,0,.44-.08.96-.08,1.4h-17.16c.6,3.84,3.8,6.56,8,6.56,2.44,0,4.76-.92,6.32-2.64l1.72,1.72c-2.08,2.2-4.96,3.36-7.96,3.36-6.12,0-10.64-4.48-10.64-10.4s4.36-10.4,10.2-10.4ZM393.96,161.46h14.84c-.36-4.16-3.24-7-7.16-7s-7.24,3-7.68,7Z" style="fill: #040000;"/>
      <path d="M418.64,172.46h-2.4v-30h2.4v30Z" style="fill: #040000;"/>
    </g>
    <g>
      <path d="M208.96,323.66h11.68c5.12,0,8.84,3.88,8.84,9.24,0,3.84-1.96,6.96-4.96,8.36l5.44,11.2h-2.64l-5.16-10.52c-.48.12-1,.16-1.52.16h-9.28v10.36h-2.4v-28.79ZM211.36,339.7h9.28c3.72,0,6.44-2.88,6.44-6.84s-2.72-6.8-6.44-6.8h-9.28v13.64Z" style="fill: #040000;"/>
      <path d="M243.4,332.06c3.52,0,6.68,2.2,8,4.84v-4.44h2.4v20h-2.4v-4.44c-1.32,2.64-4.48,4.84-8,4.84-5.76,0-10.4-4.68-10.4-10.4s4.64-10.4,10.4-10.4ZM235.4,342.46c0,4.4,3.56,8,8,8s8-3.6,8-8-3.6-8-8-8-8,3.6-8,8Z" style="fill: #040000;"/>
      <path d="M257.96,332.46h3.44c.6,0,1-.4,1-.96v-4.4h2.4v5.36h6.44v2.4h-6.44v10.92c0,3.64.8,4.68,3.56,4.68,1.08,0,1.88-.12,2.88-.32v2.32c-.88.24-1.92.4-3.12.4-4.16,0-5.72-1.92-5.72-7v-11h-4.44v-2.4Z" style="fill: #040000;"/>
      <path d="M285.12,332.06c5.68,0,9.56,4.36,9.6,10.4,0,.44-.08.96-.08,1.4h-17.16c.6,3.84,3.8,6.56,8,6.56,2.44,0,4.76-.92,6.32-2.64l1.72,1.72c-2.08,2.2-4.96,3.36-7.96,3.36-6.12,0-10.64-4.48-10.64-10.4s4.36-10.4,10.2-10.4ZM277.4,341.46h14.84c-.36-4.16-3.24-7-7.16-7s-7.24,3-7.68,7Z" style="fill: #040000;"/>
      <path d="M308.76,332.06c3.52,0,6.68,2.2,8,4.84v-13.24h2.4v28.79h-2.4v-4.44c-1.32,2.64-4.48,4.84-8,4.84-5.76,0-10.4-4.68-10.4-10.4s4.64-10.4,10.4-10.4ZM300.76,342.46c0,4.4,3.56,8,8,8s8-3.6,8-8-3.6-8-8-8-8,3.6-8,8Z" style="fill: #040000;"/>
      <path d="M333.92,323.66h2.6l9.72,25.12,9.76-25.12h2.56l-11.16,28.79h-2.32l-11.16-28.79Z" style="fill: #040000;"/>
      <path d="M381.67,342.46c0,5.72-4.68,10.4-10.4,10.4s-10.4-4.68-10.4-10.4,4.64-10.4,10.4-10.4,10.4,4.64,10.4,10.4ZM371.28,350.42c4.4,0,7.96-3.56,7.96-7.96s-3.56-8-7.96-8-8,3.6-8,8,3.6,7.96,8,7.96Z" style="fill: #040000;"/>
      <path d="M389.04,352.46h-2.4v-30h2.4v30Z" style="fill: #040000;"/>
      <path d="M393.2,332.46h3.44c.6,0,1-.4,1-.96v-4.4h2.4v5.36h6.44v2.4h-6.44v10.92c0,3.64.8,4.68,3.56,4.68,1.08,0,1.88-.12,2.88-.32v2.32c-.88.24-1.92.4-3.12.4-4.16,0-5.72-1.92-5.72-7v-11h-4.44v-2.4Z" style="fill: #040000;"/>
      <path d="M420.56,332.06c3.52,0,6.68,2.2,8,4.84v-4.44h2.4v20h-2.4v-4.44c-1.32,2.64-4.48,4.84-8,4.84-5.76,0-10.4-4.68-10.4-10.4s4.64-10.4,10.4-10.4ZM412.56,342.46c0,4.4,3.56,8,8,8s8-3.6,8-8-3.6-8-8-8-8,3.6-8,8Z" style="fill: #040000;"/>
      <path d="M446.32,332.06c3.52,0,6.68,2.2,8,4.84v-4.44h2.4v19.6c0,5.96-4.04,9.6-10.72,9.6-3.12,0-6.44-1.08-8.84-3.24l1.72-1.68c1.88,1.6,4.64,2.52,7.28,2.52,5.04,0,8.16-2.68,8.16-7v-4.24c-1.32,2.64-4.48,4.84-8,4.84-5.76,0-10.4-4.68-10.4-10.4s4.64-10.4,10.4-10.4ZM438.32,342.46c0,4.4,3.56,8,8,8s8-3.6,8-8-3.6-8-8-8-8,3.6-8,8Z" style="fill: #040000;"/>
      <path d="M471.88,332.06c5.68,0,9.56,4.36,9.6,10.4,0,.44-.08.96-.08,1.4h-17.16c.6,3.84,3.8,6.56,8,6.56,2.44,0,4.76-.92,6.32-2.64l1.72,1.72c-2.08,2.2-4.96,3.36-7.96,3.36-6.12,0-10.64-4.48-10.64-10.4s4.36-10.4,10.2-10.4ZM464.16,341.46h14.84c-.36-4.16-3.24-7-7.16-7s-7.24,3-7.68,7Z" style="fill: #040000;"/>
    </g>
    <g>
      <path d="M208.96,503.66h11.68c5.12,0,8.84,3.88,8.84,9.24,0,3.84-1.96,6.96-4.96,8.36l5.44,11.2h-2.64l-5.16-10.52c-.48.12-1,.16-1.52.16h-9.28v10.36h-2.4v-28.79ZM211.36,519.7h9.28c3.72,0,6.44-2.88,6.44-6.84s-2.72-6.8-6.44-6.8h-9.28v13.64Z" style="fill: #040000;"/>
      <path d="M243.4,512.06c3.52,0,6.68,2.2,8,4.84v-4.44h2.4v20h-2.4v-4.44c-1.32,2.64-4.48,4.84-8,4.84-5.76,0-10.4-4.68-10.4-10.4s4.64-10.4,10.4-10.4ZM235.4,522.46c0,4.4,3.56,8,8,8s8-3.6,8-8-3.6-8-8-8-8,3.6-8,8Z" style="fill: #040000;"/>
      <path d="M257.96,512.46h3.44c.6,0,1-.4,1-.96v-4.4h2.4v5.36h6.44v2.4h-6.44v10.92c0,3.64.8,4.68,3.56,4.68,1.08,0,1.88-.12,2.88-.32v2.32c-.88.24-1.92.4-3.12.4-4.16,0-5.72-1.92-5.72-7v-11h-4.44v-2.4Z" style="fill: #040000;"/>
      <path d="M285.12,512.06c5.68,0,9.56,4.36,9.6,10.4,0,.44-.08.96-.08,1.4h-17.16c.6,3.84,3.8,6.56,8,6.56,2.44,0,4.76-.92,6.32-2.64l1.72,1.72c-2.08,2.2-4.96,3.36-7.96,3.36-6.12,0-10.64-4.48-10.64-10.4s4.36-10.4,10.2-10.4ZM277.4,521.46h14.84c-.36-4.16-3.24-7-7.16-7s-7.24,3-7.68,7Z" style="fill: #040000;"/>
      <path d="M308.76,512.06c3.52,0,6.68,2.2,8,4.84v-13.24h2.4v28.79h-2.4v-4.44c-1.32,2.64-4.48,4.84-8,4.84-5.76,0-10.4-4.68-10.4-10.4s4.64-10.4,10.4-10.4ZM300.76,522.46c0,4.4,3.56,8,8,8s8-3.6,8-8-3.6-8-8-8-8,3.6-8,8Z" style="fill: #040000;"/>
      <path d="M350.2,503.26c4.28,0,8.12,1.8,10.84,4.72l-1.72,1.72c-2.28-2.48-5.52-4.04-9.12-4.04-6.84,0-12.4,5.56-12.4,12.4s5.56,12.4,12.4,12.4c3.6,0,6.84-1.56,9.12-4.04l1.72,1.72c-2.72,2.88-6.56,4.72-10.84,4.72-8.2,0-14.8-6.64-14.8-14.8s6.6-14.8,14.8-14.8Z" style="fill: #040000;"/>
      <path d="M365.68,524.54v-12.08h2.4v11.96c0,4.44,2.52,6.36,5.76,6.36,3.56,0,6.68-2.56,6.68-7.12v-11.2h2.4v20h-2.4v-3.76c-1.28,2.56-3.96,4.16-7,4.16-4.52,0-7.84-3.04-7.84-8.32Z" style="fill: #040000;"/>
      <path d="M389.24,532.46v-20h2.4v3.88c1.24-2.88,4.04-4.28,7.08-4.28v2.08c-4.2,0-7.08,2.92-7.08,7.12v11.2h-2.4Z" style="fill: #040000;"/>
      <path d="M402.92,532.46v-20h2.4v3.88c1.24-2.88,4.04-4.28,7.08-4.28v2.08c-4.2,0-7.08,2.92-7.08,7.12v11.2h-2.4Z" style="fill: #040000;"/>
      <path d="M425.48,512.06c5.68,0,9.56,4.36,9.6,10.4,0,.44-.08.96-.08,1.4h-17.16c.6,3.84,3.8,6.56,8,6.56,2.44,0,4.76-.92,6.32-2.64l1.72,1.72c-2.08,2.2-4.96,3.36-7.96,3.36-6.12,0-10.64-4.48-10.64-10.4s4.36-10.4,10.2-10.4ZM417.76,521.46h14.84c-.36-4.16-3.24-7-7.16-7s-7.24,3-7.68,7Z" style="fill: #040000;"/>
      <path d="M440.04,532.46v-20h2.4v3.72c1.28-2.52,3.96-4.12,6.96-4.12,4.56,0,7.88,3.04,7.88,8.32v12.08h-2.4v-11.96c0-4.44-2.56-6.36-5.76-6.36-3.56,0-6.68,2.56-6.68,7.12v11.2h-2.4Z" style="fill: #040000;"/>
      <path d="M461.48,512.46h3.44c.6,0,1-.4,1-.96v-4.4h2.4v5.36h6.44v2.4h-6.44v10.92c0,3.64.8,4.68,3.56,4.68,1.08,0,1.88-.12,2.88-.32v2.32c-.88.24-1.92.4-3.12.4-4.16,0-5.72-1.92-5.72-7v-11h-4.44v-2.4Z" style="fill: #040000;"/>
    </g>
    <g>
      <path d="M208.96,683.66h18.04v2.4h-15.64v10.04h14.16v2.4h-14.16v13.96h-2.4v-28.79Z" style="fill: #040000;"/>
      <path d="M231.6,712.46v-20h2.4v3.88c1.24-2.88,4.04-4.28,7.08-4.28v2.08c-4.2,0-7.08,2.92-7.08,7.12v11.2h-2.4Z" style="fill: #040000;"/>
      <path d="M254.36,692.06c3.52,0,6.68,2.2,8,4.84v-4.44h2.4v20h-2.4v-4.44c-1.32,2.64-4.48,4.84-8,4.84-5.76,0-10.4-4.68-10.4-10.4s4.64-10.4,10.4-10.4ZM246.36,702.46c0,4.4,3.56,8,8,8s8-3.6,8-8-3.6-8-8-8-8,3.6-8,8Z" style="fill: #040000;"/>
      <path d="M271.04,692.46h2.4v3.72c1.28-2.52,3.96-4.12,6.96-4.12,3.56,0,6.24,1.88,7.24,4.96,1.36-3.04,4.36-4.96,7.64-4.96,4.52,0,7.84,3.04,7.84,8.32v12.08h-2.4v-11.96c0-4.44-2.52-6.36-5.76-6.36-3.52,0-6.68,2.52-6.68,7.04v11.28h-2.4v-11.96c0-4.44-2.56-6.36-5.76-6.36-3.56,0-6.68,2.56-6.68,7.12v11.2h-2.4v-20Z" style="fill: #040000;"/>
      <path d="M318.32,692.06c5.68,0,9.56,4.36,9.6,10.4,0,.44-.08.96-.08,1.4h-17.16c.6,3.84,3.8,6.56,8,6.56,2.44,0,4.76-.92,6.32-2.64l1.72,1.72c-2.08,2.2-4.96,3.36-7.96,3.36-6.12,0-10.64-4.48-10.64-10.4s4.36-10.4,10.2-10.4ZM310.6,701.46h14.84c-.36-4.16-3.24-7-7.16-7s-7.24,3-7.68,7Z" style="fill: #040000;"/>
      <path d="M349.2,696.98c-1.68-2.04-3-4.36-3-7.04,0-4.08,3.24-6.68,7.48-6.68s7.4,2.44,7.4,6.68c0,4.92-4.36,6.4-7.92,7.8.8.8,1.6,1.52,2.24,2.16l6.44,6.2c1.16-1.6,1.76-3.6,1.72-5.76l2.4.36c.04,2.72-.8,5.2-2.32,7.16l3.64,3.48-1.6,1.84-3.64-3.52c-2.28,2.04-5.48,3.24-9.16,3.24-6.04,0-10.16-3.2-10.16-8.08s3.56-6.64,6.48-7.84ZM345.12,704.94c0,3.4,3.16,5.56,7.72,5.56,3.04,0,5.6-.96,7.44-2.56l-6.32-6.08c-1-.96-2.12-2-3.24-3.12-2.88,1.2-5.6,2.88-5.6,6.2ZM348.6,689.94c0,2.24,1.32,4.28,2.96,6.12,3.56-1.44,7.08-2.72,7.08-6.12,0-2.88-2.48-4.28-5-4.28s-5.04,1.4-5.04,4.28Z" style="fill: #040000;"/>
      <path d="M383.84,712.46v-28.79h11.96c4.12,0,7.44,3.04,7.44,7.16,0,2.76-1.56,5.2-4,6.4,3.04,1.2,5.08,4.04,5.08,7.36,0,4.52-3.64,7.88-8.12,7.88h-12.36ZM386.24,696.14h9.6c2.76,0,5-2.28,5-5.04s-2.24-5.04-5.04-5.04h-9.56v10.08ZM386.24,698.54v11.52h9.92c3.2,0,5.76-2.6,5.76-5.76s-2.56-5.76-5.72-5.76h-9.96Z" style="fill: #040000;"/>
      <path d="M411.92,712.46h-2.4v-30h2.4v30Z" style="fill: #040000;"/>
      <path d="M427.28,692.06c3.52,0,6.68,2.2,8,4.84v-4.44h2.4v20h-2.4v-4.44c-1.32,2.64-4.48,4.84-8,4.84-5.76,0-10.4-4.68-10.4-10.4s4.64-10.4,10.4-10.4ZM419.28,702.46c0,4.4,3.56,8,8,8s8-3.6,8-8-3.6-8-8-8-8,3.6-8,8Z" style="fill: #040000;"/>
      <path d="M453.04,692.06c3.52,0,6.68,2.2,8,4.84v-13.24h2.4v28.79h-2.4v-4.44c-1.32,2.64-4.48,4.84-8,4.84-5.76,0-10.4-4.68-10.4-10.4s4.64-10.4,10.4-10.4ZM445.04,702.46c0,4.4,3.56,8,8,8s8-3.6,8-8-3.6-8-8-8-8,3.6-8,8Z" style="fill: #040000;"/>
      <path d="M478.6,692.06c5.68,0,9.56,4.36,9.6,10.4,0,.44-.08.96-.08,1.4h-17.16c.6,3.84,3.8,6.56,8,6.56,2.44,0,4.76-.92,6.32-2.64l1.72,1.72c-2.08,2.2-4.96,3.36-7.96,3.36-6.12,0-10.64-4.48-10.64-10.4s4.36-10.4,10.2-10.4ZM470.88,701.46h14.84c-.36-4.16-3.24-7-7.16-7s-7.24,3-7.68,7Z" style="fill: #040000;"/>
      <path d="M505.12,683.66h2l10.84,18.92,10.8-18.92h2v28.79h-2.4v-23.36l-9.48,16.64h-1.88l-9.48-16.64v23.36h-2.4v-28.79Z" style="fill: #040000;"/>
      <path d="M546.96,692.06c3.52,0,6.68,2.2,8,4.84v-4.44h2.4v20h-2.4v-4.44c-1.32,2.64-4.48,4.84-8,4.84-5.76,0-10.4-4.68-10.4-10.4s4.64-10.4,10.4-10.4ZM538.96,702.46c0,4.4,3.56,8,8,8s8-3.6,8-8-3.6-8-8-8-8,3.6-8,8Z" style="fill: #040000;"/>
      <path d="M561.52,692.46h3.44c.6,0,1-.4,1-.96v-4.4h2.4v5.36h6.44v2.4h-6.44v10.92c0,3.64.8,4.68,3.56,4.68,1.08,0,1.88-.12,2.88-.32v2.32c-.88.24-1.92.4-3.12.4-4.16,0-5.72-1.92-5.72-7v-11h-4.44v-2.4Z" style="fill: #040000;"/>
      <path d="M588.67,692.06c5.68,0,9.56,4.36,9.6,10.4,0,.44-.08.96-.08,1.4h-17.16c.6,3.84,3.8,6.56,8,6.56,2.44,0,4.76-.92,6.32-2.64l1.72,1.72c-2.08,2.2-4.96,3.36-7.96,3.36-6.12,0-10.64-4.48-10.64-10.4s4.36-10.4,10.2-10.4ZM580.96,701.46h14.84c-.36-4.16-3.24-7-7.16-7s-7.24,3-7.68,7Z" style="fill: #040000;"/>
      <path d="M603.24,712.46v-20h2.4v3.88c1.24-2.88,4.04-4.28,7.08-4.28v2.08c-4.2,0-7.08,2.92-7.08,7.12v11.2h-2.4Z" style="fill: #040000;"/>
      <path d="M618.12,683.26c.84,0,1.56.72,1.56,1.6s-.72,1.56-1.56,1.56-1.6-.68-1.6-1.56.72-1.6,1.6-1.6ZM616.92,712.46v-20h2.4v20h-2.4Z" style="fill: #040000;"/>
      <path d="M634.67,692.06c3.52,0,6.68,2.2,8,4.84v-4.44h2.4v20h-2.4v-4.44c-1.32,2.64-4.48,4.84-8,4.84-5.76,0-10.4-4.68-10.4-10.4s4.64-10.4,10.4-10.4ZM626.67,702.46c0,4.4,3.56,8,8,8s8-3.6,8-8-3.6-8-8-8-8,3.6-8,8Z" style="fill: #040000;"/>
      <path d="M653.75,712.46h-2.4v-30h2.4v30Z" style="fill: #040000;"/>
    </g>
    <g>
      <path d="M205.48,863.66h2.6l7.72,25.08,7.76-25.08h2.24l7.76,25.08,7.72-25.08h2.6l-9.16,28.79h-2.32l-7.72-24.2-7.72,24.2h-2.32l-9.16-28.79Z" style="fill: #040000;"/>
      <path d="M248.72,863.26c.84,0,1.56.72,1.56,1.6s-.72,1.56-1.56,1.56-1.6-.68-1.6-1.56.72-1.6,1.6-1.6ZM247.52,892.46v-20h2.4v20h-2.4Z" style="fill: #040000;"/>
      <path d="M256.2,892.46v-20h2.4v3.88c1.24-2.88,4.04-4.28,7.08-4.28v2.08c-4.2,0-7.08,2.92-7.08,7.12v11.2h-2.4Z" style="fill: #040000;"/>
      <path d="M278.76,872.06c5.68,0,9.56,4.36,9.6,10.4,0,.44-.08.96-.08,1.4h-17.16c.6,3.84,3.8,6.56,8,6.56,2.44,0,4.76-.92,6.32-2.64l1.72,1.72c-2.08,2.2-4.96,3.36-7.96,3.36-6.12,0-10.64-4.48-10.64-10.4s4.36-10.4,10.2-10.4ZM271.04,881.46h14.84c-.36-4.16-3.24-7-7.16-7s-7.24,3-7.68,7Z" style="fill: #040000;"/>
      <path d="M305.28,863.66h2l10.84,18.92,10.8-18.92h2v28.79h-2.4v-23.36l-9.48,16.64h-1.88l-9.48-16.64v23.36h-2.4v-28.79Z" style="fill: #040000;"/>
      <path d="M347.12,872.06c3.52,0,6.68,2.2,8,4.84v-4.44h2.4v20h-2.4v-4.44c-1.32,2.64-4.48,4.84-8,4.84-5.76,0-10.4-4.68-10.4-10.4s4.64-10.4,10.4-10.4ZM339.12,882.46c0,4.4,3.56,8,8,8s8-3.6,8-8-3.6-8-8-8-8,3.6-8,8Z" style="fill: #040000;"/>
      <path d="M361.68,872.46h3.44c.6,0,1-.4,1-.96v-4.4h2.4v5.36h6.44v2.4h-6.44v10.92c0,3.64.8,4.68,3.56,4.68,1.08,0,1.88-.12,2.88-.32v2.32c-.88.24-1.92.4-3.12.4-4.16,0-5.72-1.92-5.72-7v-11h-4.44v-2.4Z" style="fill: #040000;"/>
      <path d="M388.84,872.06c5.68,0,9.56,4.36,9.6,10.4,0,.44-.08.96-.08,1.4h-17.16c.6,3.84,3.8,6.56,8,6.56,2.44,0,4.76-.92,6.32-2.64l1.72,1.72c-2.08,2.2-4.96,3.36-7.96,3.36-6.12,0-10.64-4.48-10.64-10.4s4.36-10.4,10.2-10.4ZM381.12,881.46h14.84c-.36-4.16-3.24-7-7.16-7s-7.24,3-7.68,7Z" style="fill: #040000;"/>
      <path d="M403.4,892.46v-20h2.4v3.88c1.24-2.88,4.04-4.28,7.08-4.28v2.08c-4.2,0-7.08,2.92-7.08,7.12v11.2h-2.4Z" style="fill: #040000;"/>
      <path d="M418.28,863.26c.84,0,1.56.72,1.56,1.6s-.72,1.56-1.56,1.56-1.6-.68-1.6-1.56.72-1.6,1.6-1.6ZM417.08,892.46v-20h2.4v20h-2.4Z" style="fill: #040000;"/>
      <path d="M434.84,872.06c3.52,0,6.68,2.2,8,4.84v-4.44h2.4v20h-2.4v-4.44c-1.32,2.64-4.48,4.84-8,4.84-5.76,0-10.4-4.68-10.4-10.4s4.64-10.4,10.4-10.4ZM426.84,882.46c0,4.4,3.56,8,8,8s8-3.6,8-8-3.6-8-8-8-8,3.6-8,8Z" style="fill: #040000;"/>
      <path d="M453.92,892.46h-2.4v-30h2.4v30Z" style="fill: #040000;"/>
    </g>
    <g>
      <path d="M208.96,1043.66h10.84c5.12,0,8.84,3.88,8.84,9.24s-3.72,9.2-8.84,9.2h-8.44v10.36h-2.4v-28.79ZM211.36,1046.06v13.64h8.44c3.72,0,6.44-2.88,6.44-6.84s-2.72-6.8-6.44-6.8h-8.44Z" style="fill: #040000;"/>
      <path d="M247.16,1043.26c4.28,0,8.12,1.8,10.84,4.72l-1.72,1.72c-2.28-2.48-5.52-4.04-9.12-4.04-6.84,0-12.4,5.56-12.4,12.4s5.56,12.4,12.4,12.4c3.6,0,6.84-1.56,9.12-4.04l1.72,1.72c-2.72,2.88-6.56,4.72-10.84,4.72-8.2,0-14.8-6.64-14.8-14.8s6.6-14.8,14.8-14.8Z" style="fill: #040000;"/>
      <path d="M263.44,1072.46v-28.79h11.96c4.12,0,7.44,3.04,7.44,7.16,0,2.76-1.56,5.2-4,6.4,3.04,1.2,5.08,4.04,5.08,7.36,0,4.52-3.64,7.88-8.12,7.88h-12.36ZM265.84,1056.14h9.6c2.76,0,5-2.28,5-5.04s-2.24-5.04-5.04-5.04h-9.56v10.08ZM265.84,1058.54v11.52h9.92c3.2,0,5.76-2.6,5.76-5.76s-2.56-5.76-5.72-5.76h-9.96Z" style="fill: #040000;"/>
      <path d="M301.08,1043.66h2l10.84,18.92,10.8-18.92h2v28.79h-2.4v-23.36l-9.48,16.64h-1.88l-9.48-16.64v23.36h-2.4v-28.79Z" style="fill: #040000;"/>
      <path d="M342.92,1052.06c3.52,0,6.68,2.2,8,4.84v-4.44h2.4v20h-2.4v-4.44c-1.32,2.64-4.48,4.84-8,4.84-5.76,0-10.4-4.68-10.4-10.4s4.64-10.4,10.4-10.4ZM334.92,1062.46c0,4.4,3.56,8,8,8s8-3.6,8-8-3.6-8-8-8-8,3.6-8,8Z" style="fill: #040000;"/>
      <path d="M357.48,1052.46h3.44c.6,0,1-.4,1-.96v-4.4h2.4v5.36h6.44v2.4h-6.44v10.92c0,3.64.8,4.68,3.56,4.68,1.08,0,1.88-.12,2.88-.32v2.32c-.88.24-1.92.4-3.12.4-4.16,0-5.72-1.92-5.72-7v-11h-4.44v-2.4Z" style="fill: #040000;"/>
      <path d="M384.64,1052.06c5.68,0,9.56,4.36,9.6,10.4,0,.44-.08.96-.08,1.4h-17.16c.6,3.84,3.8,6.56,8,6.56,2.44,0,4.76-.92,6.32-2.64l1.72,1.72c-2.08,2.2-4.96,3.36-7.96,3.36-6.12,0-10.64-4.48-10.64-10.4s4.36-10.4,10.2-10.4ZM376.92,1061.46h14.84c-.36-4.16-3.24-7-7.16-7s-7.24,3-7.68,7Z" style="fill: #040000;"/>
      <path d="M399.2,1072.46v-20h2.4v3.88c1.24-2.88,4.04-4.28,7.08-4.28v2.08c-4.2,0-7.08,2.92-7.08,7.12v11.2h-2.4Z" style="fill: #040000;"/>
      <path d="M414.08,1043.26c.84,0,1.56.72,1.56,1.6s-.72,1.56-1.56,1.56-1.6-.68-1.6-1.56.72-1.6,1.6-1.6ZM412.88,1072.46v-20h2.4v20h-2.4Z" style="fill: #040000;"/>
      <path d="M430.64,1052.06c3.52,0,6.68,2.2,8,4.84v-4.44h2.4v20h-2.4v-4.44c-1.32,2.64-4.48,4.84-8,4.84-5.76,0-10.4-4.68-10.4-10.4s4.64-10.4,10.4-10.4ZM422.64,1062.46c0,4.4,3.56,8,8,8s8-3.6,8-8-3.6-8-8-8-8,3.6-8,8Z" style="fill: #040000;"/>
      <path d="M449.72,1072.46h-2.4v-30h2.4v30Z" style="fill: #040000;"/>
    </g>
    <g>
      <path d="M211.36,1223.66v26.4h15.76v2.4h-18.16v-28.79h2.4Z" style="fill: #040000;"/>
      <path d="M240.84,1232.06c3.52,0,6.68,2.2,8,4.84v-4.44h2.4v20h-2.4v-4.44c-1.32,2.64-4.48,4.84-8,4.84-5.76,0-10.4-4.68-10.4-10.4s4.64-10.4,10.4-10.4ZM232.84,1242.46c0,4.4,3.56,8,8,8s8-3.6,8-8-3.6-8-8-8-8,3.6-8,8Z" style="fill: #040000;"/>
      <path d="M257.52,1223.66h2.4v13.24c1.32-2.64,4.48-4.84,8-4.84,5.72,0,10.4,4.68,10.4,10.4s-4.68,10.4-10.4,10.4c-3.52,0-6.68-2.2-8-4.84v4.44h-2.4v-28.79ZM259.92,1242.46c0,4.4,3.56,8,8,8s8-3.6,8-8-3.6-8-8-8-8,3.6-8,8Z" style="fill: #040000;"/>
      <path d="M292.16,1232.06c5.68,0,9.56,4.36,9.6,10.4,0,.44-.08.96-.08,1.4h-17.16c.6,3.84,3.8,6.56,8,6.56,2.44,0,4.76-.92,6.32-2.64l1.72,1.72c-2.08,2.2-4.96,3.36-7.96,3.36-6.12,0-10.64-4.48-10.64-10.4s4.36-10.4,10.2-10.4ZM284.44,1241.46h14.84c-.36-4.16-3.24-7-7.16-7s-7.24,3-7.68,7Z" style="fill: #040000;"/>
      <path d="M309.12,1252.46h-2.4v-30h2.4v30Z" style="fill: #040000;"/>
      <path d="M327.36,1223.66h2l10.84,18.92,10.8-18.92h2v28.79h-2.4v-23.36l-9.48,16.64h-1.88l-9.48-16.64v23.36h-2.4v-28.79Z" style="fill: #040000;"/>
      <path d="M369.2,1232.06c3.52,0,6.68,2.2,8,4.84v-4.44h2.4v20h-2.4v-4.44c-1.32,2.64-4.48,4.84-8,4.84-5.76,0-10.4-4.68-10.4-10.4s4.64-10.4,10.4-10.4ZM361.2,1242.46c0,4.4,3.56,8,8,8s8-3.6,8-8-3.6-8-8-8-8,3.6-8,8Z" style="fill: #040000;"/>
      <path d="M383.76,1232.46h3.44c.6,0,1-.4,1-.96v-4.4h2.4v5.36h6.44v2.4h-6.44v10.92c0,3.64.8,4.68,3.56,4.68,1.08,0,1.88-.12,2.88-.32v2.32c-.88.24-1.92.4-3.12.4-4.16,0-5.72-1.92-5.72-7v-11h-4.44v-2.4Z" style="fill: #040000;"/>
      <path d="M410.92,1232.06c5.68,0,9.56,4.36,9.6,10.4,0,.44-.08.96-.08,1.4h-17.16c.6,3.84,3.8,6.56,8,6.56,2.44,0,4.76-.92,6.32-2.64l1.72,1.72c-2.08,2.2-4.96,3.36-7.96,3.36-6.12,0-10.64-4.48-10.64-10.4s4.36-10.4,10.2-10.4ZM403.2,1241.46h14.84c-.36-4.16-3.24-7-7.16-7s-7.24,3-7.68,7Z" style="fill: #040000;"/>
      <path d="M425.48,1252.46v-20h2.4v3.88c1.24-2.88,4.04-4.28,7.08-4.28v2.08c-4.2,0-7.08,2.92-7.08,7.12v11.2h-2.4Z" style="fill: #040000;"/>
      <path d="M440.36,1223.26c.84,0,1.56.72,1.56,1.6s-.72,1.56-1.56,1.56-1.6-.68-1.6-1.56.72-1.6,1.6-1.6ZM439.16,1252.46v-20h2.4v20h-2.4Z" style="fill: #040000;"/>
      <path d="M456.92,1232.06c3.52,0,6.68,2.2,8,4.84v-4.44h2.4v20h-2.4v-4.44c-1.32,2.64-4.48,4.84-8,4.84-5.76,0-10.4-4.68-10.4-10.4s4.64-10.4,10.4-10.4ZM448.92,1242.46c0,4.4,3.56,8,8,8s8-3.6,8-8-3.6-8-8-8-8,3.6-8,8Z" style="fill: #040000;"/>
      <path d="M476,1252.46h-2.4v-30h2.4v30Z" style="fill: #040000;"/>
    </g>
    <g>
      <path d="M208.96,1403.66h2.32l16.92,24.48v-24.48h2.4v28.79h-2.32l-16.92-24.48v24.48h-2.4v-28.79Z" style="fill: #040000;"/>
      <path d="M246.56,1412.06c5.68,0,9.56,4.36,9.6,10.4,0,.44-.08.96-.08,1.4h-17.16c.6,3.84,3.8,6.56,8,6.56,2.44,0,4.76-.92,6.32-2.64l1.72,1.72c-2.08,2.2-4.96,3.36-7.96,3.36-6.12,0-10.64-4.48-10.64-10.4s4.36-10.4,10.2-10.4ZM238.84,1421.46h14.84c-.36-4.16-3.24-7-7.16-7s-7.24,3-7.68,7Z" style="fill: #040000;"/>
      <path d="M259,1412.46h3.44c.6,0,1-.4,1-.96v-4.4h2.4v5.36h6.44v2.4h-6.44v10.92c0,3.64.8,4.68,3.56,4.68,1.08,0,1.88-.12,2.88-.32v2.32c-.88.24-1.92.4-3.12.4-4.16,0-5.72-1.92-5.72-7v-11h-4.44v-2.4Z" style="fill: #040000;"/>
      <path d="M285.76,1403.66h2.6l7.72,25.08,7.76-25.08h2.24l7.76,25.08,7.72-25.08h2.6l-9.16,28.79h-2.32l-7.72-24.2-7.72,24.2h-2.32l-9.16-28.79Z" style="fill: #040000;"/>
      <path d="M336.68,1412.06c5.68,0,9.56,4.36,9.6,10.4,0,.44-.08.96-.08,1.4h-17.16c.6,3.84,3.8,6.56,8,6.56,2.44,0,4.76-.92,6.32-2.64l1.72,1.72c-2.08,2.2-4.96,3.36-7.96,3.36-6.12,0-10.64-4.48-10.64-10.4s4.36-10.4,10.2-10.4ZM328.96,1421.46h14.84c-.36-4.16-3.24-7-7.16-7s-7.24,3-7.68,7Z" style="fill: #040000;"/>
      <path d="M352.44,1403.26c.84,0,1.56.72,1.56,1.6s-.72,1.56-1.56,1.56-1.6-.68-1.6-1.56.72-1.6,1.6-1.6ZM351.24,1432.46v-20h2.4v20h-2.4Z" style="fill: #040000;"/>
      <path d="M369,1412.06c3.52,0,6.68,2.2,8,4.84v-4.44h2.4v19.6c0,5.96-4.04,9.6-10.72,9.6-3.12,0-6.44-1.08-8.84-3.24l1.72-1.68c1.88,1.6,4.64,2.52,7.28,2.52,5.04,0,8.16-2.68,8.16-7v-4.24c-1.32,2.64-4.48,4.84-8,4.84-5.76,0-10.4-4.68-10.4-10.4s4.64-10.4,10.4-10.4ZM361,1422.46c0,4.4,3.56,8,8,8s8-3.6,8-8-3.6-8-8-8-8,3.6-8,8Z" style="fill: #040000;"/>
      <path d="M385.68,1432.46v-28.79h2.4v12.52c1.28-2.52,3.96-4.12,6.96-4.12,4.56,0,7.88,3.04,7.88,8.32v12.08h-2.4v-11.96c0-4.44-2.56-6.36-5.76-6.36-3.56,0-6.68,2.56-6.68,7.12v11.2h-2.4Z" style="fill: #040000;"/>
      <path d="M407.12,1412.46h3.44c.6,0,1-.4,1-.96v-4.4h2.4v5.36h6.44v2.4h-6.44v10.92c0,3.64.8,4.68,3.56,4.68,1.08,0,1.88-.12,2.88-.32v2.32c-.88.24-1.92.4-3.12.4-4.16,0-5.72-1.92-5.72-7v-11h-4.44v-2.4Z" style="fill: #040000;"/>
      <path d="M444.04,1400.46c-3.84,4.96-5.56,11.88-5.56,18.8s1.72,13.84,5.56,18.8h-2.88c-3.44-4.84-5.16-11.84-5.16-18.8s1.72-13.96,5.16-18.8h2.88Z" style="fill: #040000;"/>
      <path d="M449.04,1403.66h18.04v2.4h-15.64v10.04h14.16v2.4h-14.16v13.96h-2.4v-28.79Z" style="fill: #040000;"/>
      <path d="M480.75,1412.06c3.52,0,6.68,2.2,8,4.84v-4.44h2.4v20h-2.4v-4.44c-1.32,2.64-4.48,4.84-8,4.84-5.76,0-10.4-4.68-10.4-10.4s4.64-10.4,10.4-10.4ZM472.76,1422.46c0,4.4,3.56,8,8,8s8-3.6,8-8-3.6-8-8-8-8,3.6-8,8Z" style="fill: #040000;"/>
      <path d="M497.44,1432.46v-20h2.4v3.72c1.28-2.52,3.96-4.12,6.96-4.12,4.56,0,7.88,3.04,7.88,8.32v12.08h-2.4v-11.96c0-4.44-2.56-6.36-5.76-6.36-3.56,0-6.68,2.56-6.68,7.12v11.2h-2.4Z" style="fill: #040000;"/>
      <path d="M518.88,1400.46h2.92c3.4,4.84,5.12,11.84,5.12,18.8s-1.72,13.96-5.12,18.8h-2.92c3.84-4.96,5.56-11.88,5.56-18.8s-1.72-13.84-5.56-18.8Z" style="fill: #040000;"/>
    </g>
    <g>
      <path d="M232.47,205.26v4.26l-9.96,12.18c6.96,1.26,11.7,6.66,11.7,13.8,0,7.92-5.94,13.56-14.34,13.56-6.66,0-12.06-3.9-14.28-10.32l4.5-1.8c1.38,4.44,5.22,7.32,9.78,7.32,5.7,0,9.54-3.54,9.54-8.76s-4.14-9.24-10.08-9.24c-.66,0-1.32.06-1.98.24l-2.34-3.48,10.68-12.96h-17.52v-4.8h24.3Z" style="fill: #040000;"/>
      <path d="M264.87,217.56c0,5.16-2.46,9.54-8.76,15.72l-10.56,10.38h19.92v4.8h-27.3v-4.26l14.52-14.28c3.42-3.36,7.38-7.2,7.38-12.36,0-4.62-3.84-8.1-9-8.1-4.38,0-7.86,2.58-9.12,6.84l-4.56-1.8c2.1-6.06,7.32-9.84,13.68-9.84,7.86,0,13.8,5.58,13.8,12.9Z" style="fill: #040000;"/>
      <path d="M278.25,245.69c0,1.86-1.5,3.36-3.42,3.36s-3.36-1.5-3.36-3.36,1.5-3.42,3.36-3.42,3.42,1.5,3.42,3.42Z" style="fill: #040000;"/>
      <path d="M311.01,217.56c0,5.16-2.46,9.54-8.76,15.72l-10.56,10.38h19.92v4.8h-27.3v-4.26l14.52-14.28c3.42-3.36,7.38-7.2,7.38-12.36,0-4.62-3.84-8.1-9-8.1-4.38,0-7.86,2.58-9.12,6.84l-4.56-1.8c2.1-6.06,7.32-9.84,13.68-9.84,7.86,0,13.8,5.58,13.8,12.9Z" style="fill: #040000;"/>
      <path d="M331.35,200.46c-5.88,7.38-8.52,17.82-8.52,28.2s2.64,20.82,8.52,28.2h-5.82c-5.1-7.08-7.62-17.64-7.62-28.2s2.52-21.12,7.62-28.2h5.82Z" style="fill: #040000;"/>
      <path d="M361.35,223.49v-18.24h4.8v43.2h-4.8v-5.04c-2.04,2.94-6.24,5.64-10.8,5.64-8.58,0-15.6-7.02-15.6-15.6s7.02-15.6,15.6-15.6c4.56,0,8.76,2.7,10.8,5.64ZM339.75,233.45c0,5.94,4.86,10.8,10.8,10.8s10.8-4.86,10.8-10.8-4.86-10.8-10.8-10.8-10.8,4.86-10.8,10.8Z" style="fill: #040000;"/>
      <path d="M394.11,205.26c6.36,0,11.46,4.5,11.46,10.8,0,3.96-2.04,7.44-5.4,9.48,4.26,2.1,6.96,6.24,6.96,10.98,0,6.9-5.64,11.94-12.6,11.94h-18.78v-43.2h18.36ZM380.55,223.32h13.56c3.66,0,6.66-3,6.66-6.66s-3-6.6-6.66-6.6h-13.56v13.26ZM380.55,243.65h13.98c4.32,0,7.8-3.48,7.8-7.74s-3.48-7.8-7.8-7.8h-13.98v15.54Z" style="fill: #040000;"/>
      <path d="M427.59,205.26h5.1l17.16,43.2h-5.16l-4.14-10.5h-20.76l-4.2,10.5h-5.16l17.16-43.2ZM430.17,211.8l-8.52,21.36h16.98l-8.46-21.36Z" style="fill: #040000;"/>
      <path d="M457.46,200.46c5.04,7.08,7.62,17.64,7.62,28.2s-2.58,21.12-7.62,28.2h-5.82c5.88-7.38,8.52-17.82,8.52-28.2s-2.64-20.82-8.52-28.2h5.82Z" style="fill: #040000;"/>
    </g>
    <g>
      <path d="M210.39,385.26h15.9c12.42,0,21.24,9,21.24,21.6s-8.82,21.6-21.24,21.6h-15.9v-43.2ZM215.19,390.06v33.6h11.1c9.72,0,16.44-6.84,16.44-16.8s-6.72-16.8-16.44-16.8h-11.1Z" style="fill: #040000;"/>
      <path d="M290.79,391.74l-3.42,3.42c-3.18-3.48-7.74-5.7-12.84-5.7-9.6,0-17.4,7.8-17.4,17.4s7.8,17.4,17.4,17.4c5.1,0,9.66-2.22,12.84-5.7l3.42,3.42c-4.08,4.38-9.84,7.08-16.26,7.08-12.24,0-22.2-9.96-22.2-22.2s9.96-22.2,22.2-22.2c6.42,0,12.18,2.7,16.26,7.08Z" style="fill: #040000;"/>
      <path d="M322.65,385.26h4.32v43.2h-4.8v-37.26l-9.42,5.64-2.46-4.08,12.36-7.5Z" style="fill: #040000;"/>
      <path d="M359.73,397.56c0,5.16-2.46,9.54-8.76,15.72l-10.56,10.38h19.92v4.8h-27.3v-4.26l14.52-14.28c3.42-3.36,7.38-7.2,7.38-12.36,0-4.62-3.84-8.1-9-8.1-4.38,0-7.86,2.58-9.12,6.84l-4.56-1.8c2.1-6.06,7.32-9.84,13.68-9.84,7.86,0,13.8,5.58,13.8,12.9Z" style="fill: #040000;"/>
      <path d="M368.19,385.26l13.92,35.82,13.86-35.82h5.16l-16.74,43.2h-4.62l-16.74-43.2h5.16Z" style="fill: #040000;"/>
    </g>
    <g>
      <path d="M224.19,564.66c10.5,0,16.8,8.34,16.8,22.2s-6.3,22.2-16.8,22.2-16.8-8.34-16.8-22.2,6.3-22.2,16.8-22.2ZM224.19,604.25c7.74,0,12-6.18,12-17.4s-4.26-17.4-12-17.4-12,6.18-12,17.4,4.26,17.4,12,17.4Z" style="fill: #040000;"/>
      <path d="M253.77,605.69c0,1.86-1.5,3.36-3.42,3.36s-3.36-1.5-3.36-3.36,1.5-3.42,3.36-3.42,3.42,1.5,3.42,3.42Z" style="fill: #040000;"/>
      <path d="M284.85,565.26v4.26l-9.96,12.18c6.96,1.26,11.7,6.66,11.7,13.8,0,7.92-5.94,13.56-14.34,13.56-6.66,0-12.06-3.9-14.28-10.32l4.5-1.8c1.38,4.44,5.22,7.32,9.78,7.32,5.7,0,9.54-3.54,9.54-8.76s-4.14-9.24-10.08-9.24c-.66,0-1.32.06-1.98.24l-2.34-3.48,10.68-12.96h-17.52v-4.8h24.3Z" style="fill: #040000;"/>
      <path d="M315.99,565.26v4.8h-19.08l-.78,10.5c1.86-.66,4.8-1.2,7.02-1.2,9,0,14.76,6.06,14.76,14.94,0,8.4-6.48,14.76-15,14.76-6.72,0-12-3.9-14.22-10.32l4.5-1.8c1.38,4.44,5.1,7.32,9.84,7.32,5.76,0,10.02-4.2,10.02-9.96.06-6.24-3.54-10.08-9.96-10.08-2.7,0-5.82.84-8.04,2.04h-4.26l1.56-21h23.64Z" style="fill: #040000;"/>
      <path d="M337.17,565.26h5.1l17.16,43.2h-5.16l-4.14-10.5h-20.76l-4.2,10.5h-5.16l17.16-43.2ZM339.75,571.8l-8.52,21.36h16.98l-8.46-21.36Z" style="fill: #040000;"/>
    </g>
    <g>
      <path d="M210.39,745.26h17.04c7.86,0,13.5,5.94,13.5,14.1s-5.64,14.1-13.5,14.1h-12.24v15h-4.8v-43.2ZM215.19,750.06v18.6h12.24c5.04,0,8.7-3.96,8.7-9.3s-3.66-9.3-8.64-9.3h-12.3Z" style="fill: #040000;"/>
      <path d="M267.09,745.26c6.36,0,11.46,4.5,11.46,10.8,0,3.96-2.04,7.44-5.4,9.48,4.26,2.1,6.96,6.24,6.96,10.98,0,6.9-5.64,11.94-12.6,11.94h-18.78v-43.2h18.36ZM253.53,763.32h13.56c3.66,0,6.66-3,6.66-6.66s-3-6.6-6.66-6.6h-13.56v13.26ZM253.53,783.65h13.98c4.32,0,7.8-3.48,7.8-7.74s-3.48-7.8-7.8-7.8h-13.98v15.54Z" style="fill: #040000;"/>
      <path d="M318.75,745.26v4.8h-14.82v38.4h-4.8v-38.4h-14.82v-4.8h34.44Z" style="fill: #040000;"/>
      <path d="M339.45,764.45h9.9v-9.9h4.8v9.9h9.84v4.8h-9.84v9.9h-4.8v-9.9h-9.9v-4.8Z" style="fill: #040000;"/>
      <path d="M410.66,745.26v4.26l-9.96,12.18c6.96,1.26,11.7,6.66,11.7,13.8,0,7.92-5.94,13.56-14.34,13.56-6.66,0-12.06-3.9-14.28-10.32l4.5-1.8c1.38,4.44,5.22,7.32,9.78,7.32,5.7,0,9.54-3.54,9.54-8.76s-4.14-9.24-10.08-9.24c-.66,0-1.32.06-1.98.24l-2.34-3.48,10.68-12.96h-17.52v-4.8h24.3Z" style="fill: #040000;"/>
      <path d="M433.1,744.66c10.5,0,16.8,8.34,16.8,22.2s-6.3,22.2-16.8,22.2-16.8-8.34-16.8-22.2,6.3-22.2,16.8-22.2ZM433.1,784.25c7.74,0,12-6.18,12-17.4s-4.26-17.4-12-17.4-12,6.18-12,17.4,4.26,17.4,12,17.4Z" style="fill: #040000;"/>
      <path d="M465.27,744.66c5.88,0,10.62,4.74,10.62,10.56s-4.74,10.62-10.62,10.62-10.56-4.74-10.56-10.62,4.74-10.56,10.56-10.56ZM465.27,761.82c3.66,0,6.6-2.94,6.6-6.6s-2.94-6.54-6.6-6.54-6.54,2.94-6.54,6.54,2.94,6.6,6.54,6.6ZM490.46,745.26l-29.34,43.2h4.98l29.28-43.2h-4.92ZM491.3,767.87c5.82,0,10.56,4.74,10.56,10.62s-4.74,10.56-10.56,10.56-10.62-4.74-10.62-10.56,4.74-10.62,10.62-10.62ZM491.3,785.03c3.6,0,6.54-2.94,6.54-6.54s-2.94-6.6-6.54-6.6-6.6,2.94-6.6,6.6,2.94,6.54,6.6,6.54Z" style="fill: #040000;"/>
      <path d="M544.28,744.66c6.66,0,13.08,2.94,17.16,7.92l-3.42,3.36c-3.18-4.02-8.4-6.48-13.74-6.48-9.42,0-16.62,7.56-16.62,17.4s7.2,17.4,16.56,17.4c4.38,0,8.76-1.38,12.24-3.78v-9.42h-12.24v-4.8h17.04v16.5c-4.62,4.08-10.86,6.3-16.98,6.3-12.06,0-21.42-9.72-21.42-22.2s9.36-22.2,21.42-22.2Z" style="fill: #040000;"/>
      <path d="M574.04,788.45h-4.8v-45h4.8v45Z" style="fill: #040000;"/>
      <path d="M607.04,763.49v-5.04h4.8v30h-4.8v-5.04c-2.04,2.94-6.24,5.64-10.8,5.64-8.58,0-15.6-7.02-15.6-15.6s7.02-15.6,15.6-15.6c4.56,0,8.76,2.7,10.8,5.64ZM585.44,773.45c0,5.94,4.86,10.8,10.8,10.8s10.8-4.86,10.8-10.8-4.86-10.8-10.8-10.8-10.8,4.86-10.8,10.8Z" style="fill: #040000;"/>
      <path d="M641.18,762.71l-3.42,3.42c-2.46-2.46-5.16-3.42-8.52-3.42-3.66,0-5.82,1.56-5.82,3.36,0,2.28,3.9,3.24,7.5,4.26,4.92,1.38,10.92,3.3,10.92,9.84,0,5.1-5.1,8.88-12,8.88-4.62,0-8.82-1.68-12-4.86l3.42-3.42c2.1,2.16,5.16,3.48,8.7,3.48,3.9,0,7.08-1.8,7.08-4.08,0-3.42-5.22-4.5-7.74-5.28-4.62-1.38-10.74-2.82-10.74-8.7,0-5.04,4.56-8.34,10.74-8.34,4.68,0,9.12,1.92,11.88,4.86Z" style="fill: #040000;"/>
      <path d="M668.78,762.71l-3.42,3.42c-2.46-2.46-5.16-3.42-8.52-3.42-3.66,0-5.82,1.56-5.82,3.36,0,2.28,3.9,3.24,7.5,4.26,4.92,1.38,10.92,3.3,10.92,9.84,0,5.1-5.1,8.88-12,8.88-4.62,0-8.82-1.68-12-4.86l3.42-3.42c2.1,2.16,5.16,3.48,8.7,3.48,3.9,0,7.08-1.8,7.08-4.08,0-3.42-5.22-4.5-7.74-5.28-4.62-1.38-10.74-2.82-10.74-8.7,0-5.04,4.56-8.34,10.74-8.34,4.68,0,9.12,1.92,11.88,4.86Z" style="fill: #040000;"/>
      <path d="M720.08,745.26v4.8h-22.44v13.2h20.04v4.8h-20.04v20.4h-4.8v-43.2h27.24Z" style="fill: #040000;"/>
      <path d="M731.54,747.72c0,1.68-1.38,3-3.06,3s-3.06-1.32-3.06-3,1.38-3.06,3.06-3.06,3.06,1.38,3.06,3.06ZM730.88,758.45v30h-4.8v-30h4.8Z" style="fill: #040000;"/>
      <path d="M770.48,773.45c0,8.58-7.02,15.6-15.6,15.6-4.56,0-8.76-2.7-10.8-5.64v5.04h-4.8v-43.2h4.8v18.24c2.04-2.94,6.24-5.64,10.8-5.64,8.58,0,15.6,7.02,15.6,15.6ZM744.08,773.45c0,5.94,4.86,10.8,10.8,10.8s10.8-4.86,10.8-10.8-4.86-10.8-10.8-10.8-10.8,4.86-10.8,10.8Z" style="fill: #040000;"/>
      <path d="M790.52,757.86c8.52,0,14.34,6.36,14.34,15.6,0,.9-.12,1.92-.18,2.82h-24.24c1.2,4.8,5.28,7.92,10.92,7.92,3.24,0,6.42-1.08,8.52-3.42l3.42,3.42c-3.12,3.36-7.44,4.86-11.82,4.86-9.42,0-16.2-6.6-16.2-15.6s6.48-15.6,15.24-15.6ZM799.88,771.47c-.66-5.34-4.26-8.82-9.36-8.82s-9.42,3.66-10.26,8.82h19.62Z" style="fill: #040000;"/>
      <path d="M816.26,758.45v4.38c1.92-2.7,5.1-4.98,9.72-4.98v4.14c-5.4,0-9.72,3.78-9.72,9.42v17.04h-4.8v-30h4.8Z" style="fill: #040000;"/>
    </g>
    <g>
      <path d="M210.39,925.26h17.04c7.86,0,13.5,5.94,13.5,14.1s-5.64,14.1-13.5,14.1h-12.24v15h-4.8v-43.2ZM215.19,930.06v18.6h12.24c5.04,0,8.7-3.96,8.7-9.3s-3.66-9.3-8.64-9.3h-12.3Z" style="fill: #040000;"/>
      <path d="M248.79,925.26l13.92,35.82,13.86-35.82h5.16l-16.74,43.2h-4.62l-16.74-43.2h5.16Z" style="fill: #040000;"/>
      <path d="M322.89,931.74l-3.42,3.42c-3.18-3.48-7.74-5.7-12.84-5.7-9.6,0-17.4,7.8-17.4,17.4s7.8,17.4,17.4,17.4c5.1,0,9.66-2.22,12.84-5.7l3.42,3.42c-4.08,4.38-9.84,7.08-16.26,7.08-12.24,0-22.2-9.96-22.2-22.2s9.96-22.2,22.2-22.2c6.42,0,12.18,2.7,16.26,7.08Z" style="fill: #040000;"/>
      <path d="M329.19,951.59h16.74v4.8h-16.74v-4.8Z" style="fill: #040000;"/>
      <path d="M359.79,927.72c0,1.68-1.38,3-3.06,3s-3.06-1.32-3.06-3,1.38-3.06,3.06-3.06,3.06,1.38,3.06,3.06ZM359.13,938.45v30h-4.8v-30h4.8Z" style="fill: #040000;"/>
      <path d="M372.33,938.45v4.08c2.22-2.58,5.58-4.68,9.72-4.68,7.14,0,11.88,4.8,11.88,12.78v17.82h-4.8v-17.58c0-6.36-3.18-8.88-7.74-8.88-4.98,0-9.06,3.6-9.06,9.42v17.04h-4.8v-30h4.8Z" style="fill: #040000;"/>
      <path d="M423.26,942.71l-3.42,3.42c-2.46-2.46-5.16-3.42-8.52-3.42-3.66,0-5.82,1.56-5.82,3.36,0,2.28,3.9,3.24,7.5,4.26,4.92,1.38,10.92,3.3,10.92,9.84,0,5.1-5.1,8.88-12,8.88-4.62,0-8.82-1.68-12-4.86l3.42-3.42c2.1,2.16,5.16,3.48,8.7,3.48,3.9,0,7.08-1.8,7.08-4.08,0-3.42-5.22-4.5-7.74-5.28-4.62-1.38-10.74-2.82-10.74-8.7,0-5.04,4.56-8.34,10.74-8.34,4.68,0,9.12,1.92,11.88,4.86Z" style="fill: #040000;"/>
      <path d="M451.52,968.45v-4.08c-2.22,2.58-5.58,4.68-9.72,4.68-7.14,0-11.88-4.8-11.88-12.78v-17.82h4.8v17.58c0,6.36,3.18,8.88,7.74,8.88,4.98,0,9.06-3.6,9.06-9.42v-17.04h4.8v30h-4.8Z" style="fill: #040000;"/>
      <path d="M469.52,968.45h-4.8v-45h4.8v45Z" style="fill: #040000;"/>
      <path d="M502.52,943.49v-5.04h4.8v30h-4.8v-5.04c-2.04,2.94-6.24,5.64-10.8,5.64-8.58,0-15.6-7.02-15.6-15.6s7.02-15.6,15.6-15.6c4.56,0,8.76,2.7,10.8,5.64ZM480.92,953.45c0,5.94,4.86,10.8,10.8,10.8s10.8-4.86,10.8-10.8-4.86-10.8-10.8-10.8-10.8,4.86-10.8,10.8Z" style="fill: #040000;"/>
      <path d="M523.52,930.42v8.04h8.46v4.8h-8.46v15.18c0,4.62.84,5.82,4.08,5.82,1.68,0,2.88-.18,4.38-.42v4.62c-1.32.36-2.88.6-4.68.6-6.24,0-8.58-2.88-8.58-10.44v-15.36h-6v-4.8h4.08c1.14,0,1.92-.78,1.92-1.86v-6.18h4.8Z" style="fill: #040000;"/>
      <path d="M552.02,937.86c8.52,0,14.34,6.36,14.34,15.6,0,.9-.12,1.92-.18,2.82h-24.24c1.2,4.8,5.28,7.92,10.92,7.92,3.24,0,6.42-1.08,8.52-3.42l3.42,3.42c-3.12,3.36-7.44,4.86-11.82,4.86-9.42,0-16.2-6.6-16.2-15.6s6.48-15.6,15.24-15.6ZM561.38,951.47c-.66-5.34-4.26-8.82-9.36-8.82s-9.42,3.66-10.26,8.82h19.62Z" style="fill: #040000;"/>
      <path d="M597.56,943.49v-18.24h4.8v43.2h-4.8v-5.04c-2.04,2.94-6.24,5.64-10.8,5.64-8.58,0-15.6-7.02-15.6-15.6s7.02-15.6,15.6-15.6c4.56,0,8.76,2.7,10.8,5.64ZM575.96,953.45c0,5.94,4.86,10.8,10.8,10.8s10.8-4.86,10.8-10.8-4.86-10.8-10.8-10.8-10.8,4.86-10.8,10.8Z" style="fill: #040000;"/>
      <path d="M663.62,931.74l-3.42,3.42c-3.18-3.48-7.74-5.7-12.84-5.7-9.6,0-17.4,7.8-17.4,17.4s7.8,17.4,17.4,17.4c5.1,0,9.66-2.22,12.84-5.7l3.42,3.42c-4.08,4.38-9.84,7.08-16.26,7.08-12.24,0-22.2-9.96-22.2-22.2s9.96-22.2,22.2-22.2c6.42,0,12.18,2.7,16.26,7.08Z" style="fill: #040000;"/>
      <path d="M683.72,937.86c8.58,0,15.6,7.02,15.6,15.6s-7.02,15.6-15.6,15.6-15.6-6.96-15.6-15.6,7.02-15.6,15.6-15.6ZM683.72,964.25c5.94,0,10.8-4.86,10.8-10.8s-4.86-10.74-10.8-10.74-10.8,4.8-10.74,10.74c0,5.94,4.8,10.8,10.74,10.8Z" style="fill: #040000;"/>
      <path d="M737.12,953.45c0,8.58-7.02,15.6-15.6,15.6-4.56,0-8.76-2.7-10.8-5.64v20.04h-4.8v-45h4.8v5.04c2.04-2.94,6.24-5.64,10.8-5.64,8.58,0,15.6,7.02,15.6,15.6ZM710.72,953.45c0,5.94,4.86,10.8,10.8,10.8s10.8-4.86,10.8-10.8-4.86-10.8-10.8-10.8-10.8,4.86-10.8,10.8Z" style="fill: #040000;"/>
      <path d="M774.92,953.45c0,8.58-7.02,15.6-15.6,15.6-4.56,0-8.76-2.7-10.8-5.64v20.04h-4.8v-45h4.8v5.04c2.04-2.94,6.24-5.64,10.8-5.64,8.58,0,15.6,7.02,15.6,15.6ZM748.52,953.45c0,5.94,4.86,10.8,10.8,10.8s10.8-4.86,10.8-10.8-4.86-10.8-10.8-10.8-10.8,4.86-10.8,10.8Z" style="fill: #040000;"/>
      <path d="M794.96,937.86c8.52,0,14.34,6.36,14.34,15.6,0,.9-.12,1.92-.18,2.82h-24.24c1.2,4.8,5.28,7.92,10.92,7.92,3.24,0,6.42-1.08,8.52-3.42l3.42,3.42c-3.12,3.36-7.44,4.86-11.82,4.86-9.42,0-16.2-6.6-16.2-15.6s6.48-15.6,15.24-15.6ZM804.32,951.47c-.66-5.34-4.26-8.82-9.36-8.82s-9.42,3.66-10.26,8.82h19.62Z" style="fill: #040000;"/>
      <path d="M820.7,938.45v4.38c1.92-2.7,5.1-4.98,9.72-4.98v4.14c-5.4,0-9.72,3.78-9.72,9.42v17.04h-4.8v-30h4.8Z" style="fill: #040000;"/>
      <path d="M853.28,925.26l10.92,35.82,10.86-35.82h4.5l10.92,35.82,10.86-35.82h5.16l-13.74,43.2h-4.62l-10.8-34.02-10.86,34.02h-4.62l-13.74-43.2h5.16Z" style="fill: #040000;"/>
      <path d="M916.46,927.72c0,1.68-1.38,3-3.06,3s-3.06-1.32-3.06-3,1.38-3.06,3.06-3.06,3.06,1.38,3.06,3.06ZM915.8,938.45v30h-4.8v-30h4.8Z" style="fill: #040000;"/>
      <path d="M929,938.45v4.38c1.92-2.7,5.1-4.98,9.72-4.98v4.14c-5.4,0-9.72,3.78-9.72,9.42v17.04h-4.8v-30h4.8Z" style="fill: #040000;"/>
      <path d="M957.55,937.86c8.52,0,14.34,6.36,14.34,15.6,0,.9-.12,1.92-.18,2.82h-24.24c1.2,4.8,5.28,7.92,10.92,7.92,3.24,0,6.42-1.08,8.52-3.42l3.42,3.42c-3.12,3.36-7.44,4.86-11.82,4.86-9.42,0-16.2-6.6-16.2-15.6s6.48-15.6,15.24-15.6ZM966.91,951.47c-.66-5.34-4.26-8.82-9.36-8.82s-9.42,3.66-10.26,8.82h19.62Z" style="fill: #040000;"/>
    </g>
    <g>
      <path d="M237.63,1105.26v4.8h-22.44v13.2h20.04v4.8h-20.04v20.4h-4.8v-43.2h27.24Z" style="fill: #040000;"/>
      <path d="M249.09,1107.72c0,1.68-1.38,3-3.06,3s-3.06-1.32-3.06-3,1.38-3.06,3.06-3.06,3.06,1.38,3.06,3.06ZM248.43,1118.45v30h-4.8v-30h4.8Z" style="fill: #040000;"/>
      <path d="M288.03,1133.45c0,8.58-7.02,15.6-15.6,15.6-4.56,0-8.76-2.7-10.8-5.64v5.04h-4.8v-43.2h4.8v18.24c2.04-2.94,6.24-5.64,10.8-5.64,8.58,0,15.6,7.02,15.6,15.6ZM261.63,1133.45c0,5.94,4.86,10.8,10.8,10.8s10.8-4.86,10.8-10.8-4.86-10.8-10.8-10.8-10.8,4.86-10.8,10.8Z" style="fill: #040000;"/>
      <path d="M308.07,1117.86c8.52,0,14.34,6.36,14.34,15.6,0,.9-.12,1.92-.18,2.82h-24.24c1.2,4.8,5.28,7.92,10.92,7.92,3.24,0,6.42-1.08,8.52-3.42l3.42,3.42c-3.12,3.36-7.44,4.86-11.82,4.86-9.42,0-16.2-6.6-16.2-15.6s6.48-15.6,15.24-15.6ZM317.43,1131.47c-.66-5.34-4.26-8.82-9.36-8.82s-9.42,3.66-10.26,8.82h19.62Z" style="fill: #040000;"/>
      <path d="M333.81,1118.45v4.38c1.92-2.7,5.1-4.98,9.72-4.98v4.14c-5.4,0-9.72,3.78-9.72,9.42v17.04h-4.8v-30h4.8Z" style="fill: #040000;"/>
      <path d="M373.53,1123.49v-5.04h4.8v29.4c0,8.94-6.06,14.4-16.02,14.4-4.74,0-9.72-1.62-13.26-4.86l3.42-3.42c2.52,2.22,6.48,3.48,10.08,3.48,6.84,0,10.98-3.48,10.98-9.24v-4.8c-2.04,2.94-6.24,5.64-10.8,5.64-8.58,0-15.6-7.02-15.6-15.6s7.02-15.6,15.6-15.6c4.56,0,8.76,2.7,10.8,5.64ZM351.93,1133.45c0,5.94,4.86,10.8,10.8,10.8s10.8-4.86,10.8-10.8-4.86-10.8-10.8-10.8-10.8,4.86-10.8,10.8Z" style="fill: #040000;"/>
      <path d="M391.53,1148.45h-4.8v-45h4.8v45Z" style="fill: #040000;"/>
      <path d="M424.52,1123.49v-5.04h4.8v30h-4.8v-5.04c-2.04,2.94-6.24,5.64-10.8,5.64-8.58,0-15.6-7.02-15.6-15.6s7.02-15.6,15.6-15.6c4.56,0,8.76,2.7,10.8,5.64ZM402.92,1133.45c0,5.94,4.86,10.8,10.8,10.8s10.8-4.86,10.8-10.8-4.86-10.8-10.8-10.8-10.8,4.86-10.8,10.8Z" style="fill: #040000;"/>
      <path d="M458.66,1122.71l-3.42,3.42c-2.46-2.46-5.16-3.42-8.52-3.42-3.66,0-5.82,1.56-5.82,3.36,0,2.28,3.9,3.24,7.5,4.26,4.92,1.38,10.92,3.3,10.92,9.84,0,5.1-5.1,8.88-12,8.88-4.62,0-8.82-1.68-12-4.86l3.42-3.42c2.1,2.16,5.16,3.48,8.7,3.48,3.9,0,7.08-1.8,7.08-4.08,0-3.42-5.22-4.5-7.74-5.28-4.62-1.38-10.74-2.82-10.74-8.7,0-5.04,4.56-8.34,10.74-8.34,4.68,0,9.12,1.92,11.88,4.86Z" style="fill: #040000;"/>
      <path d="M486.26,1122.71l-3.42,3.42c-2.46-2.46-5.16-3.42-8.52-3.42-3.66,0-5.82,1.56-5.82,3.36,0,2.28,3.9,3.24,7.5,4.26,4.92,1.38,10.92,3.3,10.92,9.84,0,5.1-5.1,8.88-12,8.88-4.62,0-8.82-1.68-12-4.86l3.42-3.42c2.1,2.16,5.16,3.48,8.7,3.48,3.9,0,7.08-1.8,7.08-4.08,0-3.42-5.22-4.5-7.74-5.28-4.62-1.38-10.74-2.82-10.74-8.7,0-5.04,4.56-8.34,10.74-8.34,4.68,0,9.12,1.92,11.88,4.86Z" style="fill: #040000;"/>
    </g>
    <g>
      <path d="M210.39,1285.26h17.04c7.86,0,13.5,5.94,13.5,14.1s-5.64,14.1-13.5,14.1h-12.24v15h-4.8v-43.2ZM215.19,1290.06v18.6h12.24c5.04,0,8.7-3.96,8.7-9.3s-3.66-9.3-8.64-9.3h-12.3Z" style="fill: #040000;"/>
      <path d="M275.97,1285.26v4.8h-22.44v13.2h20.04v4.8h-20.04v15.6h22.44v4.8h-27.24v-43.2h27.24Z" style="fill: #040000;"/>
      <path d="M314.31,1285.26v4.8h-14.82v38.4h-4.8v-38.4h-14.82v-4.8h34.44Z" style="fill: #040000;"/>
    </g>
    <g>
      <path d="M234.15,1477.56c0,5.16-2.46,9.54-8.76,15.72l-10.56,10.38h19.92v4.8h-27.3v-4.26l14.52-14.28c3.42-3.36,7.38-7.2,7.38-12.36,0-4.62-3.84-8.1-9-8.1-4.38,0-7.86,2.58-9.12,6.84l-4.56-1.8c2.1-6.06,7.32-9.84,13.68-9.84,7.86,0,13.8,5.58,13.8,12.9Z" style="fill: #040000;"/>
      <path d="M256.35,1464.66c10.5,0,16.8,8.34,16.8,22.2s-6.3,22.2-16.8,22.2-16.8-8.34-16.8-22.2,6.3-22.2,16.8-22.2ZM256.35,1504.25c7.74,0,12-6.18,12-17.4s-4.26-17.4-12-17.4-12,6.18-12,17.4,4.26,17.4,12,17.4Z" style="fill: #040000;"/>
      <path d="M294.75,1464.66c10.5,0,16.8,8.34,16.8,22.2s-6.3,22.2-16.8,22.2-16.8-8.34-16.8-22.2,6.3-22.2,16.8-22.2ZM294.75,1504.25c7.74,0,12-6.18,12-17.4s-4.26-17.4-12-17.4-12,6.18-12,17.4,4.26,17.4,12,17.4Z" style="fill: #040000;"/>
      <path d="M342.75,1483.49v-5.04h4.8v29.4c0,8.94-6.06,14.4-16.02,14.4-4.74,0-9.72-1.62-13.26-4.86l3.42-3.42c2.52,2.22,6.48,3.48,10.08,3.48,6.84,0,10.98-3.48,10.98-9.24v-4.8c-2.04,2.94-6.24,5.64-10.8,5.64-8.58,0-15.6-7.02-15.6-15.6s7.02-15.6,15.6-15.6c4.56,0,8.76,2.7,10.8,5.64ZM321.15,1493.45c0,5.94,4.86,10.8,10.8,10.8s10.8-4.86,10.8-10.8-4.86-10.8-10.8-10.8-10.8,4.86-10.8,10.8Z" style="fill: #040000;"/>
    </g>
  </g>
</svg>