<?xml version="1.0" encoding="UTF-8"?>
<svg id="_圖層_1" data-name="圖層 1" xmlns="http://www.w3.org/2000/svg" xmlns:xlink="http://www.w3.org/1999/xlink" viewBox="0 0 1170 2182.68">
  <defs>
    <clipPath id="clippath">
      <rect y="-174.66" width="1170" height="2532" style="fill: none;"/>
    </clipPath>
  </defs>
  <g style="clip-path: url(#clippath);">
    <rect y="-174.66" width="1170" height="2532" style="fill: #cf391a;"/>
    <path d="M257.55,1145.67v-133.32h25.37v52.03h55.18v-52.03h25.37v133.32h-25.37v-55.92h-55.18v55.92h-25.37Z" style="fill: #fff;"/>
    <g>
      <path d="M426.79,1126.23l12.78-13.33c11.48,10.92,25.37,16.29,42.22,16.29,18.89,0,32.4-8.89,32.4-20.55,0-10.92-10-16.85-34.63-23.89-22.22-6.3-46.11-14.07-46.11-38.33,0-22.22,19.07-35.92,47.4-35.92,18.52,0,36.85,7.96,48.33,21.29l-12.96,12.96c-9.07-10.18-22.04-15.92-36.11-15.92-18.15,0-28.33,6.85-28.33,17.59,0,9.07,9.07,13.7,32.59,20.55,23.89,7.04,48.14,15.74,48.14,41.48,0,23.15-22.59,39.07-51.11,39.07-21.85,0-40.37-7.59-54.62-21.29Z" style="fill: #fff;"/>
      <path d="M554.56,1145.67v-133.32h85.18v18.33h-66.84v35.92h59.44v18.33h-59.44v42.4h66.84v18.33h-85.18Z" style="fill: #fff;"/>
      <path d="M661.95,1012.35h57.4c24.44,0,42.22,18.89,42.22,44.62,0,17.22-8.15,31.11-20.92,38.51l23.89,50.18h-20.37l-21.11-44.25c-1.48.19-2.96.19-4.44.19h-38.33v44.07h-18.33v-133.32ZM680.28,1083.27h37.59c15.18,0,25.37-10.74,25.37-26.29s-10.18-26.29-25.18-26.29h-37.77v52.59Z" style="fill: #fff;"/>
      <path d="M801.01,1145.67h-18.33v-133.32h18.33v133.32Z" style="fill: #fff;"/>
      <path d="M831.37,1145.67v-133.32h85.18v18.33h-66.84v35.92h59.44v18.33h-59.44v42.4h66.84v18.33h-85.18Z" style="fill: #fff;"/>
      <path d="M928.21,1126.23l12.78-13.33c11.48,10.92,25.37,16.29,42.22,16.29,18.89,0,32.4-8.89,32.4-20.55,0-10.92-10-16.85-34.63-23.89-22.22-6.3-46.11-14.07-46.11-38.33,0-22.22,19.07-35.92,47.4-35.92,18.52,0,36.85,7.96,48.33,21.29l-12.96,12.96c-9.07-10.18-22.04-15.92-36.11-15.92-18.15,0-28.33,6.85-28.33,17.59,0,9.07,9.07,13.7,32.59,20.55,23.89,7.04,48.14,15.74,48.14,41.48,0,23.15-22.59,39.07-51.11,39.07-21.85,0-40.37-7.59-54.62-21.29Z" style="fill: #fff;"/>
    </g>
    <g>
      <path d="M702.69,1343.98v-133.32h85.18v18.33h-66.84v35.92h59.44v18.33h-59.44v60.73h-18.33Z" style="fill: #fff;"/>
      <path d="M783.24,1343.98l51.85-133.32h19.81l51.85,133.32h-19.63l-11.85-30h-60.55l-11.67,30h-19.81ZM868.41,1295.66l-23.33-60.36-23.52,60.36h46.85Z" style="fill: #fff;"/>
      <path d="M922.11,1210.66h17.22l68.51,99.06v-99.06h18.33v133.32h-17.41l-68.33-99.06v99.06h-18.33v-133.32Z" style="fill: #fff;"/>
    </g>
    <g>
      <path d="M448.43,1927.57v-45.68h14.13v45.68c0,9.69,5.67,15.57,14.85,15.57s14.85-5.88,14.85-15.57v-45.68h14.13v45.68c0,17.43-11.86,29.59-28.98,29.59s-28.98-12.17-28.98-29.59Z" style="fill: #fff;"/>
      <path d="M511.75,1945.2l9.59-10.42c6.6,5.57,13.2,8.35,21.96,8.35s13.92-3.61,13.92-8.35c0-5.16-6.7-7.73-18.36-11.03s-23.1-8.35-23.1-21.55,12.07-21.34,26.71-21.34c9.9,0,20.73,4.74,26.91,11.86l-10,9.9c-4.74-4.95-11.24-7.63-18.15-7.63s-11.24,2.58-11.24,7.01,6.08,6.39,16.91,9.38c14.02,3.92,24.44,10.11,24.44,23,0,14.33-13.61,22.89-28.67,22.89-12.27,0-22.38-4.43-30.94-12.07Z" style="fill: #fff;"/>
      <path d="M580.11,1956.13v-74.25h48.67v14.13h-34.54v14.85h30.42v14.13h-30.42v17.01h34.54v14.13h-48.67Z" style="fill: #fff;"/>
      <path d="M639.09,1881.89h33.2c13.82,0,24.23,11.24,24.23,26.09,0,8.87-4.12,16.4-10.52,20.93l12.27,27.22h-15.36l-10-22.17c-.62.1-1.24.1-1.86.1h-17.84v22.07h-14.13v-74.25ZM653.22,1919.94h16.6c7.94,0,12.58-4.54,12.58-11.96s-4.64-11.96-12.48-11.96h-16.71v23.92Z" style="fill: #fff;"/>
      <path d="M766.75,1880.86c11.65,0,22.89,5.05,29.9,13.61l-10.11,10c-4.43-5.98-11.55-9.49-19.28-9.49-14.13,0-24.03,9.9-24.03,24.03s9.9,23.92,24.03,24.03c5.46,0,10.72-1.44,14.95-4.02v-10.62h-15.37v-14.13h29.49v31.35c-7.73,7.63-18.35,11.55-29.08,11.55-21.45,0-38.15-16.4-38.15-38.15s16.19-38.15,37.64-38.15Z" style="fill: #fff;"/>
      <path d="M808.1,1927.57v-45.68h14.13v45.68c0,9.69,5.67,15.57,14.85,15.57s14.85-5.88,14.85-15.57v-45.68h14.13v45.68c0,17.43-11.86,29.59-28.98,29.59s-28.98-12.17-28.98-29.59Z" style="fill: #fff;"/>
      <path d="M893.79,1956.13h-14.13v-74.25h14.13v74.25Z" style="fill: #fff;"/>
      <path d="M907.4,1881.89h29.18c20.62,0,35.58,15.47,35.58,37.12s-14.85,37.12-35.58,37.12h-29.18v-74.25ZM921.53,1942.01h15.05c12.79,0,21.45-9.28,21.45-23s-8.66-23-21.45-23h-15.05v45.99Z" style="fill: #fff;"/>
      <path d="M981.85,1956.13v-74.25h48.67v14.13h-34.54v14.85h30.42v14.13h-30.42v17.01h34.54v14.13h-48.67Z" style="fill: #fff;"/>
    </g>
    <polygon points="966.22 352.9 902.44 225.34 902.44 352.9 966.22 352.9" style="fill: #fff;"/>
    <polygon points="1030 225.34 902.44 225.34 1030 352.9 1030 225.34" style="fill: #fff;"/>
    <g>
      <path d="M813.85,1815.07c0-12.24,9.96-22.2,22.2-22.2s22.2,9.96,22.2,22.2-9.96,22.2-22.2,22.2-22.2-9.96-22.2-22.2ZM836.05,1829.05c7.74,0,13.98-6.24,13.98-13.98s-6.24-13.98-13.98-13.98-13.98,6.24-13.98,13.98,6.24,13.98,13.98,13.98Z" style="fill: #fff;"/>
      <path d="M863.95,1793.47h7.56l18.54,27.36v-27.36h8.22v43.2h-7.56l-18.54-27.36v27.36h-8.22v-43.2Z" style="fill: #fff;"/>
      <path d="M914.35,1793.47v34.98h19.56v8.22h-27.78v-43.2h8.22Z" style="fill: #fff;"/>
      <path d="M947.29,1836.67h-8.22v-43.2h8.22v43.2Z" style="fill: #fff;"/>
      <path d="M955.21,1793.47h7.56l18.54,27.36v-27.36h8.22v43.2h-7.56l-18.54-27.36v27.36h-8.22v-43.2Z" style="fill: #fff;"/>
      <path d="M997.39,1836.67v-43.2h28.32v8.22h-20.1v8.64h17.7v8.22h-17.7v9.9h20.1v8.22h-28.32Z" style="fill: #fff;"/>
    </g>
  </g>
</svg>