<?xml version="1.0" encoding="UTF-8"?>
<svg id="_圖層_1" data-name="圖層 1" xmlns="http://www.w3.org/2000/svg" xmlns:xlink="http://www.w3.org/1999/xlink" viewBox="0 0 1170 2182.68">
  <defs>
    <clipPath id="clippath">
      <rect y="-174.66" width="1170" height="2532" style="fill: none;"/>
    </clipPath>
  </defs>
  <g style="clip-path: url(#clippath);">
    <g>
      <path d="M149,148.18v36.96h22.06v3.36h-25.42v-40.32h3.36Z" style="fill: #040000;"/>
      <path d="M190.27,159.94c4.93,0,9.35,3.08,11.2,6.78v-6.22h3.36v28h-3.36v-6.22c-1.85,3.7-6.27,6.78-11.2,6.78-8.06,0-14.56-6.55-14.56-14.56s6.5-14.56,14.56-14.56ZM190.27,185.7c6.16,0,11.2-5.04,11.2-11.2s-5.04-11.2-11.2-11.2-11.2,5.04-11.2,11.2,4.98,11.2,11.2,11.2ZM190.38,143.2c3.58,0,6.5,2.91,6.5,6.55s-2.91,6.5-6.5,6.5-6.55-2.91-6.55-6.5,2.91-6.55,6.55-6.55ZM186.57,149.75c0,2.07,1.68,3.75,3.81,3.75s3.75-1.68,3.75-3.75-1.68-3.81-3.75-3.81-3.81,1.68-3.81,3.81Z" style="fill: #040000;"/>
      <path d="M213.62,188.5v-28h3.36v5.21c1.79-3.53,5.54-5.77,9.74-5.77,6.38,0,11.03,4.26,11.03,11.65v16.91h-3.36v-16.74c0-6.22-3.58-8.9-8.06-8.9-4.98,0-9.35,3.58-9.35,9.97v15.68h-3.36Z" style="fill: #040000;"/>
      <path d="M259.32,159.94c4.93,0,9.35,3.08,11.2,6.78v-6.22h3.36v27.44c0,8.34-5.66,13.44-15.01,13.44-4.37,0-9.02-1.51-12.38-4.54l2.41-2.35c2.63,2.24,6.5,3.53,10.19,3.53,7.06,0,11.42-3.75,11.42-9.8v-5.94c-1.85,3.7-6.27,6.78-11.2,6.78-8.06,0-14.56-6.55-14.56-14.56s6.5-14.56,14.56-14.56ZM248.12,174.5c0,6.16,4.98,11.2,11.2,11.2s11.2-5.04,11.2-11.2-5.04-11.2-11.2-11.2-11.2,5.04-11.2,11.2Z" style="fill: #040000;"/>
      <path d="M298.29,182.11c2.13,2.24,5.32,3.58,8.96,3.58,4.37,0,7.67-1.96,7.67-4.59,0-3.7-4.82-4.87-8.06-5.77-4.59-1.23-10.3-2.52-10.3-7.9,0-4.54,4.14-7.5,9.91-7.5,4.37,0,8.46,1.74,11.14,4.54l-2.35,2.41c-2.52-2.46-5.38-3.53-8.79-3.53-4.03,0-6.5,1.74-6.5,3.98,0,2.91,4.03,3.75,8.06,4.82,4.82,1.29,10.25,3.08,10.25,8.9,0,4.7-4.65,8.01-11.14,8.01-4.37,0-8.29-1.57-11.26-4.54l2.41-2.41Z" style="fill: #040000;"/>
      <path d="M324.72,188.5v-40.32h3.36v24.58l13.44-12.26h4.82l-14.73,13.5,15.51,14.5h-4.76l-14.28-13.27v13.27h-3.36Z" style="fill: #040000;"/>
      <path d="M352.56,188.5v-28h3.36v5.43c1.74-4.03,5.66-5.99,9.91-5.99v2.91c-5.88,0-9.91,4.09-9.91,9.97v15.68h-3.36Z" style="fill: #040000;"/>
      <path d="M371.71,177.41v-16.91h3.36v16.74c0,6.22,3.53,8.9,8.06,8.9,4.98,0,9.35-3.58,9.35-9.97v-15.68h3.36v28h-3.36v-5.26c-1.79,3.58-5.54,5.82-9.8,5.82-6.33,0-10.98-4.26-10.98-11.65Z" style="fill: #040000;"/>
      <path d="M404.64,160.5l10.64,23.86,10.64-23.86h3.7l-12.43,28h-3.75l-12.43-28h3.64Z" style="fill: #040000;"/>
    </g>
    <g>
      <path d="M149,268.19v36.96h22.06v3.36h-25.42v-40.32h3.36Z" style="fill: #040000;"/>
      <path d="M190.27,279.95c4.93,0,9.35,3.08,11.2,6.78v-6.22h3.36v28h-3.36v-6.22c-1.85,3.7-6.27,6.78-11.2,6.78-8.06,0-14.56-6.55-14.56-14.56s6.5-14.56,14.56-14.56ZM179.07,294.51c0,6.16,4.98,11.2,11.2,11.2s11.2-5.04,11.2-11.2-5.04-11.2-11.2-11.2-11.2,5.04-11.2,11.2Z" style="fill: #040000;"/>
      <path d="M213.62,308.51v-28h3.36v5.21c1.79-3.53,5.54-5.77,9.74-5.77,6.38,0,11.03,4.26,11.03,11.65v16.91h-3.36v-16.74c0-6.22-3.58-8.9-8.06-8.9-4.98,0-9.35,3.58-9.35,9.97v15.68h-3.36Z" style="fill: #040000;"/>
      <path d="M259.32,279.95c4.93,0,9.35,3.08,11.2,6.78v-6.22h3.36v27.44c0,8.34-5.66,13.44-15.01,13.44-4.37,0-9.02-1.51-12.38-4.54l2.41-2.35c2.63,2.24,6.5,3.53,10.19,3.53,7.06,0,11.42-3.75,11.42-9.8v-5.94c-1.85,3.7-6.27,6.78-11.2,6.78-8.06,0-14.56-6.55-14.56-14.56s6.5-14.56,14.56-14.56ZM248.12,294.51c0,6.16,4.98,11.2,11.2,11.2s11.2-5.04,11.2-11.2-5.04-11.2-11.2-11.2-11.2,5.04-11.2,11.2Z" style="fill: #040000;"/>
      <path d="M298.29,302.12c2.13,2.24,5.32,3.58,8.96,3.58,4.37,0,7.67-1.96,7.67-4.59,0-3.7-4.82-4.87-8.06-5.77-4.59-1.23-10.3-2.52-10.3-7.9,0-4.54,4.14-7.5,9.91-7.5,4.37,0,8.46,1.74,11.14,4.54l-2.35,2.41c-2.52-2.46-5.38-3.53-8.79-3.53-4.03,0-6.5,1.74-6.5,3.98,0,2.91,4.03,3.75,8.06,4.82,4.82,1.29,10.25,3.08,10.25,8.9,0,4.7-4.65,8.01-11.14,8.01-4.37,0-8.29-1.57-11.26-4.54l2.41-2.41Z" style="fill: #040000;"/>
      <path d="M324.72,308.51v-40.32h3.36v24.58l13.44-12.26h4.82l-14.73,13.5,15.51,14.5h-4.76l-14.28-13.27v13.27h-3.36Z" style="fill: #040000;"/>
      <path d="M352.56,308.51v-28h3.36v5.43c1.74-4.03,5.66-5.99,9.91-5.99v2.91c-5.88,0-9.91,4.09-9.91,9.97v15.68h-3.36Z" style="fill: #040000;"/>
      <path d="M371.71,297.42v-16.91h3.36v16.74c0,6.22,3.53,8.9,8.06,8.9,4.98,0,9.35-3.58,9.35-9.97v-15.68h3.36v28h-3.36v-5.26c-1.79,3.58-5.54,5.82-9.8,5.82-6.33,0-10.98-4.26-10.98-11.65Z" style="fill: #040000;"/>
      <path d="M417.12,279.95c7.95,0,13.38,6.1,13.44,14.56,0,.62-.11,1.34-.11,1.96h-24.02c.84,5.38,5.32,9.18,11.2,9.18,3.42,0,6.66-1.29,8.85-3.7l2.41,2.41c-2.91,3.08-6.94,4.7-11.14,4.7-8.57,0-14.9-6.27-14.9-14.56s6.1-14.56,14.28-14.56ZM406.32,293.11h20.78c-.5-5.82-4.54-9.8-10.02-9.8s-10.14,4.2-10.75,9.8Z" style="fill: #040000;"/>
    </g>
    <g>
      <path d="M142.67,434.67v-9.52h3.75c3.81-2.07,4.42-9.69,4.82-13.38.84-7.84,1.29-15.74,1.79-23.58h24.02v36.96h5.43v9.52h-3.36v-6.16h-33.1v6.16h-3.36ZM151.24,425.15h22.46v-33.6h-17.53c-.45,6.94-.78,13.94-1.57,20.89-.39,3.81-1.06,9.41-3.36,12.71Z" style="fill: #040000;"/>
      <path d="M216.76,414.51c0,8.01-6.55,14.56-14.56,14.56s-14.56-6.55-14.56-14.56,6.5-14.56,14.56-14.56,14.56,6.5,14.56,14.56ZM202.2,425.66c6.16,0,11.14-4.98,11.14-11.14s-4.98-11.2-11.14-11.2-11.2,5.04-11.2,11.2,5.04,11.14,11.2,11.14Z" style="fill: #040000;"/>
      <path d="M238.15,400.51c4.03,0,7.22,2.97,7.22,6.94,0,2.74-1.46,5.04-3.81,6.27,3.02,1.18,4.87,3.92,4.87,7.11,0,4.37-3.53,7.67-7.9,7.67h-14.84v-28h14.45ZM227.01,403.87v8.29h10.3c2.97,0,4.76-2.02,4.76-4.2s-1.85-4.09-4.82-4.09h-10.25ZM227.01,415.47v9.69h10.58c3.47,0,5.54-2.3,5.54-4.82s-2.07-4.87-5.54-4.87h-10.58Z" style="fill: #040000;"/>
      <path d="M272.31,400.51v3.36h-15.74v24.64h-3.36v-28h19.1Z" style="fill: #040000;"/>
      <path d="M278.19,400.51h3.36v22.4l17.53-22.4h3.25v28h-3.36v-22.4l-17.53,22.4h-3.25v-28Z" style="fill: #040000;"/>
      <path d="M311.12,400.51h3.36v22.4l17.53-22.4h3.25v28h-3.36v-22.4l-17.53,22.4h-3.25v-28ZM317.45,388.19c.22,2.74,1.74,4.87,5.71,4.87s5.54-2.13,5.71-4.87h2.8c-.17,4.59-3.02,7.67-8.51,7.67s-8.29-3.08-8.46-7.67h2.74Z" style="fill: #040000;"/>
      <path d="M378.76,400.51v3.36h-15.74v24.64h-3.36v-28h19.1Z" style="fill: #040000;"/>
      <path d="M399.09,400.51c4.03,0,7.22,2.97,7.22,6.94,0,2.74-1.46,5.04-3.81,6.27,3.02,1.18,4.87,3.92,4.87,7.11,0,4.37-3.53,7.67-7.9,7.67h-14.84v-28h14.45ZM387.95,403.87v8.29h10.3c2.97,0,4.76-2.02,4.76-4.2s-1.85-4.09-4.82-4.09h-10.25ZM387.95,415.47v9.69h10.58c3.47,0,5.54-2.3,5.54-4.82s-2.07-4.87-5.54-4.87h-10.58Z" style="fill: #040000;"/>
      <path d="M414.16,400.51h3.36v22.4l17.53-22.4h3.25v28h-3.36v-22.4l-17.53,22.4h-3.25v-28Z" style="fill: #040000;"/>
      <path d="M450.44,400.51v12.32h16.97v-12.32h3.36v28h-3.36v-12.32h-16.97v12.32h-3.36v-28h3.36Z" style="fill: #040000;"/>
      <path d="M499.67,400.51v3.36h-9.86v24.64h-3.36v-24.64h-9.8v-3.36h23.02Z" style="fill: #040000;"/>
    </g>
    <g>
      <path d="M145.64,508.2h3.36v17.42h23.46v-17.42h3.36v40.32h-3.36v-19.54h-23.46v19.54h-3.36v-40.32Z" style="fill: #040000;"/>
      <path d="M213.01,534.52c0,8.01-6.55,14.56-14.56,14.56s-14.56-6.55-14.56-14.56,6.5-14.56,14.56-14.56,14.56,6.5,14.56,14.56ZM198.45,545.67c6.16,0,11.14-4.98,11.14-11.14s-4.98-11.2-11.14-11.2-11.2,5.04-11.2,11.2,5.04,11.14,11.2,11.14Z" style="fill: #040000;"/>
      <path d="M219.95,542.14c2.13,2.24,5.32,3.58,8.96,3.58,4.37,0,7.67-1.96,7.67-4.59,0-3.7-4.82-4.87-8.06-5.77-4.59-1.23-10.3-2.52-10.3-7.9,0-4.54,4.14-7.5,9.91-7.5,4.37,0,8.46,1.74,11.14,4.54l-2.35,2.41c-2.52-2.46-5.38-3.53-8.79-3.53-4.03,0-6.5,1.74-6.5,3.98,0,2.91,4.03,3.75,8.06,4.82,4.82,1.29,10.25,3.08,10.25,8.9,0,4.7-4.65,8.01-11.14,8.01-4.37,0-8.29-1.57-11.26-4.54l2.41-2.41Z" style="fill: #040000;"/>
      <path d="M246.38,542.14c2.13,2.24,5.32,3.58,8.96,3.58,4.37,0,7.67-1.96,7.67-4.59,0-3.7-4.82-4.87-8.06-5.77-4.59-1.23-10.3-2.52-10.3-7.9,0-4.54,4.14-7.5,9.91-7.5,4.37,0,8.46,1.74,11.14,4.54l-2.35,2.41c-2.52-2.46-5.38-3.53-8.79-3.53-4.03,0-6.5,1.74-6.5,3.98,0,2.91,4.03,3.75,8.06,4.82,4.82,1.29,10.25,3.08,10.25,8.9,0,4.7-4.65,8.01-11.14,8.01-4.37,0-8.29-1.57-11.26-4.54l2.41-2.41Z" style="fill: #040000;"/>
      <path d="M292.69,520.52v2.91l-16.97,21.73h17.81v3.36h-22.4v-2.91l16.91-21.73h-16.24v-3.36h20.89Z" style="fill: #040000;"/>
      <path d="M300.03,537.44v-16.91h3.36v16.74c0,6.22,3.53,8.9,8.06,8.9,4.98,0,9.35-3.58,9.35-9.97v-15.68h3.36v28h-3.36v-5.26c-1.79,3.58-5.54,5.82-9.8,5.82-6.33,0-10.98-4.26-10.98-11.65ZM309.66,515.76l4.31-7.62h3.47l-4.7,7.62h-3.08Z" style="fill: #040000;"/>
      <path d="M346.79,534.52c0-8.06,6.5-14.56,14.56-14.56,4.14,0,7.9,1.74,10.53,4.54l-2.41,2.41c-2.02-2.18-4.93-3.58-8.12-3.58-6.16,0-11.2,5.04-11.2,11.2s5.04,11.14,11.2,11.14c3.19,0,6.1-1.34,8.12-3.53l2.41,2.41c-2.63,2.8-6.38,4.54-10.53,4.54-8.06,0-14.56-6.55-14.56-14.56Z" style="fill: #040000;"/>
      <path d="M378.31,542.14c2.13,2.24,5.32,3.58,8.96,3.58,4.37,0,7.67-1.96,7.67-4.59,0-3.7-4.82-4.87-8.06-5.77-4.59-1.23-10.3-2.52-10.3-7.9,0-4.54,4.14-7.5,9.91-7.5,4.37,0,8.46,1.74,11.14,4.54l-2.35,2.41c-2.52-2.46-5.38-3.53-8.79-3.53-4.03,0-6.5,1.74-6.5,3.98,0,2.91,4.03,3.75,8.06,4.82,4.82,1.29,10.25,3.08,10.25,8.9,0,4.7-4.65,8.01-11.14,8.01-4.37,0-8.29-1.57-11.26-4.54l2.41-2.41Z" style="fill: #040000;"/>
      <path d="M417.46,519.96c4.93,0,9.35,3.08,11.2,6.78v-6.22h3.36v28h-3.36v-6.22c-1.85,3.7-6.27,6.78-11.2,6.78-8.06,0-14.56-6.55-14.56-14.56s6.5-14.56,14.56-14.56ZM406.26,534.52c0,6.16,4.98,11.2,11.2,11.2s11.2-5.04,11.2-11.2-5.04-11.2-11.2-11.2-11.2,5.04-11.2,11.2Z" style="fill: #040000;"/>
      <path d="M440.75,520.52l10.64,23.86,10.64-23.86h3.7l-12.43,28h-3.75l-12.43-28h3.64Z" style="fill: #040000;"/>
      <path d="M483.59,519.96c4.93,0,9.35,3.08,11.2,6.78v-6.22h3.36v28h-3.36v-6.22c-1.85,3.7-6.27,6.78-11.2,6.78-8.06,0-14.56-6.55-14.56-14.56s6.5-14.56,14.56-14.56ZM472.39,534.52c0,6.16,4.98,11.2,11.2,11.2s11.2-5.04,11.2-11.2-5.04-11.2-11.2-11.2-11.2,5.04-11.2,11.2Z" style="fill: #040000;"/>
      <path d="M506.94,548.52v-28h3.36v5.43c1.74-4.03,5.66-5.99,9.91-5.99v2.91c-5.88,0-9.91,4.09-9.91,9.97v15.68h-3.36Z" style="fill: #040000;"/>
    </g>
    <g>
      <path d="M145.64,628.21h14c12.32,0,20.27,8.9,20.27,20.16s-7.95,20.16-20.27,20.16h-14v-40.32ZM149,665.17h10.64c10.47,0,16.91-7.39,16.91-16.8s-6.44-16.8-16.91-16.8h-10.64v33.6Z" style="fill: #040000;"/>
      <path d="M187.08,647.48v-20.94h3.36v19.15l4.2-2.3v3.81l-4.2,2.3v19.04h-3.36v-17.25l-4.26,2.3v-3.81l4.26-2.3Z" style="fill: #040000;"/>
      <path d="M199.23,657.44v-16.91h3.36v16.74c0,6.22,3.53,8.9,8.06,8.9,4.98,0,9.35-3.58,9.35-9.97v-15.68h3.36v28h-3.36v-5.26c-1.79,3.58-5.54,5.82-9.8,5.82-6.33,0-10.98-4.26-10.98-11.65Z" style="fill: #040000;"/>
      <path d="M244.92,639.97c4.93,0,9.35,3.08,11.2,6.78v-6.22h3.36v27.44c0,8.34-5.66,13.44-15.01,13.44-4.37,0-9.02-1.51-12.38-4.54l2.41-2.35c2.63,2.24,6.5,3.53,10.19,3.53,7.06,0,11.42-3.75,11.42-9.8v-5.94c-1.85,3.7-6.27,6.78-11.2,6.78-8.06,0-14.56-6.55-14.56-14.56s6.5-14.56,14.56-14.56ZM233.72,654.53c0,6.16,4.98,11.2,11.2,11.2s11.2-5.04,11.2-11.2-5.04-11.2-11.2-11.2-11.2,5.04-11.2,11.2Z" style="fill: #040000;"/>
      <path d="M280.99,639.97c4.93,0,9.35,3.08,11.2,6.78v-6.22h3.36v28h-3.36v-6.22c-1.85,3.7-6.27,6.78-11.2,6.78-8.06,0-14.56-6.55-14.56-14.56s6.5-14.56,14.56-14.56ZM269.79,654.53c0,6.16,4.98,11.2,11.2,11.2s11.2-5.04,11.2-11.2-5.04-11.2-11.2-11.2-11.2,5.04-11.2,11.2Z" style="fill: #040000;"/>
      <path d="M317.56,664.56l2.41-2.41c2.13,2.24,5.32,3.58,8.96,3.58,4.37,0,7.67-1.96,7.67-4.59,0-3.7-4.82-4.87-8.06-5.77-4.59-1.23-10.3-2.52-10.3-7.9,0-4.54,4.09-7.5,9.86-7.5,4.48,0,8.57,1.74,11.2,4.54l-2.35,2.41c-2.41-2.41-5.32-3.53-8.74-3.53-4.09,0-6.55,1.68-6.55,3.98,0,2.91,4.03,3.75,8.06,4.82,4.82,1.29,10.25,3.08,10.25,8.9,0,4.7-4.59,8.01-11.14,8.01-4.37,0-8.29-1.57-11.26-4.54ZM330.77,628.15h3.42l-4.65,7.62h-3.14l4.37-7.62Z" style="fill: #040000;"/>
      <path d="M346.4,668.53v-28h3.36v5.43c1.74-4.03,5.66-5.99,9.91-5.99v2.91c-5.88,0-9.91,4.09-9.91,9.97v15.68h-3.36Z" style="fill: #040000;"/>
      <path d="M365.55,657.44v-16.91h3.36v16.74c0,6.22,3.53,8.9,8.06,8.9,4.98,0,9.35-3.58,9.35-9.97v-15.68h3.36v28h-3.36v-5.26c-1.79,3.58-5.54,5.82-9.8,5.82-6.33,0-10.98-4.26-10.98-11.65Z" style="fill: #040000;"/>
      <path d="M398.53,628.21h3.36v18.54c1.85-3.7,6.27-6.78,11.2-6.78,8.01,0,14.56,6.55,14.56,14.56s-6.55,14.56-14.56,14.56c-4.93,0-9.35-3.08-11.2-6.78v6.22h-3.36v-40.32ZM401.89,654.53c0,6.16,4.98,11.2,11.2,11.2s11.2-5.04,11.2-11.2-5.04-11.2-11.2-11.2-11.2,5.04-11.2,11.2Z" style="fill: #040000;"/>
      <path d="M447.31,639.97c4.93,0,9.35,3.08,11.2,6.78v-6.22h3.36v28h-3.36v-6.22c-1.85,3.7-6.27,6.78-11.2,6.78-8.06,0-14.56-6.55-14.56-14.56s6.5-14.56,14.56-14.56ZM436.11,654.53c0,6.16,4.98,11.2,11.2,11.2s11.2-5.04,11.2-11.2-5.04-11.2-11.2-11.2-11.2,5.04-11.2,11.2Z" style="fill: #040000;"/>
    </g>
    <g>
      <path d="M145.64,773.03v-24.81h3.36v24.81c0,7.78,4.59,12.71,11.87,12.71s11.87-4.93,11.87-12.71v-24.81h3.36v24.81c0,9.69-6.05,16.07-15.23,16.07s-15.23-6.38-15.23-16.07Z" style="fill: #040000;"/>
      <path d="M205.95,760.54v2.91l-16.97,21.73h17.81v3.36h-22.4v-2.91l16.91-21.73h-16.24v-3.36h20.89Z" style="fill: #040000;"/>
      <path d="M213.29,777.45v-16.91h3.36v16.74c0,6.22,3.53,8.9,8.06,8.9,4.98,0,9.35-3.58,9.35-9.97v-15.68h3.36v28h-3.36v-5.26c-1.79,3.58-5.54,5.82-9.8,5.82-6.33,0-10.98-4.26-10.98-11.65Z" style="fill: #040000;"/>
      <path d="M246.27,788.54v-28h3.36v5.21c1.79-3.53,5.54-5.77,9.74-5.77,6.38,0,11.03,4.26,11.03,11.65v16.91h-3.36v-16.74c0-6.22-3.58-8.9-8.06-8.9-4.98,0-9.35,3.58-9.35,9.97v15.68h-3.36Z" style="fill: #040000;"/>
      <path d="M294.82,760.54l10.64,23.86,10.64-23.86h3.7l-12.43,28h-3.75l-12.43-28h3.64Z" style="fill: #040000;"/>
      <path d="M326.63,747.66c1.18,0,2.18,1.01,2.18,2.24s-1.01,2.18-2.18,2.18-2.24-.95-2.24-2.18,1.01-2.24,2.24-2.24ZM324.95,788.54v-28h3.36v28h-3.36Z" style="fill: #040000;"/>
      <path d="M349.81,759.98c4.93,0,9.35,3.08,11.2,6.78v-18.54h3.36v40.32h-3.36v-6.22c-1.85,3.7-6.27,6.78-11.2,6.78-8.06,0-14.56-6.55-14.56-14.56s6.5-14.56,14.56-14.56ZM338.61,774.54c0,6.16,4.98,11.2,11.2,11.2s11.2-5.04,11.2-11.2-5.04-11.2-11.2-11.2-11.2,5.04-11.2,11.2Z" style="fill: #040000;"/>
      <path d="M385.88,759.98c4.93,0,9.35,3.08,11.2,6.78v-6.22h3.36v28h-3.36v-6.22c-1.85,3.7-6.27,6.78-11.2,6.78-8.06,0-14.56-6.55-14.56-14.56s6.5-14.56,14.56-14.56ZM374.67,774.54c0,6.16,4.98,11.2,11.2,11.2s11.2-5.04,11.2-11.2-5.04-11.2-11.2-11.2-11.2,5.04-11.2,11.2Z" style="fill: #040000;"/>
    </g>
    <g>
      <path d="M145.64,868.23h15.18c7.17,0,12.38,5.43,12.38,12.94s-5.21,12.88-12.38,12.88h-11.82v14.5h-3.36v-40.32ZM149,871.59v19.1h11.82c5.21,0,9.02-4.03,9.02-9.58s-3.81-9.52-9.02-9.52h-11.82Z" style="fill: #040000;"/>
      <path d="M192.79,879.99c4.93,0,9.35,3.08,11.2,6.78v-6.22h3.36v28h-3.36v-6.22c-1.85,3.7-6.27,6.78-11.2,6.78-8.06,0-14.56-6.55-14.56-14.56s6.5-14.56,14.56-14.56ZM181.59,894.55c0,6.16,4.98,11.2,11.2,11.2s11.2-5.04,11.2-11.2-5.04-11.2-11.2-11.2-11.2,5.04-11.2,11.2Z" style="fill: #040000;"/>
      <path d="M216.14,908.55v-28h3.36v5.43c1.74-4.03,5.66-5.99,9.91-5.99v2.91c-5.88,0-9.91,4.09-9.91,9.97v15.68h-3.36Z" style="fill: #040000;"/>
      <path d="M248.01,879.99c4.93,0,9.35,3.08,11.2,6.78v-6.22h3.36v28h-3.36v-6.22c-1.85,3.7-6.27,6.78-11.2,6.78-8.06,0-14.56-6.55-14.56-14.56s6.5-14.56,14.56-14.56ZM236.81,894.55c0,6.16,4.98,11.2,11.2,11.2s11.2-5.04,11.2-11.2-5.04-11.2-11.2-11.2-11.2,5.04-11.2,11.2Z" style="fill: #040000;"/>
      <path d="M268.39,883.91v-3.36h5.54v-1.51c0-8.06,4.37-11.37,11.26-11.37h1.85v3.36h-1.85c-5.04,0-7.9,2.02-7.9,8.01v1.51h9.74v3.36h-9.74v24.64h-3.36v-24.64h-5.54Z" style="fill: #040000;"/>
      <path d="M292.86,897.46v-16.91h3.36v16.74c0,6.22,3.53,8.9,8.06,8.9,4.98,0,9.35-3.58,9.35-9.97v-15.68h3.36v28h-3.36v-5.26c-1.79,3.58-5.54,5.82-9.8,5.82-6.33,0-10.98-4.26-10.98-11.65Z" style="fill: #040000;"/>
      <path d="M325.84,902.16c2.13,2.24,5.32,3.58,8.96,3.58,4.37,0,7.67-1.96,7.67-4.59,0-3.7-4.82-4.87-8.06-5.77-4.59-1.23-10.3-2.52-10.3-7.9,0-4.54,4.14-7.5,9.91-7.5,4.37,0,8.46,1.74,11.14,4.54l-2.35,2.41c-2.52-2.46-5.38-3.53-8.79-3.53-4.03,0-6.5,1.74-6.5,3.98,0,2.91,4.03,3.75,8.06,4.82,4.82,1.29,10.25,3.08,10.25,8.9,0,4.7-4.65,8.01-11.14,8.01-4.37,0-8.29-1.57-11.26-4.54l2.41-2.41Z" style="fill: #040000;"/>
      <path d="M379.55,894.55c0,8.01-6.55,14.56-14.56,14.56s-14.56-6.55-14.56-14.56,6.5-14.56,14.56-14.56,14.56,6.5,14.56,14.56ZM364.99,905.69c6.16,0,11.14-4.98,11.14-11.14s-4.98-11.2-11.14-11.2-11.2,5.04-11.2,11.2,5.04,11.14,11.2,11.14Z" style="fill: #040000;"/>
      <path d="M405.47,908.55h-3.36v-42h3.36v42Z" style="fill: #040000;"/>
      <path d="M441.54,894.55c0,8.01-6.55,14.56-14.56,14.56s-14.56-6.55-14.56-14.56,6.5-14.56,14.56-14.56,14.56,6.5,14.56,14.56ZM426.98,905.69c6.16,0,11.14-4.98,11.14-11.14s-4.98-11.2-11.14-11.2-11.2,5.04-11.2,11.2,5.04,11.14,11.2,11.14Z" style="fill: #040000;"/>
      <path d="M448.48,908.55v-28h3.36v5.21c1.79-3.53,5.54-5.77,9.74-5.77,6.38,0,11.03,4.26,11.03,11.65v16.91h-3.36v-16.74c0-6.22-3.58-8.9-8.06-8.9-4.98,0-9.35,3.58-9.35,9.97v15.68h-3.36Z" style="fill: #040000;"/>
      <path d="M494.18,879.99c4.93,0,9.35,3.08,11.2,6.78v-6.22h3.36v27.44c0,8.34-5.66,13.44-15.01,13.44-4.37,0-9.02-1.51-12.38-4.54l2.41-2.35c2.63,2.24,6.5,3.53,10.19,3.53,7.06,0,11.42-3.75,11.42-9.8v-5.94c-1.85,3.7-6.27,6.78-11.2,6.78-8.06,0-14.56-6.55-14.56-14.56s6.5-14.56,14.56-14.56ZM482.98,894.55c0,6.16,4.98,11.2,11.2,11.2s11.2-5.04,11.2-11.2-5.04-11.2-11.2-11.2-11.2,5.04-11.2,11.2Z" style="fill: #040000;"/>
      <path d="M544.8,894.55c0,8.01-6.55,14.56-14.56,14.56s-14.56-6.55-14.56-14.56,6.5-14.56,14.56-14.56,14.56,6.5,14.56,14.56ZM530.24,905.69c6.16,0,11.14-4.98,11.14-11.14s-4.98-11.2-11.14-11.2-11.2,5.04-11.2,11.2,5.04,11.14,11.2,11.14Z" style="fill: #040000;"/>
    </g>
    <path d="M142.23,1010.75h8.83v-25.59h37.98v2.57h-35v5.99h33.2v2.52h-33.2v5.99h33.44v2.54h-33.44v5.99h40.25v2.62h-28.66c1.95,3.72,4.3,6.78,7.05,9.19,5.12-2.3,10.29-4.8,15.5-7.52l1.86,2.49c-2.59,1.24-7.07,3.29-13.45,6.15-.69.31-1.21.55-1.56.71,4.41,3.28,10.86,5.75,19.33,7.41-.78,1.06-1.46,2.12-2.02,3.2-15.31-3.76-25.27-10.96-29.86-21.63h-9.41v17.8c2.15-.78,5.72-2.03,10.72-3.75,1.6-.56,2.83-.99,3.66-1.29,0,1.48.03,2.54.08,3.2-5.83,1.77-10.71,3.43-14.63,4.98-.71.31-1.46.74-2.24,1.29l-2.02-2.41c1.02-.82,1.51-1.79,1.48-2.9v-16.93h-7.9v-2.62ZM228.91,995.91h2.13c.88,0,1.65-.03,2.32-.1.67-.06,1.27-.15,1.79-.26s.98-.24,1.37-.4c.39-.15.74-.33,1.05-.53l4.35,3.58c-.78.53-1.54,1.12-2.28,1.78s-1.49,1.39-2.26,2.21c-.62.67-1.29,1.34-2,2s-1.44,1.29-2.17,1.9c-.74.61-1.48,1.2-2.21,1.76-.74.57-1.44,1.09-2.09,1.59v15.18c0,1.19.01,2.23.04,3.13s.07,1.71.12,2.42.12,1.35.19,1.91c.07.56.15,1.1.25,1.61h-4.98c.02-.58.05-1.32.1-2.2.05-.88.1-1.78.15-2.68s.1-1.75.14-2.53c.04-.78.05-1.36.05-1.72v-12.11c-3.15,2.22-6.47,4.28-9.94,6.15-3.47,1.88-7.21,3.51-11.2,4.89-.49-.69-.94-1.3-1.35-1.82s-.89-1.03-1.44-1.52c3.08-.95,6.17-2.11,9.28-3.47,3.11-1.37,6.12-2.91,9.02-4.63,2.91-1.72,5.66-3.61,8.26-5.67,2.6-2.06,4.94-4.27,7.01-6.64h-10.47c-.98,0-2.05,0-3.2.01-1.15,0-2.39.02-3.73.03-1.34,0-2.79.03-4.35.05s-3.26.06-5.1.1v-4.02h17.2v-4.48c0-.64-.04-1.4-.11-2.3-.07-.89-.18-1.92-.33-3.09l4.92.46c-.07.15-.14.38-.19.71s-.1.7-.14,1.11c-.04.41-.07.84-.1,1.29-.03.45-.05.87-.07,1.27-.02.4-.03.75-.04,1.05,0,.3-.01.51-.01.62v3.36ZM244.66,1019.18c-1.66-1.31-3.3-2.55-4.92-3.72-1.62-1.17-3.24-2.28-4.84-3.34l2.35-2.76c1.18.58,2.27,1.19,3.27,1.8.99.62,1.9,1.22,2.73,1.8.83.58,1.59,1.15,2.27,1.7s1.32,1.05,1.9,1.5l-2.76,3.01ZM267.3,1010.02c-3.48-2.52-6.71-4.47-9.68-5.88.42-.6.82-1.18,1.2-1.72s.78-1.11,1.2-1.7c2.28,1.26,4.21,2.36,5.8,3.31,1.59.95,2.93,1.83,4.02,2.65-.18.2-.4.45-.64.74-.25.29-.49.59-.74.9-.25.31-.47.62-.68.92-.21.3-.37.56-.48.78ZM301.7,999.87c.27.69.64,1.35,1.09,1.98.46.63.84,1.24,1.15,1.82-2.3,2.15-4.55,4.18-6.75,6.08-2.21,1.91-4.29,3.61-6.26,5.13-3.66,2.83-7.07,5.28-10.21,7.36s-5.99,3.76-8.54,5.03c-1.04.53-1.98.99-2.82,1.39-.84.4-1.58.77-2.21,1.12-.64.35-1.18.67-1.63.98-.45.31-.81.64-1.08.98l-4.73-5.41c2.33-.56,4.77-1.37,7.3-2.41,2.53-1.04,5.09-2.25,7.67-3.64,2.58-1.39,5.14-2.9,7.67-4.55,2.53-1.65,4.96-3.36,7.29-5.13,2.32-1.77,4.52-3.57,6.58-5.4,2.06-1.83,3.89-3.61,5.5-5.35ZM267.65,987.46c1.37.64,2.86,1.48,4.48,2.52,1.62,1.04,3.3,2.26,5.03,3.66-.47.75-.91,1.42-1.3,2.02-.39.6-.75,1.14-1.08,1.61-1.91-1.57-3.66-2.93-5.24-4.07-1.58-1.15-3-2.09-4.28-2.82.58-.73,1.07-1.31,1.45-1.75s.69-.83.93-1.18ZM289.97,992.27c.98.77,1.99,1.66,3.02,2.68,1.03,1.02,1.95,2.05,2.75,3.09-.42.35-.85.69-1.3,1.04-.45.35-.87.68-1.27,1.01-.97-1.31-1.94-2.49-2.91-3.53-.98-1.04-1.85-1.82-2.61-2.35l2.32-1.94ZM295.22,988c.98.77,1.99,1.66,3.02,2.68,1.03,1.02,1.95,2.05,2.75,3.09-.42.35-.85.69-1.3,1.04-.45.35-.87.68-1.27,1.01-.97-1.31-1.94-2.49-2.91-3.53-.98-1.04-1.85-1.82-2.61-2.35l2.32-1.94Z" style="fill: #040000;"/>
    <path d="M142.12,1125.65h9.79v-22.94h3.09v22.94h38.69v2.93h-24.31c4.36,10.21,12.62,17.35,24.8,21.44-.82,1.04-1.57,2.09-2.24,3.14-12.74-5.21-21.29-13.41-25.65-24.58h-11.29v21.6c5.5-2.61,9.94-4.68,13.32-6.21,0,.86,0,1.49.03,1.89.02.47.05.97.08,1.48-3.92,1.6-7.95,3.44-12.09,5.5-1.42.67-2.69,1.4-3.8,2.19l-2.13-2.6c1.04-1.04,1.54-2.36,1.5-3.96v-19.88h-9.79v-2.93ZM188.99,1107.79c-8.17,4.79-17.37,9.18-27.62,13.15-.44-.91-.96-1.84-1.56-2.79,10.3-3.61,19.37-7.88,27.21-12.82l1.97,2.46h0ZM199.62,1112.5h6.78v-9.9h2.57v9.9h6.78v19.82h-6.78v12.44c1.13-.13,2.69-.34,4.68-.63.13-.02.23-.04.3-.05-.33-1.17-.85-2.84-1.56-5.03-.15-.42-.26-.74-.33-.96l2.3-.68c1.18,3.39,2.32,6.95,3.42,10.66l-2.35.71-.68-2.13c-5.83.71-11.43,1.44-16.79,2.19l-.41-2.79c2.61-.26,5.56-.59,8.86-1.01v-12.71h-4.27v2.98h-2.52v-22.8ZM202.14,1114.96v14.9h4.27v-14.9h-4.27ZM213.24,1114.96h-4.27v14.9h4.27v-14.9ZM228.58,1145.88c-3.26,2.61-6.74,5.1-10.42,7.49-.47-.69-1.08-1.44-1.8-2.24,3.63-1.97,7.03-4.38,10.2-7.22l2.02,1.97h0ZM248.4,1143.42c-.95-.95-1.91-1.87-2.87-2.76-2.44.04-5.69.13-9.73.27v7.96c.09,3.72-1.69,5.64-5.33,5.77-.73.04-1.47.06-2.21.08-.36.02-.77.03-1.2.03h-1.72c-.11-.89-.29-1.82-.55-2.79,1.49.11,3.12.16,4.87.16,2.41.09,3.56-1.03,3.47-3.36v-7.71c-1.4.07-3.37.16-5.91.25-1.42.05-2.44.1-3.06.14-.62.02-1.67.11-3.14.27-.47.05-.81.09-1.01.11l-1.09-2.73c1.49-.36,3.04-.93,4.65-1.7,3.06-1.42,6.51-3.17,10.34-5.25-5.52.15-9.61.33-12.25.55l-1.01-2.79c1.31-.4,2.56-.88,3.75-1.45,2.08-1.02,4.82-2.69,8.23-5h-12.36v-18.13h28.11v18.13h-14.96l2.08,1.37c-4.43,2.57-7.83,4.39-10.2,5.47,5.63-.26,9.83-.4,12.61-.44,2.37-1.37,4.27-2.52,5.71-3.47l2.19,1.91c-6.45,3.7-13.33,7.32-20.62,10.86,2.1-.07,5.24-.19,9.43-.36,3.94-.16,6.8-.27,8.59-.33-.44-.42-1.12-1.04-2.05-1.86-.66-.56-1.15-1-1.48-1.31l2.02-1.7c2.81,2.39,5.74,5.04,8.8,7.96l-2.08,1.86ZM222.86,1107.63v5.66h10.14v-5.66h-10.14ZM222.86,1115.53v5.66h10.14v-5.66h-10.14ZM245.72,1107.63h-10.14v5.66h10.14v-5.66ZM235.58,1115.53v5.66h10.14v-5.66h-10.14ZM249.06,1152.88c-3.01-2.42-6.31-4.83-9.9-7.22l1.72-2.02c3.35,2.19,6.7,4.52,10.04,7l-1.86,2.24h0ZM254.01,1149.57h52.12v2.79h-52.12v-2.79ZM261.56,1137.6c3.75-.22,8.55-.41,14.38-.57-.11,1-.16,1.9-.16,2.68-4.48.05-9.35.26-14.6.63-.69.05-1.62.18-2.79.38-.16.02-.28.04-.36.05l-1.39-3.17c1.64-.93,3.12-2.17,4.43-3.72,2.35-2.68,5.13-6.19,8.34-10.53-4.38.05-7.36.16-8.97.3-2.3.16-3.58.31-3.86.44l-1.34-2.9c1.4-.97,2.62-2.11,3.64-3.42,3.7-4.68,6.95-9.49,9.73-14.41l3.09,1.29c-3.94,5.82-7.98,11.27-12.11,16.35.46-.02,1.14-.04,2.05-.05,4.36-.11,7.56-.18,9.6-.22.18-.26.46-.65.82-1.18,1.8-2.57,3.14-4.53,4.02-5.88l2.95,1.39c-6.23,8.62-12.06,16.13-17.47,22.53h0ZM303.61,1136.75c-.11.89-.16,1.82-.16,2.79-5.54,0-11.14.17-16.79.52-2.52.15-4.17.29-4.95.44l-1.39-3.2c1.77-1.13,3.41-2.54,4.92-4.24,2.99-3.28,5.85-6.55,8.59-9.82-2.73.05-6.12.17-10.14.36-1.71.07-2.85.18-3.42.33l-1.29-2.93c1.35-.78,2.63-1.86,3.86-3.23,3.72-4.45,7.14-9.2,10.25-14.25l3.04,1.48c-4.17,5.82-8.32,11.13-12.44,15.94.49,0,1.28,0,2.35-.03,4.3-.07,7.59-.14,9.87-.19,1.73-2.19,3.34-4.31,4.81-6.37l2.9,1.61c-6.09,7.44-12.27,14.57-18.54,21.38,1.28-.04,3.26-.1,5.96-.19,6.58-.22,10.77-.36,12.58-.41h0Z" style="fill: #040000;"/>
    <path d="M142.23,1250.77h8.83v-25.59h37.98v2.57h-35v5.99h33.2v2.52h-33.2v5.99h33.44v2.54h-33.44v5.99h40.25v2.62h-28.66c1.95,3.72,4.3,6.78,7.05,9.19,5.12-2.3,10.29-4.8,15.5-7.52l1.86,2.49c-2.59,1.24-7.07,3.29-13.45,6.15-.69.31-1.21.55-1.56.71,4.41,3.28,10.86,5.75,19.33,7.41-.78,1.06-1.46,2.12-2.02,3.2-15.31-3.76-25.27-10.96-29.86-21.63h-9.41v17.8c2.15-.78,5.72-2.03,10.72-3.75,1.6-.56,2.83-.99,3.66-1.29,0,1.48.03,2.54.08,3.2-5.83,1.77-10.71,3.43-14.63,4.98-.71.31-1.46.74-2.24,1.29l-2.02-2.41c1.02-.82,1.51-1.79,1.48-2.9v-16.93h-7.9v-2.62ZM199.62,1232.5h6.78v-9.9h2.57v9.9h6.78v19.82h-6.78v12.44c1.13-.13,2.69-.34,4.68-.63.13-.02.23-.04.3-.05-.33-1.17-.85-2.84-1.56-5.03-.15-.42-.26-.74-.33-.96l2.3-.68c1.18,3.39,2.32,6.95,3.42,10.66l-2.35.71-.68-2.13c-5.83.71-11.43,1.44-16.79,2.19l-.41-2.79c2.61-.26,5.56-.59,8.86-1.01v-12.71h-4.27v2.98h-2.52v-22.8ZM202.14,1234.97v14.9h4.27v-14.9h-4.27ZM213.24,1234.97h-4.27v14.9h4.27v-14.9ZM228.58,1265.89c-3.26,2.61-6.74,5.1-10.42,7.49-.47-.69-1.08-1.44-1.8-2.24,3.63-1.97,7.03-4.38,10.2-7.22l2.02,1.97h0ZM248.4,1263.43c-.95-.95-1.91-1.87-2.87-2.76-2.44.04-5.69.13-9.73.27v7.96c.09,3.72-1.69,5.64-5.33,5.77-.73.04-1.47.06-2.21.08-.36.02-.77.03-1.2.03h-1.72c-.11-.89-.29-1.82-.55-2.79,1.49.11,3.12.16,4.87.16,2.41.09,3.56-1.03,3.47-3.36v-7.71c-1.4.07-3.37.16-5.91.25-1.42.05-2.44.1-3.06.14-.62.02-1.67.11-3.14.27-.47.05-.81.09-1.01.11l-1.09-2.73c1.49-.36,3.04-.93,4.65-1.7,3.06-1.42,6.51-3.17,10.34-5.25-5.52.15-9.61.33-12.25.55l-1.01-2.79c1.31-.4,2.56-.88,3.75-1.45,2.08-1.02,4.82-2.69,8.23-5h-12.36v-18.13h28.11v18.13h-14.96l2.08,1.37c-4.43,2.57-7.83,4.39-10.2,5.47,5.63-.26,9.83-.4,12.61-.44,2.37-1.37,4.27-2.52,5.71-3.47l2.19,1.91c-6.45,3.7-13.33,7.32-20.62,10.86,2.1-.07,5.24-.19,9.43-.36,3.94-.16,6.8-.27,8.59-.33-.44-.42-1.12-1.04-2.05-1.86-.66-.56-1.15-1-1.48-1.31l2.02-1.7c2.81,2.39,5.74,5.04,8.8,7.96l-2.08,1.86ZM222.86,1227.64v5.66h10.14v-5.66h-10.14ZM222.86,1235.54v5.66h10.14v-5.66h-10.14ZM245.72,1227.64h-10.14v5.66h10.14v-5.66ZM235.58,1235.54v5.66h10.14v-5.66h-10.14ZM249.06,1272.89c-3.01-2.42-6.31-4.83-9.9-7.22l1.72-2.02c3.35,2.19,6.7,4.52,10.04,7l-1.86,2.24h0ZM253.49,1272.89c1.33-4.7,2.38-9.13,3.14-13.29l2.9.46c-.69,3.48-1.7,7.99-3.01,13.54l-3.04-.71ZM272.93,1257.47c-.4-.71-.92-1.73-1.56-3.06-6.12.36-11.38.79-15.75,1.29l-1.23-2.98c2.17-1.33,5.66-5.06,10.47-11.18-4.96.29-8.29.55-9.98.77l-1.18-2.9c3.12-3.03,7.08-8.48,11.89-16.35l3.01,1.5c-3.54,4.94-7.23,9.85-11.07,14.74,1.7-.04,4.83-.21,9.41-.52.77-1,1.95-2.62,3.55-4.87.58-.82,1.02-1.43,1.31-1.83l2.84,1.61c-5.85,7.51-11.02,13.8-15.5,18.87,3.57-.18,7.17-.42,10.8-.71-.95-1.79-1.84-3.42-2.68-4.89l2.41-1.29c1.77,2.95,3.75,6.44,5.93,10.47l-2.68,1.34ZM264.43,1271.2c-.38-4.56-.76-8.32-1.12-11.29l2.62-.3c.4,2.88.85,6.6,1.34,11.16l-2.84.44ZM273.2,1267.18c-1.02-2.75-2.14-5.44-3.36-8.07l2.41-.96c1.7,3.5,2.89,6.1,3.58,7.79l-2.62,1.23ZM274.9,1269.31c2.75-3.17,5.2-6.64,7.33-10.42l2.46,1.34c-2.28,3.79-4.78,7.39-7.49,10.8-.73-.62-1.5-1.19-2.3-1.72h0ZM299.1,1249.7c-1.59-2.04-2.86-3.65-3.83-4.81l2.24-1.59c3.08,3.61,6.07,7.29,8.97,11.05l-2.41,1.78c-.27-.36-.67-.88-1.18-1.56-.47-.62-.83-1.08-1.07-1.39-2.21.07-5.2.15-9,.22h-.55v14.9c.09,3.83-1.77,5.81-5.58,5.93-.64.04-1.39.06-2.24.08-.42.02-.88.03-1.37.03h-1.72c-.13-.98-.33-2-.6-3.04,2.19.13,3.81.19,4.87.19,2.61.07,3.86-1.01,3.75-3.25v-14.74c-.89.04-2.23.08-4.02.14-1.57.05-2.77.1-3.61.14-1.37.04-2.69.17-3.96.41l-1.45-2.98c1.68-.69,3.09-1.51,4.24-2.46,2.59-1.93,6.18-4.96,10.77-9.08-3.26.05-6.64.15-10.14.27-1.33.07-2.52.19-3.58.36l-1.23-2.62c1.17-.64,2.19-1.35,3.06-2.13,3.63-3.3,7.59-7.59,11.89-12.88l2.73,1.61c-3.81,4.19-7.94,8.5-12.39,12.93,3.85-.02,8.05-.11,12.61-.27,3.03-2.86,5.18-4.95,6.45-6.26l2.62,1.78c-5.98,5.83-13,12.03-21.05,18.59,2.15-.04,7.46-.16,15.91-.38.71-.02,1.23-.04,1.56-.05-.16-.2-.4-.5-.71-.9h0ZM304.08,1270.24c-2.68-3.61-5.37-7-8.07-10.17l2.11-1.64c2.52,2.86,5.29,6.19,8.31,9.98l-2.35,1.83h0Z" style="fill: #040000;"/>
    <path d="M171.68,1344.06c-.29,3.41-1.07,6.55-2.34,9.43-1.27,2.88-2.93,5.5-4.99,7.86-2.06,2.36-4.47,4.46-7.23,6.29s-5.77,3.39-9.04,4.66l-2.27-2.41c2.68-.91,5.26-2.08,7.74-3.51,2.48-1.43,4.72-3.11,6.71-5.03,2-1.92,3.68-4.1,5.06-6.54,1.38-2.43,2.3-5.11,2.78-8.03h-19.36v-2.73h22.94ZM154.72,1391.7v-17.2h3.17v14.44h30.19v2.76h-33.36ZM183.46,1340.76h3.17v38.23h-3.17v-38.23ZM248.55,1376.08c-.47.13-1.09.25-1.85.36-.76.11-1.56.21-2.41.3-.85.09-1.7.17-2.57.23-.87.06-1.64.11-2.31.12-.75.04-1.69.07-2.82.1-1.13.03-2.5.05-4.12.05-1.61,0-3.5.02-5.67.03-2.17,0-4.67.01-7.49.01v-32.05h3.17v29.29h11.29c3.5,0,6.43-.1,8.8-.3,2.37-.2,4.2-.46,5.5-.77l.46,2.62ZM256.27,1365.26v28.25h-3.17v-52.75h3.17v21.77h9.08v2.73h-9.08ZM300.59,1379.69c-1.42-1-2.84-2.2-4.25-3.58-1.41-1.39-2.73-2.88-3.94-4.47-1.21-1.59-2.28-3.25-3.21-4.96-.93-1.71-1.63-3.39-2.11-5.03-.42,1.68-1.07,3.4-1.96,5.15-.88,1.76-1.91,3.47-3.09,5.13-1.18,1.66-2.46,3.22-3.86,4.69-1.39,1.47-2.81,2.74-4.25,3.81l-2.65-2.13c1.86-1.26,3.65-2.79,5.36-4.59,1.71-1.8,3.23-3.8,4.54-5.99s2.36-4.53,3.14-7.01c.78-2.49,1.18-5.05,1.18-7.7v-8.53h3.23v8.34c0,2.61.39,5.12,1.16,7.55.77,2.42,1.81,4.69,3.12,6.81,1.3,2.11,2.82,4.04,4.54,5.77,1.72,1.73,3.53,3.19,5.43,4.38l-2.38,2.38ZM312.32,1365.26v28.25h-3.17v-52.75h3.17v21.77h9.08v2.73h-9.08Z" style="fill: #040000;"/>
    <path d="M160.17,1481.6c.22,6.75.38,12.69.38,19.22,0,1.29.57,2.87,1.37,3.5.6.46,1.48.74,2.68.77h.3v3.5h-.52c-1.97,0-3.42-.63-4.29-2.05h-.11c-.19,1.39-.46,2.82-.96,4.07-.85,1.37-1.94,2.32-3.14,3.09-1.75,1.15-3.75,1.7-5.69,1.7-2.38,0-4.35-.82-5.69-2.35-1.26-1.45-1.94-3.53-1.94-6.18,0-2.3.74-4.59,1.83-6.89l.98.38c-.68,1.56-1.15,3.17-1.15,4.76s.44,3.01,1.39,4.24c1.18,1.53,2.79,2.21,4.73,2.21,1.83,0,3.36-.52,4.73-1.29,1.34-.74,2.43-1.59,2.98-2.6.05-.3.19-.57.19-1.8,0-4.27-.22-11.35-.82-22.01.82-.9,1.64-1.72,2.52-2.41l.22.14ZM165.37,1505.09c2.32,0,4.18-.08,5.39-.52.96-.36,1.56-.74,1.56-1.2,0-1.29-1.31-3.96-2.73-6.75.66-1.18,1.34-2.21,2.05-3.09h.14c1.26,2.21,2.73,5.63,2.73,8.34,0,2.05-.82,3.64-1.91,5.09-1.23,1.23-3.17,1.64-7.36,1.64h-.33c-1.5,0-1.91-1.09-1.91-1.83,0-.66.44-1.67,1.91-1.67h.46ZM168.05,1519.5c-1.12-1.07-2.11-1.94-3.2-2.84.71-.98,1.48-1.89,2.16-2.6,1.12.88,2.05,1.78,3.12,2.93-.77,1.09-1.31,1.8-2.08,2.52ZM173.32,1519.14c-1.12-1.07-2.11-1.94-3.2-2.84.71-.98,1.48-1.89,2.16-2.6,1.12.88,2.05,1.78,3.12,2.93-.77,1.09-1.31,1.8-2.08,2.52ZM195.81,1505.09v3.5h-2.27c-.14,1.72-.93,3.88-2.08,5.61-2.11,3.2-5.14,4.68-6.59,4.68-2.49,0-5.25-1.15-7.88-2.76l.46-.9c1.07.57,2.38.98,4.02.98,2.76,0,5.25-1.37,7.6-3.77,1.31-1.34,2.21-2.43,2.57-3.83h-1.34c-5.58,0-8.42-1.78-8.42-5.61,0-1.86.6-3.28,1.39-4.4,1.04-1.5,2.49-2.62,4.21-2.62,2.52,0,5.11,3.53,5.88,9.13h2.43ZM189.6,1501.1c-.88-.98-1.89-1.53-2.9-1.53-1.53,0-3.09,1.31-3.09,2.41,0,1.39,1.29,2.21,2.98,2.71,1.5.41,3.14.41,4.92.41-.3-1.53-.98-2.98-1.91-3.99ZM198.33,1505.09l1.48-2.49c.36-1.39.41-2.62.41-5.44,0-3.72-.38-9.43-.68-12.55-.08-.85-.16-1.83-.16-2.68,0-1.23.77-2.11,2.13-3.14l.19.19c0,1.59.79,3.55,2.32,5.99l-1.78,1.39c.14,2.95.25,5.91.25,8.86,0,2.41-.36,4.02-.96,5.47h.11c2.02-2.05,4.21-3.96,6.02-5.11,1.53-.96,3.36-1.64,5.14-1.64,1.56,0,3.09.6,4.07,1.53,1.26,1.18,2.05,2.84,2.05,4.84,0,.52-.33,1.86-.63,2.9-1.37,4.73-10.91,5.39-16.32,5.39h-6.15c-1.5,0-1.91-1.09-1.91-1.83,0-.66.44-1.67,1.91-1.67h2.52ZM202.62,1505.09c5.93,0,9.71-.6,12.61-2.05.79-.38,1.34-.85,1.64-1.26-.03-1.94-2.27-4.21-5.25-4.21-3.53,0-7.46,2.87-11.4,7.52h2.41ZM243.75,1494.48l1.94,3.69c.71,1.37,1.37,2.84,1.37,5.2v3.01c0,2.43-1.31,5.03-3.45,7.6-1.67,1.75-3.14,2.49-4.51,2.49-2.02,0-4.35-.74-7.03-2.11l.3-.93c.85.27,1.83.49,3.04.49,3.86-.03,7.79-3.34,9.6-7.38.22-.46.3-.9.3-1.2,0-.46-.22-.98-.38-1.45-.98-2.19-2.08-4.18-3.28-6.02.63-1.18,1.26-2.3,1.94-3.42l.16.03ZM261.13,1504.46c1.53-.85,2.16-2.41,3.14-4.35.68-1.37,1.29-2.54,2.49-4.18h.27c1.64,2.16,3.25,4.16,5.2,6.21,2,2.11,3.86,2.95,5.69,2.95h.33v3.5h-.33c-2.32,0-3.91-.9-5.55-2.84l-.08.03v.44c0,3.77-1.86,5.66-3.42,5.66-2.65,0-5.17-2.65-5.77-5.88h-.14c-1.01,1.53-2.49,2.6-4.65,2.6-1.59,0-2.98-.46-4.1-1.59-1.67-1.7-1.8-3.61-1.8-7.63,0-5.2-.3-10.64-.71-16.43.93-1.01,1.78-1.91,2.57-2.54l.19.11c.44,5.99.44,13.07.44,19.8v1.56c0,1.75.98,2.54,2.05,2.93.68.25,1.39.3,1.75.3.66,0,1.7-.22,2.43-.63ZM266.19,1499.65c-.85,1.59-1.34,2.6-1.34,3.72,0,2.13,1.78,4.87,4.27,4.87.68,0,1.48-.82,1.48-2,0-.77-.16-1.34-.93-2.38-1.01-1.42-2.19-2.73-3.34-4.21h-.14ZM306.25,1508.59h-.68c-3.39,0-4.95-1.04-5.63-2.57h-.16c-1.53,1.8-3.09,2.57-4.68,2.57-1.18,0-2.54-.36-2.98-2.27h-.11c-1.23,1.34-2.71,2.27-4.73,2.27-1.5,0-2.46-.71-2.62-2.32h-.11c-1.67,1.94-3.96,2.32-5.82,2.32h-.46c-1.5,0-1.91-1.09-1.91-1.83,0-.66.44-1.67,1.91-1.67h.93c2.49-.03,4.4-.68,5.77-2.54l1.37-2.13,2.11-.74.11.14c-1.04,1.8-1.78,3.09-1.78,3.91s.63,1.37,1.48,1.37c.79,0,1.67-.27,2.38-.82.68-.49,1.37-1.45,1.78-2.41l.66-1.61,2.08-.96.11.11c-.82,2.08-1.12,3.09-1.12,4.1,0,.74.46,1.59,1.53,1.59.9,0,1.48-.33,1.89-.6.82-.55,1.26-1.45,1.59-2.62.11-.44.27-.96.55-2.16l2.08-1.39.11.08c-.36,1.2-.68,2.73-.68,3.75,0,2.16,1.89,2.95,4.48,2.95h.6v3.5ZM306.85,1505.09c2.02,0,3.61-1.39,4.59-4.84.3-1.09,1.01-2.21,2.02-3.31,1.01-.93,2.13-1.59,3.45-1.59,3.34,0,5.3,4.59,5.74,9.38-.57,2.49-1.59,3.53-2.9,3.53-2.71,0-5.41-1.23-8.12-3.23h-.19c-.71,2.41-2.27,3.55-4.73,3.55h-.46c-1.5,0-1.91-1.09-1.91-1.83,0-.66.44-1.67,1.91-1.67h.6ZM316.42,1503.99c1.04.44,2.16.79,3.25.79.41,0,.77-.05.88-.3-.79-4.13-2.6-5.96-4.32-5.96-1.56,0-2.87.88-3.66,2.68.82,1.23,2.21,2.11,3.86,2.79Z" style="fill: #040000;"/>
    <g>
      <path d="M567.98,2119.82c1.36-4.08,4.96-6.68,9.28-6.68,5.28,0,9.28,3.76,9.28,8.72,0,3.44-1.56,6.4-5.52,10.28l-6.32,6.24h12.28v3.96h-18.48v-3.4l9.68-9.56c2.16-2.12,4.4-4.44,4.4-7.44,0-2.8-2.28-4.84-5.36-4.84-2.64,0-4.76,1.6-5.52,4.2l-3.72-1.48Z" style="fill: #221714;"/>
      <path d="M597.34,2113.54h3.48v28.79h-3.96v-24.04l-5.8,3.4-1.88-3.48,8.16-4.68Z" style="fill: #221714;"/>
    </g>
  </g>
</svg>