<?xml version="1.0" encoding="UTF-8"?>
<svg id="_圖層_1" data-name="圖層 1" xmlns="http://www.w3.org/2000/svg" xmlns:xlink="http://www.w3.org/1999/xlink" viewBox="0 0 1170 2182.68">
  <defs>
    <clipPath id="clippath">
      <rect y="-174.66" width="1170" height="2532" style="fill: none;"/>
    </clipPath>
  </defs>
  <g style="clip-path: url(#clippath);">
    <g>
      <path d="M243.87,148.5c6.42,0,12.18,2.7,16.26,7.08l-5.82,5.82c-2.58-2.88-6.3-4.68-10.44-4.68-7.74,0-13.98,6.24-13.98,13.98s6.24,13.98,13.98,13.98c4.14,0,7.86-1.8,10.44-4.68l5.82,5.82c-4.08,4.32-9.84,7.08-16.26,7.08-12.24,0-22.2-9.96-22.2-22.2s9.96-22.2,22.2-22.2Z" style="fill: #040000;"/>
      <path d="M272.13,192.29h-8.22v-45h8.22v45Z" style="fill: #040000;"/>
      <path d="M291.87,161.7c8.58,0,14.34,6.18,14.34,15,0,1.26-.12,2.58-.3,3.9h-21.36c1.14,3.24,4.2,5.1,8.04,5.1,2.7,0,5.28-.96,6.84-2.76l5.04,5.04c-2.76,3.06-6.84,4.92-12.06,4.92-8.94,0-15.84-6.84-15.84-15.6s6.66-15.6,15.3-15.6ZM284.37,174.71h14.34c-.48-3.66-3.54-5.88-7.02-5.88s-6.72,2.28-7.32,5.88Z" style="fill: #040000;"/>
      <path d="M324.09,161.7c3.42,0,6.48,1.56,8.46,3.72v-3.12h8.22v30h-8.22v-3.24c-1.98,2.22-5.04,3.84-8.46,3.84-8.58,0-14.52-6.96-14.52-15.6s5.94-15.6,14.52-15.6ZM317.79,177.29c0,4.08,3.3,7.38,7.38,7.38s7.38-3.3,7.38-7.38-3.3-7.38-7.38-7.38-7.38,3.3-7.38,7.38Z" style="fill: #040000;"/>
      <path d="M347.01,192.29v-30h8.22v2.94c2.1-2.28,5.16-3.54,8.64-3.54v7.98c-.36-.06-.78-.12-1.14-.12-4.08,0-7.5,2.88-7.5,6.9v15.84h-8.22Z" style="fill: #040000;"/>
      <path d="M379.89,161.7c3.42,0,6.48,1.56,8.46,3.72v-3.12h8.22v30h-8.22v-3.24c-1.98,2.22-5.04,3.84-8.46,3.84-8.58,0-14.52-6.96-14.52-15.6s5.94-15.6,14.52-15.6ZM373.59,177.29c0,4.08,3.3,7.38,7.38,7.38s7.38-3.3,7.38-7.38-3.3-7.38-7.38-7.38-7.38,3.3-7.38,7.38Z" style="fill: #040000;"/>
      <path d="M402.81,192.29v-30h8.22v2.82c2.22-2.22,5.34-3.42,8.64-3.42,6.9,0,11.7,4.98,11.7,12.36v18.24h-8.22v-16.02c0-4.38-2.4-6.6-5.76-6.6-3.6,0-6.36,2.7-6.36,6.78v15.84h-8.22Z" style="fill: #040000;"/>
      <path d="M435.87,177.29c0-8.64,7.02-15.6,15.6-15.6,4.44,0,8.46,1.86,11.28,4.86l-5.82,5.82c-1.32-1.5-3.3-2.46-5.46-2.46-4.08,0-7.38,3.3-7.38,7.38s3.3,7.38,7.38,7.38c2.16,0,4.14-.96,5.46-2.46l5.82,5.82c-2.82,3-6.84,4.86-11.28,4.86-8.58,0-15.6-7.02-15.6-15.6Z" style="fill: #040000;"/>
      <path d="M479.61,161.7c8.58,0,14.34,6.18,14.34,15,0,1.26-.12,2.58-.3,3.9h-21.36c1.14,3.24,4.2,5.1,8.04,5.1,2.7,0,5.28-.96,6.84-2.76l5.04,5.04c-2.76,3.06-6.84,4.92-12.06,4.92-8.94,0-15.84-6.84-15.84-15.6s6.66-15.6,15.3-15.6ZM472.11,174.71h14.34c-.48-3.66-3.54-5.88-7.02-5.88s-6.72,2.28-7.32,5.88Z" style="fill: #040000;"/>
      <path d="M520.88,169.2c-2.16-2.82-3.78-5.94-3.78-9.18,0-7.62,5.88-11.52,12.6-11.52s12.6,3.78,12.6,11.52c0,5.52-3.78,8.82-9.48,11.04.78.72,1.38,1.32,1.98,1.92l5.58,5.58c.84-1.56,1.38-3.3,1.5-5.1l7.26,1.26c-.24,3.54-1.38,6.78-3.18,9.54l4.14,4.14-5.16,5.52-4.5-4.5c-3.36,2.28-7.68,3.54-12.54,3.54-9.48,0-15.48-4.68-15.48-12.18,0-6.06,3.9-9.66,8.46-11.58ZM528.38,185.27c2.46,0,4.62-.66,6.36-1.68l-6.24-6.24c-.96-.96-2.1-2.04-3.18-3.18-2.4,1.26-4.44,2.94-4.44,5.82,0,3.36,2.94,5.28,7.5,5.28ZM525.26,160.25c0,2.1,1.32,4.2,3,6.12,3.42-1.68,5.82-3.36,5.82-6.12s-2.04-4.26-4.38-4.26-4.44,1.62-4.44,4.26Z" style="fill: #040000;"/>
      <path d="M567.08,185.93l5.58-6.06c3.84,3.24,7.68,4.86,12.78,4.86s8.1-2.1,8.1-4.86c0-3-3.9-4.5-10.68-6.42-6.78-1.92-13.44-4.86-13.44-12.54s7.02-12.42,15.54-12.42c5.76,0,12.06,2.76,15.66,6.9l-5.82,5.76c-2.76-2.88-6.54-4.44-10.56-4.44s-6.54,1.5-6.54,4.08,3.54,3.72,9.84,5.46c8.16,2.28,14.22,5.88,14.22,13.38,0,8.34-7.92,13.32-16.68,13.32-7.14,0-13.02-2.58-18-7.02Z" style="fill: #040000;"/>
      <path d="M606.33,162.29h8.22v3.24c1.98-2.22,5.04-3.84,8.46-3.84,8.64,0,14.52,6.96,14.52,15.6s-5.94,15.6-14.52,15.6c-3.42,0-6.48-1.62-8.46-3.72v17.04h-8.22v-43.92ZM614.54,177.29c0,4.08,3.3,7.38,7.38,7.38s7.38-3.3,7.38-7.38-3.3-7.38-7.38-7.38-7.38,3.3-7.38,7.38Z" style="fill: #040000;"/>
      <path d="M656.18,161.7c8.58,0,14.34,6.18,14.34,15,0,1.26-.12,2.58-.3,3.9h-21.36c1.14,3.24,4.2,5.1,8.04,5.1,2.7,0,5.28-.96,6.84-2.76l5.04,5.04c-2.76,3.06-6.84,4.92-12.06,4.92-8.94,0-15.84-6.84-15.84-15.6s6.66-15.6,15.3-15.6ZM648.68,174.71h14.34c-.48-3.66-3.54-5.88-7.02-5.88s-6.72,2.28-7.32,5.88Z" style="fill: #040000;"/>
      <path d="M673.88,177.29c0-8.64,7.02-15.6,15.6-15.6,4.44,0,8.46,1.86,11.28,4.86l-5.82,5.82c-1.32-1.5-3.3-2.46-5.46-2.46-4.08,0-7.38,3.3-7.38,7.38s3.3,7.38,7.38,7.38c2.16,0,4.14-.96,5.46-2.46l5.82,5.82c-2.82,3-6.84,4.86-11.28,4.86-8.58,0-15.6-7.02-15.6-15.6Z" style="fill: #040000;"/>
      <path d="M708.98,148.5c2.64,0,4.8,2.16,4.8,4.8s-2.16,4.8-4.8,4.8-4.86-2.16-4.86-4.8,2.16-4.8,4.86-4.8ZM704.84,192.29v-30h8.22v30h-8.22Z" style="fill: #040000;"/>
      <path d="M717.02,170.51v-8.22h4.56v-1.62c0-8.64,4.62-12.18,12-12.18h2.7v7.86h-1.86c-3,0-4.62,1.2-4.62,4.98v.96h18.72v30h-8.22v-21.78h-10.5v21.78h-8.22v-21.78h-4.56ZM744.38,148.5c2.7,0,4.8,2.16,4.86,4.8,0,2.64-2.16,4.8-4.86,4.8s-4.8-2.1-4.8-4.8,2.16-4.8,4.8-4.8Z" style="fill: #040000;"/>
      <path d="M753.02,177.29c0-8.64,7.02-15.6,15.6-15.6,4.44,0,8.46,1.86,11.28,4.86l-5.82,5.82c-1.32-1.5-3.3-2.46-5.46-2.46-4.08,0-7.38,3.3-7.38,7.38s3.3,7.38,7.38,7.38c2.16,0,4.14-.96,5.46-2.46l5.82,5.82c-2.82,3-6.84,4.86-11.28,4.86-8.58,0-15.6-7.02-15.6-15.6Z" style="fill: #040000;"/>
      <path d="M795.98,161.7c3.42,0,6.48,1.56,8.46,3.72v-3.12h8.22v30h-8.22v-3.24c-1.98,2.22-5.04,3.84-8.46,3.84-8.58,0-14.52-6.96-14.52-15.6s5.94-15.6,14.52-15.6ZM789.68,177.29c0,4.08,3.3,7.38,7.38,7.38s7.38-3.3,7.38-7.38-3.3-7.38-7.38-7.38-7.38,3.3-7.38,7.38Z" style="fill: #040000;"/>
      <path d="M818.78,162.29c1.8,0,3-1.2,3-2.94v-5.1h8.22v8.04h7.2v8.22h-7.2v8.58c0,4.68.66,5.88,3.36,5.94,1.14,0,2.34-.24,3.84-.54v7.8c-1.38.36-3.6.6-5.1.6-7.2,0-10.32-3.24-10.32-10.8v-11.58h-5.28v-8.22h2.28Z" style="fill: #040000;"/>
      <path d="M846.5,148.5c2.64,0,4.8,2.16,4.8,4.8s-2.16,4.8-4.8,4.8-4.86-2.16-4.86-4.8,2.16-4.8,4.86-4.8ZM842.36,192.29v-30h8.22v30h-8.22Z" style="fill: #040000;"/>
      <path d="M886.28,177.29c0,8.58-6.96,15.6-15.6,15.6s-15.6-7.02-15.6-15.6,7.02-15.6,15.6-15.6,15.6,6.96,15.6,15.6ZM870.68,184.67c4.08,0,7.38-3.3,7.38-7.38s-3.3-7.38-7.38-7.38-7.38,3.3-7.38,7.38,3.3,7.38,7.38,7.38Z" style="fill: #040000;"/>
      <path d="M890.78,192.29v-30h8.22v2.82c2.22-2.22,5.34-3.42,8.64-3.42,6.9,0,11.7,4.98,11.7,12.36v18.24h-8.22v-16.02c0-4.38-2.4-6.6-5.76-6.6-3.6,0-6.36,2.7-6.36,6.78v15.84h-8.22Z" style="fill: #040000;"/>
      <path d="M928.04,182.09c2.4,2.04,5.94,3.6,9.24,3.6,2.52,0,4.38-1.02,4.38-2.34,0-2.04-3-2.58-5.04-3.12-5.16-1.38-12-2.88-12-9.54,0-5.16,5.16-9,12.24-9,4.68,0,8.88,1.62,12,4.14l-4.14,5.52c-2.04-1.56-5.22-2.52-7.8-2.52-2.82,0-4.08.9-4.08,1.92,0,1.38,2.52,1.86,5.64,2.58,6.42,1.26,11.46,3.54,11.46,9.96,0,5.58-5.46,9.54-12.9,9.54-5.16,0-9.78-1.74-13.62-5.16l4.62-5.58Z" style="fill: #040000;"/>
    </g>
    <g>
      <path d="M524.16,307.26v-57.6h10.96v22.48h23.84v-22.48h10.96v57.6h-10.96v-24.16h-23.84v24.16h-10.96Z" style="fill: #cf391a;"/>
      <path d="M591.52,249.66h9.52v57.6h-10.96v-44.88l-9.92,5.2-4.56-9.76,15.92-8.16Z" style="fill: #cf391a;"/>
      <path d="M607.12,286.22l18.72-36.56h12.32l-18,35.12h12.64v-11.28h10.96v11.28h6v10.96h-6v11.52h-10.96v-11.52h-25.68v-9.52Z" style="fill: #cf391a;"/>
    </g>
    <g>
      <path d="M218.55,1202.44h4.32v43.2h-4.8v-37.26l-9.42,5.64-2.46-4.08,12.36-7.5Z" style="fill: #040000;"/>
      <path d="M249.27,1202.44l-15.6,29.04h16.32v-11.16h4.8v11.16h5.76v4.8h-5.76v9.36h-4.8v-9.36h-22.32v-3.72l16.14-30.12h5.46Z" style="fill: #040000;"/>
      <path d="M280.95,1201.84c10.5,0,16.8,8.34,16.8,22.2s-6.3,22.2-16.8,22.2-16.8-8.34-16.8-22.2,6.3-22.2,16.8-22.2ZM280.95,1241.44c7.74,0,12-6.18,12-17.4s-4.26-17.4-12-17.4-12,6.18-12,17.4,4.26,17.4,12,17.4Z" style="fill: #040000;"/>
      <path d="M301.71,1215.64h6.12l8.28,10.5,8.22-10.5h6.12l-11.28,14.4,12.24,15.6h-6.06l-9.24-11.76-9.24,11.76h-6.12l12.3-15.6-11.34-14.4Z" style="fill: #040000;"/>
      <path d="M345.57,1202.44h4.32v43.2h-4.8v-37.26l-9.42,5.64-2.46-4.08,12.36-7.5Z" style="fill: #040000;"/>
      <path d="M376.29,1202.44l-15.6,29.04h16.32v-11.16h4.8v11.16h5.76v4.8h-5.76v9.36h-4.8v-9.36h-22.32v-3.72l16.14-30.12h5.46Z" style="fill: #040000;"/>
      <path d="M407.96,1201.84c10.5,0,16.8,8.34,16.8,22.2s-6.3,22.2-16.8,22.2-16.8-8.34-16.8-22.2,6.3-22.2,16.8-22.2ZM407.96,1241.44c7.74,0,12-6.18,12-17.4s-4.26-17.4-12-17.4-12,6.18-12,17.4,4.26,17.4,12,17.4Z" style="fill: #040000;"/>
      <path d="M428.73,1215.64h6.12l8.28,10.5,8.22-10.5h6.12l-11.28,14.4,12.24,15.6h-6.06l-9.24-11.76-9.24,11.76h-6.12l12.3-15.6-11.34-14.4Z" style="fill: #040000;"/>
      <path d="M486.5,1202.44v4.26l-9.96,12.18c6.96,1.26,11.7,6.66,11.7,13.8,0,7.92-5.94,13.56-14.34,13.56-6.66,0-12.06-3.9-14.28-10.32l4.5-1.8c1.38,4.44,5.22,7.32,9.78,7.32,5.7,0,9.54-3.54,9.54-8.76s-4.14-9.24-10.08-9.24c-.66,0-1.32.06-1.98.24l-2.34-3.48,10.68-12.96h-17.52v-4.8h24.3Z" style="fill: #040000;"/>
      <path d="M508.94,1201.84c10.5,0,16.8,8.34,16.8,22.2s-6.3,22.2-16.8,22.2-16.8-8.34-16.8-22.2,6.3-22.2,16.8-22.2ZM508.94,1241.44c7.74,0,12-6.18,12-17.4s-4.26-17.4-12-17.4-12,6.18-12,17.4,4.26,17.4,12,17.4Z" style="fill: #040000;"/>
      <path d="M545.48,1197.64c-5.88,7.38-8.52,17.82-8.52,28.2s2.64,20.82,8.52,28.2h-5.82c-5.1-7.08-7.62-17.64-7.62-28.2s2.52-21.12,7.62-28.2h5.82Z" style="fill: #040000;"/>
      <path d="M555.68,1215.64v4.08c2.22-2.58,5.58-4.68,9.72-4.68,4.92,0,8.7,2.28,10.56,6.24,2.4-3.6,6.36-6.24,11.04-6.24,7.14,0,11.88,4.8,11.88,12.78v17.82h-4.8v-17.58c0-6.36-3.18-8.88-7.74-8.88-4.98,0-9.06,3.54-9.06,9.3v17.16h-4.8v-17.58c0-6.36-3.18-8.88-7.74-8.88-4.98,0-9.06,3.6-9.06,9.42v17.04h-4.8v-30h4.8Z" style="fill: #040000;"/>
      <path d="M612.08,1215.64v4.08c2.22-2.58,5.58-4.68,9.72-4.68,4.92,0,8.7,2.28,10.56,6.24,2.4-3.6,6.36-6.24,11.04-6.24,7.14,0,11.88,4.8,11.88,12.78v17.82h-4.8v-17.58c0-6.36-3.18-8.88-7.74-8.88-4.98,0-9.06,3.54-9.06,9.3v17.16h-4.8v-17.58c0-6.36-3.18-8.88-7.74-8.88-4.98,0-9.06,3.6-9.06,9.42v17.04h-4.8v-30h4.8Z" style="fill: #040000;"/>
      <path d="M666.5,1197.64c5.04,7.08,7.62,17.64,7.62,28.2s-2.58,21.12-7.62,28.2h-5.82c5.88-7.38,8.52-17.82,8.52-28.2s-2.64-20.82-8.52-28.2h5.82Z" style="fill: #040000;"/>
    </g>
    <g>
      <path d="M237.63,1382.44v4.8h-22.44v13.2h20.04v4.8h-20.04v20.4h-4.8v-43.2h27.24Z" style="fill: #040000;"/>
      <path d="M244.83,1382.44h15.9c12.42,0,21.24,9,21.24,21.6s-8.82,21.6-21.24,21.6h-15.9v-43.2ZM249.63,1387.24v33.6h11.1c9.72,0,16.44-6.84,16.44-16.8s-6.72-16.8-16.44-16.8h-11.1Z" style="fill: #040000;"/>
      <path d="M308.13,1382.44c6.36,0,11.46,4.5,11.46,10.8,0,3.96-2.04,7.44-5.4,9.48,4.26,2.1,6.96,6.24,6.96,10.98,0,6.9-5.64,11.94-12.6,11.94h-18.78v-43.2h18.36ZM294.57,1400.5h13.56c3.66,0,6.66-3,6.66-6.66s-3-6.6-6.66-6.6h-13.56v13.26ZM294.57,1420.84h13.98c4.32,0,7.8-3.48,7.8-7.74s-3.48-7.8-7.8-7.8h-13.98v15.54Z" style="fill: #040000;"/>
    </g>
    <g>
      <path d="M224.19,1561.84c10.5,0,16.8,8.34,16.8,22.2s-6.3,22.2-16.8,22.2-16.8-8.34-16.8-22.2,6.3-22.2,16.8-22.2ZM224.19,1601.44c7.74,0,12-6.18,12-17.4s-4.26-17.4-12-17.4-12,6.18-12,17.4,4.26,17.4,12,17.4Z" style="fill: #040000;"/>
      <path d="M260.73,1557.64c-5.88,7.38-8.52,17.82-8.52,28.2s2.64,20.82,8.52,28.2h-5.82c-5.1-7.08-7.62-17.64-7.62-28.2s2.52-21.12,7.62-28.2h5.82Z" style="fill: #040000;"/>
      <path d="M281.13,1561.84c10.5,0,16.8,8.34,16.8,22.2s-6.3,22.2-16.8,22.2-16.8-8.34-16.8-22.2,6.3-22.2,16.8-22.2ZM281.13,1601.44c7.74,0,12-6.18,12-17.4s-4.26-17.4-12-17.4-12,6.18-12,17.4,4.26,17.4,12,17.4Z" style="fill: #040000;"/>
      <path d="M304.53,1588.78h16.74v4.8h-16.74v-4.8Z" style="fill: #040000;"/>
      <path d="M354.63,1574.74c0,5.16-2.46,9.54-8.76,15.72l-10.56,10.38h19.92v4.8h-27.3v-4.26l14.52-14.28c3.42-3.36,7.38-7.2,7.38-12.36,0-4.62-3.84-8.1-9-8.1-4.38,0-7.86,2.58-9.12,6.84l-4.56-1.8c2.1-6.06,7.32-9.84,13.68-9.84,7.86,0,13.8,5.58,13.8,12.9Z" style="fill: #040000;"/>
      <path d="M376.83,1561.84c10.5,0,16.8,8.34,16.8,22.2s-6.3,22.2-16.8,22.2-16.8-8.34-16.8-22.2,6.3-22.2,16.8-22.2ZM376.83,1601.44c7.74,0,12-6.18,12-17.4s-4.26-17.4-12-17.4-12,6.18-12,17.4,4.26,17.4,12,17.4Z" style="fill: #040000;"/>
      <path d="M408.99,1561.84c5.88,0,10.62,4.74,10.62,10.56s-4.74,10.62-10.62,10.62-10.56-4.74-10.56-10.62,4.74-10.56,10.56-10.56ZM408.99,1579c3.66,0,6.6-2.94,6.6-6.6s-2.94-6.54-6.6-6.54-6.54,2.94-6.54,6.54,2.94,6.6,6.54,6.6ZM434.18,1562.44l-29.34,43.2h4.98l29.28-43.2h-4.92ZM435.02,1585.06c5.82,0,10.56,4.74,10.56,10.62s-4.74,10.56-10.56,10.56-10.62-4.74-10.62-10.56,4.74-10.62,10.62-10.62ZM435.02,1602.22c3.6,0,6.54-2.94,6.54-6.54s-2.94-6.6-6.54-6.6-6.6,2.94-6.6,6.6,2.94,6.54,6.6,6.54Z" style="fill: #040000;"/>
      <path d="M455.01,1557.64c5.04,7.08,7.62,17.64,7.62,28.2s-2.58,21.12-7.62,28.2h-5.82c5.88-7.38,8.52-17.82,8.52-28.2s-2.64-20.82-8.52-28.2h5.82Z" style="fill: #040000;"/>
      <path d="M470.73,1588.78h16.74v4.8h-16.74v-4.8Z" style="fill: #040000;"/>
      <path d="M505.23,1562.44h4.32v43.2h-4.8v-37.26l-9.42,5.64-2.46-4.08,12.36-7.5Z" style="fill: #040000;"/>
      <path d="M514.94,1591.3c0-2.82.78-5.58,2.22-7.8l13.68-21.06h5.76l-9.24,14.16c.84-.12,1.62-.18,2.52-.18,8.22,0,14.88,6.66,14.88,14.88s-6.66,14.94-14.88,14.94-14.94-6.66-14.94-14.94ZM539.96,1591.3c0-5.52-4.56-10.08-10.08-10.08s-10.08,4.56-10.08,10.08,4.5,10.08,10.08,10.08,10.08-4.5,10.08-10.08Z" style="fill: #040000;"/>
      <path d="M565.76,1561.84c10.5,0,16.8,8.34,16.8,22.2s-6.3,22.2-16.8,22.2-16.8-8.34-16.8-22.2,6.3-22.2,16.8-22.2ZM565.76,1601.44c7.74,0,12-6.18,12-17.4s-4.26-17.4-12-17.4-12,6.18-12,17.4,4.26,17.4,12,17.4Z" style="fill: #040000;"/>
      <path d="M604.16,1561.84c10.5,0,16.8,8.34,16.8,22.2s-6.3,22.2-16.8,22.2-16.8-8.34-16.8-22.2,6.3-22.2,16.8-22.2ZM604.16,1601.44c7.74,0,12-6.18,12-17.4s-4.26-17.4-12-17.4-12,6.18-12,17.4,4.26,17.4,12,17.4Z" style="fill: #040000;"/>
      <path d="M640.7,1557.64c-5.88,7.38-8.52,17.82-8.52,28.2s2.64,20.82,8.52,28.2h-5.82c-5.1-7.08-7.62-17.64-7.62-28.2s2.52-21.12,7.62-28.2h5.82Z" style="fill: #040000;"/>
      <path d="M655.46,1562.44h4.32v43.2h-4.8v-37.26l-9.42,5.64-2.46-4.08,12.36-7.5Z" style="fill: #040000;"/>
      <path d="M682.58,1561.84c10.5,0,16.8,8.34,16.8,22.2s-6.3,22.2-16.8,22.2-16.8-8.34-16.8-22.2,6.3-22.2,16.8-22.2ZM682.58,1601.44c7.74,0,12-6.18,12-17.4s-4.26-17.4-12-17.4-12,6.18-12,17.4,4.26,17.4,12,17.4Z" style="fill: #040000;"/>
      <path d="M720.98,1561.84c10.5,0,16.8,8.34,16.8,22.2s-6.3,22.2-16.8,22.2-16.8-8.34-16.8-22.2,6.3-22.2,16.8-22.2ZM720.98,1601.44c7.74,0,12-6.18,12-17.4s-4.26-17.4-12-17.4-12,6.18-12,17.4,4.26,17.4,12,17.4Z" style="fill: #040000;"/>
      <path d="M753.14,1561.84c5.88,0,10.62,4.74,10.62,10.56s-4.74,10.62-10.62,10.62-10.56-4.74-10.56-10.62,4.74-10.56,10.56-10.56ZM753.14,1579c3.66,0,6.6-2.94,6.6-6.6s-2.94-6.54-6.6-6.54-6.54,2.94-6.54,6.54,2.94,6.6,6.54,6.6ZM778.34,1562.44l-29.34,43.2h4.98l29.28-43.2h-4.92ZM779.18,1585.06c5.82,0,10.56,4.74,10.56,10.62s-4.74,10.56-10.56,10.56-10.62-4.74-10.62-10.56,4.74-10.62,10.62-10.62ZM779.18,1602.22c3.6,0,6.54-2.94,6.54-6.54s-2.94-6.6-6.54-6.6-6.6,2.94-6.6,6.6,2.94,6.54,6.6,6.54Z" style="fill: #040000;"/>
      <path d="M799.16,1557.64c5.04,7.08,7.62,17.64,7.62,28.2s-2.58,21.12-7.62,28.2h-5.82c5.88-7.38,8.52-17.82,8.52-28.2s-2.64-20.82-8.52-28.2h5.82Z" style="fill: #040000;"/>
      <path d="M834.32,1562.44c7.86,0,13.5,5.94,13.5,14.1,0,5.76-2.82,10.38-7.2,12.66l8.04,16.44h-5.34l-7.38-15.06c-.48,0-1.02.06-1.62.06h-13.44v15h-4.8v-43.2h18.24ZM820.88,1585.84h13.44c5.04,0,8.7-3.96,8.7-9.3s-3.66-9.3-8.64-9.3h-13.5v18.6Z" style="fill: #040000;"/>
      <path d="M855.26,1562.44h17.04c7.86,0,13.5,5.94,13.5,14.1s-5.64,14.1-13.5,14.1h-12.24v15h-4.8v-43.2ZM860.06,1567.24v18.6h12.24c5.04,0,8.7-3.96,8.7-9.3s-3.66-9.3-8.64-9.3h-12.3Z" style="fill: #040000;"/>
      <path d="M897.56,1562.44l15.54,26.88,15.54-26.88h3.96v43.2h-4.8v-32.22l-12.78,22.2h-3.78l-12.84-22.2v32.22h-4.8v-43.2h3.96Z" style="fill: #040000;"/>
    </g>
    <g>
      <path d="M237.15,1753.96c0,4.8-2.46,7.62-5.46,9.48,3.9,1.8,6.84,4.98,6.84,10.32,0,7.38-5.16,12.48-15.9,12.48s-15.84-5.1-15.84-12.48c0-5.34,2.94-8.52,6.78-10.32-3-1.86-5.4-4.68-5.4-9.48,0-7.44,5.82-12.12,14.46-12.12s14.52,4.68,14.52,12.12ZM211.53,1773.76c0,4.56,3.18,7.68,11.1,7.68s11.16-3.12,11.16-7.68c0-4.98-4.98-7.62-11.16-7.62s-11.1,2.64-11.1,7.62ZM212.97,1753.96c0,4.68,4.38,7.38,9.66,7.38s9.72-2.7,9.72-7.38-3.78-7.32-9.72-7.32-9.66,2.7-9.66,7.32Z" style="fill: #040000;"/>
      <path d="M268.23,1742.44v4.8h-19.08l-.78,10.5c1.86-.66,4.8-1.2,7.02-1.2,9,0,14.76,6.06,14.76,14.94,0,8.4-6.48,14.76-15,14.76-6.72,0-12-3.9-14.22-10.32l4.5-1.8c1.38,4.44,5.1,7.32,9.84,7.32,5.76,0,10.02-4.2,10.02-9.96.06-6.24-3.54-10.08-9.96-10.08-2.7,0-5.82.84-8.04,2.04h-4.26l1.56-21h23.64Z" style="fill: #040000;"/>
      <path d="M282.03,1782.88c0,1.86-1.5,3.36-3.42,3.36s-3.36-1.5-3.36-3.36,1.5-3.42,3.36-3.42,3.42,1.5,3.42,3.42Z" style="fill: #040000;"/>
      <path d="M299.19,1742.44h4.32v43.2h-4.8v-37.26l-9.42,5.64-2.46-4.08,12.36-7.5Z" style="fill: #040000;"/>
      <path d="M339.26,1753.96c0,4.8-2.46,7.62-5.46,9.48,3.9,1.8,6.84,4.98,6.84,10.32,0,7.38-5.16,12.48-15.9,12.48s-15.84-5.1-15.84-12.48c0-5.34,2.94-8.52,6.78-10.32-3-1.86-5.4-4.68-5.4-9.48,0-7.44,5.82-12.12,14.46-12.12s14.52,4.68,14.52,12.12ZM313.65,1773.76c0,4.56,3.18,7.68,11.1,7.68s11.16-3.12,11.16-7.68c0-4.98-4.98-7.62-11.16-7.62s-11.1,2.64-11.1,7.62ZM315.08,1753.96c0,4.68,4.38,7.38,9.66,7.38s9.72-2.7,9.72-7.38-3.78-7.32-9.72-7.32-9.66,2.7-9.66,7.32Z" style="fill: #040000;"/>
      <path d="M359.78,1737.64c-5.88,7.38-8.52,17.82-8.52,28.2s2.64,20.82,8.52,28.2h-5.82c-5.1-7.08-7.62-17.64-7.62-28.2s2.52-21.12,7.62-28.2h5.82Z" style="fill: #040000;"/>
      <path d="M401.84,1748.92l-3.42,3.42c-3.18-3.48-7.74-5.7-12.84-5.7-9.6,0-17.4,7.8-17.4,17.4s7.8,17.4,17.4,17.4c5.1,0,9.66-2.22,12.84-5.7l3.42,3.42c-4.08,4.38-9.84,7.08-16.26,7.08-12.24,0-22.2-9.96-22.2-22.2s9.96-22.2,22.2-22.2c6.42,0,12.18,2.7,16.26,7.08Z" style="fill: #040000;"/>
      <path d="M436.58,1742.44v4.8h-22.44v13.2h20.04v4.8h-20.04v20.4h-4.8v-43.2h27.24Z" style="fill: #040000;"/>
      <path d="M447.74,1742.44l15.54,26.88,15.54-26.88h3.96v43.2h-4.8v-32.22l-12.78,22.2h-3.78l-12.84-22.2v32.22h-4.8v-43.2h3.96Z" style="fill: #040000;"/>
      <path d="M495.2,1737.64c5.04,7.08,7.62,17.64,7.62,28.2s-2.58,21.12-7.62,28.2h-5.82c5.88-7.38,8.52-17.82,8.52-28.2s-2.64-20.82-8.52-28.2h5.82Z" style="fill: #040000;"/>
    </g>
    <g>
      <path d="M234.15,1934.74c0,5.16-2.46,9.54-8.76,15.72l-10.56,10.38h19.92v4.8h-27.3v-4.26l14.52-14.28c3.42-3.36,7.38-7.2,7.38-12.36,0-4.62-3.84-8.1-9-8.1-4.38,0-7.86,2.58-9.12,6.84l-4.56-1.8c2.1-6.06,7.32-9.84,13.68-9.84,7.86,0,13.8,5.58,13.8,12.9Z" style="fill: #040000;"/>
      <path d="M247.53,1962.88c0,1.86-1.5,3.36-3.42,3.36s-3.36-1.5-3.36-3.36,1.5-3.42,3.36-3.42,3.42,1.5,3.42,3.42Z" style="fill: #040000;"/>
      <path d="M264.69,1922.44h4.32v43.2h-4.8v-37.26l-9.42,5.64-2.46-4.08,12.36-7.5Z" style="fill: #040000;"/>
      <path d="M304.23,1936.78c0,2.82-.78,5.58-2.22,7.8l-13.68,21.06h-5.76l9.24-14.16c-.84.12-1.62.18-2.46.18-8.28,0-14.94-6.66-14.94-14.88s6.66-14.94,14.94-14.94,14.88,6.66,14.88,14.94ZM279.27,1936.78c0,5.52,4.5,10.08,10.08,10.08s10.08-4.56,10.08-10.08-4.56-10.08-10.08-10.08-10.08,4.5-10.08,10.08Z" style="fill: #040000;"/>
      <path d="M323.36,1917.64c-5.88,7.38-8.52,17.82-8.52,28.2s2.64,20.82,8.52,28.2h-5.82c-5.1-7.08-7.62-17.64-7.62-28.2s2.52-21.12,7.62-28.2h5.82Z" style="fill: #040000;"/>
      <path d="M333.57,1935.64v4.08c2.22-2.58,5.58-4.68,9.72-4.68,4.92,0,8.7,2.28,10.56,6.24,2.4-3.6,6.36-6.24,11.04-6.24,7.14,0,11.88,4.8,11.88,12.78v17.82h-4.8v-17.58c0-6.36-3.18-8.88-7.74-8.88-4.98,0-9.06,3.54-9.06,9.3v17.16h-4.8v-17.58c0-6.36-3.18-8.88-7.74-8.88-4.98,0-9.06,3.6-9.06,9.42v17.04h-4.8v-30h4.8Z" style="fill: #040000;"/>
      <path d="M389.96,1935.64v4.08c2.22-2.58,5.58-4.68,9.72-4.68,4.92,0,8.7,2.28,10.56,6.24,2.4-3.6,6.36-6.24,11.04-6.24,7.14,0,11.88,4.8,11.88,12.78v17.82h-4.8v-17.58c0-6.36-3.18-8.88-7.74-8.88-4.98,0-9.06,3.54-9.06,9.3v17.16h-4.8v-17.58c0-6.36-3.18-8.88-7.74-8.88-4.98,0-9.06,3.6-9.06,9.42v17.04h-4.8v-30h4.8Z" style="fill: #040000;"/>
      <path d="M447.56,1922.44v18h23.76v-18h4.8v43.2h-4.8v-20.4h-23.76v20.4h-4.8v-43.2h4.8Z" style="fill: #040000;"/>
      <path d="M510.68,1934.74c0,5.16-2.46,9.54-8.76,15.72l-10.56,10.38h19.92v4.8h-27.3v-4.26l14.52-14.28c3.42-3.36,7.38-7.2,7.38-12.36,0-4.62-3.84-8.1-9-8.1-4.38,0-7.86,2.58-9.12,6.84l-4.56-1.8c2.1-6.06,7.32-9.84,13.68-9.84,7.86,0,13.8,5.58,13.8,12.9Z" style="fill: #040000;"/>
      <path d="M538.28,1921.84c12.24,0,22.2,9.96,22.2,22.2s-9.96,22.2-22.2,22.2-22.2-9.96-22.2-22.2,9.96-22.2,22.2-22.2ZM538.28,1961.44c9.6,0,17.4-7.8,17.4-17.4s-7.8-17.4-17.4-17.4-17.4,7.8-17.4,17.4,7.8,17.4,17.4,17.4Z" style="fill: #040000;"/>
      <path d="M569.9,1917.64c5.04,7.08,7.62,17.64,7.62,28.2s-2.58,21.12-7.62,28.2h-5.82c5.88-7.38,8.52-17.82,8.52-28.2s-2.64-20.82-8.52-28.2h5.82Z" style="fill: #040000;"/>
    </g>
    <path d="M456.38,808.84l-7.25,4.19M458.12,828.6l7.25-4.19M514.88,767.63l.12-.07M527.13,796.78l-2.03,1.36-2.48,1.62-2.69,1.73M524.46,777.32l-5.22-4.02M520.91,772.33l2.06-1.19M486.94,573.89v-2.34M686.13,916.58l-2.02-1.17M481.48,804.73l-.93.54-2.55,1.47-2.23,1.29-1.85,1.07-3.35,1.93-3.14,1.81-3.2,1.85-3.27,1.88M703.7,906.06l.02.36M502.77,562.41l-.86.92-.89.97-.79.87-.68.77-.11.12-.59.67-.83.95-.8.92-.3.34-.25.29-.21.24-.16.18-.26.3-.2.23-.13.15-.38.45-.1.12-.03.03h0s0,.01,0,.01h0s0,0,0,0l-1.5,1.8-1.66,2.05-1.12,1.42M703.7,906.06l-4.82,1.83-4.97,1.46-5.27,1.13-4.54.62M428.7,814.95v-.9s0-24.3,0-24.3v-8.58s0-9.62,0-9.62v-3.46s0-.44,0-.44M487.2,868.97l-.38-.22-3-1.73-15.75-9.1-4.5-2.6-8.33-4.81-8.3-4.79-.73-.42M666.73,844.41l-19.98-34.61M655.94,966.38l-17.59-10.16-7.43-4.28-8.33-4.8-2.31-1.33-.69-.4-.38-.22M428.71,615.2v-.44s0-3.46,0-3.46v-18.19s0-5.19,0-5.19v-9.63s0-5.54,0-5.54M491.64,515.96l1.02-.49,2.27-.52,2.51.1,2.68.72,2.76,1.31M444.6,550.71l-2.76-1.31-2.68-.72-2.51-.1-2.27.52-1.02.49M449.9,547.66l3.03,2.09,2.92,2.69,2.7,3.19,2.05,3.07M476.92,568.11l36.32-20.97M741.29,930.01l-.24,3.05-.72,2.68-1.17,2.22-1.59,1.7-.94.64M720.43,906l-36.32,20.97M688.31,960.6l-.29-3.67-.87-3.87-1.41-3.93-1.64-3.32M678.35,973.94l.94-.64,1.59-1.7,1.17-2.22.72-2.68.24-3.05M569.55,894.47l3.14-1.84M555.84,902.5l6.48-3.79M485.81,603.4l-.81.45-1.57.78-1.2.5-1.68.57-2.55.53-2.23.15-1.85-.08-3.34-.61-3.14-1.11-3.21-1.72-3.26-2.48M657.98,901.62l-.48.28-1.37.88-1.26.92-1.3,1.11-1.8,1.96-1.19,1.7-1.06,1.98-1.22,3.49-.57,3.4-.08,1.2-.02,1.21.04,1.22.14,1.52.36,2.16M709.86,642.62l-2.34,1.79-1.82,2.61-1.03,2.85M727.15,688.82l2.99.54,3.18-.27,2.72-1.12M502.88,517.07l.48-.23.47-.12h.43s.39.11.39.11l.1.05M741.29,930.01l.44-.3.33-.34.22-.37.1-.39v-.12M742.39,671.51v.13s-.11.39-.11.39l-.22.37-.33.34-.44.3M727.28,645.35l-.12-.06-.39-.11h-.43s-.47.12-.47.12l-.48.23M699.18,653.06l-.85-1.19-1-1.39-.16-.22-.87-1.21-1.24-1.71-1.19-1.64-.45-.61-.38-.52-.31-.42-.24-.33-.39-.54-.3-.41-.2-.27-.57-.78-.15-.2-.04-.06v-.02s-.02,0-.02,0h0s0,0,0,0l-2.3-3.12-2.6-3.49-3.15-4.19-2.54-3.32-2.71-3.46M721.51,692.07l.13.26,3.89,7.98,3.74,8.24,3.55,8.46,3.21,8.3M652.58,716.3l4.74-2.73M648.33,697.99l-4.73,2.73M659.17,900.88l-.4.28M487.06,602.75l-.45.21M465.92,623.01l5.54-7.48,7.12-6.97,7.23-5.04M450.95,681.78l.59-13.44,1.75-12.63,2.9-11.71,1.1-2.91M454.29,715.73l1.91,9.88,4.02,15.31,5.11,15.42,6.14,15.38,7.12,15.19,2.05,3.79M450.95,681.78l.3,7.37M548.21,875.59l-10.86-9.41-11.25-11.14-10.8-12.13-10.25-13.01-9.6-13.76-4.47-7.25M572.69,892.63l-5.8-3.67M572.69,892.63l11.93,6.21,11.82,4.8,11.59,3.34,11.25,1.85,10.8.34,10.25-1.18,9.6-2.68,7.98-3.74M515.76,777.03l11.57,9.11M699.86,825.45l-.61,14.04-1.83,13.2-3.03,12.23-4.2,11.14-5.33,9.95-.74,1M511.46,588.04l1.41-.09,2.68-.06,2.88.04,3.42.18,2.2.19,3.77.45,5.1.86,3.73.8,4.74,1.24,5.51,1.72,3.36,1.19,8.2,3.35,6.9,3.3,7.36,4.01M724.44,811.26l-.2-8.22-.51-7.56-1.11-10.01-1.08-7.04-.93-5.12-.9-4.42-.82-3.7-.74-3.13-.83-3.34-1-3.77-.86-3.09-.69-2.36-.74-2.46-1.16-3.69-1.29-3.91-1.17-3.37-1.35-3.73-1.89-4.96-1.85-4.6-1.36-3.26-.83-1.93-1.72-3.88-2.56-5.54-1.13-2.32M675.24,666.88l-1.1-1.61-1.24-1.78-1.25-1.78-1.27-1.78-1.29-1.78-1.31-1.78-1.26-1.69-2.17-2.85-3.12-3.97-4.11-5.02-2.68-3.15-2.88-3.28-3.42-3.77-2.2-2.35-3.76-3.89-5.1-5.02-3.73-3.49-4.74-4.25-5.51-4.66-3.36-2.69-8.2-6.11-6.9-4.66-7.36-4.5M487.2,581.42l5.14,3.08,5.48,3.47,5.32,3.54,5.7,3.63,2.21,1.28M654.23,671.73l.96-.34h.42s.39.11.39.11l.09.07M514.6,589.87l.61.34,2.27,1.33,2.65,1.59,3.07,1.86,3.41,2.08,7.36,4.54,6.43,3.98,5.79,3.56,5.15,3.12,4.52,2.66M459.35,557.97h-.01s-.85-.17-.85-.17l-1,.35M677.71,911.4l-.14-7.53-.33-6.76-.5-8.3-.09-5.68M683.01,948.78l.78-.65.22-.37.1-.4v-.11M684.11,883.27l-.02-3.27-.05-2.82-.05-2.5-.02-1.04-.06-2.4-.07-2.83-.19-6.54-.2-6.74-.23-7.93-.14-6.62-.06-5.41M684.1,720.05v.02s-.28.82-.28.82l-.81.69M619.22,657.64l-6.44-3.55-5.59-2.85-6.32-3.07-4.39-2.42M647.64,708.77h0s.04-.02.04-.02l.14-.08.35-.21M677.71,758.95l-.04,3.98-.2,5.91-.49,7.16-.33,5.69v2.2M684.11,784.43v.14s-.02,3.07-.02,3.07l-.05,3.49-.08,3.96-.1,4.33-.25,9.24-.23,7.97-.19,7.07-.12,6.18-.04,5.29M684.11,745.63l.79,2.09,1.39,3.9,1.4,4.13,1.56,4.85.94,3.08,1.49,5.2,1.81,6.92,1.17,4.97,1.3,6.24,1.26,7.11.65,4.26,1.2,10.15.59,8.31.21,8.63M572.71,605.22l11.06,6.94,10.34,7.51,9.57,7.85,8.78,8,10.46,10.61,9.06,10.22,1.92,2.37M600.47,639.43l-3.03-1.73-2.8-1.56-2.42-1.33-.99-.55-2.28-1.25-2.68-1.46-6.15-3.33-6.26-3.38-7.28-3.94-5.95-3.28-4.76-2.69M709.05,647.36l-.19.13M672.41,676.11l-3.03-1.41-2.92-.69-2.7.07-1.58.54M688.31,703.64l-.29,3.33-.87,2.88-1.41,2.31-1.21,1.06M731.32,686.38l.21-.09M652.84,705.77l.44-.26M489.82,795.6l.03,1.27-.33,1.73-.42.84-.86.73M488.87,788.5l.5-.35.78-1.33.34-1.76M453.88,716.43l-.77.73M459.77,710.15l-.59.56M466.19,705.55l.51-.38.03-.06M490.68,777.55l.5-.37.37-.45.45-1,.19-.87M490.2,804.39l.07.76.06.63.06.59M510.29,740.55l-5.23,4.27-6.75,8.35-5.5,10.27-3.94,11.73-.44,1.81M633.03,897.03l-1.78-1.07-1.68-.6-.95-.06-1.07.38M476.97,643.82l-.24-.09-.27-.26-.2-.35-.2-.88-.06-.96.38-3.99M529.49,789.8l-.19,6.76,1.15,14.79,2.75,15.69,4.25,15.82.74,2.29M487.43,641.08l-.73,3.88-.04.94.1.86.14.35.21.27.15.09M449.09,723.65l-.12.32-.9.84M539.36,694.08l-1.54.14-2.08.3-2.55.6-2.91.98-3.17,1.45-3.29,2-1.33,1.05M563.77,819.58l5.11,10.76,8.25,14.46,9.44,13.93,10.17,12.68,1.53,1.72M624.1,890.48l.44.35.48.38.98.75,1.77,1.34M641.39,901.76l-.23-.13-1.38-.55-1.51-.2-1.11.38M497.3,651.51l.06.45.18.34.17.12M649.7,846.74l.58-.25.77.02M514.27,611.72l-.03.43.12.29h.03M524.4,621.31l-.08-.09-.03-.21.19-.58.34-.67,1.93-2.94M659,846.17l-1.02.3M533.98,631.15l-.05-.09.03-.18.29-.52.43-.6,2.24-2.62M546.57,638.33l-2.54,2.32-.52.54-.38.44-.09.15v.07M613.82,794.87l1.3-.89,1.6-.75,1.3-.44,1.37-.33,3.39-.39h3.33s2.79.19,2.79.19l.11.02M666.5,844.49l-.78.23M551.76,652.92l-.21.18-.07.09h.01M676.36,848.1l-.37.46-.02.63.52,1.39.12.28M597.7,819.49l.88-.25,1.88-.5,1.49-.39,2.81-.91,1.89-1.24,1.2-1.92.13-.61M640.98,845.53l.58-.24.59-.09,1.17.13.11.04M519.73,606.52l4.37-2.52M610.2,704.08l-.36-.2-.2-.25v-.11M612.42,691.98l-3.64-.06-.81-.09-.67-.19-.22-.16-.12-.19h0M603.25,678.73l.07.12.19.11.62.1.76.02,3.5-.28M652.13,763.79l-.05.3.09.39.2.38.64.68.78.6,3.57,1.93M593.17,653.43l-.31.04-.11-.04M598.51,666.06l.02.06.15.07h.56s.71-.07.71-.07l3.36-.66M655.74,745.18l-.4-.39-.21-.44.02-.19M654.19,754.43l-.03.14.07.36.18.35.64.62.79.54,3.65,1.67M663.48,749.92l3.26-1.88M601.13,653.51l3.32-1.92M613.82,794.87l1.69-.58,2.37-.27,2.14.09M517.06,770.52l-.46.26-.56.32-.65.36-.68.37M512.49,773l1.06-.56,1.15-.62M518.66,769.66l-.15.03-1.37-.15-1.21-.63-.49-.46-.56-.82M515.76,777.03l.34-.56.4-.57.45-.57.47-.54.48-.49.48-.42.45-.34.41-.25M437.18,824.8l.23-1.57.68-1.14,1.06-.61,1.33-.02,1.13.4M446.71,830.7l-.22,1.17-.68,1.14-1.05.61h-1.33s-1.47-.57-1.47-.57l-1.47-1.12-1.33-1.55-1.06-1.83-.68-1.92-.23-1.84M446.2,836.08l-.86.19-1.63-.16-1.75-.74M441.95,835.36l-1.75-1.28-1.63-1.72-1.4-2.05-1.08-2.24-.68-2.27-.23-2.15.23-1.89.68-1.49.59-.65M452.11,842.97l.82-.18M434.09,810.58l-.41.46M455.04,808.11l.46.24.57.06M465.7,824.56l-.31.7-.06.68M450.83,815.99l-1.71-2.97M449.13,813.03l-.69-1.44M441.95,812.11l-2.39-1.13-2.31-.6-2.16-.04-1.94.51-1.66,1.05-.88,1.04M451.4,822.09l-2.02-3.09-2.31-2.76-2.51-2.33-2.61-1.8M453.62,820.81l-2.67-4.62M450.95,816.19l-.12-.2M451.4,822.09l2.23,4.71,1.33,4.76.33,4.45-.69,3.81-1.67,2.86-2.51,1.7-.99.13M459.02,829.91l-.91-1.32M458.12,828.6l-1.71-2.96M456.4,825.63l-.12-.2M456.29,825.43l-2.67-4.62M453.58,820.83l-1.09.63-1.09.63M521.98,767.68l-3.28,1.89M518.7,769.57l-1.64.95M517.06,770.52l.96,1.52,1.22,1.26M515,767.55h.02M514.88,767.63l-.56.23-.84.39-1.03.5-1.22.61-1.91.98-2.57,1.33-3.12,1.62M519.25,773.3l1.67-.96M493.28,698.52l.05,2.12.05,4.29v.34M573.59,844.19l1.84,1.05.94.56M448.44,811.58l-.48-1.83v-1.66s.51-1.32.51-1.32l.99-.85,1.38-.32,1.64.23.41.14M456.38,808.84l-.68-.93-.88-.85-1.94-1.11M456.38,808.84l4.59,7.73M448.44,811.58l-2.33-4.41-2.03-3.99-2.14-4.35-2.04-4.31-1.97-4.3-2.73-6.2-2.6-6.21-2.42-6.15-1.49-4.01M460.97,816.57l4.4,7.84M465.37,824.41l.68,1.81.15,1.86-.34,1.78-.8,1.44-1.12.82-1.31.15-1.42-.48-1.42-1.05-.77-.84M459.02,829.91l2.75,4.36,2.37,3.65,2.68,4,2.71,3.93,2.72,3.83,2.36,3.24,2.57,3.46,3.16,4.12,2.76,3.49,1.92,2.36,2.16,2.61M512.69,556.68l-.63.56-.39.72-.25,1.5.29,2.1.82,2.19,1.15,1.97.41.53,1,.89.85.36.93.09.32-.03.6-.12.82-.34M505.84,562.13l.02-.49-.02-.39-.18-.35h-.11s-.07,0-.07,0l-.26.1-.38.21-.45.26M705.82,891.37l-1.15,1.04-.62,1.48-.02.54.41,1.62.87,1.67,1.2,1.66,1.36,1.35,1.44.91,1.38.35,1.2-.28M704.69,905.65l.02-.05-.36-.35-.58-.32M707.33,890.5l-.8.46M705.82,891.37l-7.49,4.32M705.82,891.37l.71-.41M513.38,556.28l.54-.31.67-.37.9-.45.44-.18,1.36-.33h.67s.57.15.57.15M716.46,897.57l-.33.91-.66.84-.98.81-1.24.78-.68.4M619.11,871.61l2.12,1.17,4.86,2.65,5.72,3.11,4.6,2.49,5.7,3.09,6.06,3.3,5.67,3.12,1.36.77M597.29,878.23l1.59-.89M518.54,547.08l-.57-.25-.65-.18-.7-.11-.73-.03-.73.05-.7.12-.65.2-.57.26M723.13,901.44l-.07.62-.17.65-.26.66-.34.65-.4.61-.46.55-.49.46-.51.36M513.11,529.04l-.9.54-.22.12-.06.03-.49.29-.91.53-.6.35-.63.35-.69.39M736.04,915.16l-.93.51-1.18.67-.99.57-.67.39-.74.44M515.45,568.93l-4.33,2.5M511.12,571.43l-.86.18-.81-.42-.87-1.03-.99-1.66-.88-1.9-.62-1.85-.28-1.76.02-.85M505.84,562.13l-.91-.54-.46-.28-.04-.03M702.67,893.19l-4.34,2.5M703.7,906.06l.07-1.13M698.33,895.69l-.58.66-.04.91.21.7.74,1.51,1.1,1.71,1.26,1.59,1.34,1.29,1.41.87M643.22,809.05l21.42,37.1M428.71,767.65l.1-5.88.32-6.14.7-5.74,1.06-5.97.85-5.92.62-6.19.38-5.09.2-3.25.28-5.46.29-7.1.24-7.08.16-6.1.06-3.64.02-2.69M487.2,868.97l6.45,3.55,5.69,2.79,6.94,2.72,6.27,2.38,5.77,2.52,6.51,3.11,6.4,3.23,6.14,3.2,7.65,4.07,6.26,3.41,4.55,2.56M462.67,599.4l-1.22.38h-1.54s-1.84-.46-1.84-.46l-1.92-1.12-1.43-1.58-.85-1.72-.34-1.73.02-.87M457.42,588.59l-.54.31-.66.39-.84.56-.38.29-.97,1.01-.33.58-.16.56M649.88,923.66l-.94.86-.77,1.33-.35,1.02-.25,2.08.38,2.13.91,1.79,1.22,1.36,1.36.87M651.44,935.11l.95.17,1.05-.15,1.19-.44,1.3-.68.68-.39M723.13,901.44l-4.78-2.85M736.04,915.16l-2.72-4.16-3.18-3.81-3.46-3.24-3.55-2.51M518.54,547.08l-.4-4.33-1.07-4.62-1.71-4.66-2.24-4.44M518.64,553.62l-.1-6.54M671.29,813.66l5.32,9.22M652.59,922.1l-2.7,1.56M643.59,927.29l6.29-3.63M513.38,556.28l-.14-9.14M712.58,901.31l-28.47,16.44M720.43,906l-7.85-4.69M449.13,593.38l8.29-4.79M458.12,588.18l-.71.41M504.39,561.48l-19.48,11.24M504.39,561.48l8.3-4.79M513.32,556.32l-.63.36M484.91,572.72l28.47-16.43M446.71,573.74l-.22,1.17-.68,1.14-1.05.61-1.33.02-1.47-.58M441.95,576.1l-1.47-1.12-1.33-1.55-1.06-1.83-.68-1.93-.23-1.83.23-1.57.68-1.14,1.06-.61h1.33s1.13.38,1.13.38M664.47,961.51l-1.47-1.12-1.33-1.55-1.06-1.83-.68-1.93-.23-1.84.23-1.57.68-1.14,1.06-.61h1.33s1.13.38,1.13.38M669.22,959.15l-.22,1.17-.68,1.14-1.05.61h-1.33s-1.47-.57-1.47-.57M446.2,579.13l-.86.19-1.63-.16-1.75-.74-1.75-1.28-1.63-1.72-1.4-2.05-1.08-2.24-.68-2.27-.23-2.15M435.19,566.69l.23-1.89.68-1.49.59-.66M657.7,952.1l.23-1.89.68-1.49.59-.65M668.71,964.54l-.86.19-1.63-.16-1.75-.75-1.75-1.28-1.63-1.72-1.4-2.05-1.07-2.24-.68-2.27-.23-2.15M652.82,935.81l-2.67,1.54M650.15,937.35l-.12.07M650.03,937.42l-1.71.99M648.33,938.4l-.9.27M448.44,594.02l.69-.65M449.13,593.38l1.71-.99M450.83,592.39l.12-.07M450.95,592.32l2.67-1.54M452.11,586.01l.79-.17M434.17,553.55l-.04.04-.44.49M430.63,555.85l.21-.25,1.66-1.38,2.03-.75,2.31-.09,2.51.57,2.61,1.21M451.4,586.97l-1.94.57M674.63,971.42l.71-.15M656.51,939.14l-.31.36M655.01,939.63l-1.66,1.38-.43.68M677.84,963.72l-.26,2.86-.76,2.46-1.24,1.96-1.66,1.38-2.03.75-.32.05M497.58,520.13l5.3-3.06M444.6,550.71l5.3-3.06M513.24,547.14l-.49-4.6-1.12-4.24-1.46-3.66-1.55-2.99M508.62,531.66l-2.39-3.57-2.7-3.19-2.92-2.69-3.03-2.09M735.99,933.07l5.3-3.06M731.53,917.74l1.9,3.85,1.41,3.93.87,3.87.29,3.67M731.53,917.74l-1.82-2.84-2.44-3.09-3.1-3.09-3.74-2.72M683.01,963.65l5.3-3.06M460.97,600.38l-4.59,2.65M456.38,603.03l-1.39.36-1.74-.25-1.81-.85-1.6-1.4-1.19-1.79-.64-1.92-.09-1.47.15-.86.38-.82M428.71,615.2l1.49-2.29,2.42-3.38,2.6-3.24,2.73-3.07,1.97-2.02,2.04-1.94,2.14-1.88,2.03-1.63,2.33-1.71M433.98,691.44l-.03-3.49-.09-4.4-.15-5.31-.22-6.21-.21-5-.52-9.48-.77-9.16-.69-5.48-1.16-7.1-.92-7.05-.38-6.43-.13-7.12M433.98,691.44l8.48-4.83.93-.53,1.72-.98,5.83-3.32M641.1,941.21l3.2-1.19.55-.23.99-.42,1.57-.7M647.42,938.68l-1.33-.21-1.4-.81-1.3-1.33-1-1.71-.55-1.91-.05-1.93.06-.44M643.59,927.29l-.57.45-.52.71-.65,1.87M643.59,927.29l4.59-2.65M619.22,945.18l-3.47-2.05-5.22-3.26-6.44-4.61-5.09-4.18-4.61-3.62-4.7-3.44-4.33-2.99-3.31-2.21-4.18-2.71-5.39-3.43-5.87-3.67-5.11-3.13-3.2-1.93-2.46-1.44M619.22,945.18l11.41-1.25,10.47-2.72M655.01,939.63l2.96-.87,3.46.46,3.69,1.75,3.64,2.9,3.31,3.83,2.73,4.47,1.93,4.77.99,4.69M658.01,932.56l-.69.65M657.32,933.21l-1.71.99M655.6,934.2l-.11.07M655.49,934.27l-2.67,1.54M652.84,935.84l1.09,1.9,1.09,1.89M456.4,589.18l1.71-.99M458.12,588.19l.91-.27M455.32,578.31l-.21-2.89-.64-3.04-1.04-3.1-1.41-3.06-1.74-2.92-2.01-2.68-2.21-2.36-2.34-1.96M451.4,586.97l1.66-1.38,1.24-1.96.76-2.46.26-2.86M453.58,590.72l-1.09-1.88-1.09-1.87M453.62,590.78l2.67-1.54M456.29,589.24l.12-.07M687.62,893.35l3.38-1.68.12-.05.96-.3,2.67-.42,4,.51,3.92,1.78M702.67,893.19l4.66-2.69M707.32,890.5l1.22-.38h1.54s1.84.46,1.84.46l1.92,1.12,1.43,1.58.85,1.72.34,1.72-.02.85M716.46,897.57l.95.52.47.28.33.18.09.04h.03s0,0,0,0h0M718.34,898.58l1.15-1.2,1.04-1.09.93-.99.81-.88.7-.78.11-.13.61-.68.86-.96.82-.93.31-.35.26-.29.21-.24.17-.19.27-.31.2-.23.14-.16.39-.45.1-.12.03-.03h0s0-.01,0-.01h0s1.55-1.83,1.55-1.83l1.72-2.08,2.05-2.53,1.61-2.06,1.64-2.25M687.2,893.59l.21-.12.21-.12M515.45,568.93l4.66-2.69M507.79,581.88l3.14-2.09.1-.08.74-.68,1.7-2.11,1.56-3.72.42-4.28M507.38,582.12l.21-.12.21-.12M518.64,553.62l4.96-1.91,5.1-1.54,5.4-1.2,5.67-.83,5.69-.43M518.64,553.62l-.11,1.16M520.11,566.24l.94-.86.77-1.33.35-1.02.24-2.07-.38-2.13-.91-1.79-1.22-1.36-1.38-.88M459.02,587.91l1.2.16.96.43,1.23.9.95.96.98,1.26.79,1.28.61,1.29.37,1.19M465.37,597.84l.46-.39.29-.58v-1.48M465.37,597.84l-4.4,2.54M486.61,602.96l-.8.44M487.2,581.42l-2.16.1-1.92.14-2.76.29-3.16.46-2.57.47-2.36.51-2.72.69-2.71.8-2.68.91-2.37.92-2.75,1.2M658.77,901.15l-.79.47M648.18,924.64l4.4-2.54M652.58,922.1l.99-.21,1.04.43,1.1,1.03,1.09,1.55.92,1.82.62,1.87.23,1.77-.22,1.51-.34.69M658.01,932.56l2.42-1.78,1.98-1.6,2.13-1.87,2.05-1.95,1.96-2.01,1.62-1.79,1.7-1.99,1.97-2.51,1.63-2.25,1.08-1.59,1.17-1.82M502.88,517.07l12.88,7.44M515.76,524.51l-1,.81-.85,1.14-.58,1.31-.21,1.28M513.11,529.04l32.35,18.67M545.46,547.71l3.43,1.95,4.2,2.24,4.01,1.93,4.27,1.76,5.04,1.84,3.36,1.28,2.67,1.11,3.05,1.36,3.47,1.63,3.8,1.85,8.13,4.09,7.02,3.64,6.22,3.31,5.41,2.97,4.61,2.61M677.51,623.94l32.35,18.68M736.04,687.96v37.36M736.04,877.8l.03-3.95.16-4.75.33-4.43.61-4.58.92-5.29.57-3.55.37-2.86.34-3.32.32-3.82.3-4.22.52-9.08.36-7.9.24-7.04.13-6.17.04-5.3M736.04,877.8v37.35M736.04,915.16l1.22.45,1.42.15,1.42-.17,1.2-.46M741.29,915.13v14.88M712.51,638.09l12.88,7.44M709.86,642.62l.21-1.28.58-1.31.85-1.14,1-.81M709.86,642.62l.49,1.36.02,1.37-.32.96-.38.55-.61.5M736.04,687.96l-.92-1.09-.21-.18-.05-.04-.5-.31-.92-.33-.6-.06-.62.07-.68.27M741.29,687.93l-1.2.47-1.42.17-1.42-.15-1.22-.45M741.29,673.06v14.88M677.51,623.94l-3.43-2.01-4.18-2.6-3.92-2.65-3.99-3.01-4.38-3.6-2.83-2.29-2.27-1.74-2.65-1.93-3.07-2.14-3.4-2.31-7.36-4.85-6.43-4.12-5.79-3.62-5.15-3.13-4.52-2.66M614.14,581.3l-8.42,4.86-8.42,4.86M741.29,801.53l-8.42,4.86-8.42,4.86M736.04,725.32l.03,3.98.16,4.92.33,4.72.61,4.96.92,5.59.57,3.6.37,2.84.34,3.26.32,3.73.3,4.1.52,8.8.36,7.63.24,6.82.13,6.03.04,5.24M659.44,900.69l-.27.19M487.35,602.61l-.29.14M485.82,603.51l.79-.55M657.9,901.56l.87-.41M488.14,736.44l-1.76-5.11-3.47-11.91-.96-3.76-.77-3.21-.99-4.48-.67-3.27-.25-1.3-.25-1.35-.25-1.4-.03-.14M503.62,773.26l-2.38-4.8-1.54-3.22-2.23-4.86-.13-.29M477.66,643.97l-.13.63-.61,4.48M498.39,599.15l-1.66,1.77-1.27,1.51M601.89,880.78l-.31-.16-4.28-2.38M667.94,892.86l-1.26.32-2.34.48-2.85.47-2.92.34-3.16.23-8.33-.04-8.39-.93M556.46,846.51l5.94,5.68,6.7,5.95,7.3,5.95,6.74,5.02,6.23,4.25,7.92,4.87M519.93,801.48l2.76,4.15,3.37,4.87,2.41,3.34M517.7,798.03l2.23,3.45M527.11,792.05l-9.41,5.98M512.49,773l1.46,2.2,1.81,1.83M512.49,773h0s-.03.02-.03.02l-.09.05-.34.18-1.34.7-5.3,2.76M505.39,776.71l-1.77-3.44M687.2,893.59l4.98-3.21,4.51-3.57.94-.84.94-.87.93-.89.92-.92.91-.95.9-.98.89-1,.83-.98,1.38-1.71,1.88-2.52,2.29-3.43,1.39-2.3,1.4-2.51,1.55-3.05.93-2,1.49-3.48,1.79-4.84,1.16-3.63,1.31-4.73,1.28-5.64.65-3.51,1.19-8.77.59-7.63.22-8.38M597.29,591.02l-7.03-3.83-6.3-3.05-8.1-3.39-5.56-1.96-3.98-1.22-3.39-.91-2.79-.67-2.34-.5-2.47-.46-2.76-.44-2.24-.29-1.7-.19-1.75-.16-2.61-.17-2.74-.09h-2.34s-2.56.09-2.56.09l-3.35.24-3.07.36-2.15.33-1.26.23-2.51.53-5.79,1.63-5.66,2.2-5.47,2.79M669.22,702.2l-.22,1.17-.68,1.14-1.05.61h-1.33s-1.47-.57-1.47-.57l-1.47-1.12-1.33-1.55-1.06-1.83-.68-1.93-.23-1.84M659.7,696.3l.23-1.57.68-1.14,1.06-.61,1.33-.02,1.13.4M664.47,706.86l-1.75-1.28-1.63-1.72-1.4-2.05-1.07-2.24-.68-2.27-.23-2.15.23-1.89.68-1.49.59-.66M668.71,707.58l-.86.18-1.63-.16-1.75-.75M441.95,555.16l1.75,1.15M443.7,556.31l.12.07.87.5,2.34,1.35,21.04,12.16,7.43,4.29,8.33,4.8,2.31,1.33.69.4.38.22M511.03,596.42l.88.51M667.12,679.17l-12.88-7.44M457.48,558.15l-12.88-7.44M444.6,550.71l-.5.34-.48.44-.45.53-.4.59-.33.63-.25.65-.17.65-.07.62M676.64,883.13v-.81M677.71,911.4v.44s0,3.46,0,3.46v18.19s0,5.19,0,5.19v9.63s0,9.59,0,9.59v2.6s0,.75,0,.75v.38M677.72,961.63l.12,2.09M677.84,963.72l.57.25.64.18.69.11.71.03.71-.05.68-.13.62-.2.55-.26M683.01,963.65v-11.5s0-1.81,0-1.81v-.97s0-.32,0-.32v-.14h0v-.02h0v-.02h0v-.02h0v-.02h0v-.02h0v-.06M683.01,721.58v-14.87h0M648.18,708.46l-4.59-7.73M643.59,700.73l-1.01-1.86-.66-1.72-.16-1.43.41-1.02.96-.47,1.34.18,1.22.64.82.66.9.97M596.47,645.74l-.32-.18M658.01,715l.46,1.63.11,1.16-.15,1.21-.39.86-.57.53-.72.17-.72-.18-.94-.64M652.58,716.3l.57.99.65.98,1.28,1.49M652.58,716.3l-4.4-7.84M676.64,783.89v1.23M684.1,783.53v.91M683.01,835.18l8.42-4.86,8.42-4.86M555.86,614.94l8.42-4.86,8.42-4.86M674.63,714.47l.75-.16M656.57,682.12l-.38.42M677.84,706.77l-.12,1.96M662.71,682.74l1.76.88M735.99,676.11l5.3-3.06M725.39,645.53l2.76,1.87,2.68,2.37,2.51,2.8,2.27,3.15,1.96,3.39,1.59,3.54,1.17,3.58.72,3.5.24,3.33M725.39,645.53l-5.3,3.06M709.05,647.36l2.38-.81,2.7-.06,2.92.69,3.03,1.41M672.41,676.11l-5.3,3.06M683.01,706.7l5.3-3.06M731.53,686.29l1.9-1.66,1.41-2.31.87-2.88.29-3.33M683.01,706.7l-.24-3.33-.72-3.5-1.17-3.57-1.59-3.54-1.96-3.39-2.27-3.15-2.51-2.8-2.68-2.37-2.76-1.87M664.47,683.61l.07-.62.16-.65.25-.65.33-.63.4-.59.45-.52.48-.44.5-.34M664.47,683.61l2.61,1.8,2.51,2.33,2.31,2.76,2.03,3.09,1.66,3.3,1.24,3.38.76,3.33.26,3.16M683.01,706.7l-.55.26-.62.2-.68.12-.71.05-.71-.03-.69-.11-.64-.18-.57-.25M653.01,684.72l.46-.8,2.51-1.7,3.16-.41,3.57.92M619.22,657.64l.38.22,3,1.73,15.75,9.1,4.5,2.59,8.33,4.81,8.3,4.79,2.25,1.3.65.37.33.19M647.42,696.67l-2.74-4.37-2.37-3.66-2.67-4-2.71-3.93-2.73-3.83-2.36-3.23-2.59-3.45-3.18-4.11-2.78-3.49-1.92-2.36-2.17-2.6M647.42,696.67l.9,1.32M648.33,697.99l1.71,2.96M650.04,700.96l.11.2M650.15,701.16l2.67,4.62M671.68,716.17l1.6-.42,1.66-1.05,1.32-1.56.94-2.01.53-2.4M655.49,710.4l-2.67-4.62M655.6,710.6l-.12-.2M657.32,713.56l-1.71-2.96M657.32,713.56l.69,1.44M663.39,725.41l-2.64-5.23-.48-.91-.87-1.65-1.4-2.62M677.71,758.95l-6.74-17.07-7.59-16.47M677.71,708.72v3.84s0,24.3,0,24.3v8.58s0,9.62,0,9.62v3.46s0,.44,0,.44M488.41,828.44l.57-.39.56-.61.82-1.39.14-.64v-.23M487.87,825.36l.57.07.67-.02.7-.13.68-.19M490.48,825.08l-.42-1.8-.52-1.83-.49-1.83-.36-1.82-.08-.81.07-1.9.12-1.19-.02-1.49M490.38,806.36l.03,3.04-.34,1.54-.43.77-.87.71M488.78,812.42l-1.02.17h-.51s-.48-.04-.48-.04l-.8-.24-.65-.33-1.83-1.64M488.78,812.42l-.27-1.79-.39-1.86-.36-1.86-.21-1.8v-.77s.29-1.71.29-1.71l.27-1.06.14-1.39M444.46,725.95l.78.19.84-.1,1.4-.65.44-.38.11-.15M488.24,800.18l-1.02.08-.5-.04-.47-.11-.77-.36-.63-.44-1.79-2.02M488.24,800.18l-.12-1.76-.25-1.86-.23-1.87-.06-1.76.07-.73.52-1.51.41-.91.29-1.27M483.85,784.84l1.71,2.38.59.53.75.46.46.17.5.11.51.04.5-.03M488.87,788.5l.03-1.7-.11-1.85-.08-1.85.09-1.7.15-.67.73-1.28.54-.75.44-1.14M445.54,723.94l.54.45.64.31.68.13.66-.02M448.06,724.81l.48-1.38.33-1.65.36-1.65.55-1.37.37-.42,1.25-.42.88-.16.83-.6M453.12,717.16l-.96-.13-.47-.2-.44-.28-.7-.75-.55-.84-1.45-3.57M453.12,717.16l.63-1.25.49-1.55.51-1.55.69-1.23.43-.34,1.39-.13.96.03.95-.41M565.01,899.11l.15-.83.15-.91.14-1.65-.13-.65-.11-.22M553.86,868.4l-.74.68-.69.51-.56.37-.92.55M557.66,882.92l-.98-1.54-.95-1.37-.93-1.39-.93-1.58-.44-.84-1.07-2.42-.65-1.6-.76-1.69M561,881.54l-1,.25-.8.31-.61.29-.94.52M550.96,870.5l-.9.48-.43.22-.38.19-.59.28-.45.2-1.08.4M550.96,870.5l-.89-1.64-.89-1.5-.86-1.51-.84-1.67-.37-.86-.85-2.39-.5-1.56-.62-1.7M545.14,857.66l.51-.3.92-.71.62-.73.57-1.17M563.14,896.37l.38-.36.49-.41.57-.42.58-.41M565.16,894.77l-1.06-1.42-1-1.22-.98-1.24-1.01-1.47-.49-.81-1.28-2.41-.79-1.61-.89-1.66M557.66,882.92l-.88.55-.41.27-.37.25-.56.4-.41.31-.92.82M541.09,858.59h1.2s.45-.09.45-.09l.61-.17.4-.13.44-.16.47-.19.47-.2M545.14,857.66l-.78-1.71-.81-1.61-.78-1.63-.73-1.74-.3-.87-.63-2.33-.35-1.51-.48-1.7M459.18,710.72l-.93-.21-.44-.24-.4-.32-.62-.82-.48-.9-1.22-3.75M464.55,705.65l.58.13,1.05-.23M459.18,710.72l.78-1.11.64-1.44.67-1.44.84-1.08.49-.25,1.51.15M462.65,698.94l.95,3.91.4.94.55.87.36.36.41.28.43.18.44.08M466.19,705.55l.91-.94.79-1.3.81-1.3.97-.92.54-.16,1.61.44,1.09.42,1.13-.04M538.19,845.15l.43-.06.52-.13.57-.18.57-.22M488.44,776.98l.48.3.56.2.6.09h.59M457.76,640.86h-.06M453.72,639.6l.69.65.85.39,1.63.22h.61s.19,0,.19,0M512,746.55l-1.07.66-.15.19M526.12,784.73l-.46-.94-.07-1.83M515.58,744.38l-.31.2M515.58,744.38l1.34-.58,1.38-.51,2.11-.64M513.61,740.69l-.35.33-.15.56.08.71.29.74.46.67.56.49.57.24.5-.05M520.42,742.66h.05M520.42,742.66l-.31.2M528.74,786.87l.22,2.08.68,1.1.53.35M557.81,816.75l-.27-.14-1.75-1.65-1.28-2.19M608.65,880.66l-1.15-.97-.99-.71-.97-.72-1.11-1.02-.62-.66-1.81-2.21-1.17-1.51-1.2-1.44M455.97,639.57l.3.59.42.44.52.22.55.05M457.76,640.86l1.23-.36,1.17-.78,1.19-.77,1.28-.33h.02M492.76,822.15l.17,1.36.07,1.36-.13.86-.47.33-.96-.46-.39-.23-.44-.2h-.06s-.04,0-.04,0h-.01M492.76,822.17l-.94-6.48M491.82,815.69l-1.04-8.5-.64-8.49-.22-8.63.07-2.93M510.01,742.97l-.76.59-5.07,5.25-4.37,6.02-5.34,10.5-3.72,11.95-.06.28M490.38,806.36l.05.51.04.41.07.54.08.51.11.5.11.54.07.41.08.51M491.01,810.27l.09.59.09.63.17,1.23.29,2.27.3,2.26.18,1.22.1.63.11.6M492.34,819.7l-.11,2.63-.25,1.02-.61,1.05-.89.68M490.48,825.08l.02.09M483.94,820.24l1.91,6M485.85,826.24l.46.98.63.86.72.44.72-.07h.03M487.87,825.36l.55,3.08M487.87,825.36l-1.59-.66-1.08-.87M485.19,823.83l-.25-1.15-.33-1.14-.68-2.14-.58-2.15-.24-1.16-.1-.59-.08-.56M482.92,814.94l-.06-.49-.03-.42v-.62s.23-.71.23-.71l.32-.77.11-.66v-.92M483.5,810.34l-.16-1.14-.26-1.17-.57-2.24-.48-2.25-.17-1.18-.06-.59-.03-.55M481.76,801.22v-.47s.02-.39.02-.39l.11-.54.39-.53.48-.57.2-.57.09-.86M483.04,797.29l-.06-1.12-.18-1.19-.44-2.32-.35-2.33-.09-1.2v-.58s0-.53,0-.53M481.94,788.02l.05-.44.07-.36.2-.45.53-.32.6-.35.27-.47.18-.79M483.85,784.84l.04-1.09-.08-1.2-.27-2.39-.19-2.39v-1.2s.04-.57.04-.57l.07-.51M483.46,775.5l.1-.41.12-.31.27-.35.62-.08.7-.11.34-.36.27-.7M485.88,773.18l1,1.97.67.95.89.88M504.6,699.48l-1.23,2.05M482.16,810.83l1.79,9.41M608.65,880.66l.54-.27,1.33-.16,1.4.33,2.34,1.26M617.99,888.78l-1.16-.79-.97-.52-.95-.54-1.13-.85-.65-.59-1.95-2.08-1.27-1.43-1.28-1.33M607.6,885.68l-.35-2.09.04-.64.2-.73.2-.4.27-.41.33-.39.36-.36M472.29,700.5l.33.5.43.38.49.24.51.1M509.9,742.18l.35-.19,1.05-.54M467.37,641.71l-.73-.21-.31-.25-.25-.34-.31-.88-.16-.98.03-4.09M468.8,641.49l1.17-.55,1.3-.6,1.23-.12M624.1,890.48l-2.65-1.58-1.53-.49-.89-.02-1.05.39M627.54,895.68l-1.15-.61-.93-.32-.91-.34-1.13-.67-.67-.52-2.07-1.91-1.35-1.33-1.34-1.19M617.99,888.78l-.62.81-.24.44-.17.44-.15.8v.72s.57,2.38.57,2.38M598.26,873.12l.21-.41.32-.44.4-.45.44-.42M516.24,713.08l-1.69-1.16-.6-.98-.04-.68.19-.5M633.18,897.12l-.16-.1M479,643.93l1.16-.35,1.39-.42,1.05.04M637.16,901.26l-1.12-.41-.88-.13-.86-.15-1.11-.48-.68-.44-2.16-1.72-1.43-1.22-1.38-1.04M627.54,895.68l-.6.83-.23.46-.16.47-.09.88.05.79.86,2.64M560.43,896.54l2.88,3.29M563.31,899.83l.53.4.51.07.39-.39.25-.77v-.03M563.14,896.37l1.86,2.74M563.14,896.37l-.83,1.04-.36.74M561.95,898.14l-.66-.9-.59-.72-.94-1.08-.84-1.12-.5-.76-.29-.45-.31-.49M557.82,892.61l-.31-.5-.3-.49-.54-.9-.82-1.56-.73-1.64-.45-.96-.54-1.03M554.12,885.52l-.61-.98-.57-.82-.96-1.29-.86-1.32-.49-.85-.27-.49-.28-.52M550.09,879.25l-.27-.52-.26-.5-.44-.9-.62-1.5-.55-1.56-.36-.95-.46-1.05M547.13,872.28l-.55-1.04-.54-.9-.93-1.5-.84-1.52-.45-.94-.24-.53-.24-.54M543.34,865.3l-.23-.53-.21-.5-.34-.88-.45-1.39-.38-1.44-.27-.91-.38-1.05M541.09,858.59l-.48-1.1-.49-.99-.87-1.69-.78-1.72-.4-1.01-.21-.56-.2-.56M537.66,850.96l-.19-.54-.17-.5-.26-.83-.29-1.25-.22-1.29-.19-.86-.3-1.04M536.05,844.65l.8.38.56.12h.78M559.75,895.41l.68,1.13M570.2,895.78l.25.68-.12.4-.58-.06-1.24-.57-1.9-.96-.63-.26-.64-.19h-.08s-.04,0-.04,0h-.02M570.21,895.8l-1.9-3.8M568.31,891.99l-2.43-5.19-2.15-5.44-1.86-5.79-1.56-6.1-1.19-6.21-.84-6.5M558.29,856.76l-.44-3.43-.66-3.67-.89-3.9-1.04-3.85-1.27-4.12-1.49-4.4-1.45-4.01-1.58-4.24-1.67-4.47-2.27-6.23-2.17-6.42M540.28,796.78l3.08,11.23M531.9,791.4l-.11,1.4.15,9.84.96,10.1,2.84,15.67,4.43,15.81.11.34M540.28,844.56l.51-.32.38-.3.51-.54.61-.96.49-1.68M542.77,840.77l.18.55.18.49.33.77.53,1.07.53,1.08.33.79.19.5.2.56M545.25,846.58l.21.6.19.59.33,1.07.51,1.83.51,1.83.33,1.06.21.58.23.6M547.75,854.75l.23.55.23.5.42.82.7,1.2.71,1.2.44.83.24.5.26.55M550.98,860.9l.25.57.23.56.38.99.56,1.64.56,1.64.38.98.24.55.27.57M553.86,868.4l.28.54.28.5.52.85.89,1.29.9,1.29.54.84.3.5.3.54M557.89,874.75l.29.55.26.52.41.9.58,1.45.58,1.44.42.89.27.51.31.54M561,881.54l.33.53.33.5.63.85,1.11,1.35,1.13,1.33.66.83.36.48.36.52M565.9,887.94l.33.51.29.48.43.81.54,1.25.55,1.25.43.79.29.47.34.5M569.11,894.01l-1.36-.12-.67.08-.95.3-.97.5M565.16,894.77l.05.08M638.72,908l1.81-1.04,2.65-1.53,2.47-1.43M558.63,815.19l1.58,2.42,1.56,1.28,1.13.52,1.11.22.72-.05M638.4,904.89l-.28-.91-.2-.86-.3-1.31-.26-.4-.14-.11M636.14,903.75l.05-.65.2-.67.34-.62.42-.55M528.74,786.88l4.26,2.05,4.01,2.45,3.69,2.87,3.36,3.24,5.73,7.33,4.71,7.97M593.72,821.53l.41-.18.4-.18.4-.19.4-.2.39-.2.39-.21.39-.22.38-.22M593.72,821.53l-1.01.41-1.21.19-1.22-.03-1.34-.24-2.41-.96-2.02-1.45M511.99,746.55l2.95,3.19,2.61,3.64,2.22,4.08,1.82,4.47,2.54,9.76,1.47,10.29M542.55,692.14l1.38-.84M558.63,815.19l4.21-.41,3.97-.13,3.67.18,3.36.48,5.8,1.72,4.86,2.43M539.36,694.08l3.19-1.94M544.54,749.55l.19-.6.99-1.98,1.38-1.5.62-.44M566.28,777.19l-.78.35-2.01.41-2.22-.17-.49-.11M448.55,724.61l-.08.23h-.14s-.21,0-.21,0h-.04s-.03.02-.03.02h-.01M494.92,698.43l-10.23.54-10.43,2.68-.22.08M448.06,724.81l-.03.06M522.5,700.6l-.93.74M516.36,706.06l-.31.42-.2.66.07.71.84,1.27,1.56,1.07M443.24,715.34l-.65,6.3M442.59,721.64l.06,1.17.32,1.32.62,1.12.83.68.03.02M445.54,723.94l-1.08,2.01M445.54,723.94l-1.48-2.12-.98-2.26M443.08,719.56l.32-.88.18-1.09.2-2.37.29-2.36.27-1.09.18-.47.2-.38M444.72,710.91l.22-.25.23-.14.45.02.88.63.99.6h.55s.52-.38.52-.38M448.55,711.38l.41-.79.28-1.04.37-2.31.45-2.3.35-1.04.23-.43.25-.33M450.89,703.13l.26-.21.27-.09.51.13.95.85,1.05.82.59.11.59-.27M455.1,704.48l.51-.71.38-.98.56-2.23.63-2.23.45-.97.27-.39.29-.28M458.19,696.68l.3-.15.3-.03.55.24.98,1.06,1.06,1.04.62.23.65-.15M462.65,698.94l.59-.61.48-.91.76-2.14.83-2.14.55-.9.32-.35.34-.23M466.52,691.66l.33-.09.32.03.57.36.97,1.28,1.04,1.26.64.36.7-.03M471.1,694.84l.34,2.88.32,1.42.53,1.37M519.69,703.19l-12.17-3.87-11.75-1.84-11.46.21-10.57,2.31-1.45.51M541.29,688.23l-2.18,1.19-7.16,4.33-6.74,4.64-.66.51M482.51,643.19l-2.06,2.01-4.09,4.49-4.09,4.9-3.98,5.19M468.28,659.78l-8.58,12.88-7.25,13.62-3.96,9.49-3.13,9.74-2.12,9.83M516.23,713.08l.88,2.48.43,2.86-.06,3.25-.54,3.58-2.28,7.88-3.35,8.31M543.34,694.41l-.5-.07-.5-.06-.5-.05-.5-.05-.5-.04-.49-.03-.49-.02h-.49M539.47,702.13l-1.34-2.55-.41-1.9.06-1.19.32-1.01.53-.81.72-.59M636.92,908.55l1.81-.55M638.72,908l.24-.3.02-.67-.22-.98-.35-1.11v-.04M636.14,903.75l2.26,1.14M636.14,903.75l.45,2.17.86,1.81M637.45,907.73l-.7-.27-.47-.02-.47.31-.39.24-.4-.08-.3-.13-.37-.2M634.36,907.58l-.43-.27-.46-.31-.94-.7-1.76-1.52-1.69-1.61-.87-.78-.84-.64M627.37,901.75l-.72-.39-.51-.14-.6.09-.52.03-.44-.2-.31-.19-.37-.26M623.91,900.7l-.42-.32-.44-.36-.88-.78-1.61-1.61-1.55-1.68-.82-.84-.81-.73M617.37,894.37l-.72-.51-.54-.26-.69-.14-.61-.2-.47-.32-.31-.25-.37-.32M613.67,892.37l-.4-.37-.42-.4-.82-.84-1.47-1.66-1.42-1.72-.76-.89-.78-.82M607.6,885.68l-.71-.62-.55-.38-.75-.39-.67-.44-.48-.44-.31-.31-.35-.37M603.77,882.73l-.38-.41-.39-.44-.76-.88-1.34-1.67-1.29-1.72-.71-.92-.74-.89M598.15,875.81l-.18-1.16.05-.69.25-.83M634.19,908.09l.67.42,2.06.04M587.69,818.24l2.38,1.53,2.04.66,1.39.18,1.29-.04,1.13-.24.95-.4M596.87,819.94l3.5-3.44,3.22-3.2,2.78-2.99,2.21-2.81,1.56-2.7.84-2.67.08-2.72-.56-2.72M596.87,819.94l3.38-1.9M600.25,818.03l24.16-13.64M645.63,904l-.09-.14-.74-.46-1.28-.64-2.09-.82-2.59-.64-.76-.07-.73.02h-.09s-.04.03-.04.03h-.02M641.45,901.78l-.88-1.6-.68-1.97-.49-2.38M639.41,895.83l-.38-1.4-.78-1.64-1.18-1.87-1.48-1.96-1.88-2.21-2.29-2.48-2.3-2.38-2.61-2.64-2.89-2.93-4.2-4.36-4.45-4.86M586.29,821.32l5.49,11.84,6.86,12.05,7.79,11.39,8.55,10.5M566.76,819.55l2.47,5.88,5.02,9.98,5.6,9.59,9.36,13.7,10.2,12.44.23.26M599.64,871.41l.54-.27.47-.16.79-.1,1.31.16,2.11.88M604.87,871.93l.4.44.42.44.84.84,1.56,1.49,1.56,1.5.85.85.43.44.41.43M611.35,878.35l.36.39.3.33.4.48.4.57.39.57.39.46.3.31.37.37M614.26,881.83l.42.4.46.41.91.8,1.72,1.47,1.72,1.47.92.8.46.4.44.38M621.31,887.97l.38.33.3.27.39.35.34.33.33.33.38.34.3.25.38.31M641.97,902.09l-.58-.33M637.16,901.26l.07.03M613.82,794.87l-3.31,1.83M587.68,818.24l2.82-3.04,2.52-2.91,2.17-2.73,1.82-2.53,2.71-4.43,1.85-3.73M610.5,796.7l.09-.57.08-.57.07-.58.07-.58.06-.59.06-.59.05-.59.05-.6M610.5,796.7l-1.01.5-1.2.48-1.19.4-1.29.35-2.32.4-1.94.04M649.7,846.74l-.89.18-.56.45-.55.43-.89.12-.64-.15-2.27-.99-1.54-.76-1.38-.5M640.55,847.81l-.08-.58.05-.6.18-.58.27-.52M539.47,702.14l-.97.24-1.51.5-2.08.76-2.61,1.01-6.48,2.57-7.5,2.96M545.51,693.14l-2.18,1.27M576.68,707.88l1.46-.92M546.37,693.71l-.31-.08-.17-.09M573.48,709.89l3.21-2.01M573.48,709.89l-2.36-3.21-2.86-3.13-3.36-2.88-3.78-2.47-4.14-1.95-4.4-1.31-4.57-.58-4.67.04M543.34,694.41l-.81.66-.57.91-.29,1-.05,1.19.54,2.35,1.21,2.25M521.18,602.83l-1.45.5-.18.14M511.85,609.78l.34.77.57.59M521.15,602.83l.76-.1M514.16,606.84l1.78-1.04,2.65-1.53,2.53-1.44M577.62,713.73l-.51-.5-.51-.49-.52-.49-.52-.48-.52-.48-.52-.47-.52-.47-.52-.46M570.84,718.82l-.19-2.84.32-2.13.45-1.32.59-1.12.7-.88.77-.63M657.98,846.46l-.81.38-.45.63-.44.61-.8.32-.62-.05-2.26-.72-1.54-.58-1.36-.31M652.25,853.43l-2.21-2.94-.44-.86-.29-.95-.03-.51.06-.51.15-.48.22-.44M606.7,752.71l-2.56,1.42M611.02,792.04l3.33-1.99M614.35,790.05l35.71-21.32M650.05,768.74l.04-1.18.03-1.18M604.15,754.13l-.28-.7-.28-.7-.29-.69-.29-.7-.3-.69-.3-.69-.31-.69-.31-.69M602.31,794.61l2.24-.18,1.92-.46,1.32-.43,1.23-.48,1.09-.51.92-.5M611.02,792.04l.93-5.55.59-5.41.12-5.21-.44-4.95-1.05-4.65-1.71-4.35-2.38-4.05-2.93-3.74M604.15,754.13l-.96.61-1.02.79-.93.83-.95.95-1.52,1.79-1.07,1.58M665.71,844.72l-.71.57-.34.8-.33.77-.71.5-.59.05-2.23-.44-1.52-.39-1.31-.12M657.98,846.46l-.32.92-.04.51.05.51.34.96.47.88,2.42,2.98M602.3,794.61l.73-4.61.32-4.58-.12-4.49-.53-4.37-2.09-8.26-2.92-7.63M579.82,712.49l-2.2,1.24M601.78,748.58l3.26-2.03M605.04,746.55l4.38-2.73M595.65,755.34l1.22-1.9,1.23-1.57.95-1.02.95-.91.92-.77.85-.6M601.78,748.58l-1.38-5.46-1.81-5.39-2.3-5.17-2.81-4.82-3.3-4.35-3.78-3.81-4.22-3.2-4.55-2.65M577.62,713.73l-.88.67-.78.96-.58,1.07-.46,1.28-.39,2.56.17,2.45M568.28,775.25l.99-1.98.57-2.39.12-2.72-.32-2.96-.76-3.1-1.17-3.13-1.54-3.05-1.86-2.87-2.11-2.59-2.29-2.23-2.4-1.79-2.42-1.28-2.36-.74-2.22-.17-2,.41-1.72.98-1.38,1.5-.99,1.98-.57,2.39-.12,2.72.32,2.96.76,3.1,1.17,3.12,1.54,3.05,1.86,2.87,2.11,2.59,2.29,2.23,2.4,1.78,2.42,1.28,2.36.74,2.22.17,2.01-.41,1.72-.98,1.38-1.5M520.11,742.86l.39-.27.2-.52-.03-.69-.24-.75-.43-.7-.55-.55-.58-.31-.53-.02M515.28,744.59l4.83-1.72M513.29,740.85l-.35.33-.15.57.08.71.3.75.47.68.57.5.58.24.5-.05M518.34,739.06l-5.06,1.79M511.31,741.44l7.32-2.76,7.93-1.16,8.6.53,9.12,2.3M511.31,741.44l.07.63.07.63.08.64.08.64.09.64.1.64.1.64.11.65M536.06,742.39l-4.39-.45-4.32.03-4.26.52-5.72,1.55-5.37,2.51M539.64,750.19l.51-.75.19-1.06-.14-1.25-.46-1.33-.72-1.26-.93-1.06-1.02-.75-1.01-.36M525.59,781.96l1.72-9.79,2.88-8.61,4.12-7.41,5.33-5.96M525.59,781.96l.38.62.39.62.39.62.39.61.4.61.4.61.4.61.41.6M537.13,760.02l-2.2,3.58-1.9,4.05-1.6,4.52-1.68,6.99-.99,7.71M543.06,765.18l-.19-1.28-.5-1.32-.76-1.24-.95-1.02-1.02-.7-1-.29-.87.13-.65.55M554.5,812.77l-4.69-12.24-3.51-12.04-2.29-11.87-.95-11.43M554.5,812.77l.52.32.52.32.52.31.52.31.52.3.52.29.52.29.52.28M547.42,778.21l1.02,5.94,1.41,6.17,1.8,6.4,3.14,9.16,3.85,9.31M552.93,778.31l-.79-1.22-.96-.97-1.03-.64-.99-.23-.84.19-.6.61-.31.94.02,1.2M584.5,819.45l-8.9-8.96-8.27-9.83-7.63-10.79-6.79-11.55M584.5,819.45l.41-.12.41-.13.4-.14.4-.15.4-.15.39-.16.39-.17.39-.18M562.12,788.44l3.76,5.52,4.06,5.4,4.36,5.28,6.5,7.04,6.89,6.55M564.62,783.44l-1.03-.58-.97-.16-.81.25-.57.67-.27.99.07,1.23.39,1.32.68,1.29M601.56,798.88l-8.94-1.49-9.15-3.02-9.4-4.65-9.45-6.27M601.56,798.88l.11-.52.11-.52.1-.53.1-.53.09-.54.08-.54.08-.55.07-.55M574.35,785.93l4.74,2.51,4.81,2.11,4.88,1.7,6.81,1.63,6.71.72M572.68,778.16l-.78.32-.52.72-.22,1.03.12,1.25.43,1.33.72,1.27.91,1.07,1.02.77M597.7,760.68l-4.81,6.68-5.75,5.2-6.77,3.66-7.69,1.95M597.7,760.68l-.24-.67-.24-.67-.25-.67-.25-.67-.26-.67-.26-.67-.27-.67-.27-.67M574.72,722.72l-.48-.51-.48-.5-.48-.5-.48-.49-.49-.49-.49-.48-.49-.47-.49-.47M543.37,702.78l-.49-.11-.49-.1-.49-.09-.49-.08-.49-.08-.48-.07-.48-.06-.48-.05M559.05,737.66l-2.54-6.1-2.91-6.16-3.28-6.22-5.13-8.62-5.72-8.44M554.78,740.27l.97.96,1.02.6.98.21.83-.24.59-.63.28-.98-.04-1.2-.37-1.32M518.33,710.17l9.49,5.56,9.27,6.84,9.06,8.21,8.64,9.48M518.33,710.17l-.28.34-.27.35-.27.35-.26.36-.26.37-.25.37-.25.38-.24.39M544.72,733.56l-4.52-4.27-4.72-4-4.92-3.72-7.08-4.62-7.24-3.87M544.27,740.35l.96.14.79-.3.55-.68.24-1.02-.09-1.23-.42-1.33-.69-1.27-.9-1.1M578.39,771.85l3.51-1.67,3.31-2.17,3.12-2.68,3.94-4.54,3.39-5.44M595.65,755.35l-1.06-4.38-1.58-4.36-2.12-4.29-2.61-4.19-6.36-7.96-7.21-7.45M574.72,722.73l1.58,11.72.33,10.99-.97,10.26-2.33,9.26M573.32,764.95l-.17,1.08.17,1.26.48,1.33.75,1.25.93,1.04,1.02.72,1,.33.88-.11M543.96,691.33l-1.41.81M542.55,692.14l.88.03M543.43,692.17l1.36.13M578.16,707l-1.47.88M577.62,708.71l-.94-.83M579.09,710.09l-1.47-1.38M609.41,743.89l-4.37,2.65M605.04,746.55l.56,1.24M605.6,747.79l1.54,3.68M614.26,791.12l.08-1.07M613.82,794.85l.45-3.73M600.25,818.03l-.68.4M572.35,752.79l.63-5.07.26-5.44-.11-5.81-.78-8.59-1.52-9.06M570.84,718.83l-1.74-2.47-2.3-2.36-2.89-2.21-3.43-2.06-8.09-3.68-9.02-3.27M543.37,702.78l7.23,11.28,6.27,11.64,5.28,12.06,4.11,12.23M566.26,749.99l.52,1.33.78,1.22.95,1,1.03.66.99.27.85-.17.63-.57.34-.93M672.79,841.52l-.6.74-.21.95-.2.93-.6.68-.55.15-2.17-.14-1.49-.2-1.25.08M665.71,844.72l-.32.89-.04.5.06.51.38.96.53.88,2.66,2.98M580.66,714.24l-.3-.35-.17-.31M674.26,843.08l-.52-.6-.33-.48-.31-.52-.18-.02-.1.04M672.72,844.04l-.26-.66-.08-.68.13-.63.27-.55M457.38,630.94l-3.61,4.06M453.77,635l-.49.88-.27,1.24.14,1.33.54,1.12.03.04M455.97,639.57l-2.25.03M455.97,639.57l-.54-2.66-.09-2.77M455.33,634.13l.79-.23.72-.59,1.27-1.65,1.34-1.66.78-.6.42-.16.42-.03M461.08,629.2l.39.11.35.23.57.71.85,1.84.96,1.83.66.69.79.35M465.63,634.96l.85-.11.79-.48,1.43-1.46,1.49-1.47.85-.48.45-.1.44.02M471.92,630.87l.4.16.36.28.57.79.8,1.98.89,1.96.64.78.8.46M476.38,637.28h.89s.86-.36.86-.36l1.59-1.27,1.64-1.28.92-.37.47-.04.46.08M483.21,634.03l.41.21.36.33.55.88.71,2.1.78,2.09.61.87.8.57M487.43,641.08l.93.12.93-.26,1.75-1.08,1.8-1.08.98-.27h.5s.47.15.47.15M494.78,638.67l.42.27.35.38.51.95.58,2.21.65,2.2.56.95.78.67M498.63,646.29l-.88,2.66-.32,1.31-.14,1.25M546.37,693.71l-10.86-12.34-11.52-11.02-12.33-9.79-12.53-8.03-1.82-1.01M572.35,691.18l-1.86.21-8.35.92-8.23.95-2.01.21-2.07.19-2.12.13-1.35-.06M501.96,598.67l-10.32,5.97-12.57,8.19-7.87,5.8-7.3,6.06-6.51,6.25M611.83,797.38l.09-.37.15-.36.21-.36.27-.35.58-.58.69-.49M676.62,846.37l-.09-.25-.61-1.02-.82-1.06-.81-.92-.03-.03M672.72,844.04l1.55-.96M672.72,844.04l1.65,2.21,2,1.85M676.73,852.85l-.35.1-.44.03-1.01-.11-2.15-.61-2.1-.68-.95-.19-.76.05M668.98,851.43l-.44.35-.11.54.33,1.26.39,1.19-.06.47-.16.17-.27.11M668.67,855.53l-.37.03-.44-.04-1.01-.24-2.12-.82-2.07-.88-.96-.3-.79-.07M660.91,853.22l-.5.23-.18.44.17,1.11.23,1.03-.13.37-.19.11-.29.05M660.01,856.56l-.39-.03-.45-.1-1.01-.35-2.08-1-2.04-1.06-.97-.41-.82-.19M652.25,853.43l-.56.11-.25.33.04.92.09.85-.2.27-.22.05-.32-.02M650.85,855.95l-.4-.09-.46-.16-1.01-.45-2.04-1.15-2-1.2-.97-.5-.85-.31M643.11,852.08l-1.47-1.93-.63-1.1-.46-1.25M594.13,821.09l11.15,9.26,11.22,7.52,11.43,5.81,11.05,3.76,1.56.37M676.62,840.54l-2.3.3-.71.26-.65.32-.08.04-.04.02h-.02M615.45,809.45l.23.41,7.7,11.42,8.5,10.56,9.11,9.48,6.17,5.32M597,819.68l7.04,6.5,7.26,5.61,7.38,4.73,11.17,5.52,10.89,3.43.23.05M672.79,841.52l.05-.03M606.51,755.19l-.14-.46-.05-.44.03-.43.1-.34M649.07,771.77l-.14,1.2.27,1.31.28,1.29-.15,1.16-.37.44-1.79.77-1.28.41-.94.69M645.26,781.05l-.3-.5-.15-.53v-.52s.15-.47.15-.47M653,768.78l-.28.48-1.64,1.05-1.18.6-.83.86M654.16,776.93l-3.51-2.14-.78-.64-.64-.74-.2-.42-.09-.43.02-.41.12-.39M598.01,646.77l-.77.36M591.66,650.46l-.11.49.13.33M655.54,760.01l-.08.2-1.48,1.32-.98.72M595.5,650.34l1.78-1.05,2.42-1.39M519.73,606.52l-5.57.32M514.16,606.84l-.92.24-.86.65-.51.97-.02,1.05v.04M514.27,611.72l-2.42-1.94M514.27,611.72l.78-2.04,1.16-2.18M516.21,607.5l.94.5,1.02.13,2.05-.34,2.1-.37,1.07.11.51.2.45.31M524.35,608.05l.37.42.28.5.32,1.12.14,2.35.23,2.34.39,1.11.68.92M526.75,616.82l.94.59,1.04.24,2.11-.1,2.16-.13,1.08.22.5.25.44.36M535.02,618.25l.35.45.26.52.26,1.14v2.34s.08,2.32.08,2.32l.32,1.13.62.98M536.92,627.14l.92.69,1.05.35,2.18.11,2.21.09,1.09.32.5.29.43.4M545.29,629.38l.33.48.23.54.19,1.16-.16,2.31-.1,2.29.24,1.14.56,1.02M546.57,638.33l.9.77,1.05.44,2.23.32,2.26.28,1.09.42.49.34.41.43M555.01,641.32l.3.51.19.56.11,1.16-.35,2.26-.3,2.25.14,1.14.49,1.06M555.59,650.24l-2.09,1.43-.95.67-.79.58M580.66,714.24l-4.72-14.89-6.16-14.89-7.71-15.05-8.91-14.45-1.38-2.03M611.47,722.73l-.64-.07-7.29-1.28-7.75-1.71-7.8-2.08-1.94-.65-2-.76-2.07-.98-1.32-.95M527.62,606.03l-7.89.49M657.08,750.24l-1.23,1.5-.69.69M655.8,742.6l-.45-.05-.17.05.02.06M659.73,745.15l1.79-1.06,2.65-1.52.23-.13M663.48,749.92l-3.75-4.77M659.73,745.15l-.78-.85-1.09-.82-1.13-.59-.9-.28h-.03M655.74,745.18l.06-2.58M655.74,745.18l2.21,1.14,2.52.84M660.48,747.16l.19.95.54.93,1.55,1.65,1.6,1.57.57.86.15.45.03.45M665.11,754.02l-.11.42-.23.37-.71.59-1.82.75-1.76.7-.66.53-.33.73M659.48,758.11l.1.9.45.91,1.4,1.68,1.44,1.6.48.85.11.43-.02.41M663.44,764.89l-.15.37-.26.32-.77.47-1.9.52-1.85.47-.72.42-.42.63M657.36,768.08v.83s.38.88.38.88l1.25,1.67,1.29,1.59.4.81.06.4-.06.37M660.68,774.63l-.19.32-.3.26-.82.36-1.98.29-1.94.24-.79.31-.5.53M654.16,776.93l-.08.76.29.83,1.11,1.62,1.15,1.55.32.76.02.36-.1.33M656.87,783.13l-.23.27-.34.21-.88.24-2.07.07-2.03.03-.85.19-.57.42M649.9,784.56l-2.48-1.56-1.16-.9-1-1.05M611.84,797.39l9.64-.8,8.68-2.79,7.8-4.87,6.48-6.76.83-1.13M616.91,802.29l-.72-.15-2.77-1.45-.6-.57-.55-.74-.42-1.01-.03-1M670.23,757.12l-.55-.52-6.2-6.69M663.14,739.91h-1.93s-2.55.71-2.55.71l-.57.4M620.02,794.12l2.41.52M613.82,794.87l6.12-.17,5.83-1.22,5.46-2.2,7.42-5.06,6.18-7.01.12-.17M601.13,653.51l-5.63-3.17M595.5,650.34l-1.04-.44-1.19-.16-1.01.21-.59.49v.02M593.17,653.43l-1.5-2.97M593.17,653.43l1.86-.53,2.2-.75M597.23,652.15l.71.96.95.73,2.16.97,2.2.91.98.68.4.44.3.5M604.93,657.34l.17.54.05.56-.19,1.08-.91,1.92-.84,1.89-.13,1.04.23,1.07M603.31,665.46l.64.99.9.79,2.1,1.13,2.14,1.08.93.75.37.46.26.51M610.65,671.17l.13.54v.54s-.25,1.02-.25,1.02l-1.06,1.76-1.01,1.73-.22.98.14,1.05M608.39,678.8l.57,1.01.85.84,2.04,1.27,2.07,1.22.88.79.34.47.23.51M615.38,684.91l.09.52-.03.52-.35.95-1.23,1.59-1.18,1.57-.31.92.05,1.01M612.42,691.98l.5,1.02.8.87,1.98,1.38,2.01,1.32.83.82.3.48.19.5M619.02,698.37l.05.51-.08.49-.44.88-1.4,1.41-1.36,1.39-.41.84-.04.96M615.34,704.85l-2.72-.24-1.28-.21-1.14-.33M606.51,755.19l3.37-10.33,1.82-11.64.24-13.11-1.41-13.95-.34-2.08M645.32,767.55l-.82.15-2.81.34-2.69.15-5.39-.24-5.49-.98-5.34-1.61-5.63-2.32-5.64-3.03-1.38-.95-1.4-1.13-1.4-1.43-.8-1.32M611.39,658.52l-1.08-.48-9.18-4.53M561.12,766.72l.48-.28.77-1.49.14-2.14-.55-2.56-1.24-2.67-1.82-2.45-2.21-1.89-2.34-1.04h-2.17s-.9.56-.9.56M557.76,761.46l.08-.04.1-.13.07-.28-.03-.43-.17-.56-.34-.64-.62-.73-.79-.54-.84-.19-.45.15M559.01,764.16l-.38-.02-.41-.22-.39-.39-.3-.5-.17-.53-.02-.49.14-.36.08-.08M548.74,750.85l-.16.35v.48s.15.53.15.53l.29.51.38.41.41.24.38.04.09-.02M548.74,750.85l-.16.09M553.29,755.51l-.77.45-.74,1.46-.14,2.09.55,2.49,1.22,2.61,1.78,2.38,2.17,1.84,2.28,1,2.14-.02.82-.54M559.01,764.16l-.16.09M549.61,750.25l-.65.31-.38.38M552.33,756.12l-.07.05-.65,1.36-.15,1.88.42,2.25.99,2.4,1.5,2.29,1.89,1.92,2.1,1.3,2.08.5,1.85-.43,1.38-1.37.73-2.24-.05-2.9-.87-3.3-1.65-3.35-2.3-3.03-2.73-2.36-2.88-1.38-2.73-.2-1.28.61M558.85,764.26l.63-.39.38-.72.12-1.04-.19-1.29-.53-1.42-.86-1.42-1.13-1.26-1.32-.94-1.37-.47-1.28.11-.47.34M558.85,764.26l-.38-.02-.41-.22-.39-.39-.3-.5-.17-.53-.02-.49.14-.36.28-.19M557.6,761.56l.13-.09.1-.21.03-.36-.07-.42-.19-.51-.33-.56-.47-.56-.59-.47-.67-.29-.68-.04-.61.28-.45.63-.21.97.1,1.25.44,1.44.79,1.49,1.09,1.37,1.32,1.09,1.41.64,1.37.08,1.15-.57.8-1.21.31-1.79-.25-2.22-.84-2.44-1.4-2.41-1.84-2.11-2.1-1.54-2.17-.77-1.99.15-1.45.97M550.33,753.33l-.29.16-.38-.04-.41-.24-.38-.41-.29-.51-.15-.53v-.48s.17-.35.17-.35M543.92,753.75l.22,2.87.65,3.02,1.06,3.08,1.44,3.03,1.76,2.87,2.03,2.62,2.22,2.28,2.34,1.86,2.38,1.38,2.34.85,2.22.29,2.03-.28,1.76-.84,1.44-1.37,1.06-1.85.65-2.27.22-2.61-.22-2.87-.65-3.02-1.06-3.08-1.44-3.03-1.76-2.87-2.03-2.62-2.22-2.28-2.34-1.86-2.38-1.38-2.34-.85-2.22-.29-2.03.28-1.76.84-1.44,1.37-1.06,1.85-.65,2.27-.22,2.61M553.22,744.54l-1.82-.2-2.03.28-1.35.58M566.29,776.84l.41-.26,1.44-1.37,1.06-1.85.31-.86M432.82,566.51l.49-1.69.9-1.25,1.25-.73,1.53-.17,1.71.41,1.78.96,1.74,1.45,1.59,1.85,1.34,2.13,1.01,2.28.61,2.28.17,2.15-.27,1.87-.7,1.48-1.09,1-1.4.45-1.63-.12-1.76-.69-1.77-1.21-1.68-1.66-1.47-2-1.18-2.22-.81-2.3-.39-2.23.05-2.02M426.95,562.07l.59-2.35,1.01-1.94,1.39-1.46,1.73-.94,2.01-.38,2.22.2,2.35.76,2.4,1.3,2.38,1.8,2.27,2.23,2.08,2.59,1.83,2.86,1.51,3.03,1.14,3.1.73,3.07.29,2.93-.15,2.69-.59,2.35-1.01,1.94-1.39,1.46-1.73.93-2.01.37-2.21-.2-2.35-.77-2.41-1.3-2.38-1.8-2.27-2.23-2.08-2.59-1.83-2.86-1.51-3.04-1.14-3.1-.73-3.07-.29-2.93.15-2.69M512.34,521.34l-2.31-2.09-2.4-1.64-2.39-1.12-2.31-.57h-.08M742.51,930.04l.2-.62.44-2.48v-2.78s-.45-2.99-.45-2.99l-.31-1.26M437.82,842.49l-2.33-2.02-2.18-2.42-1.96-2.74-1.67-2.96-1.33-3.08-.94-3.1-.51-3.01-.07-2.82.37-2.53.8-2.16,1.2-1.71,1.57-1.2,1.88-.66,2.12-.09,2.29.48,2.39,1.04,2.4,1.56,2.33,2.03,2.19,2.42,1.96,2.74,1.67,2.96,1.33,3.08.94,3.1.51,3.01.07,2.82-.37,2.53-.8,2.16-1.21,1.71-1.56,1.2-1.88.66-2.12.09-2.29-.48-2.39-1.04-2.4-1.56M438.74,836.24l-1.71-1.56-1.53-1.93-1.26-2.18-.91-2.29-.5-2.26-.06-2.09.38-1.79.8-1.37,1.17-.87,1.47-.31,1.67.27,1.77.82,1.76,1.33,1.63,1.76,1.41,2.07,1.09,2.25.71,2.29.28,2.19-.16,1.95-.6,1.59-1,1.13-1.33.59-1.58.02-1.74-.55-1.78-1.09M669.36,962.54l-.49,1.69-.9,1.25-1.26.73-1.53.17-1.71-.41-1.78-.96-1.74-1.45-1.59-1.85-1.34-2.13-1-2.28-.61-2.28-.17-2.14.27-1.87.7-1.48,1.09-1,1.4-.45,1.63.12,1.76.69,1.77,1.21,1.68,1.66,1.47,2,1.18,2.22.81,2.3.39,2.23-.05,2.03M675.23,966.98l-.59,2.35-1.01,1.94-1.39,1.46-1.73.93-2.01.38-2.22-.2-2.35-.76-2.4-1.3-2.38-1.8-2.27-2.23-2.08-2.59-1.82-2.86-1.51-3.04-1.14-3.1-.73-3.07-.29-2.92.15-2.69.59-2.35,1.01-1.94,1.39-1.46,1.73-.93,2.01-.38,2.22.2,2.35.76,2.41,1.3,2.38,1.8,2.27,2.23,2.08,2.59,1.83,2.86,1.51,3.03,1.14,3.1.73,3.07.3,2.92-.15,2.69M675.8,713.79l.62-.41M664.36,686.56l2.33,2.02,2.18,2.42,1.96,2.74,1.67,2.96,1.33,3.08.94,3.1.51,3.01.07,2.82-.37,2.53-.8,2.16-1.2,1.71-1.57,1.2-1.88.66-2.12.09-2.29-.48-2.39-1.04-2.4-1.56-2.33-2.02-2.18-2.42-1.96-2.74-1.67-2.96-1.33-3.08-.94-3.1-.51-3.01-.07-2.82.37-2.53.8-2.16,1.2-1.71,1.57-1.2,1.88-.66,2.12-.09,2.29.48,2.39,1.04,2.4,1.56M663.44,692.81l1.71,1.56,1.53,1.93,1.26,2.18.91,2.29.5,2.26.06,2.09-.38,1.79-.8,1.37-1.17.87-1.47.31-1.67-.27-1.77-.82-1.76-1.33-1.63-1.76-1.41-2.07-1.09-2.25-.71-2.29-.28-2.19.16-1.95.6-1.59,1-1.13,1.33-.6,1.58-.02,1.74.55,1.78,1.09M742.32,673.57l.66-2.29.22-2.64-.23-2.9-.66-3.05-1.07-3.1-1.45-3.05-1.78-2.9-2.04-2.64-2.24-2.3-2.36-1.87-2.41-1.39-2.36-.85-.94-.19M518.7,769.6l-.75.06-1.4-.46-.66-.47-.57-.66-.25-.56M494.95,717.82l-.34-1.27-.84-4.55-.25-2.29-.13-2.32v-2.12M515.04,767.53l-.81-1.56-2.81-5.72-2.21-4.67-2.04-4.51-1.27-2.91-.3-.71M573.6,844.16l-1.87-1.08-1.94-1.28-1.86-1.36-3.52-3-3.66-3.63-4.31-4.8-3.69-4.37-3.84-4.73-2.58-3.27M493.38,705.03v-6.67M485.89,572.16v1.12M576.33,845.75l-2.4-1.39M655.26,891.32l-38.42-22.18M684.11,916.62l.97.56M658.02,901.56l.03.02M504.75,516.92l-.94-.55-2.14-.93-2.19-.61-2.21-.25-2.19.15-2.11.59-1.32.71M736.63,940.24l.67-.36,1.81-1.59,1.35-1.86,1.01-2.19.64-2.45.27-2.62-.02-.69M500.16,599.62l.64-.84M669.46,890.95l-2.16.28-3.2.2-1.83.05h-1.58s-1.75-.02-1.75-.02l-1.96-.06-1.86-.1-.63-.04-.19.02M687.1,893.64l-.05.03M427.61,569.99v246.51M444.35,845.5l213.47,123.24M676.62,819.93l-3.51-6.09M433.56,549.56l-.86.46-1.81,1.59-1.35,1.86-1.01,2.19-.64,2.45-.2,1.95M666.97,973.87l1.36.59,2.19.61,2.21.25,2.18-.15,2.11-.58,1.13-.6M459.14,557.92l-.35-.13-.06.06M491.64,515.96l-58.28,33.64M678.35,973.94l58.28-33.64M485.78,603.46l.03-.04M657.98,901.61h-.05M487.33,602.56l2.26-1.06,1.81-.61,1.5-.46,1.46-.4,1.5-.37,2.11-.44,2.66-.42,3.16-.3,2.82-.14,2.9-.04,2.88.08,1.84.08.27-.02M676.62,879.29l-.09.15-1.02,1.94-1.18,2.12-1.23,2.09-1.3,2.05-2.06,2.97-2.23,2.8-2.13,2.31-1.13,1.12-1.22,1.16-1.51,1.32-2.05,1.42M516.78,590.96l-.02-.04-.9-.38-1.24-.7M684.14,883.27v-.97s.06-.78.06-.78h-.09M727.27,645.34l-222.52-128.46M742.39,928.48v-256.95M738.01,656.6l-1.91-2.96-.85-1.14-1.49-1.78-1.62-1.68-1.81-1.6-1.95-1.43-1.12-.65M742.35,671.51l-.06-2-.38-2.68-.61-2.52-.74-2.25-.72-1.8-.98-2.06-.87-1.61M684.11,895.37l3.1-1.79M507.4,582.11l-3.11,1.8M662.07,674.54v-.03s-.05-.06-.05-.06l-.16-.07-.3-.1-.45-.14-.58-.2-.7-.29-1.74-.88-2.17-1.33M684.11,720.26l-.07-2.54.1-1.95.11-.75.11-.6.1-.46.07-.31.02-.17-.06-.06M656.11,671.55l-55.76-32.19M515.12,590.15l-55.76-32.19M511.91,596.95l84.23,48.62M676.62,785.12v97.2M684.11,947.25v-64.38M684.11,784.43v-64.39M596.46,645.77l.47.27,3.93,2.63,3.51,2.85,2.93,2.73,2.57,2.61,3.28,3.57,4.18,4.87,3.98,4.88,4.13,5.3,3.49,4.72,2.89,4.02,2.31,3.29,1.76,2.55,1.68,2.5,1.69,2.57,2.39,3.72,3.22,5.21,2.75,4.71M647.61,708.78l3.2,5.64,3.1,5.82,1.99,3.89,1.52,3.07,1.53,3.18,2.01,4.31,2.48,5.49,2.87,6.74,2.93,7.46,2.29,6.29,1.64,4.98,1.08,3.69.86,3.33.52,2.38.44,2.5.35,2.9.2,3.22v.22M708.86,647.47l-46.82,27.03M684.51,713.44l46.82-27.03M488.57,828.35l4.08-2.35M490.23,804.69l-.15-1.8-.11-1.36-.1-1.13-.05-.71-.03-.55-.02-.34v-.16s0,.03,0,.03l.02-.17.07-.71.03-.72v-.58s.01-.83.01-.83M447.17,725.59l1.32-.76M489.89,795.64v-.99s-.01-2.14-.01-2.14l-.03-1.68-.03-1.26v-.75s-.02-.5-.02-.5v-.42s.01-.34.01-.34l.03-.24.09-.09.23-.43.15-.55.08-.48.09-.7M492.05,775.47l.05-.13.15-.56M490.51,785.07l.09-1.03.13-3.2.06-2.03.08-.94.09-.52M453.63,716.67l.28-.21M453.91,716.45l.34-.6.67-2.44.46-1.53.32-.51.37-.23M459.4,710.51l.42-.3M564.46,900.26l5.89-3.4M459.82,710.21l.72-1.09.54-1.42.55-1.36.34-.53.39-.31M466.75,705.12l.76-.77.62-1.09.58-1.12.68-.87M526.05,784.78l.36.58,2.93,4.3M509.89,742.18l.03.3.83,4.92M457.37,640.87h.37M510.75,747.42l3.73,4.51,2.75,4.37,1.97,3.94,1.37,3.3,1.71,4.99,1.81,6.73,1.54,8.33M557.8,816.77l.09.06,4.35,2.31M530.16,790.42l6.51,3.69,4.76,3.51,3.25,2.89,2.21,2.24,1.45,1.6,1.21,1.43,1.39,1.76,2.01,2.79,2.37,3.98M462.64,638.63l.61.28M463.25,638.91l.47.22.98.96,1.02.96,1.21.57M457.33,640.83l.84-.08.85-.27M492.27,774.89l.42-1.86.85-3.03.87-2.71.88-2.41.86-2.13,1.19-2.65,1.81-3.5,2.57-4.17,3.5-4.6,4.64-4.74.14-.11M503.23,701.46l-4.23,7.52-3.33,7.13-2.34,5.54-2.09,5.41-1.98,5.7-2.01,6.55-1.39,5.16-1.25,5.27-1.26,6.27-1.22,7.65-.88,7.81-.46,6.5-.2,5.66-.03,4.62.15,6.26.51,7.98.94,8.33M488.18,698.56l5.34-.2,1.05.07M494.58,698.42l5.97.39,5.63.92,6.42,1.6,6.48,2.21M514.02,711.15l.75,3.02.13,3.11-.24,2.98-.4,2.66-.58,3.03-.92,4.21-1.23,5.46-1.65,6.58M472.32,640.17l.64.15,1.64,1.53,1.06,1.2,1.3.81M466.93,641.63l.93.04.95-.17M633.24,897.09l-.69-.44-.5-.32-.34-.22-.4-.25-.22-.13-.22-.15-.37-.26-.49-.35-.51-.38-.95-.7-.86-.65M516.23,706.23l-1.8,2.88-.52.99M482.31,643.1l.71.14.66.42,1.11,1.32,1.09,1.44,1.37,1.07M476.95,643.86l1.01.17,1.05-.08M551.15,881.15l2.84,5.15,2.34,3.79M527.3,786.67l-.17,3.56-.05,3.58.06,4.08.23,4.96.45,5.46.63,5.39.66,4.45.9,5.09,1.33,6.3,1.87,7.43,2.11,7.17,2.12,6.36,2.04,5.53,1.88,4.71,1.91,4.48,2.65,5.78,3.53,7.07.42.75M559.04,894.47l.23.38M564.63,819.61l5.59-.16,4.18.19,3.2.32,3.1.44,2.9.51,2.28.4,1.06.02.22-.11M596.26,820.3l3.44-1.94M487.26,647.49l1.55.16,1.51-.31,1.52-.21.77.1.73.32,1.19,1.17.96,1.4,1,1.33,1.22,1M501.77,598.69l-3.22,1.86M524.61,698.97l-.47.39M448.64,724.65l.53-.97M521.71,701.15l-5.39,4.9M562.8,819.36l.37.88,3.55,7.66,3.04,6.05,2.37,4.45,1.78,3.2,1.92,3.32,4.55,7.44,5.09,7.65,4.52,6.27,3.56,4.62,4.29,5.24,4.31,4.93,3.22,3.47,1.26,1.31,1.78,1.81,2.5,2.44,3.23,3.02,5.48,4.74,6.85,5.28,7.69,5.04M643.86,902.88l-1.5-.67-.36-.18M497.66,652.49l5.84,3.3,5.87,3.79,4.43,3.14,2.38,1.79,1.73,1.35,1.76,1.41,1.86,1.53,3.18,2.73,3.79,3.43,4.89,4.74,5.91,6.22,6.8,7.92M649.95,847.73h-.02s-.5-.19-.5-.19l-.76-.3-2.27-.91-1.46-.54-1.5-.44M651.06,846.41l-.44.04-.04.05M512.76,611.15l.12.1,1.49,1.22M519.53,603.44l-6.49,3.75M656.36,847.96h-.02s-2.38-.79-2.38-.79l-1.56-.51-1.35-.26M658.99,846.13l-.41.16h0M514.39,612.47l1.63.82,1.69.35,1.68.43.8.4.71.59,1,1.6.71,1.69.75,1.59,1.02,1.37M524.39,621.32l1.62,1.01,1.71.55,1.7.62.79.48.68.66.91,1.68.59,1.74.64,1.65.93,1.45M666.47,844.42l-.63.29M664.11,847.12l-.32.16-.53-.03-1.41-.42-1.52-.51-.72-.17-.61-.02M533.97,631.15l1.6,1.18,1.72.73,1.69.79.77.56.65.72.81,1.74.47,1.78.52,1.68.84,1.52M543.05,641.85l1.56,1.33,1.7.89,1.65.94.74.63.6.77.68,1.77.34,1.75.4,1.7.76,1.57M599.89,818.25l.44-.26M671.33,844.74l-.4.14h0M670.92,844.88l-1.9-.25-1.39-.26-1.17.05M551.44,653.22l4.31,6.42,4.04,6.56,2.92,5.1,2.39,4.43,2.27,4.47,2.15,4.48,2.26,5.05,2.67,6.53,2.9,8.03,2.88,9.5M593.6,821.58l3.6,3.44,4.41,3.94,3.07,2.62,2.62,2.14,2.45,1.94,3.3,2.52,4.57,3.34,4.07,2.83,3.26,2.18,2.72,1.75,3.27,2.04,3.96,2.35,4.09,2.29,4.99,2.59,4.35,2.06,3.97,1.71,4.11,1.59,5.56,1.87,5.29,1.45,4.45.96,3.61.59,1.3.15M643.91,845.44l-2.07-.46-2.94-.87-1.57-.56-1.2-.46-.47-.12.02.02M609.56,703.54l.95,6.06.65,6.31.28,5.04.06,3.85-.05,2.98-.19,3.7-.44,4.6-.84,5.36-1.42,5.94-2.21,6.3M606.96,691.29l.89,1.83,1.22,1.58,1.14,1.55.41.83.2.84-.2,1.55-.52,1.34-.45,1.3-.04,1.41M652.09,763.78v1.29s.45,1.32.45,1.32l.46,1.28.09.6-.09.55M603.25,678.73l1.01,1.81,1.33,1.54,1.26,1.53.49.82.29.86-.04,1.66-.39,1.47-.31,1.41.07,1.47M591.66,651.3l.24.46.83,1.68M597.22,647.08l-5.08,2.93M598.49,666.06l1.15,1.77,1.44,1.46,1.37,1.46.55.81.36.87.09,1.72-.25,1.56-.17,1.49.21,1.52M652.99,762.24l-.56.73-.35.81M654.16,754.42l.19,1.49.65,1.46.6,1.42.1.67-.15.6M592.73,653.44l1.27,1.71,1.52,1.36,1.47,1.37.61.79.43.87.24,1.77-.1,1.63-.02,1.56.34,1.56M655.17,742.66l-.05,1.5M655.15,752.41l-.64.97-.35,1.05M655.2,744.5l.31,1.35.86,1.58.76,1.53.11.74-.19.64M658.03,740.95l-2.81,1.62M616.9,802.35l3.43.94,5.68,1.53,4.09,1.07,3.11.79,3.2.78,3.28.78,3.34.76,3.36.73,13.48,2.48,3.76.55,5.18.65,4.27.43,3.56.25M633.25,790.13l-1.32.79-.57.28M645.32,767.56l5.67-1.07,1.47-.36M565.97,777.03l.32-.18M548.02,745.2l-.32.18M449.05,587.78l4.24-2.45M434.85,553.42l-4.23,2.44M449.05,844.74l4.24-2.45M434.85,810.36l-4.24,2.45M671.56,973.19l4.23-2.44M657.37,938.82l-4.24,2.45M671.56,716.24l4.24-2.45M657.37,681.87l-4.24,2.45" style="fill: none; stroke: #040000; stroke-miterlimit: 10;"/>
    <g>
      <path d="M562.1,2127.94c0-9.24,4.24-14.8,11.28-14.8s11.28,5.56,11.28,14.8-4.24,14.8-11.28,14.8-11.28-5.56-11.28-14.8ZM573.38,2138.78c4.76,0,7.32-3.8,7.32-10.84s-2.56-10.84-7.32-10.84-7.32,3.76-7.32,10.84,2.56,10.84,7.32,10.84Z" style="fill: #221714;"/>
      <path d="M586.86,2133.02l10.28-19.48h4.48l-9.92,18.76h9.36v-6.84h3.96v6.84h3.56v3.96h-3.56v6.08h-3.96v-6.08h-14.2v-3.24Z" style="fill: #221714;"/>
    </g>
    <g>
      <path d="M208.94,1140.86h10c8.8,0,14.48,6.36,14.48,14.4s-5.68,14.4-14.48,14.4h-10v-28.79ZM211.34,1167.26h7.6c7.48,0,12.08-5.28,12.08-12s-4.6-12-12.08-12h-7.6v24Z" style="fill: #040000;"/>
      <path d="M239.74,1140.46c.84,0,1.56.72,1.56,1.6s-.72,1.56-1.56,1.56-1.6-.68-1.6-1.56.72-1.6,1.6-1.6ZM238.54,1169.66v-20h2.4v20h-2.4Z" style="fill: #040000;"/>
      <path d="M247.22,1149.66h2.4v3.72c1.28-2.52,3.96-4.12,6.96-4.12,3.56,0,6.24,1.88,7.24,4.96,1.36-3.04,4.36-4.96,7.64-4.96,4.52,0,7.84,3.04,7.84,8.32v12.08h-2.4v-11.96c0-4.44-2.52-6.36-5.76-6.36-3.52,0-6.68,2.52-6.68,7.04v11.28h-2.4v-11.96c0-4.44-2.56-6.36-5.76-6.36-3.56,0-6.68,2.56-6.68,7.12v11.2h-2.4v-20Z" style="fill: #040000;"/>
      <path d="M294.5,1149.26c5.68,0,9.56,4.36,9.6,10.4,0,.44-.08.96-.08,1.4h-17.16c.6,3.84,3.8,6.56,8,6.56,2.44,0,4.76-.92,6.32-2.64l1.72,1.72c-2.08,2.2-4.96,3.36-7.96,3.36-6.12,0-10.64-4.48-10.64-10.4s4.36-10.4,10.2-10.4ZM286.78,1158.66h14.84c-.36-4.16-3.24-7-7.16-7s-7.24,3-7.68,7Z" style="fill: #040000;"/>
      <path d="M309.06,1169.66v-20h2.4v3.72c1.28-2.52,3.96-4.12,6.96-4.12,4.56,0,7.88,3.04,7.88,8.32v12.08h-2.4v-11.96c0-4.44-2.56-6.36-5.76-6.36-3.56,0-6.68,2.56-6.68,7.12v11.2h-2.4Z" style="fill: #040000;"/>
      <path d="M332.62,1165.1c1.52,1.6,3.8,2.56,6.4,2.56,3.12,0,5.48-1.4,5.48-3.28,0-2.64-3.44-3.48-5.76-4.12-3.28-.88-7.36-1.8-7.36-5.64,0-3.24,2.96-5.36,7.08-5.36,3.12,0,6.04,1.24,7.96,3.24l-1.68,1.72c-1.8-1.76-3.84-2.52-6.28-2.52-2.88,0-4.64,1.24-4.64,2.84,0,2.08,2.88,2.68,5.76,3.44,3.44.92,7.32,2.2,7.32,6.36,0,3.36-3.32,5.72-7.96,5.72-3.12,0-5.92-1.12-8.04-3.24l1.72-1.72Z" style="fill: #040000;"/>
      <path d="M352.7,1140.46c.84,0,1.56.72,1.56,1.6s-.72,1.56-1.56,1.56-1.6-.68-1.6-1.56.72-1.6,1.6-1.6ZM351.5,1169.66v-20h2.4v20h-2.4Z" style="fill: #040000;"/>
      <path d="M379.65,1159.66c0,5.72-4.68,10.4-10.4,10.4s-10.4-4.68-10.4-10.4,4.64-10.4,10.4-10.4,10.4,4.64,10.4,10.4ZM369.26,1167.62c4.4,0,7.96-3.56,7.96-7.96s-3.56-8-7.96-8-8,3.6-8,8,3.6,7.96,8,7.96Z" style="fill: #040000;"/>
      <path d="M384.62,1169.66v-20h2.4v3.72c1.28-2.52,3.96-4.12,6.96-4.12,4.56,0,7.88,3.04,7.88,8.32v12.08h-2.4v-11.96c0-4.44-2.56-6.36-5.76-6.36-3.56,0-6.68,2.56-6.68,7.12v11.2h-2.4Z" style="fill: #040000;"/>
      <path d="M408.18,1165.1c1.52,1.6,3.8,2.56,6.4,2.56,3.12,0,5.48-1.4,5.48-3.28,0-2.64-3.44-3.48-5.76-4.12-3.28-.88-7.36-1.8-7.36-5.64,0-3.24,2.96-5.36,7.08-5.36,3.12,0,6.04,1.24,7.96,3.24l-1.68,1.72c-1.8-1.76-3.84-2.52-6.28-2.52-2.88,0-4.64,1.24-4.64,2.84,0,2.08,2.88,2.68,5.76,3.44,3.44.92,7.32,2.2,7.32,6.36,0,3.36-3.32,5.72-7.96,5.72-3.12,0-5.92-1.12-8.04-3.24l1.72-1.72Z" style="fill: #040000;"/>
    </g>
    <g>
      <path d="M208.94,1349.66v-28.79h11.96c4.12,0,7.44,3.04,7.44,7.16,0,2.76-1.56,5.2-4,6.4,3.04,1.2,5.08,4.04,5.08,7.36,0,4.52-3.64,7.88-8.12,7.88h-12.36ZM211.34,1333.34h9.6c2.76,0,5-2.28,5-5.04s-2.24-5.04-5.04-5.04h-9.56v10.08ZM211.34,1335.74v11.52h9.92c3.2,0,5.76-2.6,5.76-5.76s-2.56-5.76-5.72-5.76h-9.96Z" style="fill: #040000;"/>
      <path d="M243.5,1329.26c5.68,0,9.56,4.36,9.6,10.4,0,.44-.08.96-.08,1.4h-17.16c.6,3.84,3.8,6.56,8,6.56,2.44,0,4.76-.92,6.32-2.64l1.72,1.72c-2.08,2.2-4.96,3.36-7.96,3.36-6.12,0-10.64-4.48-10.64-10.4s4.36-10.4,10.2-10.4ZM235.78,1338.66h14.84c-.36-4.16-3.24-7-7.16-7s-7.24,3-7.68,7Z" style="fill: #040000;"/>
      <path d="M267.14,1329.26c3.52,0,6.68,2.2,8,4.84v-4.44h2.4v20h-2.4v-4.44c-1.32,2.64-4.48,4.84-8,4.84-5.76,0-10.4-4.68-10.4-10.4s4.64-10.4,10.4-10.4ZM259.14,1339.66c0,4.4,3.56,8,8,8s8-3.6,8-8-3.6-8-8-8-8,3.6-8,8Z" style="fill: #040000;"/>
      <path d="M283.82,1349.66v-20h2.4v3.88c1.24-2.88,4.04-4.28,7.08-4.28v2.08c-4.2,0-7.08,2.92-7.08,7.12v11.2h-2.4Z" style="fill: #040000;"/>
      <path d="M298.7,1320.46c.84,0,1.56.72,1.56,1.6s-.72,1.56-1.56,1.56-1.6-.68-1.6-1.56.72-1.6,1.6-1.6ZM297.5,1349.66v-20h2.4v20h-2.4Z" style="fill: #040000;"/>
      <path d="M306.18,1349.66v-20h2.4v3.72c1.28-2.52,3.96-4.12,6.96-4.12,4.56,0,7.88,3.04,7.88,8.32v12.08h-2.4v-11.96c0-4.44-2.56-6.36-5.76-6.36-3.56,0-6.68,2.56-6.68,7.12v11.2h-2.4Z" style="fill: #040000;"/>
      <path d="M338.82,1329.26c3.52,0,6.68,2.2,8,4.84v-4.44h2.4v19.6c0,5.96-4.04,9.6-10.72,9.6-3.12,0-6.44-1.08-8.84-3.24l1.72-1.68c1.88,1.6,4.64,2.52,7.28,2.52,5.04,0,8.16-2.68,8.16-7v-4.24c-1.32,2.64-4.48,4.84-8,4.84-5.76,0-10.4-4.68-10.4-10.4s4.64-10.4,10.4-10.4ZM330.82,1339.66c0,4.4,3.56,8,8,8s8-3.6,8-8-3.6-8-8-8-8,3.6-8,8Z" style="fill: #040000;"/>
    </g>
    <g>
      <path d="M206.54,1525.46l1.72-1.68c2.48,2.56,5.76,3.88,9.6,3.88,4.88,0,8.32-2.36,8.32-5.64,0-2.84-2.12-4.44-8.24-6.24-5.52-1.64-10.2-3.32-10.2-8.04,0-4.44,3.76-7.28,9.92-7.28,4,0,7.8,1.68,10.24,4.6l-1.72,1.68c-2.04-2.44-5.16-3.88-8.52-3.88-4.8,0-7.52,1.92-7.52,4.88,0,2.36,1.96,3.76,7.8,5.52,5.72,1.72,10.64,3.56,10.64,8.76,0,4.68-4.44,8.04-10.72,8.04-4.52,0-8.48-1.64-11.32-4.6Z" style="fill: #040000;"/>
      <path d="M233.66,1509.66h2.4v4.44c1.32-2.64,4.48-4.84,8-4.84,5.72,0,10.4,4.68,10.4,10.4s-4.68,10.4-10.4,10.4c-3.52,0-6.68-2.2-8-4.84v14.08h-2.4v-29.64ZM236.06,1519.66c0,4.4,3.56,8,8,8s8-3.6,8-8-3.6-8-8-8-8,3.6-8,8Z" style="fill: #040000;"/>
      <path d="M268.3,1509.26c5.68,0,9.56,4.36,9.6,10.4,0,.44-.08.96-.08,1.4h-17.16c.6,3.84,3.8,6.56,8,6.56,2.44,0,4.76-.92,6.32-2.64l1.72,1.72c-2.08,2.2-4.96,3.36-7.96,3.36-6.12,0-10.64-4.48-10.64-10.4s4.36-10.4,10.2-10.4ZM260.58,1518.66h14.84c-.36-4.16-3.24-7-7.16-7s-7.24,3-7.68,7Z" style="fill: #040000;"/>
      <path d="M291.74,1509.26c5.68,0,9.56,4.36,9.6,10.4,0,.44-.08.96-.08,1.4h-17.16c.6,3.84,3.8,6.56,8,6.56,2.44,0,4.76-.92,6.32-2.64l1.72,1.72c-2.08,2.2-4.96,3.36-7.96,3.36-6.12,0-10.64-4.48-10.64-10.4s4.36-10.4,10.2-10.4ZM284.02,1518.66h14.84c-.36-4.16-3.24-7-7.16-7s-7.24,3-7.68,7Z" style="fill: #040000;"/>
      <path d="M315.38,1509.26c3.52,0,6.68,2.2,8,4.84v-13.24h2.4v28.79h-2.4v-4.44c-1.32,2.64-4.48,4.84-8,4.84-5.76,0-10.4-4.68-10.4-10.4s4.64-10.4,10.4-10.4ZM307.38,1519.66c0,4.4,3.56,8,8,8s8-3.6,8-8-3.6-8-8-8-8,3.6-8,8Z" style="fill: #040000;"/>
    </g>
    <g>
      <path d="M217.18,1680.86h2.52l11.56,28.79h-2.56l-2.96-7.36h-14.6l-2.96,7.36h-2.56l11.56-28.79ZM224.78,1699.9l-6.36-15.76-6.32,15.76h12.68Z" style="fill: #040000;"/>
      <path d="M236.26,1680.46c.84,0,1.56.72,1.56,1.6s-.72,1.56-1.56,1.56-1.6-.68-1.6-1.56.72-1.6,1.6-1.6ZM235.06,1709.66v-20h2.4v20h-2.4Z" style="fill: #040000;"/>
      <path d="M243.74,1709.66v-20h2.4v3.88c1.24-2.88,4.04-4.28,7.08-4.28v2.08c-4.2,0-7.08,2.92-7.08,7.12v11.2h-2.4Z" style="fill: #040000;"/>
      <path d="M259.26,1689.66v-1.08c0-5.76,3.12-8.12,8.04-8.12h5.48v-.8h2.4v30h-2.4v-26.8h-5.48c-3.6,0-5.64,1.44-5.64,5.72v1.08h6.96v2.4h-6.96v17.6h-2.4v-17.6h-3.96v-2.4h3.96Z" style="fill: #040000;"/>
      <path d="M300.97,1699.66c0,5.72-4.68,10.4-10.4,10.4s-10.4-4.68-10.4-10.4,4.64-10.4,10.4-10.4,10.4,4.64,10.4,10.4ZM290.58,1707.62c4.4,0,7.96-3.56,7.96-7.96s-3.56-8-7.96-8-8,3.6-8,8,3.6,7.96,8,7.96Z" style="fill: #040000;"/>
      <path d="M305.82,1689.66l5,15.72,5.04-15.72h2.32l5.04,15.72,5-15.72h2.52l-6.32,20h-2.4l-5-15.6-5,15.6h-2.36l-6.36-20h2.52Z" style="fill: #040000;"/>
    </g>
    <g>
      <path d="M206.54,1885.46l1.72-1.68c2.48,2.56,5.76,3.88,9.6,3.88,4.88,0,8.32-2.36,8.32-5.64,0-2.84-2.12-4.44-8.24-6.24-5.52-1.64-10.2-3.32-10.2-8.04,0-4.44,3.76-7.28,9.92-7.28,4,0,7.8,1.68,10.24,4.6l-1.72,1.68c-2.04-2.44-5.16-3.88-8.52-3.88-4.8,0-7.52,1.92-7.52,4.88,0,2.36,1.96,3.76,7.8,5.52,5.72,1.72,10.64,3.56,10.64,8.76,0,4.68-4.44,8.04-10.72,8.04-4.52,0-8.48-1.64-11.32-4.6Z" style="fill: #040000;"/>
      <path d="M231.54,1869.66h3.44c.6,0,1-.4,1-.96v-4.4h2.4v5.36h6.44v2.4h-6.44v10.92c0,3.64.8,4.68,3.56,4.68,1.08,0,1.88-.12,2.88-.32v2.32c-.88.24-1.92.4-3.12.4-4.16,0-5.72-1.92-5.72-7v-11h-4.44v-2.4Z" style="fill: #040000;"/>
      <path d="M258.9,1869.26c3.52,0,6.68,2.2,8,4.84v-4.44h2.4v20h-2.4v-4.44c-1.32,2.64-4.48,4.84-8,4.84-5.76,0-10.4-4.68-10.4-10.4s4.64-10.4,10.4-10.4ZM250.9,1879.66c0,4.4,3.56,8,8,8s8-3.6,8-8-3.6-8-8-8-8,3.6-8,8Z" style="fill: #040000;"/>
      <path d="M273.46,1869.66h3.44c.6,0,1-.4,1-.96v-4.4h2.4v5.36h6.44v2.4h-6.44v10.92c0,3.64.8,4.68,3.56,4.68,1.08,0,1.88-.12,2.88-.32v2.32c-.88.24-1.92.4-3.12.4-4.16,0-5.72-1.92-5.72-7v-11h-4.44v-2.4Z" style="fill: #040000;"/>
      <path d="M292.94,1860.46c.84,0,1.56.72,1.56,1.6s-.72,1.56-1.56,1.56-1.6-.68-1.6-1.56.72-1.6,1.6-1.6ZM291.74,1889.66v-20h2.4v20h-2.4Z" style="fill: #040000;"/>
      <path d="M299.1,1879.66c0-5.76,4.64-10.4,10.4-10.4,2.96,0,5.64,1.24,7.52,3.24l-1.72,1.72c-1.44-1.56-3.52-2.56-5.8-2.56-4.4,0-8,3.6-8,8s3.6,7.96,8,7.96c2.28,0,4.36-.96,5.8-2.52l1.72,1.72c-1.88,2-4.56,3.24-7.52,3.24-5.76,0-10.4-4.68-10.4-10.4Z" style="fill: #040000;"/>
      <path d="M333.58,1860.86h10.84c5.12,0,8.84,3.88,8.84,9.24s-3.72,9.2-8.84,9.2h-8.44v10.36h-2.4v-28.79ZM335.98,1863.26v13.64h8.44c3.72,0,6.44-2.88,6.44-6.84s-2.72-6.8-6.44-6.8h-8.44Z" style="fill: #040000;"/>
      <path d="M358.18,1889.66v-20h2.4v3.88c1.24-2.88,4.04-4.28,7.08-4.28v2.08c-4.2,0-7.08,2.92-7.08,7.12v11.2h-2.4Z" style="fill: #040000;"/>
      <path d="M380.74,1869.26c5.68,0,9.56,4.36,9.6,10.4,0,.44-.08.96-.08,1.4h-17.16c.6,3.84,3.8,6.56,8,6.56,2.44,0,4.76-.92,6.32-2.64l1.72,1.72c-2.08,2.2-4.96,3.36-7.96,3.36-6.12,0-10.64-4.48-10.64-10.4s4.36-10.4,10.2-10.4ZM373.02,1878.66h14.84c-.36-4.16-3.24-7-7.16-7s-7.24,3-7.68,7Z" style="fill: #040000;"/>
      <path d="M395.3,1885.1c1.52,1.6,3.8,2.56,6.4,2.56,3.12,0,5.48-1.4,5.48-3.28,0-2.64-3.44-3.48-5.76-4.12-3.28-.88-7.36-1.8-7.36-5.64,0-3.24,2.96-5.36,7.08-5.36,3.12,0,6.04,1.24,7.96,3.24l-1.68,1.72c-1.8-1.76-3.84-2.52-6.28-2.52-2.88,0-4.64,1.24-4.64,2.84,0,2.08,2.88,2.68,5.76,3.44,3.44.92,7.32,2.2,7.32,6.36,0,3.36-3.32,5.72-7.96,5.72-3.12,0-5.92-1.12-8.04-3.24l1.72-1.72Z" style="fill: #040000;"/>
      <path d="M414.18,1885.1c1.52,1.6,3.8,2.56,6.4,2.56,3.12,0,5.48-1.4,5.48-3.28,0-2.64-3.44-3.48-5.76-4.12-3.28-.88-7.36-1.8-7.36-5.64,0-3.24,2.96-5.36,7.08-5.36,3.12,0,6.04,1.24,7.96,3.24l-1.68,1.72c-1.8-1.76-3.84-2.52-6.28-2.52-2.88,0-4.64,1.24-4.64,2.84,0,2.08,2.88,2.68,5.76,3.44,3.44.92,7.32,2.2,7.32,6.36,0,3.36-3.32,5.72-7.96,5.72-3.12,0-5.92-1.12-8.04-3.24l1.72-1.72Z" style="fill: #040000;"/>
      <path d="M433.06,1881.74v-12.08h2.4v11.96c0,4.44,2.52,6.36,5.76,6.36,3.56,0,6.68-2.56,6.68-7.12v-11.2h2.4v20h-2.4v-3.76c-1.28,2.56-3.96,4.16-7,4.16-4.52,0-7.84-3.04-7.84-8.32Z" style="fill: #040000;"/>
      <path d="M456.62,1889.66v-20h2.4v3.88c1.24-2.88,4.04-4.28,7.08-4.28v2.08c-4.2,0-7.08,2.92-7.08,7.12v11.2h-2.4Z" style="fill: #040000;"/>
      <path d="M479.17,1869.26c5.68,0,9.56,4.36,9.6,10.4,0,.44-.08.96-.08,1.4h-17.16c.6,3.84,3.8,6.56,8,6.56,2.44,0,4.76-.92,6.32-2.64l1.72,1.72c-2.08,2.2-4.96,3.36-7.96,3.36-6.12,0-10.64-4.48-10.64-10.4s4.36-10.4,10.2-10.4ZM471.46,1878.66h14.84c-.36-4.16-3.24-7-7.16-7s-7.24,3-7.68,7Z" style="fill: #040000;"/>
    </g>
  </g>
</svg>