<?xml version="1.0" encoding="UTF-8"?>
<svg id="_圖層_1" data-name="圖層 1" xmlns="http://www.w3.org/2000/svg" xmlns:xlink="http://www.w3.org/1999/xlink" viewBox="0 0 1170 2182.68">
  <defs>
    <clipPath id="clippath">
      <rect y="-174.66" width="1170" height="2532" style="fill: none;"/>
    </clipPath>
  </defs>
  <g style="clip-path: url(#clippath);">
    <g>
      <path d="M159.54,187.01l5.58-6.06c3.84,3.24,7.68,4.86,12.78,4.86s8.1-2.1,8.1-4.86c0-3-3.9-4.5-10.68-6.42-6.78-1.92-13.44-4.86-13.44-12.54s7.02-12.42,15.54-12.42c5.76,0,12.06,2.76,15.66,6.9l-5.82,5.76c-2.76-2.88-6.54-4.44-10.56-4.44s-6.54,1.5-6.54,4.08,3.54,3.72,9.84,5.46c8.16,2.28,14.22,5.88,14.22,13.38,0,8.34-7.92,13.32-16.68,13.32-7.14,0-13.02-2.58-18-7.02Z" style="fill: #040000;"/>
      <path d="M211.86,162.78c3.42,0,6.48,1.56,8.46,3.72v-3.12h8.22v30h-8.22v-3.24c-1.98,2.22-5.04,3.84-8.46,3.84-8.58,0-14.52-6.96-14.52-15.6s5.94-15.6,14.52-15.6ZM205.56,178.37c0,4.08,3.3,7.38,7.38,7.38s7.38-3.3,7.38-7.38-3.3-7.38-7.38-7.38-7.38,3.3-7.38,7.38Z" style="fill: #040000;"/>
      <path d="M232.2,171.59v-8.22h4.56v-1.62c0-8.64,4.62-12.18,12-12.18h2.7v7.86h-1.86c-3,0-4.62,1.2-4.62,4.98v.96h6.48v8.22h-6.48v21.78h-8.22v-21.78h-4.56Z" style="fill: #040000;"/>
      <path d="M268.32,162.78c8.58,0,14.34,6.18,14.34,15,0,1.26-.12,2.58-.3,3.9h-21.36c1.14,3.24,4.2,5.1,8.04,5.1,2.7,0,5.28-.96,6.84-2.76l5.04,5.04c-2.76,3.06-6.84,4.92-12.06,4.92-8.94,0-15.84-6.84-15.84-15.6s6.66-15.6,15.3-15.6ZM260.82,175.79h14.34c-.48-3.66-3.54-5.88-7.02-5.88s-6.72,2.28-7.32,5.88Z" style="fill: #040000;"/>
      <path d="M287.1,163.37c1.8,0,3-1.2,3-2.94v-5.1h8.22v8.04h7.2v8.22h-7.2v8.58c0,4.68.66,5.88,3.36,5.94,1.14,0,2.34-.24,3.84-.54v7.8c-1.38.36-3.6.6-5.1.6-7.2,0-10.32-3.24-10.32-10.8v-11.58h-5.28v-8.22h2.28Z" style="fill: #040000;"/>
      <path d="M307.98,163.37h8.94l7.86,19.86,7.38-19.86h8.94l-13.68,34.98c-2.34,6.06-6.78,8.82-12.84,8.82-1.02,0-2.1-.06-3.18-.06v-7.92c.6.06,1.2.12,1.8.12,2.7,0,4.92-1.02,6.12-3.9l.84-2.04-12.18-30Z" style="fill: #040000;"/>
      <path d="M366.78,170.28c-2.16-2.82-3.78-5.94-3.78-9.18,0-7.62,5.88-11.52,12.6-11.52s12.6,3.78,12.6,11.52c0,5.52-3.78,8.82-9.48,11.04.78.72,1.38,1.32,1.98,1.92l5.58,5.58c.84-1.56,1.38-3.3,1.5-5.1l7.26,1.26c-.24,3.54-1.38,6.78-3.18,9.54l4.14,4.14-5.16,5.52-4.5-4.5c-3.36,2.28-7.68,3.54-12.54,3.54-9.48,0-15.48-4.68-15.48-12.18,0-6.06,3.9-9.66,8.46-11.58ZM374.28,186.35c2.46,0,4.62-.66,6.36-1.68l-6.24-6.24c-.96-.96-2.1-2.04-3.18-3.18-2.4,1.26-4.44,2.94-4.44,5.82,0,3.36,2.94,5.28,7.5,5.28ZM371.16,161.33c0,2.1,1.32,4.2,3,6.12,3.42-1.68,5.82-3.36,5.82-6.12s-2.04-4.26-4.38-4.26-4.44,1.62-4.44,4.26Z" style="fill: #040000;"/>
      <path d="M412.68,150.18h8.82l8.16,29.22,8.22-29.22h8.16l8.16,29.22,8.22-29.22h8.76l-13.02,43.2h-7.92l-8.28-27.3-8.34,27.3h-7.92l-13.02-43.2Z" style="fill: #040000;"/>
      <path d="M484.02,162.78c3.42,0,6.48,1.56,8.46,3.72v-3.12h8.22v30h-8.22v-3.24c-1.98,2.22-5.04,3.84-8.46,3.84-8.58,0-14.52-6.96-14.52-15.6s5.94-15.6,14.52-15.6ZM477.72,178.37c0,4.08,3.3,7.38,7.38,7.38s7.38-3.3,7.38-7.38-3.3-7.38-7.38-7.38-7.38,3.3-7.38,7.38Z" style="fill: #040000;"/>
      <path d="M506.94,193.37v-30h8.22v2.94c2.1-2.28,5.16-3.54,8.64-3.54v7.98c-.36-.06-.78-.12-1.14-.12-4.08,0-7.5,2.88-7.5,6.9v15.84h-8.22Z" style="fill: #040000;"/>
      <path d="M527.94,193.37v-30h8.22v2.94c2.1-2.28,5.16-3.54,8.64-3.54v7.98c-.36-.06-.78-.12-1.14-.12-4.08,0-7.5,2.88-7.5,6.9v15.84h-8.22Z" style="fill: #040000;"/>
      <path d="M560.81,162.78c3.42,0,6.48,1.56,8.46,3.72v-3.12h8.22v30h-8.22v-3.24c-1.98,2.22-5.04,3.84-8.46,3.84-8.58,0-14.52-6.96-14.52-15.6s5.94-15.6,14.52-15.6ZM554.51,178.37c0,4.08,3.3,7.38,7.38,7.38s7.38-3.3,7.38-7.38-3.3-7.38-7.38-7.38-7.38,3.3-7.38,7.38Z" style="fill: #040000;"/>
      <path d="M583.73,193.37v-30h8.22v2.82c2.22-2.22,5.34-3.42,8.64-3.42,6.9,0,11.7,4.98,11.7,12.36v18.24h-8.22v-16.02c0-4.38-2.4-6.6-5.76-6.6-3.6,0-6.36,2.7-6.36,6.78v15.84h-8.22Z" style="fill: #040000;"/>
      <path d="M618.71,163.37c1.8,0,3-1.2,3-2.94v-5.1h8.22v8.04h7.2v8.22h-7.2v8.58c0,4.68.66,5.88,3.36,5.94,1.14,0,2.34-.24,3.84-.54v7.8c-1.38.36-3.6.6-5.1.6-7.2,0-10.32-3.24-10.32-10.8v-11.58h-5.28v-8.22h2.28Z" style="fill: #040000;"/>
      <path d="M639.59,163.37h8.94l7.86,19.86,7.38-19.86h8.94l-13.68,34.98c-2.34,6.06-6.78,8.82-12.84,8.82-1.02,0-2.1-.06-3.18-.06v-7.92c.6.06,1.2.12,1.8.12,2.7,0,4.92-1.02,6.12-3.9l.84-2.04-12.18-30Z" style="fill: #040000;"/>
      <path d="M700.43,193.37h-8.22v-43.2h8.22v43.2Z" style="fill: #040000;"/>
      <path d="M707.21,193.37v-30h8.22v2.82c2.22-2.22,5.34-3.42,8.64-3.42,6.9,0,11.7,4.98,11.7,12.36v18.24h-8.22v-16.02c0-4.38-2.4-6.6-5.76-6.6-3.6,0-6.36,2.7-6.36,6.78v15.84h-8.22Z" style="fill: #040000;"/>
      <path d="M739.73,171.59v-8.22h4.56v-1.62c0-8.64,4.62-12.18,12-12.18h2.7v7.86h-1.86c-3,0-4.62,1.2-4.62,4.98v.96h6.48v8.22h-6.48v21.78h-8.22v-21.78h-4.56Z" style="fill: #040000;"/>
      <path d="M791.81,178.37c0,8.58-6.96,15.6-15.6,15.6s-15.6-7.02-15.6-15.6,7.02-15.6,15.6-15.6,15.6,6.96,15.6,15.6ZM776.21,185.75c4.08,0,7.38-3.3,7.38-7.38s-3.3-7.38-7.38-7.38-7.38,3.3-7.38,7.38,3.3,7.38,7.38,7.38Z" style="fill: #040000;"/>
      <path d="M796.31,193.37v-30h8.22v2.94c2.1-2.28,5.16-3.54,8.64-3.54v7.98c-.36-.06-.78-.12-1.14-.12-4.08,0-7.5,2.88-7.5,6.9v15.84h-8.22Z" style="fill: #040000;"/>
      <path d="M817.31,163.37h8.22v2.82c2.22-2.22,5.34-3.42,8.64-3.42,4.38,0,7.86,1.98,9.84,5.34,2.82-3.36,5.64-5.34,10.5-5.34,6.9,0,11.7,4.98,11.7,12.36v18.24h-8.22v-16.02c0-4.38-2.4-6.6-5.76-6.6-3.6,0-6.36,2.64-6.36,6.72v15.9h-8.22v-16.02c0-4.38-2.4-6.6-5.76-6.6-3.6,0-6.36,2.7-6.36,6.78v15.84h-8.22v-30Z" style="fill: #040000;"/>
      <path d="M885.23,162.78c3.42,0,6.48,1.56,8.46,3.72v-3.12h8.22v30h-8.22v-3.24c-1.98,2.22-5.04,3.84-8.46,3.84-8.58,0-14.52-6.96-14.52-15.6s5.94-15.6,14.52-15.6ZM878.93,178.37c0,4.08,3.3,7.38,7.38,7.38s7.38-3.3,7.38-7.38-3.3-7.38-7.38-7.38-7.38,3.3-7.38,7.38Z" style="fill: #040000;"/>
      <path d="M908.03,163.37c1.8,0,3-1.2,3-2.94v-5.1h8.22v8.04h7.2v8.22h-7.2v8.58c0,4.68.66,5.88,3.36,5.94,1.14,0,2.34-.24,3.84-.54v7.8c-1.38.36-3.6.6-5.1.6-7.2,0-10.32-3.24-10.32-10.8v-11.58h-5.28v-8.22h2.28Z" style="fill: #040000;"/>
      <path d="M935.75,149.58c2.64,0,4.8,2.16,4.8,4.8s-2.16,4.8-4.8,4.8-4.86-2.16-4.86-4.8,2.16-4.8,4.86-4.8ZM931.61,193.37v-30h8.22v30h-8.22Z" style="fill: #040000;"/>
      <path d="M975.53,178.37c0,8.58-6.96,15.6-15.6,15.6s-15.6-7.02-15.6-15.6,7.02-15.6,15.6-15.6,15.6,6.96,15.6,15.6ZM959.93,185.75c4.08,0,7.38-3.3,7.38-7.38s-3.3-7.38-7.38-7.38-7.38,3.3-7.38,7.38,3.3,7.38,7.38,7.38Z" style="fill: #040000;"/>
      <path d="M980.03,193.37v-30h8.22v2.82c2.22-2.22,5.34-3.42,8.64-3.42,6.9,0,11.7,4.98,11.7,12.36v18.24h-8.22v-16.02c0-4.38-2.4-6.6-5.76-6.6-3.6,0-6.36,2.7-6.36,6.78v15.84h-8.22Z" style="fill: #040000;"/>
    </g>
    <g>
      <path d="M565.32,2119.82c1.36-4.08,4.96-6.68,9.28-6.68,5.28,0,9.28,3.76,9.28,8.72,0,3.44-1.56,6.4-5.52,10.28l-6.32,6.24h12.28v3.96h-18.48v-3.4l9.68-9.56c2.16-2.12,4.4-4.44,4.4-7.44,0-2.8-2.28-4.84-5.36-4.84-2.64,0-4.76,1.6-5.52,4.2l-3.72-1.48Z" style="fill: #221714;"/>
      <path d="M604.96,2113.54v3.32l-10.8,25.48h-4.28l10.56-24.84h-14.04v-3.96h18.56Z" style="fill: #221714;"/>
    </g>
    <rect y="-174.66" width="1170" height="2532" style="fill: none;"/>
    <rect y="-174.66" width="1170" height="2532" style="fill: none;"/>
  </g>
</svg>