<?xml version="1.0" encoding="UTF-8"?>
<svg id="_圖層_1" data-name="圖層 1" xmlns="http://www.w3.org/2000/svg" xmlns:xlink="http://www.w3.org/1999/xlink" viewBox="0 0 1170 2182.68">
  <defs>
    <clipPath id="clippath">
      <rect y="-174.66" width="1170" height="2532" style="fill: none;"/>
    </clipPath>
    <clipPath id="clippath-1">
      <rect y="-174.66" width="1170" height="2532" style="fill: none;"/>
    </clipPath>
  </defs>
  <g style="clip-path: url(#clippath);">
    <g>
      <path d="M142.18,1113.47l2.41-2.35c3.47,3.58,8.06,5.43,13.44,5.43,6.83,0,11.65-3.3,11.65-7.9,0-3.98-2.97-6.22-11.54-8.74-7.73-2.3-14.28-4.65-14.28-11.26,0-6.22,5.26-10.19,13.89-10.19,5.6,0,10.92,2.35,14.34,6.44l-2.41,2.35c-2.86-3.42-7.22-5.43-11.93-5.43-6.72,0-10.53,2.69-10.53,6.83,0,3.3,2.74,5.26,10.92,7.73,8.01,2.41,14.9,4.98,14.9,12.26,0,6.55-6.22,11.26-15.01,11.26-6.33,0-11.87-2.3-15.85-6.44Z" style="fill: #040000;"/>
      <path d="M180.15,1119.35v-40.32h3.36v17.53c1.79-3.53,5.54-5.77,9.74-5.77,6.38,0,11.03,4.26,11.03,11.65v16.91h-3.36v-16.74c0-6.22-3.58-8.9-8.06-8.9-4.98,0-9.35,3.58-9.35,9.97v15.68h-3.36Z" style="fill: #040000;"/>
      <path d="M240.41,1105.35c0,8.01-6.55,14.56-14.56,14.56s-14.56-6.55-14.56-14.56,6.5-14.56,14.56-14.56,14.56,6.5,14.56,14.56ZM225.85,1116.5c6.16,0,11.14-4.98,11.14-11.14s-4.98-11.2-11.14-11.2-11.2,5.04-11.2,11.2,5.04,11.14,11.2,11.14Z" style="fill: #040000;"/>
      <path d="M247.35,1119.35v-28h3.36v5.43c1.74-4.03,5.66-5.99,9.91-5.99v2.91c-5.88,0-9.91,4.09-9.91,9.97v15.68h-3.36Z" style="fill: #040000;"/>
      <path d="M263.53,1091.35h4.82c.84,0,1.4-.56,1.4-1.34v-6.16h3.36v7.5h9.02v3.36h-9.02v15.29c0,5.1,1.12,6.55,4.98,6.55,1.51,0,2.63-.17,4.03-.45v3.25c-1.23.34-2.69.56-4.37.56-5.82,0-8.01-2.69-8.01-9.8v-15.4h-6.22v-3.36Z" style="fill: #040000;"/>
      <path d="M301.78,1094.71v-3.36h5.54v-1.51c0-8.06,4.37-11.37,11.26-11.37h1.85v3.36h-1.85c-5.04,0-7.9,2.02-7.9,8.01v1.51h9.74v3.36h-9.74v24.64h-3.36v-24.64h-5.54Z" style="fill: #040000;"/>
      <path d="M338.96,1090.79c4.93,0,9.35,3.08,11.2,6.78v-6.22h3.36v28h-3.36v-6.22c-1.85,3.7-6.27,6.78-11.2,6.78-8.06,0-14.56-6.55-14.56-14.56s6.5-14.56,14.56-14.56ZM327.76,1105.35c0,6.16,4.98,11.2,11.2,11.2s11.2-5.04,11.2-11.2-5.04-11.2-11.2-11.2-11.2,5.04-11.2,11.2Z" style="fill: #040000;"/>
      <path d="M362.31,1119.35v-28h3.36v5.21c1.79-3.53,5.54-5.77,9.74-5.77,6.38,0,11.03,4.26,11.03,11.65v16.91h-3.36v-16.74c0-6.22-3.58-8.9-8.06-8.9-4.98,0-9.35,3.58-9.35,9.97v15.68h-3.36Z" style="fill: #040000;"/>
      <path d="M410.92,1112.97c2.13,2.24,5.32,3.58,8.96,3.58,4.37,0,7.67-1.96,7.67-4.59,0-3.7-4.82-4.87-8.06-5.77-4.59-1.23-10.3-2.52-10.3-7.9,0-4.54,4.14-7.5,9.91-7.5,4.37,0,8.46,1.74,11.14,4.54l-2.35,2.41c-2.52-2.46-5.38-3.53-8.79-3.53-4.03,0-6.5,1.74-6.5,3.98,0,2.91,4.03,3.75,8.06,4.82,4.82,1.29,10.25,3.08,10.25,8.9,0,4.7-4.65,8.01-11.14,8.01-4.37,0-8.29-1.57-11.26-4.54l2.41-2.41Z" style="fill: #040000;"/>
      <path d="M435.51,1105.35c0-8.06,6.5-14.56,14.56-14.56,4.14,0,7.9,1.74,10.53,4.54l-2.41,2.41c-2.02-2.18-4.93-3.58-8.12-3.58-6.16,0-11.2,5.04-11.2,11.2s5.04,11.14,11.2,11.14c3.19,0,6.1-1.34,8.12-3.53l2.41,2.41c-2.63,2.8-6.38,4.54-10.53,4.54-8.06,0-14.56-6.55-14.56-14.56Z" style="fill: #040000;"/>
      <path d="M467.03,1119.35v-28h3.36v5.43c1.74-4.03,5.66-5.99,9.91-5.99v2.91c-5.88,0-9.91,4.09-9.91,9.97v15.68h-3.36Z" style="fill: #040000;"/>
      <path d="M498.62,1090.79c7.95,0,13.38,6.1,13.44,14.56,0,.62-.11,1.34-.11,1.96h-24.02c.84,5.38,5.32,9.18,11.2,9.18,3.42,0,6.66-1.29,8.85-3.7l2.41,2.41c-2.91,3.08-6.94,4.7-11.14,4.7-8.57,0-14.9-6.27-14.9-14.56s6.1-14.56,14.28-14.56ZM487.81,1103.95h20.78c-.5-5.82-4.54-9.8-10.02-9.8s-10.14,4.2-10.75,9.8Z" style="fill: #040000;"/>
      <path d="M518.83,1091.35l7,22.01,7.06-22.01h3.25l7.06,22.01,7-22.01h3.53l-8.85,28h-3.36l-7-21.84-7,21.84h-3.3l-8.9-28h3.53Z" style="fill: #040000;"/>
    </g>
    <g>
      <path d="M145.54,1199.04h3.36v17.08l19.21-17.08h4.87l-21.5,19.21,22.12,21.11h-4.76l-19.94-18.98v18.98h-3.36v-40.32Z" style="fill: #040000;"/>
      <path d="M178.58,1228.27v-16.91h3.36v16.74c0,6.22,3.53,8.9,8.06,8.9,4.98,0,9.35-3.58,9.35-9.97v-15.68h3.36v28h-3.36v-5.26c-1.79,3.58-5.54,5.82-9.8,5.82-6.33,0-10.98-4.26-10.98-11.65Z" style="fill: #040000;"/>
      <path d="M211.57,1239.36v-28h3.36v5.43c1.74-4.03,5.66-5.99,9.91-5.99v2.91c-5.88,0-9.91,4.09-9.91,9.97v15.68h-3.36Z" style="fill: #040000;"/>
      <path d="M250.6,1211.36v2.91l-16.97,21.73h17.81v3.36h-22.4v-2.91l16.91-21.73h-16.24v-3.36h20.89Z" style="fill: #040000;"/>
      <path d="M270.36,1210.8c7.95,0,13.38,6.1,13.44,14.56,0,.62-.11,1.34-.11,1.96h-24.02c.84,5.38,5.32,9.18,11.2,9.18,3.42,0,6.66-1.29,8.85-3.7l2.41,2.41c-2.91,3.08-6.94,4.7-11.14,4.7-8.57,0-14.9-6.27-14.9-14.56s6.1-14.56,14.28-14.56ZM259.56,1223.96h20.78c-.5-5.82-4.54-9.8-10.02-9.8s-10.14,4.2-10.75,9.8Z" style="fill: #040000;"/>
      <path d="M310.85,1199.04v36.96h22.06v3.36h-25.42v-40.32h3.36Z" style="fill: #040000;"/>
      <path d="M339.41,1211.36h3.36v16.74c0,6.22,3.53,8.9,8.06,8.9,4.98,0,9.35-3.58,9.35-9.97v-15.68h3.36v28h-3.36v-5.26c-1.79,3.58-5.54,5.82-9.8,5.82-6.33,0-10.98-4.26-10.98-11.65v-16.91ZM344.28,1200.72c0-1.23,1.01-2.24,2.24-2.24s2.18,1.01,2.18,2.24-.95,2.18-2.18,2.18-2.24-.95-2.24-2.18ZM354.7,1200.72c0-1.23,1.01-2.24,2.18-2.24s2.24,1.01,2.24,2.24-1.01,2.18-2.24,2.18-2.18-.95-2.18-2.18Z" style="fill: #040000;"/>
      <path d="M369.43,1214.72v-3.36h5.54v-1.51c0-8.06,4.37-11.37,11.26-11.37h1.85v3.36h-1.85c-5.04,0-7.9,2.02-7.9,8.01v1.51h15.4c.78,0,1.34-.56,1.34-1.34v-6.16h3.36v7.5h9.07v3.36h-9.07v15.29c0,5.1,1.12,6.55,4.98,6.55,1.57,0,2.69-.17,4.03-.45v3.25c-1.23.34-2.69.56-4.37.56-5.77,0-8.01-2.69-8.01-9.8v-15.4h-16.74v24.64h-3.36v-24.64h-5.54Z" style="fill: #040000;"/>
      <path d="M426.88,1210.8c7.95,0,13.38,6.1,13.44,14.56,0,.62-.11,1.34-.11,1.96h-24.02c.84,5.38,5.32,9.18,11.2,9.18,3.42,0,6.66-1.29,8.85-3.7l2.41,2.41c-2.91,3.08-6.94,4.7-11.14,4.7-8.57,0-14.9-6.27-14.9-14.56s6.1-14.56,14.28-14.56ZM416.08,1223.96h20.78c-.5-5.82-4.54-9.8-10.02-9.8s-10.14,4.2-10.75,9.8Z" style="fill: #040000;"/>
      <path d="M447.27,1239.36v-28h3.36v5.43c1.74-4.03,5.66-5.99,9.91-5.99v2.91c-5.88,0-9.91,4.09-9.91,9.97v15.68h-3.36Z" style="fill: #040000;"/>
      <path d="M466.42,1232.98c2.13,2.24,5.32,3.58,8.96,3.58,4.37,0,7.67-1.96,7.67-4.59,0-3.7-4.82-4.87-8.06-5.77-4.59-1.23-10.3-2.52-10.3-7.9,0-4.54,4.14-7.5,9.91-7.5,4.37,0,8.46,1.74,11.14,4.54l-2.35,2.41c-2.52-2.46-5.38-3.53-8.79-3.53-4.03,0-6.5,1.74-6.5,3.98,0,2.91,4.03,3.75,8.06,4.82,4.82,1.29,10.25,3.08,10.25,8.9,0,4.7-4.65,8.01-11.14,8.01-4.37,0-8.29-1.57-11.26-4.54l2.41-2.41Z" style="fill: #040000;"/>
      <path d="M491,1225.36c0-8.06,6.5-14.56,14.56-14.56,4.14,0,7.9,1.74,10.53,4.54l-2.41,2.41c-2.02-2.18-4.93-3.58-8.12-3.58-6.16,0-11.2,5.04-11.2,11.2s5.04,11.14,11.2,11.14c3.19,0,6.1-1.34,8.12-3.53l2.41,2.41c-2.63,2.8-6.38,4.54-10.53,4.54-8.06,0-14.56-6.55-14.56-14.56Z" style="fill: #040000;"/>
      <path d="M522.53,1239.36v-40.32h3.36v17.53c1.79-3.53,5.54-5.77,9.74-5.77,6.38,0,11.03,4.26,11.03,11.65v16.91h-3.36v-16.74c0-6.22-3.58-8.9-8.06-8.9-4.98,0-9.35,3.58-9.35,9.97v15.68h-3.36Z" style="fill: #040000;"/>
      <path d="M555.51,1239.36v-28h3.36v5.43c1.74-4.03,5.66-5.99,9.91-5.99v2.91c-5.88,0-9.91,4.09-9.91,9.97v15.68h-3.36Z" style="fill: #040000;"/>
      <path d="M587.38,1210.8c4.93,0,9.35,3.08,11.2,6.78v-6.22h3.36v28h-3.36v-6.22c-1.85,3.7-6.27,6.78-11.2,6.78-8.06,0-14.56-6.55-14.56-14.56s6.5-14.56,14.56-14.56ZM576.18,1225.36c0,6.16,4.98,11.2,11.2,11.2s11.2-5.04,11.2-11.2-5.04-11.2-11.2-11.2-11.2,5.04-11.2,11.2Z" style="fill: #040000;"/>
      <path d="M610.73,1228.27v-16.91h3.36v16.74c0,6.22,3.53,8.9,8.06,8.9,4.98,0,9.35-3.58,9.35-9.97v-15.68h3.36v28h-3.36v-5.26c-1.79,3.58-5.54,5.82-9.8,5.82-6.33,0-10.98-4.26-10.98-11.65Z" style="fill: #040000;"/>
      <path d="M643.71,1199.04h3.36v18.54c1.85-3.7,6.27-6.78,11.2-6.78,8.01,0,14.56,6.55,14.56,14.56s-6.55,14.56-14.56,14.56c-4.93,0-9.35-3.08-11.2-6.78v6.22h-3.36v-40.32ZM647.07,1225.36c0,6.16,4.98,11.2,11.2,11.2s11.2-5.04,11.2-11.2-5.04-11.2-11.2-11.2-11.2,5.04-11.2,11.2Z" style="fill: #040000;"/>
      <path d="M692.21,1210.8c7.95,0,13.38,6.1,13.44,14.56,0,.62-.11,1.34-.11,1.96h-24.02c.84,5.38,5.32,9.18,11.2,9.18,3.42,0,6.66-1.29,8.85-3.7l2.41,2.41c-2.91,3.08-6.94,4.7-11.14,4.7-8.57,0-14.9-6.27-14.9-14.56s6.1-14.56,14.28-14.56ZM681.4,1223.96h20.78c-.5-5.82-4.54-9.8-10.02-9.8s-10.14,4.2-10.75,9.8Z" style="fill: #040000;"/>
    </g>
    <g>
      <path d="M140.67,1319.05h3.64l13.61,35.17,13.66-35.17h3.58l-15.62,40.32h-3.25l-15.62-40.32Z" style="fill: #040000;"/>
      <path d="M181.94,1318.49c1.18,0,2.18,1.01,2.18,2.24s-1.01,2.18-2.18,2.18-2.24-.95-2.24-2.18,1.01-2.24,2.24-2.24ZM180.26,1359.37v-28h3.36v28h-3.36Z" style="fill: #040000;"/>
      <path d="M192.41,1352.99c2.13,2.24,5.32,3.58,8.96,3.58,4.37,0,7.67-1.96,7.67-4.59,0-3.7-4.82-4.87-8.06-5.77-4.59-1.23-10.3-2.52-10.3-7.9,0-4.54,4.14-7.5,9.91-7.5,4.37,0,8.46,1.74,11.14,4.54l-2.35,2.41c-2.52-2.46-5.38-3.53-8.79-3.53-4.03,0-6.5,1.74-6.5,3.98,0,2.91,4.03,3.75,8.06,4.82,4.82,1.29,10.25,3.08,10.25,8.9,0,4.7-4.65,8.01-11.14,8.01-4.37,0-8.29-1.57-11.26-4.54l2.41-2.41Z" style="fill: #040000;"/>
      <path d="M232.62,1345.37c0-8.06,6.5-14.56,14.56-14.56,4.14,0,7.9,1.74,10.53,4.54l-2.41,2.41c-2.02-2.18-4.93-3.58-8.12-3.58-6.16,0-11.2,5.04-11.2,11.2s5.04,11.14,11.2,11.14c3.19,0,6.1-1.34,8.12-3.53l2.41,2.41c-2.63,2.8-6.38,4.54-10.53,4.54-8.06,0-14.56-6.55-14.56-14.56Z" style="fill: #040000;"/>
      <path d="M291.42,1345.37c0,8.01-6.55,14.56-14.56,14.56s-14.56-6.55-14.56-14.56,6.5-14.56,14.56-14.56,14.56,6.5,14.56,14.56ZM276.86,1356.51c6.16,0,11.14-4.98,11.14-11.14s-4.98-11.2-11.14-11.2-11.2,5.04-11.2,11.2,5.04,11.14,11.2,11.14Z" style="fill: #040000;"/>
      <path d="M298.37,1348.28v-16.91h3.36v16.74c0,6.22,3.53,8.9,8.06,8.9,4.98,0,9.35-3.58,9.35-9.97v-15.68h3.36v28h-3.36v-5.26c-1.79,3.58-5.54,5.82-9.8,5.82-6.33,0-10.98-4.26-10.98-11.65Z" style="fill: #040000;"/>
      <path d="M331.35,1359.37v-28h3.36v5.43c1.74-4.03,5.66-5.99,9.91-5.99v2.91c-5.88,0-9.91,4.09-9.91,9.97v15.68h-3.36Z" style="fill: #040000;"/>
      <path d="M347.53,1331.37h4.82c.84,0,1.4-.56,1.4-1.34v-6.16h3.36v7.5h9.02v3.36h-9.02v15.29c0,5.1,1.12,6.55,4.98,6.55,1.51,0,2.63-.17,4.03-.45v3.25c-1.23.34-2.69.56-4.37.56-5.82,0-8.01-2.69-8.01-9.8v-15.4h-6.22v-3.36Z" style="fill: #040000;"/>
      <path d="M385.55,1330.81c7.95,0,13.38,6.1,13.44,14.56,0,.62-.11,1.34-.11,1.96h-24.02c.84,5.38,5.32,9.18,11.2,9.18,3.42,0,6.66-1.29,8.85-3.7l2.41,2.41c-2.91,3.08-6.94,4.7-11.14,4.7-8.57,0-14.9-6.27-14.9-14.56s6.1-14.56,14.28-14.56ZM374.75,1343.97h20.78c-.5-5.82-4.54-9.8-10.02-9.8s-10.14,4.2-10.75,9.8Z" style="fill: #040000;"/>
      <path d="M421.56,1331.37h3.36v6.22c1.85-3.7,6.27-6.78,11.2-6.78,8.01,0,14.56,6.55,14.56,14.56s-6.55,14.56-14.56,14.56c-4.93,0-9.35-3.08-11.2-6.78v19.71h-3.36v-41.5ZM424.92,1345.37c0,6.16,4.98,11.2,11.2,11.2s11.2-5.04,11.2-11.2-5.04-11.2-11.2-11.2-11.2,5.04-11.2,11.2Z" style="fill: #040000;"/>
      <path d="M484.9,1345.37c0,8.01-6.55,14.56-14.56,14.56s-14.56-6.55-14.56-14.56,6.5-14.56,14.56-14.56,14.56,6.5,14.56,14.56ZM470.34,1356.51c6.16,0,11.14-4.98,11.14-11.14s-4.98-11.2-11.14-11.2-11.2,5.04-11.2,11.2,5.04,11.14,11.2,11.14Z" style="fill: #040000;"/>
      <path d="M491.84,1348.28v-16.91h3.36v16.74c0,6.22,3.53,8.9,8.06,8.9,4.98,0,9.35-3.58,9.35-9.97v-15.68h3.36v28h-3.36v-5.26c-1.79,3.58-5.54,5.82-9.8,5.82-6.33,0-10.98-4.26-10.98-11.65Z" style="fill: #040000;"/>
      <path d="M524.83,1359.37v-28h3.36v5.43c1.74-4.03,5.66-5.99,9.91-5.99v2.91c-5.88,0-9.91,4.09-9.91,9.97v15.68h-3.36Z" style="fill: #040000;"/>
      <path d="M559.54,1331.37l10.64,23.86,10.64-23.86h3.7l-12.43,28h-3.75l-12.43-28h3.64Z" style="fill: #040000;"/>
      <path d="M602.1,1330.81c7.95,0,13.38,6.1,13.44,14.56,0,.62-.11,1.34-.11,1.96h-24.02c.84,5.38,5.32,9.18,11.2,9.18,3.42,0,6.66-1.29,8.85-3.7l2.41,2.41c-2.91,3.08-6.94,4.7-11.14,4.7-8.57,0-14.9-6.27-14.9-14.56s6.1-14.56,14.28-14.56ZM591.3,1343.97h20.78c-.5-5.82-4.54-9.8-10.02-9.8s-10.14,4.2-10.75,9.8Z" style="fill: #040000;"/>
      <path d="M622.49,1359.37v-28h3.36v5.21c1.79-3.53,5.54-5.77,9.74-5.77,6.38,0,11.03,4.26,11.03,11.65v16.91h-3.36v-16.74c0-6.22-3.58-8.9-8.06-8.9-4.98,0-9.35,3.58-9.35,9.97v15.68h-3.36Z" style="fill: #040000;"/>
      <path d="M652.5,1331.37h4.82c.84,0,1.4-.56,1.4-1.34v-6.16h3.36v7.5h9.02v3.36h-9.02v15.29c0,5.1,1.12,6.55,4.98,6.55,1.51,0,2.63-.17,4.03-.45v3.25c-1.23.34-2.69.56-4.37.56-5.82,0-8.01-2.69-8.01-9.8v-15.4h-6.22v-3.36Z" style="fill: #040000;"/>
      <path d="M679.77,1318.49c1.18,0,2.18,1.01,2.18,2.24s-1.01,2.18-2.18,2.18-2.24-.95-2.24-2.18,1.01-2.24,2.24-2.24ZM678.09,1359.37v-28h3.36v28h-3.36Z" style="fill: #040000;"/>
      <path d="M693.61,1359.37h-3.36v-42h3.36v42Z" style="fill: #040000;"/>
      <path d="M715.11,1330.81c4.93,0,9.35,3.08,11.2,6.78v-6.22h3.36v28h-3.36v-6.22c-1.85,3.7-6.27,6.78-11.2,6.78-8.06,0-14.56-6.55-14.56-14.56s6.5-14.56,14.56-14.56ZM703.91,1345.37c0,6.16,4.98,11.2,11.2,11.2s11.2-5.04,11.2-11.2-5.04-11.2-11.2-11.2-11.2,5.04-11.2,11.2Z" style="fill: #040000;"/>
      <path d="M735.5,1331.37h4.82c.84,0,1.4-.56,1.4-1.34v-6.16h3.36v7.5h9.02v3.36h-9.02v15.29c0,5.1,1.12,6.55,4.98,6.55,1.51,0,2.63-.17,4.03-.45v3.25c-1.23.34-2.69.56-4.37.56-5.82,0-8.01-2.69-8.01-9.8v-15.4h-6.22v-3.36Z" style="fill: #040000;"/>
      <path d="M773.52,1330.81c7.95,0,13.38,6.1,13.44,14.56,0,.62-.11,1.34-.11,1.96h-24.02c.84,5.38,5.32,9.18,11.2,9.18,3.42,0,6.66-1.29,8.85-3.7l2.41,2.41c-2.91,3.08-6.94,4.7-11.14,4.7-8.57,0-14.9-6.27-14.9-14.56s6.1-14.56,14.28-14.56ZM762.71,1343.97h20.78c-.5-5.82-4.54-9.8-10.02-9.8s-10.14,4.2-10.75,9.8Z" style="fill: #040000;"/>
      <path d="M793.9,1348.28v-16.91h3.36v16.74c0,6.22,3.53,8.9,8.06,8.9,4.98,0,9.35-3.58,9.35-9.97v-15.68h3.36v28h-3.36v-5.26c-1.79,3.58-5.54,5.82-9.8,5.82-6.33,0-10.98-4.26-10.98-11.65Z" style="fill: #040000;"/>
      <path d="M826.88,1359.37v-28h3.36v5.43c1.74-4.03,5.66-5.99,9.91-5.99v2.91c-5.88,0-9.91,4.09-9.91,9.97v15.68h-3.36Z" style="fill: #040000;"/>
    </g>
    <g>
      <path d="M140.67,1439.06h3.64l13.61,35.17,13.66-35.17h3.58l-15.62,40.32h-3.25l-15.62-40.32Z" style="fill: #040000;"/>
      <path d="M181.94,1438.5c1.18,0,2.18,1.01,2.18,2.24s-1.01,2.18-2.18,2.18-2.24-.95-2.24-2.18,1.01-2.24,2.24-2.24ZM180.26,1479.38v-28h3.36v28h-3.36Z" style="fill: #040000;"/>
      <path d="M189.45,1451.38h4.82c.84,0,1.4-.56,1.4-1.34v-6.16h3.36v7.5h9.02v3.36h-9.02v15.29c0,5.1,1.12,6.55,4.98,6.55,1.51,0,2.63-.17,4.03-.45v3.25c-1.23.34-2.69.56-4.37.56-5.82,0-8.01-2.69-8.01-9.8v-15.4h-6.22v-3.36Z" style="fill: #040000;"/>
      <path d="M227.47,1450.82c7.95,0,13.38,6.1,13.44,14.56,0,.62-.11,1.34-.11,1.96h-24.02c.84,5.38,5.32,9.18,11.2,9.18,3.42,0,6.66-1.29,8.85-3.7l2.41,2.41c-2.91,3.08-6.94,4.7-11.14,4.7-8.57,0-14.9-6.27-14.9-14.56s6.1-14.56,14.28-14.56ZM216.66,1463.98h20.78c-.5-5.82-4.54-9.8-10.02-9.8s-10.14,4.2-10.75,9.8Z" style="fill: #040000;"/>
      <path d="M261.63,1465.38c0-8.06,6.5-14.56,14.56-14.56,4.14,0,7.9,1.74,10.53,4.54l-2.41,2.41c-2.02-2.18-4.93-3.58-8.12-3.58-6.16,0-11.2,5.04-11.2,11.2s5.04,11.14,11.2,11.14c3.19,0,6.1-1.34,8.12-3.53l2.41,2.41c-2.63,2.8-6.38,4.54-10.53,4.54-8.06,0-14.56-6.55-14.56-14.56Z" style="fill: #040000;"/>
      <path d="M320.43,1465.38c0,8.01-6.55,14.56-14.56,14.56s-14.56-6.55-14.56-14.56,6.5-14.56,14.56-14.56,14.56,6.5,14.56,14.56ZM305.87,1476.52c6.16,0,11.14-4.98,11.14-11.14s-4.98-11.2-11.14-11.2-11.2,5.04-11.2,11.2,5.04,11.14,11.2,11.14Z" style="fill: #040000;"/>
      <path d="M327.37,1479.38v-28h3.36v5.43c1.74-4.03,5.66-5.99,9.91-5.99v2.91c-5.88,0-9.91,4.09-9.91,9.97v15.68h-3.36Z" style="fill: #040000;"/>
      <path d="M343.56,1451.38h4.82c.84,0,1.4-.56,1.4-1.34v-6.16h3.36v7.5h9.02v3.36h-9.02v15.29c0,5.1,1.12,6.55,4.98,6.55,1.51,0,2.63-.17,4.03-.45v3.25c-1.23.34-2.69.56-4.37.56-5.82,0-8.01-2.69-8.01-9.8v-15.4h-6.22v-3.36Z" style="fill: #040000;"/>
      <path d="M381.86,1450.82c4.93,0,9.35,3.08,11.2,6.78v-6.22h3.36v28h-3.36v-6.22c-1.85,3.7-6.27,6.78-11.2,6.78-8.06,0-14.56-6.55-14.56-14.56s6.5-14.56,14.56-14.56ZM370.66,1465.38c0,6.16,4.98,11.2,11.2,11.2s11.2-5.04,11.2-11.2-5.04-11.2-11.2-11.2-11.2,5.04-11.2,11.2Z" style="fill: #040000;"/>
      <path d="M420.84,1451.38h3.36v6.22c1.85-3.7,6.27-6.78,11.2-6.78,8.01,0,14.56,6.55,14.56,14.56s-6.55,14.56-14.56,14.56c-4.93,0-9.35-3.08-11.2-6.78v19.71h-3.36v-41.5ZM424.2,1465.38c0,6.16,4.98,11.2,11.2,11.2s11.2-5.04,11.2-11.2-5.04-11.2-11.2-11.2-11.2,5.04-11.2,11.2Z" style="fill: #040000;"/>
      <path d="M469.33,1450.82c7.95,0,13.38,6.1,13.44,14.56,0,.62-.11,1.34-.11,1.96h-24.02c.84,5.38,5.32,9.18,11.2,9.18,3.42,0,6.66-1.29,8.85-3.7l2.41,2.41c-2.91,3.08-6.94,4.7-11.14,4.7-8.57,0-14.9-6.27-14.9-14.56s6.1-14.56,14.28-14.56ZM458.52,1463.98h20.78c-.5-5.82-4.54-9.8-10.02-9.8s-10.14,4.2-10.75,9.8Z" style="fill: #040000;"/>
      <path d="M489.72,1479.38v-28h3.36v5.43c1.74-4.03,5.66-5.99,9.91-5.99v2.91c-5.88,0-9.91,4.09-9.91,9.97v15.68h-3.36Z" style="fill: #040000;"/>
      <path d="M524.43,1451.38l10.64,23.86,10.64-23.86h3.7l-12.43,28h-3.75l-12.43-28h3.64Z" style="fill: #040000;"/>
      <path d="M566.99,1450.82c7.95,0,13.38,6.1,13.44,14.56,0,.62-.11,1.34-.11,1.96h-24.02c.84,5.38,5.32,9.18,11.2,9.18,3.42,0,6.66-1.29,8.85-3.7l2.41,2.41c-2.91,3.08-6.94,4.7-11.14,4.7-8.57,0-14.9-6.27-14.9-14.56s6.1-14.56,14.28-14.56ZM556.19,1463.98h20.78c-.5-5.82-4.54-9.8-10.02-9.8s-10.14,4.2-10.75,9.8Z" style="fill: #040000;"/>
      <path d="M587.38,1479.38v-28h3.36v5.21c1.79-3.53,5.54-5.77,9.74-5.77,6.38,0,11.03,4.26,11.03,11.65v16.91h-3.36v-16.74c0-6.22-3.58-8.9-8.06-8.9-4.98,0-9.35,3.58-9.35,9.97v15.68h-3.36Z" style="fill: #040000;"/>
      <path d="M617.39,1451.38h4.82c.84,0,1.4-.56,1.4-1.34v-6.16h3.36v7.5h9.02v3.36h-9.02v15.29c0,5.1,1.12,6.55,4.98,6.55,1.51,0,2.63-.17,4.03-.45v3.25c-1.23.34-2.69.56-4.37.56-5.82,0-8.01-2.69-8.01-9.8v-15.4h-6.22v-3.36Z" style="fill: #040000;"/>
      <path d="M670.26,1465.38c0,8.01-6.55,14.56-14.56,14.56s-14.56-6.55-14.56-14.56,6.5-14.56,14.56-14.56,14.56,6.5,14.56,14.56ZM655.7,1476.52c6.16,0,11.14-4.98,11.14-11.14s-4.98-11.2-11.14-11.2-11.2,5.04-11.2,11.2,5.04,11.14,11.2,11.14Z" style="fill: #040000;"/>
      <path d="M680.56,1479.38h-3.36v-42h3.36v42Z" style="fill: #040000;"/>
      <path d="M702.06,1450.82c4.93,0,9.35,3.08,11.2,6.78v-6.22h3.36v28h-3.36v-6.22c-1.85,3.7-6.27,6.78-11.2,6.78-8.06,0-14.56-6.55-14.56-14.56s6.5-14.56,14.56-14.56ZM690.86,1465.38c0,6.16,4.98,11.2,11.2,11.2s11.2-5.04,11.2-11.2-5.04-11.2-11.2-11.2-11.2,5.04-11.2,11.2Z" style="fill: #040000;"/>
    </g>
    <g>
      <path d="M145.54,1559.07h3.36v17.08l19.21-17.08h4.87l-21.5,19.21,22.12,21.11h-4.76l-19.94-18.98v18.98h-3.36v-40.32Z" style="fill: #040000;"/>
      <path d="M205.85,1585.39c0,8.01-6.55,14.56-14.56,14.56s-14.56-6.55-14.56-14.56,6.5-14.56,14.56-14.56,14.56,6.5,14.56,14.56ZM191.29,1596.53c6.16,0,11.14-4.98,11.14-11.14s-4.98-11.2-11.14-11.2-11.2,5.04-11.2,11.2,5.04,11.14,11.2,11.14Z" style="fill: #040000;"/>
      <path d="M212.8,1599.39v-28h3.36v5.43c1.74-4.03,5.66-5.99,9.91-5.99v2.91c-5.88,0-9.91,4.09-9.91,9.97v15.68h-3.36Z" style="fill: #040000;"/>
      <path d="M228.98,1571.39h4.82c.84,0,1.4-.56,1.4-1.34v-6.16h3.36v7.5h9.02v3.36h-9.02v15.29c0,5.1,1.12,6.55,4.98,6.55,1.51,0,2.63-.17,4.03-.45v3.25c-1.23.34-2.69.56-4.37.56-5.82,0-8.01-2.69-8.01-9.8v-15.4h-6.22v-3.36Z" style="fill: #040000;"/>
      <path d="M267,1570.83c7.95,0,13.38,6.1,13.44,14.56,0,.62-.11,1.34-.11,1.96h-24.02c.84,5.38,5.32,9.18,11.2,9.18,3.42,0,6.66-1.29,8.85-3.7l2.41,2.41c-2.91,3.08-6.94,4.7-11.14,4.7-8.57,0-14.9-6.27-14.9-14.56s6.1-14.56,14.28-14.56ZM256.2,1583.99h20.78c-.5-5.82-4.54-9.8-10.02-9.8s-10.14,4.2-10.75,9.8Z" style="fill: #040000;"/>
      <path d="M302.96,1571.39l10.64,23.86,10.64-23.86h3.7l-12.43,28h-3.75l-12.43-28h3.64Z" style="fill: #040000;"/>
      <path d="M345.52,1570.83c7.95,0,13.38,6.1,13.44,14.56,0,.62-.11,1.34-.11,1.96h-24.02c.84,5.38,5.32,9.18,11.2,9.18,3.42,0,6.66-1.29,8.85-3.7l2.41,2.41c-2.91,3.08-6.94,4.7-11.14,4.7-8.57,0-14.9-6.27-14.9-14.56s6.1-14.56,14.28-14.56ZM334.71,1583.99h20.78c-.5-5.82-4.54-9.8-10.02-9.8s-10.14,4.2-10.75,9.8Z" style="fill: #040000;"/>
      <path d="M365.9,1599.39v-28h3.36v5.21c1.79-3.53,5.54-5.77,9.74-5.77,6.38,0,11.03,4.26,11.03,11.65v16.91h-3.36v-16.74c0-6.22-3.58-8.9-8.06-8.9-4.98,0-9.35,3.58-9.35,9.97v15.68h-3.36Z" style="fill: #040000;"/>
      <path d="M395.92,1571.39h4.82c.84,0,1.4-.56,1.4-1.34v-6.16h3.36v7.5h9.02v3.36h-9.02v15.29c0,5.1,1.12,6.55,4.98,6.55,1.51,0,2.63-.17,4.03-.45v3.25c-1.23.34-2.69.56-4.37.56-5.82,0-8.01-2.69-8.01-9.8v-15.4h-6.22v-3.36Z" style="fill: #040000;"/>
      <path d="M423.19,1558.51c1.18,0,2.18,1.01,2.18,2.24s-1.01,2.18-2.18,2.18-2.24-.95-2.24-2.18,1.01-2.24,2.24-2.24ZM421.51,1599.39v-28h3.36v28h-3.36Z" style="fill: #040000;"/>
      <path d="M437.02,1599.39h-3.36v-42h3.36v42Z" style="fill: #040000;"/>
      <path d="M458.52,1570.83c4.93,0,9.35,3.08,11.2,6.78v-6.22h3.36v28h-3.36v-6.22c-1.85,3.7-6.27,6.78-11.2,6.78-8.06,0-14.56-6.55-14.56-14.56s6.5-14.56,14.56-14.56ZM447.32,1585.39c0,6.16,4.98,11.2,11.2,11.2s11.2-5.04,11.2-11.2-5.04-11.2-11.2-11.2-11.2,5.04-11.2,11.2Z" style="fill: #040000;"/>
      <path d="M478.91,1571.39h4.82c.84,0,1.4-.56,1.4-1.34v-6.16h3.36v7.5h9.02v3.36h-9.02v15.29c0,5.1,1.12,6.55,4.98,6.55,1.51,0,2.63-.17,4.03-.45v3.25c-1.23.34-2.69.56-4.37.56-5.82,0-8.01-2.69-8.01-9.8v-15.4h-6.22v-3.36Z" style="fill: #040000;"/>
      <path d="M531.77,1585.39c0,8.01-6.55,14.56-14.56,14.56s-14.56-6.55-14.56-14.56,6.5-14.56,14.56-14.56,14.56,6.5,14.56,14.56ZM517.21,1596.53c6.16,0,11.14-4.98,11.14-11.14s-4.98-11.2-11.14-11.2-11.2,5.04-11.2,11.2,5.04,11.14,11.2,11.14Z" style="fill: #040000;"/>
      <path d="M538.71,1599.39v-28h3.36v5.43c1.74-4.03,5.66-5.99,9.91-5.99v2.91c-5.88,0-9.91,4.09-9.91,9.97v15.68h-3.36Z" style="fill: #040000;"/>
      <path d="M557.86,1593c2.13,2.24,5.32,3.58,8.96,3.58,4.37,0,7.67-1.96,7.67-4.59,0-3.7-4.82-4.87-8.06-5.77-4.59-1.23-10.3-2.52-10.3-7.9,0-4.54,4.14-7.5,9.91-7.5,4.37,0,8.46,1.74,11.14,4.54l-2.35,2.41c-2.52-2.46-5.38-3.53-8.79-3.53-4.03,0-6.5,1.74-6.5,3.98,0,2.91,4.03,3.75,8.06,4.82,4.82,1.29,10.25,3.08,10.25,8.9,0,4.7-4.65,8.01-11.14,8.01-4.37,0-8.29-1.57-11.26-4.54l2.41-2.41Z" style="fill: #040000;"/>
      <path d="M582.45,1585.39c0-8.06,6.5-14.56,14.56-14.56,4.14,0,7.9,1.74,10.53,4.54l-2.41,2.41c-2.02-2.18-4.93-3.58-8.12-3.58-6.16,0-11.2,5.04-11.2,11.2s5.04,11.14,11.2,11.14c3.19,0,6.1-1.34,8.12-3.53l2.41,2.41c-2.63,2.8-6.38,4.54-10.53,4.54-8.06,0-14.56-6.55-14.56-14.56Z" style="fill: #040000;"/>
      <path d="M613.98,1599.39v-40.32h3.36v17.53c1.79-3.53,5.54-5.77,9.74-5.77,6.38,0,11.03,4.26,11.03,11.65v16.91h-3.36v-16.74c0-6.22-3.58-8.9-8.06-8.9-4.98,0-9.35,3.58-9.35,9.97v15.68h-3.36Z" style="fill: #040000;"/>
      <path d="M646.96,1599.39v-28h3.36v5.43c1.74-4.03,5.66-5.99,9.91-5.99v2.91c-5.88,0-9.91,4.09-9.91,9.97v15.68h-3.36Z" style="fill: #040000;"/>
      <path d="M693.38,1585.39c0,8.01-6.55,14.56-14.56,14.56s-14.56-6.55-14.56-14.56,6.5-14.56,14.56-14.56,14.56,6.5,14.56,14.56ZM678.82,1596.53c6.16,0,11.14-4.98,11.14-11.14s-4.98-11.2-11.14-11.2-11.2,5.04-11.2,11.2,5.04,11.14,11.2,11.14Z" style="fill: #040000;"/>
      <path d="M712.76,1570.83c7.95,0,13.38,6.1,13.44,14.56,0,.62-.11,1.34-.11,1.96h-24.02c.84,5.38,5.32,9.18,11.2,9.18,3.42,0,6.66-1.29,8.85-3.7l2.41,2.41c-2.91,3.08-6.94,4.7-11.14,4.7-8.57,0-14.9-6.27-14.9-14.56s6.1-14.56,14.28-14.56ZM701.95,1583.99h20.78c-.5-5.82-4.54-9.8-10.02-9.8s-10.14,4.2-10.75,9.8Z" style="fill: #040000;"/>
      <path d="M730.17,1574.75v-3.36h5.54v-1.51c0-8.06,4.37-11.37,11.26-11.37h1.85v3.36h-1.85c-5.04,0-7.9,2.02-7.9,8.01v1.51h9.74v3.36h-9.74v24.64h-3.36v-24.64h-5.54Z" style="fill: #040000;"/>
    </g>
    <g>
      <path d="M173.77,1679.07v3.36h-14.45v36.96h-3.36v-36.96h-14.5v-3.36h32.31Z" style="fill: #040000;"/>
      <path d="M206.97,1705.39c0,8.01-6.55,14.56-14.56,14.56s-14.56-6.55-14.56-14.56,6.5-14.56,14.56-14.56,14.56,6.5,14.56,14.56ZM192.41,1716.54c6.16,0,11.14-4.98,11.14-11.14s-4.98-11.2-11.14-11.2-11.2,5.04-11.2,11.2,5.04,11.14,11.2,11.14Z" style="fill: #040000;"/>
      <path d="M213.92,1719.39v-28h3.36v5.43c1.74-4.03,5.66-5.99,9.91-5.99v2.91c-5.88,0-9.91,4.09-9.91,9.97v15.68h-3.36Z" style="fill: #040000;"/>
      <path d="M233.07,1719.39v-28h3.36v5.21c1.79-3.53,5.54-5.77,9.74-5.77,6.38,0,11.03,4.26,11.03,11.65v16.91h-3.36v-16.74c0-6.22-3.58-8.9-8.06-8.9-4.98,0-9.35,3.58-9.35,9.97v15.68h-3.36Z" style="fill: #040000;"/>
      <path d="M267.73,1678.51c1.18,0,2.18,1.01,2.18,2.24s-1.01,2.18-2.18,2.18-2.24-.95-2.24-2.18,1.01-2.24,2.24-2.24ZM266.05,1719.39v-28h3.36v28h-3.36Z" style="fill: #040000;"/>
      <path d="M281.57,1719.39h-3.36v-42h3.36v42Z" style="fill: #040000;"/>
      <path d="M293.72,1719.39h-3.36v-42h3.36v42Z" style="fill: #040000;"/>
      <path d="M329.78,1705.39c0,8.01-6.55,14.56-14.56,14.56s-14.56-6.55-14.56-14.56,6.5-14.56,14.56-14.56,14.56,6.5,14.56,14.56ZM315.22,1716.54c6.16,0,11.14-4.98,11.14-11.14s-4.98-11.2-11.14-11.2-11.2,5.04-11.2,11.2,5.04,11.14,11.2,11.14Z" style="fill: #040000;"/>
      <path d="M350.5,1705.39c0-8.06,6.5-14.56,14.56-14.56,4.14,0,7.9,1.74,10.53,4.54l-2.41,2.41c-2.02-2.18-4.93-3.58-8.12-3.58-6.16,0-11.2,5.04-11.2,11.2s5.04,11.14,11.2,11.14c3.19,0,6.1-1.34,8.12-3.53l2.41,2.41c-2.63,2.8-6.38,4.54-10.53,4.54-8.06,0-14.56-6.55-14.56-14.56Z" style="fill: #040000;"/>
      <path d="M409.3,1705.39c0,8.01-6.55,14.56-14.56,14.56s-14.56-6.55-14.56-14.56,6.5-14.56,14.56-14.56,14.56,6.5,14.56,14.56ZM394.74,1716.54c6.16,0,11.14-4.98,11.14-11.14s-4.98-11.2-11.14-11.2-11.2,5.04-11.2,11.2,5.04,11.14,11.2,11.14Z" style="fill: #040000;"/>
      <path d="M416.24,1719.39v-28h3.36v5.43c1.74-4.03,5.66-5.99,9.91-5.99v2.91c-5.88,0-9.91,4.09-9.91,9.97v15.68h-3.36Z" style="fill: #040000;"/>
      <path d="M432.43,1691.39h4.82c.84,0,1.4-.56,1.4-1.34v-6.16h3.36v7.5h9.02v3.36h-9.02v15.29c0,5.1,1.12,6.55,4.98,6.55,1.51,0,2.63-.17,4.03-.45v3.25c-1.23.34-2.69.56-4.37.56-5.82,0-8.01-2.69-8.01-9.8v-15.4h-6.22v-3.36Z" style="fill: #040000;"/>
      <path d="M485.29,1705.39c0,8.01-6.55,14.56-14.56,14.56s-14.56-6.55-14.56-14.56,6.5-14.56,14.56-14.56,14.56,6.5,14.56,14.56ZM470.73,1716.54c6.16,0,11.14-4.98,11.14-11.14s-4.98-11.2-11.14-11.2-11.2,5.04-11.2,11.2,5.04,11.14,11.2,11.14Z" style="fill: #040000;"/>
      <path d="M507.86,1691.39h3.36v6.22c1.85-3.7,6.27-6.78,11.2-6.78,8.01,0,14.56,6.55,14.56,14.56s-6.55,14.56-14.56,14.56c-4.93,0-9.35-3.08-11.2-6.78v19.71h-3.36v-41.5ZM511.22,1705.39c0,6.16,4.98,11.2,11.2,11.2s11.2-5.04,11.2-11.2-5.04-11.2-11.2-11.2-11.2,5.04-11.2,11.2Z" style="fill: #040000;"/>
      <path d="M556.63,1690.83c4.93,0,9.35,3.08,11.2,6.78v-6.22h3.36v28h-3.36v-6.22c-1.85,3.7-6.27,6.78-11.2,6.78-8.06,0-14.56-6.55-14.56-14.56s6.5-14.56,14.56-14.56ZM545.43,1705.39c0,6.16,4.98,11.2,11.2,11.2s11.2-5.04,11.2-11.2-5.04-11.2-11.2-11.2-11.2,5.04-11.2,11.2Z" style="fill: #040000;"/>
      <path d="M579.98,1719.39v-28h3.36v5.43c1.74-4.03,5.66-5.99,9.91-5.99v2.91c-5.88,0-9.91,4.09-9.91,9.97v15.68h-3.36Z" style="fill: #040000;"/>
      <path d="M611.85,1690.83c4.93,0,9.35,3.08,11.2,6.78v-6.22h3.36v28h-3.36v-6.22c-1.85,3.7-6.27,6.78-11.2,6.78-8.06,0-14.56-6.55-14.56-14.56s6.5-14.56,14.56-14.56ZM600.65,1705.39c0,6.16,4.98,11.2,11.2,11.2s11.2-5.04,11.2-11.2-5.04-11.2-11.2-11.2-11.2,5.04-11.2,11.2Z" style="fill: #040000;"/>
      <path d="M650.77,1691.39l10.64,23.86,10.64-23.86h3.7l-12.43,28h-3.75l-12.43-28h3.64Z" style="fill: #040000;"/>
      <path d="M693.33,1690.83c7.95,0,13.38,6.1,13.44,14.56,0,.62-.11,1.34-.11,1.96h-24.02c.84,5.38,5.32,9.18,11.2,9.18,3.42,0,6.66-1.29,8.85-3.7l2.41,2.41c-2.91,3.08-6.94,4.7-11.14,4.7-8.57,0-14.9-6.27-14.9-14.56s6.1-14.56,14.28-14.56ZM682.52,1703.99h20.78c-.5-5.82-4.54-9.8-10.02-9.8s-10.14,4.2-10.75,9.8Z" style="fill: #040000;"/>
      <path d="M713.71,1719.39v-28h3.36v5.21c1.79-3.53,5.54-5.77,9.74-5.77,6.38,0,11.03,4.26,11.03,11.65v16.91h-3.36v-16.74c0-6.22-3.58-8.9-8.06-8.9-4.98,0-9.35,3.58-9.35,9.97v15.68h-3.36Z" style="fill: #040000;"/>
      <path d="M743.73,1691.39h4.82c.84,0,1.4-.56,1.4-1.34v-6.16h3.36v7.5h9.02v3.36h-9.02v15.29c0,5.1,1.12,6.55,4.98,6.55,1.51,0,2.63-.17,4.03-.45v3.25c-1.23.34-2.69.56-4.37.56-5.82,0-8.01-2.69-8.01-9.8v-15.4h-6.22v-3.36Z" style="fill: #040000;"/>
      <path d="M771,1678.51c1.18,0,2.18,1.01,2.18,2.24s-1.01,2.18-2.18,2.18-2.24-.95-2.24-2.18,1.01-2.24,2.24-2.24ZM769.32,1719.39v-28h3.36v28h-3.36Z" style="fill: #040000;"/>
      <path d="M784.83,1719.39h-3.36v-42h3.36v42Z" style="fill: #040000;"/>
      <path d="M806.33,1690.83c4.93,0,9.35,3.08,11.2,6.78v-6.22h3.36v28h-3.36v-6.22c-1.85,3.7-6.27,6.78-11.2,6.78-8.06,0-14.56-6.55-14.56-14.56s6.5-14.56,14.56-14.56ZM795.13,1705.39c0,6.16,4.98,11.2,11.2,11.2s11.2-5.04,11.2-11.2-5.04-11.2-11.2-11.2-11.2,5.04-11.2,11.2Z" style="fill: #040000;"/>
      <path d="M842.4,1690.83c4.93,0,9.35,3.08,11.2,6.78v-18.54h3.36v40.32h-3.36v-6.22c-1.85,3.7-6.27,6.78-11.2,6.78-8.06,0-14.56-6.55-14.56-14.56s6.5-14.56,14.56-14.56ZM831.2,1705.39c0,6.16,4.98,11.2,11.2,11.2s11.2-5.04,11.2-11.2-5.04-11.2-11.2-11.2-11.2,5.04-11.2,11.2Z" style="fill: #040000;"/>
      <path d="M893.02,1705.39c0,8.01-6.55,14.56-14.56,14.56s-14.56-6.55-14.56-14.56,6.5-14.56,14.56-14.56,14.56,6.5,14.56,14.56ZM878.46,1716.54c6.16,0,11.14-4.98,11.14-11.14s-4.98-11.2-11.14-11.2-11.2,5.04-11.2,11.2,5.04,11.14,11.2,11.14Z" style="fill: #040000;"/>
      <path d="M899.96,1719.39v-28h3.36v5.43c1.74-4.03,5.66-5.99,9.91-5.99v2.91c-5.88,0-9.91,4.09-9.91,9.97v15.68h-3.36Z" style="fill: #040000;"/>
    </g>
    <g>
      <path d="M145.54,1799.08h15.18c7.17,0,12.38,5.43,12.38,12.94s-5.21,12.88-12.38,12.88h-11.82v14.5h-3.36v-40.32ZM148.9,1802.44v19.1h11.82c5.21,0,9.02-4.03,9.02-9.58s-3.81-9.52-9.02-9.52h-11.82Z" style="fill: #040000;"/>
      <path d="M192.69,1810.84c4.93,0,9.35,3.08,11.2,6.78v-6.22h3.36v28h-3.36v-6.22c-1.85,3.7-6.27,6.78-11.2,6.78-8.06,0-14.56-6.55-14.56-14.56s6.5-14.56,14.56-14.56ZM181.49,1825.4c0,6.16,4.98,11.2,11.2,11.2s11.2-5.04,11.2-11.2-5.04-11.2-11.2-11.2-11.2,5.04-11.2,11.2Z" style="fill: #040000;"/>
      <path d="M216.05,1839.4v-28h3.36v5.43c1.74-4.03,5.66-5.99,9.91-5.99v2.91c-5.88,0-9.91,4.09-9.91,9.97v15.68h-3.36Z" style="fill: #040000;"/>
      <path d="M247.91,1810.84c4.93,0,9.35,3.08,11.2,6.78v-6.22h3.36v28h-3.36v-6.22c-1.85,3.7-6.27,6.78-11.2,6.78-8.06,0-14.56-6.55-14.56-14.56s6.5-14.56,14.56-14.56ZM236.71,1825.4c0,6.16,4.98,11.2,11.2,11.2s11.2-5.04,11.2-11.2-5.04-11.2-11.2-11.2-11.2,5.04-11.2,11.2Z" style="fill: #040000;"/>
      <path d="M268.29,1814.76v-3.36h5.54v-1.51c0-8.06,4.37-11.37,11.26-11.37h1.85v3.36h-1.85c-5.04,0-7.9,2.02-7.9,8.01v1.51h9.74v3.36h-9.74v24.64h-3.36v-24.64h-5.54Z" style="fill: #040000;"/>
      <path d="M292.77,1828.31v-16.91h3.36v16.74c0,6.22,3.53,8.9,8.06,8.9,4.98,0,9.35-3.58,9.35-9.97v-15.68h3.36v28h-3.36v-5.26c-1.79,3.58-5.54,5.82-9.8,5.82-6.33,0-10.98-4.26-10.98-11.65Z" style="fill: #040000;"/>
      <path d="M325.75,1833.02c2.13,2.24,5.32,3.58,8.96,3.58,4.37,0,7.67-1.96,7.67-4.59,0-3.7-4.82-4.87-8.06-5.77-4.59-1.23-10.3-2.52-10.3-7.9,0-4.54,4.14-7.5,9.91-7.5,4.37,0,8.46,1.74,11.14,4.54l-2.35,2.41c-2.52-2.46-5.38-3.53-8.79-3.53-4.03,0-6.5,1.74-6.5,3.98,0,2.91,4.03,3.75,8.06,4.82,4.82,1.29,10.25,3.08,10.25,8.9,0,4.7-4.65,8.01-11.14,8.01-4.37,0-8.29-1.57-11.26-4.54l2.41-2.41Z" style="fill: #040000;"/>
      <path d="M379.45,1825.4c0,8.01-6.55,14.56-14.56,14.56s-14.56-6.55-14.56-14.56,6.5-14.56,14.56-14.56,14.56,6.5,14.56,14.56ZM364.89,1836.55c6.16,0,11.14-4.98,11.14-11.14s-4.98-11.2-11.14-11.2-11.2,5.04-11.2,11.2,5.04,11.14,11.2,11.14Z" style="fill: #040000;"/>
      <path d="M400.17,1825.4c0-8.06,6.5-14.56,14.56-14.56,4.14,0,7.9,1.74,10.53,4.54l-2.41,2.41c-2.02-2.18-4.93-3.58-8.12-3.58-6.16,0-11.2,5.04-11.2,11.2s5.04,11.14,11.2,11.14c3.19,0,6.1-1.34,8.12-3.53l2.41,2.41c-2.63,2.8-6.38,4.54-10.53,4.54-8.06,0-14.56-6.55-14.56-14.56Z" style="fill: #040000;"/>
      <path d="M431.7,1828.31v-16.91h3.36v16.74c0,6.22,3.53,8.9,8.06,8.9,4.98,0,9.35-3.58,9.35-9.97v-15.68h3.36v28h-3.36v-5.26c-1.79,3.58-5.54,5.82-9.8,5.82-6.33,0-10.98-4.26-10.98-11.65Z" style="fill: #040000;"/>
      <path d="M464.68,1839.4v-28h3.36v5.43c1.74-4.03,5.66-5.99,9.91-5.99v2.91c-5.88,0-9.91,4.09-9.91,9.97v15.68h-3.36Z" style="fill: #040000;"/>
      <path d="M480.87,1811.4h4.82c.84,0,1.4-.56,1.4-1.34v-6.16h3.36v7.5h9.02v3.36h-9.02v15.29c0,5.1,1.12,6.55,4.98,6.55,1.51,0,2.63-.17,4.03-.45v3.25c-1.23.34-2.69.56-4.37.56-5.82,0-8.01-2.69-8.01-9.8v-15.4h-6.22v-3.36Z" style="fill: #040000;"/>
      <path d="M533.73,1825.4c0,8.01-6.55,14.56-14.56,14.56s-14.56-6.55-14.56-14.56,6.5-14.56,14.56-14.56,14.56,6.5,14.56,14.56ZM519.17,1836.55c6.16,0,11.14-4.98,11.14-11.14s-4.98-11.2-11.14-11.2-11.2,5.04-11.2,11.2,5.04,11.14,11.2,11.14Z" style="fill: #040000;"/>
      <path d="M556.3,1811.4h3.36v6.22c1.85-3.7,6.27-6.78,11.2-6.78,8.01,0,14.56,6.55,14.56,14.56s-6.55,14.56-14.56,14.56c-4.93,0-9.35-3.08-11.2-6.78v19.71h-3.36v-41.5ZM559.66,1825.4c0,6.16,4.98,11.2,11.2,11.2s11.2-5.04,11.2-11.2-5.04-11.2-11.2-11.2-11.2,5.04-11.2,11.2Z" style="fill: #040000;"/>
      <path d="M605.07,1810.84c4.93,0,9.35,3.08,11.2,6.78v-6.22h3.36v28h-3.36v-6.22c-1.85,3.7-6.27,6.78-11.2,6.78-8.06,0-14.56-6.55-14.56-14.56s6.5-14.56,14.56-14.56ZM593.87,1825.4c0,6.16,4.98,11.2,11.2,11.2s11.2-5.04,11.2-11.2-5.04-11.2-11.2-11.2-11.2,5.04-11.2,11.2Z" style="fill: #040000;"/>
      <path d="M628.42,1839.4v-28h3.36v5.43c1.74-4.03,5.66-5.99,9.91-5.99v2.91c-5.88,0-9.91,4.09-9.91,9.97v15.68h-3.36Z" style="fill: #040000;"/>
      <path d="M660.29,1810.84c4.93,0,9.35,3.08,11.2,6.78v-6.22h3.36v28h-3.36v-6.22c-1.85,3.7-6.27,6.78-11.2,6.78-8.06,0-14.56-6.55-14.56-14.56s6.5-14.56,14.56-14.56ZM649.09,1825.4c0,6.16,4.98,11.2,11.2,11.2s11.2-5.04,11.2-11.2-5.04-11.2-11.2-11.2-11.2,5.04-11.2,11.2Z" style="fill: #040000;"/>
      <path d="M699.21,1811.4l10.64,23.86,10.64-23.86h3.7l-12.43,28h-3.75l-12.43-28h3.64Z" style="fill: #040000;"/>
      <path d="M741.77,1810.84c7.95,0,13.38,6.1,13.44,14.56,0,.62-.11,1.34-.11,1.96h-24.02c.84,5.38,5.32,9.18,11.2,9.18,3.42,0,6.66-1.29,8.85-3.7l2.41,2.41c-2.91,3.08-6.94,4.7-11.14,4.7-8.57,0-14.9-6.27-14.9-14.56s6.1-14.56,14.28-14.56ZM730.96,1824h20.78c-.5-5.82-4.54-9.8-10.02-9.8s-10.14,4.2-10.75,9.8Z" style="fill: #040000;"/>
      <path d="M762.15,1839.4v-28h3.36v5.21c1.79-3.53,5.54-5.77,9.74-5.77,6.38,0,11.03,4.26,11.03,11.65v16.91h-3.36v-16.74c0-6.22-3.58-8.9-8.06-8.9-4.98,0-9.35,3.58-9.35,9.97v15.68h-3.36Z" style="fill: #040000;"/>
      <path d="M792.17,1811.4h4.82c.84,0,1.4-.56,1.4-1.34v-6.16h3.36v7.5h9.02v3.36h-9.02v15.29c0,5.1,1.12,6.55,4.98,6.55,1.51,0,2.63-.17,4.03-.45v3.25c-1.23.34-2.69.56-4.37.56-5.82,0-8.01-2.69-8.01-9.8v-15.4h-6.22v-3.36Z" style="fill: #040000;"/>
      <path d="M845.03,1825.4c0,8.01-6.55,14.56-14.56,14.56s-14.56-6.55-14.56-14.56,6.5-14.56,14.56-14.56,14.56,6.5,14.56,14.56ZM830.47,1836.55c6.16,0,11.14-4.98,11.14-11.14s-4.98-11.2-11.14-11.2-11.2,5.04-11.2,11.2,5.04,11.14,11.2,11.14Z" style="fill: #040000;"/>
      <path d="M853.65,1798.52c1.18,0,2.18,1.01,2.18,2.24s-1.01,2.18-2.18,2.18-2.24-.95-2.24-2.18,1.01-2.24,2.24-2.24ZM851.97,1839.4v-28h3.36v28h-3.36Z" style="fill: #040000;"/>
      <path d="M864.12,1839.4v-28h3.36v5.21c1.79-3.53,5.54-5.77,9.74-5.77,6.38,0,11.03,4.26,11.03,11.65v16.91h-3.36v-16.74c0-6.22-3.58-8.9-8.06-8.9-4.98,0-9.35,3.58-9.35,9.97v15.68h-3.36Z" style="fill: #040000;"/>
      <path d="M897.11,1839.4v-40.32h3.36v17.53c1.79-3.53,5.54-5.77,9.74-5.77,6.38,0,11.03,4.26,11.03,11.65v16.91h-3.36v-16.74c0-6.22-3.58-8.9-8.06-8.9-4.98,0-9.35,3.58-9.35,9.97v15.68h-3.36Z" style="fill: #040000;"/>
      <path d="M942.8,1810.84c4.93,0,9.35,3.08,11.2,6.78v-6.22h3.36v28h-3.36v-6.22c-1.85,3.7-6.27,6.78-11.2,6.78-8.06,0-14.56-6.55-14.56-14.56s6.5-14.56,14.56-14.56ZM931.6,1825.4c0,6.16,4.98,11.2,11.2,11.2s11.2-5.04,11.2-11.2-5.04-11.2-11.2-11.2-11.2,5.04-11.2,11.2Z" style="fill: #040000;"/>
    </g>
    <g>
      <path d="M148.9,1919.09v36.96h22.06v3.36h-25.42v-40.32h3.36Z" style="fill: #040000;"/>
      <path d="M177.41,1931.41l10.53,23.97,10.02-23.97h3.64l-14.11,33.82c-2.02,4.87-4.87,7.06-9.13,7.06-.5,0-1.18,0-1.62-.06v-3.36c.34.06.84.06,1.23.06,3.19,0,4.76-1.29,6.38-5.1l1.74-4.03-12.32-28.39h3.64Z" style="fill: #040000;"/>
      <path d="M206.75,1959.41v-40.32h3.36v17.53c1.79-3.53,5.54-5.77,9.74-5.77,6.38,0,11.03,4.26,11.03,11.65v16.91h-3.36v-16.74c0-6.22-3.58-8.9-8.06-8.9-4.98,0-9.35,3.58-9.35,9.97v15.68h-3.36Z" style="fill: #040000;"/>
      <path d="M239.68,1931.41l10.53,23.97,10.02-23.97h3.64l-14.11,33.82c-2.02,4.87-4.87,7.06-9.13,7.06-.5,0-1.18,0-1.62-.06v-3.36c.34.06.84.06,1.23.06,3.19,0,4.76-1.29,6.38-5.1l1.74-4.03-12.32-28.39h3.64Z" style="fill: #040000;"/>
      <path d="M266.05,1931.41h4.82c.84,0,1.4-.56,1.4-1.34v-6.16h3.36v7.5h9.02v3.36h-9.02v15.29c0,5.1,1.12,6.55,4.98,6.55,1.51,0,2.63-.17,4.03-.45v3.25c-1.23.34-2.69.56-4.37.56-5.82,0-8.01-2.69-8.01-9.8v-15.4h-6.22v-3.36Z" style="fill: #040000;"/>
      <path d="M304.3,1931.41h4.82c.84,0,1.4-.56,1.4-1.34v-6.16h3.36v7.5h9.02v3.36h-9.02v15.29c0,5.1,1.12,6.55,4.98,6.55,1.51,0,2.63-.17,4.03-.45v3.25c-1.23.34-2.69.56-4.37.56-5.82,0-8.01-2.69-8.01-9.8v-15.4h-6.22v-3.36Z" style="fill: #040000;"/>
      <path d="M329.89,1948.32v-16.91h3.36v16.74c0,6.22,3.53,8.9,8.06,8.9,4.98,0,9.35-3.58,9.35-9.97v-15.68h3.36v28h-3.36v-5.26c-1.79,3.58-5.54,5.82-9.8,5.82-6.33,0-10.98-4.26-10.98-11.65Z" style="fill: #040000;"/>
      <path d="M362.88,1948.32v-16.91h3.36v16.74c0,6.22,3.53,8.9,8.06,8.9,4.98,0,9.35-3.58,9.35-9.97v-15.68h3.36v28h-3.36v-5.26c-1.79,3.58-5.54,5.82-9.8,5.82-6.33,0-10.98-4.26-10.98-11.65Z" style="fill: #040000;"/>
      <path d="M399.22,1959.41h-3.36v-42h3.36v42Z" style="fill: #040000;"/>
      <path d="M420.44,1930.85c7.95,0,13.38,6.1,13.44,14.56,0,.62-.11,1.34-.11,1.96h-24.02c.84,5.38,5.32,9.18,11.2,9.18,3.42,0,6.66-1.29,8.85-3.7l2.41,2.41c-2.91,3.08-6.94,4.7-11.14,4.7-8.57,0-14.9-6.27-14.9-14.56s6.1-14.56,14.28-14.56ZM409.63,1944.01h20.78c-.5-5.82-4.54-9.8-10.02-9.8s-10.14,4.2-10.75,9.8Z" style="fill: #040000;"/>
      <path d="M437.86,1931.41h4.82c.84,0,1.4-.56,1.4-1.34v-6.16h3.36v7.5h9.02v3.36h-9.02v15.29c0,5.1,1.12,6.55,4.98,6.55,1.51,0,2.63-.17,4.03-.45v3.25c-1.23.34-2.69.56-4.37.56-5.82,0-8.01-2.69-8.01-9.8v-15.4h-6.22v-3.36Z" style="fill: #040000;"/>
      <path d="M460.48,1931.41h4.82c.84,0,1.4-.56,1.4-1.34v-6.16h3.36v7.5h9.02v3.36h-9.02v15.29c0,5.1,1.12,6.55,4.98,6.55,1.51,0,2.63-.17,4.03-.45v3.25c-1.23.34-2.69.56-4.37.56-5.82,0-8.01-2.69-8.01-9.8v-15.4h-6.22v-3.36Z" style="fill: #040000;"/>
      <path d="M487.75,1918.53c1.18,0,2.18,1.01,2.18,2.24s-1.01,2.18-2.18,2.18-2.24-.95-2.24-2.18,1.01-2.24,2.24-2.24ZM486.07,1959.41v-28h3.36v28h-3.36Z" style="fill: #040000;"/>
      <path d="M498.23,1931.41h3.36v5.21c1.79-3.53,5.54-5.77,9.74-5.77,4.98,0,8.74,2.63,10.14,6.94,1.9-4.26,6.1-6.94,10.7-6.94,6.33,0,10.98,4.26,10.98,11.65v16.91h-3.36v-16.74c0-6.22-3.53-8.9-8.06-8.9-4.93,0-9.35,3.53-9.35,9.86v15.79h-3.36v-16.74c0-6.22-3.58-8.9-8.06-8.9-4.98,0-9.35,3.58-9.35,9.97v15.68h-3.36v-28Z" style="fill: #040000;"/>
      <path d="M564.42,1930.85c7.95,0,13.38,6.1,13.44,14.56,0,.62-.11,1.34-.11,1.96h-24.02c.84,5.38,5.32,9.18,11.2,9.18,3.42,0,6.66-1.29,8.85-3.7l2.41,2.41c-2.91,3.08-6.94,4.7-11.14,4.7-8.57,0-14.9-6.27-14.9-14.56s6.1-14.56,14.28-14.56ZM553.61,1944.01h20.78c-.5-5.82-4.54-9.8-10.02-9.8s-10.14,4.2-10.75,9.8Z" style="fill: #040000;"/>
      <path d="M584.8,1959.41v-28h3.36v5.21c1.79-3.53,5.54-5.77,9.74-5.77,6.38,0,11.03,4.26,11.03,11.65v16.91h-3.36v-16.74c0-6.22-3.58-8.9-8.06-8.9-4.98,0-9.35,3.58-9.35,9.97v15.68h-3.36Z" style="fill: #040000;"/>
      <path d="M633.41,1959.41v-28h3.36v5.43c1.74-4.03,5.66-5.99,9.91-5.99v2.91c-5.88,0-9.91,4.09-9.91,9.97v15.68h-3.36Z" style="fill: #040000;"/>
      <path d="M652.56,1948.32v-16.91h3.36v16.74c0,6.22,3.53,8.9,8.06,8.9,4.98,0,9.35-3.58,9.35-9.97v-15.68h3.36v28h-3.36v-5.26c-1.79,3.58-5.54,5.82-9.8,5.82-6.33,0-10.98-4.26-10.98-11.65Z" style="fill: #040000;"/>
      <path d="M685.54,1948.32v-16.91h3.36v16.74c0,6.22,3.53,8.9,8.06,8.9,4.98,0,9.35-3.58,9.35-9.97v-15.68h3.36v28h-3.36v-5.26c-1.79,3.58-5.54,5.82-9.8,5.82-6.33,0-10.98-4.26-10.98-11.65Z" style="fill: #040000;"/>
      <path d="M718.47,1931.41l10.64,23.86,10.64-23.86h3.7l-12.43,28h-3.75l-12.43-28h3.64Z" style="fill: #040000;"/>
      <path d="M750.28,1918.53c1.18,0,2.18,1.01,2.18,2.24s-1.01,2.18-2.18,2.18-2.24-.95-2.24-2.18,1.01-2.24,2.24-2.24ZM748.6,1959.41v-28h3.36v28h-3.36Z" style="fill: #040000;"/>
    </g>
    <g>
      <path d="M402,193.37l16.08-43.2h9.06l16.08,43.2h-8.88l-3-8.22h-17.46l-3,8.22h-8.88ZM428.46,176.93l-5.82-15.84-5.88,15.84h11.7Z" style="fill: #040000;"/>
      <path d="M443.88,178.37c0-8.64,7.02-15.6,15.6-15.6,4.44,0,8.46,1.86,11.28,4.86l-5.82,5.82c-1.32-1.5-3.3-2.46-5.46-2.46-4.08,0-7.38,3.3-7.38,7.38s3.3,7.38,7.38,7.38c2.16,0,4.14-.96,5.46-2.46l5.82,5.82c-2.82,3-6.84,4.86-11.28,4.86-8.58,0-15.6-7.02-15.6-15.6Z" style="fill: #040000;"/>
      <path d="M472.32,178.37c0-8.64,7.02-15.6,15.6-15.6,4.44,0,8.46,1.86,11.28,4.86l-5.82,5.82c-1.32-1.5-3.3-2.46-5.46-2.46-4.08,0-7.38,3.3-7.38,7.38s3.3,7.38,7.38,7.38c2.16,0,4.14-.96,5.46-2.46l5.82,5.82c-2.82,3-6.84,4.86-11.28,4.86-8.58,0-15.6-7.02-15.6-15.6Z" style="fill: #040000;"/>
      <path d="M516.06,162.78c8.58,0,14.34,6.18,14.34,15,0,1.26-.12,2.58-.3,3.9h-21.36c1.14,3.24,4.2,5.1,8.04,5.1,2.7,0,5.28-.96,6.84-2.76l5.04,5.04c-2.76,3.06-6.84,4.92-12.06,4.92-8.94,0-15.84-6.84-15.84-15.6s6.66-15.6,15.3-15.6ZM508.56,175.79h14.34c-.48-3.66-3.54-5.88-7.02-5.88s-6.72,2.28-7.32,5.88Z" style="fill: #040000;"/>
      <path d="M537.48,183.17c2.4,2.04,5.94,3.6,9.24,3.6,2.52,0,4.38-1.02,4.38-2.34,0-2.04-3-2.58-5.04-3.12-5.16-1.38-12-2.88-12-9.54,0-5.16,5.16-9,12.24-9,4.68,0,8.88,1.62,12,4.14l-4.14,5.52c-2.04-1.56-5.22-2.52-7.8-2.52-2.82,0-4.08.9-4.08,1.92,0,1.38,2.52,1.86,5.64,2.58,6.42,1.26,11.46,3.54,11.46,9.96,0,5.58-5.46,9.54-12.9,9.54-5.16,0-9.78-1.74-13.62-5.16l4.62-5.58Z" style="fill: #040000;"/>
      <path d="M566.16,183.17c2.4,2.04,5.94,3.6,9.24,3.6,2.52,0,4.38-1.02,4.38-2.34,0-2.04-3-2.58-5.04-3.12-5.16-1.38-12-2.88-12-9.54,0-5.16,5.16-9,12.24-9,4.68,0,8.88,1.62,12,4.14l-4.14,5.52c-2.04-1.56-5.22-2.52-7.8-2.52-2.82,0-4.08.9-4.08,1.92,0,1.38,2.52,1.86,5.64,2.58,6.42,1.26,11.46,3.54,11.46,9.96,0,5.58-5.46,9.54-12.9,9.54-5.16,0-9.78-1.74-13.62-5.16l4.62-5.58Z" style="fill: #040000;"/>
      <path d="M622.02,178.37c0,8.58-6.96,15.6-15.6,15.6s-15.6-7.02-15.6-15.6,7.02-15.6,15.6-15.6,15.6,6.96,15.6,15.6ZM606.42,185.75c4.08,0,7.38-3.3,7.38-7.38s-3.3-7.38-7.38-7.38-7.38,3.3-7.38,7.38,3.3,7.38,7.38,7.38Z" style="fill: #040000;"/>
      <path d="M626.52,193.37v-30h8.22v2.94c2.1-2.28,5.16-3.54,8.64-3.54v7.98c-.36-.06-.78-.12-1.14-.12-4.08,0-7.5,2.88-7.5,6.9v15.84h-8.22Z" style="fill: #040000;"/>
      <path d="M644.82,163.37h8.94l7.86,19.86,7.38-19.86h8.94l-13.68,34.98c-2.34,6.06-6.78,8.82-12.84,8.82-1.02,0-2.1-.06-3.18-.06v-7.92c.6.06,1.2.12,1.8.12,2.7,0,4.92-1.02,6.12-3.9l.84-2.04-12.18-30Z" style="fill: #040000;"/>
      <path d="M697.44,193.37v-43.2h8.22v16.56l14.34-16.56h9.96l-17.52,20.52,18.18,22.68h-9.96l-15-18.6v18.6h-8.22Z" style="fill: #040000;"/>
      <path d="M737.93,149.58c2.64,0,4.8,2.16,4.8,4.8s-2.16,4.8-4.8,4.8-4.86-2.16-4.86-4.8,2.16-4.8,4.86-4.8ZM733.79,193.37v-30h8.22v30h-8.22Z" style="fill: #040000;"/>
      <path d="M748.43,163.37c1.8,0,3-1.2,3-2.94v-5.1h8.22v8.04h7.2v8.22h-7.2v8.58c0,4.68.66,5.88,3.36,5.94,1.14,0,2.34-.24,3.84-.54v7.8c-1.38.36-3.6.6-5.1.6-7.2,0-10.32-3.24-10.32-10.8v-11.58h-5.28v-8.22h2.28Z" style="fill: #040000;"/>
    </g>
    <g>
      <path d="M471.42,397.85h13.55c10.25,0,17.55,7.5,17.55,18s-7.3,18-17.55,18h-13.55v-36ZM476.37,428.9h8.6c7.5,0,12.6-5.3,12.6-13.05s-5.1-13.05-12.6-13.05h-8.6v26.1Z" style="fill: #040000;"/>
      <path d="M512.57,408.85v14.2c0,4.75,2.4,6.8,5.9,6.8,3.8,0,6.8-2.75,6.8-7.15v-13.85h4.95v25h-4.95v-3.05c-1.85,2.05-4.6,3.55-7.8,3.55-5.9,0-9.85-4.05-9.85-10.55v-14.95h4.95Z" style="fill: #040000;"/>
      <path d="M547.92,408.35c3.45,0,6.65,1.95,8.35,4.15v-3.65h4.95v25h-4.95v-3.7c-1.65,2.25-4.85,4.2-8.35,4.2-7.15,0-12.7-5.85-12.7-13s5.55-13,12.7-13ZM540.17,421.35c0,4.45,3.6,8.05,8.05,8.05s8.05-3.6,8.05-8.05-3.6-8.05-8.05-8.05-8.05,3.6-8.05,8.05Z" style="fill: #040000;"/>
      <path d="M572.57,433.85h-4.95v-37.5h4.95v37.5Z" style="fill: #040000;"/>
      <path d="M593.07,397.85h14.6c6.6,0,11.4,5.1,11.4,12.05s-4.8,12.05-11.4,12.05h-9.65v11.9h-4.95v-36ZM598.02,402.8v14.2h9.25c4.1,0,6.85-2.9,6.85-7.1s-2.75-7.1-6.8-7.1h-9.3Z" style="fill: #040000;"/>
      <path d="M635.27,408.35c3.45,0,6.65,1.95,8.35,4.15v-3.65h4.95v25h-4.95v-3.7c-1.65,2.25-4.85,4.2-8.35,4.2-7.15,0-12.7-5.85-12.7-13s5.55-13,12.7-13ZM627.52,421.35c0,4.45,3.6,8.05,8.05,8.05s8.05-3.6,8.05-8.05-3.6-8.05-8.05-8.05-8.05,3.6-8.05,8.05Z" style="fill: #040000;"/>
      <path d="M653.57,421.35c0-7.2,5.85-13,13-13,3.7,0,7.05,1.55,9.4,4.05l-3.5,3.5c-1.45-1.6-3.55-2.6-5.9-2.6-4.45,0-8.05,3.6-8.05,8.05s3.6,8.05,8.05,8.05c2.35,0,4.45-1,5.9-2.6l3.5,3.5c-2.35,2.5-5.7,4.05-9.4,4.05-7.15,0-13-5.85-13-13Z" style="fill: #040000;"/>
      <path d="M680.47,433.85v-36h4.95v21.4l9.55-10.4h6.55l-11,12,11.7,13h-6.55l-10.25-11.35v11.35h-4.95Z" style="fill: #040000;"/>
    </g>
    <rect x="503.87" y="482.02" width="44.35" height="44.35" style="fill: #cf391a;"/>
    <rect x="562.82" y="482.02" width="44.35" height="44.35" style="fill: #cf391a;"/>
    <path d="M665.13,525.37h-42.35v-42.35h42.35v42.35ZM666.13,482.02h-44.35v44.36h44.35v-44.36Z" style="fill: #cf391a;"/>
    <g>
      <path d="M225.96,717.42l-2.74,2.74c-2.4-2.83-5.95-4.42-9.79-4.42-5.47,0-8.4,2.06-8.4,5.18,0,2.54,2.06,3.94,8.69,5.86,6.05,1.78,13.06,3.75,13.06,10.75,0,5.67-5.62,9.89-13.15,9.89-5.66,0-10.51-1.92-14.07-5.52l2.69-2.74c2.93,2.93,6.77,4.42,11.38,4.42,5.33,0,9.31-2.64,9.31-6.05,0-3.07-2.35-4.8-9.22-6.77-5.95-1.68-12.53-3.5-12.53-9.84,0-5.47,4.61-9.02,12.24-9.02,4.9,0,9.5,2.02,12.53,5.52Z" style="fill: #040000;"/>
      <path d="M236.14,712.38v13.83c1.78-2.06,4.46-3.75,7.78-3.75,5.71,0,9.5,3.84,9.5,10.23v14.26h-3.84v-14.07c0-5.09-2.54-7.1-6.19-7.1-3.98,0-7.25,2.88-7.25,7.54v13.63h-3.84v-34.56h3.84Z" style="fill: #040000;"/>
      <path d="M271.18,722.46c6.86,0,12.48,5.62,12.48,12.48s-5.62,12.48-12.48,12.48-12.48-5.57-12.48-12.48,5.62-12.48,12.48-12.48ZM271.18,743.58c4.75,0,8.64-3.89,8.64-8.64s-3.89-8.59-8.64-8.59-8.64,3.84-8.59,8.59c0,4.75,3.84,8.64,8.59,8.64Z" style="fill: #040000;"/>
      <path d="M292.77,722.94v3.5c1.54-2.16,4.08-3.98,7.78-3.98v3.31c-4.32,0-7.78,3.02-7.78,7.54v13.63h-3.84v-24h3.84Z" style="fill: #040000;"/>
      <path d="M311.11,716.5v6.43h6.77v3.84h-6.77v12.15c0,3.7.67,4.66,3.26,4.66,1.34,0,2.3-.14,3.5-.34v3.7c-1.06.29-2.3.48-3.74.48-4.99,0-6.86-2.3-6.86-8.35v-12.29h-4.8v-3.84h3.26c.91,0,1.54-.62,1.54-1.49v-4.94h3.84Z" style="fill: #040000;"/>
      <path d="M333.72,722.94h4.8v-1.3c0-6.91,3.7-9.75,9.6-9.75h1.58v3.84h-1.58c-3.6,0-5.76,1.15-5.76,5.91v1.3h7.34v3.84h-7.34v20.16h-3.84v-20.16h-4.8v-3.84Z" style="fill: #040000;"/>
      <path d="M373.7,726.97v-4.03h3.84v24h-3.84v-4.03c-1.63,2.35-4.99,4.51-8.64,4.51-6.86,0-12.48-5.62-12.48-12.48s5.62-12.48,12.48-12.48c3.65,0,7.01,2.16,8.64,4.51ZM356.42,734.94c0,4.75,3.89,8.64,8.64,8.64s8.64-3.89,8.64-8.64-3.89-8.64-8.64-8.64-8.64,3.89-8.64,8.64Z" style="fill: #040000;"/>
      <path d="M388.1,722.94v3.26c1.78-2.06,4.46-3.75,7.78-3.75,5.71,0,9.5,3.84,9.5,10.23v14.26h-3.84v-14.07c0-5.09-2.54-7.1-6.19-7.1-3.98,0-7.25,2.88-7.25,7.54v13.63h-3.84v-24h3.84Z" style="fill: #040000;"/>
      <path d="M441.81,726.35l-2.74,2.74c-1.97-1.97-4.13-2.74-6.82-2.74-2.93,0-4.66,1.25-4.66,2.69,0,1.82,3.12,2.59,6,3.41,3.94,1.1,8.74,2.64,8.74,7.87,0,4.08-4.08,7.11-9.6,7.11-3.7,0-7.06-1.34-9.6-3.89l2.74-2.74c1.68,1.73,4.13,2.78,6.96,2.78,3.12,0,5.67-1.44,5.67-3.26,0-2.74-4.18-3.6-6.19-4.22-3.7-1.1-8.59-2.26-8.59-6.96,0-4.03,3.65-6.67,8.59-6.67,3.74,0,7.3,1.54,9.5,3.89Z" style="fill: #040000;"/>
      <path d="M458.18,722.46c3.55,0,6.77,1.49,9.02,3.89l-2.74,2.74c-1.54-1.68-3.79-2.74-6.29-2.74-4.75,0-8.64,3.84-8.59,8.59,0,4.75,3.84,8.64,8.59,8.64,2.5,0,4.75-1.1,6.29-2.78l2.74,2.74c-2.26,2.4-5.47,3.89-9.02,3.89-6.86,0-12.48-5.57-12.48-12.48s5.62-12.48,12.48-12.48Z" style="fill: #040000;"/>
      <path d="M475.84,722.94v3.5c1.54-2.16,4.08-3.98,7.78-3.98v3.31c-4.32,0-7.78,3.02-7.78,7.54v13.63h-3.84v-24h3.84Z" style="fill: #040000;"/>
      <path d="M498.69,722.46c6.82,0,11.47,5.09,11.47,12.48,0,.72-.1,1.54-.14,2.26h-19.39c.96,3.84,4.22,6.34,8.74,6.34,2.59,0,5.14-.86,6.82-2.74l2.74,2.74c-2.5,2.69-5.95,3.89-9.46,3.89-7.54,0-12.96-5.28-12.96-12.48s5.18-12.48,12.19-12.48ZM506.18,733.35c-.53-4.27-3.41-7.06-7.49-7.06s-7.54,2.93-8.21,7.06h15.7Z" style="fill: #040000;"/>
      <path d="M516.59,722.94l5.28,17.09,5.23-17.09h3.74l5.23,17.09,5.28-17.09h4.03l-7.39,24h-3.79l-5.23-16.95-5.23,16.95h-3.79l-7.39-24h4.03Z" style="fill: #040000;"/>
    </g>
    <g>
      <path d="M205.46,767.38l12.43,21.51,12.43-21.51h3.17v34.56h-3.84v-25.78l-10.22,17.76h-3.02l-10.27-17.76v25.78h-3.84v-34.56h3.17Z" style="fill: #040000;"/>
      <path d="M260.14,767.38v3.84h-15.27l-.62,8.4c1.49-.53,3.84-.96,5.62-.96,7.2,0,11.81,4.85,11.81,11.95,0,6.72-5.18,11.81-12,11.81-5.38,0-9.6-3.12-11.38-8.26l3.6-1.44c1.1,3.55,4.08,5.86,7.87,5.86,4.61,0,8.02-3.36,8.02-7.97.05-4.99-2.83-8.06-7.97-8.06-2.16,0-4.66.67-6.43,1.63h-3.41l1.25-16.8h18.91Z" style="fill: #040000;"/>
      <path d="M269.5,776.36l5.62,5.57,5.57-5.57,2.69,2.74-5.57,5.57,5.57,5.57-2.69,2.74-5.57-5.57-5.62,5.57-2.69-2.74,5.57-5.57-5.57-5.57,2.69-2.74Z" style="fill: #040000;"/>
      <path d="M298.15,767.38h3.46v34.56h-3.84v-29.81l-7.54,4.51-1.97-3.26,9.89-6Z" style="fill: #040000;"/>
      <path d="M319.85,766.9c8.4,0,13.44,6.67,13.44,17.76s-5.04,17.76-13.44,17.76-13.44-6.67-13.44-17.76,5.04-17.76,13.44-17.76ZM319.85,798.59c6.19,0,9.6-4.94,9.6-13.92s-3.41-13.92-9.6-13.92-9.6,4.95-9.6,13.92,3.41,13.92,9.6,13.92Z" style="fill: #040000;"/>
      <path d="M342.41,777.95v3.26c1.78-2.06,4.46-3.75,7.78-3.75,3.94,0,6.96,1.82,8.45,4.99,1.92-2.88,5.09-4.99,8.83-4.99,5.71,0,9.5,3.84,9.5,10.23v14.26h-3.84v-14.07c0-5.09-2.54-7.1-6.19-7.1-3.98,0-7.25,2.83-7.25,7.44v13.73h-3.84v-14.07c0-5.09-2.54-7.1-6.19-7.1-3.98,0-7.25,2.88-7.25,7.54v13.63h-3.84v-24h3.84Z" style="fill: #040000;"/>
      <path d="M387.52,777.95v3.26c1.78-2.06,4.46-3.75,7.78-3.75,3.94,0,6.96,1.82,8.45,4.99,1.92-2.88,5.09-4.99,8.83-4.99,5.71,0,9.5,3.84,9.5,10.23v14.26h-3.84v-14.07c0-5.09-2.54-7.1-6.19-7.1-3.98,0-7.25,2.83-7.25,7.44v13.73h-3.84v-14.07c0-5.09-2.54-7.1-6.19-7.1-3.98,0-7.25,2.88-7.25,7.54v13.63h-3.84v-24h3.84Z" style="fill: #040000;"/>
    </g>
    <g>
      <path d="M903.76,743.03l9.36,9.28,9.28-9.28,4.48,4.56-9.28,9.28,9.28,9.28-4.48,4.56-9.28-9.28-9.36,9.28-4.48-4.56,9.28-9.28-9.28-9.28,4.48-4.56Z" style="fill: #040000;"/>
      <path d="M976.32,743.43c0,6.4-3.28,10.16-7.28,12.64,5.2,2.4,9.12,6.64,9.12,13.76,0,9.84-6.88,16.64-21.2,16.64s-21.12-6.8-21.12-16.64c0-7.12,3.92-11.36,9.04-13.76-4-2.48-7.2-6.24-7.2-12.64,0-9.92,7.76-16.16,19.28-16.16s19.36,6.24,19.36,16.16ZM942.16,769.83c0,6.08,4.24,10.24,14.8,10.24s14.88-4.16,14.88-10.24c0-6.64-6.64-10.16-14.88-10.16s-14.8,3.52-14.8,10.16ZM944.08,743.43c0,6.24,5.84,9.84,12.88,9.84s12.96-3.6,12.96-9.84-5.04-9.76-12.96-9.76-12.88,3.6-12.88,9.76Z" style="fill: #040000;"/>
    </g>
    <polygon points="815.61 760.42 815.6 760.4 816.06 759.95 818.86 756.4 820.02 754.43 821.86 750.12 823.04 745.39 823.56 740.28 823.42 734.87 822.63 729.21 821.2 723.36 819.16 717.38 816.52 711.32 813.33 705.27 809.62 699.29 805.42 693.43 800.79 687.76 795.78 682.35 793.14 679.75 787.65 674.83 781.93 670.3 776.03 666.22 770.01 662.64 763.95 659.59 757.91 657.1 752.01 655.23 746.12 653.96 740.5 653.33 735.16 653.37 730.12 654.07 725.49 655.43 721.3 657.46 719.39 658.72 717.62 660.14 709.02 668.65 710.19 669.82 709.01 668.67 705.77 672.67 704.61 674.64 702.77 678.95 701.6 683.68 701.08 688.79 701.22 694.2 701.7 697.99 700.4 699.24 700.41 699.25 700.27 699.36 698.1 702.2 696.63 705.25 695.72 708.64 695.65 709.38 691.21 710.45 688.06 712.06 685.59 714.09 684.34 715.3 684.34 715.31 684.21 715.42 682.04 718.26 680.57 721.32 679.66 724.7 679.59 725.44 675.14 726.52 671.99 728.12 669.53 730.15 668.28 731.36 668.28 731.37 668.15 731.48 665.98 734.32 664.51 737.38 663.6 740.76 663.53 741.5 659.08 742.58 655.93 744.18 653.47 746.22 652.22 747.43 652.22 747.43 652.08 747.54 649.92 750.38 648.45 753.43 647.54 756.82 647.47 757.56 643.02 758.64 639.87 760.25 637.41 762.28 636.15 763.49 636.16 763.49 636.02 763.6 633.86 766.44 632.39 769.5 631.48 772.88 631.37 773.94 629.63 774.12 626.27 775 626.69 776.6 625.9 775.14 623.81 776.31 621.35 778.34 621.33 778.32 620.83 778.92 620.78 778.87 619.43 780.39 617.87 782.64 616.61 785.11 615.71 787.59 616.64 787.93 616.63 788.02 615.65 787.81 615.05 792.7 615.27 796.78 616.07 801.14 617.44 805.69 617.51 808.01 617.87 812.41 618.71 816.32 618.7 816.32 620.05 821.38 620.38 821.3 620.38 821.31 620.06 821.4 621.87 826.57 624.03 830.94 626.74 835.26 629.92 839.43 633.51 843.34 635.43 845.18 639.48 848.58 643.74 851.54 648.11 853.98 652.5 855.86 655.44 856.79 655.58 856.32 655.59 856.33 655.47 856.8 661.93 858.53 661.94 858.48 664.84 859.21 669.01 859.8 673.04 859.94 676.87 859.56 680.46 858.71 683.76 857.36 685.26 856.43 690.2 856.03 694.65 855.01 698.78 853.38 702.45 851.17 705.23 848.79 706.56 847.5 706.54 847.49 706.74 847.31 709.35 844.14 711.38 840.62 712.25 838.35 714.84 837.32 718.51 835.11 721.29 832.73 722.62 831.44 722.6 831.42 722.8 831.25 725.41 828.09 727.43 824.56 728.31 822.29 730.9 821.26 734.57 819.05 737.35 816.67 738.68 815.38 738.66 815.36 738.86 815.19 741.47 812.02 743.5 808.5 744.37 806.23 746.96 805.2 750.63 802.99 753.41 800.61 754.74 799.32 754.72 799.3 754.92 799.13 757.53 795.96 759.56 792.44 760.43 790.16 763.02 789.14 766.69 786.93 769.47 784.55 770.8 783.26 770.78 783.24 770.98 783.07 773.59 779.9 775.62 776.38 776.27 774.68 778.51 775.11 784.12 775.73 789.48 775.7 794.5 775 799.15 773.63 803.34 771.61 805.25 770.34 808.16 767.87 807.03 766.66 808.2 767.83 815.61 760.42" style="fill: #e4e4e4;"/>
    <path d="M752.29,713.8l17.63-13.29M763.05,724.56l13.29-17.63M743.52,711.45l8.35-11.08M765.4,733.33l11.08-8.35M621.65,820.96l.21.75.68,2.07.83,2.1.97,2.11,1.11,2.11,1.25,2.11,1.37,2.08,1.49,2.04,1.6,2,1.7,1.94,1.79,1.87,1.87,1.79,1.94,1.7,2,1.6,2.05,1.49,2.08,1.38,2.1,1.25,2.11,1.12,2.11.98,2.1.83,2.08.69.8.22M752.52,685.28l10.5-10.5M791.57,724.33l10.5-10.5M619.25,805.88v.1s-.08,1.97-.08,1.97l.09,2.05.24,2.12.41,2.18.56,2.23.72,2.27.87,2.29,1.02,2.31,1.16,2.32,1.3,2.31,1.43,2.29,1.55,2.27,1.67,2.23,1.78,2.18,1.88,2.12,1.97,2.04,2.05,1.96,2.12,1.87M768.78,727.02l-5.47-1.46M751.29,713.54l-1.46-5.47M617.27,788.15l.9-2.48,1.17-2.27,1.45-2.06,1.22-1.35M704.16,847.54l-2.78,2.38-3.45,2.05-3.87,1.51-4.22.94-4.48.38-4.65-.18-4.72-.7-4.85-1.19-5.06-1.7-5.18-2.2-5.2-2.69-5.12-3.12-4.95-3.5-4.67-3.81-4.32-4.03-3.91-4.17-3.5-4.27-3.2-4.45-2.83-4.57-2.38-4.6-1.87-4.55-1.32-4.4-.75-4.17-.19-3.87.36-3.5.2-.96M720.22,831.48l-2.78,2.38-3.45,2.04-3.87,1.51-4.22.94-4.48.38-4.65-.18-4.72-.7-4.85-1.19-5.06-1.7-5.18-2.2-5.2-2.69-5.12-3.12-4.95-3.5-4.67-3.81-4.32-4.03-3.91-4.17-3.5-4.27-3.2-4.45-2.82-4.57-2.38-4.6-1.87-4.55-1.32-4.4-.75-4.17-.19-3.87.36-3.5.86-3.11,1.36-2.77,1.86-2.39.12-.1M736.28,815.42l-2.78,2.38-3.45,2.04-3.87,1.51-4.22.94-4.48.38-4.65-.18-4.72-.7-4.85-1.19-5.06-1.7-5.18-2.2-5.2-2.68-5.12-3.12-4.95-3.5-4.67-3.81-4.32-4.04-3.91-4.17-3.5-4.27-3.2-4.45-2.82-4.57-2.38-4.6-1.87-4.55-1.32-4.4-.75-4.17-.19-3.87.36-3.5.86-3.11,1.36-2.77,1.86-2.39.12-.1M752.34,799.35l-2.78,2.38-3.45,2.04-3.87,1.51-4.22.94-4.48.38-4.65-.18-4.71-.7-4.85-1.19-5.06-1.7-5.18-2.2-5.2-2.69-5.12-3.12-4.95-3.51-4.67-3.81-4.32-4.04-3.91-4.17-3.5-4.27-3.2-4.45-2.82-4.57-2.38-4.6-1.87-4.55-1.32-4.4-.76-4.17-.19-3.87.36-3.5.86-3.11,1.36-2.77,1.86-2.39.12-.1M768.4,783.29l-2.78,2.38-3.45,2.04-3.87,1.51-4.22.95-4.48.37-4.65-.18-4.71-.7-4.85-1.19-5.06-1.7-5.18-2.2-5.2-2.69-5.12-3.12-4.95-3.5-4.67-3.81-4.32-4.04-3.91-4.17-3.5-4.27-3.2-4.45-2.82-4.57-2.38-4.6-1.87-4.55-1.32-4.4-.75-4.17-.19-3.87.36-3.5.86-3.11,1.36-2.77,1.86-2.39.12-.1M775.32,772.79l-.95.37-4.22.94-4.48.37-4.65-.18-4.71-.7-4.85-1.19-5.06-1.7-5.18-2.2-5.2-2.68-5.12-3.12-4.95-3.51-4.67-3.81-4.32-4.03-3.91-4.17-3.5-4.27-3.2-4.45-2.82-4.57-2.38-4.6-1.87-4.55-1.32-4.4-.75-4.17-.19-3.87.36-3.5.86-3.11,1.36-2.77,1.86-2.39.12-.1M684.8,854.77l-1.91,1.19-3.04,1.22-3.35.78-3.6.33-3.82-.13-4-.59-4.1-1.03-4.17-1.47-4.22-1.89-4.17-2.27-4.3-2.79-4.13-3.14M626.69,776.6l3.35-.89,2.83-.27M710.96,837.08l-1.13,2.95-1.91,3.29-2.45,2.94-2.98,2.52-3.46,2.03-3.89,1.49-4.23.92-4.49.35-4.65-.2-4.72-.72-4.85-1.21-5.06-1.72-5.18-2.22-5.2-2.7-5.12-3.14-4.94-3.52-4.66-3.82-4.31-4.04-3.9-4.18-3.49-4.27-3.18-4.45-2.81-4.57-2.36-4.6-1.85-4.54-1.3-4.4-.73-4.16-.17-3.86.38-3.49.88-3.1,1.38-2.76,1.88-2.37,2.38-1.92,1.85-1M727.02,821.02l-1.13,2.95-1.91,3.29-2.45,2.94-2.98,2.52-3.46,2.03-3.89,1.49-4.23.92-4.49.35-4.65-.2-4.72-.72-4.85-1.21-5.06-1.71-5.18-2.22-5.2-2.7-5.12-3.14-4.94-3.52-4.66-3.82-4.31-4.05-3.9-4.18-3.48-4.27-3.18-4.46-2.81-4.57-2.36-4.6-1.85-4.54-1.3-4.4-.73-4.16-.17-3.86.38-3.49.88-3.1,1.38-2.76,1.88-2.37,2.38-1.92,2.85-1.42,3.27-.87,1.94-.17M743.09,804.96l-1.13,2.94-1.91,3.29-2.45,2.94-2.98,2.52-3.46,2.03-3.89,1.49-4.23.92-4.49.35-4.66-.2-4.72-.72-4.85-1.21-5.06-1.72-5.18-2.22-5.2-2.7-5.12-3.14-4.94-3.52-4.66-3.82-4.31-4.04-3.9-4.18-3.49-4.27-3.18-4.46-2.81-4.57-2.36-4.6-1.85-4.54-1.3-4.39-.73-4.16-.17-3.86.38-3.49.88-3.1,1.38-2.76,1.89-2.37,2.38-1.92,2.85-1.42,3.27-.87,1.94-.17M759.15,788.9l-1.14,2.95-1.91,3.28-2.45,2.94-2.98,2.52-3.46,2.03-3.89,1.49-4.23.92-4.49.35-4.65-.2-4.72-.72-4.85-1.21-5.06-1.71-5.18-2.22-5.2-2.7-5.12-3.14-4.94-3.52-4.66-3.82-4.31-4.05-3.89-4.18-3.48-4.27-3.18-4.46-2.81-4.57-2.36-4.6-1.85-4.54-1.3-4.4-.73-4.16-.16-3.86.38-3.49.88-3.1,1.38-2.76,1.88-2.37,2.38-1.92,2.85-1.42,3.27-.88,1.94-.17M775.21,772.84l-1.14,2.95-1.91,3.29-2.45,2.94-2.98,2.51-3.46,2.03-3.89,1.49-4.23.92-4.5.35-4.65-.2-4.72-.72-4.85-1.21-5.06-1.71-5.18-2.22-5.2-2.7-5.12-3.14-4.94-3.52-4.66-3.82-4.31-4.04-3.9-4.18-3.48-4.27-3.18-4.46-2.81-4.57-2.36-4.6-1.85-4.54-1.3-4.39-.73-4.16-.17-3.85.38-3.49.88-3.1,1.38-2.76,1.89-2.37,2.38-1.92,2.85-1.41,3.27-.88,1.94-.17M773.72,772.35l-2.51.55-4.49.35-4.66-.2-4.72-.72-4.85-1.21-5.06-1.71-5.18-2.22-5.2-2.7-5.12-3.14-4.94-3.52-4.66-3.82-4.31-4.04-3.9-4.18-3.48-4.27-3.18-4.46-2.81-4.57-2.36-4.6-1.85-4.54-1.3-4.4-.73-4.16-.16-3.86.38-3.49.88-3.1,1.38-2.76,1.88-2.37.72-.58M698.28,721.42l-.11.13-1.13,2.41-.61,2.8-.06,3.2.52,3.55,1.12,3.81,1.7,3.98,2.22,4.03,2.67,3.99,3.02,3.84,3.41,3.72,3.86,3.59,2.64,2.16,2.77,2.05,4.33,2.8,4.46,2.42,4.48,1.98,4.39,1.52,4.21,1.06,4.32.62,4.25.07,4.06-.53,2.74-.82M682.21,737.48l-.1.13-1.13,2.41-.61,2.79-.06,3.2.52,3.55,1.12,3.81,1.7,3.98,2.22,4.03,2.67,3.99,3.02,3.84,3.41,3.72,3.86,3.59,2.64,2.16,2.77,2.05,4.34,2.8,4.46,2.42,4.48,1.98,4.39,1.52,4.21,1.05,4.32.62,4.25.07,4.07-.52,2.74-.82M666.15,753.55l-.1.12-1.13,2.41-.62,2.8-.06,3.2.52,3.55,1.12,3.81,1.7,3.98,2.22,4.03,2.67,3.99,3.02,3.84,3.4,3.72,3.86,3.59,2.64,2.16,2.77,2.05,4.34,2.8,4.46,2.42,4.48,1.98,4.39,1.52,4.21,1.05,4.32.61,4.25.07,4.06-.52,2.74-.82M650.09,769.61l-.1.12-1.13,2.41-.61,2.8-.06,3.2.52,3.55,1.12,3.81,1.7,3.98,2.22,4.04,2.67,3.99,3.02,3.84,3.4,3.72,3.86,3.59,2.64,2.16,2.77,2.05,4.34,2.8,4.46,2.42,4.48,1.98,4.39,1.52,4.21,1.05,4.32.62,4.25.07,4.06-.52,2.74-.82M634.03,785.67l-.1.12-1.13,2.41-.62,2.8-.06,3.2.53,3.55,1.12,3.81,1.7,3.98,2.22,4.03,2.67,3.99,3.02,3.84,3.4,3.72,3.86,3.59,2.64,2.16,2.77,2.05,4.33,2.8,4.46,2.42,4.48,1.98,4.39,1.52,4.21,1.05,4.32.62,4.26.07,4.06-.52,2.74-.82M639.98,844.98l4.34,2.8,4.46,2.42,4.48,1.98,4.39,1.52,4.21,1.05,4.32.62,4.25.06,4.06-.52,2.74-.82M710.19,669.82l-.37.38-1.38,1.59-1.24,1.72-1.1,1.85-.95,1.97-.8,2.09-.64,2.19-.49,2.3-.33,2.4-.17,2.49v2.57s.13,2.65.13,2.65l.3,2.72.46,2.78.62,2.83.77,2.87.92,2.91,1.07,2.94,1.22,2.96,1.36,2.97,1.5,2.98,1.64,2.97,1.76,2.96,1.89,2.94,2.01,2.9,2.12,2.87,2.23,2.82,2.33,2.77,2.43,2.71,2.52,2.63,2.6,2.56,2.67,2.48,2.74,2.38,2.8,2.28,2.85,2.18,2.89,2.07,2.92,1.95,2.95,1.83,2.97,1.7,2.97,1.57,2.98,1.43,2.97,1.29,2.95,1.14,2.93,1,2.9.85,2.85.69,2.8.54,2.75.38,2.68.22,2.61.07,2.53-.09,2.44-.25,2.35-.41,2.25-.56,2.14-.72,2.03-.87,1.91-1.02,1.78-1.17,1.66-1.31,1.16-1.08M769.03,746.88l14.34,3.84M762.13,721.14l6.9,25.73M755.71,714.72l.9.31.91.46.9.59.86.7.79.79.7.86.59.9.46.91.31.9M729.98,707.82l25.74,6.9M726.13,693.48l3.85,14.35M751.87,700.37l-25.74-6.9M755.57,696.67l.16.86v.79l-.16.7-.31.59-.46.46-.59.31-.7.16h-.79l-.86-.16M748.68,670.93l6.9,25.74M763.02,674.78l-14.35-3.85M769.92,700.52l-6.9-25.74M776.34,706.93l-.9-.31-.91-.46-.9-.59-.86-.7-.79-.79-.7-.86-.59-.9-.46-.91-.31-.9M802.07,713.83l-25.73-6.9M805.92,728.18l-3.84-14.34M780.18,721.28l25.74,6.9M776.48,724.98l-.16-.86v-.79s.16-.7.16-.7l.31-.59.46-.46.59-.31.7-.16h.79s.86.16.86.16M783.37,750.72l-6.9-25.74M751.55,656.83l-2.85-.69-2.8-.54-2.75-.38-2.68-.22-2.61-.07-2.53.09-2.45.25-2.35.41-2.25.57-2.14.72-2.03.87-1.91,1.02-1.78,1.17-1.66,1.31-1.52,1.45-1.39,1.59-1.24,1.72-1.1,1.85-.95,1.97-.8,2.08-.64,2.2-.49,2.3-.33,2.4-.17,2.49-.02,2.57.15,2.65.31,2.72.46,2.78.62,2.83.77,2.87.92,2.91,1.07,2.94,1.22,2.96,1.36,2.97,1.5,2.98,1.63,2.97,1.76,2.96,1.89,2.94,2.01,2.91,2.12,2.87,2.23,2.82,2.33,2.77,2.43,2.71,2.52,2.63,2.6,2.56,2.67,2.47,2.74,2.38,2.8,2.28,2.85,2.18,2.89,2.07,2.92,1.95,2.95,1.83,2.97,1.7,2.97,1.57,2.98,1.43,2.97,1.29,2.95,1.14,2.93,1,2.9.85,2.85.69,2.8.54,2.75.38,2.68.22,2.61.07,2.53-.09,2.44-.25,2.35-.41,2.25-.56,2.14-.72,2.03-.87,1.91-1.02,1.79-1.17,1.66-1.31,1.52-1.45,1.38-1.59,1.24-1.72,1.1-1.85.95-1.97.8-2.08.64-2.2.49-2.3.33-2.4.17-2.49v-2.57s-.13-2.65-.13-2.65l-.3-2.71-.46-2.78-.62-2.83-.77-2.87-.92-2.91-1.07-2.94-1.22-2.96-1.36-2.97-1.5-2.98-1.63-2.97-1.77-2.96-1.89-2.94-2.01-2.91-2.12-2.87-2.23-2.82-2.33-2.77-2.43-2.7-2.52-2.64-2.6-2.56-2.67-2.47-2.74-2.38-2.8-2.28-2.84-2.18-2.89-2.07-2.92-1.95-2.95-1.83-2.97-1.7-2.98-1.57-2.98-1.43-2.97-1.29-2.95-1.14-2.93-1-2.9-.85M655.89,855.2l6.46,1.73M620.29,815.9l1.36,5.06M747.05,712.4l8.3-12.91M777.36,721.51l-12.91,8.29M702.8,699.18l-.61.62-.62.62M704.16,847.56l.62-.61.62-.62M720.22,831.5l.62-.61.61-.62M736.28,815.44l.62-.61.62-.62M752.34,799.38l.62-.61.61-.62M768.4,783.32l.62-.61.62-.62M622.5,779.48l-.5.5M638.56,763.42l-.62.62-.62.62M654.62,747.36l-.62.62-.61.62M670.68,731.3l-.61.62-.62.62M686.74,715.24l-.62.62-.61.62M807.03,766.66l7.41-7.41M717.61,662.41l-7.41,7.41" style="fill: none; stroke: #040000; stroke-miterlimit: 10;"/>
    <g style="clip-path: url(#clippath-1);">
      <rect x="140" y="607.17" width="891.32" height="298" rx="41.51" ry="41.51" style="fill: none; stroke: #040000; stroke-miterlimit: 10;"/>
    </g>
    <g>
      <path d="M576.24,2113.54h3.48v28.79h-3.96v-24.04l-5.8,3.4-1.88-3.48,8.16-4.68Z" style="fill: #221714;"/>
      <path d="M582.32,2135.86l3.64-1.52c.92,2.76,3.2,4.52,6.04,4.52,3.4,0,5.72-2.16,5.72-5.24,0-3.24-2.44-5.48-6-5.48-.56,0-1.08.08-1.56.2l-1.88-2.84,6.52-8h-10.76v-3.96h16.36v3.4l-6.28,7.68c4.48.72,7.56,4.28,7.56,9,0,5.36-4,9.12-9.76,9.12-4.44,0-8.12-2.64-9.6-6.88Z" style="fill: #221714;"/>
    </g>
  </g>
</svg>