<?xml version="1.0" encoding="UTF-8"?>
<svg id="Layout" xmlns="http://www.w3.org/2000/svg" viewBox="0 0 1170 2200">
  <defs>
    <style>
      .cls-1 {
        fill: #dc3714;
      }

      .cls-2 {
        fill: #fff;
      }
    </style>
  </defs>
  <rect class="cls-1" y="-166" width="1170" height="2532"/>
  <g>
    <path class="cls-2" d="M257.55,1154.33v-133.32h25.37v52.03h55.18v-52.03h25.37v133.32h-25.37v-55.92h-55.18v55.92h-25.37Z"/>
    <path class="cls-2" d="M426.79,1134.89l12.78-13.33c11.48,10.92,25.37,16.29,42.22,16.29,18.89,0,32.4-8.89,32.4-20.55,0-10.92-10-16.85-34.63-23.89-22.22-6.3-46.11-14.07-46.11-38.33,0-22.22,19.07-35.92,47.4-35.92,18.52,0,36.85,7.96,48.33,21.29l-12.96,12.96c-9.07-10.18-22.04-15.92-36.11-15.92-18.15,0-28.33,6.85-28.33,17.59,0,9.07,9.07,13.7,32.59,20.55,23.89,7.04,48.14,15.74,48.14,41.48,0,23.15-22.59,39.07-51.11,39.07-21.85,0-40.37-7.59-54.62-21.29Z"/>
    <path class="cls-2" d="M554.37,1154.33v-133.32h85.18v18.33h-66.84v35.92h59.44v18.33h-59.44v42.4h66.84v18.33h-85.18Z"/>
    <path class="cls-2" d="M661.77,1021.01h57.4c24.44,0,42.22,18.89,42.22,44.62,0,17.22-8.15,31.11-20.92,38.51l23.89,50.18h-20.37l-21.11-44.25c-1.48.19-2.96.19-4.44.19h-38.33v44.07h-18.33v-133.32ZM680.1,1091.93h37.59c15.18,0,25.37-10.74,25.37-26.29s-10.18-26.29-25.18-26.29h-37.77v52.59Z"/>
    <path class="cls-2" d="M800.83,1154.33h-18.33v-133.32h18.33v133.32Z"/>
    <path class="cls-2" d="M831.19,1154.33v-133.32h85.18v18.33h-66.84v35.92h59.44v18.33h-59.44v42.4h66.84v18.33h-85.18Z"/>
    <path class="cls-2" d="M928.04,1134.89l12.78-13.33c11.48,10.92,25.37,16.29,42.22,16.29,18.89,0,32.4-8.89,32.4-20.55,0-10.92-10-16.85-34.63-23.89-22.22-6.3-46.11-14.07-46.11-38.33,0-22.22,19.07-35.92,47.4-35.92,18.52,0,36.85,7.96,48.33,21.29l-12.96,12.96c-9.07-10.18-22.04-15.92-36.11-15.92-18.15,0-28.33,6.85-28.33,17.59,0,9.07,9.07,13.7,32.59,20.55,23.89,7.04,48.14,15.74,48.14,41.48,0,23.15-22.59,39.07-51.11,39.07-21.85,0-40.37-7.59-54.62-21.29Z"/>
    <path class="cls-2" d="M702.69,1352.72v-133.32h85.18v18.33h-66.84v35.92h59.44v18.33h-59.44v60.73h-18.33Z"/>
    <path class="cls-2" d="M783.05,1352.72l51.85-133.32h19.81l51.85,133.32h-19.63l-11.85-30h-60.55l-11.67,30h-19.81ZM868.23,1304.4l-23.33-60.36-23.52,60.36h46.85Z"/>
    <path class="cls-2" d="M921.74,1219.41h17.22l68.51,99.06v-99.06h18.33v133.32h-17.41l-68.33-99.06v99.06h-18.33v-133.32Z"/>
  </g>
  <g>
    <path class="cls-2" d="M448.43,1936.23v-45.68h14.13v45.68c0,9.69,5.67,15.57,14.85,15.57s14.85-5.88,14.85-15.57v-45.68h14.13v45.68c0,17.43-11.86,29.6-28.98,29.6s-28.98-12.17-28.98-29.6Z"/>
    <path class="cls-2" d="M511.65,1953.86l9.59-10.42c6.6,5.57,13.2,8.35,21.96,8.35s13.92-3.61,13.92-8.35c0-5.16-6.7-7.73-18.36-11.03-11.65-3.3-23.1-8.35-23.1-21.55s12.07-21.35,26.71-21.35c9.9,0,20.73,4.74,26.91,11.86l-10,9.9c-4.74-4.95-11.24-7.63-18.15-7.63s-11.24,2.58-11.24,7.01,6.08,6.39,16.91,9.38c14.02,3.92,24.44,10.11,24.44,23,0,14.33-13.61,22.89-28.67,22.89-12.27,0-22.38-4.43-30.94-12.07Z"/>
    <path class="cls-2" d="M579.91,1964.79v-74.25h48.67v14.13h-34.54v14.85h30.42v14.13h-30.42v17.02h34.54v14.13h-48.67Z"/>
    <path class="cls-2" d="M638.89,1890.55h33.2c13.82,0,24.23,11.24,24.23,26.09,0,8.87-4.12,16.4-10.52,20.93l12.27,27.22h-15.36l-10-22.17c-.62.1-1.24.1-1.86.1h-17.84v22.07h-14.13v-74.25ZM653.02,1928.6h16.6c7.94,0,12.58-4.54,12.58-11.96s-4.64-11.96-12.48-11.96h-16.71v23.92Z"/>
    <path class="cls-2" d="M766.55,1889.52c11.65,0,22.89,5.05,29.9,13.61l-10.11,10c-4.43-5.98-11.55-9.49-19.28-9.49-14.13,0-24.03,9.9-24.03,24.03s9.9,23.92,24.03,24.03c5.46,0,10.72-1.44,14.95-4.02v-10.62h-15.37v-14.13h29.49v31.35c-7.73,7.63-18.35,11.55-29.08,11.55-21.45,0-38.15-16.4-38.15-38.15s16.19-38.15,37.64-38.15Z"/>
    <path class="cls-2" d="M807.9,1936.23v-45.68h14.13v45.68c0,9.69,5.67,15.57,14.85,15.57s14.85-5.88,14.85-15.57v-45.68h14.13v45.68c0,17.43-11.86,29.6-28.98,29.6s-28.98-12.17-28.98-29.6Z"/>
    <path class="cls-2" d="M893.59,1964.79h-14.13v-74.25h14.13v74.25Z"/>
    <path class="cls-2" d="M907.2,1890.55h29.18c20.62,0,35.58,15.47,35.58,37.12s-14.85,37.12-35.58,37.12h-29.18v-74.25ZM921.33,1950.67h15.05c12.79,0,21.45-9.28,21.45-23s-8.66-23-21.45-23h-15.05v45.99Z"/>
    <path class="cls-2" d="M981.65,1964.79v-74.25h48.67v14.13h-34.54v14.85h30.42v14.13h-30.42v17.02h34.54v14.13h-48.67Z"/>
  </g>
  <g>
    <polygon class="cls-2" points="966.22 361.56 902.44 234 902.44 361.56 966.22 361.56"/>
    <polygon class="cls-2" points="1030 234 902.44 234 1030 361.56 1030 234"/>
  </g>
  <g>
    <path class="cls-2" d="M813.85,1823.73c0-12.24,9.96-22.2,22.2-22.2s22.2,9.96,22.2,22.2-9.96,22.2-22.2,22.2-22.2-9.96-22.2-22.2ZM836.05,1837.71c7.74,0,13.98-6.24,13.98-13.98s-6.24-13.98-13.98-13.98-13.98,6.24-13.98,13.98,6.24,13.98,13.98,13.98Z"/>
    <path class="cls-2" d="M863.89,1802.14h7.56l18.54,27.36v-27.36h8.22v43.2h-7.56l-18.54-27.36v27.36h-8.22v-43.2Z"/>
    <path class="cls-2" d="M914.29,1802.14v34.98h19.56v8.22h-27.78v-43.2h8.22Z"/>
    <path class="cls-2" d="M947.23,1845.33h-8.22v-43.2h8.22v43.2Z"/>
    <path class="cls-2" d="M955.15,1802.14h7.56l18.54,27.36v-27.36h8.22v43.2h-7.56l-18.54-27.36v27.36h-8.22v-43.2Z"/>
    <path class="cls-2" d="M997.33,1845.33v-43.2h28.32v8.22h-20.1v8.64h17.7v8.22h-17.7v9.9h20.1v8.22h-28.32Z"/>
  </g>
</svg>