<?xml version="1.0" encoding="UTF-8"?>
<svg id="Layout" xmlns="http://www.w3.org/2000/svg" viewBox="0 0 1170 2200">
  <defs>
    <style>
      .cls-1 {
        fill: #e5e5e6;
      }

      .cls-2 {
        fill: none;
        stroke: #000;
        stroke-miterlimit: 10;
      }

      .cls-3 {
        fill: #dc3714;
      }

      .cls-4, .cls-5 {
        font-family: MusticaPro-Regular, 'Mustica Pro';
      }

      .cls-4, .cls-6 {
        font-size: 40px;
      }

      .cls-7 {
        font-size: 35px;
      }

      .cls-8 {
        font-family: AdobeArabic-Regular, 'Adobe Arabic';
      }

      .cls-5 {
        font-size: 70px;
      }

      .cls-9 {
        font-family: MusticaPro-Light, 'Mustica Pro';
      }

      .cls-9, .cls-10 {
        font-weight: 300;
      }

      .cls-6 {
        fill: #231815;
      }

      .cls-6, .cls-11 {
        font-family: MusticaPro-Medium, 'Mustica Pro';
        font-weight: 500;
      }

      .cls-12 {
        font-family: MicrosoftYaHeiUILight, 'Microsoft YaHei UI';
      }

      .cls-13 {
        font-family: MusticaPro-Bold, 'Mustica Pro';
        font-size: 60px;
        font-weight: 700;
      }

      .cls-11 {
        font-size: 48px;
      }

      .cls-10 {
        font-family: MalgunGothic-Semilight, 'Malgun Gothic';
      }
    </style>
  </defs>
  <text class="cls-4" transform="translate(214.99 675.51)"><tspan x="0" y="0">Short fan screw</tspan><tspan x="0" y="51.9">M5×10mm</tspan></text>
  <text class="cls-7" transform="translate(140 931.31)"><tspan class="cls-9"><tspan x="0" y="0">Short fan screw</tspan></tspan><tspan class="cls-9"><tspan x="0" y="55">Kurze Lüfterschraube</tspan></tspan><tspan class="cls-9"><tspan x="0" y="110">Vis courte pour ventilateur</tspan></tspan><tspan class="cls-9"><tspan x="0" y="165">Vite corta per ventola</tspan></tspan><tspan class="cls-9"><tspan x="0" y="220">Korte ventilatorschroef</tspan></tspan><tspan class="cls-9"><tspan x="0" y="275">Tornillo corto para ventilador</tspan></tspan><tspan class="cls-9"><tspan x="0" y="330">Parafuso curto para ventoinha</tspan></tspan><tspan class="cls-9"><tspan x="0" y="385">Lyhyt tuulettimen ruuvi</tspan></tspan><tspan class="cls-9"><tspan x="0" y="440">Kort fläktskruv</tspan></tspan><tspan class="cls-9"><tspan x="0" y="495">Kort ventilatorskrue</tspan></tspan><tspan class="cls-9"><tspan x="0" y="550">Короткий гвинт для вентилятора</tspan></tspan><tspan class="cls-9"><tspan x="0" y="605">Rövid ventilátorcsavar</tspan></tspan><tspan class="cls-9"><tspan x="0" y="660">Krótka śruba wentylatora</tspan></tspan><tspan class="cls-9"><tspan x="0" y="715">Kısa fan vidası</tspan></tspan><tspan class="cls-9"><tspan x="0" y="770">Parafuso curto para ventoinha</tspan></tspan><tspan class="cls-12"><tspan x="0" y="825">風扇用短ネジ</tspan></tspan><tspan class="cls-12"><tspan x="0" y="880">风扇短螺丝</tspan></tspan><tspan class="cls-12"><tspan x="0" y="935">風扇短螺絲</tspan></tspan><tspan class="cls-10"><tspan x="0" y="990">짧은 팬 나사</tspan></tspan><tspan class="cls-8"><tspan x="141.33" y="1045">مسمار</tspan></tspan></text>
  <text class="cls-5" transform="translate(880.25 708.6)"><tspan x="0" y="0">×4</tspan></text>
  <g>
    <polygon class="cls-1" points="785.56 688.98 785.54 688.96 786 688.52 788.81 684.96 789.97 682.99 791.81 678.69 792.98 673.95 793.51 668.85 793.36 663.44 792.57 657.77 791.14 651.92 789.1 645.95 786.47 639.89 783.28 633.84 779.57 627.85 775.37 622 770.74 616.33 765.72 610.92 763.09 608.32 757.6 603.4 751.88 598.87 745.97 594.79 739.96 591.21 733.9 588.16 727.86 585.67 721.96 583.8 716.07 582.53 710.45 581.9 705.11 581.94 700.07 582.64 695.44 584 691.25 586.03 689.34 587.29 687.57 588.7 678.97 597.22 680.14 598.39 678.96 597.23 675.72 601.24 674.56 603.21 672.72 607.51 671.55 612.25 671.02 617.35 671.17 622.76 671.65 626.55 670.35 627.81 670.35 627.81 670.22 627.92 668.05 630.77 666.58 633.82 665.67 637.21 665.6 637.95 661.15 639.02 658 640.63 655.54 642.66 654.29 643.87 654.29 643.87 654.15 643.98 651.99 646.82 650.52 649.88 649.61 653.27 649.54 654 645.09 655.08 641.94 656.69 639.48 658.72 638.23 659.93 638.23 659.94 638.09 660.05 635.93 662.88 634.46 665.94 633.55 669.33 633.48 670.07 629.03 671.14 625.88 672.75 623.42 674.78 622.16 675.99 622.17 676 622.03 676.11 619.87 678.95 618.4 682 617.49 685.39 617.42 686.13 612.97 687.21 609.82 688.81 607.36 690.84 606.1 692.05 606.11 692.06 605.97 692.17 603.81 695.01 602.34 698.06 601.43 701.45 601.32 702.51 599.57 702.68 596.22 703.56 596.64 705.16 595.85 703.71 593.76 704.87 591.3 706.91 591.27 706.88 590.78 707.49 590.73 707.44 589.37 708.96 587.82 711.21 586.56 713.67 585.66 716.16 586.59 716.5 586.58 716.59 585.6 716.38 585 721.27 585.21 725.34 586.01 729.7 587.39 734.26 587.46 736.58 587.82 740.97 588.66 744.88 588.64 744.89 590 749.95 590.32 749.86 590.33 749.88 590.01 749.97 591.82 755.14 593.98 759.51 596.68 763.83 599.87 767.99 603.45 771.91 605.38 773.75 609.43 777.14 613.69 780.11 618.05 782.54 622.45 784.43 625.39 785.36 625.52 784.89 625.54 784.9 625.41 785.37 631.87 787.1 631.89 787.05 634.79 787.77 638.96 788.37 642.99 788.5 646.81 788.13 650.41 787.27 653.71 785.93 655.2 785 660.14 784.59 664.6 783.58 668.72 781.95 672.39 779.74 675.18 777.36 676.5 776.07 676.49 776.05 676.69 775.88 679.3 772.71 681.32 769.19 682.2 766.92 684.79 765.89 688.46 763.68 691.24 761.3 692.57 760.01 692.55 759.99 692.75 759.82 695.35 756.65 697.38 753.13 698.26 750.85 700.85 749.83 704.52 747.62 707.3 745.24 708.63 743.95 708.61 743.93 708.81 743.76 711.42 740.59 713.44 737.07 714.32 734.79 716.91 733.77 720.58 731.56 723.36 729.18 724.69 727.89 724.67 727.87 724.87 727.69 727.48 724.53 729.51 721 730.38 718.73 732.97 717.7 736.64 715.49 739.42 713.12 740.75 711.82 740.73 711.81 740.93 711.63 743.54 708.47 745.57 704.94 746.22 703.25 748.46 703.67 754.07 704.3 759.43 704.27 764.45 703.56 769.09 702.2 773.28 700.17 775.2 698.91 778.11 696.44 776.98 695.23 778.15 696.4 785.56 688.98"/>
    <path class="cls-2" d="M722.24,642.37l17.63-13.29M733,653.13l13.29-17.63M713.46,640.02l8.35-11.08M735.35,661.9l11.08-8.35M591.6,749.52l.21.75.68,2.07.83,2.1.97,2.11,1.11,2.11,1.25,2.1,1.37,2.08,1.49,2.04,1.6,2,1.7,1.94,1.79,1.87,1.87,1.79,1.94,1.7,2,1.6,2.04,1.49,2.08,1.38,2.1,1.25,2.11,1.12,2.11.98,2.1.83,2.08.68.8.22M722.47,613.85l10.5-10.5M761.52,652.9l10.5-10.5M589.2,734.44v.1s-.09,1.97-.09,1.97l.09,2.05.25,2.12.41,2.18.56,2.23.72,2.27.87,2.3,1.02,2.31,1.16,2.32,1.3,2.31,1.43,2.29,1.56,2.27,1.67,2.23,1.78,2.18,1.88,2.12,1.97,2.04,2.05,1.96,2.12,1.87M738.73,655.59l-5.47-1.46M721.24,642.1l-1.46-5.47M587.21,716.72l.9-2.48,1.17-2.27,1.45-2.06,1.22-1.35M674.1,776.1l-2.78,2.38-3.45,2.04-3.87,1.51-4.22.94-4.48.38-4.65-.18-4.72-.7-4.85-1.19-5.06-1.7-5.18-2.2-5.2-2.68-5.12-3.12-4.95-3.51-4.67-3.81-4.32-4.04-3.91-4.17-3.5-4.27-3.2-4.45-2.83-4.57-2.38-4.6-1.87-4.55-1.32-4.4-.75-4.17-.19-3.87.36-3.51.2-.96M690.16,760.04l-2.78,2.38-3.45,2.04-3.87,1.51-4.22.94-4.48.38-4.65-.18-4.72-.7-4.85-1.19-5.06-1.7-5.18-2.2-5.2-2.68-5.12-3.12-4.95-3.51-4.67-3.81-4.32-4.04-3.91-4.17-3.5-4.27-3.2-4.45-2.82-4.57-2.38-4.6-1.87-4.55-1.32-4.4-.75-4.17-.19-3.87.36-3.51.86-3.11,1.36-2.77,1.86-2.39.12-.1M706.22,743.98l-2.78,2.38-3.45,2.04-3.87,1.51-4.22.94-4.48.38-4.65-.18-4.72-.7-4.85-1.19-5.06-1.7-5.18-2.2-5.2-2.68-5.12-3.12-4.95-3.51-4.67-3.81-4.32-4.04-3.91-4.17-3.5-4.27-3.2-4.45-2.82-4.57-2.38-4.6-1.87-4.55-1.32-4.4-.75-4.17-.19-3.87.36-3.51.86-3.11,1.36-2.77,1.86-2.39.12-.1M722.29,727.92l-2.78,2.38-3.45,2.04-3.87,1.51-4.22.94-4.48.38-4.65-.18-4.72-.7-4.85-1.19-5.06-1.7-5.18-2.2-5.2-2.68-5.12-3.12-4.95-3.51-4.67-3.81-4.32-4.04-3.91-4.17-3.5-4.27-3.2-4.45-2.82-4.57-2.38-4.6-1.87-4.55-1.32-4.4-.75-4.17-.19-3.87.36-3.51.86-3.11,1.36-2.77,1.86-2.39.12-.1M738.35,711.86l-2.78,2.38-3.45,2.04-3.87,1.51-4.22.94-4.48.37-4.65-.18-4.72-.7-4.85-1.19-5.06-1.7-5.18-2.2-5.2-2.68-5.12-3.12-4.95-3.51-4.67-3.81-4.32-4.04-3.91-4.17-3.5-4.27-3.2-4.45-2.82-4.57-2.38-4.6-1.87-4.55-1.32-4.4-.75-4.17-.19-3.87.36-3.51.86-3.11,1.36-2.77,1.86-2.39.12-.1M745.27,701.36l-.96.37-4.22.94-4.48.37-4.65-.18-4.72-.7-4.85-1.19-5.06-1.7-5.18-2.2-5.2-2.68-5.12-3.12-4.95-3.51-4.67-3.81-4.32-4.04-3.91-4.17-3.5-4.27-3.2-4.45-2.82-4.57-2.38-4.6-1.87-4.55-1.32-4.4-.75-4.17-.19-3.87.36-3.51.86-3.11,1.36-2.77,1.86-2.39.12-.1M654.75,783.34l-1.91,1.19-3.04,1.22-3.35.78-3.6.33-3.82-.13-4-.59-4.1-1.03-4.17-1.47-4.22-1.89-4.17-2.27-4.3-2.79-4.13-3.14M596.64,705.16l3.35-.89,2.83-.27M680.91,765.65l-1.13,2.94-1.91,3.29-2.45,2.94-2.98,2.52-3.46,2.03-3.89,1.49-4.23.92-4.49.35-4.65-.2-4.72-.72-4.85-1.21-5.06-1.72-5.18-2.22-5.2-2.7-5.12-3.14-4.94-3.52-4.66-3.82-4.31-4.04-3.89-4.18-3.49-4.27-3.18-4.46-2.81-4.57-2.36-4.6-1.85-4.54-1.3-4.39-.73-4.16-.17-3.86.38-3.49.88-3.1,1.38-2.76,1.88-2.37,2.38-1.92,1.85-1M696.97,749.59l-1.13,2.94-1.91,3.29-2.45,2.94-2.98,2.52-3.46,2.03-3.89,1.49-4.23.92-4.49.35-4.65-.2-4.72-.72-4.85-1.21-5.06-1.72-5.18-2.22-5.2-2.7-5.12-3.14-4.94-3.52-4.66-3.82-4.31-4.04-3.89-4.18-3.49-4.27-3.18-4.46-2.81-4.57-2.36-4.6-1.85-4.54-1.3-4.39-.73-4.16-.17-3.86.38-3.49.88-3.1,1.38-2.76,1.88-2.37,2.38-1.92,2.85-1.42,3.27-.87,1.94-.17M713.03,733.52l-1.13,2.94-1.91,3.29-2.45,2.94-2.98,2.52-3.46,2.03-3.89,1.49-4.23.92-4.49.35-4.65-.2-4.72-.72-4.85-1.21-5.06-1.72-5.18-2.22-5.2-2.7-5.12-3.14-4.94-3.52-4.66-3.82-4.31-4.04-3.89-4.18-3.49-4.27-3.18-4.46-2.81-4.57-2.36-4.6-1.85-4.54-1.3-4.39-.73-4.16-.17-3.86.38-3.49.88-3.1,1.38-2.76,1.88-2.37,2.38-1.92,2.85-1.42,3.27-.87,1.94-.17M729.1,717.46l-1.14,2.95-1.91,3.28-2.45,2.94-2.98,2.52-3.46,2.03-3.89,1.49-4.23.92-4.49.35-4.65-.2-4.72-.72-4.85-1.21-5.06-1.72-5.18-2.22-5.2-2.7-5.12-3.14-4.94-3.52-4.66-3.82-4.31-4.04-3.89-4.18-3.49-4.27-3.18-4.46-2.81-4.57-2.36-4.6-1.85-4.54-1.3-4.39-.73-4.16-.17-3.86.38-3.49.88-3.1,1.38-2.76,1.88-2.37,2.38-1.92,2.85-1.41,3.27-.88,1.94-.17M745.16,701.4l-1.14,2.95-1.91,3.29-2.45,2.94-2.98,2.51-3.46,2.03-3.89,1.49-4.23.92-4.49.35-4.65-.2-4.72-.72-4.85-1.21-5.06-1.72-5.18-2.22-5.2-2.7-5.12-3.14-4.94-3.52-4.66-3.82-4.31-4.04-3.9-4.18-3.48-4.27-3.18-4.46-2.81-4.57-2.36-4.6-1.85-4.54-1.3-4.39-.73-4.16-.17-3.86.38-3.49.88-3.1,1.38-2.76,1.88-2.37,2.38-1.92,2.85-1.41,3.27-.88,1.94-.17M743.67,700.92l-2.51.55-4.49.35-4.65-.2-4.72-.72-4.85-1.21-5.06-1.72-5.18-2.22-5.2-2.7-5.12-3.14-4.94-3.52-4.66-3.82-4.31-4.04-3.9-4.18-3.48-4.27-3.18-4.46-2.81-4.57-2.36-4.6-1.85-4.54-1.3-4.4-.73-4.16-.17-3.86.38-3.49.88-3.1,1.38-2.76,1.88-2.37.72-.58M668.22,649.99l-.1.13-1.13,2.41-.61,2.8-.06,3.2.52,3.55,1.12,3.81,1.7,3.98,2.22,4.03,2.67,3.99,3.02,3.84,3.41,3.72,3.86,3.59,2.64,2.16,2.77,2.05,4.33,2.8,4.46,2.42,4.48,1.98,4.39,1.52,4.21,1.06,4.32.62,4.25.07,4.07-.52,2.74-.82M652.16,666.05l-.1.13-1.13,2.41-.61,2.8-.06,3.2.52,3.55,1.12,3.81,1.7,3.98,2.22,4.03,2.67,3.99,3.02,3.84,3.41,3.72,3.86,3.59,2.64,2.16,2.77,2.05,4.34,2.8,4.46,2.42,4.48,1.98,4.39,1.52,4.21,1.05,4.32.62,4.25.07,4.07-.52,2.74-.82M636.1,682.11l-.1.12-1.13,2.41-.62,2.8-.06,3.2.52,3.55,1.12,3.81,1.7,3.97,2.22,4.04,2.67,3.99,3.02,3.84,3.4,3.72,3.86,3.59,2.64,2.16,2.77,2.05,4.34,2.8,4.46,2.42,4.48,1.98,4.39,1.52,4.21,1.05,4.32.62,4.25.07,4.06-.52,2.74-.82M620.04,698.17l-.1.12-1.13,2.41-.62,2.8-.06,3.2.52,3.55,1.12,3.81,1.7,3.97,2.22,4.04,2.67,3.99,3.02,3.84,3.4,3.72,3.86,3.59,2.64,2.16,2.77,2.05,4.34,2.8,4.46,2.42,4.48,1.98,4.39,1.52,4.21,1.05,4.32.62,4.25.07,4.06-.52,2.74-.82M603.98,714.24l-.1.12-1.13,2.41-.62,2.8-.06,3.2.52,3.55,1.12,3.81,1.7,3.97,2.22,4.04,2.67,3.99,3.02,3.84,3.4,3.72,3.86,3.59,2.64,2.16,2.77,2.05,4.33,2.8,4.46,2.42,4.48,1.98,4.39,1.52,4.21,1.05,4.32.62,4.25.07,4.06-.52,2.74-.82M609.93,773.54l4.33,2.8,4.46,2.42,4.48,1.98,4.39,1.52,4.21,1.05,4.32.62,4.25.07,4.06-.52,2.74-.82M680.14,598.39l-.37.38-1.38,1.59-1.24,1.72-1.1,1.85-.95,1.97-.8,2.09-.64,2.2-.49,2.3-.33,2.4-.17,2.49v2.57s.13,2.65.13,2.65l.3,2.72.46,2.78.62,2.83.77,2.87.92,2.91,1.07,2.94,1.22,2.96,1.36,2.97,1.5,2.98,1.64,2.97,1.76,2.96,1.89,2.94,2.01,2.91,2.12,2.87,2.23,2.82,2.33,2.77,2.43,2.71,2.52,2.63,2.6,2.56,2.67,2.48,2.74,2.38,2.8,2.28,2.85,2.18,2.89,2.07,2.92,1.95,2.95,1.83,2.97,1.7,2.97,1.57,2.98,1.43,2.97,1.29,2.95,1.14,2.93,1,2.89.85,2.85.69,2.8.54,2.75.38,2.68.22,2.61.07,2.53-.09,2.44-.25,2.35-.41,2.25-.56,2.14-.72,2.03-.87,1.91-1.02,1.78-1.17,1.65-1.31,1.16-1.08M738.98,675.44l14.34,3.84M732.08,649.71l6.9,25.74M725.66,643.29l.9.31.91.46.9.59.86.7.79.79.7.86.59.9.46.91.31.9M699.92,636.39l25.74,6.9M696.08,622.04l3.85,14.35M721.81,628.94l-25.74-6.9M725.52,625.24l.16.86v.79s-.16.7-.16.7l-.31.59-.46.46-.59.31-.7.16h-.79s-.86-.16-.86-.16M718.62,599.5l6.9,25.74M732.97,603.35l-14.35-3.85M739.87,629.08l-6.9-25.74M746.29,635.5l-.9-.31-.91-.46-.9-.59-.86-.7-.79-.79-.7-.86-.59-.9-.46-.91-.31-.9M772.02,642.4l-25.74-6.9M775.86,656.74l-3.84-14.34M750.13,649.85l25.74,6.9M746.42,653.55l-.16-.86v-.79s.16-.7.16-.7l.31-.59.46-.46.59-.31.7-.16h.79s.86.16.86.16M753.32,679.29l-6.9-25.74M721.5,585.39l-2.85-.69-2.8-.54-2.75-.38-2.68-.22-2.61-.07-2.53.09-2.44.25-2.35.41-2.25.57-2.14.72-2.03.87-1.91,1.02-1.78,1.17-1.66,1.31-1.52,1.45-1.38,1.59-1.24,1.72-1.1,1.85-.95,1.97-.8,2.09-.64,2.2-.49,2.3-.33,2.4-.17,2.49-.02,2.57.15,2.65.3,2.72.46,2.78.62,2.83.77,2.87.92,2.91,1.07,2.94,1.22,2.96,1.36,2.97,1.5,2.98,1.63,2.97,1.77,2.96,1.89,2.94,2.01,2.91,2.12,2.87,2.23,2.82,2.33,2.77,2.43,2.71,2.52,2.63,2.6,2.56,2.67,2.47,2.74,2.38,2.8,2.28,2.85,2.18,2.89,2.07,2.92,1.95,2.95,1.83,2.97,1.7,2.97,1.57,2.98,1.43,2.97,1.29,2.95,1.14,2.93,1,2.9.85,2.85.69,2.8.54,2.75.38,2.68.22,2.61.07,2.53-.09,2.44-.25,2.35-.41,2.25-.56,2.14-.72,2.03-.87,1.91-1.02,1.78-1.17,1.66-1.31,1.52-1.45,1.38-1.59,1.24-1.72,1.1-1.85.95-1.97.8-2.09.64-2.2.49-2.3.33-2.4.17-2.49v-2.57s-.13-2.65-.13-2.65l-.3-2.72-.46-2.78-.62-2.83-.77-2.87-.92-2.91-1.07-2.94-1.22-2.96-1.36-2.97-1.5-2.98-1.63-2.97-1.77-2.96-1.89-2.94-2.01-2.91-2.12-2.87-2.23-2.82-2.33-2.77-2.43-2.7-2.52-2.64-2.6-2.56-2.67-2.47-2.74-2.38-2.8-2.28-2.85-2.18-2.89-2.07-2.92-1.95-2.95-1.83-2.97-1.7-2.98-1.57-2.97-1.43-2.97-1.29-2.95-1.14-2.93-1-2.9-.85M625.84,783.77l6.47,1.73M590.24,744.46l1.36,5.06M716.99,640.96l8.29-12.91M747.31,650.08l-12.91,8.29M672.75,627.75l-.62.62-.62.62M674.1,776.13l.62-.61.62-.62M690.17,760.07l.62-.61.62-.62M706.23,744l.62-.61.62-.62M722.29,727.94l.62-.61.62-.62M738.35,711.88l.62-.61.62-.62M592.44,708.05l-.49.49M608.51,691.99l-.62.62-.62.62M624.57,675.93l-.62.62-.62.62M640.63,659.87l-.62.62-.62.62M656.69,643.81l-.62.62-.62.62M776.98,695.22l7.41-7.41M687.55,590.97l-7.41,7.41"/>
  </g>
  <text class="cls-13" transform="translate(401.4 197.73)"><tspan x="0" y="0">Accessory Kit</tspan></text>
  <text class="cls-6" transform="translate(560.66 2146.36)"><tspan x="0" y="0">04</tspan></text>
  <g>
    <text class="cls-11" transform="translate(455.62 390.46)"><tspan x="0" y="0">Single Pack</tspan></text>
    <g>
      <rect class="cls-3" x="526.4" y="430.86" width="32.04" height="32.04"/>
      <path class="cls-3" d="M600.02,431.86v30.04h-30.04v-30.04h30.04M601.02,430.86h-32.04v32.04h32.04v-32.04h0Z"/>
      <path class="cls-3" d="M642.6,431.86v30.04h-30.04v-30.04h30.04M643.6,430.86h-32.04v32.04h32.04v-32.04h0Z"/>
    </g>
  </g>
  <rect class="cls-2" x="140" y="535.74" width="891.32" height="298" rx="41.51" ry="41.51"/>
</svg>