<?xml version="1.0" encoding="UTF-8"?>
<svg id="Layout" xmlns="http://www.w3.org/2000/svg" viewBox="0 0 1170 2200">
  <defs>
    <style>
      .cls-1 {
        font-size: 60px;
      }

      .cls-2 {
        fill: none;
        stroke: #000;
        stroke-miterlimit: 10;
      }

      .cls-3, .cls-4 {
        font-family: MusticaPro-Regular, 'Mustica Pro';
      }

      .cls-5 {
        font-family: MusticaPro-Light, 'Mustica Pro';
        font-weight: 300;
      }

      .cls-5, .cls-4 {
        font-size: 35px;
      }

      .cls-6 {
        fill: #231815;
        font-family: MusticaPro-Medium, 'Mustica Pro';
        font-size: 40px;
        font-weight: 500;
      }

      .cls-7, .cls-8 {
        font-family: MusticaPro-Bold, 'Mustica Pro';
        font-weight: 700;
      }

      .cls-8 {
        fill: #dc3714;
      }
    </style>
  </defs>
  <path class="cls-2" d="M445.3,645.87l-7.88,4.55M447.19,667.33l7.88-4.55M508.84,601.11l.14-.08M522.14,632.77l-2.2,1.48-2.69,1.75-2.92,1.87M519.25,611.64l-5.67-4.37M515.39,606.22l2.24-1.29M478.49,390.68v-2.54M694.84,762.89l-2.2-1.27M472.57,641.4l-1.01.58-2.77,1.6-2.42,1.4-2.01,1.16-3.64,2.1-3.41,1.97-3.48,2.01-3.55,2.04M713.93,751.47l.02.4M495.69,378.21l-.93,1-.97,1.05-.85.94-.74.83-.12.14-.64.73-.91,1.03-.87.99-.32.37-.27.31-.22.26-.17.2-.29.33-.21.25-.14.17-.41.48-.11.13-.03.03h0s0,.01,0,.01h0s0,0,0,0l-1.63,1.95-1.8,2.22-1.22,1.54M713.93,751.47l-5.24,1.99-5.4,1.59-5.72,1.22-4.93.68M415.24,652.51v-.98s0-26.39,0-26.39v-9.32s0-10.45,0-10.45v-3.76s0-.48,0-.48M478.77,711.18l-.41-.24-3.25-1.88-17.11-9.89-4.89-2.82-9.05-5.22-9.02-5.2-.8-.46M673.77,684.5l-21.7-37.59M662.05,816.98l-19.1-11.04-8.07-4.65-9.04-5.22-2.51-1.45-.75-.43-.41-.24M415.24,435.55v-.48s0-3.76,0-3.76v-19.75s0-5.64,0-5.64v-10.46s0-6.02,0-6.02M483.6,327.76l1.11-.53,2.47-.57,2.73.11,2.91.78,3,1.43M432.5,365.51l-3-1.43-2.91-.78-2.73-.11-2.47.57-1.11.53M438.26,362.19l3.29,2.27,3.17,2.92,2.94,3.46,2.23,3.34M467.61,384.4l39.45-22.77M754.75,777.48l-.26,3.31-.78,2.91-1.27,2.42-1.73,1.85-1.02.69M732.1,751.4l-39.45,22.77M697.21,810.7l-.32-3.99-.94-4.21-1.53-4.27-1.78-3.6M686.4,825.2l1.02-.7,1.73-1.85,1.27-2.42.78-2.91.26-3.31M568.22,738.88l3.41-2M553.33,747.6l7.04-4.12M477.26,422.74l-.88.49-1.71.85-1.3.55-1.82.61-2.77.58-2.42.17-2.01-.09-3.63-.66-3.41-1.21-3.48-1.87-3.54-2.69M664.27,746.65l-.52.31-1.49.96-1.37,1-1.41,1.21-1.96,2.13-1.29,1.84-1.15,2.16-1.32,3.78-.62,3.69-.08,1.3-.02,1.31.05,1.32.15,1.65.39,2.34M720.62,465.34l-2.54,1.95-1.98,2.84-1.12,3.1M739.4,515.51l3.25.58,3.45-.3,2.96-1.22M495.8,328.97l.52-.25.51-.13h.47s.42.11.42.11l.11.06M754.75,777.48l.47-.33.36-.37.24-.41.11-.42v-.13M755.94,496.71v.14s-.11.42-.11.42l-.24.41-.36.37-.47.33M739.54,468.29l-.13-.07-.42-.12h-.47s-.51.13-.51.13l-.52.25M709.01,476.67l-.93-1.3-1.09-1.51-.18-.24-.95-1.31-1.34-1.86-1.29-1.78-.48-.66-.41-.56-.33-.46-.26-.36-.43-.59-.32-.44-.22-.3-.62-.85-.16-.22-.04-.06v-.02s-.02,0-.02,0h0s0,0,0,0l-2.5-3.39-2.83-3.79-3.42-4.55-2.75-3.61-2.94-3.75M733.27,519.05l.14.28,4.22,8.67,4.06,8.95,3.86,9.19,3.49,9.02M658.4,545.36l5.14-2.97M653.78,525.48l-5.14,2.97M665.56,745.84l-.43.3M478.62,422.02l-.49.23M455.66,444.03l6.02-8.13,7.73-7.57,7.86-5.48M439.4,507.87l.64-14.6,1.9-13.72,3.15-12.71,1.19-3.16M443.03,544.74l2.07,10.73,4.37,16.63,5.55,16.75,6.67,16.7,7.73,16.5,2.22,4.11M439.4,507.87l.33,8.01M545.04,718.37l-11.8-10.22-12.22-12.1-11.73-13.18-11.13-14.13-10.42-14.94-4.85-7.88M571.63,736.88l-6.29-3.99M571.63,736.88l12.96,6.75,12.84,5.21,12.59,3.63,12.22,2,11.73.37,11.13-1.28,10.42-2.91,8.67-4.07M509.79,611.32l12.57,9.9M709.75,663.91l-.66,15.25-1.99,14.33-3.29,13.28-4.57,12.1-5.79,10.8-.8,1.08M505.12,406.05l1.53-.1,2.91-.06,3.12.04,3.72.2,2.39.21,4.09.49,5.54.93,4.05.87,5.15,1.34,5.98,1.87,3.65,1.29,8.9,3.63,7.49,3.59,7.99,4.35M736.45,648.5l-.21-8.93-.55-8.22-1.21-10.87-1.17-7.65-1.02-5.56-.98-4.8-.89-4.02-.8-3.4-.9-3.63-1.08-4.1-.94-3.36-.75-2.56-.81-2.67-1.26-4.01-1.41-4.25-1.27-3.66-1.47-4.05-2.05-5.39-2.01-5-1.48-3.54-.9-2.1-1.86-4.21-2.78-6.02-1.23-2.52M683.01,491.68l-1.19-1.75-1.34-1.94-1.36-1.94-1.38-1.93-1.4-1.93-1.42-1.93-1.37-1.83-2.36-3.09-3.39-4.31-4.46-5.45-2.91-3.43-3.12-3.56-3.72-4.09-2.39-2.55-4.09-4.22-5.54-5.45-4.05-3.79-5.15-4.61-5.98-5.06-3.65-2.92-8.9-6.63-7.49-5.07-7.99-4.89M478.77,398.86l5.58,3.34,5.95,3.77,5.77,3.84,6.19,3.94,2.4,1.39M660.2,496.95l1.04-.37h.46s.42.11.42.11l.1.07M508.54,408.04l.67.37,2.47,1.45,2.88,1.73,3.33,2.02,3.7,2.26,7.99,4.93,6.98,4.32,6.29,3.87,5.6,3.39,4.91,2.89M448.53,373.39h-.01s-.93-.19-.93-.19l-1.09.38M685.7,757.27l-.15-8.18-.36-7.34-.54-9.01-.1-6.17M691.45,797.86l.84-.7.24-.4.11-.43-.02-.12M692.64,726.71l-.02-3.55-.06-3.06-.06-2.72-.02-1.13-.06-2.6-.08-3.08-.2-7.1-.22-7.32-.25-8.62-.15-7.19-.06-5.87M692.64,549.43v.02s-.31.89-.31.89l-.88.75M622.17,481.64l-7-3.86-6.07-3.09-6.86-3.33-4.77-2.63M653.04,537.18h0s.05-.02.05-.02l.15-.08.38-.23M685.7,591.68l-.04,4.32-.21,6.42-.54,7.77-.35,6.18v2.39M692.64,619.36v.16s-.02,3.33-.02,3.33l-.06,3.79-.09,4.3-.11,4.71-.27,10.04-.25,8.66-.21,7.68-.13,6.71-.05,5.75M692.65,577.22l.85,2.27,1.51,4.24,1.52,4.48,1.69,5.26,1.02,3.35,1.62,5.65,1.96,7.52,1.27,5.4,1.41,6.77,1.37,7.72.71,4.62,1.3,11.02.64,9.02.23,9.37M571.65,424.71l12.01,7.54,11.23,8.15,10.39,8.53,9.53,8.69,11.36,11.52,9.84,11.1,2.08,2.58M601.8,461.87l-3.29-1.88-3.04-1.69-2.63-1.45-1.08-.59-2.48-1.36-2.91-1.59-6.68-3.62-6.8-3.67-7.91-4.28-6.46-3.56-5.17-2.92M719.74,470.48l-.2.14M679.94,501.71l-3.29-1.54-3.17-.75-2.94.07-1.71.58M697.21,531.61l-.32,3.62-.94,3.12-1.53,2.51-1.32,1.15M743.92,512.87l.23-.1M658.68,533.92l.48-.28M481.62,631.49l.03,1.38-.36,1.88-.45.92-.93.8M480.59,623.78l.54-.38.85-1.44.37-1.91M442.59,545.5l-.83.79M448.98,538.68l-.64.61M455.95,533.68l.56-.41.04-.07M482.55,611.89l.54-.4.4-.48.49-1.08.2-.94M482.03,641.03l.07.82.06.68.06.64M503.86,571.7l-5.68,4.64-7.33,9.07-5.98,11.16-4.28,12.74-.48,1.97M637.16,741.66l-1.94-1.17-1.83-.65-1.03-.06-1.16.42M467.66,466.63l-.26-.1-.29-.29-.22-.38-.22-.96-.07-1.04.41-4.33M524.71,625.19l-.2,7.34,1.25,16.06,2.99,17.05,4.62,17.19.8,2.49M479.02,463.65l-.79,4.22-.04,1.02.11.94.16.38.23.29.17.1M437.38,553.34l-.13.35-.98.91M535.43,521.22l-1.67.15-2.26.33-2.77.65-3.17,1.07-3.44,1.58-3.57,2.17-1.44,1.14M561.94,657.53l5.55,11.69,8.96,15.7,10.25,15.13,11.05,13.77,1.66,1.87M627.47,734.55l.48.38.52.41,1.06.81,1.93,1.46M646.25,746.79l-.25-.14-1.5-.6-1.64-.22-1.21.41M489.74,474.99l.06.49.19.37.18.13M655.27,687.04l.63-.27.84.03M508.18,431.77l-.04.46.13.32h.04M519.18,442.19l-.09-.1-.03-.22.2-.64.37-.73,2.1-3.19M665.37,686.42l-1.1.32M529.58,452.87l-.05-.1.03-.2.31-.56.47-.65,2.43-2.84M543.26,460.67l-2.76,2.52-.56.58-.42.48-.09.16v.08M616.3,630.7l1.41-.97,1.74-.82,1.41-.48,1.48-.36,3.68-.42h3.62s3.03.21,3.03.21l.13.02M673.52,684.59l-.85.25M548.9,476.52l-.23.19-.08.1h.01M684.24,688.52l-.4.5-.03.69.56,1.51.14.31M598.79,657.44l.96-.27,2.04-.55,1.62-.42,3.05-.98,2.05-1.34,1.3-2.08.14-.66M645.8,685.72l.63-.26.64-.09,1.27.14.12.04M514.11,426.12l4.75-2.74M612.37,532.09l-.39-.22-.22-.28v-.12M614.78,518.94l-3.95-.06-.88-.1-.73-.21-.24-.17-.13-.21h0M604.83,504.55l.07.13.21.12.68.11.83.02,3.8-.3M657.91,596.95l-.05.32.1.42.21.41.7.74.85.65,3.88,2.1M593.87,477.08l-.34.05-.12-.05M599.67,490.79l.02.06.16.08h.61s.77-.07.77-.07l3.65-.72M661.84,576.73l-.44-.42-.22-.47.02-.2M660.15,586.77l-.04.16.07.39.2.38.69.68.86.58,3.96,1.82M670.24,581.88l3.55-2.05M602.52,477.16l3.6-2.08M616.3,630.7l1.84-.63,2.57-.3,2.33.1M511.21,604.25l-.5.28-.61.34-.7.39-.74.41M506.25,606.95l1.15-.61,1.25-.67M512.94,603.32l-.16.03-1.49-.16-1.32-.69-.53-.5-.61-.89M509.79,611.32l.37-.61.44-.62.49-.61.52-.58.53-.53.52-.46.49-.37.44-.27M424.45,663.2l.25-1.7.73-1.24,1.15-.66,1.44-.02,1.22.43M434.79,669.61l-.24,1.27-.74,1.24-1.14.66-1.44.02-1.6-.63-1.6-1.22-1.44-1.68-1.15-1.98-.73-2.09-.25-1.99M434.24,675.46l-.94.2-1.77-.18-1.9-.81M429.63,674.68l-1.9-1.39-1.77-1.87-1.52-2.23-1.17-2.43-.73-2.47-.25-2.34.25-2.05.73-1.62.64-.71M440.66,682.94l.89-.2M421.09,647.77l-.44.5M443.84,645.08l.5.27.62.06M455.42,662.94l-.34.76-.07.73M439.28,653.64l-1.86-3.22M437.42,650.42l-.75-1.57M429.63,649.43l-2.6-1.23-2.51-.65-2.35-.05-2.11.56-1.8,1.14-.95,1.13M439.89,660.26l-2.2-3.36-2.51-3-2.72-2.53-2.83-1.96M442.3,658.88l-2.9-5.02M439.4,653.86l-.13-.22M439.89,660.26l2.42,5.11,1.45,5.17.36,4.84-.75,4.13-1.81,3.11-2.73,1.85-1.08.14M448.17,668.76l-.98-1.43M447.19,667.33l-1.86-3.22M445.32,664.11l-.13-.22M445.2,663.89l-2.9-5.02M442.26,658.9l-1.19.68-1.18.68M516.55,601.16l-3.56,2.06M512.99,603.22l-1.78,1.03M511.21,604.25l1.05,1.65,1.32,1.37M508.97,601.03h.03M508.84,601.11l-.61.25-.92.42-1.12.54-1.33.66-2.08,1.06-2.79,1.44-3.39,1.76M513.58,607.27l1.81-1.05M485.38,526.05l.05,2.3.05,4.66v.37M572.6,684.27l2,1.14,1.02.61M436.67,648.85l-.52-1.99v-1.81s.55-1.43.55-1.43l1.07-.93,1.5-.35,1.78.24.44.15M445.3,645.87l-.73-1.01-.95-.92-2.11-1.2M445.3,645.87l4.98,8.4M436.67,648.85l-2.53-4.79-2.21-4.34-2.32-4.73-2.22-4.68-2.14-4.67-2.96-6.74-2.82-6.75-2.63-6.68-1.62-4.35M450.28,654.27l4.78,8.51M455.06,662.78l.74,1.97.17,2.02-.37,1.93-.87,1.56-1.21.89-1.42.17-1.54-.52-1.54-1.14-.84-.91M448.17,668.76l2.99,4.74,2.58,3.97,2.91,4.34,2.95,4.27,2.96,4.17,2.56,3.52,2.8,3.75,3.43,4.48,3,3.8,2.08,2.57,2.35,2.83M506.46,371.99l-.68.61-.42.78-.27,1.63.32,2.28.89,2.38,1.25,2.14.44.57,1.09.97.92.4,1.01.1.35-.03.65-.14.89-.37M499.02,377.91l.02-.53-.02-.42-.2-.38h-.12s-.08,0-.08,0l-.28.11-.42.22-.49.28M716.23,735.51l-1.25,1.13-.67,1.6-.03.59.44,1.76.95,1.81,1.3,1.8,1.48,1.47,1.57.99,1.5.38,1.31-.31M715,751.02l.02-.06-.39-.38-.63-.35M717.87,734.57l-.87.5M716.23,735.51l-8.13,4.69M716.23,735.51l.77-.44M507.21,371.56l.59-.34.72-.4.98-.49.48-.2,1.48-.36h.73s.62.16.62.16M727.78,742.25l-.36.99-.71.91-1.06.88-1.34.85-.74.43M622.05,714.05l2.3,1.27,5.28,2.88,6.22,3.38,4.99,2.71,6.19,3.36,6.58,3.58,6.15,3.39,1.48.83M598.35,721.24l1.73-.96M512.81,361.57l-.62-.27-.7-.2-.76-.12-.79-.03-.79.05-.76.13-.7.21-.62.28M735.03,746.45l-.07.67-.18.71-.28.72-.37.71-.44.66-.5.59-.54.5-.55.39M506.92,341.97l-.97.59-.23.13-.06.04-.54.32-.99.58-.65.38-.68.38-.75.42M749.05,761.35l-1.01.56-1.28.73-1.07.61-.73.43-.8.48M509.46,385.29l-4.71,2.72M504.76,388.01l-.94.19-.88-.46-.94-1.12-1.07-1.81-.95-2.06-.67-2.02-.3-1.91.03-.92M499.02,377.91l-.99-.59-.49-.31-.05-.03M712.8,737.49l-4.71,2.72M713.93,751.47l.07-1.23M708.09,740.21l-.64.72-.04.99.23.76.8,1.64,1.2,1.86,1.37,1.72,1.46,1.4,1.53.95M648.23,646.1l23.27,40.3M415.24,601.14l.11-6.38.35-6.67.75-6.23,1.15-6.48.92-6.43.68-6.72.41-5.53.22-3.53.3-5.93.32-7.71.26-7.69.17-6.63.07-3.95.02-2.92M478.77,711.18l7.01,3.86,6.18,3.03,7.53,2.95,6.81,2.58,6.27,2.74,7.07,3.38,6.95,3.5,6.67,3.47,8.31,4.42,6.8,3.7,4.94,2.78M452.13,418.39l-1.32.42h-1.68s-2-.5-2-.5l-2.09-1.22-1.56-1.71-.92-1.87-.37-1.87.02-.95M446.42,406.65l-.59.34-.71.42-.91.61-.41.32-1.05,1.1-.36.63-.18.61M655.47,770.58l-1.02.94-.84,1.45-.38,1.11-.27,2.25.41,2.31.98,1.95,1.33,1.47,1.48.95M657.16,783.02l1.04.18,1.14-.16,1.29-.48,1.41-.74.74-.43M735.03,746.45l-5.19-3.1M749.05,761.35l-2.96-4.52-3.45-4.14-3.76-3.52-3.86-2.72M512.81,361.57l-.43-4.7-1.17-5.02-1.86-5.06-2.43-4.82M512.92,368.67l-.1-7.1M678.72,651.11l5.78,10.02M658.41,768.89l-2.94,1.7M648.64,774.53l6.83-3.95M507.21,371.56l-.15-9.93M723.57,746.31l-30.92,17.85M732.1,751.4l-8.53-5.09M437.42,411.85l9-5.2M447.19,406.21l-.77.44M497.44,377.2l-21.15,12.21M497.44,377.2l9.02-5.21M507.14,371.6l-.68.4M476.29,389.41l30.92-17.85M434.79,390.52l-.24,1.27-.74,1.24-1.14.66-1.44.02-1.6-.63M429.63,393.08l-1.6-1.22-1.44-1.68-1.15-1.98-.73-2.09-.25-1.99.25-1.7.73-1.24,1.15-.66h1.44s1.22.41,1.22.41M671.31,811.7l-1.6-1.22-1.44-1.68-1.15-1.98-.74-2.09-.25-1.99.25-1.7.74-1.24,1.15-.66,1.44-.02,1.22.43M676.48,809.13l-.24,1.27-.74,1.24-1.15.66-1.44.02-1.6-.63M434.24,396.37l-.94.2-1.77-.17-1.9-.81-1.9-1.39-1.77-1.87-1.52-2.23-1.17-2.43-.73-2.47-.25-2.34M422.28,382.86l.25-2.05.73-1.62.64-.71M663.97,801.48l.25-2.05.73-1.62.64-.71M675.92,814.98l-.94.2-1.77-.18-1.9-.81-1.9-1.39-1.77-1.87-1.52-2.23-1.17-2.43-.73-2.47-.25-2.34M658.66,783.78l-2.9,1.67M655.76,785.45l-.13.07M655.64,785.52l-1.86,1.07M653.78,786.6l-.98.3M436.67,412.55l.75-.7M437.42,411.85l1.86-1.07M439.28,410.78l.13-.07M439.4,410.7l2.9-1.67M440.66,403.85l.85-.19M421.17,368.59l-.05.05-.48.54M417.33,371.08l.22-.27,1.81-1.5,2.2-.81,2.51-.1,2.73.62,2.83,1.31M439.89,404.89l-2.11.62M682.35,822.46l.77-.17M662.67,787.4l-.34.39M661.04,787.93l-1.81,1.5-.47.74M685.84,814.1l-.28,3.11-.83,2.67-1.34,2.12-1.81,1.5-2.2.82-.35.06M490.05,332.29l5.75-3.32M432.5,365.51l5.75-3.32M507.06,361.63l-.53-4.99-1.22-4.6-1.59-3.97-1.68-3.25M502.04,344.81l-2.59-3.88-2.94-3.46-3.17-2.92-3.29-2.27M749,780.8l5.75-3.32M744.15,764.15l2.06,4.18,1.53,4.27.94,4.21.32,3.99M744.15,764.15l-1.97-3.08-2.65-3.36-3.37-3.36-4.06-2.95M691.45,814.02l5.75-3.32M450.28,419.46l-4.98,2.88M445.3,422.33l-1.51.39-1.89-.27-1.96-.93-1.74-1.52-1.29-1.95-.7-2.09-.1-1.6.16-.93.41-.89M415.24,435.55l1.62-2.49,2.63-3.67,2.82-3.52,2.96-3.33,2.14-2.2,2.22-2.11,2.32-2.04,2.21-1.78,2.53-1.86M420.97,518.36l-.03-3.79-.1-4.78-.17-5.77-.24-6.75-.23-5.43-.57-10.3-.83-9.95-.75-5.95-1.26-7.71-1-7.66-.41-6.99-.15-7.73M420.97,518.36l9.21-5.24,1.01-.58,1.87-1.06,6.33-3.61M645.94,789.65l3.48-1.29.6-.25,1.08-.46,1.71-.76M652.8,786.89l-1.45-.23-1.53-.88-1.41-1.45-1.08-1.86-.6-2.08-.06-2.09.07-.48M648.64,774.53l-.62.49-.57.77-.71,2.03M648.64,774.53l4.98-2.88M622.17,793.96l-3.77-2.23-5.67-3.55-7-5.01-5.53-4.54-5-3.94-5.11-3.74-4.71-3.24-3.59-2.4-4.54-2.94-5.86-3.73-6.38-3.99-5.55-3.4-3.48-2.09-2.67-1.57M622.17,793.96l12.4-1.36,11.37-2.95M661.04,787.93l3.21-.95,3.76.49,4.01,1.9,3.95,3.15,3.6,4.16,2.96,4.86,2.1,5.18,1.08,5.1M664.3,780.25l-.75.7M663.55,780.96l-1.86,1.07M661.68,782.03l-.13.07M661.56,782.11l-2.9,1.67M658.68,783.81l1.18,2.06,1.18,2.06M445.32,407.28l1.86-1.07M447.19,406.21l.98-.3M444.15,395.49l-.23-3.14-.7-3.31-1.13-3.37-1.54-3.32-1.89-3.17-2.18-2.91-2.4-2.56-2.55-2.13M439.89,404.89l1.81-1.5,1.34-2.12.83-2.67.28-3.11M442.26,408.96l-1.19-2.04-1.18-2.04M442.3,409.03l2.9-1.67M445.2,407.36l.13-.07M696.46,737.66l3.67-1.82.14-.05,1.04-.33,2.9-.45,4.35.55,4.25,1.93M712.8,737.49l5.06-2.92M717.86,734.57l1.32-.42h1.68s2,.5,2,.5l2.09,1.22,1.56,1.71.92,1.87.37,1.87-.02.92M727.78,742.25l1.03.57.51.3.36.19.1.04h.03s0,0,0,0h0M729.83,743.35l1.24-1.3,1.12-1.19,1-1.07.88-.96.76-.85.12-.14.66-.74.94-1.05.89-1.01.33-.38.28-.32.23-.26.18-.2.3-.34.22-.25.15-.17.42-.49.11-.13.03-.04h0s0-.01,0-.01h0s1.69-1.99,1.69-1.99l1.87-2.26,2.23-2.75,1.75-2.24,1.78-2.44M696,737.92l.23-.13.23-.13M509.46,385.29l5.06-2.92M501.14,399.36l3.41-2.27.11-.09.81-.73,1.84-2.29,1.7-4.04.45-4.65M500.69,399.63l.23-.13.23-.13M512.92,368.67l5.39-2.08,5.54-1.67,5.86-1.3,6.16-.9,6.18-.46M512.92,368.67l-.12,1.26M514.52,382.37l1.02-.94.84-1.45.38-1.11.27-2.25-.41-2.31-.98-1.95-1.33-1.48-1.5-.96M448.17,405.91l1.3.17,1.04.47,1.34.98,1.03,1.05,1.06,1.37.86,1.39.67,1.4.4,1.29M455.06,416.69l.5-.43.32-.63v-1.61M455.06,416.69l-4.78,2.76M478.13,422.25l-.87.48M478.77,398.86l-2.35.11-2.08.15-3,.31-3.43.49-2.8.51-2.56.55-2.96.75-2.95.87-2.91.99-2.58,1-2.99,1.31M665.13,746.14l-.86.51M653.62,771.65l4.78-2.76M658.4,768.89l1.08-.23,1.13.46,1.19,1.12,1.19,1.69,1,1.98.67,2.03.25,1.93-.24,1.64-.37.75M664.3,780.25l2.62-1.93,2.15-1.73,2.31-2.03,2.23-2.12,2.13-2.19,1.76-1.94,1.84-2.17,2.14-2.73,1.77-2.44,1.17-1.72,1.27-1.98M495.8,328.97l13.99,8.08M509.8,337.04l-1.09.88-.93,1.24-.63,1.42-.23,1.39M506.92,341.97l35.14,20.28M542.06,362.25l3.73,2.12,4.56,2.43,4.35,2.1,4.64,1.91,5.48,2,3.65,1.39,2.9,1.2,3.31,1.48,3.77,1.77,4.13,2.01,8.83,4.44,7.62,3.95,6.75,3.6,5.88,3.23,5,2.83M685.48,445.05l35.14,20.29M749.05,514.58v40.58M749.05,720.78l.03-4.29.17-5.16.36-4.82.66-4.97,1-5.75.62-3.86.4-3.11.37-3.61.35-4.15.32-4.58.57-9.87.39-8.58.26-7.65.15-6.71.05-5.75M749.05,720.78v40.57M749.05,761.35l1.32.49,1.54.17,1.54-.18,1.3-.51M754.75,761.32v16.16M723.5,460.41l13.99,8.08M720.62,465.34l.23-1.39.63-1.42.93-1.24,1.09-.88M720.62,465.34l.53,1.47.02,1.49-.35,1.04-.42.6-.66.54M749.05,514.58l-1-1.18-.23-.19-.06-.04-.55-.34-1-.36-.65-.07-.67.08-.74.29M754.75,514.55l-1.3.51-1.54.18-1.54-.17-1.32-.49M754.75,498.39v16.16M685.48,445.05l-3.73-2.19-4.54-2.82-4.26-2.87-4.34-3.27-4.76-3.91-3.07-2.49-2.47-1.89-2.88-2.09-3.33-2.33-3.7-2.51-7.99-5.27-6.98-4.48-6.29-3.93-5.6-3.4-4.91-2.89M616.65,398.73l-9.15,5.28-9.15,5.28M754.75,637.93l-9.15,5.28-9.15,5.28M749.05,555.15l.03,4.32.17,5.34.36,5.13.66,5.39,1,6.07.62,3.91.4,3.08.37,3.54.35,4.05.32,4.46.57,9.55.39,8.29.26,7.41.15,6.55.05,5.7M665.85,745.63l-.29.2M478.94,421.87l-.32.15M477.27,422.85l.86-.6M664.18,746.58l.95-.44M479.8,567.23l-1.91-5.55-3.77-12.94-1.05-4.08-.84-3.49-1.08-4.87-.73-3.55-.27-1.41-.27-1.47-.28-1.52-.03-.15M496.61,607.23l-2.58-5.21-1.67-3.5-2.43-5.28-.14-.32M468.41,466.8l-.14.68-.66,4.86M490.92,418.11l-1.8,1.92-1.38,1.64M603.34,724.01l-.34-.18-4.65-2.59M675.08,737.13l-1.36.35-2.54.52-3.09.51-3.18.38-3.43.25-9.05-.04-9.11-1.01M554.01,686.79l6.45,6.17,7.28,6.46,7.93,6.46,7.32,5.46,6.76,4.62,8.6,5.29M514.32,637.88l3,4.5,3.66,5.29,2.62,3.63M511.9,634.13l2.42,3.75M522.12,627.63l-10.22,6.5M506.25,606.95l1.58,2.39,1.96,1.99M506.25,606.95h0s-.03.02-.03.02l-.1.05-.37.19-1.45.76-5.76,3M498.53,610.97l-1.92-3.74M696,737.92l5.41-3.49,4.89-3.88,1.02-.91,1.02-.94,1.01-.97,1-1,.99-1.03.97-1.06.96-1.09.9-1.06,1.5-1.86,2.04-2.74,2.49-3.72,1.51-2.49,1.52-2.73,1.68-3.32,1.02-2.17,1.61-3.78,1.95-5.26,1.26-3.94,1.42-5.14,1.39-6.13.71-3.81,1.29-9.52.64-8.28.24-9.1M598.35,409.29l-7.64-4.16-6.85-3.31-8.8-3.68-6.04-2.13-4.32-1.32-3.68-.99-3.04-.72-2.54-.54-2.68-.5-3-.48-2.43-.32-1.84-.2-1.91-.17-2.84-.18-2.97-.09h-2.54s-2.78.09-2.78.09l-3.64.26-3.33.39-2.33.36-1.37.25-2.73.58-6.29,1.77-6.14,2.39-5.94,3.04M676.48,530.04l-.24,1.27-.74,1.24-1.15.66h-1.44s-1.6-.62-1.6-.62l-1.6-1.22-1.44-1.68-1.15-1.98-.74-2.09-.25-1.99M666.13,523.64l.25-1.7.74-1.24,1.15-.66,1.44-.02,1.22.43M671.31,535.11l-1.9-1.39-1.77-1.87-1.52-2.23-1.17-2.43-.73-2.47-.25-2.34.25-2.05.73-1.62.64-.71M675.92,535.89l-.94.2-1.77-.17-1.9-.81M429.63,370.33l1.9,1.25M431.53,371.59l.13.08.94.54,2.54,1.47,22.86,13.21,8.07,4.65,9.04,5.21,2.51,1.45.75.43.41.24M504.66,415.15l.96.56M674.19,505.03l-13.99-8.08M446.5,373.59l-13.99-8.08M432.5,365.51l-.54.37-.52.48-.49.57-.43.64-.36.69-.27.71-.18.7-.08.67M684.54,726.57v-.88M685.7,757.27v.48s0,3.76,0,3.76v19.75s0,5.64,0,5.64v10.46s0,10.42,0,10.42v2.82s0,.82,0,.82v.42M685.71,811.83l.13,2.27M685.84,814.1l.62.27.7.2.75.12.77.03.77-.05.74-.14.68-.21.6-.28M691.45,814.02v-12.49s0-1.96,0-1.96v-1.06s0-.35,0-.35v-.16h0v-.02h0v-.02h0v-.02h0v-.02h0v-.02h0v-.06M691.45,551.09v-16.15h0M653.62,536.84l-4.98-8.4M648.64,528.44l-1.09-2.02-.71-1.87-.18-1.56.45-1.1,1.04-.51,1.46.2,1.33.69.89.72.98,1.05M597.46,468.73l-.35-.19M664.3,543.95l.5,1.77.12,1.26-.16,1.32-.42.93-.62.58-.78.18-.78-.2-1.02-.7M658.4,545.36l.62,1.07.7,1.06,1.39,1.62M658.4,545.36l-4.78-8.52M684.54,618.77v1.34M692.63,618.38v.99M691.45,674.48l9.15-5.28,9.15-5.28M553.35,435.27l9.15-5.28,9.15-5.28M682.35,543.37l.82-.18M662.74,508.24l-.41.46M685.84,535.01l-.13,2.13M669.41,508.9l1.91.95M749,501.71l5.75-3.32M737.49,468.49l3,2.03,2.91,2.58,2.73,3.04,2.47,3.42,2.13,3.69,1.73,3.84,1.27,3.88.78,3.81.26,3.61M737.49,468.49l-5.75,3.32M719.74,470.48l2.59-.88,2.94-.07,3.17.75,3.29,1.54M679.94,501.71l-5.75,3.32M691.45,534.93l5.75-3.32M744.15,512.76l2.06-1.8,1.53-2.51.94-3.12.32-3.62M691.45,534.93l-.26-3.61-.78-3.81-1.27-3.88-1.73-3.84-2.13-3.69-2.47-3.42-2.73-3.04-2.91-2.58-3-2.03M671.32,509.86l.08-.67.18-.7.27-.71.36-.69.43-.64.49-.57.53-.48.54-.37M671.32,509.86l2.83,1.96,2.72,2.53,2.51,3,2.2,3.36,1.81,3.58,1.34,3.67.83,3.62.28,3.43M691.45,534.93l-.6.28-.68.21-.74.14-.77.05-.77-.03-.75-.12-.7-.2-.62-.27M658.87,511.06l.5-.86,2.73-1.85,3.43-.44,3.88,1M622.17,481.64l.41.24,3.25,1.88,17.11,9.89,4.89,2.82,9.05,5.22,9.02,5.2,2.44,1.41.71.41.36.21M652.8,524.04l-2.97-4.75-2.57-3.97-2.9-4.35-2.94-4.27-2.96-4.17-2.57-3.51-2.81-3.75-3.45-4.47-3.02-3.78-2.09-2.56-2.36-2.83M652.8,524.04l.98,1.43M653.78,525.47l1.86,3.22M655.64,528.7l.13.22M655.76,528.91l2.9,5.02M679.14,545.22l1.74-.46,1.8-1.14,1.43-1.69,1.02-2.19.57-2.61M661.56,538.95l-2.9-5.02M661.68,539.17l-.13-.22M663.55,542.39l-1.86-3.22M663.55,542.39l.75,1.56M670.14,555.25l-2.87-5.68-.52-.99-.94-1.79-1.52-2.84M685.7,591.68l-7.32-18.54-8.24-17.89M685.7,537.13v4.17s-.01,26.39-.01,26.39v9.32s0,10.45,0,10.45v3.76s0,.48,0,.48M480.09,667.16l.62-.42.61-.66.89-1.51.16-.69v-.25M479.5,663.81l.62.08.72-.03.76-.14.73-.21M482.33,663.51l-.46-1.96-.57-1.98-.54-1.99-.39-1.97-.09-.88.08-2.06.13-1.29-.02-1.62M482.23,643.18l.03,3.3-.37,1.68-.47.84-.95.77M480.49,649.76l-1.1.18h-.55s-.52-.04-.52-.04l-.86-.26-.71-.36-1.98-1.78M480.49,649.76l-.3-1.95-.42-2.02-.4-2.02-.23-1.95v-.84s.32-1.86.32-1.86l.29-1.15.15-1.51M432.35,555.84l.85.21.91-.11,1.52-.71.47-.41.12-.16M479.9,636.46l-1.11.08-.55-.05-.51-.12-.84-.39-.69-.48-1.95-2.19M479.9,636.46l-.13-1.91-.27-2.02-.24-2.03-.07-1.91.08-.79.56-1.64.45-.99.32-1.38M475.13,619.81l1.86,2.58.65.58.81.5.5.18.54.12.56.04.55-.03M480.59,623.78l.04-1.85-.11-2.01-.09-2.01.1-1.85.17-.73.79-1.39.59-.81.48-1.24M433.52,553.65l.59.49.69.34.74.14.72-.02M436.27,554.6l.52-1.5.36-1.79.39-1.79.59-1.48.4-.46,1.36-.46.95-.17.91-.65M441.76,546.29l-1.04-.14-.51-.21-.47-.31-.76-.82-.6-.91-1.58-3.88M441.76,546.29l.69-1.36.53-1.69.56-1.69.75-1.34.47-.37,1.51-.15,1.05.04,1.03-.45M563.28,743.91l.16-.9.16-.99.16-1.79-.14-.7-.11-.24M551.18,710.56l-.81.74-.75.55-.61.4-.99.59M555.3,726.33l-1.06-1.67-1.03-1.49-1.01-1.51-1.01-1.71-.47-.92-1.16-2.62-.7-1.73-.83-1.84M558.94,724.84l-1.09.27-.86.34-.66.32-1.02.57M548.02,712.84l-.98.52-.46.24-.41.21-.64.3-.49.22-1.18.44M548.02,712.84l-.96-1.78-.96-1.63-.94-1.64-.91-1.81-.4-.94-.92-2.59-.54-1.7-.68-1.85M541.7,698.9l.55-.33,1-.77.67-.79.62-1.27M561.26,740.94l.41-.39.53-.45.62-.46.63-.44M563.45,739.2l-1.15-1.54-1.09-1.33-1.06-1.35-1.1-1.59-.54-.88-1.39-2.62-.86-1.74-.97-1.81M555.3,726.33l-.95.6-.45.29-.4.27-.61.43-.45.34-.99.89M537.31,699.91h1.3s.49-.09.49-.09l.67-.18.43-.14.48-.18.51-.2.51-.22M541.7,698.9l-.85-1.86-.88-1.75-.85-1.77-.79-1.89-.33-.95-.68-2.53-.38-1.64-.52-1.84M448.34,539.29l-1-.23-.48-.26-.43-.35-.68-.89-.52-.97-1.32-4.08M454.18,533.79l.64.14,1.14-.24M448.34,539.29l.84-1.2.7-1.56.72-1.56.91-1.18.53-.27,1.64.16M452.11,526.5l1.03,4.24.43,1.02.59.95.39.39.44.3.47.19.48.08M455.95,533.68l.99-1.03.86-1.42.88-1.41,1.05-1,.59-.17,1.75.47,1.18.46,1.23-.04M534.16,685.31l.47-.07.57-.14.61-.2.62-.24M480.12,611.26l.52.32.61.22.65.1h.65M446.8,463.42h-.07M442.41,462.05l.75.71.92.42,1.77.24h.66s.21.01.21.01M505.71,578.22l-1.16.72-.17.21M521.04,619.69l-.5-1.02-.07-1.99M509.6,575.86l-.33.22M509.6,575.86l1.46-.62,1.5-.55,2.29-.69M507.46,571.85l-.38.36-.16.61.09.77.32.81.5.73.61.53.62.26.54-.06M514.85,573.99h.05M514.85,573.99l-.33.22M523.89,622.01l.24,2.26.74,1.19.58.38M555.47,654.46l-.3-.15-1.9-1.79-1.39-2.37M610.69,723.88l-1.25-1.05-1.07-.77-1.05-.79-1.21-1.11-.67-.72-1.96-2.4-1.27-1.64-1.3-1.57M444.85,462.02l.33.64.46.47.56.24.59.06M446.8,463.42l1.34-.39,1.27-.85,1.29-.84,1.39-.35h.03M484.81,660.32l.18,1.47.07,1.48-.14.93-.51.36-1.05-.5-.42-.25-.48-.22h-.07s-.04,0-.04,0h-.02M484.82,660.35l-1.02-7.04M483.8,653.31l-1.13-9.23-.7-9.22-.24-9.38.07-3.18M503.55,574.33l-.83.64-5.51,5.71-4.75,6.54-5.8,11.4-4.04,12.98-.07.3M482.23,643.18l.06.55.05.44.07.59.09.55.12.54.11.58.08.44.09.55M482.91,647.42l.1.64.1.68.18,1.33.31,2.46.33,2.46.2,1.33.11.68.12.65M484.36,657.67l-.12,2.86-.27,1.1-.66,1.14-.97.74M482.33,663.51l.02.09M475.24,658.25l2.08,6.51M477.31,664.77l.5,1.06.69.93.79.48.78-.07h.03M479.5,663.81l.59,3.35M479.5,663.81l-1.73-.71-1.18-.95M476.59,662.15l-.28-1.24-.36-1.24-.74-2.33-.63-2.34-.26-1.26-.11-.64-.09-.61M474.13,652.49l-.06-.54-.03-.46v-.67s.25-.78.25-.78l.35-.84.12-.71v-1M474.75,647.5l-.18-1.24-.28-1.27-.62-2.43-.52-2.44-.19-1.28-.06-.64-.04-.59M472.86,637.6v-.51s.02-.43.02-.43l.12-.59.42-.57.52-.62.21-.62.1-.94M474.26,633.32l-.07-1.21-.19-1.29-.47-2.52-.38-2.53-.1-1.3v-.63s0-.58,0-.58M473.06,623.26l.05-.48.08-.39.22-.49.57-.34.66-.38.3-.51.2-.86M475.13,619.81l.04-1.19-.09-1.3-.3-2.59-.2-2.59v-1.3s.05-.62.05-.62l.07-.55M474.71,609.66l.11-.45.13-.34.3-.38.68-.09.76-.12.37-.39.29-.76M477.34,607.13l1.09,2.14.73,1.03.96.95M497.68,527.09l-1.34,2.23M473.3,648.03l1.94,10.22M610.69,723.88l.59-.29,1.44-.17,1.52.36,2.55,1.37M620.83,732.7l-1.26-.86-1.05-.56-1.03-.58-1.23-.92-.7-.65-2.12-2.25-1.38-1.56-1.38-1.44M609.54,729.33l-.38-2.27.05-.7.22-.79.22-.43.29-.44.36-.43.39-.4M462.58,528.2l.36.54.46.42.53.26.55.11M503.43,573.47l.38-.2,1.14-.59M457.24,464.34l-.79-.23-.34-.27-.28-.37-.34-.96-.18-1.06.04-4.44M458.79,464.1l1.27-.6,1.41-.65,1.33-.13M627.47,734.55l-2.88-1.72-1.66-.53-.96-.03-1.14.43M631.2,740.19l-1.25-.66-1.01-.35-.99-.37-1.22-.72-.73-.56-2.24-2.08-1.47-1.45-1.45-1.3M620.83,732.7l-.68.88-.26.48-.19.47-.16.87v.78s.62,2.58.62,2.58M599.41,715.69l.23-.44.35-.48.43-.48.48-.45M510.31,541.86l-1.83-1.26-.65-1.06-.04-.74.21-.54M637.33,741.76l-.17-.1M469.86,466.75l1.26-.38,1.51-.45,1.14.04M641.65,746.25l-1.22-.45-.95-.14-.94-.16-1.2-.52-.74-.47-2.35-1.86-1.55-1.32-1.5-1.13M631.2,740.19l-.65.91-.25.5-.17.51-.1.95.06.86.93,2.87M558.31,741.13l3.13,3.57M561.44,744.7l.58.43.56.08.42-.42.27-.84v-.04M561.26,740.94l2.03,2.98M561.26,740.94l-.9,1.13-.39.8M559.97,742.87l-.71-.98-.64-.78-1.02-1.18-.91-1.22-.55-.83-.32-.49-.34-.53M555.47,736.86l-.34-.54-.33-.53-.58-.98-.89-1.7-.8-1.78-.49-1.05-.59-1.12M551.46,729.16l-.66-1.06-.62-.89-1.04-1.4-.94-1.44-.53-.92-.29-.53-.3-.56M547.08,722.35l-.3-.56-.28-.55-.47-.97-.68-1.63-.59-1.69-.39-1.03-.5-1.14M543.87,714.78l-.59-1.13-.58-.98-1.01-1.63-.91-1.66-.49-1.02-.26-.57-.26-.59M539.75,707.2l-.25-.58-.23-.55-.37-.95-.48-1.51-.41-1.57-.3-.99-.41-1.14M537.31,699.91l-.52-1.19-.53-1.07-.94-1.84-.85-1.86-.44-1.1-.23-.6-.22-.61M533.58,691.63l-.2-.58-.18-.54-.28-.91-.31-1.36-.24-1.4-.21-.94-.32-1.13M531.84,684.76l.87.41.61.13h.84M557.57,739.9l.74,1.23M568.93,740.3l.27.74-.13.44-.63-.06-1.35-.62-2.06-1.04-.68-.28-.7-.2h-.09s-.05,0-.05,0h-.02M568.94,740.32l-2.06-4.13M566.87,736.19l-2.64-5.64-2.33-5.91-2.02-6.29-1.69-6.62-1.29-6.75-.91-7.05M555.99,697.92l-.48-3.72-.72-3.98-.97-4.24-1.13-4.18-1.38-4.48-1.62-4.78-1.57-4.36-1.71-4.61-1.82-4.85-2.46-6.77-2.36-6.97M536.43,632.77l3.34,12.2M527.32,626.93l-.12,1.52.16,10.68,1.04,10.97,3.09,17.02,4.81,17.17.12.38M536.43,684.67l.55-.35.42-.32.56-.58.66-1.04.53-1.82M539.13,680.55l.2.6.2.53.35.84.58,1.16.57,1.17.36.86.21.54.22.61M541.82,686.87l.22.65.21.64.35,1.16.55,1.99.55,1.99.36,1.16.22.63.25.65M544.55,695.73l.25.6.25.54.46.89.76,1.3.77,1.3.47.9.27.55.28.6M548.05,702.41l.27.62.25.6.41,1.07.61,1.78.61,1.78.42,1.06.26.6.29.62M551.18,710.56l.3.59.31.55.56.92.97,1.41.98,1.4.59.92.33.54.33.58M555.55,717.46l.32.59.28.57.45.98.63,1.57.63,1.57.45.97.29.55.33.58M558.94,724.84l.36.58.36.54.68.93,1.2,1.47,1.23,1.45.72.91.39.53.39.56M564.26,731.79l.36.56.31.52.46.88.59,1.36.6,1.35.47.86.32.51.37.55M567.74,738.38l-1.47-.14-.73.09-1.03.33-1.06.55M563.45,739.2l.06.08M643.35,753.57l1.96-1.13,2.87-1.66,2.68-1.55M556.36,652.76l1.72,2.63,1.69,1.39,1.23.57,1.2.24.79-.06M643,750.2l-.3-.99-.22-.94-.33-1.42-.28-.44-.16-.12M640.55,748.95l.05-.71.21-.73.37-.68.46-.59M523.89,622.02l4.63,2.22,4.35,2.66,4.01,3.11,3.65,3.52,6.23,7.96,5.12,8.65M594.47,659.66l.44-.19.44-.2.44-.2.43-.21.43-.22.42-.23.42-.24.41-.24M594.47,659.66l-1.1.44-1.32.21-1.32-.03-1.45-.26-2.61-1.04-2.19-1.57M505.7,578.22l3.2,3.46,2.83,3.95,2.41,4.43,1.98,4.85,2.76,10.6,1.6,11.18M538.89,519.12l1.5-.91M556.36,652.77l4.57-.45,4.31-.14,3.99.19,3.65.52,6.3,1.87,5.28,2.64M535.43,521.22l3.47-2.1M541.05,581.48l.21-.65,1.07-2.15,1.5-1.63.67-.47M564.67,611.5l-.85.38-2.18.45-2.41-.18-.54-.12M436.79,554.38l-.09.25h-.15s-.23,0-.23,0h-.04s-.03.02-.03.02h-.01M487.16,525.95l-11.11.59-11.33,2.91-.24.09M436.27,554.6l-.03.06M517.11,528.31l-1,.8M510.45,534.23l-.34.45-.21.71.08.77.91,1.38,1.69,1.16M431.03,544.32l-.71,6.84M430.32,551.16l.06,1.27.35,1.43.68,1.21.9.74.04.02M433.52,553.66l-1.17,2.18M433.52,553.65l-1.61-2.3-1.06-2.45M430.85,548.9l.35-.96.2-1.19.21-2.57.31-2.57.29-1.19.19-.52.22-.41M432.63,539.5l.24-.28.25-.15.49.02.96.69,1.08.65h.59s.56-.42.56-.42M436.8,540.02l.45-.86.3-1.13.4-2.51.49-2.5.39-1.13.24-.47.27-.36M439.33,531.05l.28-.22.29-.09.55.14,1.03.92,1.14.89.64.12.64-.29M443.91,532.52l.55-.77.41-1.06.61-2.43.69-2.42.49-1.06.3-.42.32-.31M447.27,524.05l.33-.16.32-.03.6.26,1.07,1.15,1.15,1.13.68.25.7-.16M452.11,526.5l.65-.66.52-.99.83-2.33.9-2.32.6-.98.35-.38.37-.25M456.32,518.6l.36-.1.35.03.62.39,1.05,1.39,1.13,1.37.69.39.76-.03M461.28,522.05l.37,3.12.35,1.55.57,1.48M514.06,531.12l-13.22-4.2-12.76-2-12.45.23-11.48,2.51-1.57.55M537.52,514.87l-2.37,1.29-7.78,4.7-7.32,5.04-.72.55M473.68,465.95l-2.23,2.18-4.45,4.88-4.44,5.32-4.33,5.63M458.23,483.97l-9.32,13.99-7.88,14.8-4.3,10.31-3.4,10.58-2.3,10.67M510.31,541.87l.96,2.69.47,3.11-.07,3.53-.58,3.89-2.48,8.56-3.64,9.03M539.75,521.58l-.55-.07-.55-.07-.54-.06-.54-.05-.54-.04-.54-.03-.53-.02-.53-.02M535.55,529.97l-1.45-2.77-.44-2.06.07-1.29.34-1.1.58-.88.78-.65M641.39,754.17l1.96-.6M643.35,753.57l.27-.33.03-.73-.24-1.07-.38-1.21v-.04M640.55,748.95l2.46,1.24M640.55,748.95l.49,2.36.93,1.97M641.97,753.28l-.76-.29-.51-.02-.51.34-.42.27-.43-.09-.32-.14-.4-.22M638.61,753.12l-.47-.29-.5-.34-1.02-.76-1.91-1.65-1.84-1.74-.94-.85-.91-.7M631.02,746.78l-.78-.42-.56-.15-.65.1-.56.04-.48-.21-.34-.21-.4-.28M627.26,745.64l-.45-.35-.48-.39-.96-.85-1.75-1.75-1.69-1.83-.89-.91-.88-.8M620.16,738.77l-.78-.55-.59-.28-.75-.16-.66-.21-.51-.34-.34-.27-.4-.34M616.14,736.6l-.43-.4-.45-.44-.89-.91-1.6-1.81-1.54-1.87-.83-.96-.84-.89M609.54,729.33l-.78-.68-.6-.42-.81-.42-.73-.48-.52-.47-.34-.34-.39-.4M605.38,726.13l-.42-.45-.43-.47-.83-.95-1.46-1.81-1.4-1.87-.77-1-.8-.96M599.28,718.61l-.2-1.26.05-.75.27-.9M638.43,753.68l.72.46,2.24.04M587.92,656.08l2.58,1.66,2.22.72,1.51.2,1.4-.04,1.23-.25,1.03-.44M597.9,657.93l3.8-3.74,3.49-3.47,3.02-3.24,2.4-3.06,1.69-2.93.91-2.9.09-2.95-.61-2.95M597.89,657.93l3.67-2.07M601.56,655.86l26.24-14.81M650.86,749.23l-.09-.15-.8-.5-1.4-.69-2.27-.9-2.81-.69-.82-.07-.79.02h-.09s-.05.03-.05.03h-.02M646.32,746.82l-.95-1.74-.74-2.14-.53-2.58M644.09,740.36l-.42-1.52-.85-1.78-1.28-2.03-1.6-2.13-2.04-2.4-2.48-2.7-2.5-2.58-2.83-2.87-3.14-3.18-4.56-4.74-4.83-5.28M586.4,659.43l5.96,12.86,7.45,13.09,8.46,12.37,9.28,11.4M565.19,657.51l2.68,6.39,5.45,10.84,6.08,10.42,10.17,14.88,11.07,13.51.25.28M600.9,713.83l.58-.29.51-.17.86-.1,1.43.17,2.3.96M606.58,714.4l.43.48.46.48.92.91,1.7,1.62,1.7,1.63.92.92.47.48.45.47M613.62,721.37l.4.42.32.36.43.52.43.62.42.61.43.5.32.34.41.4M616.78,725.15l.46.43.49.45.99.87,1.86,1.6,1.86,1.6,1,.87.5.44.47.41M624.43,731.81l.41.36.33.29.42.38.36.36.36.36.41.37.33.27.42.34M646.88,747.15l-.63-.36M641.65,746.25l.07.04M616.3,630.7l-3.6,1.99M587.91,656.08l3.06-3.31,2.73-3.16,2.36-2.96,1.98-2.75,2.94-4.81,2.01-4.05M612.7,632.69l.09-.62.08-.62.08-.63.07-.63.07-.64.06-.64.05-.65.05-.65M612.7,632.69l-1.1.55-1.3.53-1.29.43-1.4.38-2.52.43-2.1.04M655.27,687.04l-.97.2-.61.49-.6.47-.96.14-.7-.16-2.47-1.07-1.67-.82-1.5-.55M645.33,688.2l-.08-.63.06-.65.19-.63.3-.56M535.55,529.97l-1.05.26-1.64.54-2.26.83-2.83,1.09-7.04,2.79-8.14,3.21M542.11,520.21l-2.36,1.37M575.97,536.21l1.59-.99M543.04,520.82l-.33-.08-.18-.1M572.49,538.4l3.48-2.18M572.49,538.4l-2.56-3.49-3.11-3.4-3.64-3.12-4.11-2.69-4.5-2.11-4.78-1.42-4.97-.63-5.07.04M539.75,521.58l-.88.72-.62.99-.31,1.09-.06,1.29.59,2.56,1.31,2.44M515.68,422.11l-1.57.54-.2.15M505.55,429.67l.37.84.62.64M515.65,422.11l.82-.11M508.06,426.47l1.94-1.13,2.88-1.66,2.75-1.56M576.98,542.57l-.56-.54-.56-.54-.56-.53-.56-.52-.56-.52-.57-.51-.57-.51-.57-.5M569.62,548.1l-.21-3.08.35-2.32.49-1.44.64-1.22.76-.96.84-.69M664.27,686.74l-.88.41-.49.68-.48.66-.87.35-.67-.05-2.46-.78-1.67-.63-1.47-.34M658.04,694.3l-2.4-3.19-.48-.93-.32-1.03-.04-.56.06-.55.16-.52.24-.48M608.57,584.91l-2.78,1.54M613.26,627.63l3.61-2.16M616.87,625.47l38.78-23.16M655.66,602.32l.04-1.28.03-1.29M605.8,586.44l-.3-.76-.31-.76-.31-.76-.32-.75-.32-.75-.33-.75-.34-.75-.34-.75M603.8,630.41l2.43-.2,2.08-.5,1.43-.46,1.33-.52,1.19-.55,1-.55M613.26,627.63l1.02-6.03.64-5.88.13-5.66-.47-5.38-1.14-5.05-1.86-4.72-2.59-4.4-3.18-4.06M605.8,586.45l-1.04.66-1.11.85-1.01.9-1.03,1.03-1.65,1.94-1.17,1.71M672.67,684.84l-.77.61-.37.87-.36.84-.77.55-.64.06-2.42-.47-1.65-.43-1.42-.13M664.27,686.74l-.34.99-.04.55.06.56.37,1.04.52.95,2.63,3.24M603.79,630.42l.8-5.01.35-4.97-.13-4.88-.58-4.75-2.27-8.97-3.18-8.29M579.37,541.22l-2.39,1.35M603.23,580.42l3.54-2.2M606.76,578.22l4.76-2.96M596.57,587.77l1.33-2.07,1.34-1.7,1.03-1.11,1.04-.99,1-.83.93-.65M603.23,580.42l-1.5-5.93-1.97-5.85-2.5-5.62-3.05-5.23-3.59-4.73-4.11-4.14-4.59-3.48-4.94-2.88M576.99,542.57l-.95.73-.84,1.04-.63,1.16-.49,1.39-.43,2.78.18,2.66M566.84,609.39l1.07-2.15.61-2.6.13-2.96-.35-3.21-.82-3.36-1.27-3.39-1.67-3.31-2.02-3.12-2.29-2.82-2.49-2.42-2.6-1.94-2.63-1.39-2.56-.8-2.41-.18-2.18.45-1.87,1.06-1.5,1.63-1.07,2.15-.62,2.6-.13,2.96.35,3.21.82,3.36,1.27,3.39,1.67,3.31,2.02,3.12,2.29,2.82,2.49,2.42,2.61,1.94,2.63,1.39,2.57.8,2.41.18,2.18-.45,1.87-1.06,1.5-1.63M514.52,574.21l.43-.29.22-.56-.03-.75-.27-.82-.47-.76-.59-.59-.63-.33-.57-.02M509.27,576.08l5.25-1.87M507.11,572.03l-.38.36-.16.62.09.78.32.82.51.73.61.54.63.26.55-.06M512.6,570.08l-5.49,1.95M504.96,572.67l7.95-3,8.61-1.26,9.34.57,9.9,2.5M504.96,572.67l.07.68.08.69.08.69.09.69.1.7.1.7.11.7.12.7M531.85,573.69l-4.77-.49-4.7.04-4.62.57-6.21,1.68-5.84,2.73M535.74,582.17l.55-.81.2-1.15-.15-1.36-.5-1.44-.79-1.37-1-1.15-1.1-.81-1.1-.39M520.47,616.68l1.86-10.63,3.13-9.36,4.47-8.04,5.79-6.47M520.47,616.68l.41.68.42.68.42.67.43.67.43.66.43.66.44.66.44.65M533,592.85l-2.39,3.89-2.07,4.4-1.74,4.9-1.83,7.59-1.08,8.38M539.45,598.45l-.2-1.39-.55-1.44-.82-1.34-1.03-1.1-1.11-.76-1.09-.31-.94.14-.7.6M551.87,650.14l-5.09-13.29-3.82-13.08-2.49-12.9-1.03-12.42M551.87,650.14l.56.35.56.35.56.34.56.33.56.32.56.32.56.31.56.3M544.18,612.6l1.1,6.45,1.53,6.7,1.96,6.95,3.41,9.95,4.18,10.11M550.16,612.72l-.86-1.32-1.04-1.05-1.12-.7-1.07-.25-.92.21-.66.66-.34,1.03.02,1.31M584.46,657.39l-9.66-9.73-8.98-10.68-8.29-11.72-7.37-12.55M584.46,657.39l.45-.14.44-.14.44-.15.44-.16.43-.17.43-.18.42-.18.42-.19M560.14,623.72l4.08,6,4.41,5.87,4.74,5.74,7.06,7.65,7.49,7.11M562.87,618.28l-1.12-.63-1.05-.18-.88.28-.61.73-.29,1.08.08,1.33.42,1.43.74,1.4M602.99,635.05l-9.72-1.62-9.94-3.29-10.21-5.05-10.26-6.81M602.99,635.05l.12-.56.12-.57.11-.57.1-.58.1-.58.09-.59.09-.59.08-.6M573.43,620.99l5.15,2.73,5.23,2.29,5.3,1.85,7.4,1.78,7.29.79M571.62,612.55l-.85.35-.57.78-.24,1.12.13,1.36.47,1.44.78,1.38.98,1.17,1.11.84M598.79,593.56l-5.22,7.25-6.25,5.65-7.35,3.98-8.35,2.12M598.79,593.56l-.26-.73-.26-.72-.27-.72-.27-.72-.28-.72-.29-.72-.29-.72-.3-.72M573.83,552.34l-.52-.55-.52-.54-.52-.54-.52-.53-.53-.53-.53-.52-.53-.52-.53-.51M539.78,530.67l-.54-.11-.53-.11-.53-.1-.53-.09-.53-.08-.52-.08-.52-.07-.52-.06M556.81,568.56l-2.76-6.62-3.16-6.69-3.56-6.75-5.57-9.36-6.21-9.16M552.18,571.39l1.06,1.04,1.11.65,1.06.22.9-.25.64-.68.31-1.06-.04-1.31-.4-1.44M512.58,538.7l10.31,6.04,10.06,7.43,9.84,8.92,9.38,10.3M512.58,538.7l-.3.37-.3.38-.29.39-.29.39-.28.4-.28.41-.27.41-.26.42M541.25,564.1l-4.91-4.64-5.13-4.34-5.34-4.04-7.69-5.02-7.86-4.2M540.76,571.48l1.05.15.86-.32.6-.74.26-1.11-.09-1.34-.45-1.44-.75-1.38-.98-1.19M577.82,605.69l3.81-1.81,3.6-2.36,3.39-2.91,4.28-4.93,3.68-5.91M596.57,587.77l-1.16-4.76-1.72-4.74-2.3-4.66-2.83-4.55-6.91-8.65-7.84-8.09M573.83,552.34l1.72,12.73.36,11.94-1.06,11.14-2.54,10.05M572.32,598.2l-.18,1.17.18,1.37.52,1.44.82,1.36,1.01,1.13,1.11.78,1.09.36.96-.11M540.42,518.24l-1.53.88M538.89,519.12l.95.03M539.85,519.15l1.48.14M577.57,535.26l-1.6.95M576.99,537.12l-1.02-.9M578.58,538.62l-1.6-1.5M611.51,575.33l-4.74,2.88M606.76,578.22l.61,1.35M607.37,579.56l1.68,3.99M616.79,626.63l.09-1.16M616.3,630.68l.48-4.05M601.56,655.86l-.74.44M571.26,584.99l.69-5.51.29-5.91-.11-6.31-.84-9.33-1.65-9.84M569.61,548.1l-1.89-2.68-2.5-2.56-3.14-2.4-3.72-2.24-8.79-4-9.8-3.55M539.78,530.67l7.85,12.25,6.81,12.64,5.73,13.09,4.47,13.28M564.64,581.95l.57,1.44.85,1.32,1.03,1.09,1.12.72,1.08.29.93-.19.68-.62.36-1.01M680.35,681.36l-.65.81-.23,1.04-.22,1.01-.65.74-.6.16-2.36-.16-1.62-.22-1.36.09M672.67,684.84l-.35.96-.04.54.07.55.41,1.05.57.96,2.89,3.23M580.28,543.13l-.33-.38-.19-.34M681.95,683.06l-.56-.65-.35-.52-.33-.57-.19-.02-.11.04M680.27,684.1l-.28-.72-.08-.74.14-.68.3-.6M446.38,452.64l-3.92,4.41M442.47,457.05l-.53.95-.29,1.34.15,1.44.59,1.22.03.04M444.85,462.02l-2.44.03M444.85,462.02l-.59-2.89-.1-3.01M444.16,456.11l.86-.25.78-.64,1.38-1.8,1.46-1.8.85-.65.45-.18.45-.04M450.4,450.76l.42.11.38.24.62.77.92,2,1.04,1.99.71.75.86.38M455.35,457.01l.92-.12.86-.52,1.55-1.59,1.62-1.6.92-.52.49-.11.48.03M462.18,452.57l.44.17.39.3.62.86.87,2.15.96,2.13.7.85.87.5M467.02,459.53h.97s.93-.39.93-.39l1.73-1.38,1.79-1.39.99-.41.51-.05.5.09M474.44,456.01l.45.23.39.35.6.95.77,2.28.85,2.27.66.95.87.62M479.02,463.65l1.01.14,1.01-.28,1.9-1.17,1.95-1.18,1.06-.29h.54s.51.17.51.17M487.01,461.04l.45.29.38.41.55,1.04.63,2.4.7,2.39.61,1.03.85.73M491.19,469.32l-.95,2.89-.34,1.43-.15,1.36M543.04,520.82l-11.8-13.4-12.51-11.97-13.39-10.64-13.61-8.72-1.98-1.1M571.26,518.07l-2.02.22-9.07.99-8.94,1.03-2.19.23-2.25.21-2.3.14-1.47-.07M494.8,417.6l-11.21,6.49-13.65,8.89-8.55,6.3-7.93,6.59-7.08,6.79M614.14,633.43l.1-.4.16-.39.23-.39.29-.38.63-.63.75-.53M684.51,686.63l-.1-.28-.66-1.11-.89-1.15-.88-1-.03-.03M680.27,684.1l1.68-1.04M680.27,684.1l1.79,2.4,2.17,2.01M684.63,693.67l-.38.1-.47.03-1.1-.13-2.34-.66-2.28-.74-1.03-.21-.82.06M676.22,692.13l-.47.38-.12.59.36,1.37.42,1.29-.06.51-.17.19-.29.12M675.88,696.58l-.4.04-.48-.04-1.1-.26-2.3-.89-2.25-.96-1.04-.33-.86-.08M667.45,694.07l-.54.25-.2.48.19,1.2.25,1.12-.14.41-.21.12-.32.05M666.47,697.71l-.42-.03-.49-.11-1.1-.38-2.26-1.09-2.21-1.15-1.05-.44-.89-.21M658.04,694.3l-.6.12-.27.36.04,1,.1.92-.21.29-.24.06-.34-.02M656.52,697.04l-.43-.1-.5-.17-1.1-.49-2.22-1.25-2.18-1.31-1.05-.55-.92-.33M648.12,692.84l-1.6-2.1-.68-1.19-.5-1.35M594.92,659.18l12.11,10.06,12.19,8.16,12.41,6.31,12.01,4.08,1.7.41M684.51,680.3l-2.49.33-.77.28-.71.35-.08.05-.04.02h-.02M618.07,646.54l.25.44,8.37,12.41,9.24,11.47,9.89,10.3,6.7,5.77M598.03,657.65l7.65,7.06,7.89,6.1,8.01,5.14,12.13,5.99,11.83,3.73.25.06M680.35,681.36l.05-.03M608.36,587.6l-.15-.5-.06-.48.04-.46.11-.37M654.59,605.61l-.15,1.3.29,1.43.3,1.4-.16,1.26-.4.48-1.95.84-1.38.44-1.02.74M650.45,615.69l-.33-.54-.17-.57v-.56s.16-.51.16-.51M658.86,602.36l-.3.52-1.79,1.14-1.28.65-.9.93M660.11,611.21l-3.81-2.32-.85-.69-.69-.8-.22-.45-.1-.46.02-.45.13-.42M599.13,469.83l-.83.39M592.24,473.85l-.12.54.14.36M661.62,592.84l-.09.22-1.61,1.43-1.07.78M596.4,473.72l1.94-1.14,2.63-1.51M514.11,426.12l-6.05.35M508.06,426.47l-1,.26-.94.71-.55,1.05-.03,1.14v.04M508.18,431.77l-2.62-2.11M508.18,431.77l.84-2.21,1.26-2.37M510.28,427.19l1.03.54,1.11.14,2.23-.37,2.28-.4,1.16.12.55.22.49.34M519.13,427.78l.4.46.3.55.34,1.22.15,2.56.25,2.54.42,1.2.73,1M521.73,437.31l1.02.64,1.13.26,2.3-.11,2.34-.14,1.17.24.55.27.48.39M530.71,438.86l.38.49.28.57.29,1.24v2.54s.09,2.53.09,2.53l.35,1.22.68,1.06M532.78,448.52l1,.74,1.14.38,2.36.12,2.4.09,1.18.35.54.32.47.43M541.86,450.95l.36.52.25.59.21,1.26-.18,2.51-.11,2.49.26,1.24.61,1.11M543.26,460.67l.97.83,1.15.48,2.42.34,2.46.31,1.18.45.53.37.45.47M552.43,463.92l.33.55.21.61.12,1.26-.38,2.45-.33,2.44.16,1.24.53,1.15M553.06,473.61l-2.27,1.55-1.03.73-.86.63M580.28,543.13l-5.13-16.18-6.69-16.17-8.38-16.35-9.68-15.69-1.5-2.21M613.75,552.35l-.7-.08-7.92-1.39-8.42-1.86-8.47-2.26-2.1-.7-2.18-.83-2.25-1.07-1.44-1.03M522.68,425.59l-8.57.53M663.29,582.22l-1.34,1.63-.74.75M661.9,573.92l-.49-.05-.19.05.03.07M666.17,576.7l1.94-1.15,2.88-1.66.25-.14M670.24,581.88l-4.07-5.18M666.17,576.7l-.85-.92-1.18-.89-1.23-.64-.98-.31h-.03M661.84,576.73l.07-2.81M661.84,576.73l2.4,1.24,2.74.91M666.98,578.88l.21,1.03.58,1.01,1.69,1.79,1.74,1.71.62.93.17.49.03.49M672.01,586.33l-.12.45-.25.41-.77.64-1.97.82-1.91.76-.72.58-.36.79M665.9,590.77l.11.97.49.99,1.52,1.82,1.56,1.74.52.92.12.47-.02.45M670.2,598.13l-.17.4-.29.35-.83.51-2.06.56-2.01.51-.79.45-.45.69M663.6,601.6v.9s.41.95.41.95l1.36,1.81,1.4,1.73.44.88.07.43-.07.4M667.21,608.71l-.21.35-.33.29-.9.39-2.16.31-2.11.26-.86.33-.54.58M660.11,611.21l-.08.82.31.9,1.21,1.76,1.25,1.68.35.83.03.4-.11.35M663.07,617.95l-.25.29-.37.23-.96.26-2.25.07-2.21.03-.93.21-.62.46M655.49,619.5l-2.69-1.7-1.26-.98-1.09-1.14M614.15,633.43l10.47-.86,9.43-3.03,8.47-5.29,7.04-7.34.9-1.23M619.66,638.76l-.78-.16-3-1.57-.65-.62-.6-.8-.46-1.1-.03-1.08M677.58,589.7l-.6-.56-6.73-7.26M669.87,571h-2.1s-2.77.78-2.77.78l-.62.44M623.04,629.88l2.61.56M616.31,630.7l6.65-.19,6.34-1.32,5.93-2.39,8.05-5.49,6.71-7.61.13-.19M602.52,477.16l-6.11-3.44M596.4,473.72l-1.13-.48-1.29-.18-1.1.23-.64.53v.02M593.87,477.08l-1.63-3.23M593.87,477.08l2.02-.58,2.39-.82M598.28,475.68l.77,1.05,1.03.79,2.35,1.05,2.39.99,1.07.74.44.48.33.55M606.65,481.32l.18.59.05.61-.2,1.17-.99,2.09-.92,2.06-.14,1.13.25,1.17M604.89,490.14l.7,1.08.98.86,2.28,1.23,2.32,1.17,1.01.81.4.5.29.55M612.86,496.35l.14.58v.59s-.27,1.1-.27,1.1l-1.15,1.91-1.09,1.88-.24,1.07.16,1.14M610.41,504.62l.62,1.1.93.91,2.22,1.38,2.25,1.32.96.86.37.51.24.55M617.99,511.26l.1.57-.03.56-.38,1.03-1.33,1.73-1.28,1.7-.34.99.06,1.1M614.78,518.94l.54,1.1.87.95,2.15,1.5,2.18,1.44.9.89.33.52.2.55M621.95,525.89l.05.55-.08.53-.48.95-1.52,1.54-1.48,1.51-.45.92-.05,1.05M617.95,532.93l-2.95-.26-1.39-.23-1.23-.35M608.37,587.6l3.67-11.23,1.97-12.64.26-14.24-1.53-15.15-.37-2.26M650.51,601.03l-.89.16-3.06.37-2.92.16-5.86-.26-5.97-1.06-5.8-1.75-6.12-2.52-6.12-3.29-1.5-1.04-1.53-1.23-1.52-1.55-.87-1.43M613.66,482.6l-1.17-.52-9.97-4.92M559.06,600.12l.52-.3.83-1.62.16-2.32-.6-2.78-1.35-2.91-1.97-2.66-2.4-2.05-2.54-1.13h-2.36s-.97.61-.97.61M555.42,594.41l.08-.04.11-.14.08-.31-.03-.47-.18-.6-.37-.69-.68-.79-.86-.58-.92-.21-.49.16M556.77,597.35l-.41-.02-.45-.24-.42-.42-.33-.54-.19-.58-.02-.53.16-.4.08-.09M545.62,582.89l-.18.38v.52s.16.58.16.58l.31.55.41.44.45.27.42.05.09-.02M545.62,582.89l-.17.1M550.56,587.95l-.83.49-.81,1.58-.15,2.27.59,2.71,1.32,2.83,1.93,2.59,2.35,2,2.48,1.09,2.32-.02.89-.59M556.77,597.35l-.17.1M546.56,582.23l-.71.34-.42.41M549.52,588.61l-.07.05-.7,1.47-.16,2.04.46,2.44,1.08,2.6,1.63,2.48,2.05,2.08,2.28,1.42,2.26.54,2.01-.47,1.5-1.49.79-2.43-.05-3.15-.95-3.58-1.79-3.64-2.5-3.29-2.96-2.56-3.13-1.5-2.96-.21-1.39.66M556.59,597.45l.68-.42.42-.78.13-1.13-.21-1.4-.58-1.54-.93-1.54-1.23-1.37-1.43-1.02-1.49-.51-1.39.12-.51.37M556.59,597.45l-.41-.02-.45-.24-.42-.42-.33-.54-.19-.58-.02-.53.16-.4.31-.2M555.24,594.51l.14-.09.11-.23.03-.39-.08-.45-.21-.55-.36-.61-.51-.61-.64-.51-.72-.32-.74-.04-.66.3-.49.68-.23,1.05.1,1.36.48,1.57.86,1.62,1.19,1.49,1.43,1.18,1.53.7,1.49.08,1.25-.62.87-1.32.34-1.94-.28-2.41-.92-2.65-1.52-2.62-2-2.29-2.29-1.68-2.36-.84-2.16.17-1.58,1.06M547.34,585.58l-.32.18-.42-.05-.45-.26-.41-.44-.31-.55-.17-.58v-.52s.18-.38.18-.38M540.38,586.03l.24,3.12.71,3.29,1.15,3.34,1.56,3.29,1.91,3.12,2.2,2.84,2.42,2.47,2.54,2.02,2.59,1.49,2.55.92,2.41.31,2.2-.3,1.91-.91,1.56-1.48,1.15-2.01.71-2.47.24-2.84-.24-3.12-.71-3.29-1.15-3.34-1.56-3.29-1.91-3.12-2.2-2.84-2.41-2.47-2.55-2.02-2.59-1.49-2.54-.92-2.42-.31-2.2.3-1.91.91-1.56,1.48-1.15,2.01-.71,2.47-.24,2.84M550.48,576.03l-1.98-.21-2.2.3-1.47.63M564.68,611.12l.45-.28,1.56-1.48,1.15-2.01.34-.94M419.71,382.66l.53-1.84.98-1.36,1.36-.79,1.66-.18,1.85.44,1.93,1.04,1.89,1.57,1.72,2.01,1.45,2.31,1.09,2.47.66,2.48.19,2.33-.3,2.03-.76,1.61-1.18,1.09-1.53.49-1.77-.13-1.91-.75-1.93-1.32-1.82-1.8-1.6-2.18-1.28-2.41-.88-2.5-.43-2.42.06-2.2M413.34,377.84l.64-2.56,1.09-2.11,1.51-1.59,1.88-1.02,2.18-.41,2.41.21,2.55.83,2.61,1.42,2.58,1.95,2.46,2.43,2.26,2.82,1.98,3.11,1.64,3.3,1.23,3.37.79,3.33.32,3.18-.16,2.92-.64,2.56-1.09,2.11-1.51,1.59-1.88,1.02-2.18.41-2.41-.21-2.55-.83-2.61-1.42-2.58-1.96-2.46-2.43-2.26-2.82-1.98-3.11-1.64-3.3-1.23-3.37-.79-3.33-.32-3.18.16-2.92M506.08,333.6l-2.51-2.27-2.6-1.78-2.6-1.22-2.51-.62h-.08M756.07,777.51l.21-.67.48-2.69v-3.02s-.49-3.24-.49-3.24l-.33-1.37M425.14,682.42l-2.53-2.2-2.37-2.63-2.13-2.97-1.82-3.22-1.44-3.35-1.02-3.37-.56-3.27-.08-3.06.4-2.75.87-2.34,1.31-1.86,1.7-1.31,2.04-.71,2.3-.1,2.49.52,2.59,1.13,2.61,1.69,2.53,2.2,2.37,2.63,2.13,2.97,1.82,3.22,1.44,3.35,1.02,3.37.56,3.27.08,3.06-.4,2.75-.87,2.34-1.31,1.86-1.7,1.31-2.04.71-2.3.1-2.49-.52-2.59-1.13-2.61-1.69M426.14,675.64l-1.86-1.69-1.67-2.09-1.37-2.36-.99-2.49-.54-2.46-.07-2.27.42-1.94.87-1.49,1.27-.94,1.6-.34,1.82.29,1.92.89,1.91,1.45,1.78,1.91,1.53,2.25,1.19,2.45.77,2.49.31,2.38-.18,2.12-.65,1.73-1.08,1.22-1.45.65-1.72.03-1.89-.6-1.93-1.18M676.63,812.82l-.54,1.84-.98,1.36-1.36.79-1.66.18-1.85-.44-1.93-1.04-1.89-1.57-1.72-2-1.45-2.31-1.09-2.47-.66-2.48-.19-2.33.3-2.03.76-1.61,1.18-1.09,1.52-.49,1.77.13,1.91.75,1.92,1.32,1.82,1.8,1.6,2.17,1.28,2.41.88,2.5.43,2.42-.06,2.2M683,817.64l-.64,2.56-1.09,2.11-1.51,1.59-1.88,1.02-2.18.41-2.41-.22-2.55-.83-2.61-1.42-2.58-1.95-2.46-2.43-2.26-2.82-1.98-3.11-1.64-3.3-1.23-3.37-.79-3.33-.32-3.18.16-2.92.64-2.56,1.09-2.11,1.51-1.59,1.88-1.02,2.18-.41,2.41.21,2.55.83,2.61,1.42,2.58,1.95,2.46,2.43,2.26,2.82,1.98,3.11,1.64,3.3,1.23,3.37.79,3.33.32,3.18-.16,2.92M683.62,542.64l.67-.45M671.19,513.06l2.53,2.2,2.37,2.63,2.13,2.98,1.82,3.22,1.44,3.35,1.02,3.36.56,3.27.08,3.06-.4,2.75-.87,2.34-1.31,1.86-1.7,1.31-2.04.71-2.3.1-2.49-.52-2.59-1.13-2.61-1.69-2.53-2.2-2.37-2.63-2.13-2.97-1.82-3.22-1.44-3.35-1.02-3.37-.56-3.27-.08-3.06.4-2.75.87-2.34,1.31-1.86,1.7-1.31,2.04-.71,2.3-.1,2.49.52,2.59,1.13,2.61,1.69M670.2,519.84l1.86,1.69,1.67,2.09,1.37,2.37.99,2.49.54,2.46.06,2.27-.42,1.94-.87,1.49-1.27.94-1.6.34-1.82-.29-1.92-.9-1.91-1.45-1.78-1.91-1.53-2.25-1.19-2.45-.77-2.49-.31-2.38.18-2.12.65-1.73,1.08-1.22,1.45-.65,1.72-.03,1.89.6,1.93,1.18M755.87,498.94l.71-2.49.24-2.87-.24-3.14-.72-3.32-1.17-3.37-1.58-3.32-1.93-3.15-2.22-2.87-2.44-2.49-2.57-2.03-2.61-1.5-2.57-.92-1.02-.2M512.99,603.25l-.81.07-1.52-.49-.71-.51-.62-.72-.27-.61M487.19,547.01l-.37-1.38-.91-4.95-.28-2.49-.14-2.52v-2.3M509.02,601l-.88-1.69-3.06-6.21-2.4-5.08-2.22-4.9-1.38-3.16-.33-.78M572.62,684.24l-2.03-1.17-2.11-1.39-2.02-1.48-3.83-3.26-3.98-3.95-4.68-5.21-4-4.75-4.17-5.14-2.8-3.56M485.49,533.12v-7.25M477.35,388.8v1.22M575.58,685.96l-2.61-1.51M661.32,735.46l-41.73-24.09M692.65,762.94l1.06.61M664.31,746.58l.04.02M497.83,328.8l-1.02-.6-2.33-1.01-2.38-.66-2.4-.27-2.37.16-2.3.64-1.44.77M749.69,788.59l.72-.39,1.97-1.73,1.47-2.02,1.1-2.38.69-2.67.29-2.85-.02-.75M492.85,418.62l.7-.91M676.74,735.06l-2.34.3-3.47.22-1.98.05h-1.72s-1.9-.02-1.9-.02l-2.13-.06-2.02-.11-.68-.04-.21.02M695.9,737.98l-.06.03M414.05,386.44v267.74M432.24,685.69l231.86,133.85M684.51,657.92l-3.82-6.61M420.51,364.26l-.94.5-1.97,1.73-1.47,2.02-1.1,2.38-.69,2.67-.21,2.12M674.03,825.12l1.47.64,2.38.66,2.4.27,2.37-.16,2.3-.64,1.23-.65M448.3,373.33l-.38-.14-.07.06M483.6,327.76l-63.3,36.54M686.4,825.2l63.3-36.54M477.24,422.79l.03-.04M664.26,746.64h-.05M478.92,421.83l2.46-1.15,1.96-.66,1.63-.5,1.58-.44,1.63-.4,2.3-.48,2.89-.45,3.43-.33,3.06-.16,3.15-.04,3.13.08,2,.09.29-.03M684.51,722.39l-.1.16-1.11,2.1-1.28,2.3-1.34,2.27-1.41,2.22-2.23,3.23-2.42,3.04-2.31,2.51-1.23,1.22-1.32,1.26-1.64,1.44-2.23,1.54M510.91,409.22l-.02-.05-.98-.42-1.35-.76M692.68,726.71v-1.05s.06-.85.06-.85h-.1M739.52,468.29l-241.69-139.52M755.94,775.82v-279.09M751.19,480.52l-2.07-3.21-.92-1.24-1.61-1.93-1.76-1.82-1.97-1.73-2.12-1.55-1.21-.71M755.91,496.71l-.06-2.17-.41-2.91-.66-2.73-.8-2.44-.78-1.95-1.06-2.24-.95-1.75M692.65,739.86l3.37-1.95M500.72,399.61l-3.38,1.95M668.71,500.01v-.03s-.06-.07-.06-.07l-.17-.08-.33-.1-.48-.15-.63-.22-.77-.31-1.89-.96-2.35-1.45M692.65,549.66l-.08-2.76.11-2.11.11-.82.12-.66.11-.49.08-.34.02-.19-.07-.07M662.23,496.75l-60.56-34.96M509.09,408.35l-60.56-34.96M505.61,415.73l91.49,52.81M684.51,620.11v105.57M692.65,796.2v-69.93M692.65,619.36v-69.93M597.44,468.75l.51.3,4.27,2.86,3.81,3.1,3.18,2.97,2.79,2.83,3.56,3.88,4.54,5.29,4.32,5.3,4.49,5.76,3.8,5.12,3.14,4.37,2.51,3.58,1.91,2.77,1.83,2.72,1.84,2.79,2.59,4.04,3.5,5.66,2.99,5.12M653.01,537.19l3.48,6.12,3.37,6.33,2.16,4.22,1.65,3.33,1.66,3.46,2.18,4.68,2.69,5.96,3.12,7.32,3.18,8.1,2.49,6.84,1.78,5.41,1.18,4.01.93,3.62.56,2.58.48,2.72.38,3.15.22,3.49v.24M719.53,470.6l-50.86,29.36M693.08,542.25l50.85-29.36M480.27,667.07l4.43-2.56M482.06,641.36l-.17-1.95-.13-1.48-.1-1.23-.06-.77-.04-.6-.02-.37v-.17s0,.03,0,.03l.02-.18.07-.77.03-.78v-.64s.01-.9.01-.9M435.29,555.45l1.44-.83M481.7,631.54v-1.07s-.01-2.33-.01-2.33l-.03-1.82-.03-1.37v-.82s-.02-.54-.02-.54v-.46s.01-.37.01-.37l.04-.26.1-.09.25-.46.17-.6.09-.52.1-.76M484.04,609.63l.06-.14.17-.61M482.36,620.05l.1-1.12.14-3.48.07-2.21.08-1.03.1-.56M442.32,545.76l.3-.23M442.62,545.53l.37-.66.73-2.65.49-1.66.34-.56.4-.24M448.57,539.07l.46-.33M562.69,745.16l6.4-3.69M449.04,538.74l.78-1.18.59-1.54.6-1.48.37-.58.42-.34M456.56,533.22l.83-.83.67-1.19.63-1.22.74-.95M520.97,619.74l.4.63,3.18,4.68M503.42,573.47l.04.32.91,5.34M446.38,463.43h.4M504.35,579.16l4.05,4.89,2.99,4.75,2.13,4.28,1.49,3.58,1.86,5.42,1.97,7.31,1.67,9.05M555.46,654.48l.1.06,4.72,2.51M525.44,625.86l7.06,4.01,5.17,3.81,3.53,3.14,2.4,2.43,1.57,1.74,1.32,1.56,1.51,1.91,2.18,3.04,2.57,4.32M452.1,461l.67.31M452.77,461.31l.51.24,1.06,1.05,1.11,1.05,1.31.62M446.33,463.39l.91-.08.93-.29M484.28,608.99l.45-2.02.92-3.3.95-2.94.95-2.61.94-2.32,1.3-2.88,1.96-3.8,2.79-4.53,3.81-5,5.04-5.14.16-.12M496.19,529.24l-4.59,8.17-3.62,7.74-2.54,6.02-2.27,5.88-2.15,6.19-2.19,7.12-1.51,5.61-1.36,5.72-1.37,6.81-1.32,8.31-.95,8.48-.5,7.06-.22,6.15-.03,5.02.17,6.79.55,8.67,1.02,9.04M479.84,526.09l5.8-.22,1.14.08M486.79,525.94l6.48.43,6.12,1,6.97,1.74,7.04,2.4M507.9,539.76l.81,3.28.14,3.38-.26,3.23-.43,2.89-.63,3.29-1,4.57-1.34,5.92-1.79,7.15M462.61,462.67l.69.17,1.78,1.66,1.16,1.3,1.41.88M456.76,464.26l1,.05,1.03-.19M637.39,741.72l-.75-.48-.54-.35-.37-.24-.44-.27-.24-.14-.24-.16-.4-.28-.53-.38-.56-.41-1.03-.76-.94-.7M510.31,534.42l-1.95,3.13-.56,1.07M473.46,465.85l.77.16.72.45,1.21,1.44,1.18,1.56,1.49,1.16M467.65,466.67l1.09.18,1.14-.08M548.24,724.42l3.09,5.6,2.54,4.12M522.33,621.79l-.18,3.86-.06,3.89.06,4.43.25,5.38.48,5.93.68,5.86.71,4.83.98,5.53,1.45,6.84,2.04,8.07,2.3,7.79,2.3,6.9,2.21,6.01,2.04,5.11,2.07,4.87,2.87,6.27,3.84,7.68.45.82M556.8,738.88l.25.41M562.88,657.57l6.07-.17,4.54.21,3.47.34,3.37.48,3.15.56,2.47.43,1.15.02.24-.12M597.23,658.31l3.74-2.1M478.84,470.62l1.68.17,1.64-.34,1.65-.23.83.11.79.35,1.29,1.27,1.05,1.52,1.09,1.45,1.32,1.08M494.6,417.62l-3.49,2.02M519.4,526.54l-.51.42M436.89,554.43l.57-1.05M516.25,528.9l-5.85,5.33M560.89,657.3l.4.96,3.85,8.32,3.3,6.57,2.58,4.83,1.93,3.48,2.08,3.61,4.94,8.08,5.53,8.31,4.9,6.8,3.86,5.02,4.66,5.69,4.68,5.35,3.5,3.77,1.37,1.42,1.93,1.96,2.71,2.66,3.51,3.28,5.95,5.15,7.44,5.73,8.35,5.48M648.93,748.02l-1.63-.73-.39-.19M490.13,476.05l6.35,3.59,6.38,4.11,4.81,3.41,2.59,1.94,1.88,1.47,1.91,1.53,2.02,1.67,3.46,2.96,4.11,3.73,5.31,5.14,6.41,6.76,7.39,8.6M655.54,688.11h-.02s-.54-.2-.54-.2l-.83-.32-2.47-.99-1.58-.59-1.63-.48M656.75,686.67l-.48.04-.04.06M506.53,431.15l.13.1,1.62,1.32M513.89,422.77l-7.05,4.07M662.51,688.36h-.02s-2.59-.86-2.59-.86l-1.69-.55-1.47-.28M665.36,686.37l-.45.17h0M508.3,432.58l1.78.89,1.83.39,1.83.47.87.43.77.64,1.09,1.73.77,1.84.82,1.73,1.11,1.49M519.17,442.2l1.77,1.1,1.86.6,1.84.67.86.52.74.71.98,1.83.64,1.89.69,1.79,1.01,1.57M673.49,684.52l-.68.31M670.92,687.45l-.35.17-.58-.03-1.54-.46-1.65-.56-.79-.18-.66-.03M529.58,452.87l1.73,1.28,1.87.79,1.84.86.84.61.71.78.88,1.89.51,1.93.57,1.83.91,1.65M539.44,464.5l1.7,1.45,1.84.97,1.79,1.02.81.68.65.84.74,1.92.37,1.9.43,1.84.82,1.71M601.17,656.09l.48-.28M678.77,684.86l-.43.15h0M678.33,685.02l-2.06-.27-1.51-.28-1.27.05M548.54,476.84l4.69,6.98,4.39,7.13,3.17,5.54,2.59,4.81,2.47,4.85,2.33,4.87,2.45,5.48,2.9,7.1,3.15,8.72,3.13,10.32M594.34,659.71l3.91,3.74,4.79,4.28,3.34,2.84,2.84,2.33,2.66,2.11,3.58,2.74,4.96,3.63,4.42,3.08,3.54,2.37,2.95,1.91,3.55,2.21,4.3,2.56,4.44,2.49,5.42,2.81,4.73,2.24,4.32,1.86,4.46,1.73,6.04,2.03,5.75,1.58,4.83,1.04,3.92.65,1.41.16M648.99,685.63l-2.25-.5-3.19-.94-1.71-.6-1.3-.5-.51-.14.02.02M611.68,531.5l1.03,6.58.71,6.86.31,5.48.07,4.18-.05,3.24-.2,4.02-.48,4.99-.91,5.82-1.54,6.45-2.4,6.84M608.85,518.19l.96,1.99,1.33,1.72,1.24,1.68.45.9.22.92-.21,1.68-.57,1.45-.49,1.42-.05,1.53M657.87,596.93v1.4s.49,1.43.49,1.43l.49,1.39.1.66-.1.59M604.82,504.55l1.1,1.96,1.45,1.67,1.37,1.66.53.9.31.94-.05,1.8-.43,1.59-.33,1.53.08,1.6M592.23,474.76l.26.5.91,1.82M598.27,470.18l-5.52,3.19M599.66,490.79l1.24,1.92,1.56,1.59,1.49,1.59.6.88.39.94.1,1.87-.27,1.69-.18,1.62.23,1.65M658.85,595.26l-.61.79-.38.88M660.12,586.76l.2,1.62.7,1.59.65,1.54.11.73-.16.65M593.4,477.08l1.38,1.86,1.65,1.48,1.59,1.49.66.85.46.94.26,1.93-.11,1.77-.02,1.7.37,1.69M661.22,573.99l-.05,1.63M661.19,584.58l-.69,1.05-.38,1.14M661.25,575.99l.34,1.46.94,1.71.82,1.66.12.8-.2.7M664.32,572.13l-3.05,1.76M619.64,638.82l3.72,1.02,6.17,1.66,4.44,1.16,3.38.86,3.47.85,3.56.84,3.62.82,3.65.79,14.64,2.7,4.08.6,5.62.7,4.63.47,3.87.27M637.4,625.55l-1.43.86-.62.3M650.51,601.03l6.15-1.16,1.6-.39M564.34,611.32l.35-.2M544.84,576.75l-.34.2M437.33,405.77l4.6-2.66M421.91,368.44l-4.59,2.65M437.33,684.86l4.6-2.66M421.92,647.53l-4.6,2.66M679.02,824.38l4.59-2.65M663.61,787.05l-4.6,2.66M679.02,545.29l4.6-2.66M663.61,507.96l-4.6,2.66"/>
  <text class="cls-5" transform="translate(135.23 992.92)"><tspan x="0" y="0">Dimensions</tspan><tspan x="0" y="70">Bearing</tspan><tspan x="0" y="140">Speed</tspan><tspan x="0" y="280">Airflow</tspan><tspan x="0" y="350">Static Pressure</tspan><tspan x="0" y="420">Noise Level</tspan><tspan x="0" y="490">Rated Voltage</tspan><tspan x="0" y="560">Rated Current</tspan><tspan x="0" y="630">Frame &amp; Blade Material</tspan><tspan x="0" y="700">Wire Material</tspan><tspan x="0" y="840">PCB Material</tspan><tspan x="0" y="910">Label Material</tspan><tspan x="0" y="980">Net Weight (Fan)</tspan></text>
  <text class="cls-4" transform="translate(668.93 992.93)"><tspan x="0" y="0">120x120x30(mm)</tspan><tspan x="0" y="70">FDB</tspan><tspan x="0" y="140">0(0-20%)-2100(100%)</tspan><tspan x="0" y="210">RPM</tspan><tspan x="0" y="280">72.44(CFM)</tspan><tspan x="0" y="350">3.01(mmH2O) </tspan><tspan x="0" y="420">32.2(dBA)</tspan><tspan x="0" y="490">DC 12V</tspan><tspan x="0" y="560">0.35A</tspan><tspan x="0" y="630">PBT + 30% Glass Fiber</tspan><tspan x="0" y="700">PVC-insulated</tspan><tspan x="0" y="770">Copper Wire</tspan><tspan x="0" y="840">Fiberglass </tspan><tspan x="0" y="910">PET</tspan><tspan x="0" y="980">200g</tspan></text>
  <text class="cls-6" transform="translate(561.5 2146.36)"><tspan x="0" y="0">02</tspan></text>
  <text class="cls-1" transform="translate(152.31 197.01)"><tspan class="cls-8" x="0" y="0">H12</tspan><tspan class="cls-7" x="98.52" y="0"> </tspan><tspan class="cls-3" x="113.64" y="0">Clearance &amp; Specifications</tspan></text>
</svg>